<svg xmlns="http://www.w3.org/2000/svg" xmlns:xlink="http://www.w3.org/1999/xlink" width="54" height="54" viewBox="0 0 54 54">
  <defs>
    <clipPath id="clip-path">
      <rect id="Rectángulo_35820" data-name="Rectángulo 35820" width="54" height="54" transform="translate(895 11763)" fill="#fff" stroke="#707070" stroke-width="1"/>
    </clipPath>
  </defs>
  <g id="_100" data-name="100" transform="translate(-895 -11763)" clip-path="url(#clip-path)">
    <g id="habitacion" transform="translate(895 11771.735)">
      <path id="Trazado_127507" data-name="Trazado 127507" d="M41.714,35.738a.856.856,0,0,1-.64-.288l-3.7-4.166H41.3l.857,2.322.361.979a.856.856,0,0,1-.8,1.152ZM11.828,33.649l-.345.936a.856.856,0,0,0,1.443.865l3.7-4.166H12.7Zm0,0" fill="#aabfd5"/>
      <path id="Trazado_127508" data-name="Trazado 127508" d="M41.3,31.285H37.373l1.4,1.571h3.11Zm0,0" fill="#7d8eb0"/>
      <path id="Trazado_127509" data-name="Trazado 127509" d="M12.122,32.856h3.11l1.4-1.571H12.7Zm0,0" fill="#7d8eb0"/>
      <path id="Trazado_127510" data-name="Trazado 127510" d="M16.187,13.231H37.813a2.607,2.607,0,0,1,2.607,2.607v7.1H13.58v-7.1a2.607,2.607,0,0,1,2.607-2.607Zm0,0" fill="#ef9397"/>
      <path id="Trazado_127511" data-name="Trazado 127511" d="M37.813,13.231H35.282a2.607,2.607,0,0,1,2.607,2.607v7.1H40.42v-7.1a2.607,2.607,0,0,0-2.607-2.607Zm0,0" fill="#cc5277"/>
      <path id="Trazado_127512" data-name="Trazado 127512" d="M.791,21.663V32.776a.441.441,0,0,0,.441.441h8.26a.441.441,0,0,0,.441-.441V21.663a.441.441,0,0,0-.441-.441H1.232a.441.441,0,0,0-.441.441Zm0,0" fill="#d0adad"/>
      <path id="Trazado_127513" data-name="Trazado 127513" d="M9.491,21.223H7.149a.441.441,0,0,1,.441.441V32.776a.441.441,0,0,1-.441.441H9.491a.441.441,0,0,0,.441-.441V21.664A.441.441,0,0,0,9.491,21.223Zm0,0" fill="#bc8080"/>
      <path id="Trazado_127514" data-name="Trazado 127514" d="M7.823,16.7H2.9a.221.221,0,0,1-.211-.287L3.764,13a.221.221,0,0,1,.211-.154H6.749a.221.221,0,0,1,.21.154l1.074,3.416A.22.22,0,0,1,7.823,16.7Zm0,0" fill="#87d1ea"/>
      <path id="Trazado_127515" data-name="Trazado 127515" d="M52.468,10.674h-12.5a.741.741,0,0,1-.741-.741v-8.4a.741.741,0,0,1,.741-.741h12.5a.741.741,0,0,1,.741.741v8.4A.741.741,0,0,1,52.468,10.674Zm0,0" fill="#87d1ea"/>
      <path id="Trazado_127516" data-name="Trazado 127516" d="M43.993,22.933H10.007A2.511,2.511,0,0,0,7.5,25.444v3.33a2.511,2.511,0,0,0,2.511,2.511H43.993A2.511,2.511,0,0,0,46.5,28.774v-3.33A2.511,2.511,0,0,0,43.993,22.933Zm0,0" fill="#56a6e8"/>
      <path id="Trazado_127517" data-name="Trazado 127517" d="M43.993,22.933H41.462a2.511,2.511,0,0,1,2.511,2.511v3.33a2.511,2.511,0,0,1-2.511,2.511h2.531A2.511,2.511,0,0,0,46.5,28.774v-3.33A2.511,2.511,0,0,0,43.993,22.933Zm0,0" fill="#2176c7"/>
      <path id="Trazado_127518" data-name="Trazado 127518" d="M39.292,19.456H32.21a2.654,2.654,0,0,0-2.654,2.654v.823h12.39V22.11a2.655,2.655,0,0,0-2.654-2.654Zm0,0" fill="#d0e2ea"/>
      <path id="Trazado_127519" data-name="Trazado 127519" d="M39.292,19.456H36.975a2.654,2.654,0,0,1,2.654,2.654v.823h2.317V22.11a2.654,2.654,0,0,0-2.654-2.654Zm0,0" fill="#9bb8d1"/>
      <path id="Trazado_127520" data-name="Trazado 127520" d="M21.79,19.456H14.708a2.654,2.654,0,0,0-2.654,2.654v.823h12.39V22.11a2.654,2.654,0,0,0-2.654-2.654Zm0,0" fill="#d0e2ea"/>
      <path id="Trazado_127521" data-name="Trazado 127521" d="M21.79,19.456H19.472a2.654,2.654,0,0,1,2.654,2.654v.823h2.318V22.11a2.654,2.654,0,0,0-2.654-2.654Zm0,0" fill="#9bb8d1"/>
      <path id="Trazado_127522" data-name="Trazado 127522" d="M53.209,9.933V7.453L50.533,5a1.231,1.231,0,0,0-1.61-.046l-7,5.718h10.54a.741.741,0,0,0,.741-.741Zm0,0" fill="#7d8eb0"/>
      <path id="Trazado_127523" data-name="Trazado 127523" d="M53.058,7.314H46.037l2.886-2.358A1.231,1.231,0,0,1,50.533,5Zm0,0" fill="#f0f2dc"/>
      <path id="Trazado_127524" data-name="Trazado 127524" d="M44.534,4.309A1.424,1.424,0,1,1,43.11,2.885,1.424,1.424,0,0,1,44.534,4.309Zm0,0" fill="#fff7af"/>
      <path id="Trazado_127525" data-name="Trazado 127525" d="M52.468,0h-12.5a1.534,1.534,0,0,0-1.532,1.532v8.4a1.534,1.534,0,0,0,1.532,1.532h12.5A1.534,1.534,0,0,0,54,9.933v-8.4A1.534,1.534,0,0,0,52.468,0ZM49.424,5.569A.442.442,0,0,1,50,5.585l1.024.939H48.256Zm-9.4-3.987h12.4V5.655l-1.35-1.237a2.033,2.033,0,0,0-2.645-.075L45.537,6.7l0,0L41.646,9.883H40.02Zm4.125,8.3L46.32,8.105h6.1V9.883Zm0,0"/>
      <path id="Trazado_127526" data-name="Trazado 127526" d="M43.993,22.142H42.737V22.11a3.444,3.444,0,0,0-1.527-2.86V15.838a3.4,3.4,0,0,0-3.4-3.4H21.62a.791.791,0,1,0,0,1.582H37.813a1.818,1.818,0,0,1,1.816,1.816v2.844c-.11-.011-.222-.016-.336-.016H32.21a3.449,3.449,0,0,0-3.445,3.445v.032H25.235V22.11a3.449,3.449,0,0,0-3.445-3.445H14.707c-.114,0-.226.006-.336.016V15.838a1.818,1.818,0,0,1,1.816-1.816h2.268a.791.791,0,0,0,0-1.582H16.187a3.4,3.4,0,0,0-3.4,3.4V19.25a3.444,3.444,0,0,0-1.527,2.86v.032h-.539v-.478a1.234,1.234,0,0,0-1.232-1.232H6.153V17.5h1.67a1.012,1.012,0,0,0,.965-1.315L7.714,12.765a1.007,1.007,0,0,0-.965-.709H3.974a1.007,1.007,0,0,0-.965.708L1.936,16.18A1.012,1.012,0,0,0,2.9,17.5h1.67v2.937H1.232A1.233,1.233,0,0,0,0,21.664V32.776a1.233,1.233,0,0,0,1.232,1.232H7.885a.791.791,0,1,0,0-1.582h-6.3V22.014H9.141v.244a3.314,3.314,0,0,0-1.9,1.386.783.783,0,0,0-.284-.054H3.766a.791.791,0,0,0,0,1.582H6.717c-.007.089-.012.18-.012.271v3.33a3.29,3.29,0,0,0,.037.492H3.766a.791.791,0,0,0,0,1.582H6.957a.784.784,0,0,0,.4-.109,3.3,3.3,0,0,0,2.651,1.336h1.559l-.48,1.3-.346.936a1.647,1.647,0,0,0,2.777,1.664l3.465-3.9H31.566a.791.791,0,0,0,0-1.582H10.007a1.722,1.722,0,0,1-1.72-1.72v-3.33a1.722,1.722,0,0,1,1.72-1.72H43.993a1.722,1.722,0,0,1,1.72,1.72v3.33a1.722,1.722,0,0,1-1.72,1.72H34.77a.791.791,0,0,0,0,1.582h2.248l3.465,3.9a1.647,1.647,0,0,0,2.777-1.664l-.825-2.236h1.559a3.305,3.305,0,0,0,3.3-3.3v-3.33a3.306,3.306,0,0,0-3.3-3.3Zm-39.6-8.5H6.33l.715,2.275H3.678ZM14.866,32.076l-2.531,2.85a.065.065,0,0,1-.049.022.06.06,0,0,1-.054-.028.06.06,0,0,1-.008-.06l.346-.936.682-1.848Zm-2.022-9.934V22.11a1.865,1.865,0,0,1,1.863-1.863H21.79a1.865,1.865,0,0,1,1.863,1.863v.032Zm17.5,0V22.11a1.865,1.865,0,0,1,1.863-1.863h7.082a1.865,1.865,0,0,1,1.863,1.863v.032ZM41.775,34.859a.06.06,0,0,1-.008.06.059.059,0,0,1-.053.028.066.066,0,0,1-.049-.022l-2.532-2.85h1.614Zm0,0"/>
      <path id="Trazado_127527" data-name="Trazado 127527" d="M43.11,6.523A2.215,2.215,0,1,0,40.9,4.309,2.218,2.218,0,0,0,43.11,6.523Zm0-2.848a.633.633,0,1,1-.633.633A.634.634,0,0,1,43.11,3.676Zm0,0"/>
    </g>
  </g>
</svg>
