<svg xmlns="http://www.w3.org/2000/svg" xmlns:xlink="http://www.w3.org/1999/xlink" width="54" height="54" viewBox="0 0 54 54">
  <defs>
    <clipPath id="clip-path">
      <rect id="Rectángulo_35823" data-name="Rectángulo 35823" width="54" height="54" transform="translate(-2659 -1525)" fill="#fff" stroke="#707070" stroke-width="1"/>
    </clipPath>
  </defs>
  <g id="_101" data-name="101" transform="translate(2659 1525)" clip-path="url(#clip-path)">
    <g id="ejercicio" transform="translate(-2657.879 -1526.802)">
      <circle id="Elipse_4893" data-name="Elipse 4893" cx="3.6" cy="3.6" r="3.6" transform="translate(33.301 8.1)" fill="#e8c8b3"/>
      <path id="Trazado_127528" data-name="Trazado 127528" d="M30.844,12.6a5.933,5.933,0,0,1,4.2,1.738L40.5,19.8l-1.8,3.6L36,21.6,34.2,27H26.1l3.6-10.8L25.2,18V14.4l3.439-1.376a5.933,5.933,0,0,1,2.2-.424Z" fill="#04957c"/>
      <path id="Trazado_127529" data-name="Trazado 127529" d="M43.2,32.886V33.1a3.377,3.377,0,0,1-.646,1.985l-2.734,3.76L36,44.1l-2.7-1.8,3.342-5.571L38.7,33.3H30.6A3.6,3.6,0,0,1,27,29.7V27h7.2l4.5,1.8,2.378.952A3.374,3.374,0,0,1,43.2,32.886Z" fill="#e8c8b3"/>
      <path id="Trazado_127530" data-name="Trazado 127530" d="M31.5,33.3l-2.7,4.5-1.458,2.187a3.585,3.585,0,0,1-.836.883L20.74,45.2,16.2,48.6l-1.8-2.7,9-7.2,1.565-2.817L27.9,30.6Z" fill="#e8c8b3"/>
      <path id="Trazado_127531" data-name="Trazado 127531" d="M30.865,45.111a1.2,1.2,0,0,0,.387,1.312L35.1,49.5h.628a2.073,2.073,0,0,0,1.725-3.222L36,44.1l-2.7-1.8A4.858,4.858,0,0,0,30.865,45.111Z" fill="#e4e4e2"/>
      <path id="Trazado_127532" data-name="Trazado 127532" d="M16.2,48.6v2.7l.481,1.923a1.35,1.35,0,0,1-1.31,1.677H13.5l-1.8-2.7-.55-2.749A2.338,2.338,0,0,1,12.4,46.9l2-1Z" fill="#e4e4e2"/>
      <path id="Trazado_127533" data-name="Trazado 127533" d="M25.2,18l-6.3,2.948A1.608,1.608,0,0,1,17.614,18L25.2,14.4Z" fill="#e8c8b3"/>
      <path id="Trazado_127534" data-name="Trazado 127534" d="M40.537,19.771,45,15.969A1.935,1.935,0,0,1,47.525,18.9l-5.242,4.716a2.529,2.529,0,0,1-3.469-.1.223.223,0,0,1-.042-.258l1.707-3.414a.225.225,0,0,1,.057-.072Z" fill="#e8c8b3"/>
      <path id="Trazado_127535" data-name="Trazado 127535" d="M31.5,33.3l-2.7,4.5L25.2,36l-.235-.117L27.9,30.6Z" fill="#f3af3e"/>
      <path id="Trazado_127536" data-name="Trazado 127536" d="M40.066,6.609l-.113.021A3.6,3.6,0,1,0,37.821,9.6c0,.038.009.075.016.113a2.7,2.7,0,1,0,2.23-3.1Z" fill="#533222"/>
      <path id="Trazado_127537" data-name="Trazado 127537" d="M39.822,38.849,36,44.1l-2.7-1.8,3.342-5.571Z" fill="#dc4d41"/>
      <path id="Trazado_127538" data-name="Trazado 127538" d="M20.74,45.2,16.2,48.6l-1.8-2.7,4.5-3.6L20.7,45Z" fill="#dc4d41"/>
      <g id="Grupo_93518" data-name="Grupo 93518">
        <path id="Trazado_127539" data-name="Trazado 127539" d="M20.7,31.5H17.1a.9.9,0,0,1,0-1.8h3.6a.9.9,0,1,1,0,1.8Z" fill="#aedee2"/>
        <path id="Trazado_127540" data-name="Trazado 127540" d="M13.5,31.5H11.7a.9.9,0,1,1,0-1.8h1.8a.9.9,0,1,1,0,1.8Z" fill="#aedee2"/>
        <path id="Trazado_127541" data-name="Trazado 127541" d="M14.4,25.2H9a.9.9,0,1,1,0-1.8h5.4a.9.9,0,1,1,0,1.8Z" fill="#aedee2"/>
        <path id="Trazado_127542" data-name="Trazado 127542" d="M5.4,25.2H3.6a.9.9,0,1,1,0-1.8H5.4a.9.9,0,1,1,0,1.8Z" fill="#aedee2"/>
        <path id="Trazado_127543" data-name="Trazado 127543" d="M16.2,36.9H10.8a.9.9,0,1,1,0-1.8h5.4a.9.9,0,0,1,0,1.8Z" fill="#aedee2"/>
        <path id="Trazado_127544" data-name="Trazado 127544" d="M7.2,36.9H5.4a.9.9,0,1,1,0-1.8H7.2a.9.9,0,1,1,0,1.8Z" fill="#aedee2"/>
      </g>
      <path id="Trazado_127545" data-name="Trazado 127545" d="M38.7,28.8l-1.8,4.5H30.6A3.6,3.6,0,0,1,27,29.7V27h7.2Z" fill="#fbb540"/>
      <path id="Trazado_127546" data-name="Trazado 127546" d="M28.306,12.189l-3.439,1.376-.021.01-.031.012-7.578,3.6a2.508,2.508,0,1,0,2.018,4.593l.027-.012,6.278-2.937,2.674-1.069-2.987,8.959A.9.9,0,0,0,26.1,27.9v1.8a4.476,4.476,0,0,0,.331,1.691L22.7,38.109l-8.788,7.03-1.918.959a3.245,3.245,0,0,0-1.727,3.531l.55,2.749a.9.9,0,0,0,.134.323l1.8,2.7a.9.9,0,0,0,.749.4h1.871a2.25,2.25,0,0,0,2.183-2.8L17.1,51.191V49.052l9.946-7.46a4.471,4.471,0,0,0,1.045-1.1s1.474-2.211,1.481-2.223L32.011,34.2h5.1l-4.454,7.423a5.717,5.717,0,0,0-2.647,3.2,2.1,2.1,0,0,0,.679,2.3L34.539,50.2a.9.9,0,0,0,.563.2h.628A2.973,2.973,0,0,0,38.2,45.78l-1.1-1.656,6.186-8.505A4.248,4.248,0,0,0,44.1,33.1v-.218a4.255,4.255,0,0,0-2.688-3.969l-6.091-2.436L36.482,23l1.655,1.1c.013.015.027.03.041.044a3.434,3.434,0,0,0,4.707.135l5.238-4.712a2.835,2.835,0,0,0-3.706-4.29l-3.867,3.294-2.522-2.522a4.534,4.534,0,0,0,3.238-3.264,3.6,3.6,0,0,0-.44-7.1q-.008-.056-.017-.113a4.5,4.5,0,1,0-7.748,3.779A4.483,4.483,0,0,0,32.4,11.7c0,.06,0,.12.005.18a6.881,6.881,0,0,0-1.563-.18,6.8,6.8,0,0,0-2.538.489ZM24.3,17.428l-5.766,2.7a.708.708,0,0,1-.556-1.3l.02-.009,6.3-2.99Zm-8.575,36.4a.442.442,0,0,1-.355.173H13.982l-1.434-2.151-.515-2.575a1.441,1.441,0,0,1,.767-1.568l1.293-.646L15.3,48.874V51.3a.9.9,0,0,0,.027.218l.481,1.923a.443.443,0,0,1-.082.386Zm.7-6.518-.815-1.222L18.7,43.618l.883,1.325ZM26.594,39.49a2.683,2.683,0,0,1-.627.662l-4.945,3.709-.915-1.372L23.963,39.4a.9.9,0,0,0,.225-.266l1.147-2.064,2.152,1.076Zm1.864-2.866L26.209,35.5l1.37-2.466a4.488,4.488,0,0,0,2.361,1.119ZM35.729,48.6h-.312l-3.6-2.882a.3.3,0,0,1-.1-.324,3.929,3.929,0,0,1,1.548-2.035l2.085,1.39L36.7,46.779a1.173,1.173,0,0,1-.976,1.823Zm.053-5.728-.634-.422-.634-.422L36.93,38l1.612,1.075Zm3.7-10.016A.9.9,0,0,0,38.7,32.4h-.471l.972-2.43,1.543.617a2.464,2.464,0,0,1,1.556,2.3V33.1a2.459,2.459,0,0,1-.473,1.456L39.6,37.62l-1.744-1.163,1.616-2.693a.9.9,0,0,0,.011-.906ZM37.532,29.3l-1.239,3.1H30.6a2.7,2.7,0,0,1-2.7-2.7V27.9h6.127Zm3.692-8.934,4.354-3.708a1.035,1.035,0,0,1,1.346,1.572l-5.238,4.712a1.631,1.631,0,0,1-1.857.215ZM36.9,14.4a2.706,2.706,0,0,1-.593-.065l-.633-.633a6.881,6.881,0,0,0-1.287-1.012,2.7,2.7,0,0,1,.142-2.28,4.468,4.468,0,0,0,2.562.332l.111-.019a3.619,3.619,0,0,0,2.2,1.982A2.714,2.714,0,0,1,36.9,14.4ZM35.933,3.636a2.7,2.7,0,0,1,3.124,2.912.9.9,0,0,0,1.078.963l.075-.014a1.8,1.8,0,1,1-1.486,2.067c0-.025-.007-.05-.01-.076a.9.9,0,0,0-1.256-.717,2.7,2.7,0,1,1-1.525-5.136ZM33.209,14.088c.019.012.04.023.06.034a5.051,5.051,0,0,1,1.134.853l.8.8,0,0,4.2,4.2L38.848,21.1l-.5.99L36.5,20.852a.9.9,0,0,0-1.353.464l-1.6,4.785h-6.2l3.205-9.616a.9.9,0,0,0-1.188-1.12L26.1,16.671V15.01l2.873-1.149a5.044,5.044,0,0,1,4.235.228Z"/>
      <path id="Trazado_127547" data-name="Trazado 127547" d="M21.6,30.6a.9.9,0,0,0-.9-.9H17.1a.9.9,0,0,0,0,1.8h3.6A.9.9,0,0,0,21.6,30.6Z"/>
      <path id="Trazado_127548" data-name="Trazado 127548" d="M13.5,31.5a.9.9,0,1,0,0-1.8H11.7a.9.9,0,1,0,0,1.8Z"/>
      <path id="Trazado_127549" data-name="Trazado 127549" d="M14.4,23.4H9a.9.9,0,1,0,0,1.8h5.4a.9.9,0,1,0,0-1.8Z"/>
      <path id="Trazado_127550" data-name="Trazado 127550" d="M5.4,23.4H3.6a.9.9,0,1,0,0,1.8H5.4a.9.9,0,1,0,0-1.8Z"/>
      <path id="Trazado_127551" data-name="Trazado 127551" d="M9.9,36a.9.9,0,0,0,.9.9h5.4a.9.9,0,0,0,0-1.8H10.8A.9.9,0,0,0,9.9,36Z"/>
      <path id="Trazado_127552" data-name="Trazado 127552" d="M4.5,36a.9.9,0,0,0,.9.9H7.2a.9.9,0,1,0,0-1.8H5.4A.9.9,0,0,0,4.5,36Z"/>
    </g>
  </g>
</svg>
