<svg xmlns="http://www.w3.org/2000/svg" xmlns:xlink="http://www.w3.org/1999/xlink" width="54" height="54" viewBox="0 0 54 54">
  <defs>
    <clipPath id="clip-path">
      <rect id="Rectángulo_35826" data-name="Rectángulo 35826" width="54" height="54" transform="translate(-2659 -1135)" fill="#fff" stroke="#707070" stroke-width="1"/>
    </clipPath>
  </defs>
  <g id="_104" data-name="104" transform="translate(2659 1135)" clip-path="url(#clip-path)">
    <g id="vestido" transform="translate(-2659 -1135)">
      <path id="Trazado_127588" data-name="Trazado 127588" d="M49.007,49.215a53.275,53.275,0,0,0-15.6-26.434C35.6,18.1,36.6,16.618,37.589,13.2A29.225,29.225,0,0,0,38.6,8.016V3.164a2.109,2.109,0,0,0-4.219,0V5.917l-.079.024a19.012,19.012,0,0,0-4.064,1.8,18.284,18.284,0,0,0-3.246,2.477A18.183,18.183,0,0,0,23.75,7.736a19.1,19.1,0,0,0-4.064-1.8l-.069-.021V3.164a2.109,2.109,0,0,0-4.219,0V8.016c.619,6,2.569,9.346,5.211,14.766A53.209,53.209,0,0,0,4.9,49.269l-.052.206v.307a3.164,3.164,0,1,0,6.328,0,3.164,3.164,0,0,0,6.328,0,3.164,3.164,0,0,0,6.328,0,3.164,3.164,0,0,0,6.328,0,3.164,3.164,0,0,0,6.328,0,3.164,3.164,0,0,0,6.328,0,3.164,3.164,0,0,0,6.328,0Z" fill="#77c1e6"/>
      <path id="Trazado_127589" data-name="Trazado 127589" d="M35.447,18.566l-2.036,4.216H20.61l-2.056-4.217,0,0H35.441Z" fill="#fff"/>
      <path id="Trazado_127590" data-name="Trazado 127590" d="M27,36.492a1.055,1.055,0,1,0-1.055-1.055A1.055,1.055,0,0,0,27,36.492Z"/>
      <path id="Trazado_127591" data-name="Trazado 127591" d="M3.8,49.781a4.217,4.217,0,0,0,7.383,2.788,4.213,4.213,0,0,0,6.328,0,4.213,4.213,0,0,0,6.328,0,4.213,4.213,0,0,0,6.328,0,4.213,4.213,0,0,0,6.328,0,4.213,4.213,0,0,0,6.328,0A4.217,4.217,0,0,0,50.2,49.781a1.053,1.053,0,0,0-.031-.255c-.155-.389-3.016-15.458-15.469-26.993l1.9-3.944A30.309,30.309,0,0,0,39.651,8.123c0-.036.005-.072.005-.108V3.164a3.164,3.164,0,0,0-6.328,0V5.151A20.194,20.194,0,0,0,29.7,6.829a18.829,18.829,0,0,0-2.708,1.96,18.748,18.748,0,0,0-2.708-1.96,20.289,20.289,0,0,0-3.614-1.673V3.164a3.164,3.164,0,0,0-6.328,0V8.016a1.057,1.057,0,0,0,.006.108,30.3,30.3,0,0,0,3.058,10.5l1.908,3.914A54.976,54.976,0,0,0,3.829,49.217,2.305,2.305,0,0,0,3.8,49.781ZM19.212,17.508a28.191,28.191,0,0,1-2.759-9.547v-4.8a1.055,1.055,0,0,1,2.109,0V5.92a1.055,1.055,0,0,0,.749,1.01l.064.02a18.142,18.142,0,0,1,3.836,1.694,16.988,16.988,0,0,1,3.054,2.333,1.055,1.055,0,0,0,1.456,0,17.1,17.1,0,0,1,3.056-2.333,18.059,18.059,0,0,1,3.837-1.695l.077-.024a1.055,1.055,0,0,0,.746-1.009V3.164a1.055,1.055,0,0,1,2.109,0v4.8a28.15,28.15,0,0,1-2.76,9.547Zm14.556,2.109L32.75,21.727H21.269l-1.028-2.109ZM5.906,49.6a52.174,52.174,0,0,1,15.108-25.78h1a62.368,62.368,0,0,0-4.151,10.428,1.055,1.055,0,0,0,2.019.611A58.856,58.856,0,0,1,24.4,23.836h1.548v7.383a1.055,1.055,0,1,0,2.109,0V23.836h1.568a58.551,58.551,0,0,1,4.46,10.952,1.055,1.055,0,0,0,2.02-.608,62,62,0,0,0-4.1-10.344h1C45.147,34.91,47.967,49.595,48.091,49.9a2.109,2.109,0,0,1-4.216-.117,1.055,1.055,0,0,0-2.109,0,2.109,2.109,0,0,1-4.219,0,1.055,1.055,0,0,0-2.109,0,2.109,2.109,0,0,1-4.219,0,1.055,1.055,0,0,0-2.109,0,2.109,2.109,0,0,1-4.219,0,1.055,1.055,0,0,0-2.109,0,2.109,2.109,0,0,1-4.219,0,1.055,1.055,0,0,0-2.109,0,2.109,2.109,0,0,1-4.219,0,1.055,1.055,0,0,0-2.109,0,2.109,2.109,0,1,1-4.219,0V49.6Z"/>
    </g>
  </g>
</svg>
