<svg xmlns="http://www.w3.org/2000/svg" xmlns:xlink="http://www.w3.org/1999/xlink" width="54" height="54" viewBox="0 0 54 54">
  <defs>
    <clipPath id="clip-path">
      <rect id="Rectángulo_35832" data-name="Rectángulo 35832" width="54" height="54" transform="translate(-2679 -201)" fill="#fff" stroke="#707070" stroke-width="1"/>
    </clipPath>
  </defs>
  <g id="_109" data-name="109" transform="translate(2679 201)" clip-path="url(#clip-path)">
    <g id="montanas" transform="translate(-2679 -201)">
      <path id="Trazado_127620" data-name="Trazado 127620" d="M44.561,50.361l-15.924-38.6a1.77,1.77,0,0,0-3.274,0L9.861,49.307Z" fill="#a56c34"/>
      <path id="Trazado_127621" data-name="Trazado 127621" d="M41.036,50.254l3.525.107-15.924-38.6a1.77,1.77,0,0,0-3.274,0l-.1.25Z" fill="#965d27"/>
      <path id="Trazado_127622" data-name="Trazado 127622" d="M53.209,53.074,41.4,24.429a1.77,1.77,0,0,0-3.274,0l-9.02,21.555Z" fill="#bd8957"/>
      <path id="Trazado_127623" data-name="Trazado 127623" d="M49.248,51.909l3.961,1.165L41.4,24.429a1.77,1.77,0,0,0-3.274,0l-.1.249Z" fill="#b07a46"/>
      <path id="Trazado_127624" data-name="Trazado 127624" d="M21.568,53.1,12.82,31.869a1.77,1.77,0,0,0-3.276,0L.791,53.1Z" fill="#bd8957"/>
      <path id="Trazado_127625" data-name="Trazado 127625" d="M.791,53.1c0-.053,7.8-8.279,26.209-8.279,17.877,0,26.209,8.227,26.209,8.279Z" fill="#9cc042"/>
      <path id="Trazado_127626" data-name="Trazado 127626" d="M27,44.824q-1.207,0-2.352.047c16.3.658,23.92,8.182,23.92,8.233h4.641C53.209,53.051,44.877,44.824,27,44.824Z" fill="#85aa18"/>
      <path id="Trazado_127627" data-name="Trazado 127627" d="M22.356,30.936l.026-1.852a1.332,1.332,0,1,1,2.664.025l.026,2.485a1.332,1.332,0,1,0,2.664.025l.026-6.549a1.332,1.332,0,1,1,2.664.025l-.06.863A1.332,1.332,0,0,0,31.7,27.316l3.341-.033-6.4-15.52a1.77,1.77,0,0,0-3.274,0L16.9,32.268h4.128a1.342,1.342,0,0,0,1.332-1.332Z" fill="#fff5e6"/>
      <path id="Trazado_127628" data-name="Trazado 127628" d="M28.637,11.763a1.77,1.77,0,0,0-3.274,0l-.1.25,6.3,15.269h-.147a1.333,1.333,0,0,0,.286.032l3.341-.033Z" fill="#fae8cd"/>
      <path id="Trazado_127629" data-name="Trazado 127629" d="M37.07,37.441l.026,2.485a1.332,1.332,0,1,0,2.664.025l.026-6.549a1.332,1.332,0,1,1,2.664.025l-.06.863a1.332,1.332,0,0,0,1.332,1.357l2.29-.037L41.4,24.429a1.77,1.77,0,0,0-3.274,0L33.253,36.084h2.485a1.271,1.271,0,0,1,1.332,1.357Z" fill="#fff5e6"/>
      <path id="Trazado_127630" data-name="Trazado 127630" d="M41.4,24.429a1.77,1.77,0,0,0-3.274,0l-.1.249,3.048,7.394.044,0a1.332,1.332,0,0,1,1.332,1.357l-.06.863a1.332,1.332,0,0,0,1.332,1.357l2.29-.037Z" fill="#fae8cd"/>
      <path id="Trazado_127631" data-name="Trazado 127631" d="M9.015,41.66l.026.587a1.332,1.332,0,1,0,2.664.025l.026-3.49a1.332,1.332,0,0,1,1.332-1.332h2.057l-2.3-5.58a1.77,1.77,0,0,0-3.276,0L6.067,40.3H7.683A1.271,1.271,0,0,1,9.015,41.66Z" fill="#fff5e6"/>
      <circle id="Elipse_4894" data-name="Elipse 4894" cx="3.671" cy="3.671" r="3.671" transform="translate(13.102 4.608)" fill="#f7b30c"/>
      <path id="Trazado_127632" data-name="Trazado 127632" d="M12.383,21.99a2.992,2.992,0,1,0-1.5-5.58,2.991,2.991,0,0,0-5.967-.179,2.992,2.992,0,1,0-1.135,5.76Z" fill="#e0f5ff"/>
      <path id="Trazado_127633" data-name="Trazado 127633" d="M45.328,6.381a2.991,2.991,0,0,0-4.49-2.589,2.991,2.991,0,0,0-5.967-.179,2.992,2.992,0,1,0-1.135,5.76H45.352Z" fill="#c9eeff"/>
      <path id="Trazado_127634" data-name="Trazado 127634" d="M49.824,14.924a2.992,2.992,0,1,0-1.5-5.58,2.991,2.991,0,0,0-5.967-.179,2.992,2.992,0,1,0-1.135,5.76h8.6Z" fill="#e0f5ff"/>
      <g id="Grupo_93521" data-name="Grupo 93521">
        <path id="Trazado_127635" data-name="Trazado 127635" d="M54,53.075a.843.843,0,0,0-.06-.3L42.135,24.128a2.582,2.582,0,0,0-4.735,0L35.987,27.52,29.368,11.462a2.582,2.582,0,0,0-4.736,0l-9.689,23.51-1.39-3.4a2.578,2.578,0,0,0-4.739-.007L8.3,32.816a.792.792,0,0,0,1.463.6l.516-1.253a.982.982,0,0,1,1.812,0l1.834,4.49h-.86a2.124,2.124,0,0,0-2.123,2.117l-.026,3.5c0,.729-1.053.633-1.083-.06l-.025-.571a2.182,2.182,0,0,0-2.557-2.13l1.164-2.823a.792.792,0,0,0-1.463-.6L.06,52.8a.8.8,0,0,0,.734,1.092H53.209A.821.821,0,0,0,54,53.075ZM38.861,24.731a.986.986,0,0,1,1.811,0l4.163,10.1-1.121.024a.541.541,0,0,1-.535-.536l.058-.839c.193-2.751-4.244-2.894-4.244-.083l-.026,6.552c0,.7-1.073.653-1.082-.033l-.026-2.477a2.089,2.089,0,0,0-2.123-2.148H34.465ZM26.094,12.065a.986.986,0,0,1,1.811,0L33.854,26.5l-2.155.028a.541.541,0,0,1-.541-.536l.058-.839c.193-2.751-4.244-2.894-4.244-.083l-.026,6.552c0,.7-1.073.653-1.082-.033l-.026-2.475c.036-2.748-4.238-2.782-4.246-.033l-.026,1.848v.011c0,.332-.19.514-.564.541H18.094ZM15.809,37.021l1.633-3.962h3.608a2.1,2.1,0,0,0,2.1-2.117l.026-1.847a.541.541,0,0,1,1.082.022l.026,2.475c-.036,2.75,4.246,2.78,4.246.03l.026-6.552a.542.542,0,0,1,1.082-.005l-.058.839a2.145,2.145,0,0,0,2.131,2.2L34.5,28.07l.625,1.516L29.1,44.073q-1.04-.038-2.1-.039a55.769,55.769,0,0,0-8.12.575l-3.087-7.556c.005-.011.012-.021.016-.032ZM7.683,41.093c.586,0,.611.73.566,1.166-.017,2.768,4.246,2.7,4.246.018l.026-3.5a.542.542,0,0,1,.541-.541h1.506l2.709,6.631a41.031,41.031,0,0,0-10.63,3.362,29.972,29.972,0,0,0-3.932,2.275L6.6,41.093ZM2.913,52.313a27.3,27.3,0,0,1,4.775-2.823A45.17,45.17,0,0,1,27,45.615a47.085,47.085,0,0,1,16.389,2.743.792.792,0,0,0,.549-1.484A46.771,46.771,0,0,0,30.775,44.16l3.032-7.285h1.931a.5.5,0,0,1,.541.574l.026,2.475c-.036,2.75,4.246,2.78,4.246.03l.026-6.552a.542.542,0,0,1,1.082-.005l-.058.839a2.134,2.134,0,0,0,2.138,2.2l1.744-.037,5.859,14.216A31.925,31.925,0,0,0,47.493,48.4a.792.792,0,0,0-.7,1.42A29.127,29.127,0,0,1,51,52.313H2.913Z" fill="#060606"/>
        <path id="Trazado_127636" data-name="Trazado 127636" d="M16.774,12.741a4.462,4.462,0,1,0-4.462-4.462,4.468,4.468,0,0,0,4.462,4.462Zm0-7.343a2.88,2.88,0,1,1-2.88,2.88A2.884,2.884,0,0,1,16.774,5.4Z" fill="#060606"/>
        <path id="Trazado_127637" data-name="Trazado 127637" d="M3.783,22.781h8.6a3.782,3.782,0,1,0-.892-7.458,3.786,3.786,0,0,0-7.168-.068,3.783,3.783,0,1,0-.541,7.527Zm0-5.983a2.188,2.188,0,0,1,.835.164.8.8,0,0,0,1.088-.66,2.2,2.2,0,0,1,4.389.132.8.8,0,0,0,1.187.659,2.2,2.2,0,1,1,1.1,4.105h-8.6a2.2,2.2,0,1,1,0-4.4Z" fill="#060606"/>
        <path id="Trazado_127638" data-name="Trazado 127638" d="M33.736,10.163h4.146a3.78,3.78,0,0,0,3.342,5.552h8.6a3.782,3.782,0,1,0-.892-7.458,3.758,3.758,0,0,0-2.872-2.531,3.781,3.781,0,0,0-4.616-3.021,3.786,3.786,0,0,0-7.168-.068,3.8,3.8,0,0,0-1.99.249.792.792,0,0,0,.606,1.461,2.216,2.216,0,0,1,1.677,0,.8.8,0,0,0,1.088-.66,2.2,2.2,0,0,1,4.389.132.8.8,0,0,0,1.187.659,2.2,2.2,0,0,1,3.212,1.285,3.754,3.754,0,0,0-2.681,2.427,3.794,3.794,0,0,0-2.292.393H33.736a2.2,2.2,0,0,1-2.2-2.2.792.792,0,0,0-1.582,0,3.787,3.787,0,0,0,3.783,3.782ZM42.059,9.9a.8.8,0,0,0,1.088-.66,2.2,2.2,0,0,1,4.389.132.8.8,0,0,0,1.187.659,2.2,2.2,0,1,1,1.1,4.105h-8.6A2.2,2.2,0,1,1,42.059,9.9Z" fill="#060606"/>
      </g>
    </g>
  </g>
</svg>
