<svg xmlns="http://www.w3.org/2000/svg" xmlns:xlink="http://www.w3.org/1999/xlink" width="54" height="54" viewBox="0 0 54 54">
  <defs>
    <clipPath id="clip-path">
      <rect id="Rectángulo_35834" data-name="Rectángulo 35834" width="54" height="54" transform="translate(-2679 441)" fill="#fff" stroke="#707070" stroke-width="1"/>
    </clipPath>
  </defs>
  <g id="Enmascarar_grupo_209" data-name="Enmascarar grupo 209" transform="translate(2679 -441)" clip-path="url(#clip-path)">
    <g id="grifo" transform="translate(-2678.87 441)">
      <path id="Trazado_127647" data-name="Trazado 127647" d="M.9,14.4H6.3V30.6H.9Zm0,0" fill="#2d75bb"/>
      <path id="Trazado_127648" data-name="Trazado 127648" d="M6.3,16.2H9.9V28.8H6.3Zm0,0" fill="#50b3c9"/>
      <path id="Trazado_127649" data-name="Trazado 127649" d="M31.5,31.5H42.3v3.6H31.5Zm0,0" fill="#50b3c9"/>
      <path id="Trazado_127650" data-name="Trazado 127650" d="M31.5,18.9H28.8L27,15.3H16.2l-1.8,3.6H9.9v7.2H29.7a3.6,3.6,0,0,1,3.6,3.6v1.8h7.2V27.9A9,9,0,0,0,31.5,18.9Zm0,0" fill="#86d5e2"/>
      <path id="Trazado_127651" data-name="Trazado 127651" d="M14.223,19.782l.353-1.765,4.5.9-.353,1.765Zm0,0" fill="#cdeef6"/>
      <path id="Trazado_127652" data-name="Trazado 127652" d="M24.129,18.935l4.5-.9.353,1.766-4.5.9Zm0,0" fill="#cdeef6"/>
      <path id="Trazado_127653" data-name="Trazado 127653" d="M18,11.7h7.2v3.6H18Zm0,0" fill="#2d75bb"/>
      <path id="Trazado_127654" data-name="Trazado 127654" d="M19.8,8.1h3.6v3.6H19.8Zm0,0" fill="#195c85"/>
      <path id="Trazado_127655" data-name="Trazado 127655" d="M11.7,4.5H31.5V8.1H11.7Zm0,0" fill="#dd3e46"/>
      <path id="Trazado_127656" data-name="Trazado 127656" d="M21.6.9a1.8,1.8,0,0,1,1.8,1.8V4.5H19.8V2.7A1.8,1.8,0,0,1,21.6.9Zm0,0" fill="#fcf05a"/>
      <path id="Trazado_127657" data-name="Trazado 127657" d="M15.3,4.5h1.8V8.1H15.3Zm0,0" fill="#b11e48"/>
      <path id="Trazado_127658" data-name="Trazado 127658" d="M20.7,4.5h1.8V8.1H20.7Zm0,0" fill="#b11e48"/>
      <path id="Trazado_127659" data-name="Trazado 127659" d="M26.1,4.5h1.8V8.1H26.1Zm0,0" fill="#b11e48"/>
      <path id="Trazado_127660" data-name="Trazado 127660" d="M43.2,53.1H30.6l2.7-18h7.2Zm0,0" fill="#cdeef6"/>
      <path id="Trazado_127661" data-name="Trazado 127661" d="M33.312,52.952l1.8-10.8,1.775.3-1.8,10.8Zm0,0" fill="#86d5e2"/>
      <path id="Trazado_127662" data-name="Trazado 127662" d="M37.805,45.1l1.789-.2.9,8.1-1.789.2Zm0,0" fill="#86d5e2"/>
      <path id="Trazado_127663" data-name="Trazado 127663" d="M46.8,49.5s-.492-4.385,1.8-7.2,6.57,1.138,2.7,3.6S46.8,49.5,46.8,49.5Zm0,0" fill="#cdeef6"/>
      <path id="Trazado_127664" data-name="Trazado 127664" d="M27,51.3s.2-5.923-2.7-8.1c-3.6-2.7-6.762,2.362-2.7,4.5A21.536,21.536,0,0,1,27,51.3Zm0,0" fill="#cdeef6"/>
      <g id="Grupo_93524" data-name="Grupo 93524">
        <path id="Trazado_127665" data-name="Trazado 127665" d="M27.9,41.4h1.8v1.8H27.9Zm0,0" fill="#2d75bb"/>
        <path id="Trazado_127666" data-name="Trazado 127666" d="M44.1,38.7h1.8v1.8H44.1Zm0,0" fill="#2d75bb"/>
        <path id="Trazado_127667" data-name="Trazado 127667" d="M24.3,36h1.8v1.8H24.3Zm0,0" fill="#2d75bb"/>
        <path id="Trazado_127668" data-name="Trazado 127668" d="M47.7,31.5h1.8v1.8H47.7Zm0,0" fill="#2d75bb"/>
      </g>
      <path id="Trazado_127669" data-name="Trazado 127669" d="M7.2,29.7h3.6V27H29.7a2.7,2.7,0,0,1,2.7,2.7v.9h-.9a.9.9,0,0,0-.9.9v3.6a.9.9,0,0,0,.9.9h.755L29.71,52.967A.9.9,0,0,0,30.6,54H43.2a.9.9,0,0,0,.89-1.033L41.545,36H42.3a.9.9,0,0,0,.9-.9V31.5a.9.9,0,0,0-.9-.9h-.9V27.9A9.912,9.912,0,0,0,31.5,18H29.356L27.81,14.9a.9.9,0,0,0-.81-.5h-.9V11.7a.9.9,0,0,0-.9-.9h-.9V9h7.2a.9.9,0,0,0,.9-.9V4.5a.9.9,0,0,0-.9-.9H24.3V2.7a2.7,2.7,0,0,0-5.4,0v.9H11.7a.9.9,0,0,0-.9.9V8.1a.9.9,0,0,0,.9.9h7.2v1.8H18a.9.9,0,0,0-.9.9v2.7h-.9a.9.9,0,0,0-.806.5L13.844,18H10.8V15.3H7.2V13.5H0v18H7.2Zm25.2,2.7h9v1.8h-9Zm9.755,19.8H40.41l-.81-7.3-1.789.2.784,7.1h-3.33l1.625-9.751-1.775-.3L33.438,52.2H31.645L34.075,36h5.65ZM17.1,7.2V5.4h3.6V7.2Zm9-1.8V7.2H22.5V5.4Zm4.5,1.8H27.9V5.4h2.7ZM20.7,2.7a.9.9,0,1,1,1.8,0v.9H20.7ZM12.6,5.4h2.7V7.2H12.6ZM20.7,9h1.8v1.8H20.7Zm-1.8,3.6h5.4v1.8H18.9Zm-4.59,7.2,4.41.882.353-1.764-3.344-.67L16.756,16.2h9.687l1.024,2.048-3.348.67.353,1.764L28.89,19.8H31.5a8.109,8.109,0,0,1,8.1,8.1v2.7H34.2v-.9a4.505,4.505,0,0,0-4.5-4.5H10.8V19.8ZM9,17.1V27.9H7.2V17.1ZM1.8,29.7V15.3H5.4V29.7Zm0,0"/>
      <path id="Trazado_127670" data-name="Trazado 127670" d="M47.9,41.732c-2.5,3.073-2.017,7.674-2,7.868a.9.9,0,0,0,.7.764.879.879,0,0,0,.2.022.927.927,0,0,0,.772-.425c.007-.011.72-1.085,4.209-3.3a3.585,3.585,0,0,0,1.945-3.51,3.292,3.292,0,0,0-2.4-2.61A3.24,3.24,0,0,0,47.9,41.732Zm2.581.495a1.411,1.411,0,0,1,.374.051,1.491,1.491,0,0,1,1.091,1.144c.09.588-.313,1.2-1.13,1.718a32.84,32.84,0,0,0-3.108,2.2A8.339,8.339,0,0,1,49.3,42.87a1.51,1.51,0,0,1,1.186-.642Zm0,0"/>
      <path id="Trazado_127671" data-name="Trazado 127671" d="M20.722,41.872a3.492,3.492,0,0,0-1.928,3.06,4.006,4.006,0,0,0,2.386,3.561,21.625,21.625,0,0,1,5.159,3.415.9.9,0,0,0,1.56-.577c.01-.261.18-6.42-3.06-8.851a3.893,3.893,0,0,0-4.118-.608ZM26.01,49.32a33.868,33.868,0,0,0-3.99-2.42A2.255,2.255,0,0,1,20.6,44.957a1.677,1.677,0,0,1,.922-1.473,1.6,1.6,0,0,1,.711-.163,2.613,2.613,0,0,1,1.53.6c1.454,1.092,2.045,3.527,2.252,5.4Zm0,0"/>
      <path id="Trazado_127672" data-name="Trazado 127672" d="M27.9,41.4h1.8v1.8H27.9Zm0,0"/>
      <path id="Trazado_127673" data-name="Trazado 127673" d="M44.1,38.7h1.8v1.8H44.1Zm0,0"/>
      <path id="Trazado_127674" data-name="Trazado 127674" d="M24.3,36h1.8v1.8H24.3Zm0,0"/>
      <path id="Trazado_127675" data-name="Trazado 127675" d="M47.7,31.5h1.8v1.8H47.7Zm0,0"/>
    </g>
  </g>
</svg>
