<svg xmlns="http://www.w3.org/2000/svg" xmlns:xlink="http://www.w3.org/1999/xlink" width="54" height="54" viewBox="0 0 54 54">
  <defs>
    <clipPath id="clip-path">
      <rect id="Rectángulo_35835" data-name="Rectángulo 35835" width="54" height="54" transform="translate(-2679 573)" fill="#fff" stroke="#707070" stroke-width="1"/>
    </clipPath>
  </defs>
  <g id="_112" data-name="112" transform="translate(2679 -573)" clip-path="url(#clip-path)">
    <g id="soldado" transform="translate(-2672.699 573)">
      <path id="Trazado_127676" data-name="Trazado 127676" d="M4.5,54V40.5a9,9,0,0,1,7.758-8.915H29.141A9,9,0,0,1,36.9,40.5V54" fill="#a09f73"/>
      <path id="Trazado_127677" data-name="Trazado 127677" d="M12.257,31.586a8.94,8.94,0,0,0-2.358.665V54H31.5V32.251a8.948,8.948,0,0,0-2.358-.665H24.3V35.1a3.6,3.6,0,1,1-7.2,0V31.586Zm0,0" fill="#59593d"/>
      <path id="Trazado_127678" data-name="Trazado 127678" d="M32.4,16.2v8a10,10,0,0,1-10,10H19a10,10,0,0,1-10-10v-8Zm0,0" fill="#f2c09a"/>
      <path id="Trazado_127679" data-name="Trazado 127679" d="M14.107,30.709A10,10,0,0,1,11.7,24.2V12.6H9V24.2a10,10,0,0,0,10,10h2.7A9.995,9.995,0,0,1,14.107,30.709Zm0,0" fill="#e8b894"/>
      <path id="Trazado_127680" data-name="Trazado 127680" d="M2.7,42.3H4.5v9H.9V44.1A1.8,1.8,0,0,1,2.7,42.3Zm0,0" fill="#7c7b62"/>
      <path id="Trazado_127681" data-name="Trazado 127681" d="M31.5,47.7h5.4v3.6H31.5Zm0,0" fill="#cecca3"/>
      <g id="Grupo_93525" data-name="Grupo 93525">
        <path id="Trazado_127682" data-name="Trazado 127682" d="M27.9,26.1,27,28.8h4.269a9.955,9.955,0,0,0,.944-2.7Zm0,0" fill="#59593d"/>
        <path id="Trazado_127683" data-name="Trazado 127683" d="M13.5,26.1l.9,2.7H10.131a9.927,9.927,0,0,1-.944-2.7Zm0,0" fill="#59593d"/>
        <path id="Trazado_127684" data-name="Trazado 127684" d="M4.5,42.3H2.7A1.8,1.8,0,0,0,.9,44.1v1.8H4.5Zm0,0" fill="#59593d"/>
      </g>
      <path id="Trazado_127685" data-name="Trazado 127685" d="M40.5,51.3H36.9v-9h1.8a1.8,1.8,0,0,1,1.8,1.8Zm0,0" fill="#7c7b62"/>
      <path id="Trazado_127686" data-name="Trazado 127686" d="M36.9,42.3h1.8a1.8,1.8,0,0,1,1.8,1.8v1.8H36.9V42.3Zm0,0" fill="#59593d"/>
      <path id="Trazado_127687" data-name="Trazado 127687" d="M13.5,46.8h7.2v3.6H13.5Zm0,0" fill="#cecca3"/>
      <path id="Trazado_127688" data-name="Trazado 127688" d="M13.5,50.4h7.2V54H13.5Zm0,0" fill="#7c7b62"/>
      <path id="Trazado_127689" data-name="Trazado 127689" d="M20.7,46.8h7.2v3.6H20.7Zm0,0" fill="#cecca3"/>
      <path id="Trazado_127690" data-name="Trazado 127690" d="M20.7,50.4h7.2V54H20.7Zm0,0" fill="#7c7b62"/>
      <path id="Trazado_127691" data-name="Trazado 127691" d="M33.3,44.1H29.7l-.9-5.4h5.4Zm0,0" fill="#333"/>
      <path id="Trazado_127692" data-name="Trazado 127692" d="M34.963,13.391,35.1,14.4l1.3,3.24a1.669,1.669,0,0,1-2.94,1.544,1.618,1.618,0,0,1-.1-.178L32.4,17.1H9l-.954,1.909A1.669,1.669,0,0,1,5,17.645L6.3,14.4l.135-1.011a14.39,14.39,0,0,1,28.528,0Zm0,0" fill="#a09f73"/>
      <path id="Trazado_127693" data-name="Trazado 127693" d="M14.4,6.3H18L19.784.945A14.381,14.381,0,0,0,8.2,8.177L11.7,10.8Zm0,0" fill="#59593d"/>
      <path id="Trazado_127694" data-name="Trazado 127694" d="M22.5,7.2,20.7,9.9H17.1l-1.8,3.6h8.1l2.7-1.8h3.6l2.633-4.86a14.428,14.428,0,0,0-4.487-4.03L26.1,6.3Zm0,0" fill="#59593d"/>
      <path id="Trazado_127695" data-name="Trazado 127695" d="M21.6,29.7H19.8a.9.9,0,0,0,0,1.8h1.8a.9.9,0,1,0,0-1.8Zm0,0"/>
      <path id="Trazado_127696" data-name="Trazado 127696" d="M27.9,45.9H13.5a.9.9,0,0,0-.9.9V54h1.8V51.3h5.4V54h1.8V51.3H27V54h1.8V46.8a.9.9,0,0,0-.9-.9ZM14.4,49.5V47.7h5.4v1.8Zm7.2,0V47.7H27v1.8Zm0,0"/>
      <path id="Trazado_127697" data-name="Trazado 127697" d="M12.6,36.9h1.8v3.6H12.6Zm0,0"/>
      <path id="Trazado_127698" data-name="Trazado 127698" d="M38.7,41.4h-.9v-.9a9.939,9.939,0,0,0-6.94-9.442A10.9,10.9,0,0,0,33.3,24.2V20.3a2.563,2.563,0,0,0,3.933-3l-1.255-3.138-.121-.9a15.29,15.29,0,0,0-30.312,0l-.121.9L4.168,17.309a2.569,2.569,0,0,0,2.385,3.524,2.6,2.6,0,0,0,.66-.09A2.57,2.57,0,0,0,8.1,20.3v3.9a10.9,10.9,0,0,0,2.44,6.856A9.939,9.939,0,0,0,3.6,40.5v.9H2.7A2.7,2.7,0,0,0,0,44.1v7.2a.9.9,0,0,0,.9.9H3.6V54H5.4V40.5A8.132,8.132,0,0,1,9,33.77V54h1.8V44.1H28.786l.025.148A.9.9,0,0,0,29.7,45h.9v9h1.8V52.2H36V54h1.8V52.2h2.7a.9.9,0,0,0,.9-.9V44.1a2.7,2.7,0,0,0-2.7-2.7Zm-36,1.8h.9V45H1.8v-.9a.9.9,0,0,1,.9-.9Zm-.9,7.2V46.8H3.6v3.6Zm36.9-7.2a.9.9,0,0,1,.9.9V45H37.8V43.2Zm-18-5.4A2.7,2.7,0,0,1,18,35.1v-.054c.331.03.663.054,1,.054h3.4c.336,0,.668-.023,1-.054V35.1a2.7,2.7,0,0,1-2.7,2.7Zm1.7-4.5H19a9.089,9.089,0,0,1-6.908-3.177c-.117-.137-.222-.281-.33-.423H14.4a.9.9,0,0,0,.854-1.184l-.9-2.7A.9.9,0,0,0,13.5,25.2H9.961a9.286,9.286,0,0,1-.061-1V18H31.5v6.2a9.181,9.181,0,0,1-.061,1H27.9a.9.9,0,0,0-.854.616l-.9,2.7A.9.9,0,0,0,27,29.7h2.64c-.108.142-.213.286-.33.423A9.09,9.09,0,0,1,22.4,33.3ZM10.35,27h2.5l.3.9H10.693a9.089,9.089,0,0,1-.344-.9Zm20.7,0a9.228,9.228,0,0,1-.343.9H28.247l.3-.9ZM31.4,7.112,29.189,10.8H26.1a.905.905,0,0,0-.5.151L23.129,12.6H16.756l.9-1.8H20.7a.9.9,0,0,0,.749-.4L23.055,7.99l3.262-.815A.9.9,0,0,0,26.9,6.7l1.3-2.594a13.64,13.64,0,0,1,3.2,3ZM18.486,2,17.35,5.4H14.4a.9.9,0,0,0-.771.436L11.441,9.484,9.4,7.954A13.554,13.554,0,0,1,18.486,2ZM6.75,19.007a.753.753,0,0,1-.624-.105.771.771,0,0,1-.287-.926l1.3-3.24a.918.918,0,0,0,.056-.215l.135-1.011A13.365,13.365,0,0,1,8.515,9.542l2.644,1.98a.9.9,0,0,0,.54.18.87.87,0,0,0,.173-.017.9.9,0,0,0,.6-.419L14.909,7.2H18a.9.9,0,0,0,.854-.616l1.59-4.77c.09,0,.17-.012.255-.012A13.4,13.4,0,0,1,26.646,3.2l-1.17,2.334-3.2.8a.9.9,0,0,0-.53.374L20.218,9H17.1a.9.9,0,0,0-.805.5l-1.8,3.6a.9.9,0,0,0,.805,1.3h8.1a.906.906,0,0,0,.5-.151l2.47-1.649H29.7a.9.9,0,0,0,.771-.437L32.5,8.779a13.37,13.37,0,0,1,1.569,4.731l.135,1.011a.923.923,0,0,0,.056.215l1.3,3.24a.769.769,0,0,1-1.4.63l-.95-1.906a.9.9,0,0,0-.81-.5H9a.9.9,0,0,0-.805.5L7.24,18.608a.757.757,0,0,1-.491.4ZM10.8,32.866a7.94,7.94,0,0,1,1.211-.322A10.851,10.851,0,0,0,16.2,34.721v.38a4.508,4.508,0,0,0,3.6,4.41V42.3h-9ZM21.6,42.3v-2.79a4.508,4.508,0,0,0,3.6-4.41v-.38a10.854,10.854,0,0,0,4.188-2.175,7.993,7.993,0,0,1,1.212.322V37.8H28.8a.9.9,0,0,0-.9.9.882.882,0,0,0,.012.147l.575,3.452Zm8.263-2.7h3.274l-.6,3.6H30.461ZM33.3,45a.9.9,0,0,0,.887-.753l.9-5.4a.9.9,0,0,0-.74-1.035A.887.887,0,0,0,34.2,37.8H32.4V33.77A8.132,8.132,0,0,1,36,40.5v6.3H32.4V45Zm-.9,3.6H36v1.8H32.4Zm5.4,1.8V46.8h1.8v3.6Zm0,0"/>
      <path id="Trazado_127699" data-name="Trazado 127699" d="M18,19.8H14.4a.9.9,0,1,0,0,1.8H18a.9.9,0,1,0,0-1.8Zm0,0"/>
      <path id="Trazado_127700" data-name="Trazado 127700" d="M17.1,23.4a.9.9,0,1,1-.9-.9A.9.9,0,0,1,17.1,23.4Zm0,0"/>
      <path id="Trazado_127701" data-name="Trazado 127701" d="M26.1,23.4a.9.9,0,1,1-.9-.9A.9.9,0,0,1,26.1,23.4Zm0,0"/>
      <path id="Trazado_127702" data-name="Trazado 127702" d="M27.9,20.7a.9.9,0,0,0-.9-.9H22.5a1.8,1.8,0,0,0-1.8,1.8v3.6h-.9a.9.9,0,1,0,0,1.8h.9a1.8,1.8,0,0,0,1.8-1.8V21.6H27a.9.9,0,0,0,.9-.9Zm0,0"/>
    </g>
  </g>
</svg>
