<svg xmlns="http://www.w3.org/2000/svg" xmlns:xlink="http://www.w3.org/1999/xlink" width="54" height="54" viewBox="0 0 54 54">
  <defs>
    <clipPath id="clip-path">
      <rect id="Rectángulo_35840" data-name="Rectángulo 35840" width="54" height="54" transform="translate(-2659 1560)" fill="#fff" stroke="#707070" stroke-width="1"/>
    </clipPath>
  </defs>
  <g id="_117" data-name="117" transform="translate(2659 -1560)" clip-path="url(#clip-path)">
    <g id="filled_outline" data-name="filled outline" transform="translate(-2660.766 1557.318)">
      <path id="Trazado_127773" data-name="Trazado 127773" d="M14.391,23.386l-.9.9H8.1l.9-3.6h4.048Z" fill="#e6af89"/>
      <path id="Trazado_127774" data-name="Trazado 127774" d="M26.282,30.581l1.339-.892a5.4,5.4,0,0,1,2.993-.906h.165A5.4,5.4,0,0,1,35.1,30.941l3.778,5.037h-5.4l-2.7-3.6-1.8,1.8Z" fill="#f6bb92"/>
      <path id="Trazado_127775" data-name="Trazado 127775" d="M38.874,35.978h-5.4l-.675-.9h5.4Z" fill="#f6bb92"/>
      <path id="Trazado_127776" data-name="Trazado 127776" d="M23.583,32.38l2.7-1.8,2.7,3.6-1.8,1.8-.2.9-3.6-.9Z" fill="#b22122"/>
      <path id="Trazado_127777" data-name="Trazado 127777" d="M26.984,40.475H41.572l4.5-4.5-1.426-1.426a1.8,1.8,0,0,0-2.544,0l-1.426,1.426H26.984Z" fill="#f6bb92"/>
      <path id="Trazado_127778" data-name="Trazado 127778" d="M20.687,34.179l-2.526,3.06-6.215.414a2.629,2.629,0,0,1-.326,0l-3.6-8.69a2.511,2.511,0,0,1,4.447.637L13.69,33.28l6.871.625Z" fill="#e6af89"/>
      <path id="Trazado_127779" data-name="Trazado 127779" d="M20.885,24.06a3.373,3.373,0,0,0-3.373-3.373H3.8v3.6H16.388l-1.8,2.7H9.823a1.8,1.8,0,0,0-1.66,2.5l3.581,8.5a4.064,4.064,0,0,0,3.745,2.487l5.2-6.3-2.5-5.4,2.024-2.7a3.373,3.373,0,0,0,.675-2.024Z" fill="#f6bb92"/>
      <path id="Trazado_127780" data-name="Trazado 127780" d="M13.936,23.386l-.9.9h-5.4l.9-3.6h4.048Z" fill="#e6af89"/>
      <path id="Trazado_127781" data-name="Trazado 127781" d="M44.271,42.274a1.8,1.8,0,0,1-1.8,1.8H10.092L2.8,26.255a1.843,1.843,0,0,1,3.405-1.413L12.79,40.475H42.472A1.8,1.8,0,0,1,44.271,42.274Z" fill="#d78e0c"/>
      <path id="Trazado_127782" data-name="Trazado 127782" d="M22.684,32.38a.9.9,0,0,1-.9-.9v-3.6a.9.9,0,0,1,.5-.8l1.8-.9a.9.9,0,1,1,.8,1.609l-1.3.651v3.042A.9.9,0,0,1,22.684,32.38Z" fill="#e2e2e2"/>
      <path id="Trazado_127783" data-name="Trazado 127783" d="M20.687,34.179l-2.526,3.06-6.215.414a2.629,2.629,0,0,1-.326,0l-3.6-8.69a2.511,2.511,0,0,1,4.447.637L13.69,33.28l6.871.625Z" fill="#e6af89"/>
      <path id="Trazado_127784" data-name="Trazado 127784" d="M11.435,19.788l.305-.611a1.843,1.843,0,0,0-2.333-2.536l-1.974.789a3.24,3.24,0,0,0-1.694,4.457l1.2,2.4.9-3.6Z" fill="#7a4922"/>
      <path id="Trazado_127785" data-name="Trazado 127785" d="M10.119,44.073l-3.6,8.995h5.172l2-5.4H38.874l2.5,5.4h4.5l-4.3-8.995Z" fill="#c7830b"/>
      <circle id="Elipse_4901" data-name="Elipse 4901" cx="3.598" cy="3.598" r="3.598" transform="translate(36.437 11.693)" fill="#ee9d0d"/>
      <g id="Grupo_93527" data-name="Grupo 93527">
        <path id="Trazado_127786" data-name="Trazado 127786" d="M40.035,8.995a.9.9,0,0,1-.9-.9V6.3a.9.9,0,0,1,1.8,0V8.1A.9.9,0,0,1,40.035,8.995Z" fill="#eeb436"/>
        <path id="Trazado_127787" data-name="Trazado 127787" d="M35.806,10.369A.9.9,0,0,1,35.078,10L34.02,8.543a.9.9,0,1,1,1.456-1.057l1.057,1.455a.9.9,0,0,1-.727,1.428Z" fill="#eeb436"/>
        <path id="Trazado_127788" data-name="Trazado 127788" d="M33.192,13.967a.9.9,0,0,1-.278-.044L31.2,13.367a.9.9,0,1,1,.556-1.711l1.711.556a.9.9,0,0,1-.278,1.755Z" fill="#eeb436"/>
        <path id="Trazado_127789" data-name="Trazado 127789" d="M31.481,18.97a.9.9,0,0,1-.278-1.755l1.711-.556a.9.9,0,0,1,.556,1.711l-1.711.556A.9.9,0,0,1,31.481,18.97Z" fill="#eeb436"/>
        <path id="Trazado_127790" data-name="Trazado 127790" d="M34.747,23.467a.9.9,0,0,1-.727-1.428l1.057-1.455a.9.9,0,1,1,1.455,1.057L35.476,23.1a.9.9,0,0,1-.729.371Z" fill="#eeb436"/>
        <path id="Trazado_127791" data-name="Trazado 127791" d="M40.035,25.185a.9.9,0,0,1-.9-.9v-1.8a.9.9,0,0,1,1.8,0v1.8A.9.9,0,0,1,40.035,25.185Z" fill="#eeb436"/>
        <path id="Trazado_127792" data-name="Trazado 127792" d="M46.878,13.967a.9.9,0,0,1-.278-1.755l1.711-.556a.9.9,0,0,1,.556,1.711l-1.711.556a.9.9,0,0,1-.278.044Z" fill="#eeb436"/>
        <path id="Trazado_127793" data-name="Trazado 127793" d="M44.264,10.369a.9.9,0,0,1-.727-1.428l1.057-1.455A.9.9,0,1,1,46.05,8.542L44.993,10a.9.9,0,0,1-.728.371Z" fill="#eeb436"/>
      </g>
      <path id="Trazado_127794" data-name="Trazado 127794" d="M26.084,10.794h-.155c-.008-.022-.015-.044-.023-.066a2.7,2.7,0,0,0-5.063.066h-.155a1.8,1.8,0,0,0,0,3.6h5.4a1.8,1.8,0,1,0,0-3.6Z" fill="#eae9e4"/>
      <path id="Trazado_127795" data-name="Trazado 127795" d="M54.867,53.967H2.7a.9.9,0,1,1,0-1.8H54.867a.9.9,0,1,1,0,1.8Z" fill="#b2750a"/>
      <path id="Trazado_127796" data-name="Trazado 127796" d="M53.028,19.827A2.247,2.247,0,0,0,50.591,18a2.7,2.7,0,0,0-4.719,1.788c0,.015,0,.03,0,.045a2.249,2.249,0,0,0,.449,4.452h6.3a2.248,2.248,0,0,0,.411-4.458Z" fill="#eae9e4"/>
      <path id="Trazado_127797" data-name="Trazado 127797" d="M38.874,35.978h-5.4l-.675-.9h5.4Z" fill="#e6af89"/>
      <path id="Trazado_127798" data-name="Trazado 127798" d="M27.181,35.978v4.5H15.488l2.7-4.5Z" fill="#cb2527"/>
      <path id="Trazado_127799" data-name="Trazado 127799" d="M13.107,28.551l.951,3.082,5.689.517.94,2.03L19.629,35.46l-7.684.513a2.462,2.462,0,0,1-1.1-.177L7.941,28.782l4.352-.733a.725.725,0,0,1,.814.5Z" fill="#e6af89"/>
      <path id="Trazado_127800" data-name="Trazado 127800" d="M19.986,30.581h3.6v5.4h-3.6Z" fill="#a6deff"/>
      <path id="Trazado_127801" data-name="Trazado 127801" d="M22.486,30.581h1.1v5.4h-1.1Z" fill="#92d1f7"/>
      <path id="Trazado_127802" data-name="Trazado 127802" d="M11.435,19.788l1.8,3.6-1.8,1.8.9,1.8-2.9,4.5-2.5-7.2.9-3.6Z" fill="#f6bb92"/>
      <path id="Trazado_127803" data-name="Trazado 127803" d="M7.719,30.354l1.737,4.777a2.473,2.473,0,0,0,2.489,1.623l11.638-.776v-2.7l-9.894-.9L12.463,28.7a2.512,2.512,0,1,0-4.744,1.653Z" fill="#f6bb92"/>
      <path id="Trazado_127804" data-name="Trazado 127804" d="M40.035,19.788a4.5,4.5,0,1,0-4.5-4.5,4.5,4.5,0,0,0,4.5,4.5Zm0-7.2a2.7,2.7,0,1,1-2.7,2.7,2.7,2.7,0,0,1,2.7-2.7Z"/>
      <path id="Trazado_127805" data-name="Trazado 127805" d="M40.035,8.995a.9.9,0,0,0,.9-.9V6.3a.9.9,0,0,0-1.8,0V8.1A.9.9,0,0,0,40.035,8.995Z"/>
      <path id="Trazado_127806" data-name="Trazado 127806" d="M35.078,10a.9.9,0,1,0,1.455-1.057L35.476,7.486a.9.9,0,1,0-1.456,1.057Z"/>
      <path id="Trazado_127807" data-name="Trazado 127807" d="M31.2,13.367l1.711.556a.9.9,0,1,0,.556-1.711l-1.711-.556a.9.9,0,1,0-.556,1.711Z"/>
      <path id="Trazado_127808" data-name="Trazado 127808" d="M31.481,18.97a.9.9,0,0,0,.278-.044l1.711-.556a.9.9,0,0,0-.556-1.711l-1.711.556a.9.9,0,0,0,.278,1.755Z"/>
      <path id="Trazado_127809" data-name="Trazado 127809" d="M35.078,20.583,34.02,22.039A.9.9,0,1,0,35.476,23.1l1.057-1.455a.9.9,0,1,0-1.455-1.057Z"/>
      <path id="Trazado_127810" data-name="Trazado 127810" d="M39.136,22.486v1.8a.9.9,0,0,0,1.8,0v-1.8a.9.9,0,0,0-1.8,0Z"/>
      <path id="Trazado_127811" data-name="Trazado 127811" d="M46.023,13.346a.9.9,0,0,0,1.133.577l1.711-.556a.9.9,0,0,0-.556-1.711l-1.711.556a.9.9,0,0,0-.578,1.134Z"/>
      <path id="Trazado_127812" data-name="Trazado 127812" d="M43.736,10.2a.9.9,0,0,0,1.256-.2l1.057-1.455a.9.9,0,1,0-1.456-1.057L43.537,8.941a.9.9,0,0,0,.2,1.256Z"/>
      <path id="Trazado_127813" data-name="Trazado 127813" d="M20.687,15.291h5.4a2.7,2.7,0,0,0,.438-5.361,3.6,3.6,0,0,0-6.272,0,2.7,2.7,0,0,0,.437,5.361Zm0-3.6h.155a.9.9,0,0,0,.848-.6,1.8,1.8,0,0,1,3.375-.045l.015.044a.9.9,0,0,0,.848.6h.155a.9.9,0,0,1,0,1.8h-5.4a.9.9,0,0,1,0-1.8Z"/>
      <path id="Trazado_127814" data-name="Trazado 127814" d="M54.867,52.168H46.439l-3.463-7.244a2.7,2.7,0,0,0,.552-5.133l3.177-3.177a.9.9,0,0,0,0-1.272l-1.426-1.426a2.7,2.7,0,0,0-3.816,0L40.3,35.079h-.977L35.816,30.4a6.326,6.326,0,0,0-5.037-2.518h-.165a6.276,6.276,0,0,0-3.492,1.057l-1.339.893-1.3.867v-.118a.9.9,0,0,0-.9-.9V28.439l1.3-.651a.9.9,0,1,0-.8-1.609l-1.8.9a.9.9,0,0,0-.5.8v1.8h-1.8a.9.9,0,0,0-.357.074l-.4-.864,1.7-2.268a4.272,4.272,0,0,0-3.418-6.836h-6.05l-.014-.027.091-.181a2.743,2.743,0,0,0-3.472-3.773L6.093,16.6A4.132,4.132,0,0,0,3.7,19.13a4.176,4.176,0,0,0-.161.658H2.7a.9.9,0,0,0-.9.9v4.447A2.742,2.742,0,0,0,1.97,26.6L9.135,44.111,5.912,52.168H2.7a.9.9,0,1,0,0,1.8H54.866a.9.9,0,1,0,0-1.8ZM40.673,36.877a.9.9,0,0,0,.636-.263l1.426-1.426a.9.9,0,0,1,1.272,0l.79.79-3.6,3.6H28.081v-2.7Zm-27.286,2.7-.826-1.962,3.744-.25-1.326,2.211ZM3.654,21.587a4.219,4.219,0,0,0,.278.71l.274.536a2.8,2.8,0,0,0-.363.063c-.084.021-.165.046-.246.075V21.587Zm8.461,4.5a.9.9,0,0,0-.193.021l-.372-.743.178-.178h2.979l-.6.9ZM9.974,20.835l1.186,2.372L9.82,24.549a.9.9,0,0,0-.169,1.038l.251.5a3.414,3.414,0,0,0-1.9.7l-.967-2.3a2.8,2.8,0,0,0-.134-.272l.7-2.791ZM8.759,28.571a1.593,1.593,0,0,1,1.321-.688,1.61,1.61,0,0,1,1.53,1.1l1.226,3.679a.9.9,0,0,0,.772.611l9.076.825v1.035l-10.8.72A1.582,1.582,0,0,1,10.3,34.823L8.565,30.046a1.593,1.593,0,0,1,.195-1.476Zm9.656,8.654,7.867-.347v2.7h-9.2s1.32-2.244,1.338-2.352ZM30.681,33.75l1,1.328H29.353Zm-2.562-3.313a4.482,4.482,0,0,1,2.495-.755h.165a4.519,4.519,0,0,1,3.6,1.8l2.7,3.6H33.927L31.5,31.841a.9.9,0,0,0-1.356-.1L29.077,32.81,27.572,30.8ZM26.073,31.8l1.72,2.294-.984.983H24.483V32.862Zm-3.389-.321v.814l-1.8-.163v-.651Zm-5.172-9.894a2.473,2.473,0,0,1,1.979,3.958l-2.024,2.7a.9.9,0,0,0-.1.918l1.283,2.768-4.3-.391-1.04-3.121a3.419,3.419,0,0,0-.231-.534h1.5a.9.9,0,0,0,.748-.4l1.8-2.7a.9.9,0,0,0-.748-1.4H13.154a.9.9,0,0,0-.095-.4l-.7-1.4ZM5.41,19.7a2.336,2.336,0,0,1,1.351-1.433l1.974-.79a.944.944,0,0,1,1.195,1.3l-.124.248-3.165.791a.9.9,0,0,0-.654.654l-.318,1.271-.131-.255A2.325,2.325,0,0,1,5.41,19.7ZM3.666,25.131a.944.944,0,0,1,1.712.06L6.8,28.566a3.412,3.412,0,0,0,.074,2.1l1.737,4.777a3.387,3.387,0,0,0,1.913,1.974l1.437,3.412a.9.9,0,0,0,.829.551H42.472a.9.9,0,0,1,0,1.8H10.7L3.635,25.915a.931.931,0,0,1,.032-.784Zm9.318,27.037,1.331-3.6H38.3l1.667,3.6Zm28.965,0L39.69,47.293a.9.9,0,0,0-.816-.521H13.689a.9.9,0,0,0-.843.587l-1.78,4.809H7.85l2.878-7.2H41.006l3.44,7.2Z"/>
      <path id="Trazado_127815" data-name="Trazado 127815" d="M45.026,19.167a3.148,3.148,0,0,0,1.3,6.017h6.3A3.148,3.148,0,0,0,53.754,19.1a3.148,3.148,0,0,0-2.8-2.009,3.6,3.6,0,0,0-5.926,2.075Zm4.891-.571a.9.9,0,0,0,.764.3c.046,0,.092-.007.138-.007a1.347,1.347,0,0,1,1.325,1.1.9.9,0,0,0,.721.721,1.348,1.348,0,0,1-.247,2.674h-6.3a1.349,1.349,0,0,1-.27-2.671.9.9,0,0,0,.721-.9v-.029A1.8,1.8,0,0,1,49.918,18.6Z"/>
    </g>
  </g>
</svg>
