<svg xmlns="http://www.w3.org/2000/svg" xmlns:xlink="http://www.w3.org/1999/xlink" width="54" height="54" viewBox="0 0 54 54">
  <defs>
    <clipPath id="clip-path">
      <rect id="Rectángulo_35843" data-name="Rectángulo 35843" width="54" height="54" transform="translate(-2659 2292)" fill="#fff" stroke="#707070" stroke-width="1"/>
    </clipPath>
  </defs>
  <g id="_119" data-name="119" transform="translate(2659 -2292)" clip-path="url(#clip-path)">
    <g id="filled_outline" data-name="filled outline" transform="translate(-2662.343 2288.204)">
      <ellipse id="Elipse_4902" data-name="Elipse 4902" cx="22.155" cy="9.633" rx="22.155" ry="9.633" transform="translate(8.669 30.825)" fill="#92d1f7"/>
      <path id="Trazado_127835" data-name="Trazado 127835" d="M41.421,36.6V32.751A3.853,3.853,0,0,0,37.568,28.9H33.715v-2.89h-5.78V28.9H24.082a3.853,3.853,0,0,0-3.853,3.853V36.6Z" fill="#fdc9a6"/>
      <path id="Trazado_127836" data-name="Trazado 127836" d="M33.715,26.008v1.154a5.788,5.788,0,0,1-5.78,0V26.008Z" fill="#f6bb92"/>
      <circle id="Elipse_4903" data-name="Elipse 4903" cx="2.89" cy="2.89" r="2.89" transform="translate(27.935 4.816)" fill="#7a4922"/>
      <path id="Trazado_127837" data-name="Trazado 127837" d="M30.825,7.706a7.706,7.706,0,0,1,7.706,7.706V18.3H23.119v-2.89A7.706,7.706,0,0,1,30.825,7.706Z" fill="#7a4922"/>
      <path id="Trazado_127838" data-name="Trazado 127838" d="M25.045,16.376v4.816a5.78,5.78,0,1,0,11.559,0V16.376h-.361a8.91,8.91,0,0,1-7.128-3.564l-.217-.289Z" fill="#fdc9a6"/>
      <circle id="Elipse_4904" data-name="Elipse 4904" cx="1.204" cy="1.204" r="1.204" transform="translate(32.27 17.339)" fill="#7a4922"/>
      <circle id="Elipse_4905" data-name="Elipse 4905" cx="1.204" cy="1.204" r="1.204" transform="translate(26.972 17.339)" fill="#7a4922"/>
      <path id="Trazado_127839" data-name="Trazado 127839" d="M30.825,23.116a5.274,5.274,0,0,1-2.357-.554.963.963,0,0,1,.861-1.723,3.36,3.36,0,0,0,2.992,0,.963.963,0,1,1,.861,1.723A5.274,5.274,0,0,1,30.825,23.116Z" fill="#7a4922"/>
      <path id="Trazado_127840" data-name="Trazado 127840" d="M24.082,17.339h.963v3.853h-.963a1.927,1.927,0,1,1,0-3.853Z" fill="#fdc9a6"/>
      <path id="Trazado_127841" data-name="Trazado 127841" d="M38.531,17.339h.963v3.853h-.963a1.927,1.927,0,0,1,0-3.853Z" transform="translate(76.099 38.531) rotate(180)" fill="#fdc9a6"/>
      <path id="Trazado_127842" data-name="Trazado 127842" d="M24.083,37.568a.963.963,0,0,1-.862-.533,5.3,5.3,0,0,1,0-4.715.963.963,0,1,1,1.723.862,3.361,3.361,0,0,0,0,2.991.963.963,0,0,1-.861,1.394Z" fill="#f6bb92"/>
      <path id="Trazado_127843" data-name="Trazado 127843" d="M37.567,37.568a.963.963,0,0,1-.861-1.394,3.361,3.361,0,0,0,0-2.991.963.963,0,1,1,1.723-.862,5.3,5.3,0,0,1,0,4.715.963.963,0,0,1-.862.533Z" fill="#f6bb92"/>
      <g id="Grupo_93529" data-name="Grupo 93529">
        <path id="Trazado_127844" data-name="Trazado 127844" d="M45.274,37.568a.963.963,0,0,0,0-1.927h-28.9a.963.963,0,1,0,0,1.927Z" fill="#a6deff"/>
        <path id="Trazado_127845" data-name="Trazado 127845" d="M18.3,39.494a.963.963,0,0,0,0,1.927h5.78a.963.963,0,0,0,0-1.927Z" fill="#a6deff"/>
        <path id="Trazado_127846" data-name="Trazado 127846" d="M27.935,39.494a.963.963,0,0,0,0,1.927H28.9a.963.963,0,0,0,0-1.927Z" fill="#a6deff"/>
        <path id="Trazado_127847" data-name="Trazado 127847" d="M39.494,39.494H32.751a.963.963,0,0,0,0,1.927h6.743a.963.963,0,0,0,0-1.927Z" fill="#a6deff"/>
        <path id="Trazado_127848" data-name="Trazado 127848" d="M49.127,39.494H45.274a.963.963,0,0,0,0,1.927h3.853a.963.963,0,1,0,0-1.927Z" fill="#a6deff"/>
        <path id="Trazado_127849" data-name="Trazado 127849" d="M33.715,43.347h-10.6a.963.963,0,1,0,0,1.927h10.6a.963.963,0,1,0,0-1.927Z" fill="#a6deff"/>
        <path id="Trazado_127850" data-name="Trazado 127850" d="M39.494,43.347H37.568a.963.963,0,1,0,0,1.927h1.927a.963.963,0,1,0,0-1.927Z" fill="#a6deff"/>
        <path id="Trazado_127851" data-name="Trazado 127851" d="M19.266,43.347H17.339a.963.963,0,1,0,0,1.927h1.927a.963.963,0,1,0,0-1.927Z" fill="#a6deff"/>
      </g>
      <path id="Trazado_127852" data-name="Trazado 127852" d="M35.641,56.833H26.008V50.09l3.853-2.89,5.78,1.927Z" fill="#eae9e4"/>
      <path id="Trazado_127853" data-name="Trazado 127853" d="M35.641,49.127l2.89-1.927h2.89l1.927.963h2.89l.963,2.89V55.87l-5.78.963h-5.78Z" fill="#cdccc8"/>
      <path id="Trazado_127854" data-name="Trazado 127854" d="M47.2,51.054h-5.78L39.494,52.98v3.853h1.927l5.78-.963Z" fill="#bbbab6"/>
      <path id="Trazado_127855" data-name="Trazado 127855" d="M35.641,52.017l-4.816-.963-.963,1.927v3.853h5.78Z" fill="#dcdbd6"/>
      <path id="Trazado_127856" data-name="Trazado 127856" d="M26.008,50.09,24.082,47.2H19.266l-1.927,1.927h-2.89V55.87l2.89.963h8.669Z" fill="#cdccc8"/>
      <path id="Trazado_127857" data-name="Trazado 127857" d="M21.192,56.833V52.98l-3.853-3.853h-2.89V55.87l2.89.963Z" fill="#eae9e4"/>
      <path id="Trazado_127858" data-name="Trazado 127858" d="M50.09,42.384l-3.853,2.89v2.89l.963,2.89V55.87l6.743-3.853V45.274Z" fill="#eae9e4"/>
      <path id="Trazado_127859" data-name="Trazado 127859" d="M14.449,45.274l-1.927-2.89-2.89.963-.963,1.927-1.927.963v5.78l3.853,2.89,3.853.963Z" fill="#cdccc8"/>
      <path id="Trazado_127860" data-name="Trazado 127860" d="M10.6,54.907V48.164l-1.927-2.89-1.927.963v5.78Z" fill="#eae9e4"/>
      <path id="Trazado_127861" data-name="Trazado 127861" d="M53.943,45.274l-3.853,2.89v5.78l3.853-1.927Z" fill="#dcdbd6"/>
      <path id="Trazado_127862" data-name="Trazado 127862" d="M46.237,30.825a.963.963,0,0,1-.963-.963,3.225,3.225,0,0,1,.643-1.979,1.456,1.456,0,0,0,0-1.821,3.226,3.226,0,0,1-.643-1.979,3.169,3.169,0,0,1,.287-1.371.963.963,0,1,1,1.746.815,1.23,1.23,0,0,0-.106.555,1.35,1.35,0,0,0,.32.911,3.366,3.366,0,0,1,0,3.958,1.349,1.349,0,0,0-.32.911A.963.963,0,0,1,46.237,30.825Z" fill="#f3be5f"/>
      <path id="Trazado_127863" data-name="Trazado 127863" d="M51.486,31.788a.963.963,0,0,1-.963-.963,3.225,3.225,0,0,1,.643-1.979,1.456,1.456,0,0,0,0-1.821,3.225,3.225,0,0,1-.643-1.979,3.17,3.17,0,0,1,.287-1.371.963.963,0,0,1,1.746.815,1.23,1.23,0,0,0-.106.555,1.35,1.35,0,0,0,.32.911,3.366,3.366,0,0,1,0,3.959,1.35,1.35,0,0,0-.32.911A.963.963,0,0,1,51.486,31.788Z" fill="#f3be5f"/>
      <path id="Trazado_127864" data-name="Trazado 127864" d="M15.412,30.825a.963.963,0,0,1-.963-.963,3.225,3.225,0,0,1,.643-1.979,1.456,1.456,0,0,0,0-1.821,3.226,3.226,0,0,1-.643-1.979,3.17,3.17,0,0,1,.287-1.371.963.963,0,1,1,1.746.815,1.23,1.23,0,0,0-.106.555,1.35,1.35,0,0,0,.32.911,3.366,3.366,0,0,1,0,3.958,1.349,1.349,0,0,0-.32.911A.963.963,0,0,1,15.412,30.825Z" fill="#f3be5f"/>
      <path id="Trazado_127865" data-name="Trazado 127865" d="M10.114,31.788a.963.963,0,0,1-.963-.963,3.225,3.225,0,0,1,.643-1.979,1.456,1.456,0,0,0,0-1.821,3.226,3.226,0,0,1-.643-1.979,3.17,3.17,0,0,1,.287-1.371.963.963,0,0,1,1.746.815,1.23,1.23,0,0,0-.106.555,1.35,1.35,0,0,0,.32.911,3.366,3.366,0,0,1,0,3.958,1.349,1.349,0,0,0-.32.911A.963.963,0,0,1,10.114,31.788Z" fill="#f3be5f"/>
      <circle id="Elipse_4906" data-name="Elipse 4906" cx="1.204" cy="1.204" r="1.204" transform="translate(32.27 17.339)"/>
      <circle id="Elipse_4907" data-name="Elipse 4907" cx="1.204" cy="1.204" r="1.204" transform="translate(26.972 17.339)"/>
      <path id="Trazado_127866" data-name="Trazado 127866" d="M28.037,21.27a.963.963,0,0,0,.431,1.292,5.3,5.3,0,0,0,4.715,0,.963.963,0,1,0-.861-1.723,3.36,3.36,0,0,1-2.992,0,.963.963,0,0,0-1.292.431Z"/>
      <path id="Trazado_127867" data-name="Trazado 127867" d="M18.3,41.421h5.78a.963.963,0,0,0,0-1.927H18.3a.963.963,0,0,0,0,1.927Z"/>
      <path id="Trazado_127868" data-name="Trazado 127868" d="M27.935,41.421H28.9a.963.963,0,0,0,0-1.927h-.963a.963.963,0,0,0,0,1.927Z"/>
      <path id="Trazado_127869" data-name="Trazado 127869" d="M32.751,41.421h6.743a.963.963,0,0,0,0-1.927H32.751a.963.963,0,0,0,0,1.927Z"/>
      <path id="Trazado_127870" data-name="Trazado 127870" d="M45.274,41.421h3.853a.963.963,0,1,0,0-1.927H45.274a.963.963,0,0,0,0,1.927Z"/>
      <path id="Trazado_127871" data-name="Trazado 127871" d="M33.715,43.347h-10.6a.963.963,0,1,0,0,1.927h10.6a.963.963,0,1,0,0-1.927Z"/>
      <path id="Trazado_127872" data-name="Trazado 127872" d="M39.494,43.347H37.568a.963.963,0,1,0,0,1.927h1.927a.963.963,0,1,0,0-1.927Z"/>
      <path id="Trazado_127873" data-name="Trazado 127873" d="M17.339,45.274h1.927a.963.963,0,1,0,0-1.927H17.339a.963.963,0,1,0,0,1.927Z"/>
      <path id="Trazado_127874" data-name="Trazado 127874" d="M54.521,44.5l-1.448-1.086a5.655,5.655,0,0,0,.87-2.96c0-2.087-1.245-4.082-3.6-5.77a24.612,24.612,0,0,0-8.226-3.512,4.824,4.824,0,0,0-4.55-3.241h-2.89V26.721a6.749,6.749,0,0,0,2.82-4.566h.07a2.888,2.888,0,0,0,1.927-5.041v-1.7a8.678,8.678,0,0,0-4.818-7.764,3.852,3.852,0,1,0-7.7,0,8.678,8.678,0,0,0-4.817,7.764v1.7a2.888,2.888,0,0,0,1.927,5.041h.07a6.749,6.749,0,0,0,2.82,4.566v1.214h-2.89a4.824,4.824,0,0,0-4.55,3.241,24.606,24.606,0,0,0-8.226,3.512c-2.354,1.688-3.6,3.684-3.6,5.77a5.637,5.637,0,0,0,.84,2.91l-.594,1.189-1.639.82a.963.963,0,0,0-.532.862v5.78a.963.963,0,0,0,.385.771l3.853,2.89a.963.963,0,0,0,.344.164l3.817.954,2.855.951a.963.963,0,0,0,.3.05H41.421a.969.969,0,0,0,.158-.013l5.78-.963a.958.958,0,0,0,.325-.117l6.738-3.85a.963.963,0,0,0,.485-.836V45.274a.963.963,0,0,0-.385-.771Zm-5.394,3.66v5.5l-.963.551V51.054a.967.967,0,0,0-.049-.3L47.2,48.007V45.756l2.89-2.167,2.248,1.686-2.826,2.119a.963.963,0,0,0-.385.771ZM37.568,20.229V18.3a.963.963,0,0,1,0,1.927ZM30.825,5.78a1.928,1.928,0,0,1,1.758,1.143,8.7,8.7,0,0,0-3.516,0A1.928,1.928,0,0,1,30.825,5.78Zm-6.743,9.633a6.743,6.743,0,1,1,13.486,0v.963a.963.963,0,0,0-.963-.963h-.361a7.985,7.985,0,0,1-6.358-3.179l-.217-.289a.963.963,0,0,0-1.452-.1l-3.853,3.853a.963.963,0,0,0-.282.681Zm-.963,3.853a.964.964,0,0,1,.963-.963v1.927A.964.964,0,0,1,23.119,19.266Zm2.89,1.927V16.775l2.806-2.806a9.937,9.937,0,0,0,6.827,3.351v3.872a4.816,4.816,0,1,1-9.633,0Zm-1.927,8.669h3.853A.963.963,0,0,0,28.9,28.9V27.653a6.725,6.725,0,0,0,3.853,0V28.9a.963.963,0,0,0,.963.963h3.853a2.893,2.893,0,0,1,2.89,2.89v2.89H38.894a5.293,5.293,0,0,0-.464-3.321.963.963,0,1,0-1.723.862,3.363,3.363,0,0,1,.21,2.459H24.733a3.363,3.363,0,0,1,.21-2.459.963.963,0,1,0-1.723-.862,5.293,5.293,0,0,0-.464,3.321H21.192v-2.89a2.893,2.893,0,0,1,2.89-2.89Zm-4.816,3.375v2.4h-2.89a.963.963,0,1,0,0,1.927h28.9a.963.963,0,0,0,0-1.927h-2.89v-2.4c5.892,1.619,9.633,4.395,9.633,7.221a3.694,3.694,0,0,1-.5,1.8l-.852-.639a.963.963,0,0,0-1.156,0L45.659,44.5a.963.963,0,0,0-.385.771V47.2h-1.7l-1.723-.862a.963.963,0,0,0-.431-.1h-2.89A.963.963,0,0,0,38,46.4l-2.5,1.665-5.333-1.777a.963.963,0,0,0-.883.143l-3.039,2.279-1.362-2.043a.963.963,0,0,0-.8-.429H19.266a.963.963,0,0,0-.681.282l-1.472,1.472-1.7-.7V45.274a.963.963,0,0,0-.162-.534l-1.927-2.89a.963.963,0,0,0-1.106-.379l-2.13.71a3.659,3.659,0,0,1-.455-1.723C9.633,37.631,13.373,34.856,19.266,33.236ZM21.873,52.3,18.7,49.127l.963-.963h3.9l1.479,2.218V55.87h-2.89V52.98a.963.963,0,0,0-.282-.681Zm5.1-1.727,3.064-2.3,4.642,1.547v1.02l-3.664-.733a.963.963,0,0,0-1.05.514L29,52.549a.963.963,0,0,0-.1.431v2.89H26.972Zm3.853,2.636.533-1.065,3.321.664V55.87H30.825ZM7.706,46.833l.633-.317,1.293,1.94V52.98L7.706,51.535Zm5.78,7.8-1.927-.482V48.164a.963.963,0,0,0-.162-.534L9.781,45.2l.535-1.07,1.813-.6,1.357,2.035Zm1.927.539v-5.8l1.382.569,3.435,3.435V55.87H17.5ZM36.6,49.643l2.218-1.479h2.371l1.723.862a.963.963,0,0,0,.431.1h2.2l.321.963H41.421a.963.963,0,0,0-.681.282L38.813,52.3a.963.963,0,0,0-.282.681v2.89H36.6Zm4.737,6.227h-.884V53.379l1.362-1.362h4.417v3.037Zm9.712-3.311V48.645L52.98,47.2v4.257Z"/>
      <path id="Trazado_127875" data-name="Trazado 127875" d="M45.274,29.862a.963.963,0,0,0,1.927,0,1.35,1.35,0,0,1,.32-.911,3.366,3.366,0,0,0,0-3.958,1.35,1.35,0,0,1-.32-.911,1.23,1.23,0,0,1,.106-.555.963.963,0,1,0-1.746-.815,3.17,3.17,0,0,0-.286,1.371,3.225,3.225,0,0,0,.643,1.979,1.456,1.456,0,0,1,0,1.821A3.225,3.225,0,0,0,45.274,29.862Z"/>
      <path id="Trazado_127876" data-name="Trazado 127876" d="M50.522,30.825a.963.963,0,0,0,1.927,0,1.35,1.35,0,0,1,.32-.911,3.366,3.366,0,0,0,0-3.959,1.35,1.35,0,0,1-.32-.911,1.23,1.23,0,0,1,.106-.555.963.963,0,1,0-1.746-.815,3.17,3.17,0,0,0-.286,1.371,3.225,3.225,0,0,0,.643,1.979,1.456,1.456,0,0,1,0,1.821A3.224,3.224,0,0,0,50.522,30.825Z"/>
      <path id="Trazado_127877" data-name="Trazado 127877" d="M14.449,29.862a.963.963,0,1,0,1.927,0,1.35,1.35,0,0,1,.32-.911,3.366,3.366,0,0,0,0-3.958,1.35,1.35,0,0,1-.32-.911,1.23,1.23,0,0,1,.106-.555.963.963,0,1,0-1.746-.815,3.17,3.17,0,0,0-.286,1.371,3.225,3.225,0,0,0,.643,1.979,1.456,1.456,0,0,1,0,1.821A3.225,3.225,0,0,0,14.449,29.862Z"/>
      <path id="Trazado_127878" data-name="Trazado 127878" d="M9.151,30.825a.963.963,0,1,0,1.927,0,1.35,1.35,0,0,1,.32-.911,3.366,3.366,0,0,0,0-3.958,1.35,1.35,0,0,1-.32-.911,1.23,1.23,0,0,1,.106-.555.963.963,0,1,0-1.746-.815,3.17,3.17,0,0,0-.286,1.371,3.225,3.225,0,0,0,.643,1.979,1.456,1.456,0,0,1,0,1.821A3.225,3.225,0,0,0,9.151,30.825Z"/>
    </g>
  </g>
</svg>
