<svg xmlns="http://www.w3.org/2000/svg" xmlns:xlink="http://www.w3.org/1999/xlink" width="54" height="54" viewBox="0 0 54 54">
  <defs>
    <clipPath id="clip-path">
      <rect id="Rectángulo_35844" data-name="Rectángulo 35844" width="54" height="54" transform="translate(-2659 2424)" fill="#fff" stroke="#707070" stroke-width="1"/>
    </clipPath>
  </defs>
  <g id="_120" data-name="120" transform="translate(2659 -2424)" clip-path="url(#clip-path)">
    <g id="cantando" transform="translate(-2659 2424)">
      <g id="Grupo_93548" data-name="Grupo 93548">
        <g id="Grupo_93532" data-name="Grupo 93532">
          <path id="Trazado_127887" data-name="Trazado 127887" d="M13.935,15.677a13.065,13.065,0,0,1,26.129,0V18.29a2.609,2.609,0,0,0-2.613-2.613H36.058A11.633,11.633,0,0,1,27,11.323a11.61,11.61,0,0,1-9.058,4.355H16.548a2.617,2.617,0,0,0-2.613,2.613Z" fill="#656d78"/>
        </g>
        <g id="Grupo_93533" data-name="Grupo 93533">
          <path id="Trazado_127888" data-name="Trazado 127888" d="M37.765,34.586l-2.125-.435-4.869-.993a4.217,4.217,0,0,0-.287-.4V30.989a.874.874,0,0,1,.435-.758l1.272-.723a8.7,8.7,0,0,0,4.39-7.56V20.9h.871a2.617,2.617,0,0,0,2.613-2.613L42.477,20.7a3.664,3.664,0,0,1,1.071,2.6v.044a3.673,3.673,0,0,1-1.637,3L40.935,27v.688a5.211,5.211,0,0,1-2.325,4.346l-.287.192a5.2,5.2,0,0,1-.557,2.352Z" fill="#656d78"/>
        </g>
        <g id="Grupo_93534" data-name="Grupo 93534">
          <path id="Trazado_127889" data-name="Trazado 127889" d="M13.935,18.29A2.609,2.609,0,0,0,16.548,20.9h.871v1.045a8.7,8.7,0,0,0,4.39,7.56l1.272.723a.874.874,0,0,1,.435.758v1.768a3.4,3.4,0,0,0-.261.357l-2.221.157a9.814,9.814,0,0,0-1.62.244,10.159,10.159,0,0,0-3.075,1.254,5.216,5.216,0,0,1-.662-2.543l-.287-.192a5.211,5.211,0,0,1-2.325-4.346V27l-.975-.653a3.667,3.667,0,0,1-.566-5.644Z" fill="#656d78"/>
        </g>
        <g id="Grupo_93535" data-name="Grupo 93535">
          <path id="Trazado_127890" data-name="Trazado 127890" d="M36.581,51.239v1.89H18.29v-1.89a5.989,5.989,0,0,1,.592-2.587v-.009l6.375-2.726V47.9A1.755,1.755,0,0,0,27,49.645,1.747,1.747,0,0,0,28.742,47.9v-5.67a3,3,0,0,0-.592-1.8l2.317-2.778a3.85,3.85,0,0,0,.888-2.456,3.79,3.79,0,0,0-.584-2.038l4.869.993.34,1.185a15.725,15.725,0,0,1,.6,4.32c0,.2,0,.409-.017.61a15.671,15.671,0,0,1-1.106,5.226l-.618,1.542A5.953,5.953,0,0,1,36.581,51.239Z" fill="#fcd770"/>
        </g>
        <g id="Grupo_93536" data-name="Grupo 93536">
          <path id="Trazado_127891" data-name="Trazado 127891" d="M23.534,37.652,24.91,39.3a3.025,3.025,0,0,0-2.082,1.968l-.183.54-4.033,1.01a15.4,15.4,0,0,1-.322-3.162,15.724,15.724,0,0,1,.6-4.32l.523-1.82a9.813,9.813,0,0,1,1.62-.244l2.221-.157a3.848,3.848,0,0,0,.279,4.538Z" fill="#fcd770"/>
        </g>
        <g id="Grupo_93537" data-name="Grupo 93537">
          <path id="Trazado_127892" data-name="Trazado 127892" d="M28.742,42.416V47.9A1.747,1.747,0,0,1,27,49.645,1.755,1.755,0,0,1,25.258,47.9V45.917l1.646-.705A3.039,3.039,0,0,0,28.742,42.416Z" fill="#969faa"/>
        </g>
        <g id="Grupo_93538" data-name="Grupo 93538">
          <path id="Trazado_127893" data-name="Trazado 127893" d="M30.771,33.158a3.79,3.79,0,0,1,.584,2.038,3.85,3.85,0,0,1-.888,2.456L28.15,40.43a2.843,2.843,0,0,0-.3-.348A3.051,3.051,0,0,0,24.91,39.3l-1.376-1.646a3.848,3.848,0,0,1-.279-4.538,3.4,3.4,0,0,1,.261-.357v-.009a3.844,3.844,0,0,1,2.97-1.394h1.028a3.824,3.824,0,0,1,2.717,1.124c.087.087.174.174.253.27v.009A4.218,4.218,0,0,1,30.771,33.158Z" fill="#ccd1d9"/>
        </g>
        <g id="Grupo_93539" data-name="Grupo 93539">
          <path id="Trazado_127894" data-name="Trazado 127894" d="M28.742,42.233v.183a3.039,3.039,0,0,1-1.838,2.8l-1.646.705-6.375,2.726v.009l-1.515.645a4.431,4.431,0,0,1-1.707.348,4.342,4.342,0,0,1-4.337-4.337V43.7a10.45,10.45,0,0,1,5.017-8.927,10.159,10.159,0,0,1,3.075-1.254l-.523,1.82a15.725,15.725,0,0,0-.6,4.32,15.4,15.4,0,0,0,.322,3.162l4.033-1.01.183-.54a3.036,3.036,0,0,1,5.025-1.185,2.842,2.842,0,0,1,.3.348,3,3,0,0,1,.592,1.8Z" fill="#f0d0b4"/>
        </g>
        <g id="Grupo_93540" data-name="Grupo 93540">
          <path id="Trazado_127895" data-name="Trazado 127895" d="M36.581,40.265h-.017c.017-.2.017-.409.017-.61a15.725,15.725,0,0,0-.6-4.32l-.34-1.185,2.125.435L43.3,35.71l1.995-9.581L44.062,24.9a1.747,1.747,0,0,1-.514-1.237v-.148a1.111,1.111,0,0,1,.009-.174,1.747,1.747,0,0,1,1.733-1.568V20.9a1.747,1.747,0,0,1,1.742-1.742h1.742A1.747,1.747,0,0,1,50.516,20.9v14.31a6.578,6.578,0,0,1-7.839,6.471Z" fill="#f0d0b4"/>
        </g>
        <g id="Grupo_93541" data-name="Grupo 93541">
          <path id="Trazado_127896" data-name="Trazado 127896" d="M37.452,15.677a2.613,2.613,0,0,1,0,5.226h-.871V15.677Z" fill="#f0d0b4"/>
        </g>
        <g id="Grupo_93542" data-name="Grupo 93542">
          <path id="Trazado_127897" data-name="Trazado 127897" d="M36.581,15.677v6.271a8.7,8.7,0,0,1-4.39,7.56l-1.272.723a.874.874,0,0,0-.435.758v1.759c-.078-.1-.165-.183-.253-.27a3.824,3.824,0,0,0-2.717-1.124H26.486a3.844,3.844,0,0,0-2.97,1.394V30.989a.874.874,0,0,0-.435-.758l-1.272-.723a8.7,8.7,0,0,1-4.39-7.56V15.677h.523A11.61,11.61,0,0,0,27,11.323a11.633,11.633,0,0,0,9.058,4.355Z" fill="#f0d0b4"/>
        </g>
        <g id="Grupo_93543" data-name="Grupo 93543">
          <path id="Trazado_127898" data-name="Trazado 127898" d="M17.419,15.677V20.9h-.871a2.613,2.613,0,0,1,0-5.226Z" fill="#f0d0b4"/>
        </g>
        <g id="Grupo_93544" data-name="Grupo 93544">
          <circle id="Elipse_4908" data-name="Elipse 4908" cx="1.742" cy="1.742" r="1.742" transform="translate(0.871 49.645)" fill="#ff826e"/>
        </g>
        <g id="Grupo_93545" data-name="Grupo 93545">
          <path id="Trazado_127899" data-name="Trazado 127899" d="M7.63,13.883V13.9a1.766,1.766,0,0,1-1.533.906,1.742,1.742,0,1,1,1.742-1.742A1.636,1.636,0,0,1,7.63,13.883Z" fill="#ff826e"/>
        </g>
        <g id="Grupo_93546" data-name="Grupo 93546">
          <circle id="Elipse_4909" data-name="Elipse 4909" cx="1.742" cy="1.742" r="1.742" transform="translate(46.161 8.71)" fill="#ff826e"/>
        </g>
        <g id="Grupo_93547" data-name="Grupo 93547">
          <path id="Trazado_127900" data-name="Trazado 127900" d="M23.516,24.387h6.968a3.484,3.484,0,1,1-6.968,0Z" fill="#ff826e"/>
        </g>
      </g>
      <g id="Grupo_93549" data-name="Grupo 93549">
        <path id="Trazado_127901" data-name="Trazado 127901" d="M48.774,18.29H47.032A2.616,2.616,0,0,0,44.419,20.9v.149a2.6,2.6,0,0,0-.489.241,4.527,4.527,0,0,0-.841-1.211L40.935,17.93V15.677a13.935,13.935,0,0,0-27.871,0V17.93l-2.154,2.154a4.541,4.541,0,0,0,.692,6.989l.591.394v.221A6.088,6.088,0,0,0,14.825,32.7a6.1,6.1,0,0,0,.417,1.772,11.339,11.339,0,0,0-4.79,9.224v1.61a5.213,5.213,0,0,0,5.208,5.207,5.159,5.159,0,0,0,1.857-.349,6.7,6.7,0,0,0-.1,1.07V54H37.452V51.237a6.867,6.867,0,0,0-1.6-4.389l.416-1.038a16.514,16.514,0,0,0,1.1-4.468l5.145,1.195a7.22,7.22,0,0,0,1.414.14,7.475,7.475,0,0,0,7.466-7.466V20.9a2.616,2.616,0,0,0-2.613-2.613Zm-4.432,8.122-1.725,8.271-3.669-.748a6.045,6.045,0,0,0,.227-1.232,6.086,6.086,0,0,0,2.63-5.016v-.221l.591-.394a4.534,4.534,0,0,0,1.289-1.316Zm-2.484-5.1a2.8,2.8,0,0,1-.427,4.308l-1.367.911v1.153a4.346,4.346,0,0,1-1.94,3.623l-.673.449v.466a4.341,4.341,0,0,1-.221,1.359l-5.876-1.2v-1.4l1.269-.725a9.6,9.6,0,0,0,4.827-8.318v-.172h0a3.472,3.472,0,0,0,3.043-1.822ZM26.129,46.486l1.115-.478a3.912,3.912,0,0,0,.627-.348V47.9a.871.871,0,1,1-1.742,0Zm1.951-7.337a3.871,3.871,0,0,0-2.375-.827,3.964,3.964,0,0,0-.445.035L24.2,37.089a2.965,2.965,0,0,1,2.278-4.863h1.036A2.965,2.965,0,0,1,29.8,37.09Zm-8.753,2.589a14.257,14.257,0,0,1,.406-6.164l.374-1.307a9.647,9.647,0,0,1,.986-.125l.819-.058a4.668,4.668,0,0,0,.955,4.121l.658.79a3.9,3.9,0,0,0-1.527,2l-.027.083ZM30.492,29.477a1.748,1.748,0,0,0-.878,1.506,4.659,4.659,0,0,0-2.1-.5H26.483a4.67,4.67,0,0,0-2.1.5,1.748,1.748,0,0,0-.877-1.505l-1.269-.725a7.856,7.856,0,0,1-3.949-6.8l0-5.4A12.4,12.4,0,0,0,27,12.649a12.4,12.4,0,0,0,8.71,3.894v5.4a7.854,7.854,0,0,1-3.949,6.8Zm6.96-12.929a1.742,1.742,0,1,1,0,3.484h0ZM27,3.484a12.2,12.2,0,0,1,12.174,11.8,3.439,3.439,0,0,0-1.722-.474H36.061a10.679,10.679,0,0,1-8.38-4.028L27,9.928l-.68.85a10.681,10.681,0,0,1-8.38,4.028H16.548a3.439,3.439,0,0,0-1.722.474A12.2,12.2,0,0,1,27,3.484ZM16.549,20.032a1.742,1.742,0,1,1,0-3.484Zm0,12.194V31.76l-.673-.449a4.345,4.345,0,0,1-1.94-3.623V26.534l-1.367-.911a2.8,2.8,0,0,1-.427-4.308l1.363-1.363a3.472,3.472,0,0,0,3.043,1.822h0v.172a9.6,9.6,0,0,0,4.827,8.318l1.269.725v1.3l-1.677.12a11.21,11.21,0,0,0-4.2,1.15,4.379,4.379,0,0,1-.216-1.33Zm-.889,16.548a3.47,3.47,0,0,1-3.466-3.466V43.7a9.615,9.615,0,0,1,5.933-8.846l-.069.242a15.966,15.966,0,0,0-.425,7.065l-2.555.638-1.05,2.1,1.558.78.692-1.384,7.044-1.76.329-.99a2.166,2.166,0,0,1,4.221.686v.186a2.163,2.163,0,0,1-1.313,1.99l-9.534,4.087a3.436,3.436,0,0,1-1.365.28Zm18.564-1.126a5.111,5.111,0,0,1,1.487,3.589v1.021H19.161V51.237a5.091,5.091,0,0,1,.392-1.933l4.834-2.072V47.9a2.613,2.613,0,0,0,5.226,0V42.231a3.872,3.872,0,0,0-.409-1.708l1.931-2.317a4.719,4.719,0,0,0,1.091-3.014,4.665,4.665,0,0,0-.084-.867l2.8.571.194.681a14.829,14.829,0,0,1-.49,9.587l-.832,2.079ZM49.645,35.211a5.73,5.73,0,0,1-5.724,5.724,5.444,5.444,0,0,1-1.046-.1l-5.426-1.26a16.578,16.578,0,0,0-.588-4.289l5.812,1.185.947,2.195,1.6-.689L44.2,35.617l2.036-9.772-1.564-1.564a.872.872,0,0,1-.255-.615v-.15a.871.871,0,0,1,.871-.871h.871V20.9a.871.871,0,0,1,.871-.871h1.742a.871.871,0,0,1,.871.871Z"/>
        <path id="Trazado_127902" data-name="Trazado 127902" d="M22.645,24.387a4.355,4.355,0,0,0,8.71,0v-.871h-8.71Zm6.819.871a2.614,2.614,0,0,1-4.928,0Z"/>
        <path id="Trazado_127903" data-name="Trazado 127903" d="M3.484,43.548v5.386a2.583,2.583,0,0,0-.871-.16,2.613,2.613,0,1,0,2.613,2.613V43.548a.871.871,0,0,1,.871-.871H8.71V40.935H6.1A2.616,2.616,0,0,0,3.484,43.548Zm-.871,8.71a.871.871,0,1,1,.871-.871A.871.871,0,0,1,2.613,52.258Z"/>
        <path id="Trazado_127904" data-name="Trazado 127904" d="M51.387,0a2.616,2.616,0,0,0-2.613,2.613V8a2.583,2.583,0,0,0-.871-.16,2.613,2.613,0,1,0,2.613,2.613V2.613a.871.871,0,0,1,.871-.871H54V0ZM47.9,11.323a.871.871,0,1,1,.871-.871A.871.871,0,0,1,47.9,11.323Z"/>
        <path id="Trazado_127905" data-name="Trazado 127905" d="M6.1,10.452a2.613,2.613,0,0,0,0,5.226c.067,0,.131-.015.2-.02L4.381,23.305l1.689.422,2.393-9.572a2.585,2.585,0,0,0,.246-1.09A2.616,2.616,0,0,0,6.1,10.452Zm-.871,2.613a.871.871,0,1,1,.871.871A.871.871,0,0,1,5.226,13.065Z"/>
        <circle id="Elipse_4910" data-name="Elipse 4910" cx="0.871" cy="0.871" r="0.871" transform="translate(21.774 17.419)"/>
        <circle id="Elipse_4911" data-name="Elipse 4911" cx="0.871" cy="0.871" r="0.871" transform="translate(30.484 17.419)"/>
        <path id="Trazado_127906" data-name="Trazado 127906" d="M26.518,22.554l.962-.482a1.742,1.742,0,0,0,.78-2.337l-.389-.78V17.419H26.129v1.742a.873.873,0,0,0,.091.389l.482.962-.962.482Z"/>
      </g>
    </g>
  </g>
</svg>
