<svg xmlns="http://www.w3.org/2000/svg" xmlns:xlink="http://www.w3.org/1999/xlink" width="54" height="54" viewBox="0 0 54 54">
  <defs>
    <clipPath id="clip-path">
      <rect id="Rectángulo_35845" data-name="Rectángulo 35845" width="54" height="54" transform="translate(-2659 2556)" fill="#fff" stroke="#707070" stroke-width="1"/>
    </clipPath>
  </defs>
  <g id="_121" data-name="121" transform="translate(2659 -2556)" clip-path="url(#clip-path)">
    <g id="filled_outline" data-name="filled outline" transform="translate(-2660.8 2554.2)">
      <circle id="Elipse_4912" data-name="Elipse 4912" cx="3.6" cy="3.6" r="3.6" transform="translate(3.742 15.3)" fill="#d78e0c"/>
      <path id="Trazado_127907" data-name="Trazado 127907" d="M33.442,45h-16.2L6.754,31.666A1.771,1.771,0,0,1,8.147,28.8a2.371,2.371,0,0,1,1.6.8l9.521,11.8h12.3a1.8,1.8,0,0,1,1.8,1.729Z" fill="#d78e0c"/>
      <path id="Trazado_127908" data-name="Trazado 127908" d="M16.2,35.1l18.142,1.8,9,14.4,2.7.9v2.7h-5.4l-.9-1.8-3.955-3.955A15.156,15.156,0,0,1,31.642,41.4h-12.6Z" fill="#fdc9a6"/>
      <path id="Trazado_127909" data-name="Trazado 127909" d="M24.442,36l9.37-3.407a3.2,3.2,0,0,1,4.052,1.779L41.542,43.2,45,45v2.7H41.4l-4.652-4.652A8.235,8.235,0,0,1,34.342,36.9Z" fill="#fdc9a6"/>
      <path id="Trazado_127910" data-name="Trazado 127910" d="M12.6,19.8l3.706-4a2.059,2.059,0,0,0-3.218-2.547L3.222,23.828a1.942,1.942,0,0,0,2.793,2.7L9.142,23.4Z" fill="#c7830b"/>
      <path id="Trazado_127911" data-name="Trazado 127911" d="M10.09,17.4l.614.524A3.244,3.244,0,0,1,11.842,20.4v1.2l-2.7,2.7.9,1.8v3.6H9a2.554,2.554,0,0,1-2.554-2.554,17.536,17.536,0,0,0-.762-5.112Z" fill="#7a4922"/>
      <path id="Trazado_127912" data-name="Trazado 127912" d="M10.042,29.7v-.355a10.717,10.717,0,0,0-1.8-5.945,8.741,8.741,0,0,0,2.352-4.285l.048-.215a4.5,4.5,0,0,0,2.7.9h.3v1.8l.465.93a1.35,1.35,0,0,1-.253,1.558L12.742,25.2l.9,2.7Z" fill="#fdc9a6"/>
      <path id="Trazado_127913" data-name="Trazado 127913" d="M13.642,27.9h3.6a2.7,2.7,0,0,1,2.7,2.7l3.6,5.4-.427.205A7.473,7.473,0,0,0,19.042,41.4l-9-11.7Z" fill="#faa6b2"/>
      <path id="Trazado_127914" data-name="Trazado 127914" d="M17.242,45l-3.6,9.9h3.6l2.7-6.3h9.9l2.7,6.3h3.6l-3.6-9.9Z" fill="#a3612d"/>
      <path id="Trazado_127915" data-name="Trazado 127915" d="M9.746,29.6l4.121,5.5a2.25,2.25,0,0,0,1.8.9h9.225a1.35,1.35,0,0,0,1.35-1.35,2.25,2.25,0,0,0-2.25-2.25h-7.65l-2.66-3.991A3.165,3.165,0,0,0,11.048,27a1.628,1.628,0,0,0-1.3,2.6Z" fill="#fdc9a6"/>
      <path id="Trazado_127916" data-name="Trazado 127916" d="M37.8,18.9a5.4,5.4,0,1,1-.027-10.8H37.8a5.4,5.4,0,1,1,.027,10.8Z" fill="#ea2b2d"/>
      <path id="Trazado_127917" data-name="Trazado 127917" d="M54.787,30.6a3.6,3.6,0,0,0-4.317-4.4,4.5,4.5,0,0,0-7.31-.042,2.248,2.248,0,0,0-1.339.889A2.7,2.7,0,0,0,39.754,30.6Z" fill="#eae9e4"/>
      <path id="Trazado_127918" data-name="Trazado 127918" d="M30.6,22.5a2.7,2.7,0,0,0-2.262-2.664,3.6,3.6,0,0,0-6.625.87c-.037,0-.074-.006-.113-.006a1.8,1.8,0,0,0-1.8,1.8Z" fill="#eae9e4"/>
      <path id="Trazado_127919" data-name="Trazado 127919" d="M37.828,18.9A5.4,5.4,0,1,0,37.8,8.1h-.029A5.4,5.4,0,0,0,37.8,18.9ZM34.2,13.519A3.6,3.6,0,0,1,37.781,9.9H37.8a3.6,3.6,0,1,1,.018,7.2H37.8a3.6,3.6,0,0,1-3.6-3.581Z"/>
      <path id="Trazado_127920" data-name="Trazado 127920" d="M43.5,8.643a.9.9,0,0,0,.64-.267l1.9-1.919a.9.9,0,0,0-1.279-1.266l-1.9,1.919a.9.9,0,0,0,.64,1.533Z"/>
      <path id="Trazado_127921" data-name="Trazado 127921" d="M37.758,6.3h0a.9.9,0,0,0,.9-.9l-.014-2.7a.9.9,0,0,0-.9-.9h0a.9.9,0,0,0-.9.9l.014,2.7A.9.9,0,0,0,37.758,6.3Z"/>
      <path id="Trazado_127922" data-name="Trazado 127922" d="M31.41,8.442a.9.9,0,0,0,1.266-1.279l-1.919-1.9a.9.9,0,1,0-1.266,1.279Z"/>
      <path id="Trazado_127923" data-name="Trazado 127923" d="M27,14.456h0l2.7-.014a.9.9,0,1,0,0-1.8h0l-2.7.014a.9.9,0,0,0,0,1.8Z"/>
      <path id="Trazado_127924" data-name="Trazado 127924" d="M37.855,25.2h0a.9.9,0,0,0,.9-.9l-.014-2.7a.9.9,0,0,0-.9-.9h0a.9.9,0,0,0-.9.9l.014,2.7A.9.9,0,0,0,37.855,25.2Z"/>
      <path id="Trazado_127925" data-name="Trazado 127925" d="M42.917,18.565a.9.9,0,0,0,.007,1.273l1.919,1.9a.9.9,0,0,0,1.266-1.279l-1.919-1.9A.9.9,0,0,0,42.917,18.565Z"/>
      <path id="Trazado_127926" data-name="Trazado 127926" d="M45,13.463a.9.9,0,0,0,.9.9h0l2.7-.014a.9.9,0,0,0,0-1.8h0l-2.7.014a.9.9,0,0,0-.9.9Z"/>
      <path id="Trazado_127927" data-name="Trazado 127927" d="M40.726,6.921a.9.9,0,0,0,1.188-.456l.366-.822a.9.9,0,1,0-1.645-.731l-.366.822a.9.9,0,0,0,.457,1.188Z"/>
      <path id="Trazado_127928" data-name="Trazado 127928" d="M34.054,6.262a.9.9,0,1,0,1.68-.646l-.323-.84a.9.9,0,1,0-1.68.646Z"/>
      <path id="Trazado_127929" data-name="Trazado 127929" d="M29.211,10.665l.822.366a.9.9,0,1,0,.731-1.645l-.822-.366a.9.9,0,1,0-.731,1.645Z"/>
      <path id="Trazado_127930" data-name="Trazado 127930" d="M29.916,15.565l-.84.323a.9.9,0,1,0,.646,1.68l.84-.323a.9.9,0,0,0-.646-1.68Z"/>
      <path id="Trazado_127931" data-name="Trazado 127931" d="M33.686,20.535l-.366.822a.9.9,0,1,0,1.645.731l.366-.822a.9.9,0,1,0-1.645-.731Z"/>
      <path id="Trazado_127932" data-name="Trazado 127932" d="M40.383,20.221a.9.9,0,0,0-.518,1.163l.323.84a.9.9,0,1,0,1.68-.646l-.323-.84A.9.9,0,0,0,40.383,20.221Z"/>
      <path id="Trazado_127933" data-name="Trazado 127933" d="M45.657,17.98a.9.9,0,1,0,.731-1.645l-.822-.366a.9.9,0,1,0-.731,1.645Z"/>
      <path id="Trazado_127934" data-name="Trazado 127934" d="M45.878,9.432l-.84.323a.9.9,0,1,0,.646,1.68l.84-.323a.9.9,0,1,0-.646-1.68Z"/>
      <path id="Trazado_127935" data-name="Trazado 127935" d="M42.63,25.371a3.139,3.139,0,0,0-1.313.866A3.6,3.6,0,0,0,38.9,30.9a.9.9,0,0,0,.849.6H54.787a.9.9,0,0,0,.872-.676A4.5,4.5,0,0,0,51.3,25.2a4.453,4.453,0,0,0-.456.023,5.4,5.4,0,0,0-8.214.147Zm7.106,1.348a.9.9,0,0,0,.94.355A2.7,2.7,0,0,1,54,29.7H40.5a1.8,1.8,0,0,1,1.48-1.771.9.9,0,0,0,.573-.362,1.347,1.347,0,0,1,.8-.533.9.9,0,0,0,.532-.349,3.6,3.6,0,0,1,5.848.034Z"/>
      <path id="Trazado_127936" data-name="Trazado 127936" d="M19.8,23.4H30.6a.9.9,0,0,0,.9-.9,3.627,3.627,0,0,0-.19-1.163l1.432-1.447a.9.9,0,0,0-1.279-1.266l-1.171,1.183a3.577,3.577,0,0,0-1.391-.766,4.5,4.5,0,0,0-7.851.815A2.7,2.7,0,0,0,18.9,22.5.9.9,0,0,0,19.8,23.4Zm2.784-2.471a2.7,2.7,0,0,1,4.97-.651.9.9,0,0,0,.639.446,1.789,1.789,0,0,1,1.142.687.9.9,0,0,0,.074.189H21.814A.9.9,0,0,0,22.584,20.929Z"/>
      <path id="Trazado_127937" data-name="Trazado 127937" d="M54.9,54H46.942V52.2a.9.9,0,0,0-.615-.854l-2.393-.8L42.716,48.6H45a.9.9,0,0,0,.9-.9V45a.9.9,0,0,0-.485-.8l-3.168-1.649-3.553-8.527a4.1,4.1,0,0,0-5.19-2.277L27.089,34.08a3.154,3.154,0,0,0-3.1-2.58H21.624l-.793-1.19A3.6,3.6,0,0,0,17.242,27H14.291l-.519-1.557.719-.719a2.248,2.248,0,0,0,.421-2.6l-.37-.74V19.8a.9.9,0,0,0-.2-.559l2.62-2.824a.915.915,0,0,0,.089-.113,2.967,2.967,0,0,0-.37-3.733,2.933,2.933,0,0,0-2.09-.866h-.053a2.934,2.934,0,0,0-2.112.939L9.987,15.261a4.5,4.5,0,0,0-6.095,6.53L2.564,23.214a2.844,2.844,0,0,0,3.045,4.613,3.4,3.4,0,0,0,.429,1.1,2.715,2.715,0,0,0-.294.474,2.652,2.652,0,0,0,.3,2.818l10.178,12.94L13.012,54H2.7a.9.9,0,0,0,0,1.8H54.9a.9.9,0,0,0,0-1.8ZM34.119,33.439a2.3,2.3,0,0,1,2.914,1.279l3.679,8.829a.9.9,0,0,0,.415.452L44.1,45.546V46.8H41.773l-4.389-4.389a7.355,7.355,0,0,1-2.143-5.476A.9.9,0,0,0,34.423,36l-5.886-.535Zm-15.414,6.1-2.1-2.634h3.95A8.339,8.339,0,0,0,18.706,39.534Zm6.636-4.884a.45.45,0,0,1-.45.45H15.667a1.35,1.35,0,0,1-.614-.149l-4.587-5.886a.728.728,0,0,1,.582-1.165,2.26,2.26,0,0,1,1.884,1.009l2.66,3.991a.9.9,0,0,0,.749.4h7.65a1.351,1.351,0,0,1,1.35,1.35ZM7.559,27.965a1.643,1.643,0,0,1-.217-.819A18.413,18.413,0,0,0,6.5,21.633L9.64,18.271a2.782,2.782,0,0,1,.119.452l-.044.2a7.828,7.828,0,0,1-2.11,3.844A.9.9,0,0,0,7.493,23.9,9.755,9.755,0,0,1,8.917,27.27a2.429,2.429,0,0,0-.3.671,2.694,2.694,0,0,0-1.057.023Zm5.183-7.3V21.6a.9.9,0,0,0,.1.4l.465.929a.45.45,0,0,1-.084.52l-1.112,1.112a.9.9,0,0,0-.217.921l.256.767a4.071,4.071,0,0,0-1.1-.152,2.559,2.559,0,0,0-.551.061A11.517,11.517,0,0,0,9.37,23.508a9.617,9.617,0,0,0,1.841-3.248A5.455,5.455,0,0,0,12.742,20.666Zm6.3,9.934a.9.9,0,0,0,.151.5l.267.4H16.824l-1.8-2.7h2.218A1.8,1.8,0,0,1,19.042,30.6Zm-5.3-16.728a1.159,1.159,0,0,1,1.844,1.381l-3.248,3.5a3.626,3.626,0,0,1-.812-.347,4.6,4.6,0,0,0-.574-1.546ZM4.642,18.9a2.7,2.7,0,0,1,4.1-2.307L5.136,20.458A2.682,2.682,0,0,1,4.642,18.9Zm0,7.3a1.042,1.042,0,0,1-.762-1.753l1.181-1.266a16.581,16.581,0,0,1,.424,2.607l-.107.107a1.035,1.035,0,0,1-.736.305Zm2.721,3.995a.854.854,0,0,1,.784-.491.867.867,0,0,1,.681.328l9.51,11.933a.9.9,0,0,0,.7.339H30.921a16.1,16.1,0,0,0,.562,1.8h-13.8L7.462,31.11a.854.854,0,0,1-.1-.919ZM36.772,54l-1.484-4.08L39,53.633l.183.367ZM18.607,54l1.929-4.5h8.713L31.178,54Zm14.529,0L30.67,48.245a.9.9,0,0,0-.828-.546h-9.9a.9.9,0,0,0-.827.546L16.649,54H14.927l2.945-8.1H31.912L34.857,54ZM41.2,54l-.651-1.3a.9.9,0,0,0-.169-.234l-3.955-3.955a14.212,14.212,0,0,1-3.9-7.285.9.9,0,0,0-.883-.723v0c-.024,0-.047,0-.071,0H20.253a6.554,6.554,0,0,1,3.252-3.484l.242-.116,9.7.823a9.166,9.166,0,0,0,2.661,5.961l3.781,3.781a.925.925,0,0,0,.051.094l2.637,4.219a.9.9,0,0,0,.478.377l2.085.695V54Z"/>
    </g>
  </g>
</svg>
