<svg xmlns="http://www.w3.org/2000/svg" xmlns:xlink="http://www.w3.org/1999/xlink" width="54" height="54" viewBox="0 0 54 54">
  <defs>
    <clipPath id="clip-path">
      <rect id="Rectángulo_35848" data-name="Rectángulo 35848" width="54" height="54" transform="translate(-2659 3210)" fill="#fff" stroke="#707070" stroke-width="1"/>
    </clipPath>
  </defs>
  <g id="_124" data-name="124" transform="translate(2659 -3210)" clip-path="url(#clip-path)">
    <g id="padre" transform="translate(-2659 3210)">
      <g id="Grupo_93551" data-name="Grupo 93551">
        <path id="Trazado_127938" data-name="Trazado 127938" d="M42.781,53.209H11.219V37.869l11.927-2.192h7.71l11.927,2.192Z" fill="#f7f9fa"/>
        <path id="Trazado_127939" data-name="Trazado 127939" d="M30.855,35.677H28.541l11.927,2.192v15.34h2.314V37.869Z" fill="#e9edf1"/>
        <path id="Trazado_127940" data-name="Trazado 127940" d="M11.219,37.869l-2.737.874a6.429,6.429,0,0,0-4.409,5.217l-1.319,9.25h8.465Z" fill="#a2aee6"/>
        <path id="Trazado_127941" data-name="Trazado 127941" d="M8.9,38.608v14.6h2.314V37.869Z" fill="#8795de"/>
        <path id="Trazado_127942" data-name="Trazado 127942" d="M42.781,37.869l2.737.874a6.429,6.429,0,0,1,4.409,5.217l1.319,9.25H42.781V37.869Z" fill="#a2aee6"/>
        <path id="Trazado_127943" data-name="Trazado 127943" d="M49.927,43.959a6.429,6.429,0,0,0-4.409-5.217l-2.737-.874v.739l.423.135a6.429,6.429,0,0,1,4.409,5.217l1.319,9.25h2.314Z" fill="#8795de"/>
        <path id="Trazado_127944" data-name="Trazado 127944" d="M41.013,17.258H12.987V7.252A6.461,6.461,0,0,1,19.448.791H34.553a6.461,6.461,0,0,1,6.461,6.461V17.258Z" fill="#5d5360"/>
        <path id="Trazado_127945" data-name="Trazado 127945" d="M34.553.791H32.66a6.461,6.461,0,0,1,6.461,6.461V17.258h1.892V7.252A6.461,6.461,0,0,0,34.553.791Z" fill="#4b3f4e"/>
        <path id="Trazado_127946" data-name="Trazado 127946" d="M37.837,10.99V23.582a5.5,5.5,0,0,1-5.5,5.5H21.666a5.5,5.5,0,0,1-5.5-5.5V10.99a1.965,1.965,0,0,1,1.965-1.965h2.414a6.1,6.1,0,0,0,4.949,2.538h3.018a6.1,6.1,0,0,0,4.949-2.538h2.414a1.965,1.965,0,0,1,1.965,1.965Z" fill="#fed2a4"/>
        <g id="Grupo_93550" data-name="Grupo 93550">
          <path id="Trazado_127947" data-name="Trazado 127947" d="M35.872,9.025H33.558a1.965,1.965,0,0,1,1.965,1.965V23.582a5.5,5.5,0,0,1-5.5,5.5h2.314a5.5,5.5,0,0,0,5.5-5.5V10.99a1.965,1.965,0,0,0-1.965-1.965Z" fill="#ffbd86"/>
          <path id="Trazado_127948" data-name="Trazado 127948" d="M23.177,11.562h2.314a6.1,6.1,0,0,1-4.949-2.538H18.228A6.1,6.1,0,0,0,23.177,11.562Z" fill="#ffbd86"/>
        </g>
        <path id="Trazado_127949" data-name="Trazado 127949" d="M16.162,22.116H13.653A2.216,2.216,0,0,1,11.437,19.9V17.787a2.216,2.216,0,0,1,2.216-2.216h2.509Z" fill="#fed2a4"/>
        <path id="Trazado_127950" data-name="Trazado 127950" d="M13.848,15.571h2.314v6.546H13.848Z" fill="#ffbd86"/>
        <path id="Trazado_127951" data-name="Trazado 127951" d="M40.347,22.116H37.838V15.571h2.509a2.216,2.216,0,0,1,2.216,2.216V19.9A2.216,2.216,0,0,1,40.347,22.116Z" fill="#fed2a4"/>
        <path id="Trazado_127952" data-name="Trazado 127952" d="M40.347,15.571H38.033a2.216,2.216,0,0,1,2.216,2.216V19.9a2.216,2.216,0,0,1-2.216,2.216h2.314A2.216,2.216,0,0,0,42.563,19.9V17.787a2.216,2.216,0,0,0-2.216-2.216Z" fill="#ffbd86"/>
        <path id="Trazado_127953" data-name="Trazado 127953" d="M23.145,29.085h7.71v6.592L27,38.358l-3.855-2.681Z" fill="#fed2a4"/>
        <path id="Trazado_127954" data-name="Trazado 127954" d="M28.541,29.085v6.592l-2.7,1.876,1.157.8,3.855-2.681V29.085Z" fill="#ffbd86"/>
        <path id="Trazado_127955" data-name="Trazado 127955" d="M27,38.358l2.189,2.186a1.2,1.2,0,0,0,1.787-.1l3.3-4.137-3.426-.63Z" fill="#a6e7f0"/>
        <path id="Trazado_127956" data-name="Trazado 127956" d="M30.855,35.677l-.484.336,1.6.293L29.54,39.551a1.2,1.2,0,0,1-.9.45l.544.543a1.2,1.2,0,0,0,1.787-.1l3.3-4.137Z" fill="#6bd9e7"/>
        <path id="Trazado_127957" data-name="Trazado 127957" d="M27,38.358l-2.189,2.186a1.2,1.2,0,0,1-1.787-.1l-3.3-4.137,3.426-.63Z" fill="#a6e7f0"/>
        <path id="Trazado_127958" data-name="Trazado 127958" d="M23.145,35.677l-1.83.336,3.371,2.345L23.548,39.52a1.2,1.2,0,0,1-.989.342l.465.582a1.2,1.2,0,0,0,1.787.1L27,38.358Z" fill="#6bd9e7"/>
      </g>
      <g id="Grupo_93552" data-name="Grupo 93552">
        <path id="Trazado_127959" data-name="Trazado 127959" d="M52.029,53.1l-1.319-9.25a7.26,7.26,0,0,0-4.951-5.858c-.084-.021-2.712-.878-2.835-.9L31.646,35.018V32.8a.791.791,0,0,0-1.582,0v2.465L27,37.394l-3.064-2.131V29.875h8.4a6.3,6.3,0,0,0,6.294-6.294v-.674h1.719A3.011,3.011,0,0,0,43.354,19.9V17.787a3.009,3.009,0,0,0-1.55-2.629V10.946a.791.791,0,1,0-1.582,0V14.78H38.628V10.99a2.759,2.759,0,0,0-2.756-2.756H33.458a.791.791,0,0,0-.642.329,5.316,5.316,0,0,1-4.307,2.208H25.491a5.316,5.316,0,0,1-4.307-2.208.791.791,0,0,0-.642-.329H18.128a2.759,2.759,0,0,0-2.756,2.756v3.79H13.777V7.252a5.676,5.676,0,0,1,5.67-5.67H34.553a5.676,5.676,0,0,1,5.67,5.67.791.791,0,0,0,1.582,0A7.26,7.26,0,0,0,34.553,0H19.447A7.26,7.26,0,0,0,12.2,7.252v7.906a3.009,3.009,0,0,0-1.55,2.629V19.9a3.011,3.011,0,0,0,3.007,3.007h1.719v.674a6.3,6.3,0,0,0,6.294,6.294h.688v5.142L11.076,37.091c-.082.008-2.707.863-2.835.9A7.261,7.261,0,0,0,3.29,43.848L1.971,53.1a.791.791,0,0,0,.671.895A.8.8,0,0,0,2.755,54a.791.791,0,0,0,.782-.679l1.319-9.249A5.669,5.669,0,0,1,8.722,39.5l1.705-.545V53.209a.791.791,0,0,0,1.582,0V38.528L19.4,37.17l3.009,3.767a2.145,2.145,0,0,0,1.556.749A2,2,0,0,0,25.37,41.1l.839-.838v5.857a.791.791,0,0,0,1.582,0V40.266l.839.838a2.029,2.029,0,0,0,2.964-.166L34.6,37.17l7.387,1.358V53.209a.791.791,0,0,0,1.582,0V38.952l1.705.545a5.67,5.67,0,0,1,3.866,4.575l1.319,9.25a.791.791,0,0,0,.782.679.8.8,0,0,0,.113-.008.791.791,0,0,0,.671-.895Zm-13.4-36.736h1.718a1.427,1.427,0,0,1,1.425,1.425V19.9a1.427,1.427,0,0,1-1.425,1.425H38.629ZM15.371,21.325H13.653A1.427,1.427,0,0,1,12.228,19.9V17.787a1.427,1.427,0,0,1,1.425-1.425h1.718Zm1.583,2.256V10.99a1.176,1.176,0,0,1,1.174-1.174h2.024a6.9,6.9,0,0,0,5.339,2.538h3.018a6.9,6.9,0,0,0,5.339-2.538h2.024a1.176,1.176,0,0,1,1.174,1.174V23.582a4.717,4.717,0,0,1-4.712,4.712H21.666a4.717,4.717,0,0,1-4.712-4.712Zm7.3,16.4a.41.41,0,0,1-.61-.034l-2.48-3.1,1.8-.331,2.807,1.953Zm6.106-.034a.41.41,0,0,1-.61.034l-1.519-1.517,2.807-1.953,1.8.331Z"/>
        <path id="Trazado_127960" data-name="Trazado 127960" d="M37.258,48.819H34.281a.791.791,0,0,0,0,1.582h2.977a.791.791,0,0,0,0-1.582Z"/>
        <path id="Trazado_127961" data-name="Trazado 127961" d="M27,21.139h.727a.791.791,0,0,0,.064-1.58V18.3a.791.791,0,1,0-1.582,0v2.047A.791.791,0,0,0,27,21.139Z"/>
        <path id="Trazado_127962" data-name="Trazado 127962" d="M20.731,16.009a.791.791,0,0,0-.791.791v1.4a.791.791,0,0,0,1.582,0V16.8A.791.791,0,0,0,20.731,16.009Z"/>
        <path id="Trazado_127963" data-name="Trazado 127963" d="M33.269,18.988a.791.791,0,0,0,.791-.791V16.8a.791.791,0,0,0-1.582,0v1.4A.791.791,0,0,0,33.269,18.988Z"/>
        <path id="Trazado_127964" data-name="Trazado 127964" d="M27,25.545a4.591,4.591,0,0,0,3.953-2.226A.791.791,0,1,0,29.6,22.5a3.041,3.041,0,0,1-5.2,0,.791.791,0,0,0-1.352.821A4.592,4.592,0,0,0,27,25.545Z"/>
      </g>
    </g>
  </g>
</svg>
