<svg xmlns="http://www.w3.org/2000/svg" xmlns:xlink="http://www.w3.org/1999/xlink" width="54" height="54" viewBox="0 0 54 54">
  <defs>
    <clipPath id="clip-path">
      <rect id="Rectángulo_35850" data-name="Rectángulo 35850" width="54" height="54" transform="translate(-2659 3342)" fill="#fff" stroke="#707070" stroke-width="1"/>
    </clipPath>
  </defs>
  <g id="_125" data-name="125" transform="translate(2659 -3342)" clip-path="url(#clip-path)">
    <g id="mujer_1_" data-name="mujer (1)" transform="translate(-2659 3342)">
      <path id="Trazado_127965" data-name="Trazado 127965" d="M39.6,37.8H31.5L27,42.3l-4.5-4.5H14.4A5.4,5.4,0,0,0,9,43.2v9.9H45V43.2A5.4,5.4,0,0,0,39.6,37.8Z" fill="#2e2c44"/>
      <path id="Trazado_127966" data-name="Trazado 127966" d="M47.221,41.4a5.4,5.4,0,0,0-4.025-9h-.9a2.7,2.7,0,0,0,0-5.4h-.9V15.708A14.668,14.668,0,0,0,27.693.917,14.4,14.4,0,0,0,12.614,14.6q-.017.348-.017.7V27h-.9a2.7,2.7,0,1,0,0,5.4h-.9a5.4,5.4,0,0,0-5.4,5.4c0,2.836.821,5.157,3.6,5.378V45a3.6,3.6,0,0,0,3.6,3.6h4.5a5.4,5.4,0,0,0,0-10.8H41.4l2.7,2.7v.9h2.7" fill="#eaca65"/>
      <path id="Trazado_127967" data-name="Trazado 127967" d="M36.108,17.1a3.6,3.6,0,0,1-3.492-2.727L30.6,7.2l-1.848,6.492A4.5,4.5,0,0,1,24.387,17.1H17.1v5.4a9.892,9.892,0,0,0,5.4,8.811h0V37.8L27,42.3l4.5-4.5V31.311h0A9.892,9.892,0,0,0,36.9,22.5V17.1Z" fill="#f2dbc0"/>
      <path id="Trazado_127968" data-name="Trazado 127968" d="M8.1,53.1A.9.9,0,0,0,9,54H45a.9.9,0,0,0,.9-.9V43.2a6.307,6.307,0,0,0-6.3-6.3H32.4V31.839A10.8,10.8,0,0,0,37.8,22.5V18h.9V16.2H36.108a2.705,2.705,0,0,1-2.626-2.07L31.464,6.958A.9.9,0,0,0,30.6,6.3h0a.9.9,0,0,0-.866.653l-1.854,6.519a3.6,3.6,0,0,1-3.49,2.727H15.3V18h.9v4.5a10.8,10.8,0,0,0,5.4,9.338V37.8a.9.9,0,0,0,.264.636l4.5,4.5a.9.9,0,0,0,1.273,0L31.87,38.7H39.6a4.505,4.505,0,0,1,4.5,4.5v9H9.9v-.9H8.1v1.8ZM18,22.5V18h6.39a5.384,5.384,0,0,0,5.232-4.062l.976-3.433,1.15,4.087A4.489,4.489,0,0,0,36,17.992V22.5a9,9,0,0,1-18,0Zm9,18.527-3.6-3.6V32.67a10.6,10.6,0,0,0,7.2,0v4.757Z"/>
      <path id="Trazado_127969" data-name="Trazado 127969" d="M17.1,47.7H12.6A2.7,2.7,0,0,1,9.9,45H8.1a4.505,4.505,0,0,0,4.5,4.5h4.5a6.3,6.3,0,0,0,0-12.6H14.4v1.8h2.7a4.5,4.5,0,0,1,0,9Z"/>
      <path id="Trazado_127970" data-name="Trazado 127970" d="M45.186,31.827A3.584,3.584,0,0,0,42.3,26.1V15.708A15.487,15.487,0,0,0,27.735.018a15.3,15.3,0,0,0-16.02,14.544q-.018.369-.018.739V26.1a3.584,3.584,0,0,0-2.889,5.727A6.3,6.3,0,0,0,10.8,44.1h5.4V42.3H10.8a4.5,4.5,0,0,1,0-9h5.4V31.5H11.7a1.8,1.8,0,1,1,0-3.6h.9a.9.9,0,0,0,.9-.9V15.3A13.5,13.5,0,0,1,27,1.8q.328,0,.655.016A13.691,13.691,0,0,1,40.5,15.708V27a.9.9,0,0,0,.9.9h.9a1.8,1.8,0,0,1,0,3.6H37.8v1.8h5.4a4.5,4.5,0,0,1,3.354,7.5L47.892,42a6.3,6.3,0,0,0-2.706-10.17Z"/>
      <path id="Trazado_127971" data-name="Trazado 127971" d="M22.5,20.026A1.575,1.575,0,1,0,24.072,21.6,1.575,1.575,0,0,0,22.5,20.026ZM22.272,21.6a.225.225,0,1,1,.45,0C22.722,21.848,22.272,21.848,22.272,21.6Z"/>
      <path id="Trazado_127972" data-name="Trazado 127972" d="M31.5,23.176A1.575,1.575,0,1,0,29.922,21.6,1.575,1.575,0,0,0,31.5,23.176Zm0-1.8a.225.225,0,0,1,.225.225c0,.247-.45.247-.45,0A.225.225,0,0,1,31.5,21.376Z"/>
      <path id="Trazado_127973" data-name="Trazado 127973" d="M30.372,26.1h-1.35a2.025,2.025,0,0,1-4.05,0h-1.35a3.375,3.375,0,0,0,6.75,0Z"/>
    </g>
  </g>
</svg>
