<svg xmlns="http://www.w3.org/2000/svg" xmlns:xlink="http://www.w3.org/1999/xlink" width="54" height="54" viewBox="0 0 54 54">
  <defs>
    <clipPath id="clip-path">
      <rect id="Rectángulo_35851" data-name="Rectángulo 35851" width="54" height="54" transform="translate(-2659 3474)" fill="#fff" stroke="#707070" stroke-width="1"/>
    </clipPath>
  </defs>
  <g id="_126" data-name="126" transform="translate(2659 -3474)" clip-path="url(#clip-path)">
    <g id="pajaro" transform="translate(-2659 3474)">
      <path id="Trazado_127974" data-name="Trazado 127974" d="M45.879,28.324c3.153-1.362,8.382-6.367,7.148-9.221s-8.462-2.476-11.614-1.113-4.709,4.78-3.475,7.634S42.727,29.686,45.879,28.324Z" fill="#93cfe9"/>
      <path id="Trazado_127975" data-name="Trazado 127975" d="M45.879,28.324c3.153-1.362,8.382-6.367,7.148-9.221s-8.462-2.476-11.614-1.113-4.709,4.78-3.475,7.634S42.727,29.686,45.879,28.324Z" fill="#83cceb"/>
      <g id="Grupo_93553" data-name="Grupo 93553">
        <path id="Trazado_127976" data-name="Trazado 127976" d="M12.1,50.888h0a3.61,3.61,0,0,1-3.092-5.472l5.664-9.4h5.842L15.449,48.624A3.61,3.61,0,0,1,12.1,50.888Z" fill="#93cfe9"/>
        <path id="Trazado_127977" data-name="Trazado 127977" d="M20.222,50.888h0a3.841,3.841,0,0,1-3.565-5.272l3.856-9.6h5.842L23.988,47.8A3.841,3.841,0,0,1,20.222,50.888Z" fill="#93cfe9"/>
        <path id="Trazado_127978" data-name="Trazado 127978" d="M28.221,50.888h0a3.975,3.975,0,0,1-3.9-4.758l2.031-10.118H32.2v10.9A3.975,3.975,0,0,1,28.221,50.888Z" fill="#93cfe9"/>
      </g>
      <g id="Grupo_93554" data-name="Grupo 93554" opacity="0.15">
        <path id="Trazado_127979" data-name="Trazado 127979" d="M12.1,50.888h0a3.61,3.61,0,0,1-3.092-5.472l5.664-9.4h5.842L15.449,48.624A3.61,3.61,0,0,1,12.1,50.888Z" fill="#83cceb"/>
        <path id="Trazado_127980" data-name="Trazado 127980" d="M20.222,50.888h0a3.841,3.841,0,0,1-3.565-5.272l3.856-9.6h5.842L23.988,47.8A3.841,3.841,0,0,1,20.222,50.888Z" fill="#83cceb"/>
        <path id="Trazado_127981" data-name="Trazado 127981" d="M28.221,50.888h0a3.975,3.975,0,0,1-3.9-4.758l2.031-10.118H32.2v10.9A3.975,3.975,0,0,1,28.221,50.888Z" fill="#83cceb"/>
      </g>
      <path id="Trazado_127982" data-name="Trazado 127982" d="M44.1,26.157C44.1,15,36.445,5.954,27,5.954S9.9,15,9.9,26.157,17.555,40.918,27,40.918,44.1,37.315,44.1,26.157Z" fill="#aeeaf9"/>
      <g id="Grupo_93555" data-name="Grupo 93555">
        <ellipse id="Elipse_4913" data-name="Elipse 4913" cx="3.066" cy="2.442" rx="3.066" ry="2.442" transform="translate(19.45 19.424)" fill="#ffa6bb"/>
        <ellipse id="Elipse_4914" data-name="Elipse 4914" cx="3.066" cy="2.442" rx="3.066" ry="2.442" transform="translate(36.071 19.424)" fill="#ffa6bb"/>
      </g>
      <path id="Trazado_127983" data-name="Trazado 127983" d="M30.391,17.436l-2,2.411a.988.988,0,0,0,.111,1.374l1.659,1.448a1.009,1.009,0,0,0,1.327,0l1.659-1.448a.988.988,0,0,0,.111-1.374l-2-2.411A.566.566,0,0,0,30.391,17.436Z" fill="#fbdd56"/>
      <path id="Trazado_127984" data-name="Trazado 127984" d="M30.7,17.247a.561.561,0,0,0-.308.19l-2,2.411a.988.988,0,0,0,.111,1.374l1.659,1.448A1.008,1.008,0,0,0,31.3,22.8C29.648,22.046,30.291,18.47,30.7,17.247Z" opacity="0.1"/>
      <path id="Trazado_127985" data-name="Trazado 127985" d="M26.324,5.971C17.193,6.39,9.9,15.267,9.9,26.157c0,11.158,7.656,14.761,17.1,14.761a25.9,25.9,0,0,0,7.858-1.08C13.4,35.424,20.923,10.884,26.324,5.971Z" opacity="0.05"/>
      <g id="Grupo_93556" data-name="Grupo 93556">
        <path id="Trazado_127986" data-name="Trazado 127986" d="M25.29,43.748h0a2,2,0,0,1-2-2V39.533a2,2,0,0,1,2-2h0a2,2,0,0,1,2,2v2.213A2,2,0,0,1,25.29,43.748Z" fill="#fbdd56"/>
        <path id="Trazado_127987" data-name="Trazado 127987" d="M35.683,43.748h0a2,2,0,0,0,2-2V39.533a2,2,0,0,0-2-2h0a2,2,0,0,0-2,2v2.213A2,2,0,0,0,35.683,43.748Z" fill="#fbdd56"/>
      </g>
      <path id="Trazado_127988" data-name="Trazado 127988" d="M8.121,28.324C4.968,26.961-.261,21.956.973,19.1s8.462-2.476,11.614-1.113,4.709,4.78,3.475,7.634S11.274,29.686,8.121,28.324Z" fill="#93cfe9"/>
      <path id="Trazado_127989" data-name="Trazado 127989" d="M8.121,28.324C4.968,26.961-.261,21.956.973,19.1s8.462-2.476,11.614-1.113,4.709,4.78,3.475,7.634S11.274,29.686,8.121,28.324Z" fill="#83cceb"/>
      <path id="Trazado_127990" data-name="Trazado 127990" d="M35.1,19.209a.791.791,0,1,0,1.582,0,.668.668,0,1,1,1.337,0,.791.791,0,1,0,1.582,0,2.251,2.251,0,1,0-4.5,0Zm-13.046,0a.791.791,0,0,0,1.582,0,.668.668,0,1,1,1.337,0,.791.791,0,0,0,1.582,0,2.251,2.251,0,1,0-4.5,0Zm31.7-.42c-.624-1.444-2.364-2.331-5.031-2.567a18.927,18.927,0,0,0-5.754.441,21.88,21.88,0,0,0-1.982-3.6.791.791,0,1,0-1.308.89A21.86,21.86,0,0,1,43.31,26.157c0,5.376-1.868,9.243-5.553,11.509a2.791,2.791,0,0,0-4.867,1.868v.013a26.423,26.423,0,0,1-4.807.562v-.575a2.793,2.793,0,1,0-5.585,0V39.8a15.439,15.439,0,0,1-7.542-3.048A11.538,11.538,0,0,1,11,29.673a7.033,7.033,0,0,0,2.07-.369,6.05,6.05,0,0,0,3.623-8.384A7.309,7.309,0,0,0,12.9,17.263q-.163-.07-.337-.137a18.647,18.647,0,0,1,5.62-7.3A14.42,14.42,0,0,1,27,6.745a14.578,14.578,0,0,1,9.979,4.06.791.791,0,1,0,1.073-1.163A16.142,16.142,0,0,0,27.1,5.164,5.682,5.682,0,0,0,21.15,2.415a.791.791,0,1,0,.285,1.556,4.106,4.106,0,0,1,3.8,1.294,16.176,16.176,0,0,0-8.014,3.306,20.269,20.269,0,0,0-6.183,8.09,19,19,0,0,0-5.009-.487C2.977,16.294.923,17.222.246,18.789s.054,3.7,2.059,6a17.181,17.181,0,0,0,5.5,4.258,7.684,7.684,0,0,0,1.557.484,13.482,13.482,0,0,0,3.69,7.631l-2.414,4.009a.791.791,0,1,0,1.355.816l2.27-3.768A17.418,17.418,0,0,0,22.5,41.4v.342a2.793,2.793,0,1,0,5.585,0v-.055a30.5,30.5,0,0,0,3.323-.274v5.5a3.184,3.184,0,1,1-6.306-.627l.1-.515a.791.791,0,0,0-1.551-.311l-.439,2.187a3.059,3.059,0,0,1-2.99,2.45,3.05,3.05,0,0,1-2.83-4.187.791.791,0,1,0-1.468-.59l-1.208,3.008a2.819,2.819,0,1,1-5.03-2.5l.179-.3a.791.791,0,1,0-1.355-.816l-.179.3a4.4,4.4,0,1,0,7.758,4.13,4.631,4.631,0,0,0,8.094.307,4.854,4.854,0,0,0,.351.488,4.767,4.767,0,0,0,8.454-3.021V42.477a2.792,2.792,0,0,0,5.488-.73V39.533a2.805,2.805,0,0,0-.034-.432,12.9,12.9,0,0,0,6.2-9.57,7.6,7.6,0,0,0,1.554-.482,17.183,17.183,0,0,0,5.5-4.258C53.7,22.488,54.431,20.356,53.754,18.789ZM10.2,28.063a.79.79,0,0,0-.093-.011A6.032,6.032,0,0,1,8.435,27.6,15.734,15.734,0,0,1,3.5,23.753c-1.537-1.767-2.21-3.388-1.8-4.337s2.052-1.57,4.392-1.661q.3-.012.605-.011a17.027,17.027,0,0,1,4.576.618l.023.007a8.76,8.76,0,0,1,.977.347,5.731,5.731,0,0,1,2.976,2.859,4.469,4.469,0,0,1-2.692,6.231A5.53,5.53,0,0,1,10.2,28.063ZM26.5,41.746a1.21,1.21,0,1,1-2.421,0V39.533a1.21,1.21,0,1,1,2.421,0Zm10.393,0a1.21,1.21,0,0,1-2.421,0V39.533a1.21,1.21,0,0,1,2.421,0ZM50.5,23.753A15.731,15.731,0,0,1,45.565,27.6a6.056,6.056,0,0,1-.734.262q.061-.828.061-1.7a24.08,24.08,0,0,0-1.34-8.008c3.551-.8,8.011-.442,8.749,1.267C52.711,20.365,52.039,21.986,50.5,23.753ZM30.827,16.44a1.353,1.353,0,0,0-1.045.491l-2,2.411a1.769,1.769,0,0,0,.2,2.475l1.659,1.448a1.806,1.806,0,0,0,2.367,0l1.659-1.448a1.769,1.769,0,0,0,.2-2.475l-2-2.412A1.353,1.353,0,0,0,30.827,16.44Zm1.8,4.186L30.97,22.074a.218.218,0,0,1-.286,0l-1.659-1.448A.2.2,0,0,1,29,20.353l1.824-2.2,1.824,2.2A.2.2,0,0,1,32.629,20.626Z"/>
    </g>
  </g>
</svg>
