<svg xmlns="http://www.w3.org/2000/svg" xmlns:xlink="http://www.w3.org/1999/xlink" width="54" height="54" viewBox="0 0 54 54">
  <defs>
    <clipPath id="clip-path">
      <rect id="Rectángulo_35852" data-name="Rectángulo 35852" width="54" height="54" transform="translate(-2659 3606)" fill="#fff" stroke="#707070" stroke-width="1"/>
    </clipPath>
  </defs>
  <g id="_127" data-name="127" transform="translate(2659 -3606)" clip-path="url(#clip-path)">
    <g id="masala-papad" transform="translate(-2659 3606)">
      <circle id="Elipse_4915" data-name="Elipse 4915" cx="26.201" cy="26.201" r="26.201" transform="translate(0.798 0.799)" fill="#ffe4cc"/>
      <path id="Trazado_127991" data-name="Trazado 127991" d="M45.527,8.474A26.123,26.123,0,0,0,37.29,2.9,26.209,26.209,0,0,1,2.9,37.29,26.2,26.2,0,1,0,45.527,8.474Z" fill="#ffd8c7"/>
      <circle id="Elipse_4916" data-name="Elipse 4916" cx="19.172" cy="19.172" r="19.172" transform="translate(7.828 7.829)" fill="#fff0e3"/>
      <path id="Trazado_127992" data-name="Trazado 127992" d="M40.556,13.444q-.574-.574-1.184-1.088A26.192,26.192,0,0,1,12.356,39.373q.515.608,1.088,1.183A19.171,19.171,0,1,0,40.556,13.444Z" fill="#ffe8de"/>
      <circle id="Elipse_4917" data-name="Elipse 4917" cx="11.585" cy="11.585" r="11.585" transform="translate(4.944 14.51)" fill="#ff5331"/>
      <path id="Trazado_127993" data-name="Trazado 127993" d="M15.019,28.805a4.109,4.109,0,0,1,0-5.783V17.393a8.672,8.672,0,0,0,0,17.041V28.805Z" fill="#e5281a"/>
      <circle id="Elipse_4918" data-name="Elipse 4918" cx="0.844" cy="0.844" r="0.844" transform="translate(19.573 20.367)"/>
      <circle id="Elipse_4919" data-name="Elipse 4919" cx="0.844" cy="0.844" r="0.844" transform="translate(21.261 23.217)"/>
      <circle id="Elipse_4920" data-name="Elipse 4920" cx="0.844" cy="0.844" r="0.844" transform="translate(21.261 26.593)"/>
      <circle id="Elipse_4921" data-name="Elipse 4921" cx="0.844" cy="0.844" r="0.844" transform="translate(19.573 29.294)"/>
      <circle id="Elipse_4922" data-name="Elipse 4922" cx="0.844" cy="0.844" r="0.844" transform="translate(11.488 29.102)" fill="#e3b361"/>
      <path id="Trazado_127994" data-name="Trazado 127994" d="M28.1,26.064a11.574,11.574,0,0,0-5.141-9.629l-15.3,17.09A11.585,11.585,0,0,0,28.1,26.064Z" fill="#ef4b30"/>
      <path id="Trazado_127995" data-name="Trazado 127995" d="M15.019,34.434V28.805a3.708,3.708,0,0,1-1.134-2.192l-4.118,4.6A8.673,8.673,0,0,0,15.019,34.434Z" fill="#d31e1a"/>
      <path id="Trazado_127996" data-name="Trazado 127996" d="M16.529,14.51a11.561,11.561,0,0,0-3.89.67,11.591,11.591,0,0,0,14.8,14.828,11.591,11.591,0,0,0-10.907-15.5Z" fill="#ef4b30"/>
      <path id="Trazado_127997" data-name="Trazado 127997" d="M13.855,25.442a3.764,3.764,0,0,1,1.164-2.419V17.393A8.624,8.624,0,0,0,11.972,18.6c-.007.163-.011.327-.011.491A11.53,11.53,0,0,0,13.855,25.442Z" fill="#d31e1a"/>
      <circle id="Elipse_4923" data-name="Elipse 4923" cx="11.585" cy="11.585" r="11.585" transform="translate(13.719 5.75)" fill="#ff5331"/>
      <g id="Grupo_93557" data-name="Grupo 93557">
        <path id="Trazado_127998" data-name="Trazado 127998" d="M23.794,20.045A3.871,3.871,0,0,1,22.6,17.154a3.871,3.871,0,0,1,1.189-2.891V8.633a8.672,8.672,0,0,0,0,17.041V20.045Z" fill="#e5281a"/>
        <path id="Trazado_127999" data-name="Trazado 127999" d="M26.678,8.575V14a3.724,3.724,0,0,1,1.53,3.151,3.724,3.724,0,0,1-1.53,3.151v5.428a8.673,8.673,0,0,0,0-17.158Z" fill="#e5281a"/>
      </g>
      <circle id="Elipse_4924" data-name="Elipse 4924" cx="0.844" cy="0.844" r="0.844" transform="translate(28.347 11.607)" fill="#e3b361"/>
      <circle id="Elipse_4925" data-name="Elipse 4925" cx="0.844" cy="0.844" r="0.844" transform="translate(30.036 14.458)"/>
      <circle id="Elipse_4926" data-name="Elipse 4926" cx="0.844" cy="0.844" r="0.844" transform="translate(30.036 17.832)"/>
      <circle id="Elipse_4927" data-name="Elipse 4927" cx="0.844" cy="0.844" r="0.844" transform="translate(28.347 20.533)"/>
      <circle id="Elipse_4928" data-name="Elipse 4928" cx="0.844" cy="0.844" r="0.844" transform="translate(20.263 20.342)"/>
      <path id="Trazado_128000" data-name="Trazado 128000" d="M43.144,41.093h0a21.016,21.016,0,0,1-29.676,1.635L8.875,38.615A1.71,1.71,0,0,1,8.742,36.2L34.5,7.437A1.71,1.71,0,0,1,36.916,7.3l4.593,4.114A21.016,21.016,0,0,1,43.144,41.093Z" fill="#f7c96f"/>
      <path id="Trazado_128001" data-name="Trazado 128001" d="M31.151,7.333,16.005,24.246A11.585,11.585,0,1,0,31.151,7.333Z" fill="#ef4b30"/>
      <g id="Grupo_93558" data-name="Grupo 93558">
        <path id="Trazado_128002" data-name="Trazado 128002" d="M34.079,17.154A8.67,8.67,0,0,0,29.3,9.4l-2.62,2.925V14a3.724,3.724,0,0,1,1.53,3.151,3.724,3.724,0,0,1-1.53,3.151v5.428A8.674,8.674,0,0,0,34.079,17.154Z" fill="#d31e1a"/>
        <path id="Trazado_128003" data-name="Trazado 128003" d="M18.13,21.873a8.68,8.68,0,0,0,5.663,3.8V20.045A3.871,3.871,0,0,1,22.6,17.154c0-.1,0-.193.01-.288Z" fill="#d31e1a"/>
      </g>
      <path id="Trazado_128004" data-name="Trazado 128004" d="M39.85,37.821l-.505.564A20.637,20.637,0,0,1,10.2,39.991h0a1.508,1.508,0,0,1-.117-2.129L36.115,8.8a1.508,1.508,0,0,1,2.129-.117h0A20.637,20.637,0,0,1,39.85,37.821Z" fill="#efbb60"/>
      <path id="Trazado_128005" data-name="Trazado 128005" d="M38.339,36.31l-.505.564A20.637,20.637,0,0,1,8.693,38.48h0a1.508,1.508,0,0,1-.117-2.129L34.6,7.286a1.508,1.508,0,0,1,2.129-.117h0A20.637,20.637,0,0,1,38.339,36.31Z" fill="#fede7a"/>
      <g id="Grupo_93559" data-name="Grupo 93559">
        <path id="Trazado_128006" data-name="Trazado 128006" d="M34.96,23H33.119a.411.411,0,0,1-.411-.411V20.753a.411.411,0,0,1,.411-.411H34.96a.411.411,0,0,1,.411.411v1.841A.411.411,0,0,1,34.96,23Z" fill="#f8accc"/>
        <path id="Trazado_128007" data-name="Trazado 128007" d="M25.323,28.038l-.92-1.594a.411.411,0,0,1,.151-.562l1.594-.92a.411.411,0,0,1,.562.151l.92,1.594a.411.411,0,0,1-.151.562l-1.594.92A.411.411,0,0,1,25.323,28.038Z" fill="#f8accc"/>
        <path id="Trazado_128008" data-name="Trazado 128008" d="M30.379,44.984l.14-1.835a.411.411,0,0,1,.441-.379l1.835.14a.411.411,0,0,1,.379.441l-.14,1.835a.411.411,0,0,1-.441.379l-1.835-.14A.411.411,0,0,1,30.379,44.984Z" fill="#f8accc"/>
      </g>
      <path id="Trazado_128009" data-name="Trazado 128009" d="M33.123,43.119a.41.41,0,0,0-.327-.209l-1.835-.14a.411.411,0,0,0-.441.379l-.082,1.07A20.565,20.565,0,0,0,33.123,43.119Z" fill="#efa8c9"/>
      <path id="Trazado_128010" data-name="Trazado 128010" d="M39.436,36.675l.14-1.835a.411.411,0,0,1,.441-.379l1.835.14a.411.411,0,0,1,.379.441l-.14,1.835a.411.411,0,0,1-.441.379l-1.835-.14A.411.411,0,0,1,39.436,36.675Z" fill="#f8accc"/>
      <path id="Trazado_128011" data-name="Trazado 128011" d="M42.132,34.742a.409.409,0,0,0-.28-.141l-1.835-.14a.411.411,0,0,0-.441.379l-.14,1.835a.411.411,0,0,0,.379.441l.6.046A20.693,20.693,0,0,0,42.132,34.742Z" fill="#efa8c9"/>
      <path id="Trazado_128012" data-name="Trazado 128012" d="M43.242,27.392l.14-1.835a.411.411,0,0,1,.441-.379l1.835.14a.411.411,0,0,1,.379.441l-.14,1.835a.411.411,0,0,1-.441.379l-1.835-.14A.411.411,0,0,1,43.242,27.392Z" fill="#f8accc"/>
      <path id="Trazado_128013" data-name="Trazado 128013" d="M43.824,25.178a.411.411,0,0,0-.441.379l-.14,1.835a.411.411,0,0,0,.379.441l1.13.086a20.689,20.689,0,0,0,.327-2.646Z" fill="#efa8c9"/>
      <g id="Grupo_93560" data-name="Grupo 93560">
        <path id="Trazado_128014" data-name="Trazado 128014" d="M26.716,37.039l.14-1.835a.411.411,0,0,1,.441-.379l1.835.14a.411.411,0,0,1,.379.441l-.14,1.835a.411.411,0,0,1-.441.379L27.1,37.48A.411.411,0,0,1,26.716,37.039Z" fill="#f8accc"/>
        <path id="Trazado_128015" data-name="Trazado 128015" d="M33.815,28.76l1.423-1.168a.411.411,0,0,1,.579.057l1.168,1.423a.411.411,0,0,1-.057.579L35.5,30.818a.411.411,0,0,1-.579-.057l-1.168-1.423A.411.411,0,0,1,33.815,28.76Z" fill="#f8accc"/>
      </g>
      <path id="Trazado_128016" data-name="Trazado 128016" d="M28.483,20.213a2.651,2.651,0,0,0-1.32-1.415,2.656,2.656,0,0,0,.14-2.263l-.559-1.406a.175.175,0,0,0-.227-.1l-1.749.7a2.656,2.656,0,0,0-1.547,1.648,2.649,2.649,0,0,0-1.662.1l-1.749.7a.175.175,0,0,0-.1.227L20.27,19.8a2.662,2.662,0,0,0,3.457,1.49l.1-.041a2.661,2.661,0,0,0,3.366,1.29l1.912-.76Z" fill="#49bc6e"/>
      <path id="Trazado_128017" data-name="Trazado 128017" d="M25.407,18.287l-2.551.09a4.008,4.008,0,0,0-2.686,1.159l-.011-.012.111.279a2.662,2.662,0,0,0,3.457,1.49l.1-.041A2.657,2.657,0,0,0,25.377,22.6a4.018,4.018,0,0,0,.14-1.2Z" fill="#3da55d"/>
      <path id="Trazado_128018" data-name="Trazado 128018" d="M21.968,19.972a4.008,4.008,0,0,0-2.686,1.159,4.015,4.015,0,0,0-3.151-1.35l-2.286.08a.265.265,0,0,0-.255.274l.1,2.843a4.014,4.014,0,0,0,1.56,3.041,4.005,4.005,0,0,0-.7,2.417l.1,2.843a.265.265,0,0,0,.274.255l2.286-.08a4.023,4.023,0,0,0,3.879-4.162l-.006-.166a4.023,4.023,0,0,0,3.548-4.136l-.109-3.108Z" fill="#49bc6e"/>
      <path id="Trazado_128019" data-name="Trazado 128019" d="M46.091,7.909A26.994,26.994,0,0,0,34.049.933a.8.8,0,0,0-.416,1.543A25.439,25.439,0,1,1,29.318,1.7.8.8,0,0,0,29.463.113a27,27,0,1,0,16.628,7.8Z"/>
      <circle id="Elipse_4929" data-name="Elipse 4929" cx="0.844" cy="0.844" r="0.844" transform="translate(10.374 24.905)"/>
      <circle id="Elipse_4930" data-name="Elipse 4930" cx="0.844" cy="0.844" r="0.844" transform="translate(20.254 12.292)"/>
      <circle id="Elipse_4931" data-name="Elipse 4931" cx="0.844" cy="0.844" r="0.844" transform="translate(30.025 14.458)"/>
      <circle id="Elipse_4932" data-name="Elipse 4932" cx="0.844" cy="0.844" r="0.844" transform="translate(30.025 17.832)"/>
      <path id="Trazado_128020" data-name="Trazado 128020" d="M8.15,39.075q.352.315.716.613l4.06,3.636a21.652,21.652,0,0,0,14.526,5.565q.611,0,1.228-.034A21.815,21.815,0,0,0,42.032,10.822L37.438,6.709a2.55,2.55,0,0,0-.3-.232A2.3,2.3,0,0,0,34,6.753l-.881.984a12.384,12.384,0,0,0-19.786,6.39A12.418,12.418,0,0,0,5.771,19.94a.8.8,0,1,0,1.386.8A10.825,10.825,0,0,1,12.994,15.9a12.454,12.454,0,0,0-.082,1.3,9.467,9.467,0,0,0-2.485,15.874L9.412,34.209a10.71,10.71,0,0,1-3.679-8.114,10.839,10.839,0,0,1,.285-2.475.8.8,0,0,0-1.555-.365,12.444,12.444,0,0,0-.327,2.84,12.3,12.3,0,0,0,4.211,9.3l-.376.42A2.309,2.309,0,0,0,8.15,39.075Zm8-18.5a3.218,3.218,0,0,1,2.525,1.083.8.8,0,0,0,1.159.037,3.209,3.209,0,0,1,2.152-.929l1.752-.062.053,1.5s0,.009,0,.013l.028.794a3.24,3.24,0,0,1-2.843,3.314.8.8,0,0,0-.705.821l.006.166a3.228,3.228,0,0,1-3.109,3.336l-1.752.062-.032-.9a.8.8,0,0,0-.014-.407l-.035-1a3.2,3.2,0,0,1,.563-1.936.8.8,0,0,0-.169-1.084,3.218,3.218,0,0,1-1.25-2.437L14.4,20.641Zm1.372-3.425a7.877,7.877,0,0,1,5.462-7.5V13.93a4.692,4.692,0,0,0-1.154,2.629,3.5,3.5,0,0,0-.578.173l-.421.167a.844.844,0,1,0-1.5.616.976.976,0,0,0-.375,1.177l.5,1.265c-.052.034-.1.069-.155.1A4.8,4.8,0,0,0,17.8,19.23,7.88,7.88,0,0,1,17.522,17.154ZM27.466,13.6V9.556a7.792,7.792,0,0,1,2.775,1.393l-.674.753a.843.843,0,0,0-1.089,1.216l-.794.887C27.614,13.734,27.541,13.666,27.466,13.6ZM26.222,16l.329.827a1.859,1.859,0,0,1-.1,1.585.8.8,0,0,0,.354,1.1,1.858,1.858,0,0,1,.924.99l.329.827L26.89,21.8a1.846,1.846,0,0,1-1.517-.063l-.066-1.884a.8.8,0,0,0-.826-.77l-2.551.09h0a4.827,4.827,0,0,0-1,.142l-.252-.634,1.169-.465a1.846,1.846,0,0,1,1.163-.07.8.8,0,0,0,.964-.524,1.86,1.86,0,0,1,1.083-1.154ZM47.665,25.96A20.219,20.219,0,0,1,15.573,43.414a21.358,21.358,0,0,0,6.857,1.13,21.646,21.646,0,0,0,3.262-.248.8.8,0,0,0-.241-1.579A19.78,19.78,0,0,1,9.883,38.454L9.4,38.02a.913.913,0,0,1-.071-1.287l2.8-3.13a.8.8,0,0,0,.135-.148l.008-.012L13.9,31.626a1.064,1.064,0,0,0,1,.707h.038l2.286-.08a4.8,4.8,0,0,0,3.1-1.276.843.843,0,0,0,.888-1.1,4.8,4.8,0,0,0,.6-1.647.843.843,0,0,0,1.121-.887,4.839,4.839,0,0,0,.756-.523l.012.024.92,1.594h0a1.211,1.211,0,0,0,1.653.443l1.594-.92a1.211,1.211,0,0,0,.443-1.653l-.92-1.594a1.21,1.21,0,0,0-1.653-.443l-.547.316a4.756,4.756,0,0,0,.218-1.153,3.5,3.5,0,0,0,.8.094,3.443,3.443,0,0,0,1.272-.242l1.912-.76a.8.8,0,0,0,.5-.695.844.844,0,0,0-.333-1.207c-.026-.013-.052-.025-.079-.035l-.266-.67a3.451,3.451,0,0,0-1.072-1.438,3.449,3.449,0,0,0-.109-2.24l-.109-.275,7.16-7.995a.911.911,0,0,1,1.127-.185A19.707,19.707,0,0,1,42.764,21.45a20.04,20.04,0,0,1-.16,3.871,1.2,1.2,0,0,0-.028.175l0,.027a19.628,19.628,0,0,1-3.4,8.441,1.209,1.209,0,0,0-.312.429q-.533.713-1.132,1.385l-.505.564a19.849,19.849,0,0,1-8.3,5.519.8.8,0,1,0,.52,1.51c.112-.038.222-.08.333-.121l-.128,1.674h0a1.211,1.211,0,0,0,1.114,1.3l1.835.14q.047,0,.094,0a1.21,1.21,0,0,0,1.2-1.118l.063-.831a.8.8,0,1,0,.079-1.145,1.211,1.211,0,0,0-1.116-1.157l-.5-.038a21.508,21.508,0,0,0,5.983-4.669l.274-.306a1.211,1.211,0,0,0,1.051.812l1.835.14q.047,0,.094,0a1.21,1.21,0,0,0,1.2-1.118l.14-1.835A1.21,1.21,0,0,0,41.9,33.8l-.676-.052a21.262,21.262,0,0,0,2.28-5.129l.042.005,1.835.14q.047,0,.094,0a1.21,1.21,0,0,0,1.2-1.118l.14-1.835a1.21,1.21,0,0,0-1.114-1.3L44.3,24.414a21.556,21.556,0,0,0-1.988-11.078A20.063,20.063,0,0,1,47.665,25.96ZM25.811,27.3l-.532-.922.922-.533.533.922ZM44.139,26l1.062.081-.081,1.062-1.062-.081Zm-3.806,9.283,1.062.081-.081,1.062-1.062-.081Zm-7.91,8.39-.081,1.062-1.062-.081.081-1.062ZM25.294,6.549A10.744,10.744,0,0,1,32.05,8.93l-.741.827a9.389,9.389,0,0,0-4.525-1.972.8.8,0,0,0-.915.79V14a.8.8,0,0,0,.1.383l-1.5.6a3.475,3.475,0,0,0-.47.232,2.36,2.36,0,0,1,.323-.356.8.8,0,0,0,.268-.6V8.633a.8.8,0,0,0-.947-.785A9.474,9.474,0,0,0,16.1,18.983h-.008l-1.452.051a10.9,10.9,0,0,1-.134-1.7,10.786,10.786,0,0,1,.239-2.262.8.8,0,0,0,.052-.23A10.8,10.8,0,0,1,25.294,6.549ZM8.747,25.914a7.894,7.894,0,0,1,4.264-7c.02.157.042.314.068.47l-.013.013a1.056,1.056,0,0,0-.285.762l.037,1.051a.844.844,0,1,0,.047,1.326l.016.466a4.806,4.806,0,0,0,1.342,3.171,4.785,4.785,0,0,0-.485,2.286l.031.878-.607.678c0-.025,0-.049,0-.075a.844.844,0,1,0-.678.827l-1,1.113A7.89,7.89,0,0,1,8.747,25.914Z"/>
      <path id="Trazado_128021" data-name="Trazado 128021" d="M33.109,23.8H34.95a1.211,1.211,0,0,0,1.21-1.21V20.753a1.211,1.211,0,0,0-1.21-1.21H33.109a1.211,1.211,0,0,0-1.21,1.21v1.841A1.211,1.211,0,0,0,33.109,23.8ZM33.5,21.14h1.065v1.065H33.5Z"/>
      <path id="Trazado_128022" data-name="Trazado 128022" d="M28.952,38.42A1.212,1.212,0,0,0,30.158,37.3l.14-1.835a1.211,1.211,0,0,0-1.114-1.3l-1.835-.14a1.211,1.211,0,0,0-1.3,1.114l-.14,1.835h0a1.211,1.211,0,0,0,1.114,1.3l1.835.14C28.89,38.419,28.922,38.42,28.952,38.42Zm-.358-1.626-1.062-.081.081-1.062,1.062.081Z"/>
      <path id="Trazado_128023" data-name="Trazado 128023" d="M34.72,26.975,33.3,28.142a1.211,1.211,0,0,0-.167,1.7L34.3,31.268a1.2,1.2,0,0,0,.817.436q.061.006.12.006A1.2,1.2,0,0,0,36,31.435l1.423-1.168a1.211,1.211,0,0,0,.167-1.7l-1.168-1.422a1.21,1.21,0,0,0-1.7-.167Zm-.409,2.4Zm.976.577-.676-.823.823-.676.676.823Z"/>
      <circle id="Elipse_4933" data-name="Elipse 4933" cx="0.799" cy="0.799" r="0.799" transform="translate(19.989 31.677)"/>
      <circle id="Elipse_4934" data-name="Elipse 4934" cx="0.799" cy="0.799" r="0.799" transform="translate(29.181 29.99)"/>
      <circle id="Elipse_4935" data-name="Elipse 4935" cx="0.799" cy="0.799" r="0.799" transform="translate(37.132 41.859)"/>
      <circle id="Elipse_4936" data-name="Elipse 4936" cx="0.799" cy="0.799" r="0.799" transform="translate(40.235 39.135)"/>
      <circle id="Elipse_4937" data-name="Elipse 4937" cx="0.799" cy="0.799" r="0.799" transform="translate(24.763 44.681)"/>
      <circle id="Elipse_4938" data-name="Elipse 4938" cx="0.799" cy="0.799" r="0.799" transform="translate(37.132 39.135)"/>
      <circle id="Elipse_4939" data-name="Elipse 4939" cx="0.799" cy="0.799" r="0.799" transform="translate(43.558 29.339)"/>
      <circle id="Elipse_4940" data-name="Elipse 4940" cx="0.799" cy="0.799" r="0.799" transform="translate(45.156 21.619)"/>
      <circle id="Elipse_4941" data-name="Elipse 4941" cx="0.799" cy="0.799" r="0.799" transform="translate(43.558 33.273)"/>
      <circle id="Elipse_4942" data-name="Elipse 4942" cx="0.799" cy="0.799" r="0.799" transform="translate(38.448 24.061)"/>
      <circle id="Elipse_4943" data-name="Elipse 4943" cx="0.799" cy="0.799" r="0.799" transform="translate(33.23 16.595)"/>
    </g>
  </g>
</svg>
