<svg xmlns="http://www.w3.org/2000/svg" xmlns:xlink="http://www.w3.org/1999/xlink" width="54" height="54" viewBox="0 0 54 54">
  <defs>
    <clipPath id="clip-path">
      <rect id="Rectángulo_35853" data-name="Rectángulo 35853" width="54" height="54" transform="translate(-2659 4119)" fill="#fff" stroke="#707070" stroke-width="1"/>
    </clipPath>
  </defs>
  <g id="_128" data-name="128" transform="translate(2659 -4119)" clip-path="url(#clip-path)">
    <g id="hombre" transform="translate(-2659 4119)">
      <g id="Grupo_93566" data-name="Grupo 93566">
        <path id="Trazado_128024" data-name="Trazado 128024" d="M33.578,37.227l-1.353-.552a.224.224,0,0,1-.138-.206V26.763H21.913v9.706a.224.224,0,0,1-.138.206l-1.473.6-1.692,1.067,4.146,2.409,10.392-1.289,1.289-1.457Z" fill="#f1b0a2"/>
        <path id="Trazado_128025" data-name="Trazado 128025" d="M21.732,2.124a4.5,4.5,0,0,0-1.542.5c-1.747.941-5.812,3.445-5.7,6.333l.345,9.3.439,3.165,7.216,3,.537-22.468Z" fill="#918291"/>
        <g id="XMLID_544_">
          <path id="Trazado_128026" data-name="Trazado 128026" d="M23.024,1.953l-1.292.172a4.5,4.5,0,0,0-1.542.5c-.445.24-1.042.582-1.681,1.005a8.756,8.756,0,0,0-.268,2.147v.138a7.925,7.925,0,0,0,4.517,7.157Z" fill="#685e68"/>
          <path id="Trazado_128027" data-name="Trazado 128027" d="M31.5,9.688h.969a3.876,3.876,0,0,1,3.876,3.876v6.467h2.767l.042-1.544.277-7.467a8.479,8.479,0,0,0-8.473-8.795H24.74a1.078,1.078,0,0,1-.681-.242L22.755.924a.248.248,0,0,0-.327.014,6.657,6.657,0,0,0-2.081,4.836v.138a5.827,5.827,0,0,0,5.827,5.826h5.462a.4.4,0,0,0,.322-.632l-.692-.952A.294.294,0,0,1,31.5,9.688Z" fill="#918291"/>
        </g>
        <g id="Grupo_93561" data-name="Grupo 93561">
          <path id="Trazado_128028" data-name="Trazado 128028" d="M16.865,23.077a2.84,2.84,0,1,1,0-5.68h3.549v5.68H16.865Z" fill="#eb9c8d"/>
          <path id="Trazado_128029" data-name="Trazado 128029" d="M36.923,23.077a2.84,2.84,0,0,0,0-5.68H32.282v5.68h4.641Z" fill="#eb9c8d"/>
          <path id="Trazado_128030" data-name="Trazado 128030" d="M21.913,26.764v9.706a.224.224,0,0,1-.138.206l-1.473.6-1.692,1.067,4.146,2.409.3-.037,1.4-.571a.224.224,0,0,0,.138-.206V37.682A1.375,1.375,0,0,1,26.1,36.317q.425.038.855.038a9.513,9.513,0,0,0,3.186-.547l.084-.029a12.313,12.313,0,0,0,1.862-.842V26.764Z" fill="#eb9c8d"/>
        </g>
        <path id="Trazado_128031" data-name="Trazado 128031" d="M36.349,23.932v.194a10.259,10.259,0,0,1-6.829,9.669l-.078.027a7.445,7.445,0,0,1-5-.011,10.259,10.259,0,0,1-6.79-9.654V14.691a4.6,4.6,0,0,1,2.408-4.041l1.6-.865.115-.06a5.813,5.813,0,0,0,4.406,2.013h5.462a.4.4,0,0,0,.322-.632l-.692-.952a.294.294,0,0,1,.238-.466h.969a3.875,3.875,0,0,1,3.876,3.875Z" fill="#f1b0a2"/>
        <g id="Grupo_93565" data-name="Grupo 93565">
          <path id="Trazado_128032" data-name="Trazado 128032" d="M29.718,26.764H23.943a.411.411,0,0,0-.411.411v.146a3.3,3.3,0,0,0,6.6,0v-.146A.411.411,0,0,0,29.718,26.764Z" fill="#fe99a0"/>
          <g id="XMLID_545_">
            <g id="Grupo_93564" data-name="Grupo 93564">
              <path id="Trazado_128033" data-name="Trazado 128033" d="M14.637,47.584H9.753L7.974,49.257c-.035.369-.053,2.458-.053,2.458a1.5,1.5,0,0,0,1.5,1.5h5.5V49.266Z" fill="#f1b0a2"/>
              <path id="Trazado_128034" data-name="Trazado 128034" d="M46.024,49.242,45.011,48H39.483l-.569,1.262v3.945h5.668a1.5,1.5,0,0,0,1.5-1.5s-.018-2.1-.054-2.473Z" fill="#f1b0a2"/>
              <path id="Trazado_128035" data-name="Trazado 128035" d="M12.841,51.179a11.943,11.943,0,0,1,.914-3.595h-4L7.974,49.257c-.035.369-.053,2.458-.053,2.458a1.5,1.5,0,0,0,1.5,1.5h3.376c.007-.631.023-1.769.048-2.032Z" fill="#eb9c8d"/>
              <path id="Trazado_128036" data-name="Trazado 128036" d="M38.629,39.288l-1.755-.716H35.755l-5.78,2.181-8.9-.978L19,38.572l-2,.049-1.633.667a11.969,11.969,0,0,0-7.4,9.969l.1.009h6.215a.629.629,0,0,1,.629.629v3.316h24v-2.6a1.34,1.34,0,0,1,1.34-1.34h5.5l.266-.024a11.97,11.97,0,0,0-7.4-9.954Z" fill="#5f99d7"/>
              <g id="Grupo_93562" data-name="Grupo 93562">
                <path id="Trazado_128037" data-name="Trazado 128037" d="M20.238,41.21l1.633-.667,1.317-.537-2.116-.233L19,38.572l-2,.049-1.633.667a11.969,11.969,0,0,0-7.4,9.969l.1.009h5.105a11.968,11.968,0,0,1,7.058-8.056Z" fill="#3c87d0"/>
              </g>
              <path id="Trazado_128038" data-name="Trazado 128038" d="M36.874,38.572l-1.161,1.055a13.553,13.553,0,0,1-17.592,0L17,38.621l3.3-1.345a10.493,10.493,0,0,0,13.276-.049Z" fill="#f9f7f8"/>
              <g id="Grupo_93563" data-name="Grupo 93563">
                <path id="Trazado_128039" data-name="Trazado 128039" d="M20.342,41.168l1.529-.624,2.721-1.181a9.864,9.864,0,0,1-4.29-2.086L17,38.621l1.116,1.006a13.525,13.525,0,0,0,2.222,1.541Z" fill="#efedef"/>
              </g>
            </g>
          </g>
        </g>
        <path id="Trazado_128040" data-name="Trazado 128040" d="M36.349,13.507a3.819,3.819,0,0,0-3.819-3.819H31.5a.294.294,0,0,0-.238.466l.692.952a.4.4,0,0,1-.322.632H26.174a5.813,5.813,0,0,1-4.406-2.013l-.115.06-1.6.865c-.058.031-.113.066-.17.1.093.12.188.239.288.355a7.929,7.929,0,0,0,6,2.741h5.462a2.894,2.894,0,0,0,1.551-.747,1.434,1.434,0,0,1,1.447-.213c.733.3,1.715.623,1.715.623Z" fill="#eb9c8d"/>
      </g>
      <g id="Grupo_93567" data-name="Grupo 93567">
        <path id="Trazado_128041" data-name="Trazado 128041" d="M38.927,38.557l-6.051-2.469V32.84a11.069,11.069,0,0,0,4.263-8.715V23.86a3.626,3.626,0,0,0,2.819-5.61l.268-7.2a9.229,9.229,0,0,0-1.332-5.14.79.79,0,1,0-1.351.819,7.654,7.654,0,0,1,1.1,4.263l-.221,5.944a3.6,3.6,0,0,0-1.287-.32V13.563A4.671,4.671,0,0,0,32.474,8.9H31.5a1.084,1.084,0,0,0-.876,1.721l.24.33H26.174a5.043,5.043,0,0,1-5.037-5.037V5.774a5.877,5.877,0,0,1,1.5-3.925l.919.747a1.877,1.877,0,0,0,1.18.419h6.222a7.632,7.632,0,0,1,4.486,1.446.79.79,0,0,0,.923-1.282,9.2,9.2,0,0,0-5.409-1.744H24.74a.292.292,0,0,1-.184-.065L23.088.177A.79.79,0,0,0,22.066.2a7.441,7.441,0,0,0-1.112,1.237A7.278,7.278,0,0,0,13.7,8.985l.334,8.989a3.627,3.627,0,0,0,2.83,5.893v.29a11.078,11.078,0,0,0,4.263,8.714v3.217l-6.051,2.469a12.681,12.681,0,0,0-4.318,2.909.79.79,0,0,0,1.131,1.1,11.112,11.112,0,0,1,3.783-2.549l1.145-.467.792.676a14.333,14.333,0,0,0,12.845,2.987.79.79,0,1,0-.39-1.531,12.753,12.753,0,0,1-11.43-2.658l-.171-.146,1.668-.681a11.195,11.195,0,0,0,13.632-.045l1.664.679-.225.192a12.773,12.773,0,0,1-2.107,1.459.79.79,0,1,0,.764,1.382,14.363,14.363,0,0,0,2.369-1.64l.846-.722,1.259.514a11.133,11.133,0,0,1,6.8,8.457H39.7V46.824a.79.79,0,0,0-1.579,0V53.21a.79.79,0,0,0,1.579,0V50.056h5.578c0,.105.006.211.006.317V53.21a.79.79,0,0,0,1.579,0V50.372a12.714,12.714,0,0,0-7.941-11.816Zm.046-18.319a2.053,2.053,0,0,1-1.834,2.038V18.2A2.053,2.053,0,0,1,38.973,20.237Zm-24.158,0a2.052,2.052,0,0,1,2.046-2.05v4.1A2.052,2.052,0,0,1,14.815,20.237Zm2.046-5.546v1.917a3.61,3.61,0,0,0-1.291.24l-.294-7.922A5.7,5.7,0,0,1,20.06,3.088a7.446,7.446,0,0,0-.5,2.686v.138a6.576,6.576,0,0,0,1.035,3.55l-.911.493a5.382,5.382,0,0,0-2.821,4.736Zm1.58,9.466V14.691a3.8,3.8,0,0,1,1.994-3.348l1.182-.64a6.593,6.593,0,0,0,4.558,1.825h5.462a1.188,1.188,0,0,0,.961-1.887l-.12-.164a3.09,3.09,0,0,1,3.082,3.086V24.126a9.486,9.486,0,0,1-6.3,8.924l-.078.028a6.665,6.665,0,0,1-4.472-.009A9.492,9.492,0,0,1,18.44,24.157Zm3.438,13.329.194-.079a1.009,1.009,0,0,0,.63-.937V33.9a10.987,10.987,0,0,0,1.47.655,8.25,8.25,0,0,0,5.534.011l.078-.028a11,11,0,0,0,1.512-.669v2.6a1.009,1.009,0,0,0,.63.937l.094.038a9.626,9.626,0,0,1-10.142.041Z"/>
        <path id="Trazado_128042" data-name="Trazado 128042" d="M26.894,24.817a2.175,2.175,0,0,0,2.172-2.172v-.518a.79.79,0,1,0-1.58,0v.518a.593.593,0,0,1-1.186,0v-.518a.79.79,0,1,0-1.58,0v.518a2.175,2.175,0,0,0,2.172,2.172Z"/>
        <path id="Trazado_128043" data-name="Trazado 128043" d="M29.718,25.974H23.943a1.2,1.2,0,0,0-1.2,1.2v.146a4.088,4.088,0,1,0,8.176,0v-.146A1.2,1.2,0,0,0,29.718,25.974ZM26.83,29.829a2.512,2.512,0,0,1-2.5-2.275h5A2.512,2.512,0,0,1,26.83,29.829Z"/>
        <path id="Trazado_128044" data-name="Trazado 128044" d="M22.08,20.932a.79.79,0,0,0,.79-.79v-.592a.79.79,0,1,0-1.58,0v.592A.79.79,0,0,0,22.08,20.932Z"/>
        <path id="Trazado_128045" data-name="Trazado 128045" d="M23.464,18.02a.79.79,0,1,0,.549-1.481,5.679,5.679,0,0,0-3.863-.027l-.066.023a.79.79,0,0,0,.528,1.489L20.677,18A4.1,4.1,0,0,1,23.464,18.02Z"/>
        <path id="Trazado_128046" data-name="Trazado 128046" d="M31.686,18.761a.79.79,0,0,0-.79.79v.592a.79.79,0,0,0,1.579,0v-.592A.79.79,0,0,0,31.686,18.761Z"/>
        <path id="Trazado_128047" data-name="Trazado 128047" d="M30.3,18.02A4.1,4.1,0,0,1,33.089,18l.066.023a.79.79,0,1,0,.527-1.489l-.066-.023a5.678,5.678,0,0,0-3.863.027A.79.79,0,1,0,30.3,18.02Z"/>
        <path id="Trazado_128048" data-name="Trazado 128048" d="M14.918,46.034a.79.79,0,0,0-.79.79v1.652H8.876a11.214,11.214,0,0,1,1.146-3.354.79.79,0,0,0-1.394-.742,12.8,12.8,0,0,0-1.5,5.993V53.21a.79.79,0,1,0,1.58,0V50.372c0-.106,0-.211,0-.317h5.411V53.21a.79.79,0,1,0,1.579,0V46.824a.79.79,0,0,0-.79-.79Z"/>
      </g>
    </g>
  </g>
</svg>
