<svg xmlns="http://www.w3.org/2000/svg" xmlns:xlink="http://www.w3.org/1999/xlink" width="54" height="54" viewBox="0 0 54 54">
  <defs>
    <clipPath id="clip-path">
      <rect id="Rect치ngulo_35864" data-name="Rect치ngulo 35864" width="54" height="54" transform="translate(-2659 5992)" fill="#fff" stroke="#707070" stroke-width="1"/>
    </clipPath>
  </defs>
  <g id="Enmascarar_grupo_233" data-name="Enmascarar grupo 233" transform="translate(2659 -5992)" clip-path="url(#clip-path)">
    <g id="_23-sweater" data-name="23-sweater" transform="translate(-2658.999 5992)">
      <path id="Trazado_128145" data-name="Trazado 128145" d="M20.039,23.835a1.912,1.912,0,0,1-.236,2.092,1.16,1.16,0,0,1-.3.228,1.16,1.16,0,0,1,.3.228,1.912,1.912,0,0,1,.236,2.092,1.912,1.912,0,0,1-2.092-.236,1.16,1.16,0,0,1-.228-.3,1.16,1.16,0,0,1-.228.3,1.912,1.912,0,0,1-2.092.236,1.912,1.912,0,0,1,.236-2.092,1.16,1.16,0,0,1,.3-.228,1.16,1.16,0,0,1-.3-.228,1.912,1.912,0,0,1-.236-2.092,1.912,1.912,0,0,1,2.092.236,1.16,1.16,0,0,1,.228.3,1.16,1.16,0,0,1,.228-.3,1.912,1.912,0,0,1,2.092-.236Z" fill="#f2c373"/>
      <path id="Trazado_128146" data-name="Trazado 128146" d="M30.1,23.9a2.544,2.544,0,0,1-.312,2.784,1.772,1.772,0,0,1-.4.312,1.772,1.772,0,0,1,.4.312A2.544,2.544,0,0,1,30.1,30.1a2.544,2.544,0,0,1-2.784-.312,1.772,1.772,0,0,1-.312-.4,1.772,1.772,0,0,1-.312.4A2.544,2.544,0,0,1,23.9,30.1a2.544,2.544,0,0,1,.312-2.784,1.772,1.772,0,0,1,.4-.312,1.772,1.772,0,0,1-.4-.312A2.544,2.544,0,0,1,23.9,23.9a2.544,2.544,0,0,1,2.784.312,1.772,1.772,0,0,1,.312.4,1.772,1.772,0,0,1,.312-.4A2.544,2.544,0,0,1,30.1,23.9Z" fill="#f2c373"/>
      <path id="Trazado_128147" data-name="Trazado 128147" d="M38.6,23.835a1.912,1.912,0,0,1-.236,2.092,1.16,1.16,0,0,1-.3.228,1.16,1.16,0,0,1,.3.228,1.912,1.912,0,0,1,.236,2.092,1.912,1.912,0,0,1-2.092-.236,1.16,1.16,0,0,1-.228-.3,1.16,1.16,0,0,1-.228.3,1.912,1.912,0,0,1-2.092.236,1.912,1.912,0,0,1,.236-2.092,1.16,1.16,0,0,1,.3-.228,1.16,1.16,0,0,1-.3-.228,1.912,1.912,0,0,1-.236-2.092,1.912,1.912,0,0,1,2.092.236,1.16,1.16,0,0,1,.228.3,1.16,1.16,0,0,1,.228-.3,1.912,1.912,0,0,1,2.092-.236Z" fill="#f2c373"/>
      <path id="Trazado_128148" data-name="Trazado 128148" d="M18.689.844a8.128,8.128,0,0,1,1.358.118c-.734.464-3.172,2.329-3.172,6.632h-.11a3.447,3.447,0,0,1-1.578-2.987V3.721a3.1,3.1,0,0,1,.734-2.033h.008A2.372,2.372,0,0,1,17.71.844Z" fill="#007145"/>
      <path id="Trazado_128149" data-name="Trazado 128149" d="M22.781,1.687h1.687a34.669,34.669,0,0,0-.844,7.459,31.9,31.9,0,0,1-3.366-.464c.127-4.666,1.679-6.995,1.679-6.995V1.569A2.038,2.038,0,0,0,22.781,1.687Z" fill="#007145"/>
      <path id="Trazado_128150" data-name="Trazado 128150" d="M29.531,1.687a34.669,34.669,0,0,1,.844,7.459c-1.012.084-2.143.135-3.375.135V1.687c.894,0,1.8,0,2.531-.008Z" fill="#007145"/>
      <path id="Trazado_128151" data-name="Trazado 128151" d="M37.149,7.594h.084a2.27,2.27,0,0,1-.4.2,19.608,19.608,0,0,1-3.088.886c-.127-4.666-1.679-6.995-1.679-6.995V1.569c.118-.051.211-.118.371-.177a8.16,8.16,0,0,1,1.519-.43c.734.464,3.172,2.329,3.172,6.632Z" fill="#007145"/>
      <path id="Trazado_128152" data-name="Trazado 128152" d="M21.937,1.569v.118s-1.552,2.329-1.679,6.995A19.608,19.608,0,0,1,17.17,7.8a2.269,2.269,0,0,1-.4-.2h.11c0-4.3,2.438-6.168,3.172-6.632a8.161,8.161,0,0,1,1.519.43C21.726,1.46,21.819,1.519,21.937,1.569Z" fill="#009e60"/>
      <path id="Trazado_128153" data-name="Trazado 128153" d="M27,1.687V9.281c-1.232,0-2.362-.051-3.375-.135a34.669,34.669,0,0,1,.844-7.459Z" fill="#009e60"/>
      <path id="Trazado_128154" data-name="Trazado 128154" d="M33.741,8.682a31.9,31.9,0,0,1-3.366.464,34.669,34.669,0,0,0-.844-7.459V1.679c.987.008,1.687.008,1.687,0a1.916,1.916,0,0,0,.844-.11v.118S33.614,4.016,33.741,8.682Z" fill="#009e60"/>
      <path id="Trazado_128155" data-name="Trazado 128155" d="M38.812,3.721v.886a3.447,3.447,0,0,1-1.578,2.987h-.11c0-4.3-2.438-6.168-3.172-6.632A8.128,8.128,0,0,1,35.31.844h.979a2.372,2.372,0,0,1,1.78.844h.008a3.1,3.1,0,0,1,.734,2.033Z" fill="#009e60"/>
      <path id="Trazado_128156" data-name="Trazado 128156" d="M38.373,18.84l2.422,11.8c-3.257,1.51-7.172,2.27-13.795,2.27s-10.538-.759-13.795-2.27l2.422-11.8C18,20.342,20.41,21.093,27,21.093S36,20.342,38.373,18.84Zm-.008,7.087a1.912,1.912,0,0,0,.236-2.092,1.912,1.912,0,0,0-2.092.236,1.16,1.16,0,0,0-.228.3,1.16,1.16,0,0,0-.228-.3,1.912,1.912,0,0,0-2.092-.236,1.912,1.912,0,0,0,.236,2.092,1.16,1.16,0,0,0,.3.228,1.16,1.16,0,0,0-.3.228,1.912,1.912,0,0,0-.236,2.092,1.912,1.912,0,0,0,2.092-.236,1.16,1.16,0,0,0,.228-.3,1.16,1.16,0,0,0,.228.3,1.912,1.912,0,0,0,2.092.236,1.912,1.912,0,0,0-.236-2.092,1.16,1.16,0,0,0-.3-.228A1.16,1.16,0,0,0,38.364,25.928Zm-8.581.759A2.544,2.544,0,0,0,30.1,23.9a2.544,2.544,0,0,0-2.784.312,1.772,1.772,0,0,0-.312.4,1.772,1.772,0,0,0-.312-.4A2.544,2.544,0,0,0,23.9,23.9a2.544,2.544,0,0,0,.312,2.784,1.772,1.772,0,0,0,.4.312,1.772,1.772,0,0,0-.4.312A2.544,2.544,0,0,0,23.9,30.1a2.544,2.544,0,0,0,2.784-.312,1.772,1.772,0,0,0,.312-.4,1.772,1.772,0,0,0,.312.4A2.544,2.544,0,0,0,30.1,30.1a2.544,2.544,0,0,0-.312-2.784,1.772,1.772,0,0,0-.4-.312,1.772,1.772,0,0,0,.4-.312ZM19.8,25.928a1.912,1.912,0,0,0,.236-2.092,1.912,1.912,0,0,0-2.092.236,1.16,1.16,0,0,0-.228.3,1.16,1.16,0,0,0-.228-.3,1.912,1.912,0,0,0-2.092-.236,1.912,1.912,0,0,0,.236,2.092,1.16,1.16,0,0,0,.3.228,1.16,1.16,0,0,0-.3.228,1.912,1.912,0,0,0-.236,2.092,1.912,1.912,0,0,0,2.092-.236,1.16,1.16,0,0,0,.228-.3,1.16,1.16,0,0,0,.228.3,1.912,1.912,0,0,0,2.092.236,1.912,1.912,0,0,0-.236-2.092,1.16,1.16,0,0,0-.3-.228,1.16,1.16,0,0,0,.3-.228Z" fill="#c42527"/>
      <path id="Trazado_128157" data-name="Trazado 128157" d="M45.561,46.819v1.873a3.386,3.386,0,0,1-2.826,3.333,92.554,92.554,0,0,1-14.892,1.131H26.156a92.554,92.554,0,0,1-14.892-1.131,3.386,3.386,0,0,1-2.826-3.333V46.819a4.7,4.7,0,0,0,3.122,2.422,61.526,61.526,0,0,0,14.6,1.384h1.687a61.526,61.526,0,0,0,14.6-1.384A4.7,4.7,0,0,0,45.561,46.819Z" fill="#004a2d"/>
      <path id="Trazado_128158" data-name="Trazado 128158" d="M9.18,39.073,7.594,43.03.844,41.343V39.655l.844-2.531.118-.068a5.785,5.785,0,0,0,4.835,2.6,5.845,5.845,0,0,0,2.54-.582Z" fill="#007145"/>
      <path id="Trazado_128159" data-name="Trazado 128159" d="M53.155,39.655v1.687l-6.75,1.687-1.586-3.957a5.845,5.845,0,0,0,2.54.582,5.785,5.785,0,0,0,4.835-2.6l.118.068Z" fill="#007145"/>
      <path id="Trazado_128160" data-name="Trazado 128160" d="M45.561,46.819A4.7,4.7,0,0,1,42.44,49.24a61.526,61.526,0,0,1-14.6,1.384H26.156a61.526,61.526,0,0,1-14.6-1.384,4.7,4.7,0,0,1-3.122-2.422,7.859,7.859,0,0,1-.844-3.788L9.18,39.073a6.051,6.051,0,0,0,.928-.565,5.85,5.85,0,0,0,2.092-3l1-4.868c3.257,1.51,7.172,2.27,13.795,2.27s10.538-.759,13.795-2.27l1,4.868a5.85,5.85,0,0,0,2.092,3,6.051,6.051,0,0,0,.928.565l1.586,3.957A7.859,7.859,0,0,1,45.561,46.819Z" fill="#009e60"/>
      <path id="Trazado_128161" data-name="Trazado 128161" d="M33.741,8.682A19.608,19.608,0,0,0,36.829,7.8a2.27,2.27,0,0,0,.4-.2,8.57,8.57,0,0,1,3.274.675,5.062,5.062,0,0,0-2.54,4.387v4.219l.4,1.966C36,20.342,33.589,21.093,27,21.093s-9-.751-11.373-2.253l.4-1.966V12.656a5.062,5.062,0,0,0-2.54-4.387,8.57,8.57,0,0,1,3.274-.675,2.27,2.27,0,0,0,.4.2,19.608,19.608,0,0,0,3.088.886,31.9,31.9,0,0,0,3.366.464c1.012.084,2.143.135,3.375.135s2.362-.051,3.375-.135a31.905,31.905,0,0,0,3.366-.464Z" fill="#009e60"/>
      <path id="Trazado_128162" data-name="Trazado 128162" d="M15.626,18.84,13.2,30.636l-1,4.868a5.85,5.85,0,0,1-2.092,3,6.051,6.051,0,0,1-.928.565A5.8,5.8,0,0,1,.844,33.859v-.641A5.846,5.846,0,0,1,1.282,31L8.724,13.027a8.757,8.757,0,0,1,4.767-4.759,5.062,5.062,0,0,1,2.54,4.387v4.219Z" fill="#00e088"/>
      <path id="Trazado_128163" data-name="Trazado 128163" d="M44.819,39.073a6.051,6.051,0,0,1-.928-.565,5.85,5.85,0,0,1-2.092-3l-1-4.868-2.422-11.8-.4-1.966V12.656a5.062,5.062,0,0,1,2.54-4.387,8.757,8.757,0,0,1,4.767,4.759L52.716,31a5.846,5.846,0,0,1,.439,2.219v.641a5.8,5.8,0,0,1-8.336,5.214Z" fill="#00e088"/>
      <path id="Trazado_128164" data-name="Trazado 128164" d="M16.765,9.281a2.27,2.27,0,0,0,.4.2,19.608,19.608,0,0,0,3.088.886,31.905,31.905,0,0,0,3.366.464c1.012.084,2.143.135,3.375.135s2.362-.051,3.375-.135a31.905,31.905,0,0,0,3.366-.464,19.608,19.608,0,0,0,3.088-.886,2.27,2.27,0,0,0,.4-.2,3.173,3.173,0,0,0,1.3-1.568,8.633,8.633,0,0,0-1.3-.119,2.27,2.27,0,0,1-.4.2,19.608,19.608,0,0,1-3.088.886,31.905,31.905,0,0,1-3.366.464c-1.012.084-2.143.135-3.375.135s-2.362-.051-3.375-.135a31.9,31.9,0,0,1-3.366-.464A19.608,19.608,0,0,1,17.17,7.8a2.27,2.27,0,0,1-.4-.2,8.633,8.633,0,0,0-1.3.119,3.173,3.173,0,0,0,1.3,1.568Z" fill="#007145"/>
      <path id="Trazado_128165" data-name="Trazado 128165" d="M38.734,20.6l-.361-1.757C36,20.342,33.589,21.093,27,21.093s-9-.751-11.373-2.253l-.36,1.756c2.47,1.449,5.192,2.184,11.734,2.184C33.58,22.781,36.293,22.037,38.734,20.6Z" fill="#fffefe"/>
      <path id="Trazado_128166" data-name="Trazado 128166" d="M27,32.905c6.623,0,10.538-.759,13.795-2.27l-.349-1.7c-.116.057-.23.111-.361.169C36.89,30.586,32.977,31.218,27,31.218s-9.891-.632-13.1-2.121c-.117-.052-.231-.107-.345-.163l-.349,1.7C16.461,32.146,20.376,32.905,27,32.905Z" fill="#fffefe"/>
      <path id="Trazado_128167" data-name="Trazado 128167" d="M27,24.611a1.772,1.772,0,0,0-.312-.4A2.546,2.546,0,0,0,23.9,23.9a2.546,2.546,0,0,0,.312,2.784,1.772,1.772,0,0,0,.4.312H27Z" fill="#f2c373"/>
      <path id="Trazado_128168" data-name="Trazado 128168" d="M29.388,27a1.772,1.772,0,0,0,.4-.312A2.546,2.546,0,0,0,30.1,23.9a2.546,2.546,0,0,0-2.784.312,1.772,1.772,0,0,0-.312.4V27Z" fill="#e0ae66"/>
      <path id="Trazado_128169" data-name="Trazado 128169" d="M24.611,27a1.772,1.772,0,0,0-.4.312A2.546,2.546,0,0,0,23.9,30.1a2.546,2.546,0,0,0,2.784-.312,1.779,1.779,0,0,0,.313-.4V27Z" fill="#e0ae66"/>
      <path id="Trazado_128170" data-name="Trazado 128170" d="M29.388,27H27v2.388a1.779,1.779,0,0,0,.312.4A2.546,2.546,0,0,0,30.1,30.1a2.546,2.546,0,0,0-.312-2.784,1.772,1.772,0,0,0-.4-.313Z" fill="#f2c373"/>
      <path id="Trazado_128171" data-name="Trazado 128171" d="M38.069,26.156a1.16,1.16,0,0,0,.3-.228,1.912,1.912,0,0,0,.236-2.092,1.912,1.912,0,0,0-2.092.236,1.16,1.16,0,0,0-.228.3v1.789Z" fill="#e0ae66"/>
      <path id="Trazado_128172" data-name="Trazado 128172" d="M36.28,24.367a1.16,1.16,0,0,0-.228-.3,1.912,1.912,0,0,0-2.092-.236,1.912,1.912,0,0,0,.236,2.092,1.16,1.16,0,0,0,.3.228H36.28Z" fill="#f2c373"/>
      <path id="Trazado_128173" data-name="Trazado 128173" d="M38.069,26.156H36.28v1.789a1.16,1.16,0,0,0,.228.3,1.912,1.912,0,0,0,2.092.236,1.912,1.912,0,0,0-.236-2.092A1.16,1.16,0,0,0,38.069,26.156Z" fill="#f2c373"/>
      <path id="Trazado_128174" data-name="Trazado 128174" d="M34.492,26.156a1.16,1.16,0,0,0-.3.228,1.912,1.912,0,0,0-.236,2.092,1.912,1.912,0,0,0,2.092-.236,1.16,1.16,0,0,0,.228-.3V26.156Z" fill="#e0ae66"/>
      <path id="Trazado_128175" data-name="Trazado 128175" d="M19.507,26.156a1.16,1.16,0,0,0,.3-.228,1.912,1.912,0,0,0,.236-2.092,1.912,1.912,0,0,0-2.092.236,1.16,1.16,0,0,0-.228.3v1.789Z" fill="#e0ae66"/>
      <path id="Trazado_128176" data-name="Trazado 128176" d="M17.718,24.367a1.16,1.16,0,0,0-.228-.3,1.912,1.912,0,0,0-2.092-.236,1.912,1.912,0,0,0,.236,2.092,1.16,1.16,0,0,0,.3.228h1.789Z" fill="#f2c373"/>
      <path id="Trazado_128177" data-name="Trazado 128177" d="M19.507,26.156H17.718v1.789a1.16,1.16,0,0,0,.228.3,1.912,1.912,0,0,0,2.092.236,1.912,1.912,0,0,0-.236-2.092A1.16,1.16,0,0,0,19.507,26.156Z" fill="#f2c373"/>
      <path id="Trazado_128178" data-name="Trazado 128178" d="M15.93,26.156a1.16,1.16,0,0,0-.3.228,1.912,1.912,0,0,0-.236,2.092,1.912,1.912,0,0,0,2.092-.236,1.16,1.16,0,0,0,.228-.3V26.156Z" fill="#e0ae66"/>
      <path id="Trazado_128179" data-name="Trazado 128179" d="M1.806,37.057l-.118.068-.381,1.144c.364.6,1.512,1.93,4.652,2.188a.844.844,0,0,1,.748,1.107l-.383,1.15,1.271.317L9.18,39.073a5.845,5.845,0,0,1-2.54.582,5.785,5.785,0,0,1-4.835-2.6Z" fill="#004a2d"/>
      <path id="Trazado_128180" data-name="Trazado 128180" d="M52.193,37.057a5.785,5.785,0,0,1-4.835,2.6,5.845,5.845,0,0,1-2.54-.582l1.586,3.957,1.558-.39L47.6,41.563a.844.844,0,0,1,.748-1.107c2.688-.22,3.913-1.225,4.441-1.889l-.481-1.443Z" fill="#004a2d"/>
      <path id="Trazado_128181" data-name="Trazado 128181" d="M13.491,8.269a8.75,8.75,0,0,0-2.18,1.293l1.012,1.218a5.062,5.062,0,0,1,1.068,4.267L10.425,29.4A6.606,6.606,0,0,1,1.5,34.195L.85,33.933A5.785,5.785,0,0,0,6.64,39.655a5.844,5.844,0,0,0,2.54-.582,6.051,6.051,0,0,0,.928-.565,5.85,5.85,0,0,0,2.092-3l1-4.868,2.422-11.8.4-1.966V12.656A5.062,5.062,0,0,0,13.491,8.269Z" fill="#00c477"/>
      <path id="Trazado_128182" data-name="Trazado 128182" d="M52.193,37.057a5.775,5.775,0,0,0,.944-2.963l-.253.1A6.606,6.606,0,0,1,43.963,29.4l-2.97-14.353a5.062,5.062,0,0,1,1.069-4.267l.85-1.02a8.728,8.728,0,0,0-2.4-1.492,5.062,5.062,0,0,0-2.54,4.387v4.219l.4,1.966,2.422,11.8,1,4.868a5.85,5.85,0,0,0,2.092,3,6.051,6.051,0,0,0,.928.565,5.844,5.844,0,0,0,2.54.582,5.785,5.785,0,0,0,4.835-2.6Z" fill="#00c477"/>
      <path id="Trazado_128183" data-name="Trazado 128183" d="M20.047.962A8.128,8.128,0,0,0,18.689.844H17.71a2.269,2.269,0,0,0-1.2.364,9.872,9.872,0,0,0,2.141,1.007A6.176,6.176,0,0,1,20.047.962Z" fill="#009e60"/>
      <path id="Trazado_128184" data-name="Trazado 128184" d="M16.875,7.594a9.779,9.779,0,0,1,.262-2.29c-.169-.066-.327-.132-.469-.2a2.511,2.511,0,0,1-1.439-1.868,3.265,3.265,0,0,0-.041.482v.886a3.447,3.447,0,0,0,1.578,2.987Z" fill="#004a2d"/>
      <path id="Trazado_128185" data-name="Trazado 128185" d="M16.667,5.107c.143.064.3.131.469.2a7.492,7.492,0,0,1,1.519-3.09,9.872,9.872,0,0,1-2.141-1.007,2.543,2.543,0,0,0-.584.48h-.008a3.024,3.024,0,0,0-.693,1.552,2.511,2.511,0,0,0,1.439,1.868Z" fill="#007145"/>
      <path id="Trazado_128186" data-name="Trazado 128186" d="M20.473,6.224a20.018,20.018,0,0,0-.215,2.458,31.9,31.9,0,0,0,3.366.464c0-.887.046-1.73.106-2.514a30.881,30.881,0,0,1-3.258-.408Z" fill="#004a2d"/>
      <path id="Trazado_128187" data-name="Trazado 128187" d="M21.346,2.907a26.668,26.668,0,0,0,2.806.362c.168-.991.316-1.581.316-1.581H22.781a2.038,2.038,0,0,1-.844-.118v.118a7.487,7.487,0,0,0-.591,1.219Z" fill="#009e60"/>
      <path id="Trazado_128188" data-name="Trazado 128188" d="M21.346,2.907a14.973,14.973,0,0,0-.87,3.318,30.881,30.881,0,0,0,3.258.408c.105-1.35.271-2.505.422-3.363a26.668,26.668,0,0,1-2.81-.362Z" fill="#007145"/>
      <path id="Trazado_128189" data-name="Trazado 128189" d="M29.849,3.269c-.171-.991-.319-1.581-.319-1.581V1.679c-.734.008-1.637.008-2.531.008V3.375C28.037,3.375,28.984,3.336,29.849,3.269Z" fill="#009e60"/>
      <path id="Trazado_128190" data-name="Trazado 128190" d="M27,3.375V6.75c1.2,0,2.284-.045,3.269-.118-.105-1.35-.271-2.505-.422-3.363C28.984,3.336,28.037,3.375,27,3.375Z" fill="#007145"/>
      <path id="Trazado_128191" data-name="Trazado 128191" d="M27,6.75V9.281c1.232,0,2.362-.051,3.375-.135,0-.887-.046-1.73-.106-2.514C29.283,6.705,28.2,6.75,27,6.75Z" fill="#004a2d"/>
      <path id="Trazado_128192" data-name="Trazado 128192" d="M37.124,7.594a9.779,9.779,0,0,0-.262-2.29,17.736,17.736,0,0,1-3.337.921,20.018,20.018,0,0,1,.215,2.458A19.608,19.608,0,0,0,36.829,7.8a2.27,2.27,0,0,0,.4-.2Z" fill="#004a2d"/>
      <path id="Trazado_128193" data-name="Trazado 128193" d="M32.652,2.907a18.209,18.209,0,0,0,2.691-.693A6.176,6.176,0,0,0,33.952.962a8.16,8.16,0,0,0-1.519.43c-.16.059-.253.127-.371.177v.118a7.487,7.487,0,0,1,.591,1.219Z" fill="#009e60"/>
      <path id="Trazado_128194" data-name="Trazado 128194" d="M33.526,6.224A17.736,17.736,0,0,0,36.863,5.3a7.492,7.492,0,0,0-1.519-3.09,18.209,18.209,0,0,1-2.691.693,14.973,14.973,0,0,1,.872,3.318Z" fill="#007145"/>
      <path id="Trazado_128195" data-name="Trazado 128195" d="M18.652,2.214a18.209,18.209,0,0,0,2.691.693,7.486,7.486,0,0,1,.594-1.219V1.569c-.118-.051-.211-.11-.371-.177a8.16,8.16,0,0,0-1.519-.43,6.176,6.176,0,0,0-1.395,1.252Z" fill="#00c477"/>
      <path id="Trazado_128196" data-name="Trazado 128196" d="M18.652,2.214A7.492,7.492,0,0,0,17.134,5.3a17.736,17.736,0,0,0,3.337.921,14.973,14.973,0,0,1,.876-3.318,18.209,18.209,0,0,1-2.694-.693Z" fill="#009e60"/>
      <path id="Trazado_128197" data-name="Trazado 128197" d="M17.136,5.3a9.779,9.779,0,0,0-.262,2.29h-.11a2.27,2.27,0,0,0,.4.2,19.608,19.608,0,0,0,3.088.886,20.019,20.019,0,0,1,.215-2.458A17.736,17.736,0,0,1,17.136,5.3Z" fill="#007145"/>
      <path id="Trazado_128198" data-name="Trazado 128198" d="M24.149,3.269c-.148.858-.313,2.017-.422,3.363.988.073,2.071.118,3.272.118V3.375C25.962,3.375,25.015,3.336,24.149,3.269Z" fill="#009e60"/>
      <path id="Trazado_128199" data-name="Trazado 128199" d="M27,3.375V1.687H24.468s-.148.591-.319,1.581C25.015,3.336,25.962,3.375,27,3.375Z" fill="#00c477"/>
      <path id="Trazado_128200" data-name="Trazado 128200" d="M23.731,6.632c-.061.785-.106,1.628-.106,2.514,1.012.084,2.143.135,3.375.135V6.75C25.8,6.75,24.715,6.705,23.731,6.632Z" fill="#007145"/>
      <path id="Trazado_128201" data-name="Trazado 128201" d="M29.849,3.269c.148.858.313,2.017.422,3.363a30.881,30.881,0,0,0,3.258-.408,14.973,14.973,0,0,0-.877-3.318,26.668,26.668,0,0,1-2.8.362Z" fill="#009e60"/>
      <path id="Trazado_128202" data-name="Trazado 128202" d="M29.849,3.269a26.668,26.668,0,0,0,2.8-.362,7.486,7.486,0,0,0-.591-1.219V1.569a1.916,1.916,0,0,1-.844.11c0,.008-.7.008-1.687,0v.008S29.678,2.278,29.849,3.269Z" fill="#00c477"/>
      <path id="Trazado_128203" data-name="Trazado 128203" d="M30.268,6.632c.061.785.1,1.628.106,2.514a31.905,31.905,0,0,0,3.366-.464,20.018,20.018,0,0,0-.215-2.458,30.881,30.881,0,0,1-3.258.408Z" fill="#007145"/>
      <path id="Trazado_128204" data-name="Trazado 128204" d="M38.069,1.687a2.543,2.543,0,0,0-.581-.48,9.872,9.872,0,0,1-2.141,1.007A7.492,7.492,0,0,1,36.865,5.3c.169-.066.327-.132.469-.2a2.511,2.511,0,0,0,1.434-1.868,3.024,3.024,0,0,0-.691-1.552Z" fill="#009e60"/>
      <path id="Trazado_128205" data-name="Trazado 128205" d="M37.332,5.107c-.143.064-.3.131-.469.2a9.779,9.779,0,0,1,.262,2.29h.11a3.447,3.447,0,0,0,1.578-2.987V3.721a3.266,3.266,0,0,0-.041-.482,2.511,2.511,0,0,1-1.439,1.868Z" fill="#007145"/>
      <path id="Trazado_128206" data-name="Trazado 128206" d="M35.346,2.214a9.872,9.872,0,0,0,2.141-1.007,2.269,2.269,0,0,0-1.2-.364H35.31a8.129,8.129,0,0,0-1.358.118A6.176,6.176,0,0,1,35.346,2.214Z" fill="#00c477"/>
      <path id="Trazado_128207" data-name="Trazado 128207" d="M36.16,21.772c.078.786.169,1.595.261,2.413a1.383,1.383,0,0,1,.084-.114,1.912,1.912,0,0,1,2.092-.236,1.912,1.912,0,0,1-.236,2.092,1.16,1.16,0,0,1-.3.228,1.16,1.16,0,0,1,.3.228,1.912,1.912,0,0,1,.236,2.092A1.929,1.929,0,0,1,37,28.549q.126.8.262,1.584A18.508,18.508,0,0,0,40.081,29.1c.131-.059.246-.114.361-.169l-2.069-10.1.361,1.757a12.915,12.915,0,0,1-2.574,1.174Z" fill="#911a1c"/>
      <path id="Trazado_128208" data-name="Trazado 128208" d="M17.009,30.206c.106-.6.207-1.212.3-1.829a1.946,1.946,0,0,1-1.912.1,1.912,1.912,0,0,1,.236-2.092,1.16,1.16,0,0,1,.3-.228,1.16,1.16,0,0,1-.3-.228,1.912,1.912,0,0,1-.236-2.092,1.912,1.912,0,0,1,2.092.236,1.16,1.16,0,0,1,.228.3,1.089,1.089,0,0,1,.154-.2c.091-.783.174-1.556.253-2.31a13.054,13.054,0,0,1-2.857-1.261l.36-1.756-2.076,10.1c.114.056.228.111.345.163a18.731,18.731,0,0,0,3.11,1.109Z" fill="#911a1c"/>
      <path id="Trazado_128209" data-name="Trazado 128209" d="M44.819,39.073a6.051,6.051,0,0,1-.928-.565,5.822,5.822,0,0,1-1.723-2.078,5.914,5.914,0,0,1-.37-.928l-1-4.868A20.287,20.287,0,0,1,37.581,31.8a25.931,25.931,0,0,0,2.025,6.569,1.693,1.693,0,0,1-.429,2.129A18.557,18.557,0,0,1,27,44.718a18.3,18.3,0,0,1-11.951-4.061,1.672,1.672,0,0,1-.448-2.123,24.853,24.853,0,0,0,2.093-6.657,20.424,20.424,0,0,1-3.49-1.241l-1,4.868a5.913,5.913,0,0,1-.37.928,5.822,5.822,0,0,1-1.723,2.076,6.051,6.051,0,0,1-.928.565L7.594,43.03a7.859,7.859,0,0,0,.844,3.788,4.7,4.7,0,0,0,3.122,2.422,61.526,61.526,0,0,0,14.6,1.384h1.687a61.526,61.526,0,0,0,14.6-1.384,4.7,4.7,0,0,0,3.122-2.422,7.859,7.859,0,0,0,.844-3.788Z" fill="#007145"/>
      <path id="Trazado_128210" data-name="Trazado 128210" d="M35.745,17.007c.069.921.152,1.941.253,3.027a12.2,12.2,0,0,0,2.375-1.194l-.4-1.966V12.656a5.015,5.015,0,0,1,.042-.621,5.683,5.683,0,0,0-2.265,4.972Z" fill="#007145"/>
      <path id="Trazado_128211" data-name="Trazado 128211" d="M18.546,17.007a5.684,5.684,0,0,0-2.594-5.195,5,5,0,0,1,.079.844v4.219l-.4,1.966a12.078,12.078,0,0,0,2.662,1.291C18.393,19.011,18.478,17.955,18.546,17.007Z" fill="#007145"/>
      <path id="Trazado_128212" data-name="Trazado 128212" d="M36.16,21.772A12.915,12.915,0,0,0,38.734,20.6l-.361-1.757a12.2,12.2,0,0,1-2.378,1.194Q36.07,20.88,36.16,21.772Z" fill="#ccf"/>
      <path id="Trazado_128213" data-name="Trazado 128213" d="M18.122,21.857c.06-.591.115-1.165.169-1.725a12.078,12.078,0,0,1-2.662-1.291l-.36,1.756a13.054,13.054,0,0,0,2.853,1.261Z" fill="#ccf"/>
      <path id="Trazado_128214" data-name="Trazado 128214" d="M37.268,30.133q.149.852.313,1.671a20.287,20.287,0,0,0,3.213-1.168l-.349-1.7c-.116.057-.23.111-.361.169a18.507,18.507,0,0,1-2.816,1.03Z" fill="#ccf"/>
      <path id="Trazado_128215" data-name="Trazado 128215" d="M17.009,30.206a18.731,18.731,0,0,1-3.11-1.111c-.117-.052-.231-.107-.345-.163l-.349,1.7a20.423,20.423,0,0,0,3.49,1.241Q16.86,31.061,17.009,30.206Z" fill="#ccf"/>
      <path id="Trazado_128216" data-name="Trazado 128216" d="M41.462,49.466a65.7,65.7,0,0,1-13.619,1.158H26.156a65.7,65.7,0,0,1-13.619-1.158,2.079,2.079,0,0,0-.4,2.7,94.126,94.126,0,0,0,14.017.989h1.687a94.127,94.127,0,0,0,14.017-.993A2.079,2.079,0,0,0,41.462,49.466Z" fill="#009e60"/>
      <rect id="Rect치ngulo_35875" data-name="Rect치ngulo 35875" width="1.826" height="1.687" transform="translate(5.651 18.239) rotate(-67.544)"/>
      <path id="Trazado_128217" data-name="Trazado 128217" d="M9.5,13.348a7.917,7.917,0,0,1,7.108-4.894c.084.041.169.09.253.125A27.9,27.9,0,0,0,27,10.125,27.919,27.919,0,0,0,37.137,8.58c.084-.035.169-.084.253-.125A7.917,7.917,0,0,1,44.5,13.349l5.084,12.287,1.558-.645L46.058,12.7a9.6,9.6,0,0,0-7.04-5.768,4.556,4.556,0,0,0,.638-2.33V3.724a3.922,3.922,0,0,0-.947-2.592A3.231,3.231,0,0,0,36.291,0h-.979a8.528,8.528,0,0,0-1.181.092h-.005v0a8.859,8.859,0,0,0-2,.516,2.784,2.784,0,0,0-.316.147c-.1.053-.157.084-.581.077h-.061c-.359.008-5.189.008-8.386.008-.422,0-.482-.03-.591-.084a2.914,2.914,0,0,0-.318-.148,8.851,8.851,0,0,0-2-.519v0h-.005A8.527,8.527,0,0,0,18.686,0h-.979A3.231,3.231,0,0,0,15.29,1.132a3.922,3.922,0,0,0-.947,2.592v.882a4.556,4.556,0,0,0,.638,2.33A9.6,9.6,0,0,0,7.941,12.7l-.894,2.161,1.558.645ZM20.216,1.867c.2.045.391.1.586.159a16.187,16.187,0,0,0-1.334,5.6A16.83,16.83,0,0,1,17.736,7.1a6.673,6.673,0,0,1,2.481-5.236Zm7.627.664h1.012a35.53,35.53,0,0,1,.66,5.822q-.794.05-1.672.066ZM26.156,8.42q-.88-.018-1.672-.066a35.541,35.541,0,0,1,.664-5.823h1.008ZM36.261,7.1a16.829,16.829,0,0,1-1.731.526,16.206,16.206,0,0,0-1.334-5.6c.193-.062.389-.114.585-.158A6.7,6.7,0,0,1,36.261,7.1Zm1.181-4.861a2.27,2.27,0,0,1,.526,1.482v.882a2.972,2.972,0,0,1-.176,1,8.391,8.391,0,0,0-1.783-3.919h.283a1.519,1.519,0,0,1,1.147.555Zm-6.235.2v.069c.134,0,.24,0,.347-.009a14.375,14.375,0,0,1,1.309,5.472c-.506.084-1.07.162-1.663.229a37.136,37.136,0,0,0-.632-5.716C30.821,2.484,31.032,2.47,31.207,2.447Zm-7.782.084a37.068,37.068,0,0,0-.625,5.68c-.591-.067-1.155-.142-1.663-.229a14.369,14.369,0,0,1,1.306-5.464c.105.006.209.013.337.013ZM16.031,3.724a2.27,2.27,0,0,1,.53-1.482,1.519,1.519,0,0,1,1.147-.555h.283a8.391,8.391,0,0,0-1.783,3.919,2.972,2.972,0,0,1-.176-1Z"/>
      <path id="Trazado_128218" data-name="Trazado 128218" d="M54,33.213a6.591,6.591,0,0,0-.506-2.539l-1.655-4-1.558.645,1.655,4a4.932,4.932,0,0,1,.377,1.893v.645a4.955,4.955,0,0,1-9.684,1.477l-3.833-18.63-1.652.337.285,1.385a10.643,10.643,0,0,1-2.243.991l.5,1.612a12.357,12.357,0,0,0,2.1-.867l.552,2.679a3.4,3.4,0,0,0-.583-.059h0a2.712,2.712,0,0,0-1.468.4,2.712,2.712,0,0,0-1.471-.4h0a2.17,2.17,0,0,0-1.444.458,2.171,2.171,0,0,0-.463,1.445,2.714,2.714,0,0,0,.4,1.471,2.714,2.714,0,0,0-.4,1.471,2.17,2.17,0,0,0,.458,1.444,2.171,2.171,0,0,0,1.445.46h0a2.712,2.712,0,0,0,1.471-.4,2.712,2.712,0,0,0,1.468.4h0a2.17,2.17,0,0,0,1.444-.458,1.394,1.394,0,0,0,.31-.545l.331,1.608C36.608,31.494,32.765,32.062,27,32.062a43.751,43.751,0,0,1-9.106-.759l-.353,1.645a45.279,45.279,0,0,0,9.458.8c5.828,0,9.806-.57,13.184-1.93l.808,3.926a6.655,6.655,0,0,0,3.151,3.9l1.418,3.539c-.026,1.724-.514,4.536-3.32,5.231a61.943,61.943,0,0,1-14.4,1.363H26.156a61.955,61.955,0,0,1-14.4-1.36c-2.805-.7-3.291-3.51-3.319-5.231l1.418-3.544a6.742,6.742,0,0,0,3.167-3.966l.794-3.86c.64.258,1.293.493,1.973.692l.474-1.62a19.615,19.615,0,0,1-2.1-.759l.328-1.593a1.374,1.374,0,0,0,.307.539,2.171,2.171,0,0,0,1.445.452h0a2.712,2.712,0,0,0,1.471-.4,2.712,2.712,0,0,0,1.468.4h0a2.17,2.17,0,0,0,1.444-.458,2.171,2.171,0,0,0,.463-1.445,2.714,2.714,0,0,0-.4-1.471,2.714,2.714,0,0,0,.4-1.471,2.17,2.17,0,0,0-.458-1.444,2.171,2.171,0,0,0-1.445-.46h0a2.712,2.712,0,0,0-1.468.4,2.712,2.712,0,0,0-1.471-.4h0a3.3,3.3,0,0,0-.582.059l.552-2.68c2.289,1.2,5.029,1.777,10.779,1.777a38.9,38.9,0,0,0,6.9-.472L33.6,19.807a37.377,37.377,0,0,1-6.6.443c-5.822,0-8.247-.567-10.428-1.818l.285-1.387L15.2,16.707,11.39,35.268a4.953,4.953,0,0,1-9.7-1.409v-.645a4.939,4.939,0,0,1,.376-1.894L6.511,20.572l-1.559-.645L.506,30.674A6.6,6.6,0,0,0,0,33.213v.645a6.6,6.6,0,0,0,.822,3.194L.044,39.389A.844.844,0,0,0,0,39.655v1.687a.844.844,0,0,0,.64.818L6.789,43.7a8.312,8.312,0,0,0,.938,3.55H7.594V48.69a4.209,4.209,0,0,0,3.533,4.163A92.7,92.7,0,0,0,26.156,54h1.687a92.7,92.7,0,0,0,15.029-1.146,4.209,4.209,0,0,0,3.533-4.163V47.249h-.133a8.312,8.312,0,0,0,.938-3.55l6.149-1.537a.844.844,0,0,0,.64-.818V39.655a.844.844,0,0,0-.044-.267l-.778-2.335A6.6,6.6,0,0,0,54,33.859ZM37.652,26.885a.652.652,0,0,1,.12.1,1.115,1.115,0,0,1,.183.844,1.119,1.119,0,0,1-.844-.183.652.652,0,0,1-.1-.12.844.844,0,0,0-1.463,0,.652.652,0,0,1-.1.12,1.119,1.119,0,0,1-.844.183,1.115,1.115,0,0,1,.183-.844.652.652,0,0,1,.12-.1.844.844,0,0,0,0-1.463.652.652,0,0,1-.12-.1,1.115,1.115,0,0,1-.183-.844,1.115,1.115,0,0,1,.844.183.652.652,0,0,1,.1.12.877.877,0,0,0,1.463,0,.652.652,0,0,1,.1-.12,1.115,1.115,0,0,1,.844-.183,1.115,1.115,0,0,1-.183.844.652.652,0,0,1-.12.1.844.844,0,0,0,0,1.463ZM16.346,25.424a.652.652,0,0,1-.12-.1,1.115,1.115,0,0,1-.183-.844,1.117,1.117,0,0,1,.844.183.652.652,0,0,1,.1.12.877.877,0,0,0,1.463,0,.652.652,0,0,1,.1-.12,1.115,1.115,0,0,1,.844-.183,1.115,1.115,0,0,1-.183.844.652.652,0,0,1-.12.1.844.844,0,0,0,0,1.463.652.652,0,0,1,.12.1,1.115,1.115,0,0,1,.183.844,1.119,1.119,0,0,1-.844-.183.652.652,0,0,1-.1-.12.844.844,0,0,0-1.463,0,.652.652,0,0,1-.1.12,1.12,1.12,0,0,1-.844.183,1.115,1.115,0,0,1,.183-.844.652.652,0,0,1,.12-.1.844.844,0,0,0,0-1.463ZM1.687,39.792l.377-1.133A6.61,6.61,0,0,0,6.64,40.5a6.531,6.531,0,0,0,1.1-.094l-.65,1.628-5.4-1.349ZM42.6,51.188a91.049,91.049,0,0,1-14.753,1.123H26.156A91.048,91.048,0,0,1,11.4,51.188a2.524,2.524,0,0,1-2.085-2.079,5.767,5.767,0,0,0,2.034.948,63.574,63.574,0,0,0,14.8,1.41h1.687a63.575,63.575,0,0,0,14.8-1.41,5.767,5.767,0,0,0,2.034-.948A2.524,2.524,0,0,1,42.6,51.188Zm9.716-10.5-5.4,1.35-.651-1.628a6.53,6.53,0,0,0,1.1.094,6.609,6.609,0,0,0,4.575-1.84l.378,1.132Z"/>
      <path id="Trazado_128219" data-name="Trazado 128219" d="M23.311,30.69a2.531,2.531,0,0,0,1.712.532A3.375,3.375,0,0,0,27,30.627a3.281,3.281,0,0,0,3.69.062A3.281,3.281,0,0,0,30.627,27a3.283,3.283,0,0,0,.062-3.69,3.281,3.281,0,0,0-3.69.062,3.281,3.281,0,0,0-3.69-.062A3.283,3.283,0,0,0,23.371,27,3.285,3.285,0,0,0,23.311,30.69Zm1.721-4.421a1.082,1.082,0,0,1-.219-.175,1.816,1.816,0,0,1-.285-1.567,1.822,1.822,0,0,1,1.567.285,1.082,1.082,0,0,1,.175.219.877.877,0,0,0,1.461,0,1.083,1.083,0,0,1,.175-.219,1.822,1.822,0,0,1,1.567-.285,1.816,1.816,0,0,1-.285,1.567,1.082,1.082,0,0,1-.219.175.844.844,0,0,0,0,1.461,1.082,1.082,0,0,1,.219.175,1.816,1.816,0,0,1,.285,1.567,1.819,1.819,0,0,1-1.567-.285,1.083,1.083,0,0,1-.175-.219.844.844,0,0,0-1.461,0,1.082,1.082,0,0,1-.175.219,1.819,1.819,0,0,1-1.567.285,1.816,1.816,0,0,1,.285-1.567,1.083,1.083,0,0,1,.219-.175.844.844,0,0,0,0-1.461Z"/>
    </g>
  </g>
</svg>
