<svg xmlns="http://www.w3.org/2000/svg" xmlns:xlink="http://www.w3.org/1999/xlink" width="336" height="294.07" viewBox="0 0 336 294.07">
  <defs>
    <linearGradient id="linear-gradient" x1="0.981" y1="0.962" x2="-0.147" y2="-0.122" gradientUnits="objectBoundingBox">
      <stop offset="0" stop-color="#c4b8e9"/>
      <stop offset="0.417" stop-color="#b2cfde"/>
      <stop offset="1" stop-color="#ffcade"/>
    </linearGradient>
    <linearGradient id="linear-gradient-2" x1="8.161" y1="15.8" x2="-14.049" y2="-28.338" xlink:href="#linear-gradient"/>
    <linearGradient id="linear-gradient-3" x1="9.039" y1="9.868" x2="-13.552" y2="-14.904" xlink:href="#linear-gradient"/>
    <linearGradient id="linear-gradient-4" x1="10.367" y1="21.33" x2="-13.691" y2="-29.879" xlink:href="#linear-gradient"/>
    <linearGradient id="linear-gradient-5" x1="11.622" y1="12.703" x2="-10.966" y2="-12.073" xlink:href="#linear-gradient"/>
    <linearGradient id="linear-gradient-6" x1="14.044" y1="29.139" x2="-10.029" y2="-22.069" xlink:href="#linear-gradient"/>
  </defs>
  <g id="Grupo_94063" data-name="Grupo 94063" transform="translate(-259.49 -44.203)">
    <g id="Grupo_94035" data-name="Grupo 94035" transform="translate(316.78 84.681)">
      <path id="Trazado_129022" data-name="Trazado 129022" d="M472.342,190.244v2.942l-82.678,32.2V222.44Z" transform="translate(-346.602 -118.138)" fill="#7f542e"/>
      <path id="Trazado_129023" data-name="Trazado 129023" d="M480.56,169.589v2.948c-11.12,4.319,22.945-8.932-55.023,21.429l15.681-9.057Z" transform="translate(-354.82 -113.406)" fill="#7f542e"/>
      <path id="Trazado_129024" data-name="Trazado 129024" d="M485.22,168.276,445.878,183.6l34.18-19.736Z" transform="translate(-359.48 -112.094)" fill="#a26d42"/>
      <path id="Trazado_129025" data-name="Trazado 129025" d="M404.736,200.242v-2.949l70.511-40.711v2.949Q452.266,172.787,404.736,200.242Z" transform="translate(-350.055 -110.426)" fill="#6899f4"/>
      <path id="Trazado_129026" data-name="Trazado 129026" d="M468.875,186.788l-77.428,30.149V205.523l7.122-2.774v-.006l3.122,1.8,16.036-9.256,51.148-19.917Z" transform="translate(-347.01 -114.731)" fill="#a5b3bf"/>
      <path id="Trazado_129027" data-name="Trazado 129027" d="M471.622,153.763l-66.039,38.129V180.745l66.039-38.129Z" transform="translate(-350.249 -107.227)" fill="#a5b3bf"/>
      <path id="Trazado_129028" data-name="Trazado 129028" d="M404.736,179.594v-2.948l70.511-40.711v2.942C469.921,141.957,405.79,178.982,404.736,179.594Z" transform="translate(-350.055 -105.696)" fill="#6899f4"/>
      <path id="Trazado_129029" data-name="Trazado 129029" d="M398.161,210.355v.006c-8.333,3.246-6.681,2.6-8.5,3.309v-2.948l5.455-2.122Z" transform="translate(-346.602 -122.343)" fill="#7f542e"/>
      <path id="Trazado_129030" data-name="Trazado 129030" d="M389.5,204.419l-5.455,2.121-18.915-16.191Z" transform="translate(-340.981 -118.162)" fill="#a26d42"/>
      <path id="Trazado_129031" data-name="Trazado 129031" d="M386.356,219.358l77.428-30.149v-3.266l3.875,3.315-82.678,32.2-15.756-13.5a5.7,5.7,0,0,1,1.331-2.121Z" transform="translate(-341.92 -117.153)" fill="#a26d42"/>
      <path id="Trazado_129032" data-name="Trazado 129032" d="M379.621,205.606V217.02l-15.8-13.522a9.729,9.729,0,0,1,2.743-1.928v-.392q-3.741-3.2-7.482-6.406a10.046,10.046,0,0,0-2.986,2.115c-.159-.158.1.087-14.12-12.086a7.387,7.387,0,0,1-2.152-4.989v-4.074l8.944,5.163,29.477,25.241Z" transform="translate(-335.184 -114.815)" fill="#dfe3e7"/>
      <path id="Trazado_129033" data-name="Trazado 129033" d="M384.88,228v2.943l-16.066-13.753a6.044,6.044,0,0,1,.311-2.687Z" transform="translate(-341.818 -123.695)" fill="#c48b5e"/>
      <path id="Trazado_129034" data-name="Trazado 129034" d="M380.9,204.727v2.948l-29.477-25.241,10.549,6.1C362.039,188.561,361.471,188.092,380.9,204.727Z" transform="translate(-337.842 -116.349)" fill="#c48b5e"/>
      <path id="Trazado_129035" data-name="Trazado 129035" d="M370.86,206.833c-4.111,2.016-5.759,5.194-4.273,9.648l-7.482-6.407c-1.461-4.407.133-7.63,4.273-9.647Q367.118,203.627,370.86,206.833Z" transform="translate(-339.479 -120.471)" fill="#d2898a"/>
      <path id="Trazado_129036" data-name="Trazado 129036" d="M368.808,218.385c-1.486-4.454.162-7.632,4.273-9.648v.392c-4.007,1.981-5.26,5.006-3.875,9.038Z" transform="translate(-341.701 -122.375)" fill="#c95b68"/>
      <path id="Trazado_129037" data-name="Trazado 129037" d="M340.345,155.453c.358.143-3.036-1.794,49.63,28.612l.653-.379v11.147l-47.6-27.481a6.006,6.006,0,0,1-2.718-4.715C340.308,155.455,340.292,155.771,340.345,155.453Z" transform="translate(-335.294 -110.168)" fill="#dfe3e7"/>
      <path id="Trazado_129038" data-name="Trazado 129038" d="M339.68,155.057c-.058.348-.037,0-.037,7.184a6.006,6.006,0,0,0,2.718,4.715l47.6,27.481L456,156.308v-2.582l3.819,2.2-70.511,40.711-49.182-28.395a5.98,5.98,0,0,1-2.724-4.715v-6.687a2.256,2.256,0,0,1,.541-1.58A1.638,1.638,0,0,1,339.68,155.057Z" transform="translate(-334.629 -109.772)" fill="#9ed2e9"/>
      <path id="Trazado_129039" data-name="Trazado 129039" d="M339.044,175.247v4.074a7.387,7.387,0,0,0,2.152,4.989c16.36,14,13.906,11.871,14.12,12.086a6.293,6.293,0,0,0-1.368,2.09c-.063,0,.007.012-15.377-13.156a7.362,7.362,0,0,1-2.152-4.989c0-7.42-.025-6.662.055-6.742A11.534,11.534,0,0,0,339.044,175.247Z" transform="translate(-334.403 -114.325)" fill="#a26d42"/>
      <path id="Trazado_129040" data-name="Trazado 129040" d="M335.129,137.6c75.693-43.705,70.57-40.812,70.99-40.872a2.159,2.159,0,0,1,1.449.348L459.3,126.949,388.79,167.66c-55.145-31.839-52-30.131-52.678-30.217A1.671,1.671,0,0,0,335.129,137.6Z" transform="translate(-334.108 -96.71)" fill="#9ed2e9"/>
      <path id="Trazado_129041" data-name="Trazado 129041" d="M422.811,118.513l22.436,12.954a3.681,3.681,0,0,0,3.329,0l1.106-.639a1.015,1.015,0,0,0,0-1.922l-22.436-12.954a3.678,3.678,0,0,0-3.33,0l-1.105.638A1.014,1.014,0,0,0,422.811,118.513Z" transform="translate(-354.038 -101.027)" fill="#76b2cc"/>
      <path id="Trazado_129042" data-name="Trazado 129042" d="M334.029,167.827a6.042,6.042,0,0,0,1.847,4.043c-.083.083-.055-.465-.055,6.742a7.362,7.362,0,0,0,2.152,4.989c15.634,13.381,15.313,13.156,15.377,13.156a6.383,6.383,0,0,0-.454,2.556c-.063,0,.227.2-16.938-14.492a7.365,7.365,0,0,1-2.152-4.989V167.255a2.825,2.825,0,0,1,.224-1.2Z" transform="translate(-333.805 -112.597)" fill="#c48b5e"/>
      <path id="Trazado_129043" data-name="Trazado 129043" d="M396.355,210.853c-1.647.638-3.2,1.231-4.746,1.84a3.2,3.2,0,0,1-3.957-.712,3,3,0,0,0-3.919-.651,26.167,26.167,0,0,1-3.437,1.338,14.147,14.147,0,0,1-2.7.272V210a36.327,36.327,0,0,0,4.488-2.061c-.988-.078-3.114-.035-3.114-.035v-6.2a5.866,5.866,0,0,0-1.132-2.31q-9.438-8-18.8-16.083a5.647,5.647,0,0,0-2.96-1.163c-2.277-.4-4.544-.885-6.836-1.156a3.326,3.326,0,0,1-3.04-2.9c-.313-1.264-.661-2.523-.875-3.805a10.9,10.9,0,0,0-3.4-6.081c4.926,2.394,10.788,6.23,15.945,9.208H354.7c7.691,6.651,22.9,19.609,22.9,19.609V194.08l5.456-2.127,1,.628s3.234,1.844,5.033,2.864c.087-1.115.153-1.959.222-2.828.963-.636,2.162-1.282,3.384-2.091-.988-.114-2.822-.165-2.822-.165s-.039-3.525.065-5.09c.092-1.368-.491-1.857-1.6-2.492q-15.626-8.976-31.223-18c-4.012-2.313-8.021-4.633-12.047-6.924-2.529-1.439-3.4-.944-3.451,1.9-.014.782,0,1.563,0,2.511a5.816,5.816,0,0,1-4.08-1.428,3.6,3.6,0,0,1-.224-2.294s-.626-6.318-.282-7.137c.561-1.34,2.2-.552,2.2-.552a20.792,20.792,0,0,1,2.108,1.116q22.473,12.967,44.941,25.942c.86.5,2.937,1.684,2.937,1.684v-2.948l70.511-40.711v2.942l-3.819,2.209v8.565l3.819,2.2V154.8l-2.9,1.7c9.772,5.837,19.774,11.2,29.6,17.075-.988.629-1.692,1.117-2.433,1.544q-30.659,17.677-61.323,35.343c-1.881,1.083-3.773,2.15-5.626,3.28a4.124,4.124,0,0,1-4.32.045,16.387,16.387,0,0,1-1.879-1.087,2.81,2.81,0,0,0-3.257-.028c-.566.322-1.138.636-1.684.991a4.2,4.2,0,0,1-4.7,0C399.573,212.727,397.953,211.78,396.355,210.853Z" transform="translate(-334.519 -105.696)" fill="#b0a7c2" style="mix-blend-mode: multiply;isolation: isolate"/>
      <path id="Trazado_129044" data-name="Trazado 129044" d="M371.163,218.1c-.871,0-1.644.281-2.347.281-1.486-4.684.345-7.872,4.273-9.648.867,1.452.288,3.545.835,5.3l-2.761,1.067Z" transform="translate(-341.708 -122.375)" fill="#c5bed1" style="mix-blend-mode: multiply;isolation: isolate"/>
      <path id="Trazado_129045" data-name="Trazado 129045" d="M341.8,176.833c-2.276,1.5-1.457,3.9-1.1,6.954-1.088-.452-3.164-2.573-4.252-3.025,0-2.542.037-4.794.037-7.163C337.946,173.782,339.962,175.319,341.8,176.833Z" transform="translate(-334.41 -114.325)" fill="#c5bed1" style="mix-blend-mode: multiply;isolation: isolate"/>
      <path id="Trazado_129046" data-name="Trazado 129046" d="M334.637,149.884a1.549,1.549,0,0,1,1.237-.342c.683.086-2.453-1.614,52.678,30.217v2.948c-52.527-30.326-49.477-28.656-50.127-28.749a1.551,1.551,0,0,0-1.238.342,2.256,2.256,0,0,0-.541,1.58v6.687a5.98,5.98,0,0,0,2.724,4.715l49.182,28.395v2.949c-1.416-.819-46.673-26.949-51.732-29.87a5.981,5.981,0,0,1-2.724-4.715V151.464A2.258,2.258,0,0,1,334.637,149.884Z" transform="translate(-333.872 -108.81)" fill="#82c2e8"/>
    </g>
    <g id="Grupo_94040" data-name="Grupo 94040" transform="translate(417.827 44.203)">
      <g id="Grupo_94038" data-name="Grupo 94038">
        <path id="Trazado_129047" data-name="Trazado 129047" d="M567.994,108.031V249.863a2.874,2.874,0,0,1-.7,2.023,1.519,1.519,0,0,1-.274.2,2.075,2.075,0,0,1-1.309.232,3.285,3.285,0,0,1-1.2-.446l-96.152-55.514a5.767,5.767,0,0,1-1.393-1.133,7.754,7.754,0,0,1-2.088-4.9V48.5a3.327,3.327,0,0,1,.214-1.266,2.124,2.124,0,0,1,.806-.99l.087-.049a1.458,1.458,0,0,1,.276-.116,2.881,2.881,0,0,1,2.1.411l88.56,51.13L564.513,102a5.665,5.665,0,0,1,1.393,1.13A7.739,7.739,0,0,1,567.994,108.031Zm-2.576,140.095c0-.038.019-141.512,0-141.723a2.067,2.067,0,0,0-.414-.987,2.35,2.35,0,0,0-.928-.693c-.027-.013-95.673-55.254-95.805-55.316-.446-.2-.809,0-.819.576,0,.027.005,141.244,0,141.558a2.033,2.033,0,0,0,.079.744,2.158,2.158,0,0,0,.508.85,2.683,2.683,0,0,0,.763.5c.029.016,94.258,54.427,94.288,54.445,1.068.625.947.533,1.228.706a1.484,1.484,0,0,0,.49.23.469.469,0,0,0,.508-.2A1.148,1.148,0,0,0,565.419,248.126Z" transform="translate(-464.88 -44.617)" fill="#a5b3bf"/>
        <path id="Trazado_129048" data-name="Trazado 129048" d="M566.179,107.391c.022.211,0,141.685,0,141.723a1.148,1.148,0,0,1-.106.693.469.469,0,0,1-.508.2,1.484,1.484,0,0,1-.49-.23c-.281-.173-.16-.081-1.228-.706-.03-.019-94.259-54.429-94.288-54.445a2.683,2.683,0,0,1-.763-.5,2.158,2.158,0,0,1-.508-.85,2.033,2.033,0,0,1-.079-.744c.005-.314,0-141.531,0-141.558.011-.576.373-.776.819-.576.133.062,95.778,55.3,95.805,55.316a2.351,2.351,0,0,1,.928.693A2.067,2.067,0,0,1,566.179,107.391Z" transform="translate(-465.643 -45.604)" fill="url(#linear-gradient)"/>
        <path id="Trazado_129049" data-name="Trazado 129049" d="M582.532,147.45v33.917a2.125,2.125,0,0,1-3.188,1.84l-21.23-12.258V168.5l20.6,11.891a1.132,1.132,0,0,0,1.7-.981V148.681a2.126,2.126,0,0,0-1.062-1.84l-18.71-10.8v-2.451l20.841,12.032A2.109,2.109,0,0,1,582.532,147.45Z" transform="translate(-486.239 -64.68)" fill="#fcfcfc" opacity="0.69"/>
        <path id="Trazado_129050" data-name="Trazado 129050" d="M594.651,266.561a2.873,2.873,0,0,0,.7-2.023V122.706a7.739,7.739,0,0,0-2.088-4.9,5.665,5.665,0,0,0-1.393-1.13l-7.593-4.385.368-.638,1.285-.744v-.8l.027-.049,9.194,5.307a6.294,6.294,0,0,1,2.97,5.147V262.352a3.642,3.642,0,0,1-1.739,3.259c-.668.382-1.331.768-2,1.153A1.521,1.521,0,0,0,594.651,266.561Z" transform="translate(-492.232 -59.291)" fill="#717f90"/>
        <path id="Trazado_129051" data-name="Trazado 129051" d="M573.643,102.892q4.787,2.767,9.572,5.529l-.027.049-1.285.744-9.575-5.529,1.287-.744Z" transform="translate(-489.496 -57.648)" fill="#a5b3bf"/>
        <path id="Trazado_129052" data-name="Trazado 129052" d="M586.034,110.127v.8l-1.285.744v-.8Z" transform="translate(-492.341 -59.306)" fill="#717f90"/>
        <path id="Trazado_129053" data-name="Trazado 129053" d="M574.474,158.783a10.5,10.5,0,0,1,1.125,5.353l-6.646-3.838a7.458,7.458,0,0,0,.831,3.243,4.945,4.945,0,0,0,1.863,2.034c1.169.677,1.913.346,2.348-.89q.783.568,1.56,1.139a2.326,2.326,0,0,1-1.366,1.818,3.153,3.153,0,0,1-2.553-.543,9.122,9.122,0,0,1-4.244-8.082q0-2.764,1.158-3.622t3,.208A7.685,7.685,0,0,1,574.474,158.783Zm-5.437.038,4.977,2.872a6.571,6.571,0,0,0-.57-2.4,4.845,4.845,0,0,0-1.872-2.153,1.626,1.626,0,0,0-1.75-.157A2.169,2.169,0,0,0,569.036,158.821Z" transform="translate(-488.365 -69.588)" fill="#d2448d"/>
        <path id="Trazado_129054" data-name="Trazado 129054" d="M574.5,162.222l-4.977-2.872a2.169,2.169,0,0,1,.785-1.839,1.626,1.626,0,0,1,1.75.157,4.845,4.845,0,0,1,1.872,2.153A6.571,6.571,0,0,1,574.5,162.222Z" transform="translate(-488.853 -70.117)" fill="url(#linear-gradient-2)"/>
        <path id="Trazado_129055" data-name="Trazado 129055" d="M572.329,103.92l9.575,5.529v.8l-9.575-5.529Z" transform="translate(-489.496 -57.884)" fill="#c8d1dd"/>
        <path id="Trazado_129056" data-name="Trazado 129056" d="M562.749,150.736V160.2a8.616,8.616,0,0,1-.425,3.38,1.594,1.594,0,0,1-1.341.912,4,4,0,0,1-2.261-.687,7.733,7.733,0,0,1-2.578-2.37,5.4,5.4,0,0,1-.949-3.2c.49.37.979.744,1.469,1.114a3.263,3.263,0,0,0,.513,1.513,4.589,4.589,0,0,0,1.534,1.4,2.148,2.148,0,0,0,1.62.419,1.253,1.253,0,0,0,.773-1,12.7,12.7,0,0,0,.108-2.321,1.972,1.972,0,0,1-2.467.011A6.978,6.978,0,0,1,555.9,156.1a10.743,10.743,0,0,1-1.006-4.49c0-2.986,1.26-4.931,3.86-3.433a6.723,6.723,0,0,1,2.6,3.07v-1.32C561.818,150.2,562.284,150.468,562.749,150.736Zm-2.115,7.211q.705-.579.705-2.683a7.575,7.575,0,0,0-.728-3.449,4.656,4.656,0,0,0-1.75-2.031,1.377,1.377,0,0,0-1.712.016,3.413,3.413,0,0,0-.7,2.578,7.956,7.956,0,0,0,.7,3.548,4.567,4.567,0,0,0,1.747,2A1.435,1.435,0,0,0,560.634,157.947Z" transform="translate(-485.502 -67.905)" fill="#d2448d"/>
        <path id="Trazado_129057" data-name="Trazado 129057" d="M561.8,155.808q0,2.106-.705,2.683a1.436,1.436,0,0,1-1.745-.024,4.567,4.567,0,0,1-1.747-2,7.956,7.956,0,0,1-.7-3.548,3.413,3.413,0,0,1,.7-2.578,1.377,1.377,0,0,1,1.712-.016,4.656,4.656,0,0,1,1.75,2.031A7.575,7.575,0,0,1,561.8,155.808Z" transform="translate(-485.963 -68.449)" fill="url(#linear-gradient-3)"/>
        <path id="Trazado_129058" data-name="Trazado 129058" d="M550.789,154.769l-1.577-.908a6.7,6.7,0,0,1-.3-1.526,3.254,3.254,0,0,1-3.281-.3,5.8,5.8,0,0,1-3.046-4.893,2.487,2.487,0,0,1,.3-1.3,1.277,1.277,0,0,1,.779-.617,3.936,3.936,0,0,1,2.431.517,11.685,11.685,0,0,0,2.694.917,4.137,4.137,0,0,0-.422-2.326,4.665,4.665,0,0,0-1.72-1.624,2.207,2.207,0,0,0-1.572-.449c-.341.111-.59.509-.752,1.19l-1.477-1.1a2.793,2.793,0,0,1,.663-1.5c1.155-1.128,4.1.7,5.212,1.85,1.452,1.512,1.607,2.759,1.594,4.725-.005,1.028-.019,4.772.1,5.81A7.075,7.075,0,0,0,550.789,154.769Zm-2.248-4.257a6.649,6.649,0,0,0,.244-2.4c-1.307-.1-3.022-1.082-3.787-1.112-.571-.024-.806.449-.806,1.02a3.341,3.341,0,0,0,1.8,2.77C546.945,151.345,548.043,151.491,548.541,150.512Z" transform="translate(-482.681 -66.264)" fill="#d2448d"/>
        <path id="Trazado_129059" data-name="Trazado 129059" d="M549.263,150.047a6.649,6.649,0,0,1-.244,2.4c-.5.979-1.6.833-2.553.281a3.341,3.341,0,0,1-1.8-2.77c0-.57.235-1.044.806-1.02C546.241,148.966,547.956,149.95,549.263,150.047Z" transform="translate(-483.159 -68.196)" fill="url(#linear-gradient-4)"/>
        <path id="Trazado_129060" data-name="Trazado 129060" d="M538.027,136.03v10.952c-.452-.259-.9-.522-1.352-.782v-1.607q-1.038,1.253-2.826.222a6.447,6.447,0,0,1-2.488-2.74,7.9,7.9,0,0,1-.557-3.433q-.008-3.4,0-6.784c.5.29,1.006.582,1.509.871,0,5.518-.035,7.306.092,8.088a3.69,3.69,0,0,0,1.747,2.575c.809.468,1.756.5,2.118-.37a5.692,5.692,0,0,0,.249-2v-5.867Q537.272,135.593,538.027,136.03Z" transform="translate(-479.982 -64.284)" fill="#d2448d"/>
        <path id="Trazado_129061" data-name="Trazado 129061" d="M525.551,129.262v9.464a8.635,8.635,0,0,1-.425,3.381,1.593,1.593,0,0,1-1.342.911,4.007,4.007,0,0,1-2.261-.687,7.74,7.74,0,0,1-2.578-2.369,5.385,5.385,0,0,1-.947-3.2l1.469,1.115a3.243,3.243,0,0,0,.511,1.512,4.559,4.559,0,0,0,1.536,1.4,2.143,2.143,0,0,0,1.62.419,1.255,1.255,0,0,0,.771-1,12.354,12.354,0,0,0,.109-2.318,1.976,1.976,0,0,1-2.467.008,6.98,6.98,0,0,1-2.845-3.273,10.742,10.742,0,0,1-1.007-4.49c0-2.978,1.258-4.934,3.86-3.432a6.707,6.707,0,0,1,2.6,3.07v-1.32C524.622,128.724,525.085,128.991,525.551,129.262Zm-2.115,7.209q.705-.58.706-2.684a7.612,7.612,0,0,0-.725-3.448,4.672,4.672,0,0,0-1.75-2.031,1.379,1.379,0,0,0-1.712.016,3.4,3.4,0,0,0-.706,2.578,7.9,7.9,0,0,0,.7,3.548,4.542,4.542,0,0,0,1.745,2A1.434,1.434,0,0,0,523.435,136.471Z" transform="translate(-476.98 -62.985)" fill="#d2448d"/>
        <path id="Trazado_129062" data-name="Trazado 129062" d="M524.6,134.331q0,2.106-.706,2.684a1.434,1.434,0,0,1-1.745-.025,4.542,4.542,0,0,1-1.745-2,7.9,7.9,0,0,1-.7-3.548,3.4,3.4,0,0,1,.706-2.578,1.379,1.379,0,0,1,1.712-.016,4.671,4.671,0,0,1,1.75,2.031A7.612,7.612,0,0,1,524.6,134.331Z" transform="translate(-477.441 -63.53)" fill="url(#linear-gradient-5)"/>
        <path id="Trazado_129063" data-name="Trazado 129063" d="M512.736,122.469a7.823,7.823,0,0,1,.554,3.5q-.008,3.363,0,6.735c-.5-.292-1.006-.581-1.512-.873,0-6.946.059-7.571-.177-8.458a3.734,3.734,0,0,0-1.677-2.2,1.72,1.72,0,0,0-1.666-.208q-.7.349-.7,2.451v5.981l-1.512-.871V117.565c.454.263.906.525,1.361.785v1.558q.982-1.237,2.837-.168A6.28,6.28,0,0,1,512.736,122.469Z" transform="translate(-474.311 -61.01)" fill="#d2448d"/>
        <path id="Trazado_129064" data-name="Trazado 129064" d="M494.7,133.949v2.138l-20.228-11.68a2.124,2.124,0,0,1-1.063-1.84V90.272a2.123,2.123,0,0,1,3.185-1.842L492.5,97.614v2.138L477.1,90.86a1.226,1.226,0,0,0-1.838,1.062v30.8Z" transform="translate(-466.835 -54.269)" fill="#fcfcfc" opacity="0.69"/>
        <path id="Trazado_129065" data-name="Trazado 129065" d="M501.19,126.135q-.786-.454-1.576-.909a6.608,6.608,0,0,1-.3-1.525,3.254,3.254,0,0,1-3.281-.3,5.808,5.808,0,0,1-3.046-4.894,2.509,2.509,0,0,1,.3-1.3,1.29,1.29,0,0,1,.782-.617,3.935,3.935,0,0,1,2.429.517,11.667,11.667,0,0,0,2.694.917,4.165,4.165,0,0,0-.419-2.327,4.714,4.714,0,0,0-1.721-1.623,2.2,2.2,0,0,0-1.574-.449q-.508.167-.752,1.19-.739-.548-1.477-1.1a2.833,2.833,0,0,1,.662-1.5c1.158-1.128,4.107.7,5.213,1.85,1.455,1.512,1.607,2.759,1.6,4.725-.008,1.028-.022,4.772.1,5.807A7.053,7.053,0,0,0,501.19,126.135Zm-2.247-4.257a6.644,6.644,0,0,0,.243-2.4c-1.3-.1-3.021-1.082-3.784-1.112-.571-.025-.806.449-.806,1.02a3.336,3.336,0,0,0,1.8,2.77C497.35,122.711,498.447,122.857,498.943,121.878Z" transform="translate(-471.318 -59.704)" fill="#d2448d"/>
        <path id="Trazado_129066" data-name="Trazado 129066" d="M499.665,121.413a6.644,6.644,0,0,1-.243,2.4c-.5.979-1.593.833-2.551.281a3.336,3.336,0,0,1-1.8-2.77c0-.571.235-1.045.806-1.02C496.644,120.332,498.361,121.316,499.665,121.413Z" transform="translate(-471.797 -61.636)" fill="url(#linear-gradient-6)"/>
        <path id="Trazado_129067" data-name="Trazado 129067" d="M490.163,102.991v15.117l-1.512-.871V102.12Z" transform="translate(-470.326 -57.471)" fill="#d2448d"/>
        <path id="Trazado_129068" data-name="Trazado 129068" d="M489.024,54.233c.8.208.866.8.338,1.087-.907.49-2.318-.013-1.916-.711a.774.774,0,0,1,.382-.3A1.858,1.858,0,0,1,489.024,54.233Z" transform="translate(-470.034 -46.487)" fill="#596876"/>
        <path id="Trazado_129069" data-name="Trazado 129069" d="M485.663,52.293c.795.208.863.8.338,1.085-.909.492-2.32-.011-1.917-.709a.782.782,0,0,1,.381-.294A1.867,1.867,0,0,1,485.663,52.293Z" transform="translate(-469.263 -46.042)" fill="#596876"/>
        <path id="Trazado_129070" data-name="Trazado 129070" d="M481.1,50.431c.92-.395,2.189.1,1.8.766a.661.661,0,0,1-.271.241c-.906.493-2.317-.011-1.915-.708A.782.782,0,0,1,481.1,50.431Z" transform="translate(-468.493 -45.598)" fill="#596876"/>
        <path id="Trazado_129071" data-name="Trazado 129071" d="M478.937,48.409c.792.209.865.8.338,1.088-.9.484-2.326,0-1.915-.712a.77.77,0,0,1,.382-.294A1.86,1.86,0,0,1,478.937,48.409Z" transform="translate(-467.722 -45.152)" fill="#596876"/>
        <path id="Trazado_129072" data-name="Trazado 129072" d="M474.377,46.55c.917-.395,2.191.095,1.8.763a.646.646,0,0,1-.271.241c-.906.493-2.318-.011-1.915-.708A.785.785,0,0,1,474.377,46.55Z" transform="translate(-466.952 -44.708)" fill="#596876"/>
        <path id="Trazado_129073" data-name="Trazado 129073" d="M474.437,46.808c.387-.668-.887-1.158-1.8-.763a.785.785,0,0,0-.382.3c-.4.7,1.009,1.2,1.915.708A.646.646,0,0,0,474.437,46.808Zm2.323,1.739c.527-.287.455-.879-.338-1.088a1.86,1.86,0,0,0-1.2.082.77.77,0,0,0-.382.294C474.435,48.544,475.863,49.031,476.761,48.547Zm2.862,1.255c.385-.665-.884-1.16-1.8-.766a.782.782,0,0,0-.382.3c-.4.7,1.009,1.2,1.915.708A.662.662,0,0,0,479.622,49.8Zm2.323,1.737c.525-.284.457-.877-.338-1.085a1.867,1.867,0,0,0-1.2.081.782.782,0,0,0-.381.294C479.625,51.528,481.037,52.031,481.946,51.539Zm2.253.411a1.858,1.858,0,0,0-1.2.081.774.774,0,0,0-.382.3c-.4.7,1.009,1.2,1.916.711C485.065,52.75,484.995,52.158,484.2,51.95ZM557.249,97.2l-88.56-51.13a2.881,2.881,0,0,0-2.1-.411,1.457,1.457,0,0,0-.276.116c.651-.376,1.309-.755,1.961-1.134a3.661,3.661,0,0,1,3.692.122q38.694,22.344,77.388,44.679l-.027.049-1.287.744v.8l9.575,5.529Z" transform="translate(-465.209 -44.203)" fill="#717f90"/>
        <g id="Grupo_94036" data-name="Grupo 94036" transform="translate(31.535 80.482)">
          <path id="Trazado_129074" data-name="Trazado 129074" d="M506.5,149.676v1.181a.449.449,0,0,0,.062.243.606.606,0,0,0,.211.183l.305.176.042.293a1.73,1.73,0,0,1-.227-.093c-.091-.042-.167-.082-.227-.116a1.05,1.05,0,0,1-.384-.362.907.907,0,0,1-.132-.481v-1.227l-.364-.21v-.256l.364.189V148.6l.351.2v.594l.64.37v.277Z" transform="translate(-505.786 -148.602)"/>
          <path id="Trazado_129075" data-name="Trazado 129075" d="M509.479,151.372a1.383,1.383,0,0,1,.3.506,2.146,2.146,0,0,1,.093.671,1.279,1.279,0,0,1-.093.568.286.286,0,0,1-.3.16,1.445,1.445,0,0,1-.556-.217,2.369,2.369,0,0,1-.554-.422,1.364,1.364,0,0,1-.3-.506,2.18,2.18,0,0,1-.092-.675,1.278,1.278,0,0,1,.092-.564.29.29,0,0,1,.3-.162,1.408,1.408,0,0,1,.554.214A2.337,2.337,0,0,1,509.479,151.372Zm-.9-.261a.177.177,0,0,0-.177.129,1.241,1.241,0,0,0-.054.429,1.893,1.893,0,0,0,.054.491.825.825,0,0,0,.177.334,1.373,1.373,0,0,0,.347.268.835.835,0,0,0,.349.133.177.177,0,0,0,.18-.127,1.247,1.247,0,0,0,.053-.429,1.9,1.9,0,0,0-.053-.492.828.828,0,0,0-.18-.335,1.4,1.4,0,0,0-.349-.27A.817.817,0,0,0,508.576,151.112Z" transform="translate(-506.288 -149.09)"/>
          <path id="Trazado_129076" data-name="Trazado 129076" d="M512.4,152.872l-.042.307-.116-.067a1.051,1.051,0,0,0-.318-.123,3.7,3.7,0,0,0-.433-.055v1.475l-.352-.2v-2.011l.273.157.037.339a1.154,1.154,0,0,1,.859.129Z" transform="translate(-507.013 -149.425)"/>
          <path id="Trazado_129077" data-name="Trazado 129077" d="M513.733,153.851v1.182a.441.441,0,0,0,.062.242.6.6,0,0,0,.21.183l.306.177.041.292a1.814,1.814,0,0,1-.227-.092c-.091-.043-.167-.082-.227-.117a1.05,1.05,0,0,1-.384-.362.9.9,0,0,1-.133-.481v-1.227l-.363-.21v-.256l.363.189v-.594l.352.2v.594l.64.37v.277Z" transform="translate(-507.443 -149.558)"/>
          <path id="Trazado_129078" data-name="Trazado 129078" d="M516.711,155.547a1.382,1.382,0,0,1,.3.506,2.14,2.14,0,0,1,.093.671,1.277,1.277,0,0,1-.093.568.286.286,0,0,1-.3.16,1.441,1.441,0,0,1-.556-.217,2.368,2.368,0,0,1-.553-.422,1.364,1.364,0,0,1-.3-.506,2.178,2.178,0,0,1-.093-.675,1.28,1.28,0,0,1,.093-.564.292.292,0,0,1,.3-.162,1.411,1.411,0,0,1,.553.215A2.329,2.329,0,0,1,516.711,155.547Zm-.9-.261a.179.179,0,0,0-.178.129,1.244,1.244,0,0,0-.053.429,1.9,1.9,0,0,0,.053.491.839.839,0,0,0,.178.335,1.41,1.41,0,0,0,.347.268.855.855,0,0,0,.348.133.18.18,0,0,0,.18-.128,1.248,1.248,0,0,0,.053-.429,1.893,1.893,0,0,0-.053-.491.832.832,0,0,0-.18-.335,1.4,1.4,0,0,0-.348-.27A.817.817,0,0,0,515.808,155.287Z" transform="translate(-507.945 -150.046)"/>
          <path id="Trazado_129079" data-name="Trazado 129079" d="M519.635,157.047l-.042.307-.116-.067a1.079,1.079,0,0,0-.318-.123,3.718,3.718,0,0,0-.434-.055v1.475l-.351-.2v-2.011l.272.157.038.34a1.155,1.155,0,0,1,.859.128Z" transform="translate(-508.67 -150.381)"/>
          <path id="Trazado_129080" data-name="Trazado 129080" d="M523.042,159.189a1.022,1.022,0,0,1,.17.6V161.2l-.277-.16-.042-.358a.763.763,0,0,1-.362.051,1.078,1.078,0,0,1-.469-.159,1.313,1.313,0,0,1-.439-.4.891.891,0,0,1-.163-.51v-.219c0-.157.049-.251.146-.281a.555.555,0,0,1,.411.107l.839.484v-.178a.557.557,0,0,0-.087-.318.97.97,0,0,0-.321-.264q-.3-.171-.863-.445l-.033-.279a8.308,8.308,0,0,1,.971.469A1.587,1.587,0,0,1,523.042,159.189Zm-.545,1.257a.786.786,0,0,0,.359-.015v-.409l-.776-.444c-.094-.051-.16-.065-.2-.041s-.06.079-.06.167v.129a.477.477,0,0,0,.079.276.745.745,0,0,0,.247.214A1.065,1.065,0,0,0,522.5,160.445Z" transform="translate(-509.377 -150.817)"/>
          <path id="Trazado_129081" data-name="Trazado 129081" d="M524.9,161.332a.429.429,0,0,0,.072.242.592.592,0,0,0,.2.186l.194.113.041.292a.672.672,0,0,1-.165-.056c-.074-.033-.142-.068-.2-.1a1.02,1.02,0,0,1-.359-.342.839.839,0,0,1-.132-.454v-2.416l.351.2Z" transform="translate(-510.085 -150.937)"/>
          <path id="Trazado_129082" data-name="Trazado 129082" d="M526.516,160.08v.236c0,.072-.036.086-.107.045l-.165-.095a.19.19,0,0,1-.108-.17v-.235c0-.033.009-.054.027-.063s.045,0,.081.018l.165.095A.189.189,0,0,1,526.516,160.08Zm-.016,2.749-.347-.2v-2.011l.347.2Z" transform="translate(-510.448 -151.166)"/>
          <path id="Trazado_129083" data-name="Trazado 129083" d="M528.7,162.4a4.942,4.942,0,0,1,.45.363v2.751l-.351-.2,0-.692a1.952,1.952,0,0,1,.033-.394,1.048,1.048,0,0,1-.8-.136,1.262,1.262,0,0,1-.52-.554,2.074,2.074,0,0,1-.169-.9,1.386,1.386,0,0,1,.083-.547.292.292,0,0,1,.281-.187,1.161,1.161,0,0,1,.541.194A5.416,5.416,0,0,1,528.7,162.4Zm-.908,1.075a.794.794,0,0,0,.351.37.869.869,0,0,0,.305.115,1.5,1.5,0,0,0,.352,0v-1.173a3.755,3.755,0,0,0-.52-.366.839.839,0,0,0-.347-.134.178.178,0,0,0-.18.132,1.322,1.322,0,0,0-.056.455A1.577,1.577,0,0,0,527.8,163.479Z" transform="translate(-510.724 -151.65)"/>
          <path id="Trazado_129084" data-name="Trazado 129084" d="M532.224,164.365v2.011l-.281-.163-.025-.308a1.3,1.3,0,0,1-.443,0,1.267,1.267,0,0,1-.423-.157,1.156,1.156,0,0,1-.412-.378.913.913,0,0,1-.138-.493v-1.512l.351.2v1.412a.559.559,0,0,0,.071.309.685.685,0,0,0,.247.221.875.875,0,0,0,.31.111,1.946,1.946,0,0,0,.392.005v-1.47Z" transform="translate(-511.448 -151.985)"/>
          <path id="Trazado_129085" data-name="Trazado 129085" d="M535.009,166.1a1.021,1.021,0,0,1,.169.6v1.417l-.276-.16-.042-.358a.772.772,0,0,1-.362.052,1.087,1.087,0,0,1-.469-.16,1.314,1.314,0,0,1-.439-.4.891.891,0,0,1-.163-.51v-.219c0-.156.049-.251.146-.281a.559.559,0,0,1,.411.107l.839.484v-.178a.557.557,0,0,0-.087-.318.979.979,0,0,0-.321-.264q-.3-.171-.863-.445l-.033-.279a8.308,8.308,0,0,1,.971.469A1.587,1.587,0,0,1,535.009,166.1Zm-.545,1.257a.786.786,0,0,0,.359-.015v-.409l-.776-.444c-.094-.052-.16-.066-.2-.042s-.06.079-.06.168v.128a.477.477,0,0,0,.079.276.745.745,0,0,0,.247.214A1.065,1.065,0,0,0,534.464,167.354Z" transform="translate(-512.118 -152.4)"/>
          <path id="Trazado_129086" data-name="Trazado 129086" d="M539.36,168.576a.907.907,0,0,1,.139.493v1.507l-.348-.2v-1.408a.65.65,0,0,0-.076-.315.618.618,0,0,0-.237-.221.668.668,0,0,0-.279-.095,1.82,1.82,0,0,0-.382.023v1.453l-.339-.2v-1.408a.607.607,0,0,0-.076-.317.647.647,0,0,0-.237-.22.676.676,0,0,0-.278-.095,1.826,1.826,0,0,0-.382.023v1.454l-.352-.2v-2.011l.29.167.02.329a1.047,1.047,0,0,1,.416-.037,1.084,1.084,0,0,1,.406.144.979.979,0,0,1,.508.653,1.007,1.007,0,0,1,.809.108A1.123,1.123,0,0,1,539.36,168.576Z" transform="translate(-512.825 -152.78)"/>
          <path id="Trazado_129087" data-name="Trazado 129087" d="M507.689,156.718a.914.914,0,0,1,.138.493v1.507l-.351-.2v-1.408a.632.632,0,0,0-.066-.315.574.574,0,0,0-.223-.207.923.923,0,0,0-.331-.119,2.874,2.874,0,0,0-.446-.015V157.9l-.352-.2v-2.011l.3.172.025.332a1.267,1.267,0,0,1,.9.153A1.145,1.145,0,0,1,507.689,156.718Z" transform="translate(-505.849 -150.225)"/>
          <path id="Trazado_129088" data-name="Trazado 129088" d="M510.878,158.469v2.011l-.281-.163-.025-.308a1.3,1.3,0,0,1-.444,0,1.267,1.267,0,0,1-.423-.157,1.16,1.16,0,0,1-.411-.378.913.913,0,0,1-.138-.493v-1.512l.351.2v1.412a.566.566,0,0,0,.07.309.685.685,0,0,0,.247.221.879.879,0,0,0,.31.111,1.947,1.947,0,0,0,.392.005v-1.47Z" transform="translate(-506.558 -150.635)"/>
          <path id="Trazado_129089" data-name="Trazado 129089" d="M512.578,160.647a.434.434,0,0,0,.072.242.6.6,0,0,0,.2.186l.194.113.042.292a.675.675,0,0,1-.166-.056,2.147,2.147,0,0,1-.2-.1,1.007,1.007,0,0,1-.359-.342.84.84,0,0,1-.132-.454v-2.416l.351.2Z" transform="translate(-507.263 -150.78)"/>
          <path id="Trazado_129090" data-name="Trazado 129090" d="M514.169,161.566a.429.429,0,0,0,.072.242.585.585,0,0,0,.2.186l.194.112.041.293a.673.673,0,0,1-.165-.056c-.075-.034-.142-.068-.2-.1a1.019,1.019,0,0,1-.359-.341.839.839,0,0,1-.132-.454v-2.416l.351.2Z" transform="translate(-507.627 -150.991)"/>
          <path id="Trazado_129091" data-name="Trazado 129091" d="M516.845,162.039a1.024,1.024,0,0,1,.169.6v1.416l-.276-.16-.042-.358a.763.763,0,0,1-.362.052,1.1,1.1,0,0,1-.469-.159,1.324,1.324,0,0,1-.439-.4.886.886,0,0,1-.163-.509V162.3c0-.157.049-.251.146-.281a.558.558,0,0,1,.411.107l.839.484v-.177a.555.555,0,0,0-.087-.318.969.969,0,0,0-.321-.264q-.3-.172-.863-.445l-.033-.28a8.187,8.187,0,0,1,.971.47A1.586,1.586,0,0,1,516.845,162.039ZM516.3,163.3a.766.766,0,0,0,.359-.015v-.409l-.776-.444c-.094-.052-.16-.065-.2-.042s-.06.08-.06.168v.128a.481.481,0,0,0,.079.277.735.735,0,0,0,.247.213A1.031,1.031,0,0,0,516.3,163.3Z" transform="translate(-507.957 -151.47)"/>
          <path id="Trazado_129092" data-name="Trazado 129092" d="M519.985,162.985c-.054.019-.08.092-.08.215v.322l.644.372v.277l-.644-.372v1.735l-.352-.2V163.6l-.363-.21v-.256l.363.189v-.359c0-.2.045-.316.136-.363s.241-.009.45.111q.347.2.566.356l-.029.243-.412-.238C520.131,162.993,520.039,162.965,519.985,162.985Z" transform="translate(-508.857 -151.804)"/>
          <path id="Trazado_129093" data-name="Trazado 129093" d="M522.93,165.553a1.02,1.02,0,0,1,.169.6v1.416l-.276-.16-.042-.358a.753.753,0,0,1-.362.052,1.1,1.1,0,0,1-.469-.159,1.314,1.314,0,0,1-.439-.4.886.886,0,0,1-.163-.509v-.219c0-.157.049-.251.146-.281a.558.558,0,0,1,.411.107l.839.484v-.177a.557.557,0,0,0-.087-.318.969.969,0,0,0-.321-.264q-.3-.172-.863-.445l-.033-.279a8.187,8.187,0,0,1,.971.469A1.578,1.578,0,0,1,522.93,165.553Zm-.545,1.257a.775.775,0,0,0,.359-.016v-.409l-.776-.444c-.094-.052-.16-.065-.2-.042s-.06.08-.06.168v.128a.481.481,0,0,0,.079.277.735.735,0,0,0,.247.213A1.049,1.049,0,0,0,522.385,166.809Z" transform="translate(-509.351 -152.275)"/>
          <path id="Trazado_129094" data-name="Trazado 129094" d="M525.6,167.025a2.814,2.814,0,0,1,.311.253l-.045.2c-.182-.121-.363-.234-.545-.339a1,1,0,0,0-.384-.153.187.187,0,0,0-.2.114,1.023,1.023,0,0,0-.062.422,1.683,1.683,0,0,0,.062.5.885.885,0,0,0,.2.346,1.634,1.634,0,0,0,.384.289,5.312,5.312,0,0,0,.591.3l.037.257a2.623,2.623,0,0,1-.69-.3,2.394,2.394,0,0,1-.557-.425,1.391,1.391,0,0,1-.3-.507,2.139,2.139,0,0,1-.095-.676,1.255,1.255,0,0,1,.095-.567.287.287,0,0,1,.3-.156,1.5,1.5,0,0,1,.562.224Q525.424,166.9,525.6,167.025Z" transform="translate(-510.029 -152.721)"/>
          <path id="Trazado_129095" data-name="Trazado 129095" d="M527.434,167.038v.236c0,.071-.036.086-.108.045l-.165-.095a.19.19,0,0,1-.108-.17v-.235c0-.033.009-.054.027-.063s.045,0,.081.018l.165.095A.19.19,0,0,1,527.434,167.038Zm-.017,2.749-.347-.2v-2.011l.347.2Z" transform="translate(-510.658 -152.76)"/>
          <path id="Trazado_129096" data-name="Trazado 129096" d="M528.734,169.975a.429.429,0,0,0,.073.242.591.591,0,0,0,.2.186l.194.113.041.292a.673.673,0,0,1-.165-.056c-.074-.033-.142-.068-.2-.1a1.019,1.019,0,0,1-.359-.341.839.839,0,0,1-.132-.454v-2.416l.351.2Z" transform="translate(-510.964 -152.917)"/>
          <path id="Trazado_129097" data-name="Trazado 129097" d="M530.353,168.724v.235c0,.072-.036.086-.108.046l-.165-.1a.189.189,0,0,1-.107-.17V168.5c0-.033.008-.054.027-.063s.044,0,.08.018l.165.1A.189.189,0,0,1,530.353,168.724Zm-.017,2.749-.347-.2v-2.011l.347.2Z" transform="translate(-511.327 -153.146)"/>
          <path id="Trazado_129098" data-name="Trazado 129098" d="M532.338,170.872c.167.107.315.208.444.3l-.029.24c-.046-.027-.117-.07-.21-.13l-.271-.164q-.163-.1-.378-.222a1.815,1.815,0,0,0-.244-.124c-.056-.021-.095-.02-.12,0a.2.2,0,0,0-.038.146.4.4,0,0,0,.12.307,1.905,1.905,0,0,0,.173.152l.587.47a1.579,1.579,0,0,1,.357.39.832.832,0,0,1,.109.433.4.4,0,0,1-.091.315.282.282,0,0,1-.271.012,3.071,3.071,0,0,1-.5-.244,8.471,8.471,0,0,1-.789-.513l.025-.241q.323.2.558.338l.136.079a3.431,3.431,0,0,0,.362.188.223.223,0,0,0,.176.021c.035-.019.054-.069.054-.149a.367.367,0,0,0-.072-.23,1.646,1.646,0,0,0-.246-.235l-.578-.466a1.4,1.4,0,0,1-.351-.389.884.884,0,0,1-.1-.436.443.443,0,0,1,.074-.3.219.219,0,0,1,.23-.032,2.023,2.023,0,0,1,.419.2Q532.088,170.712,532.338,170.872Z" transform="translate(-511.597 -153.59)"/>
          <path id="Trazado_129099" data-name="Trazado 129099" d="M534.4,171.061v.236c0,.072-.036.086-.108.045l-.165-.095a.189.189,0,0,1-.107-.17v-.235c0-.033.009-.054.027-.063s.045,0,.08.018l.165.095A.19.19,0,0,1,534.4,171.061Zm-.017,2.749-.346-.2V171.6l.346.2Z" transform="translate(-512.255 -153.682)"/>
          <path id="Trazado_129100" data-name="Trazado 129100" d="M537.711,174.018a2.842,2.842,0,0,1,.312.252l-.046.2q-.272-.183-.545-.34a1.028,1.028,0,0,0-.384-.153.189.189,0,0,0-.2.115,1.039,1.039,0,0,0-.062.422,1.712,1.712,0,0,0,.062.5.89.89,0,0,0,.2.345,1.635,1.635,0,0,0,.384.29,5.227,5.227,0,0,0,.591.3l.037.257a2.6,2.6,0,0,1-.69-.294,2.4,2.4,0,0,1-.557-.426,1.37,1.37,0,0,1-.3-.506,2.141,2.141,0,0,1-.095-.676,1.252,1.252,0,0,1,.095-.567.286.286,0,0,1,.3-.156,1.5,1.5,0,0,1,.561.223C537.482,173.863,537.594,173.935,537.711,174.018Z" transform="translate(-512.803 -154.323)"/>
          <path id="Trazado_129101" data-name="Trazado 129101" d="M540.424,175.478l-.041.307-.116-.067a1.074,1.074,0,0,0-.318-.123,3.7,3.7,0,0,0-.433-.054v1.474l-.352-.2V174.8l.273.157.037.34a1.151,1.151,0,0,1,.859.129Z" transform="translate(-513.433 -154.604)"/>
          <path id="Trazado_129102" data-name="Trazado 129102" d="M542.75,177a1.021,1.021,0,0,1,.17.6v1.417l-.277-.16-.042-.358a.753.753,0,0,1-.362.052,1.088,1.088,0,0,1-.469-.159,1.308,1.308,0,0,1-.439-.4.893.893,0,0,1-.163-.509v-.219c0-.157.049-.251.146-.281a.557.557,0,0,1,.412.107l.838.483v-.177a.557.557,0,0,0-.087-.318.969.969,0,0,0-.322-.264q-.3-.171-.863-.445l-.033-.279a8.3,8.3,0,0,1,.971.469A1.586,1.586,0,0,1,542.75,177Zm-.545,1.257a.786.786,0,0,0,.359-.015v-.409l-.776-.444c-.094-.051-.16-.065-.2-.041s-.06.079-.06.167v.128a.479.479,0,0,0,.079.277.744.744,0,0,0,.247.214A1.063,1.063,0,0,0,542.2,178.252Z" transform="translate(-513.892 -154.897)"/>
          <path id="Trazado_129103" data-name="Trazado 129103" d="M545.291,178.35c.167.108.315.208.444.3l-.029.239q-.069-.04-.21-.13l-.271-.164c-.109-.066-.234-.14-.378-.223a1.915,1.915,0,0,0-.244-.124c-.056-.021-.095-.019-.12,0a.2.2,0,0,0-.038.146.4.4,0,0,0,.12.307,1.791,1.791,0,0,0,.173.152l.587.471a1.566,1.566,0,0,1,.357.39.831.831,0,0,1,.109.432.4.4,0,0,1-.091.315.285.285,0,0,1-.271.011,3.006,3.006,0,0,1-.5-.244,8.625,8.625,0,0,1-.789-.513l.025-.242c.215.135.4.248.558.338l.136.079a3.285,3.285,0,0,0,.362.188.223.223,0,0,0,.176.021c.035-.019.054-.069.054-.149a.369.369,0,0,0-.072-.23,1.649,1.649,0,0,0-.246-.234l-.578-.466a1.384,1.384,0,0,1-.351-.388.886.886,0,0,1-.1-.436.442.442,0,0,1,.074-.3.217.217,0,0,1,.23-.033,2.023,2.023,0,0,1,.419.2Q545.041,178.19,545.291,178.35Z" transform="translate(-514.564 -155.303)"/>
        </g>
        <g id="Grupo_94037" data-name="Grupo 94037" transform="translate(30.621 42.845)">
          <path id="Trazado_129104" data-name="Trazado 129104" d="M505.1,100.524v.819a.306.306,0,0,0,.043.167.4.4,0,0,0,.146.127l.212.123.029.2a1.254,1.254,0,0,1-.157-.064q-.095-.044-.157-.081a.735.735,0,0,1-.267-.251.632.632,0,0,1-.092-.334v-.85l-.251-.145v-.178l.251.131V99.78l.244.14v.412l.444.256v.192Z" transform="translate(-504.601 -99.78)"/>
          <path id="Trazado_129105" data-name="Trazado 129105" d="M507.334,101.585a.63.63,0,0,1,.1.342v1.045l-.246-.142v-.977a.443.443,0,0,0-.045-.217.388.388,0,0,0-.153-.143.659.659,0,0,0-.237-.085,1.652,1.652,0,0,0-.3-.008v1.005l-.244-.141v-2l.244.14,0,.554a1.62,1.62,0,0,1-.017.262,1.071,1.071,0,0,1,.318,0,.878.878,0,0,1,.3.109A.791.791,0,0,1,507.334,101.585Z" transform="translate(-504.969 -99.89)"/>
          <path id="Trazado_129106" data-name="Trazado 129106" d="M509.456,104.173l.025.178a1.074,1.074,0,0,1-.247-.086,3.147,3.147,0,0,1-.293-.149,1.634,1.634,0,0,1-.389-.3.99.99,0,0,1-.212-.355,1.471,1.471,0,0,1-.067-.468.869.869,0,0,1,.066-.393.2.2,0,0,1,.2-.109.973.973,0,0,1,.371.146,1.451,1.451,0,0,1,.455.375.7.7,0,0,1,.143.425c0,.129-.025.211-.08.247s-.14.021-.252-.044l-.647-.373a.912.912,0,0,0,.06.286.591.591,0,0,0,.137.2,1.3,1.3,0,0,0,.241.172A4.994,4.994,0,0,0,509.456,104.173Zm-.762-1.414a.117.117,0,0,0-.122.069.638.638,0,0,0-.044.249l.59.341c.1.059.152.019.152-.119a.4.4,0,0,0-.08-.238.891.891,0,0,0-.264-.209A.6.6,0,0,0,508.694,102.759Z" transform="translate(-505.442 -100.401)"/>
          <path id="Trazado_129107" data-name="Trazado 129107" d="M511.424,104.178V105a.306.306,0,0,0,.042.167.407.407,0,0,0,.146.127l.211.123.029.2a1.21,1.21,0,0,1-.158-.064c-.062-.029-.116-.056-.157-.081a.733.733,0,0,1-.266-.251.623.623,0,0,1-.092-.334v-.85l-.252-.145v-.178l.252.131v-.412l.244.14v.412l.443.256v.192Z" transform="translate(-506.05 -100.617)"/>
          <path id="Trazado_129108" data-name="Trazado 129108" d="M513.626,106.581l.025.178a1.155,1.155,0,0,1-.247-.086,3.265,3.265,0,0,1-.294-.15,1.666,1.666,0,0,1-.388-.3.992.992,0,0,1-.212-.356,1.464,1.464,0,0,1-.067-.468.863.863,0,0,1,.066-.392.2.2,0,0,1,.2-.109.982.982,0,0,1,.371.145,1.442,1.442,0,0,1,.455.376.7.7,0,0,1,.143.425c0,.129-.025.211-.08.247s-.14.022-.252-.043l-.647-.374a.91.91,0,0,0,.06.287.591.591,0,0,0,.137.2,1.339,1.339,0,0,0,.241.171A4.833,4.833,0,0,0,513.626,106.581Zm-.762-1.415a.119.119,0,0,0-.122.069.639.639,0,0,0-.044.25l.59.34c.1.059.151.019.151-.119a.4.4,0,0,0-.079-.237.891.891,0,0,0-.264-.21A.627.627,0,0,0,512.864,105.166Z" transform="translate(-506.398 -100.953)"/>
          <path id="Trazado_129109" data-name="Trazado 129109" d="M516.5,107.059a.629.629,0,0,1,.1.342v1.045l-.241-.14v-.976a.463.463,0,0,0-.053-.218.43.43,0,0,0-.164-.153.462.462,0,0,0-.193-.066,1.292,1.292,0,0,0-.264.015v1.008l-.235-.136V106.8a.425.425,0,0,0-.052-.22.448.448,0,0,0-.165-.153.469.469,0,0,0-.193-.066,1.25,1.25,0,0,0-.264.016v1.008l-.244-.141v-1.394l.2.116.015.229a.712.712,0,0,1,.288-.025.745.745,0,0,1,.282.1.678.678,0,0,1,.352.453.7.7,0,0,1,.561.075A.774.774,0,0,1,516.5,107.059Z" transform="translate(-506.875 -101.172)"/>
          <path id="Trazado_129110" data-name="Trazado 129110" d="M518.941,108.554a1.475,1.475,0,0,1,.115.621,1.011,1.011,0,0,1-.057.392.193.193,0,0,1-.172.13.607.607,0,0,1-.3-.1,1.985,1.985,0,0,1-.516-.441c.006.069.009.163.009.286v.4l-.244-.14v-1.97l.2.116.02.235a.453.453,0,0,1,.269-.034.905.905,0,0,1,.672.5Zm-.273.865c.049,0,.084-.032.106-.093a.927.927,0,0,0,.033-.294,1.471,1.471,0,0,0-.032-.33.54.54,0,0,0-.278-.375.544.544,0,0,0-.216-.075.99.99,0,0,0-.259.012v.745l.124.1c.066.056.125.1.176.14a1.67,1.67,0,0,0,.146.1A.412.412,0,0,0,518.668,109.419Z" transform="translate(-507.62 -101.602)"/>
          <path id="Trazado_129111" data-name="Trazado 129111" d="M521.026,110.853l.026.178a1.114,1.114,0,0,1-.248-.086c-.1-.046-.2-.1-.293-.149a1.628,1.628,0,0,1-.388-.3.979.979,0,0,1-.212-.355,1.464,1.464,0,0,1-.067-.468.871.871,0,0,1,.066-.393.2.2,0,0,1,.205-.109.971.971,0,0,1,.37.146,1.464,1.464,0,0,1,.456.375.71.71,0,0,1,.143.425c0,.13-.025.212-.08.247s-.139.021-.251-.044l-.647-.373a.869.869,0,0,0,.06.286.58.58,0,0,0,.137.2,1.271,1.271,0,0,0,.241.172A5.079,5.079,0,0,0,521.026,110.853Zm-.762-1.415a.116.116,0,0,0-.121.069.622.622,0,0,0-.045.249l.59.341c.1.059.152.019.152-.119a.4.4,0,0,0-.08-.238.891.891,0,0,0-.264-.209A.6.6,0,0,0,520.264,109.439Z" transform="translate(-508.093 -101.932)"/>
          <path id="Trazado_129112" data-name="Trazado 129112" d="M522.8,110.6l-.029.213-.08-.046a.742.742,0,0,0-.22-.086,2.535,2.535,0,0,0-.3-.038v1.022l-.243-.141v-1.394l.189.109.025.236a.8.8,0,0,1,.6.089Z" transform="translate(-508.57 -102.151)"/>
          <path id="Trazado_129113" data-name="Trazado 129113" d="M524.412,111.65a.71.71,0,0,1,.117.412v.982l-.192-.11-.029-.249a.53.53,0,0,1-.251.036.762.762,0,0,1-.325-.11.912.912,0,0,1-.305-.278.616.616,0,0,1-.113-.352v-.152c0-.109.033-.174.1-.2a.388.388,0,0,1,.285.075l.581.335v-.123a.384.384,0,0,0-.06-.22.671.671,0,0,0-.224-.183q-.206-.119-.6-.308l-.023-.193a5.739,5.739,0,0,1,.673.325A1.11,1.11,0,0,1,524.412,111.65Zm-.378.871a.548.548,0,0,0,.249-.011v-.284l-.538-.308c-.066-.035-.112-.045-.14-.029s-.041.055-.041.116v.089a.332.332,0,0,0,.054.191.5.5,0,0,0,.172.148A.715.715,0,0,0,524.034,112.521Z" transform="translate(-508.888 -102.354)"/>
          <path id="Trazado_129114" data-name="Trazado 129114" d="M525.76,112.455v.819a.309.309,0,0,0,.043.168.415.415,0,0,0,.146.127l.211.122.029.2a1.233,1.233,0,0,1-.157-.063c-.062-.03-.116-.057-.157-.081a.743.743,0,0,1-.267-.251.629.629,0,0,1-.091-.334v-.85l-.252-.146v-.177l.252.131v-.412l.243.141v.412l.444.256v.192Z" transform="translate(-509.335 -102.513)"/>
          <path id="Trazado_129115" data-name="Trazado 129115" d="M528.052,113.665v1.394l-.2-.112-.017-.214a.9.9,0,0,1-.308,0,.867.867,0,0,1-.293-.109.8.8,0,0,1-.285-.262.633.633,0,0,1-.1-.342v-1.048l.244.14v.979a.381.381,0,0,0,.049.214.466.466,0,0,0,.172.153.6.6,0,0,0,.214.077,1.346,1.346,0,0,0,.272,0v-1.019Z" transform="translate(-509.7 -102.803)"/>
          <path id="Trazado_129116" data-name="Trazado 129116" d="M529.859,114.674l-.029.212-.08-.046a.742.742,0,0,0-.22-.086,2.538,2.538,0,0,0-.3-.038v1.022l-.243-.14V114.2l.189.109.025.235a.8.8,0,0,1,.6.089Z" transform="translate(-510.187 -103.084)"/>
          <path id="Trazado_129117" data-name="Trazado 129117" d="M531.52,116.912l.025.178A1.155,1.155,0,0,1,531.3,117a3.263,3.263,0,0,1-.294-.15,1.643,1.643,0,0,1-.388-.3.989.989,0,0,1-.212-.355,1.47,1.47,0,0,1-.067-.469.863.863,0,0,1,.066-.392.2.2,0,0,1,.2-.109.982.982,0,0,1,.371.145,1.452,1.452,0,0,1,.455.376.7.7,0,0,1,.143.425c0,.129-.025.211-.08.247s-.14.022-.252-.043l-.647-.374a.91.91,0,0,0,.06.287.59.59,0,0,0,.137.2,1.3,1.3,0,0,0,.24.171A4.832,4.832,0,0,0,531.52,116.912Zm-.762-1.415a.119.119,0,0,0-.122.069.639.639,0,0,0-.044.25l.59.34c.1.059.151.019.151-.118a.4.4,0,0,0-.079-.238.891.891,0,0,0-.264-.21A.628.628,0,0,0,530.758,115.5Z" transform="translate(-510.497 -103.32)"/>
          <path id="Trazado_129118" data-name="Trazado 129118" d="M535.222,117.868a.635.635,0,0,1,.1.342v1.045l-.24-.139v-.977a.457.457,0,0,0-.053-.217.426.426,0,0,0-.164-.154.473.473,0,0,0-.193-.066,1.249,1.249,0,0,0-.264.016v1.008l-.235-.136v-.976a.425.425,0,0,0-.052-.22.449.449,0,0,0-.165-.153.47.47,0,0,0-.194-.066,1.249,1.249,0,0,0-.264.016V118.2l-.244-.14v-1.395l.2.116.015.229a.712.712,0,0,1,.288-.025.757.757,0,0,1,.282.1.679.679,0,0,1,.352.453.7.7,0,0,1,.561.075A.783.783,0,0,1,535.222,117.868Z" transform="translate(-511.164 -103.648)"/>
          <path id="Trazado_129119" data-name="Trazado 129119" d="M537.594,120.419l.026.178a1.075,1.075,0,0,1-.247-.086,3.276,3.276,0,0,1-.294-.15,1.644,1.644,0,0,1-.388-.3.979.979,0,0,1-.212-.355,1.469,1.469,0,0,1-.067-.468.869.869,0,0,1,.066-.393.2.2,0,0,1,.205-.109.978.978,0,0,1,.371.146,1.459,1.459,0,0,1,.455.375.7.7,0,0,1,.143.425c0,.129-.025.211-.08.247s-.14.021-.252-.044l-.647-.374a.89.89,0,0,0,.06.287.579.579,0,0,0,.137.2,1.335,1.335,0,0,0,.24.172A4.988,4.988,0,0,0,537.594,120.419ZM536.833,119a.116.116,0,0,0-.122.069.619.619,0,0,0-.045.249l.59.341c.1.058.152.019.152-.119a.394.394,0,0,0-.08-.238.891.891,0,0,0-.264-.21A.607.607,0,0,0,536.833,119Z" transform="translate(-511.889 -104.123)"/>
          <path id="Trazado_129120" data-name="Trazado 129120" d="M539.491,120.356a.71.71,0,0,1,.117.412v.982l-.192-.111-.029-.248a.521.521,0,0,1-.251.035.752.752,0,0,1-.325-.11.9.9,0,0,1-.305-.278.617.617,0,0,1-.113-.353v-.151c0-.109.033-.174.1-.2a.39.39,0,0,1,.285.074l.581.336v-.123a.385.385,0,0,0-.06-.22.672.672,0,0,0-.224-.183q-.206-.119-.6-.308l-.023-.193a5.747,5.747,0,0,1,.673.325A1.11,1.11,0,0,1,539.491,120.356Zm-.378.871a.547.547,0,0,0,.249-.011v-.284l-.538-.308c-.066-.035-.112-.045-.14-.029s-.041.055-.041.116v.089a.332.332,0,0,0,.054.191.506.506,0,0,0,.172.148A.717.717,0,0,0,539.114,121.227Z" transform="translate(-512.343 -104.348)"/>
          <path id="Trazado_129121" data-name="Trazado 129121" d="M541.252,121.3q.173.112.308.209l-.02.167-.146-.09-.187-.114c-.076-.045-.163-.1-.262-.154a1.361,1.361,0,0,0-.169-.086q-.058-.021-.083,0a.142.142,0,0,0-.025.1.317.317,0,0,0,.021.122.322.322,0,0,0,.062.091,1.338,1.338,0,0,0,.12.106l.407.326a1.106,1.106,0,0,1,.247.271.574.574,0,0,1,.076.3.277.277,0,0,1-.062.218.2.2,0,0,1-.188.008,2.031,2.031,0,0,1-.345-.17,5.815,5.815,0,0,1-.547-.355l.018-.167c.149.093.278.172.386.234l.095.055a2.268,2.268,0,0,0,.251.13.153.153,0,0,0,.121.015c.025-.014.038-.048.038-.1a.255.255,0,0,0-.05-.16,1.15,1.15,0,0,0-.17-.163l-.4-.323a.976.976,0,0,1-.244-.269.615.615,0,0,1-.072-.3.308.308,0,0,1,.052-.207.153.153,0,0,1,.16-.023,1.457,1.457,0,0,1,.29.136C541.03,121.155,541.137,121.222,541.252,121.3Z" transform="translate(-512.809 -104.63)"/>
          <path id="Trazado_129122" data-name="Trazado 129122" d="M543.6,122.643v1.395l-.2-.113-.017-.214a.917.917,0,0,1-.308,0,.889.889,0,0,1-.294-.109.8.8,0,0,1-.284-.262.626.626,0,0,1-.1-.342v-1.048l.243.14v.979a.394.394,0,0,0,.049.214.472.472,0,0,0,.172.153.6.6,0,0,0,.215.077,1.336,1.336,0,0,0,.271,0V122.5Z" transform="translate(-513.263 -104.86)"/>
          <path id="Trazado_129123" data-name="Trazado 129123" d="M545.409,123.652l-.028.212-.08-.046a.751.751,0,0,0-.22-.086,2.581,2.581,0,0,0-.3-.038v1.022l-.244-.14v-1.395l.189.109.026.235a.8.8,0,0,1,.6.089Z" transform="translate(-513.75 -105.141)"/>
          <path id="Trazado_129124" data-name="Trazado 129124" d="M547.07,125.89l.026.178a1.074,1.074,0,0,1-.247-.086,3.075,3.075,0,0,1-.294-.15,1.643,1.643,0,0,1-.388-.3.979.979,0,0,1-.212-.355,1.469,1.469,0,0,1-.067-.468.881.881,0,0,1,.066-.393.2.2,0,0,1,.205-.109.978.978,0,0,1,.371.146,1.451,1.451,0,0,1,.455.375.7.7,0,0,1,.143.425c0,.129-.025.211-.08.247s-.14.021-.252-.044l-.647-.374a.91.91,0,0,0,.06.287.58.58,0,0,0,.137.2,1.336,1.336,0,0,0,.241.172A5.063,5.063,0,0,0,547.07,125.89Zm-.761-1.414a.116.116,0,0,0-.122.069.646.646,0,0,0-.045.249l.59.341c.1.058.151.019.151-.119a.394.394,0,0,0-.08-.238.875.875,0,0,0-.263-.21A.609.609,0,0,0,546.309,124.476Z" transform="translate(-514.06 -105.376)"/>
          <path id="Trazado_129125" data-name="Trazado 129125" d="M549.945,126.369a.633.633,0,0,1,.1.342v1.045l-.241-.139v-.976a.445.445,0,0,0-.053-.218.424.424,0,0,0-.164-.153.471.471,0,0,0-.194-.066,1.249,1.249,0,0,0-.264.016v1.008l-.235-.136v-.976a.425.425,0,0,0-.052-.22.446.446,0,0,0-.165-.152.472.472,0,0,0-.193-.066,1.309,1.309,0,0,0-.265.016V126.7l-.244-.14v-1.394l.2.116.015.228a.712.712,0,0,1,.288-.025.746.746,0,0,1,.282.1.678.678,0,0,1,.352.452.7.7,0,0,1,.56.075A.779.779,0,0,1,549.945,126.369Z" transform="translate(-514.537 -105.596)"/>
          <path id="Trazado_129126" data-name="Trazado 129126" d="M552.317,128.919l.026.178a1.122,1.122,0,0,1-.247-.086,3.248,3.248,0,0,1-.294-.149,1.664,1.664,0,0,1-.388-.3.984.984,0,0,1-.212-.356,1.467,1.467,0,0,1-.067-.468.871.871,0,0,1,.066-.393.2.2,0,0,1,.205-.109.977.977,0,0,1,.371.146,1.461,1.461,0,0,1,.455.375.705.705,0,0,1,.143.425c0,.13-.025.212-.08.247s-.14.022-.252-.044l-.647-.373a.91.91,0,0,0,.06.286.574.574,0,0,0,.137.2,1.3,1.3,0,0,0,.241.172A5.084,5.084,0,0,0,552.317,128.919Zm-.761-1.415a.116.116,0,0,0-.122.069.65.65,0,0,0-.045.249l.591.341c.1.059.151.019.151-.119a.4.4,0,0,0-.08-.238.875.875,0,0,0-.263-.209A.618.618,0,0,0,551.556,127.5Z" transform="translate(-515.262 -106.07)"/>
          <path id="Trazado_129127" data-name="Trazado 129127" d="M554.347,128.91a.63.63,0,0,1,.1.342V130.3l-.243-.14v-.977a.44.44,0,0,0-.046-.218.4.4,0,0,0-.154-.143.639.639,0,0,0-.229-.082,2.1,2.1,0,0,0-.309-.011v1l-.244-.14V128.2l.206.119.018.23a.878.878,0,0,1,.624.106A.791.791,0,0,1,554.347,128.91Z" transform="translate(-515.739 -106.29)"/>
          <path id="Trazado_129128" data-name="Trazado 129128" d="M555.681,129.73v.819a.309.309,0,0,0,.043.168.416.416,0,0,0,.146.127l.211.122.029.2a1.146,1.146,0,0,1-.157-.064q-.095-.044-.157-.081a.735.735,0,0,1-.267-.251.629.629,0,0,1-.091-.334v-.85l-.252-.145v-.177l.252.131v-.412l.243.14v.412l.444.256v.192Z" transform="translate(-516.19 -106.471)"/>
          <path id="Trazado_129129" data-name="Trazado 129129" d="M505.883,106.567l.026.178a1.155,1.155,0,0,1-.247-.086,3.267,3.267,0,0,1-.294-.15,1.643,1.643,0,0,1-.388-.3.987.987,0,0,1-.212-.356,1.467,1.467,0,0,1-.067-.468.876.876,0,0,1,.066-.392.2.2,0,0,1,.205-.109.987.987,0,0,1,.371.145,1.451,1.451,0,0,1,.455.376.7.7,0,0,1,.143.425c0,.129-.025.211-.08.247s-.14.022-.252-.043l-.647-.374a.91.91,0,0,0,.06.287.59.59,0,0,0,.137.2,1.3,1.3,0,0,0,.241.171A4.9,4.9,0,0,0,505.883,106.567Zm-.761-1.415a.118.118,0,0,0-.122.069.65.65,0,0,0-.045.25l.59.34c.1.059.151.019.151-.118a.394.394,0,0,0-.08-.238.877.877,0,0,0-.263-.21A.627.627,0,0,0,505.122,105.152Z" transform="translate(-504.624 -100.95)"/>
          <path id="Trazado_129130" data-name="Trazado 129130" d="M507.913,106.557a.629.629,0,0,1,.1.342v1.045l-.244-.14v-.976a.448.448,0,0,0-.046-.218.41.41,0,0,0-.155-.144.636.636,0,0,0-.229-.082,1.906,1.906,0,0,0-.309-.011v1l-.244-.14v-1.395l.207.119.017.23a.88.88,0,0,1,.624.106A.787.787,0,0,1,507.913,106.557Z" transform="translate(-505.101 -101.169)"/>
          <path id="Trazado_129131" data-name="Trazado 129131" d="M509.621,108.814c-.015.032-.045.035-.086.011l-.22-.127a.188.188,0,0,1-.086-.11l-.51-1.628.261.15.343,1.175.083.291.037.022.086-.194.343-.778.257.149Z" transform="translate(-505.544 -101.425)"/>
          <path id="Trazado_129132" data-name="Trazado 129132" d="M511.173,107.69v.163c0,.049-.025.06-.074.032l-.115-.066a.131.131,0,0,1-.074-.117v-.163c0-.023.006-.037.018-.044a.067.067,0,0,1,.056.012l.115.066A.131.131,0,0,1,511.173,107.69Zm-.011,1.906-.241-.139v-1.394l.241.139Z" transform="translate(-506.046 -101.547)"/>
          <path id="Trazado_129133" data-name="Trazado 129133" d="M512.7,109.225l-.029.213-.08-.046a.741.741,0,0,0-.22-.086,2.532,2.532,0,0,0-.3-.038v1.021l-.244-.14v-1.394l.19.109.025.236a.8.8,0,0,1,.6.089Z" transform="translate(-506.257 -101.836)"/>
          <path id="Trazado_129134" data-name="Trazado 129134" d="M514.227,110.236a.962.962,0,0,1,.206.351,1.486,1.486,0,0,1,.065.465.887.887,0,0,1-.065.394.2.2,0,0,1-.206.111,1,1,0,0,1-.385-.15,1.645,1.645,0,0,1-.384-.293.955.955,0,0,1-.207-.351,1.518,1.518,0,0,1-.064-.468.894.894,0,0,1,.064-.391.2.2,0,0,1,.207-.112.974.974,0,0,1,.384.149A1.613,1.613,0,0,1,514.227,110.236Zm-.626-.181a.125.125,0,0,0-.123.089.862.862,0,0,0-.037.3,1.313,1.313,0,0,0,.037.341.582.582,0,0,0,.123.231.963.963,0,0,0,.241.187.573.573,0,0,0,.242.092.124.124,0,0,0,.125-.088.867.867,0,0,0,.037-.3,1.306,1.306,0,0,0-.037-.34.586.586,0,0,0-.125-.233.987.987,0,0,0-.242-.187A.576.576,0,0,0,513.6,110.055Z" transform="translate(-506.568 -102.073)"/>
          <path id="Trazado_129135" data-name="Trazado 129135" d="M516.509,111.52a.629.629,0,0,1,.1.342v1.045l-.244-.14v-.976a.448.448,0,0,0-.045-.218.41.41,0,0,0-.155-.144.636.636,0,0,0-.229-.082,1.905,1.905,0,0,0-.309-.011v1l-.244-.14v-1.395l.207.119.017.231a.88.88,0,0,1,.624.106A.78.78,0,0,1,516.509,111.52Z" transform="translate(-507.07 -102.306)"/>
          <path id="Trazado_129136" data-name="Trazado 129136" d="M519.512,113.254a.629.629,0,0,1,.1.342v1.045l-.241-.139v-.976a.453.453,0,0,0-.052-.218.43.43,0,0,0-.164-.153.476.476,0,0,0-.194-.066,1.371,1.371,0,0,0-.265.016v1.008l-.234-.135V113a.416.416,0,0,0-.053-.219.452.452,0,0,0-.164-.153.473.473,0,0,0-.193-.066,1.3,1.3,0,0,0-.265.015v1.008l-.243-.141v-1.394l.2.116.014.229a.729.729,0,0,1,.288-.026.742.742,0,0,1,.282.1.677.677,0,0,1,.352.453.7.7,0,0,1,.561.075A.773.773,0,0,1,519.512,113.254Z" transform="translate(-507.565 -102.591)"/>
          <path id="Trazado_129137" data-name="Trazado 129137" d="M521.884,115.8l.025.178a1.155,1.155,0,0,1-.247-.086,3.251,3.251,0,0,1-.293-.15,1.632,1.632,0,0,1-.388-.3.982.982,0,0,1-.212-.356,1.465,1.465,0,0,1-.067-.468.871.871,0,0,1,.065-.393.2.2,0,0,1,.2-.109.969.969,0,0,1,.371.145,1.456,1.456,0,0,1,.456.376.708.708,0,0,1,.143.425c0,.129-.025.211-.08.247s-.139.022-.251-.044l-.648-.373a.912.912,0,0,0,.06.287.571.571,0,0,0,.138.2,1.246,1.246,0,0,0,.24.172A4.742,4.742,0,0,0,521.884,115.8Zm-.762-1.415a.116.116,0,0,0-.121.069.622.622,0,0,0-.045.25l.59.34c.1.059.152.019.152-.119a.4.4,0,0,0-.08-.237.891.891,0,0,0-.264-.21A.627.627,0,0,0,521.122,114.39Z" transform="translate(-508.29 -103.066)"/>
          <path id="Trazado_129138" data-name="Trazado 129138" d="M523.914,115.8a.633.633,0,0,1,.1.342v1.045l-.244-.14v-.976a.44.44,0,0,0-.045-.218.4.4,0,0,0-.155-.144.631.631,0,0,0-.229-.082,1.9,1.9,0,0,0-.309-.011v1l-.243-.14V115.08l.206.119.017.23a.887.887,0,0,1,.624.106A.792.792,0,0,1,523.914,115.8Z" transform="translate(-508.767 -103.285)"/>
          <path id="Trazado_129139" data-name="Trazado 129139" d="M525.248,116.615v.819a.309.309,0,0,0,.043.168.4.4,0,0,0,.146.127l.212.123.029.2a1.383,1.383,0,0,1-.157-.064q-.095-.045-.157-.081a.73.73,0,0,1-.267-.251.629.629,0,0,1-.092-.333v-.85l-.251-.146v-.177l.251.131v-.412l.244.141v.412l.444.257v.191Z" transform="translate(-509.218 -103.466)"/>
          <path id="Trazado_129140" data-name="Trazado 129140" d="M529.159,118.824a.627.627,0,0,1,.1.342v1.045l-.241-.139v-.976a.463.463,0,0,0-.053-.218.424.424,0,0,0-.164-.153.475.475,0,0,0-.193-.066,1.25,1.25,0,0,0-.264.016v1.008l-.235-.136v-.976a.418.418,0,0,0-.053-.22.45.45,0,0,0-.164-.152.471.471,0,0,0-.193-.066,1.364,1.364,0,0,0-.264.016v1.008l-.244-.14v-1.394l.2.116.014.228a.717.717,0,0,1,.288-.025.739.739,0,0,1,.281.1.676.676,0,0,1,.352.452.7.7,0,0,1,.561.075A.776.776,0,0,1,529.159,118.824Z" transform="translate(-509.775 -103.867)"/>
          <path id="Trazado_129141" data-name="Trazado 129141" d="M531.393,120.147a.942.942,0,0,1,.206.351,1.491,1.491,0,0,1,.065.465.885.885,0,0,1-.065.394.2.2,0,0,1-.206.112,1,1,0,0,1-.385-.151,1.644,1.644,0,0,1-.384-.293.943.943,0,0,1-.207-.35,1.5,1.5,0,0,1-.065-.469.875.875,0,0,1,.065-.39.2.2,0,0,1,.207-.113.974.974,0,0,1,.384.149A1.593,1.593,0,0,1,531.393,120.147Zm-.625-.181a.124.124,0,0,0-.123.089.862.862,0,0,0-.037.3,1.313,1.313,0,0,0,.037.341.567.567,0,0,0,.123.231.964.964,0,0,0,.241.187.586.586,0,0,0,.241.093.124.124,0,0,0,.125-.089.86.86,0,0,0,.037-.3,1.306,1.306,0,0,0-.037-.341.56.56,0,0,0-.125-.232.963.963,0,0,0-.241-.187A.576.576,0,0,0,530.768,119.966Z" transform="translate(-510.5 -104.344)"/>
          <path id="Trazado_129142" data-name="Trazado 129142" d="M533.676,121.431a.635.635,0,0,1,.1.342v1.045l-.244-.14V121.7a.439.439,0,0,0-.046-.218.4.4,0,0,0-.155-.144.631.631,0,0,0-.229-.082,1.9,1.9,0,0,0-.309-.011v1l-.243-.14v-1.395l.206.119.017.23a.883.883,0,0,1,.624.1A.792.792,0,0,1,533.676,121.431Z" transform="translate(-511.003 -104.576)"/>
          <path id="Trazado_129143" data-name="Trazado 129143" d="M534.968,121.428v.163c0,.049-.025.06-.075.031l-.114-.066a.131.131,0,0,1-.075-.118v-.163q0-.035.019-.044c.012-.006.031,0,.056.012l.114.066A.132.132,0,0,1,534.968,121.428Zm-.012,1.906-.24-.139V121.8l.24.14Z" transform="translate(-511.497 -104.694)"/>
          <path id="Trazado_129144" data-name="Trazado 129144" d="M535.931,122.783v.819a.3.3,0,0,0,.043.168.419.419,0,0,0,.146.127l.212.122.029.2a1.184,1.184,0,0,1-.157-.063c-.063-.03-.116-.057-.158-.081a.734.734,0,0,1-.266-.251.63.63,0,0,1-.092-.334v-.85l-.251-.146v-.177l.251.131v-.412l.244.14v.412l.443.256v.192Z" transform="translate(-511.665 -104.879)"/>
          <path id="Trazado_129145" data-name="Trazado 129145" d="M537.995,123.959a.936.936,0,0,1,.206.351,1.483,1.483,0,0,1,.065.465.889.889,0,0,1-.065.394.2.2,0,0,1-.206.111,1,1,0,0,1-.385-.15,1.647,1.647,0,0,1-.384-.293.945.945,0,0,1-.207-.351,1.5,1.5,0,0,1-.065-.468.876.876,0,0,1,.065-.391.2.2,0,0,1,.207-.112.973.973,0,0,1,.384.149A1.592,1.592,0,0,1,537.995,123.959Zm-.625-.181a.124.124,0,0,0-.123.089.862.862,0,0,0-.037.3,1.316,1.316,0,0,0,.037.341.577.577,0,0,0,.123.231.947.947,0,0,0,.241.186.586.586,0,0,0,.241.093.122.122,0,0,0,.125-.088.867.867,0,0,0,.037-.3,1.306,1.306,0,0,0-.037-.34.568.568,0,0,0-.125-.233.979.979,0,0,0-.241-.187A.575.575,0,0,0,537.37,123.778Z" transform="translate(-512.013 -105.217)"/>
          <path id="Trazado_129146" data-name="Trazado 129146" d="M540.022,125l-.029.212-.08-.046a.747.747,0,0,0-.22-.086,2.581,2.581,0,0,0-.3-.038v1.022l-.244-.141v-1.394l.189.109.026.235a.8.8,0,0,1,.6.089Z" transform="translate(-512.516 -105.45)"/>
          <path id="Trazado_129147" data-name="Trazado 129147" d="M540.9,124.854v.163c0,.049-.025.059-.075.031l-.114-.066a.131.131,0,0,1-.075-.118V124.7q0-.035.018-.044c.012-.006.031,0,.056.012l.114.066A.132.132,0,0,1,540.9,124.854Zm-.011,1.906-.241-.139v-1.395l.241.139Z" transform="translate(-512.857 -105.479)"/>
          <path id="Trazado_129148" data-name="Trazado 129148" d="M542.688,126.634a.635.635,0,0,1,.1.342v1.045l-.244-.14V126.9a.439.439,0,0,0-.045-.218.4.4,0,0,0-.155-.144.631.631,0,0,0-.229-.082,1.9,1.9,0,0,0-.309-.011v1l-.243-.14v-1.395l.206.119.017.231a.879.879,0,0,1,.624.106A.783.783,0,0,1,542.688,126.634Z" transform="translate(-513.068 -105.768)"/>
          <path id="Trazado_129149" data-name="Trazado 129149" d="M544.981,128.083l-.206-.1a.708.708,0,0,1,.057.291q0,.235-.134.261a.823.823,0,0,1-.464-.163,2.046,2.046,0,0,1-.289-.2.113.113,0,0,0-.037.088.2.2,0,0,0,.032.1.4.4,0,0,0,.1.1l.521.384a.945.945,0,0,1,.274.28.627.627,0,0,1,.079.315.3.3,0,0,1-.063.224.21.21,0,0,1-.2.015,2.036,2.036,0,0,1-.4-.189,2.821,2.821,0,0,1-.4-.271.825.825,0,0,1-.209-.253.646.646,0,0,1-.062-.288.216.216,0,0,1,.052-.168.248.248,0,0,1,.177-.038.493.493,0,0,1-.075-.132.384.384,0,0,1-.025-.132.2.2,0,0,1,.029-.113.109.109,0,0,1,.08-.051.667.667,0,0,1-.136-.22.721.721,0,0,1-.042-.249.343.343,0,0,1,.057-.224.181.181,0,0,1,.187-.035,1.386,1.386,0,0,1,.354.158,2.146,2.146,0,0,1,.318.218l.441.254Zm-.321,1.1a.272.272,0,0,0-.069-.1,1.7,1.7,0,0,0-.153-.124l-.476-.341a.157.157,0,0,0-.146.183.369.369,0,0,0,.037.171.452.452,0,0,0,.127.143,2.341,2.341,0,0,0,.268.173,1.776,1.776,0,0,0,.264.133c.06.021.1.022.127,0a.157.157,0,0,0,.038-.126A.333.333,0,0,0,544.66,129.183Zm-.136-.89c.055-.007.083-.057.083-.151a.4.4,0,0,0-.082-.246,1.012,1.012,0,0,0-.291-.227.577.577,0,0,0-.289-.108c-.056.007-.083.058-.083.151a.389.389,0,0,0,.083.247,1.015,1.015,0,0,0,.289.226A.577.577,0,0,0,544.523,128.292Z" transform="translate(-513.531 -106.088)"/>
        </g>
      </g>
      <g id="Grupo_94039" data-name="Grupo 94039" transform="translate(92.408 50.821)" style="mix-blend-mode: multiply;isolation: isolate">
        <path id="Trazado_129150" data-name="Trazado 129150" d="M672.648,249.058v21.493l-22.179-.023q-25.59-.023-51.165-.054c-.516-.185-1.033-.37-1.55-.547-1.418-.5-1.758-.493-1.233-.609a1.429,1.429,0,0,0,1.233-.917c.054-.116.293-.1.347-1.526.054-1.681-.077-5.042-.039-8.249.424-32.262.123-133.29.039-133.837a6.626,6.626,0,0,0-.455-2.012c-.154-.308.894-.162,1.195-.324a3.574,3.574,0,0,0,1.372-2.2,7.128,7.128,0,0,1,.555,1.58,19.85,19.85,0,0,1,.1,2.081l-.015,85.632s1.18.162,1.827.247a10.9,10.9,0,0,1,3.492.994C607.853,211.592,644.641,232.815,672.648,249.058Z" transform="translate(-587.393 -112.447)" fill="#b0a7c2"/>
        <path id="Trazado_129151" data-name="Trazado 129151" d="M584.749,110.871v.8h.771l1.505-.8-.991-.178v-.566Z" transform="translate(-584.749 -110.127)" fill="#b0a7c2"/>
      </g>
    </g>
    <g id="Grupo_94057" data-name="Grupo 94057" transform="translate(259.49 177.042)">
      <g id="Grupo_94041" data-name="Grupo 94041">
        <path id="Trazado_129152" data-name="Trazado 129152" d="M343.625,289.3l-1.384-.511L340,287.955v-1.623a.159.159,0,0,0,.015-.017l6.623,2.016,32.818-35.82,8.446,3.121-39.423,35.456Z" transform="translate(-277.933 -224.764)" fill="#aa226d"/>
        <path id="Trazado_129153" data-name="Trazado 129153" d="M380.758,249.989l-1.3,1.422-32.818,35.82-6.623-2.016q16.632-18.754,33.261-37.506l2.363.72,1.157.353Z" transform="translate(-277.938 -223.664)" fill="#e288b9"/>
        <path id="Trazado_129154" data-name="Trazado 129154" d="M358.349,234.521,320.4,277.32l-60.908-18,37.951-42.8Z" transform="translate(-259.49 -216.518)" fill="#bfb5f4"/>
        <path id="Trazado_129155" data-name="Trazado 129155" d="M385.524,244.252v3.385l-2.363-.72Q384.343,245.586,385.524,244.252Z" transform="translate(-287.822 -222.872)" fill="#628dd1"/>
        <path id="Trazado_129156" data-name="Trazado 129156" d="M340,298.488l2.246.831q-1.123,1.269-2.246,2.531Z" transform="translate(-277.933 -235.297)" fill="#628dd1"/>
        <path id="Trazado_129157" data-name="Trazado 129157" d="M339.668,283.42a.156.156,0,0,1-.015.017v4.985q1.126-1.265,2.246-2.531l1.384.511-4.784,5.4v-9.129l37.951-42.8v7.115l-1.157-.353v-3.385q-1.182,1.332-2.363,2.665Q356.3,264.667,339.668,283.42Z" transform="translate(-277.59 -221.868)" fill="#785cad"/>
        <path id="Trazado_129158" data-name="Trazado 129158" d="M320.4,290.037v9.129l-60.908-18v-9.131Z" transform="translate(-259.49 -229.236)" fill="#a68efe"/>
      </g>
      <path id="Trazado_129159" data-name="Trazado 129159" d="M357.644,261.2c6.382-7.2,18.8-21.329,18.8-21.329v7.115s-.291-.151-.334-.1l-16.225,18.238c-9.425,10.595-16.914,19.26-16.914,19.26l3.315,1.052,34.12-37.243a.879.879,0,0,1-.489,1.452c-.456.176-32.556,36.62-32.556,36.62l-2.085-.156a5.188,5.188,0,0,0-2.085.288l4.935,1.795L386.485,253.7l3.7,2.191s-6.922,6.587-15.382,14.194-17.335,15.6-19.721,17.75l-4.339,3.919-2.427-.806c-2.234-.742-2.46-.745-2.854-.042-.331.591-1.166.764-3.693.764-1.089,0-3.266.13-3.266.13v-9.129S351.262,268.4,357.644,261.2Z" transform="translate(-277.59 -221.868)" fill="#b0a7c2" style="mix-blend-mode: multiply;isolation: isolate"/>
      <g id="Grupo_94056" data-name="Grupo 94056" transform="translate(14.119 6.969)">
        <g id="Grupo_94053" data-name="Grupo 94053">
          <path id="Trazado_129160" data-name="Trazado 129160" d="M338.5,245.752l-35.032,20.224L277.8,251.155c8.36-4.826,30.246-17.459,35.032-20.224C316.673,233.147,323.46,237.068,338.5,245.752Z" transform="translate(-277.805 -226.789)" fill="#ebeec1"/>
          <path id="Trazado_129161" data-name="Trazado 129161" d="M331.144,262.7l-11.188,11.188-5.2-1.727Z" transform="translate(-286.271 -234.067)" fill="#d3d3af"/>
          <path id="Trazado_129162" data-name="Trazado 129162" d="M321.5,273.672l11.188-11.188,1.255-.726L321.5,274.206Z" transform="translate(-287.815 -233.851)" fill="#bebe9e"/>
          <path id="Trazado_129163" data-name="Trazado 129163" d="M319.783,276.7v.533L314,275.3l.581-.332Z" transform="translate(-286.098 -236.879)" fill="#bebe9e"/>
          <path id="Trazado_129164" data-name="Trazado 129164" d="M314.508,233.026l-14.541,8.394,9.929-9.933Z" transform="translate(-282.882 -226.916)" fill="#d3d3af"/>
          <path id="Trazado_129165" data-name="Trazado 129165" d="M311.1,270.38l35.032-20.224v.533L311.1,270.913Z" transform="translate(-285.433 -231.193)" fill="#bebe9e"/>
          <path id="Trazado_129166" data-name="Trazado 129166" d="M293.62,267.329l-12.906-4.3,1.993-1.993Z" transform="translate(-278.472 -233.685)" fill="#d3d3af"/>
          <path id="Trazado_129167" data-name="Trazado 129167" d="M280.714,263.619l12.906,4.3,2.173,1.259-15.079-5.028Z" transform="translate(-278.472 -234.277)" fill="#bebe9e"/>
          <path id="Trazado_129168" data-name="Trazado 129168" d="M277.8,257.165l25.667,14.821v.533c-2.431-1.4-24.428-14.1-25.667-14.821Z" transform="translate(-277.805 -232.799)" fill="#f1f1ce"/>
          <g id="Grupo_94052" data-name="Grupo 94052" transform="translate(32.444)">
            <path id="Trazado_129169" data-name="Trazado 129169" d="M353.117,241.447l-5.7,3.293-27.523-15.891,5.7-3.29C325.637,225.583,350.607,240,353.117,241.447Z" transform="translate(-319.891 -225.558)" fill="#e0be95"/>
            <path id="Trazado_129170" data-name="Trazado 129170" d="M361.3,246.936l-5.7,3.29v-.765l5.7-3.293Z" transform="translate(-328.07 -230.28)" fill="#c48b5e"/>
            <path id="Trazado_129171" data-name="Trazado 129171" d="M347.414,246.483l-27.523-15.889v-.768l27.523,15.892Z" transform="translate(-319.891 -226.536)" fill="#d8aa7d"/>
            <g id="Grupo_94042" data-name="Grupo 94042" transform="translate(3.865 1.06)">
              <path id="Trazado_129172" data-name="Trazado 129172" d="M329,227.178c-4.058,2.343-3.8,2.21-3.886,2.21a.211.211,0,0,1-.1-.394l3.572-2.061Z" transform="translate(-324.905 -226.933)" fill="#7f542e"/>
            </g>
            <g id="Grupo_94043" data-name="Grupo 94043" transform="translate(6.443 2.551)">
              <path id="Trazado_129173" data-name="Trazado 129173" d="M332.349,229.109c-4.025,2.325-3.8,2.213-3.889,2.213a.211.211,0,0,1-.1-.393l3.569-2.061Z" transform="translate(-328.249 -228.867)" fill="#7f542e"/>
            </g>
            <g id="Grupo_94044" data-name="Grupo 94044" transform="translate(9.021 4.039)">
              <path id="Trazado_129174" data-name="Trazado 129174" d="M335.691,231.041c-4.06,2.342-3.805,2.21-3.887,2.21a.211.211,0,0,1-.106-.393l3.571-2.061Z" transform="translate(-331.593 -230.797)" fill="#7f542e"/>
            </g>
            <g id="Grupo_94045" data-name="Grupo 94045" transform="translate(11.599 5.526)">
              <path id="Trazado_129175" data-name="Trazado 129175" d="M339.036,232.971c-4.067,2.346-3.805,2.21-3.887,2.21a.211.211,0,0,1-.106-.394l3.571-2.061Z" transform="translate(-334.937 -232.726)" fill="#7f542e"/>
            </g>
            <g id="Grupo_94046" data-name="Grupo 94046" transform="translate(14.177 7.014)">
              <path id="Trazado_129176" data-name="Trazado 129176" d="M342.381,234.9c-4.06,2.342-3.8,2.211-3.889,2.211a.209.209,0,0,1-.1-.391l3.571-2.064Z" transform="translate(-338.282 -234.656)" fill="#7f542e"/>
            </g>
            <g id="Grupo_94047" data-name="Grupo 94047" transform="translate(16.755 8.504)">
              <path id="Trazado_129177" data-name="Trazado 129177" d="M345.725,236.831a38.709,38.709,0,0,1-3.889,2.213.212.212,0,0,1-.107-.394c3.617-2.088,3.546-2.061,3.575-2.061Z" transform="translate(-341.625 -236.589)" fill="#7f542e"/>
            </g>
            <g id="Grupo_94048" data-name="Grupo 94048" transform="translate(19.333 9.992)">
              <path id="Trazado_129178" data-name="Trazado 129178" d="M349.067,238.761c-4.066,2.349-3.8,2.213-3.886,2.213a.212.212,0,0,1-.107-.394l3.572-2.061Z" transform="translate(-344.969 -238.519)" fill="#7f542e"/>
            </g>
            <g id="Grupo_94049" data-name="Grupo 94049" transform="translate(21.912 11.48)">
              <path id="Trazado_129179" data-name="Trazado 129179" d="M352.412,240.693c-4.067,2.347-3.8,2.211-3.886,2.211a.211.211,0,0,1-.107-.394l3.572-2.061Z" transform="translate(-348.314 -240.449)" fill="#7f542e"/>
            </g>
            <g id="Grupo_94050" data-name="Grupo 94050" transform="translate(24.49 12.967)">
              <path id="Trazado_129180" data-name="Trazado 129180" d="M355.757,242.623c-4.025,2.325-3.8,2.213-3.889,2.213a.211.211,0,0,1-.1-.394l3.572-2.064Z" transform="translate(-351.658 -242.379)" fill="#7f542e"/>
            </g>
            <g id="Grupo_94051" data-name="Grupo 94051" transform="translate(27.067 14.458)">
              <path id="Trazado_129181" data-name="Trazado 129181" d="M359.1,244.554a38.7,38.7,0,0,1-3.888,2.213.212.212,0,0,1-.107-.394l3.574-2.061Z" transform="translate(-355.002 -244.312)" fill="#7f542e"/>
            </g>
          </g>
        </g>
        <g id="Grupo_94055" data-name="Grupo 94055" transform="translate(29.845 10.264)">
          <path id="Trazado_129182" data-name="Trazado 129182" d="M318.027,239.083c-.752.932-.749.974-.768.992s0,.091.191.358a3.373,3.373,0,0,0-.5,2.085l-.011,0a1.03,1.03,0,0,1-.419-.927,3.147,3.147,0,0,1,1.5-2.519Z" transform="translate(-316.519 -238.918)" fill="#8bd0d0"/>
          <path id="Trazado_129183" data-name="Trazado 129183" d="M356.08,262.131q.518.619,1.039,1.239a.148.148,0,0,1-.14.241l-1.617-.285a.3.3,0,0,1-.22-.3,1.073,1.073,0,0,1,.605-.974A.276.276,0,0,1,356.08,262.131Z" transform="translate(-325.367 -244.176)" fill="#655fbf"/>
          <path id="Trazado_129184" data-name="Trazado 129184" d="M324.7,242.279c24.171,13.957,21.017,12.076,20.767,12.076a1,1,0,0,0-.458.076l0,0a2.368,2.368,0,0,0-.967.764s0,0,0,.006a3.258,3.258,0,0,0-.668,1.457,1.942,1.942,0,0,0-.006.679,1.011,1.011,0,0,0,.133.36.727.727,0,0,0,.223.235c-22.288-12.866-21.8-12.571-21.794-12.587a.78.78,0,0,1-.251-.317,1.9,1.9,0,0,1,0-1.26,3.369,3.369,0,0,1,.437-.923l5.486,3.167.8-.992-.059-.083-5.227-3.018a.951.951,0,0,1,.924-.031Z" transform="translate(-317.674 -239.539)" fill="#8bd0d0"/>
          <path id="Trazado_129185" data-name="Trazado 129185" d="M352.493,258.417l0,0,0,.006C352.534,258.483,352.526,258.474,352.493,258.417Zm-1.9,3.367c-.023,0-.046,0-.069,0C350.549,261.782,350.572,261.784,350.6,261.784Zm3.545.639-3.649-.644v0c.017,0,.025,0-.005,0a.686.686,0,0,1-.166-.042.21.21,0,0,0-.028-.011.71.71,0,0,1-.262-.2.761.761,0,0,1-.065-.091l0,0a1.1,1.1,0,0,1-.1-.224,1.286,1.286,0,0,1-.039-.169,2.539,2.539,0,0,1,.209-1.305l0-.006a3.391,3.391,0,0,1,.357-.639c.02-.034.114-.154.116-.155a2.435,2.435,0,0,1,1.008-.778,1.068,1.068,0,0,1,.465-.059c.008,0,.059.011.06.011a.7.7,0,0,1,.143.049.739.739,0,0,1,.248.187c.018.024-.185-.218,2.4,2.857a.285.285,0,0,0-.307-.051,1.073,1.073,0,0,0-.605.974A.3.3,0,0,0,354.141,262.423Z" transform="translate(-324.145 -243.274)" fill="#d1e2ee"/>
          <path id="Trazado_129186" data-name="Trazado 129186" d="M329.3,246.869l.8-.992.059.084-.8.992Z" transform="translate(-319.448 -240.476)" fill="#4c6e81"/>
          <path id="Trazado_129187" data-name="Trazado 129187" d="M320.465,239.008c3.33,1.926,3.186,1.826,3.176,1.842a1.338,1.338,0,0,0-1.415.239q-1.589-.919-3.179-1.836a2.6,2.6,0,0,1,.325-.2A1.231,1.231,0,0,1,320.465,239.008Z" transform="translate(-317.098 -238.878)" fill="#bbebef"/>
          <path id="Trazado_129188" data-name="Trazado 129188" d="M323.171,241.632a1.338,1.338,0,0,1,1.415-.239,1.027,1.027,0,0,1,.482.769l-.725-.419a.983.983,0,0,0-.873.061Z" transform="translate(-318.043 -239.421)" fill="#71a7ab"/>
          <path id="Trazado_129189" data-name="Trazado 129189" d="M321.168,244.979A3.624,3.624,0,0,1,321.8,243v0l.217.126a3.368,3.368,0,0,0-.437.923,1.9,1.9,0,0,0,0,1.26.78.78,0,0,0,.251.317l0,0,.753.436a1.037,1.037,0,0,1-.947-.055A1.175,1.175,0,0,1,321.168,244.979Z" transform="translate(-317.584 -239.818)" fill="#71a7ab"/>
          <path id="Trazado_129190" data-name="Trazado 129190" d="M318.484,239.021a.974.974,0,0,1,.928-.054l0,.008a2.086,2.086,0,0,0-.5.271c-.264-.152-.381-.23-.429-.216Z" transform="translate(-316.969 -238.872)" fill="#8bd0d0"/>
          <path id="Trazado_129191" data-name="Trazado 129191" d="M317.55,243.656a1.1,1.1,0,0,1-.46-.685,3.369,3.369,0,0,1,.583-2.35l3.179,1.835a3.761,3.761,0,0,0-.629,1.978,1.175,1.175,0,0,0,.47,1.031C320.685,245.48,320.782,245.515,317.55,243.656Z" transform="translate(-316.639 -239.272)" fill="#bbebef"/>
          <path id="Trazado_129192" data-name="Trazado 129192" d="M317.785,240.578c-.023.035-.046.074-.071.113-.061-.086-.121-.17-.18-.257Z" transform="translate(-316.752 -239.23)" fill="#4c6e81"/>
          <path id="Trazado_129193" data-name="Trazado 129193" d="M317.467,240.453c-.082-.119.007-.109.132-.035l8.986,5.188.06.083c-4.382-2.529-8.533-4.927-9.134-5.271.059.086.119.17.18.257-.009.018-.02.036-.032.055Z" transform="translate(-316.729 -239.213)" fill="#5a8694"/>
          <g id="Grupo_94054" data-name="Grupo 94054" transform="translate(0.516 1.149)" style="mix-blend-mode: multiply;isolation: isolate">
            <path id="Trazado_129194" data-name="Trazado 129194" d="M349.88,260.58c-.229-.069-.458-.135-.686-.205-1.675-.513-3.346-1.042-5.028-1.537A10.238,10.238,0,0,1,342,257.754q-9.727-5.609-19.448-11.234a1.674,1.674,0,0,0-.95-.307,1.164,1.164,0,0,1-.575-.193c-.87-.491-1.734-.994-2.6-1.5-.2-.116-.445-.17-.414-.524.012-.135-.257-.294-.432-.4a.983.983,0,0,1-.395-.5c1.075.583,2.095,1.195,3.124,1.712a3.115,3.115,0,0,1,.471-2.247c-1.1-.642-2.1-1.2-3.181-1.832,0,0-.127-.182-.2-.282-.038-.056-.042-.092.008-.084,1.007.517,2.141,1.22,3.123,1.782s1.893,1.1,2.873,1.664,2.091,1.208,3.117,1.8c.191-.214.347-.454.558-.69l.742.412-.766.99-5.986-3.446a1.8,1.8,0,0,0-.206,1.645,1.176,1.176,0,0,0,.511.482c1.465.859,2.938,1.7,4.408,2.549q7.989,4.608,15.971,9.226a4.01,4.01,0,0,0,1.1.36c.823.207,1.639.438,2.457.659q1.338.362,2.674.727a.666.666,0,0,1,.309.119c.555.61,1.1,1.23,1.641,1.848Z" transform="translate(-317.189 -240.361)" fill="#b0a7c2" style="mix-blend-mode: multiply;isolation: isolate"/>
            <path id="Trazado_129195" data-name="Trazado 129195" d="M323.358,241.654c.816-.619,1.406-.481,1.639.3a2.993,2.993,0,0,1-.321-.117,1.047,1.047,0,0,0-.811-.1C323.716,241.78,323.528,241.685,323.358,241.654Z" transform="translate(-318.602 -240.569)" fill="#c5bed1"/>
          </g>
          <path id="Trazado_129196" data-name="Trazado 129196" d="M317.442,240.072c.267-.33.53-.66.8-.991l0-.009a.028.028,0,0,1,.012-.006l0,.009c.058-.017-.328-.222,9.134,5.241l-.8.992C317.176,239.873,317.484,240.031,317.442,240.072Z" transform="translate(-316.73 -238.916)" fill="#71a7ab"/>
        </g>
      </g>
    </g>
    <g id="Grupo_94059" data-name="Grupo 94059" transform="translate(426.129 128.787)">
      <g id="Grupo_94058" data-name="Grupo 94058" transform="translate(0 0)">
        <path id="Trazado_129197" data-name="Trazado 129197" d="M557.819,238.675c0,2.871-2.327,3.855-5.2,2.2l-71.774-41.439c-2.87-1.657-5.2-5.328-5.2-8.2V156.926c0-2.871,2.327-3.855,5.2-2.2l71.775,41.439c2.871,1.657,5.2,5.328,5.2,8.2Z" transform="translate(-475.65 -153.924)" fill="#fcfcfc" opacity="0.69"/>
      </g>
      <path id="Trazado_129198" data-name="Trazado 129198" d="M533.377,210.093c0,6.374-5.167,8.558-11.541,4.878s-11.54-11.83-11.54-18.2,5.167-8.558,11.54-4.878S533.377,203.719,533.377,210.093Z" transform="translate(-483.587 -162.212)" fill="#d2448d"/>
      <path id="Trazado_129199" data-name="Trazado 129199" d="M529.963,207.717a2.564,2.564,0,0,1,.674,1.556c0,.481-.257.778-.674.778h-7.71a1.991,1.991,0,0,1-1.347-.778,2.56,2.56,0,0,1-.674-1.556v-8.9c0-.481.257-.778.674-.778a1.988,1.988,0,0,1,1.347.778Z" transform="translate(-485.864 -164.03)" fill="#fcfcfc" opacity="0.69"/>
    </g>
    <g id="Grupo_94060" data-name="Grupo 94060" transform="translate(407.983 144.833)">
      <path id="Trazado_129200" data-name="Trazado 129200" d="M522.339,206.132v.049c0,1.327-2.295,1.544-2.295,2.587,0,.6,1.46,1.753,1.46,2.993,0,2.818-3.156,3.414-5.97,3.414-.463,0-.916-.013-1.348-.026h0a5.485,5.485,0,0,0-1.442-3.282c2.317-1.226,3.511-5.8,9.235-5.8A.917.917,0,0,1,522.339,206.132Z" transform="translate(-466.001 -181.915)" fill="#e6a57a"/>
      <path id="Trazado_129201" data-name="Trazado 129201" d="M456.915,209.309a10.137,10.137,0,0,1,3.055-1.617,5.435,5.435,0,0,0,.533,1.781,7.05,7.05,0,0,0,1.9.246,14.432,14.432,0,0,0,4.812-1.028,11.359,11.359,0,0,0,.246-1.309,16.7,16.7,0,0,1,4.683,2.206,11.192,11.192,0,0,0,6.4,1.981c5.859-.046,12.246,2.34,16.287,1.313,1.267-.323,2.464-.88,3.707-1.287a2.63,2.63,0,0,1,.949.573,5.485,5.485,0,0,1,1.442,3.282,6.338,6.338,0,0,1,.056.72c-7.774,4.886-16.182,3.281-23.191,5.43a3.548,3.548,0,0,0-2.447,3.871c1.071,7.939,3.34,17,.558,19.68l-.026.021c-2.467,1.948-5.983,3.084-10.96,3.084-4.636,0-7.817-3.453-9.169-7.773v0c-.139-.444-.26-.9-.358-1.355a42.088,42.088,0,0,0,1.039-5.954c.1-1.041.171-2.122.171-3.175,0-6.712-1.725-11.951-1.725-15.568a8.372,8.372,0,0,1,.638-3.5A3.643,3.643,0,0,1,456.915,209.309Z" transform="translate(-452.744 -182.216)" fill="#f6ba28"/>
      <path id="Trazado_129202" data-name="Trazado 129202" d="M484.137,314.1a3.191,3.191,0,0,1,3.224,3.059c0,3.7-8.459,7.865-12.019,7.865-2.524,0-3.061-2.2-3.061-4.728,0-.741.053-1.484.095-2.227-.095-1.866,1.494-2.118,1.563-2.531.513.34-.288,1.74.269,1.74,1.721,0,2.954-1.44,4.077-2.988a4.2,4.2,0,0,1,.83,3.142C480.536,315.856,482.633,314.1,484.137,314.1Z" transform="translate(-456.732 -206.665)" fill="#a68efe"/>
      <path id="Trazado_129203" data-name="Trazado 129203" d="M458.431,291.05c-.206.835-.393,1.59-.556,2.247a3.348,3.348,0,0,1-.878,1.56,5.366,5.366,0,0,1-.888.816c-1.472,0-2.745,1.456-2.743-3.542h0c.387-2.706,1.052-39.518,2.037-41.812,1.352,4.32,4.533,7.773,9.169,7.773,4.977,0,8.493-1.136,10.96-3.084l0,0a33.2,33.2,0,0,1,.426,5.559c0,.106-1.493,33.886-1.836,39.88a3.614,3.614,0,0,1-2.769,2.786,2.107,2.107,0,0,1-1.752.015,1.673,1.673,0,0,1-.942-1.5c.257-6.1-2.342-32.347-4.89-36.745C462.076,270.425,460.21,283.848,458.431,291.05Z" transform="translate(-452.398 -192.053)" fill="#d2448d"/>
      <path id="Trazado_129204" data-name="Trazado 129204" d="M469.034,205.483c-.018.288-.044.576-.082.861a11.359,11.359,0,0,1-.246,1.309,14.432,14.432,0,0,1-4.812,1.028,7.05,7.05,0,0,1-1.9-.246,5.435,5.435,0,0,1-.533-1.781,6.792,6.792,0,0,1-.062-.923,4.168,4.168,0,0,1,.912-2.879,3.908,3.908,0,0,0,.681,1.006v0a6.639,6.639,0,0,0,4.911,1.674c.064,0,.126,0,.189,0C468.415,205.527,468.729,205.512,469.034,205.483Z" transform="translate(-454.24 -181.178)" fill="#8140ff"/>
      <path id="Trazado_129205" data-name="Trazado 129205" d="M468.779,204.3c-.086.354-.153.71-.209,1.068-.063,0-.125,0-.189,0a6.639,6.639,0,0,1-4.911-1.674v0c.018-.523.029-1.045.033-1.573.8.2,1.6.108,2.44.38a4.712,4.712,0,0,0,1.977.92C468.21,203.707,468.495,204,468.779,204.3Z" transform="translate(-454.713 -181.01)" fill="#e6a57a"/>
      <path id="Trazado_129206" data-name="Trazado 129206" d="M457.764,304.281c.12-.48.248-1,.385-1.558a6.4,6.4,0,0,1,3.676-1.452,2.528,2.528,0,0,1,2.809,2.509c0,5.427-8.346,9.642-10.72,9.642h-.062a2.134,2.134,0,0,1-1.719-2.162c0-2.5.5-4.254.948-7.456h0C453.4,307.153,457.494,305.371,457.764,304.281Z" transform="translate(-452.116 -203.725)" fill="#a68efe"/>
      <path id="Trazado_129207" data-name="Trazado 129207" d="M455.966,231.05c0,1.054-.066,2.135-.171,3.175h0a24.272,24.272,0,0,1-3.681-12.925c0-3.552.833-6.936,2.768-9.317a8.372,8.372,0,0,0-.638,3.5C454.241,219.1,455.966,224.338,455.966,231.05Z" transform="translate(-452.111 -183.27)" fill="#f2a305"/>
      <path id="Trazado_129208" data-name="Trazado 129208" d="M472.908,180.631c.356,1.166.254,2.33-1.139,2.754l-.015,0c-.029.009-.059.019-.087.025-1.388.38-1.683,2.035-2.565,2.305-4.481,1.368,2.036,9.5-3.927,11.318a4.787,4.787,0,0,1-.969.188,4.709,4.709,0,0,1-2.159-.3c-.884-.015-1.624.31-2.445.349a2.955,2.955,0,0,1-1.015-.119,8.475,8.475,0,0,1-5.556-6.018,13.933,13.933,0,0,1,1-10.805,10.7,10.7,0,0,1,3.568-3.678,13.532,13.532,0,0,1,3.3-1.491C465.669,173.7,471.532,176.126,472.908,180.631Z" transform="translate(-452.175 -174.737)" fill="#e06c00"/>
      <path id="Trazado_129209" data-name="Trazado 129209" d="M475.18,185.993q.223.548.4,1.115c1.112,3.644,1.126,12.114-2.993,13.372a6.782,6.782,0,0,1-3.79-.167l0,.081c-.356-.2-.716-.4-1.078-.589a4.787,4.787,0,0,0,.969-.188c5.963-1.822-.554-9.95,3.927-11.318C473.5,188.028,473.792,186.373,475.18,185.993Z" transform="translate(-455.687 -177.316)" fill="#e6a57a"/>
    </g>
    <g id="Grupo_94062" data-name="Grupo 94062" transform="translate(463.113 246.68)">
      <g id="Grupo_94061" data-name="Grupo 94061">
        <path id="Trazado_129210" data-name="Trazado 129210" d="M620.1,382.822v-8.1a3.871,3.871,0,0,0-1.752-3.039l45.425-26.224a3.865,3.865,0,0,1,1.751,3.035v8.1a1.226,1.226,0,0,1-.514,1.136Q642.3,370.84,619.6,383.952A1.281,1.281,0,0,0,620.1,382.822Z" transform="translate(-545.324 -315.696)" fill="#9f3759"/>
        <path id="Trazado_129211" data-name="Trazado 129211" d="M661.674,339.743l-45.425,26.224-3.763-2.175q-1.652-16.112-3.293-32.232L628.348,320.5Z" transform="translate(-543.227 -309.978)" fill="#bb426a"/>
        <path id="Trazado_129212" data-name="Trazado 129212" d="M618.285,391.189a1.469,1.469,0,0,1-1.057-.206l-2.442-1.415c-.07-.67-.14-1.344-.206-2.015,1.033.6,1.237.754,1.612.81a1.037,1.037,0,0,0,.658-.119,1.061,1.061,0,0,0,.46-.8c.042-.219.029.126.029-4.626a3.867,3.867,0,0,0-1.751-3.039l-1.917-1.106q-.105-1-.206-2.015l3.763,2.176a3.871,3.871,0,0,1,1.752,3.039v8.1a1.281,1.281,0,0,1-.5,1.131A.88.88,0,0,1,618.285,391.189Z" transform="translate(-544.206 -322.843)" fill="#bb426a"/>
        <path id="Trazado_129213" data-name="Trazado 129213" d="M617.371,388.041c-.181-.068-.089-.027-2.912-1.657q-.37-3.553-.728-7.115l1.917,1.106a3.867,3.867,0,0,1,1.751,3.039C617.4,388.077,617.412,387.828,617.371,388.041Z" transform="translate(-544.267 -323.442)" fill="#c8d1dd"/>
        <path id="Trazado_129214" data-name="Trazado 129214" d="M617.1,390.974a1.252,1.252,0,0,1-1.238-.123l-1.008-.584h0c-.058-.588-.12-1.176-.177-1.768,2.8,1.618,2.737,1.591,2.912,1.657a1.062,1.062,0,0,1-.46.8A.109.109,0,0,1,617.1,390.974Z" transform="translate(-544.483 -325.556)" fill="#cd7e8e"/>
        <path id="Trazado_129215" data-name="Trazado 129215" d="M610.438,379.586c.09.905.185,1.809.275,2.714a1.436,1.436,0,0,1-.715,1.267l-6.971,4.922a3.544,3.544,0,0,1-3.5.218l-4.573-44.77V340.33a1.06,1.06,0,0,0-.469-.83l.012-.017a3.532,3.532,0,0,0,3.5-.217l6.97-4.922a1.4,1.4,0,0,0,.712-1.263C605.721,333.08,607.608,352.464,610.438,379.586Z" transform="translate(-539.858 -312.86)" fill="#da926e"/>
        <path id="Trazado_129216" data-name="Trazado 129216" d="M604.3,333.87a1.764,1.764,0,0,0-.317-.234h0l-.156-1.559A1.167,1.167,0,0,1,604.3,333.87Z" transform="translate(-541.997 -312.63)" fill="#e2ae4a"/>
        <path id="Trazado_129217" data-name="Trazado 129217" d="M593.436,329.074c-.242.34-.266.308-4.174,3.067a3.542,3.542,0,0,1-3.5.218l-29.358-16.951c5.978-4.222,4.864-3.436,6.045-4.268C595.452,330.188,593.278,328.922,593.436,329.074Z" transform="translate(-531.135 -307.834)" fill="#c8d1dd"/>
        <path id="Trazado_129218" data-name="Trazado 129218" d="M594.562,328.2,563.9,310.5l-.892.629-.284-2.78,31.681,18.291Z" transform="translate(-532.582 -307.194)" fill="#e2ae4a"/>
        <path id="Trazado_129219" data-name="Trazado 129219" d="M595.094,347.163l4.573,44.77-4.573-2.64Z" transform="translate(-539.997 -316.086)" fill="#da926e"/>
        <path id="Trazado_129220" data-name="Trazado 129220" d="M591.752,394.933a1.235,1.235,0,0,1-.728,1.015L584.012,400a3.923,3.923,0,0,1-2.784.288v-51.7a1.088,1.088,0,0,0-.226-.634,1.776,1.776,0,0,0-.5-.411,3.851,3.851,0,0,0,3.508,0c7.612-4.4,7.263-4.144,7.513-4.462a1.08,1.08,0,0,0,.227-.6Z" transform="translate(-536.655 -315.014)" fill="#648f66"/>
        <path id="Trazado_129221" data-name="Trazado 129221" d="M581.185,336.55a1.067,1.067,0,0,1-.444,1.032c-.158-.134,1.957,1.1-30.928-17.884l-1.016.588v-2.842l31.681,18.291A1.461,1.461,0,0,1,581.185,336.55Z" transform="translate(-529.391 -309.278)" fill="#72a368"/>
        <path id="Trazado_129222" data-name="Trazado 129222" d="M575.33,340.584a3.866,3.866,0,0,1-3.508,0L542.6,323.715c5.439-3.143,4.45-2.572,5.79-3.347,32.874,18.978,30.769,17.749,30.928,17.884C579.149,338.391,579.24,338.326,575.33,340.584Z" transform="translate(-527.972 -309.948)" fill="#c8d1dd"/>
        <path id="Trazado_129223" data-name="Trazado 129223" d="M578.1,350.406v52.419a1.231,1.231,0,0,1-.724,1.011l-7.015,4.05a3.859,3.859,0,0,1-3.508,0V355.439a3.864,3.864,0,0,0,3.508,0l7.015-4.05A1.287,1.287,0,0,0,578.1,350.406Z" transform="translate(-533.528 -316.829)" fill="#5a84d9"/>
        <path id="Trazado_129224" data-name="Trazado 129224" d="M567.535,344.429a1.073,1.073,0,0,1-.444,1.032c-.159-.134,1.957,1.1-30.929-17.884l-1.016.588v-2.842l31.681,18.291A1.487,1.487,0,0,1,567.535,344.429Z" transform="translate(-526.264 -311.083)" fill="#6899f4"/>
        <path id="Trazado_129225" data-name="Trazado 129225" d="M565.671,346.131c-.165.14-.038.051-3.993,2.336a3.876,3.876,0,0,1-3.508,0l-29.222-16.873c5.443-3.143,4.454-2.571,5.794-3.347C567.616,347.225,565.511,346,565.671,346.131Z" transform="translate(-524.844 -311.753)" fill="#c8d1dd"/>
        <path id="Trazado_129226" data-name="Trazado 129226" d="M556.95,351.217v52.448l-33.326-19.237V331.976Z" transform="translate(-523.624 -312.607)" fill="#6899f4"/>
        <path id="Trazado_129227" data-name="Trazado 129227" d="M568.625,404.514V352c2.17-.223,3.812-1.619,5.634-2.624,1.52-.839,2.012-3.064,3.524-3.918.464-.262,1.372.17,2.207.274a3.211,3.211,0,0,0,1.534-.544c.54-.262,1.042-.6,1.564-.9.478-.275.968-.531,1.44-.817,1.414-.856,2.815-1.733,4.236-2.576.22-.13-.476-1.267-.2-1.327.03-.242,1.055.654,1.085.412.092-.052.176-.143.261-.144a5.616,5.616,0,0,0,3.261-1.388c2.116-1.518,4.263-3.431,6.583-5.081.163,1.4.3,3.071.431,4.329q.9,8.591,1.783,17.183c.077.749.162,1.713.214,2.464a2.03,2.03,0,0,0,1.3,1.91c2.865,1.558,5.688,3.2,8.494,4.86,1.286.762,2.5,1.652,3.933,2.613,12.584-7.2,25.039-14.466,38.107-21.93,0,1.747.251,3.172.149,4.556-.089,1.2.375,1.731,1.47,2.292,1.83.935,3.579,2.03,5.355,3.069.331.194.628.445,1.153.822l-38.583,22.289a9.053,9.053,0,0,0,.89.7q5.859,3.4,11.726,6.791c.589.342,1.409.571,1.347,1.439-.053.748-.782.983-1.354,1.284-2.043,1.075-4.122,2.087-6.123,3.234a5.518,5.518,0,0,1-3.913.791,3.843,3.843,0,0,1-.274,1.379,3.5,3.5,0,0,1-1.171.912c-1.685,1-3.393,1.951-5.078,2.948a5.178,5.178,0,0,1-3.987,1.006,2.154,2.154,0,0,1-1.428,2.108c-2.06,1.149-4.094,2.347-6.119,3.554a5.127,5.127,0,0,1-2.761.557q-17.486-.009-34.975,0Z" transform="translate(-533.933 -312.924)" fill="#b0a7c2" style="mix-blend-mode: multiply;isolation: isolate"/>
        <path id="Trazado_129228" data-name="Trazado 129228" d="M591.786,326.3,560.1,308.007l1.633-1.156,33.322,19.241a1.229,1.229,0,0,1,.012,2.242l-6.971,4.922a3.532,3.532,0,0,1-3.5.217l-.012.017c-.18-.153,2.148,1.209-33.3-19.262l1.624-1.143c3.372,1.945-1.457-.843,31.681,18.291a3.542,3.542,0,0,0,3.5-.218l3.71-2.62A1.229,1.229,0,0,0,591.786,326.3Z" transform="translate(-529.962 -306.851)" fill="#ebd863"/>
        <path id="Trazado_129229" data-name="Trazado 129229" d="M564.911,344.35a1.27,1.27,0,0,0-.724-1.016l-31.681-18.291,1.641-.946c35.607,20.554,33.559,19.312,33.824,19.648.469.63.163,1.227-.5,1.617l-7.015,4.05a3.864,3.864,0,0,1-3.508,0l-33.326-19.241,1.645-.946c2.931,1.691-3.46-2,31.681,18.291a3.876,3.876,0,0,0,3.508,0c3.936-2.274,3.963-2.239,4.228-2.566A1.115,1.115,0,0,0,564.911,344.35Z" transform="translate(-523.624 -310.802)" fill="#82c2e8"/>
        <path id="Trazado_129230" data-name="Trazado 129230" d="M581.379,335.635a1.06,1.06,0,0,1,.469.83,1.246,1.246,0,0,1-.728,1.012l-7.011,4.05a3.852,3.852,0,0,1-3.508,0l-33.326-19.237,1.644-.95c20.313,11.753,31.615,18.253,31.681,18.291a3.866,3.866,0,0,0,3.508,0c3.684-2.129,3.818-2.192,3.993-2.332a1.138,1.138,0,0,0,.461-.835,1.262,1.262,0,0,0-.724-1.011l-31.681-18.291,1.641-.95C547.84,316.236,581.177,335.463,581.379,335.635Z" transform="translate(-526.751 -308.996)" fill="#84bf80"/>
      </g>
      <path id="Trazado_129231" data-name="Trazado 129231" d="M627.368,333.589l20.963,12.1a3.439,3.439,0,0,0,3.111,0l1.033-.6a.947.947,0,0,0,0-1.8l-20.963-12.1a3.434,3.434,0,0,0-3.111,0l-1.033.6A.948.948,0,0,0,627.368,333.589Z" transform="translate(-547.243 -312.343)" fill="#9f3759"/>
      <path id="Trazado_129232" data-name="Trazado 129232" d="M552.133,363.922l-20.963-12.1c-.859-.5-1.556-.2-1.556.657v1.034a3.224,3.224,0,0,0,1.556,2.453l20.963,12.1c.859.5,1.555.2,1.555-.658v-1.033A3.225,3.225,0,0,0,552.133,363.922Z" transform="translate(-524.996 -317.098)" fill="#4b7cd6"/>
      <path id="Trazado_129233" data-name="Trazado 129233" d="M552.133,373.425l-20.963-12.1c-.859-.5-1.556-.2-1.556.658v1.033a3.224,3.224,0,0,0,1.556,2.453l20.963,12.1c.859.5,1.555.2,1.555-.658v-1.033A3.225,3.225,0,0,0,552.133,373.425Z" transform="translate(-524.996 -319.275)" fill="#4b7cd6"/>
    </g>
  </g>
</svg>
