<svg xmlns="http://www.w3.org/2000/svg" xmlns:xlink="http://www.w3.org/1999/xlink" width="68" height="68" viewBox="0 0 68 68">
  <defs>
    <clipPath id="clip-path">
      <rect id="_15" data-name="15" width="68" height="68" transform="translate(-5721 -9661)" fill="#12263f"/>
    </clipPath>
  </defs>
  <g id="Enmascarar_grupo_107" data-name="Enmascarar grupo 107" transform="translate(5721 9661)" clip-path="url(#clip-path)">
    <g id="calendario" transform="translate(-5721 -9661)">
      <path id="Trazado_125387" data-name="Trazado 125387" d="M7.331,35.3h5.162a1.76,1.76,0,0,0,1.758-1.758V28.384a1.76,1.76,0,0,0-1.758-1.758H7.331a1.76,1.76,0,0,0-1.758,1.758v5.161A1.76,1.76,0,0,0,7.331,35.3Zm.233-6.686h4.695v4.7H7.564Z" fill="#12263f"/>
      <path id="Trazado_125388" data-name="Trazado 125388" d="M19.375,35.3h5.161a1.76,1.76,0,0,0,1.758-1.758V28.384a1.76,1.76,0,0,0-1.758-1.758H19.375a1.76,1.76,0,0,0-1.758,1.758v5.161A1.76,1.76,0,0,0,19.375,35.3Zm.233-6.686h4.7v4.7h-4.7Z" fill="#12263f"/>
      <path id="Trazado_125389" data-name="Trazado 125389" d="M31.419,35.3H36.58a1.76,1.76,0,0,0,1.758-1.758V28.384a1.76,1.76,0,0,0-1.758-1.758H31.419a1.76,1.76,0,0,0-1.758,1.758v5.161A1.76,1.76,0,0,0,31.419,35.3Zm.233-6.686h4.7v4.7h-4.7Z" fill="#12263f"/>
      <path id="Trazado_125390" data-name="Trazado 125390" d="M48.624,35.3a1.76,1.76,0,0,0,1.758-1.758V28.384a1.76,1.76,0,0,0-1.758-1.758H43.462A1.76,1.76,0,0,0,41.7,28.384v5.161A1.76,1.76,0,0,0,43.462,35.3ZM43.7,28.617h4.7v4.7H43.7Z" fill="#12263f"/>
      <path id="Trazado_125391" data-name="Trazado 125391" d="M60.668,26.626H55.506a1.76,1.76,0,0,0-1.758,1.758v5.161A1.76,1.76,0,0,0,55.506,35.3h5.162a1.76,1.76,0,0,0,1.758-1.758V28.384a1.76,1.76,0,0,0-1.758-1.758Zm-.233,6.686H55.74v-4.7h4.695Z" fill="#12263f"/>
      <path id="Trazado_125392" data-name="Trazado 125392" d="M5.573,44.638A1.76,1.76,0,0,0,7.331,46.4h5.162a1.76,1.76,0,0,0,1.758-1.758V39.477a1.76,1.76,0,0,0-1.758-1.758H7.331a1.76,1.76,0,0,0-1.758,1.758v5.161ZM7.564,39.71h4.695v4.7H7.564Z" fill="#12263f"/>
      <path id="Trazado_125393" data-name="Trazado 125393" d="M17.617,44.638A1.76,1.76,0,0,0,19.375,46.4h5.161a1.76,1.76,0,0,0,1.758-1.758V39.477a1.76,1.76,0,0,0-1.758-1.758H19.375a1.76,1.76,0,0,0-1.758,1.758Zm1.991-4.928h4.7v4.7h-4.7Z" fill="#12263f"/>
      <path id="Trazado_125394" data-name="Trazado 125394" d="M29.661,44.638A1.76,1.76,0,0,0,31.419,46.4H36.58a1.76,1.76,0,0,0,1.758-1.758V39.477a1.76,1.76,0,0,0-1.758-1.758H31.419a1.76,1.76,0,0,0-1.758,1.758Zm1.991-4.928h4.7v4.7h-4.7Z" fill="#12263f"/>
      <path id="Trazado_125395" data-name="Trazado 125395" d="M5.573,55.731a1.76,1.76,0,0,0,1.758,1.758h5.162a1.76,1.76,0,0,0,1.758-1.758V50.57a1.76,1.76,0,0,0-1.758-1.758H7.331A1.76,1.76,0,0,0,5.573,50.57v5.161ZM7.564,50.8h4.695v4.7H7.564Z" fill="#12263f"/>
      <path id="Trazado_125396" data-name="Trazado 125396" d="M17.617,55.731a1.76,1.76,0,0,0,1.758,1.758h5.161a1.76,1.76,0,0,0,1.758-1.758V50.57a1.76,1.76,0,0,0-1.758-1.758H19.375a1.76,1.76,0,0,0-1.758,1.758ZM19.608,50.8h4.7v4.7h-4.7Z" fill="#12263f"/>
      <path id="Trazado_125397" data-name="Trazado 125397" d="M29.661,55.731a1.76,1.76,0,0,0,1.758,1.758H36.58a1.76,1.76,0,0,0,1.758-1.758V50.57a1.76,1.76,0,0,0-1.758-1.758H31.419a1.76,1.76,0,0,0-1.758,1.758ZM31.652,50.8h4.7v4.7h-4.7Z" fill="#12263f"/>
      <path id="Trazado_125398" data-name="Trazado 125398" d="M52.065,58.31A10.678,10.678,0,0,0,62.71,48.746a1,1,0,0,0-1.98-.21,8.716,8.716,0,1,1-5.87-9.186,1,1,0,0,0,.639-1.886A10.706,10.706,0,1,0,52.065,58.31Z" fill="#12263f"/>
      <path id="Trazado_125399" data-name="Trazado 125399" d="M59.472,38.493,51.146,46.24l-1.024-1.018a1.479,1.479,0,0,0-1.072-.44,1.505,1.505,0,0,0-1.07.447L45.9,47.317a1.515,1.515,0,0,0,.007,2.142L48.973,52.5a2.987,2.987,0,0,0,4.14.068l10.429-9.7a1.517,1.517,0,0,0,.077-2.141L61.613,38.57a1.516,1.516,0,0,0-2.141-.077ZM51.756,51.112a1,1,0,0,1-1.38-.023l-2.724-2.707,1.4-1.412,1.365,1.357a1,1,0,0,0,1.38.023l8.678-8.074,1.356,1.458Z" fill="#12263f"/>
      <path id="Trazado_125400" data-name="Trazado 125400" d="M62.532,10.065h-6.1V7.725a2.564,2.564,0,0,0-2.562-2.562h-.9A2.564,2.564,0,0,0,50.4,7.725v2.34H17.6V7.725a2.564,2.564,0,0,0-2.562-2.562h-.9a2.564,2.564,0,0,0-2.562,2.562v2.34h-6.1A5.475,5.475,0,0,0,0,15.533v32.5a1,1,0,0,0,1.991,0V23.181H12.464a1,1,0,1,0,0-1.991H1.991V15.533a3.481,3.481,0,0,1,3.477-3.477h6.1V14.4a2.564,2.564,0,0,0,2.562,2.562h.9A2.564,2.564,0,0,0,17.6,14.4v-2.34H50.4V14.4a2.564,2.564,0,0,0,2.562,2.562h.9A2.564,2.564,0,0,0,56.428,14.4v-2.34h6.1a3.481,3.481,0,0,1,3.477,3.477V21.19h-49.3a1,1,0,0,0,0,1.991h49.3V57.368a3.481,3.481,0,0,1-3.477,3.477H5.468a3.481,3.481,0,0,1-3.477-3.477V52.279a1,1,0,0,0-1.991,0v5.089a5.475,5.475,0,0,0,5.468,5.468H62.532A5.475,5.475,0,0,0,68,57.368V15.533a5.475,5.475,0,0,0-5.468-5.468ZM15.608,14.4a.571.571,0,0,1-.57.57h-.9a.571.571,0,0,1-.57-.57V7.725a.571.571,0,0,1,.57-.57h.9a.571.571,0,0,1,.57.57Zm38.828,0a.571.571,0,0,1-.57.57h-.9a.571.571,0,0,1-.57-.57V7.725a.571.571,0,0,1,.57-.57h.9a.571.571,0,0,1,.57.57Z" fill="#12263f"/>
    </g>
  </g>
</svg>
