<svg xmlns="http://www.w3.org/2000/svg" width="1030" height="86" viewBox="0 0 1030 86">
  <g id="Grupo_94072" data-name="Grupo 94072" transform="translate(-285 -8641)">
    <path id="Trazado_129250" data-name="Trazado 129250" d="M10,0H180a10,10,0,0,1,10,10V76a10,10,0,0,1-10,10H10A10,10,0,0,1,0,76V10A10,10,0,0,1,10,0Z" transform="translate(285 8641)" fill="#6b8dff"/>
    <path id="Trazado_129247" data-name="Trazado 129247" d="M10,0H142a10,10,0,0,1,10,10V76a10,10,0,0,1-10,10H10A10,10,0,0,1,0,76V10A10,10,0,0,1,10,0Z" transform="translate(533 8641)" fill="#ffd947"/>
    <path id="Trazado_129244" data-name="Trazado 129244" d="M10,0H142a10,10,0,0,1,10,10V76a10,10,0,0,1-10,10H10A10,10,0,0,1,0,76V10A10,10,0,0,1,10,0Z" transform="translate(743 8641)" fill="#ff5f65"/>
    <path id="Trazado_129241" data-name="Trazado 129241" d="M10,0H351a10,10,0,0,1,10,10V76a10,10,0,0,1-10,10H10A10,10,0,0,1,0,76V10A10,10,0,0,1,10,0Z" transform="translate(954 8641)" fill="#3c3fa7"/>
    <path id="Trazado_129251" data-name="Trazado 129251" d="M-23.2-3.463Q-23.01-4.456-24.275-5l-1.441-.6Q-28.749-6.961-28.6-9.308a3.274,3.274,0,0,1,.738-1.912,4.385,4.385,0,0,1,1.872-1.305,6.889,6.889,0,0,1,2.61-.448,4.439,4.439,0,0,1,3.054,1.107,3.679,3.679,0,0,1,1.138,2.874h-2.988a1.79,1.79,0,0,0-.312-1.182,1.351,1.351,0,0,0-1.112-.461,2.33,2.33,0,0,0-1.336.352,1.426,1.426,0,0,0-.686.993q-.167.879,1.305,1.441a14.352,14.352,0,0,1,2.14.967,3.534,3.534,0,0,1,1.969,3.393,3.474,3.474,0,0,1-.712,1.942A4.115,4.115,0,0,1-22.7-.255a6.576,6.576,0,0,1-2.553.439,6.164,6.164,0,0,1-1.925-.325,4.235,4.235,0,0,1-1.521-.9,3.9,3.9,0,0,1-1.23-3.12l3.015.009a2.064,2.064,0,0,0,.378,1.49,1.816,1.816,0,0,0,1.45.505A2.176,2.176,0,0,0-23.823-2.5,1.441,1.441,0,0,0-23.2-3.463Zm9.738,2.426A3.148,3.148,0,0,1-16.031.185a2.492,2.492,0,0,1-2.1-.976,3.6,3.6,0,0,1-.549-2.566l1.028-6.152h2.892l-1.046,6.195a2.064,2.064,0,0,0,0,.466.766.766,0,0,0,.853.748A1.868,1.868,0,0,0-13.4-2.822l1.178-6.688h2.909L-10.969,0h-2.689Zm13.438-3.7A6.891,6.891,0,0,1-1.389-1.1,3.409,3.409,0,0,1-4.254.185,2.522,2.522,0,0,1-6.416-.993L-6.776,0H-9.4l2.347-13.5h2.892L-5.1-8.728a2.87,2.87,0,0,1,2.136-.958,2.679,2.679,0,0,1,2.18,1A4.351,4.351,0,0,1,.044-6.021,9.674,9.674,0,0,1,0-4.922ZM-2.9-4.908a9.1,9.1,0,0,0,.079-1.018q0-1.413-1.011-1.474a1.732,1.732,0,0,0-1.5.763l-.686,3.791a1.163,1.163,0,0,0,1.2.746q1.415.044,1.784-1.843l.123-.781Zm8.156-4.6L3.595.3A4.036,4.036,0,0,1,2.312,2.94a3.9,3.9,0,0,1-2.725.927A9.186,9.186,0,0,1-1.863,3.7l.237-2.25a3.9,3.9,0,0,0,.8.105A1.407,1.407,0,0,0,.686.2L2.355-9.51Zm-2.681-2.4a1.326,1.326,0,0,1,.457-1.075,1.646,1.646,0,0,1,1.134-.423,1.6,1.6,0,0,1,1.125.375,1.332,1.332,0,0,1,.475,1.018,1.35,1.35,0,0,1-.435,1.058,1.67,1.67,0,0,1-1.156.45A1.667,1.667,0,0,1,3.05-10.9,1.323,1.323,0,0,1,2.575-11.913ZM10.028.176a4.421,4.421,0,0,1-2.272-.6A3.793,3.793,0,0,1,6.249-2.079a4.44,4.44,0,0,1-.4-2.333l.026-.246A5.829,5.829,0,0,1,7.5-8.372a4.51,4.51,0,0,1,3.415-1.314,3.678,3.678,0,0,1,2.092.621A3.468,3.468,0,0,1,14.282-7.4a5.1,5.1,0,0,1,.264,2.381l-.167,1.206H8.719A1.854,1.854,0,0,0,9.141-2.6a1.549,1.549,0,0,0,1.178.492,2.993,2.993,0,0,0,2.259-.967l1.213,1.6a3.578,3.578,0,0,1-1.5,1.2,5.263,5.263,0,0,1-2.1.451Zm.7-7.576a1.487,1.487,0,0,0-1.068.385,3.229,3.229,0,0,0-.787,1.347h2.892l.053-.254a1.929,1.929,0,0,0,.018-.577A1.017,1.017,0,0,0,10.731-7.4ZM19.3-2.109a1.244,1.244,0,0,0,.976-.345,1.717,1.717,0,0,0,.448-.938L23.432-3.4a3.559,3.559,0,0,1-.62,1.872A3.745,3.745,0,0,1,21.283-.25a4.521,4.521,0,0,1-2.061.426,3.57,3.57,0,0,1-2.927-1.367,4.726,4.726,0,0,1-.835-3.441l.026-.211A6.371,6.371,0,0,1,16.295-7.4,4.626,4.626,0,0,1,18-9.114a4.433,4.433,0,0,1,2.369-.571A3.536,3.536,0,0,1,23-8.626a3.755,3.755,0,0,1,.927,2.764l-2.707-.009q.044-1.5-1.081-1.529-1.529-.053-1.758,2.567L18.3-3.94l-.009.333Q18.29-2.136,19.3-2.109Zm10.178-9.765L29.065-9.51h1.521l-.36,2.057H28.705l-.738,4.368a1.164,1.164,0,0,0,.057.677q.119.229.593.246a6.873,6.873,0,0,0,.756-.044L29.162-.062a4.673,4.673,0,0,1-1.556.22,2.563,2.563,0,0,1-2.013-.791,2.7,2.7,0,0,1-.545-2.1l.773-4.72H24.645L25-9.51h1.178l.413-2.364ZM-18.483,21.537q.193-.993-1.072-1.538L-21,19.4q-3.032-1.362-2.883-3.709a3.274,3.274,0,0,1,.738-1.912,4.385,4.385,0,0,1,1.872-1.305,6.889,6.889,0,0,1,2.61-.448A4.439,4.439,0,0,1-15.6,13.135a3.679,3.679,0,0,1,1.138,2.874h-2.988a1.79,1.79,0,0,0-.312-1.182,1.351,1.351,0,0,0-1.112-.461,2.33,2.33,0,0,0-1.336.352,1.426,1.426,0,0,0-.686.993q-.167.879,1.305,1.441a14.352,14.352,0,0,1,2.14.967,3.534,3.534,0,0,1,1.969,3.393,3.474,3.474,0,0,1-.712,1.942,4.115,4.115,0,0,1-1.78,1.292,6.576,6.576,0,0,1-2.553.439,6.164,6.164,0,0,1-1.925-.325,4.235,4.235,0,0,1-1.521-.9,3.9,3.9,0,0,1-1.23-3.12l3.015.009a2.064,2.064,0,0,0,.378,1.49,1.816,1.816,0,0,0,1.45.505A2.176,2.176,0,0,0-19.1,22.5,1.441,1.441,0,0,0-18.483,21.537Zm9.738,2.426a3.148,3.148,0,0,1-2.566,1.222,2.492,2.492,0,0,1-2.1-.976,3.6,3.6,0,0,1-.549-2.566l1.028-6.152h2.892l-1.046,6.195a2.064,2.064,0,0,0,0,.466.766.766,0,0,0,.853.748,1.868,1.868,0,0,0,1.556-.722l1.178-6.688H-4.6L-6.249,25H-8.938ZM.062,15.49-1.6,25.3A4.036,4.036,0,0,1-2.883,27.94a3.9,3.9,0,0,1-2.725.927,9.185,9.185,0,0,1-1.45-.167l.237-2.25a3.9,3.9,0,0,0,.8.105A1.407,1.407,0,0,0-4.509,25.2l1.67-9.712Zm-2.681-2.4a1.326,1.326,0,0,1,.457-1.075,1.646,1.646,0,0,1,1.134-.423A1.6,1.6,0,0,1,.1,11.963a1.332,1.332,0,0,1,.475,1.018,1.35,1.35,0,0,1-.435,1.058,1.67,1.67,0,0,1-1.156.45A1.667,1.667,0,0,1-2.145,14.1,1.323,1.323,0,0,1-2.619,13.087ZM4.834,25.176a4.421,4.421,0,0,1-2.272-.6,3.793,3.793,0,0,1-1.507-1.652,4.44,4.44,0,0,1-.4-2.333l.026-.246a5.829,5.829,0,0,1,1.63-3.713,4.51,4.51,0,0,1,3.415-1.314,3.678,3.678,0,0,1,2.092.621A3.468,3.468,0,0,1,9.088,17.6a5.1,5.1,0,0,1,.264,2.381l-.167,1.206H3.524A1.854,1.854,0,0,0,3.946,22.4a1.549,1.549,0,0,0,1.178.492,2.993,2.993,0,0,0,2.259-.967l1.213,1.6a3.578,3.578,0,0,1-1.5,1.2,5.263,5.263,0,0,1-2.1.451Zm.7-7.576a1.487,1.487,0,0,0-1.068.385,3.229,3.229,0,0,0-.787,1.347H6.574l.053-.254a1.929,1.929,0,0,0,.018-.577A1.017,1.017,0,0,0,5.537,17.6Zm9.589-4.474-.413,2.364h1.521l-.36,2.057H14.353l-.738,4.368a1.164,1.164,0,0,0,.057.677q.119.229.593.246a6.873,6.873,0,0,0,.756-.044l-.211,2.145a4.673,4.673,0,0,1-1.556.22,2.563,2.563,0,0,1-2.013-.791,2.7,2.7,0,0,1-.545-2.1l.773-4.72H10.292l.352-2.057h1.178l.413-2.364Zm5.941,2.188a3.994,3.994,0,0,1,2.206.637,3.59,3.59,0,0,1,1.367,1.727,5.33,5.33,0,0,1,.312,2.461l-.018.193a5.636,5.636,0,0,1-1.626,3.533,4.575,4.575,0,0,1-3.41,1.31,3.977,3.977,0,0,1-2.188-.628,3.612,3.612,0,0,1-1.367-1.709,5.179,5.179,0,0,1-.321-2.443,5.863,5.863,0,0,1,1.6-3.727A4.547,4.547,0,0,1,21.067,15.314ZM18.914,20.4l-.026.518q-.123,1.957,1.2,1.992,1.705.053,1.978-2.764l.035-.8a2.155,2.155,0,0,0-.294-1.259,1.073,1.073,0,0,0-.918-.487,1.512,1.512,0,0,0-1.314.654A4.278,4.278,0,0,0,18.914,20.4Z" transform="translate(381 8678)" fill="#fff"/>
    <path id="Trazado_129242" data-name="Trazado 129242" d="M10.74-4.359a4.614,4.614,0,0,1-.883,2.391A5,5,0,0,1,7.835-.36,6.259,6.259,0,0,1,5.124.176,4.215,4.215,0,0,1,1.969-1.116,5.193,5.193,0,0,1,.712-4.5a11.02,11.02,0,0,1,.312-3.1A8.2,8.2,0,0,1,2.3-10.525a5.855,5.855,0,0,1,2.083-1.863A5.407,5.407,0,0,1,7-12.981a4.577,4.577,0,0,1,3.309,1.257,4.92,4.92,0,0,1,1.323,3.366l-3-.009a2.465,2.465,0,0,0-.422-1.67,1.852,1.852,0,0,0-1.389-.536q-2.373-.079-2.892,3.691A20.283,20.283,0,0,0,3.7-4.447Q3.656-2.285,5.3-2.224A2.348,2.348,0,0,0,7-2.747,2.615,2.615,0,0,0,7.8-4.324Zm4.878-4.113A3.107,3.107,0,0,1,18.07-9.694a2.472,2.472,0,0,1,2.123,1.046,3.981,3.981,0,0,1,.5,2.742L19.705,0H16.813l.993-5.948a3.079,3.079,0,0,0,.018-.563.878.878,0,0,0-.967-.9,1.873,1.873,0,0,0-1.389.572L14.256,0H11.364l2.347-13.5H16.6ZM26.736,0a2.578,2.578,0,0,1-.123-.861A2.933,2.933,0,0,1,24.284.176,2.866,2.866,0,0,1,22.228-.65a2.483,2.483,0,0,1-.765-1.96,2.79,2.79,0,0,1,1.292-2.377,6.091,6.091,0,0,1,3.41-.831l.967.018.105-.536.035-.466a.755.755,0,0,0-.8-.826A1.111,1.111,0,0,0,25.3-6.583l-2.9.009a2.754,2.754,0,0,1,.624-1.666A3.7,3.7,0,0,1,24.6-9.33a5.512,5.512,0,0,1,2.123-.356,4.251,4.251,0,0,1,1.894.453,2.82,2.82,0,0,1,1.217,1.187,3.031,3.031,0,0,1,.308,1.753l-.712,4.474-.044.545a2.4,2.4,0,0,0,.167,1.107L29.549,0ZM25.084-1.916A1.865,1.865,0,0,0,26.64-2.7l.29-1.529-.747-.009a1.969,1.969,0,0,0-1.2.409A1.55,1.55,0,0,0,24.4-2.76a.778.778,0,0,0,.136.593A.7.7,0,0,0,25.084-1.916ZM37.591-6.829a8.273,8.273,0,0,0-.9-.088,2.233,2.233,0,0,0-1.986.9L33.636,0H30.744L32.4-9.51l2.7-.009-.22,1.248a2.64,2.64,0,0,1,2.2-1.441,4.144,4.144,0,0,1,.9.123ZM40.482,0h-2.9L39.92-13.5h2.9Zm6.565.176a4.421,4.421,0,0,1-2.272-.6,3.793,3.793,0,0,1-1.507-1.652,4.44,4.44,0,0,1-.4-2.333l.026-.246a5.829,5.829,0,0,1,1.63-3.713,4.51,4.51,0,0,1,3.415-1.314,3.678,3.678,0,0,1,2.092.621A3.468,3.468,0,0,1,51.3-7.4a5.1,5.1,0,0,1,.264,2.381L51.4-3.814h-5.66A1.854,1.854,0,0,0,46.16-2.6a1.549,1.549,0,0,0,1.178.492A2.993,2.993,0,0,0,49.6-3.076l1.213,1.6a3.578,3.578,0,0,1-1.5,1.2,5.263,5.263,0,0,1-2.1.451Zm.7-7.576a1.487,1.487,0,0,0-1.068.385A3.229,3.229,0,0,0,45.9-5.669h2.892l.053-.254a1.929,1.929,0,0,0,.018-.577A1.017,1.017,0,0,0,47.751-7.4Zm9.527,4.676q.114-.58-.9-.87l-.624-.158a4.806,4.806,0,0,1-2.241-1.134,2.244,2.244,0,0,1-.668-1.731,2.758,2.758,0,0,1,1.217-2.228,4.633,4.633,0,0,1,2.861-.839,4.292,4.292,0,0,1,2.72.853,2.781,2.781,0,0,1,1.059,2.25l-2.883-.009q.035-1.125-.993-1.125a1.417,1.417,0,0,0-.817.259,1.007,1.007,0,0,0-.448.69q-.149.712,1.257.976a7.3,7.3,0,0,1,1.89.672,2.821,2.821,0,0,1,1.02.945,2.35,2.35,0,0,1,.325,1.354,2.541,2.541,0,0,1-.562,1.538A3.642,3.642,0,0,1,57.942-.2a5.557,5.557,0,0,1-2.2.378,4.469,4.469,0,0,1-1.912-.431A3.408,3.408,0,0,1,52.449-1.4a2.979,2.979,0,0,1-.514-1.666l2.689.018A1.111,1.111,0,0,0,55.89-1.8a1.661,1.661,0,0,0,.914-.242A1.045,1.045,0,0,0,57.278-2.725ZM70.119.176a4.421,4.421,0,0,1-2.272-.6A3.793,3.793,0,0,1,66.34-2.079a4.44,4.44,0,0,1-.4-2.333l.026-.246a5.829,5.829,0,0,1,1.63-3.713,4.51,4.51,0,0,1,3.415-1.314,3.678,3.678,0,0,1,2.092.621A3.468,3.468,0,0,1,74.373-7.4a5.1,5.1,0,0,1,.264,2.381L74.47-3.814H68.81A1.854,1.854,0,0,0,69.231-2.6a1.549,1.549,0,0,0,1.178.492,2.993,2.993,0,0,0,2.259-.967l1.213,1.6a3.578,3.578,0,0,1-1.5,1.2,5.263,5.263,0,0,1-2.1.451Zm.7-7.576a1.487,1.487,0,0,0-1.068.385,3.229,3.229,0,0,0-.787,1.347h2.892l.053-.254A1.929,1.929,0,0,0,71.93-6.5,1.017,1.017,0,0,0,70.822-7.4Zm8.455-2.118-.2,1.143a3.38,3.38,0,0,1,2.751-1.318,2.27,2.27,0,0,1,1.964.98,4.1,4.1,0,0,1,.47,2.729L83.259,0h-2.9l1.011-6.01a3.108,3.108,0,0,0,.018-.563q-.062-.836-.984-.836a1.807,1.807,0,0,0-1.4.678L77.818,0H74.927l1.652-9.51Zm10.4.009L88.014.3A4.036,4.036,0,0,1,86.73,2.94a3.9,3.9,0,0,1-2.725.927,9.186,9.186,0,0,1-1.45-.167l.237-2.25a3.9,3.9,0,0,0,.8.105A1.407,1.407,0,0,0,85.1.2l1.67-9.712Zm-2.681-2.4a1.326,1.326,0,0,1,.457-1.075,1.646,1.646,0,0,1,1.134-.423,1.6,1.6,0,0,1,1.125.375,1.332,1.332,0,0,1,.475,1.018,1.35,1.35,0,0,1-.435,1.058,1.67,1.67,0,0,1-1.156.45,1.667,1.667,0,0,1-1.125-.392A1.323,1.323,0,0,1,86.994-11.913Zm8.271,2.228a3.994,3.994,0,0,1,2.206.637,3.59,3.59,0,0,1,1.367,1.727,5.33,5.33,0,0,1,.312,2.461l-.018.193a5.636,5.636,0,0,1-1.626,3.533A4.575,4.575,0,0,1,94.1.176a3.977,3.977,0,0,1-2.188-.628,3.612,3.612,0,0,1-1.367-1.709,5.179,5.179,0,0,1-.321-2.443,5.863,5.863,0,0,1,1.6-3.727A4.547,4.547,0,0,1,95.265-9.686ZM93.111-4.6l-.026.518q-.123,1.957,1.2,1.992,1.705.053,1.978-2.764l.035-.8A2.155,2.155,0,0,0,96-6.913,1.073,1.073,0,0,0,95.08-7.4a1.512,1.512,0,0,0-1.314.654A4.278,4.278,0,0,0,93.111-4.6Zm10.872.418,2.461-5.326h3.19L104.063,1.424a4.765,4.765,0,0,1-1.437,1.868,3.266,3.266,0,0,1-1.938.576,5.473,5.473,0,0,1-1.274-.193l.22-2.118h.334a2.394,2.394,0,0,0,.94-.171,1.432,1.432,0,0,0,.677-.664L102-.07,100.477-9.51h2.988Zm10.125,1.459q.114-.58-.9-.87l-.624-.158a4.806,4.806,0,0,1-2.241-1.134,2.244,2.244,0,0,1-.668-1.731A2.758,2.758,0,0,1,110.9-8.846a4.633,4.633,0,0,1,2.861-.839,4.292,4.292,0,0,1,2.72.853,2.781,2.781,0,0,1,1.059,2.25l-2.883-.009q.035-1.125-.993-1.125a1.417,1.417,0,0,0-.817.259,1.007,1.007,0,0,0-.448.69q-.149.712,1.257.976a7.3,7.3,0,0,1,1.89.672,2.821,2.821,0,0,1,1.02.945,2.35,2.35,0,0,1,.325,1.354,2.541,2.541,0,0,1-.562,1.538A3.642,3.642,0,0,1,114.772-.2a5.557,5.557,0,0,1-2.2.378,4.469,4.469,0,0,1-1.912-.431,3.408,3.408,0,0,1-1.38-1.147,2.979,2.979,0,0,1-.514-1.666l2.689.018A1.111,1.111,0,0,0,112.72-1.8a1.661,1.661,0,0,0,.914-.242A1.045,1.045,0,0,0,114.108-2.725Zm14.977-4.1a8.273,8.273,0,0,0-.9-.088,2.233,2.233,0,0,0-1.986.9L125.13,0h-2.892l1.652-9.51,2.7-.009-.22,1.248a2.64,2.64,0,0,1,2.2-1.441,4.144,4.144,0,0,1,.9.123Zm5.071-2.856a3.994,3.994,0,0,1,2.206.637,3.59,3.59,0,0,1,1.367,1.727,5.33,5.33,0,0,1,.312,2.461l-.018.193A5.636,5.636,0,0,1,136.4-1.134a4.575,4.575,0,0,1-3.41,1.31A3.977,3.977,0,0,1,130.8-.453a3.612,3.612,0,0,1-1.367-1.709,5.179,5.179,0,0,1-.321-2.443,5.863,5.863,0,0,1,1.6-3.727A4.547,4.547,0,0,1,134.156-9.686ZM132-4.6l-.026.518q-.123,1.957,1.2,1.992,1.705.053,1.978-2.764l.035-.8a2.155,2.155,0,0,0-.294-1.259,1.073,1.073,0,0,0-.918-.487,1.512,1.512,0,0,0-1.314.654A4.278,4.278,0,0,0,132-4.6Zm10.863-4.917-.193,1.143a3.414,3.414,0,0,1,2.777-1.31,2.509,2.509,0,0,1,1.415.4,1.843,1.843,0,0,1,.738,1.028A3.619,3.619,0,0,1,150.5-9.686a2.241,2.241,0,0,1,1.956.989,4.117,4.117,0,0,1,.461,2.711L151.919,0h-2.9l1.011-5.987.035-.518q0-.869-.817-.9a1.872,1.872,0,0,0-1.424.781L146.672,0h-2.9l1-5.969.035-.527q0-.9-.817-.9a1.86,1.86,0,0,0-1.406.781L141.416,0h-2.892l1.652-9.51ZM158.994,0a2.578,2.578,0,0,1-.123-.861A2.933,2.933,0,0,1,156.542.176a2.866,2.866,0,0,1-2.057-.826,2.483,2.483,0,0,1-.765-1.96,2.79,2.79,0,0,1,1.292-2.377,6.091,6.091,0,0,1,3.41-.831l.967.018.105-.536.035-.466a.755.755,0,0,0-.8-.826,1.111,1.111,0,0,0-1.169,1.046l-2.9.009a2.754,2.754,0,0,1,.624-1.666,3.7,3.7,0,0,1,1.578-1.09,5.512,5.512,0,0,1,2.123-.356,4.251,4.251,0,0,1,1.894.453A2.82,2.82,0,0,1,162.1-8.046a3.031,3.031,0,0,1,.308,1.753l-.712,4.474-.044.545a2.4,2.4,0,0,0,.167,1.107L161.807,0Zm-1.652-1.916A1.865,1.865,0,0,0,158.9-2.7l.29-1.529-.747-.009a1.969,1.969,0,0,0-1.2.409,1.55,1.55,0,0,0-.589,1.068.778.778,0,0,0,.136.593A.7.7,0,0,0,157.342-1.916Zm9.932-7.6-.2,1.143a3.38,3.38,0,0,1,2.751-1.318,2.27,2.27,0,0,1,1.964.98,4.1,4.1,0,0,1,.47,2.729l-1,5.985h-2.9l1.011-6.01a3.108,3.108,0,0,0,.018-.563q-.062-.836-.984-.836a1.807,1.807,0,0,0-1.4.678L165.814,0h-2.892l1.652-9.51Zm11.065-2.355-.413,2.364h1.521l-.36,2.057h-1.521l-.738,4.368a1.164,1.164,0,0,0,.057.677q.119.229.593.246a6.873,6.873,0,0,0,.756-.044l-.211,2.145a4.673,4.673,0,0,1-1.556.22,2.563,2.563,0,0,1-2.013-.791,2.7,2.7,0,0,1-.545-2.1l.773-4.72H173.5l.352-2.057h1.178l.413-2.364ZM182.048,0h-2.9L180.8-9.51h2.9Zm-.993-11.909a1.341,1.341,0,0,1,.453-1.072,1.625,1.625,0,0,1,1.138-.431,1.678,1.678,0,0,1,1.129.387,1.318,1.318,0,0,1,.47,1.011,1.344,1.344,0,0,1-.448,1.077,1.63,1.63,0,0,1-1.143.426,1.7,1.7,0,0,1-1.121-.382A1.3,1.3,0,0,1,181.055-11.909Zm7.233,9.8a1.244,1.244,0,0,0,.976-.345,1.717,1.717,0,0,0,.448-.938l2.707-.009a3.559,3.559,0,0,1-.62,1.872A3.745,3.745,0,0,1,190.27-.25a4.521,4.521,0,0,1-2.061.426,3.57,3.57,0,0,1-2.927-1.367,4.726,4.726,0,0,1-.835-3.441l.026-.211a6.371,6.371,0,0,1,.809-2.553,4.626,4.626,0,0,1,1.709-1.718,4.433,4.433,0,0,1,2.369-.571,3.536,3.536,0,0,1,2.624,1.059,3.755,3.755,0,0,1,.927,2.764L190.2-5.871q.044-1.5-1.081-1.529-1.529-.053-1.758,2.567l-.079.893-.009.333Q187.277-2.136,188.288-2.109Zm13.553-7.409-.193,1.143a3.414,3.414,0,0,1,2.777-1.31,2.509,2.509,0,0,1,1.415.4,1.843,1.843,0,0,1,.738,1.028,3.619,3.619,0,0,1,2.892-1.433,2.241,2.241,0,0,1,1.956.989,4.117,4.117,0,0,1,.461,2.711L210.894,0h-2.9L209-5.987l.035-.518q0-.869-.817-.9a1.872,1.872,0,0,0-1.424.781L205.646,0h-2.9l1-5.969.035-.527q0-.9-.817-.9a1.86,1.86,0,0,0-1.406.781L200.391,0H197.5l1.652-9.51Zm16.646,8.481A3.148,3.148,0,0,1,215.921.185a2.492,2.492,0,0,1-2.1-.976,3.6,3.6,0,0,1-.549-2.566l1.028-6.152h2.892l-1.046,6.195a2.064,2.064,0,0,0,0,.466.766.766,0,0,0,.853.748,1.868,1.868,0,0,0,1.556-.722l1.178-6.688h2.909L220.983,0h-2.689ZM227.9-2.725q.114-.58-.9-.87l-.624-.158a4.806,4.806,0,0,1-2.241-1.134,2.244,2.244,0,0,1-.668-1.731,2.758,2.758,0,0,1,1.217-2.228,4.633,4.633,0,0,1,2.861-.839,4.292,4.292,0,0,1,2.72.853,2.781,2.781,0,0,1,1.059,2.25l-2.883-.009q.035-1.125-.993-1.125a1.417,1.417,0,0,0-.817.259,1.007,1.007,0,0,0-.448.69q-.149.712,1.257.976a7.3,7.3,0,0,1,1.89.672,2.821,2.821,0,0,1,1.02.945,2.35,2.35,0,0,1,.325,1.354,2.541,2.541,0,0,1-.562,1.538A3.642,3.642,0,0,1,228.564-.2a5.557,5.557,0,0,1-2.2.378,4.469,4.469,0,0,1-1.912-.431,3.408,3.408,0,0,1-1.38-1.147,2.979,2.979,0,0,1-.514-1.666l2.689.018A1.111,1.111,0,0,0,226.512-1.8a1.661,1.661,0,0,0,.914-.242A1.045,1.045,0,0,0,227.9-2.725ZM234.624,0h-2.9l1.652-9.51h2.9Zm-.993-11.909a1.341,1.341,0,0,1,.453-1.072,1.625,1.625,0,0,1,1.138-.431,1.678,1.678,0,0,1,1.129.387,1.318,1.318,0,0,1,.47,1.011,1.344,1.344,0,0,1-.448,1.077,1.63,1.63,0,0,1-1.143.426,1.7,1.7,0,0,1-1.121-.382A1.3,1.3,0,0,1,233.631-11.909Zm7.233,9.8a1.244,1.244,0,0,0,.976-.345,1.717,1.717,0,0,0,.448-.938L245-3.4a3.559,3.559,0,0,1-.62,1.872A3.745,3.745,0,0,1,242.846-.25a4.521,4.521,0,0,1-2.061.426,3.57,3.57,0,0,1-2.927-1.367,4.726,4.726,0,0,1-.835-3.441l.026-.211a6.371,6.371,0,0,1,.809-2.553,4.626,4.626,0,0,1,1.709-1.718,4.433,4.433,0,0,1,2.369-.571,3.536,3.536,0,0,1,2.624,1.059,3.755,3.755,0,0,1,.927,2.764l-2.707-.009q.044-1.5-1.081-1.529-1.529-.053-1.758,2.567l-.079.893-.009.333Q239.854-2.136,240.864-2.109Zm5.2.773a1.391,1.391,0,0,1,.457-1.107,1.611,1.611,0,0,1,1.134-.439,1.624,1.624,0,0,1,1.107.4,1.372,1.372,0,0,1,.475,1.042,1.406,1.406,0,0,1-.448,1.1,1.594,1.594,0,0,1-1.143.444,1.6,1.6,0,0,1-1.116-.4A1.389,1.389,0,0,1,246.067-1.336ZM10.74,20.641a4.614,4.614,0,0,1-.883,2.391A5,5,0,0,1,7.835,24.64a6.259,6.259,0,0,1-2.711.536,4.215,4.215,0,0,1-3.155-1.292A5.193,5.193,0,0,1,.712,20.5a11.02,11.02,0,0,1,.312-3.1A8.2,8.2,0,0,1,2.3,14.475a5.855,5.855,0,0,1,2.083-1.863A5.407,5.407,0,0,1,7,12.019a4.577,4.577,0,0,1,3.309,1.257,4.92,4.92,0,0,1,1.323,3.366l-3-.009a2.465,2.465,0,0,0-.422-1.67,1.852,1.852,0,0,0-1.389-.536q-2.373-.079-2.892,3.691A20.283,20.283,0,0,0,3.7,20.553q-.044,2.162,1.6,2.224A2.348,2.348,0,0,0,7,22.253,2.615,2.615,0,0,0,7.8,20.676ZM16.8,25a2.578,2.578,0,0,1-.123-.861,2.933,2.933,0,0,1-2.329,1.037,2.866,2.866,0,0,1-2.057-.826,2.483,2.483,0,0,1-.765-1.96,2.79,2.79,0,0,1,1.292-2.377,6.091,6.091,0,0,1,3.41-.831l.967.018.105-.536.035-.466a.755.755,0,0,0-.8-.826,1.111,1.111,0,0,0-1.169,1.046l-2.9.009a2.754,2.754,0,0,1,.624-1.666,3.7,3.7,0,0,1,1.578-1.09,5.512,5.512,0,0,1,2.123-.356,4.251,4.251,0,0,1,1.894.453A2.82,2.82,0,0,1,19.9,16.954a3.031,3.031,0,0,1,.308,1.753l-.712,4.474-.044.545a2.4,2.4,0,0,0,.167,1.107L19.608,25Zm-1.652-1.916A1.865,1.865,0,0,0,16.7,22.3l.29-1.529-.747-.009a1.969,1.969,0,0,0-1.2.409,1.55,1.55,0,0,0-.589,1.068.778.778,0,0,0,.136.593A.7.7,0,0,0,15.144,23.084ZM27.65,18.171a8.273,8.273,0,0,0-.9-.088,2.233,2.233,0,0,0-1.986.9L23.7,25H20.8l1.652-9.51,2.7-.009-.22,1.248a2.64,2.64,0,0,1,2.2-1.441,4.144,4.144,0,0,1,.9.123ZM30.542,25h-2.9l2.338-13.5h2.9Zm7.383-9.686a3.994,3.994,0,0,1,2.206.637A3.59,3.59,0,0,1,41.5,17.679a5.33,5.33,0,0,1,.312,2.461l-.018.193a5.636,5.636,0,0,1-1.626,3.533,4.575,4.575,0,0,1-3.41,1.31,3.977,3.977,0,0,1-2.188-.628A3.612,3.612,0,0,1,33.2,22.838a5.179,5.179,0,0,1-.321-2.443,5.863,5.863,0,0,1,1.6-3.727A4.547,4.547,0,0,1,37.925,15.314ZM35.771,20.4l-.026.518q-.123,1.957,1.2,1.992,1.705.053,1.978-2.764l.035-.8a2.155,2.155,0,0,0-.294-1.259,1.073,1.073,0,0,0-.918-.487,1.512,1.512,0,0,0-1.314.654A4.278,4.278,0,0,0,35.771,20.4Zm11.865,1.877q.114-.58-.9-.87l-.624-.158a4.806,4.806,0,0,1-2.241-1.134,2.244,2.244,0,0,1-.668-1.731,2.758,2.758,0,0,1,1.217-2.228,4.633,4.633,0,0,1,2.861-.839,4.292,4.292,0,0,1,2.72.853,2.781,2.781,0,0,1,1.059,2.25l-2.883-.009q.035-1.125-.993-1.125a1.417,1.417,0,0,0-.817.259,1.007,1.007,0,0,0-.448.69q-.149.712,1.257.976a7.3,7.3,0,0,1,1.89.672,2.821,2.821,0,0,1,1.02.945,2.35,2.35,0,0,1,.325,1.354,2.541,2.541,0,0,1-.562,1.538A3.642,3.642,0,0,1,48.3,24.8a5.557,5.557,0,0,1-2.2.378,4.469,4.469,0,0,1-1.912-.431,3.408,3.408,0,0,1-1.38-1.147,2.979,2.979,0,0,1-.514-1.666l2.689.018A1.111,1.111,0,0,0,46.248,23.2a1.661,1.661,0,0,0,.914-.242A1.045,1.045,0,0,0,47.637,22.275Zm8.587-2.048a6.917,6.917,0,0,1,1.371-3.6,3.4,3.4,0,0,1,2.865-1.31,2.592,2.592,0,0,1,2.013,1.02L63.4,11.5h2.9L63.958,25H61.383l.123-1.028a2.968,2.968,0,0,1-2.364,1.213,2.62,2.62,0,0,1-2.149-1.015,4.476,4.476,0,0,1-.831-2.676,8.231,8.231,0,0,1,.035-1.081Zm2.883.2a6.9,6.9,0,0,0-.062.984q0,1.459.984,1.485a1.844,1.844,0,0,0,1.521-.817l.65-3.647a1.171,1.171,0,0,0-1.16-.835,1.478,1.478,0,0,0-1.305.7A4.507,4.507,0,0,0,59.106,20.43ZM68.7,25H65.8l1.652-9.51h2.9Zm-.993-11.909a1.341,1.341,0,0,1,.453-1.072,1.625,1.625,0,0,1,1.138-.431,1.678,1.678,0,0,1,1.129.387,1.318,1.318,0,0,1,.47,1.011,1.344,1.344,0,0,1-.448,1.077,1.63,1.63,0,0,1-1.143.426,1.7,1.7,0,0,1-1.121-.382A1.3,1.3,0,0,1,67.711,13.091ZM75.9,22.275q.114-.58-.9-.87l-.624-.158a4.806,4.806,0,0,1-2.241-1.134,2.244,2.244,0,0,1-.668-1.731,2.758,2.758,0,0,1,1.217-2.228,4.633,4.633,0,0,1,2.861-.839,4.292,4.292,0,0,1,2.72.853,2.781,2.781,0,0,1,1.059,2.25l-2.883-.009q.035-1.125-.993-1.125a1.417,1.417,0,0,0-.817.259,1.007,1.007,0,0,0-.448.69q-.149.712,1.257.976a7.3,7.3,0,0,1,1.89.672,2.821,2.821,0,0,1,1.02.945,2.35,2.35,0,0,1,.325,1.354,2.541,2.541,0,0,1-.562,1.538A3.642,3.642,0,0,1,76.566,24.8a5.557,5.557,0,0,1-2.2.378,4.469,4.469,0,0,1-1.912-.431,3.408,3.408,0,0,1-1.38-1.147,2.979,2.979,0,0,1-.514-1.666l2.689.018A1.111,1.111,0,0,0,74.514,23.2a1.661,1.661,0,0,0,.914-.242A1.045,1.045,0,0,0,75.9,22.275ZM80.209,25,81.5,17.547H80.165l.352-2.057,1.336-.009.114-.835a3.881,3.881,0,0,1,1.213-2.417,3.937,3.937,0,0,1,2.769-.932,8.524,8.524,0,0,1,1.433.194l-.22,2.2a2.8,2.8,0,0,0-.686-.105,1.8,1.8,0,0,0-1.059.293,1.311,1.311,0,0,0-.532.844l-.132.77h1.8L86.2,17.547H84.4L83.109,25Zm12.647-6.829a8.273,8.273,0,0,0-.9-.088,2.233,2.233,0,0,0-1.986.9L88.9,25H86.01l1.652-9.51,2.7-.009-.22,1.248a2.64,2.64,0,0,1,2.2-1.441,4.144,4.144,0,0,1,.9.123Zm5.722,5.792a3.148,3.148,0,0,1-2.566,1.222,2.492,2.492,0,0,1-2.1-.976,3.6,3.6,0,0,1-.549-2.566l1.028-6.152h2.892l-1.046,6.195a2.064,2.064,0,0,0,0,.466.766.766,0,0,0,.853.748,1.868,1.868,0,0,0,1.556-.722l1.178-6.688h2.909L101.074,25H98.385Zm9.475-10.837-.413,2.364h1.521l-.36,2.057h-1.521l-.738,4.368a1.164,1.164,0,0,0,.057.677q.119.229.593.246a6.873,6.873,0,0,0,.756-.044l-.211,2.145a4.673,4.673,0,0,1-1.556.22,2.563,2.563,0,0,1-2.013-.791,2.7,2.7,0,0,1-.545-2.1l.773-4.72h-1.178l.352-2.057h1.178l.413-2.364ZM114.073,25a2.578,2.578,0,0,1-.123-.861,2.933,2.933,0,0,1-2.329,1.037,2.866,2.866,0,0,1-2.057-.826,2.483,2.483,0,0,1-.765-1.96,2.79,2.79,0,0,1,1.292-2.377,6.091,6.091,0,0,1,3.41-.831l.967.018.105-.536.035-.466a.755.755,0,0,0-.8-.826,1.111,1.111,0,0,0-1.169,1.046l-2.9.009a2.754,2.754,0,0,1,.624-1.666,3.7,3.7,0,0,1,1.578-1.09,5.512,5.512,0,0,1,2.123-.356,4.251,4.251,0,0,1,1.894.453,2.82,2.82,0,0,1,1.217,1.187,3.031,3.031,0,0,1,.308,1.753l-.712,4.474-.044.545a2.4,2.4,0,0,0,.167,1.107l-.009.167Zm-1.652-1.916a1.865,1.865,0,0,0,1.556-.782l.29-1.529-.747-.009a1.969,1.969,0,0,0-1.2.409,1.55,1.55,0,0,0-.589,1.068.778.778,0,0,0,.136.593A.7.7,0,0,0,112.421,23.084Zm14.44-7.6-.193,1.143a3.414,3.414,0,0,1,2.777-1.31,2.509,2.509,0,0,1,1.415.4,1.843,1.843,0,0,1,.738,1.028,3.619,3.619,0,0,1,2.892-1.433,2.241,2.241,0,0,1,1.956.989,4.117,4.117,0,0,1,.461,2.711L135.914,25h-2.9l1.011-5.987.035-.518q0-.869-.817-.9a1.872,1.872,0,0,0-1.424.781L130.667,25h-2.9l1-5.969.035-.527q0-.9-.817-.9a1.86,1.86,0,0,0-1.406.781L125.411,25H122.52l1.652-9.51Zm16.646,8.481a3.148,3.148,0,0,1-2.566,1.222,2.492,2.492,0,0,1-2.1-.976,3.6,3.6,0,0,1-.549-2.566l1.028-6.152h2.892l-1.046,6.195a2.064,2.064,0,0,0,0,.466.766.766,0,0,0,.853.748,1.868,1.868,0,0,0,1.556-.722l1.178-6.688h2.909L146,25h-2.689Zm.817-12.463h3.226l-2.8,2.76-2.531,0Zm8.6,10.775q.114-.58-.9-.87l-.624-.158a4.806,4.806,0,0,1-2.241-1.134,2.244,2.244,0,0,1-.668-1.731,2.758,2.758,0,0,1,1.217-2.228,4.633,4.633,0,0,1,2.861-.839,4.292,4.292,0,0,1,2.72.853,2.781,2.781,0,0,1,1.059,2.25l-2.883-.009q.035-1.125-.993-1.125a1.417,1.417,0,0,0-.817.259,1.007,1.007,0,0,0-.448.69q-.149.712,1.257.976a7.3,7.3,0,0,1,1.89.672,2.821,2.821,0,0,1,1.02.945,2.35,2.35,0,0,1,.325,1.354,2.541,2.541,0,0,1-.562,1.538,3.642,3.642,0,0,1-1.551,1.081,5.557,5.557,0,0,1-2.2.378,4.469,4.469,0,0,1-1.912-.431,3.408,3.408,0,0,1-1.38-1.147,2.979,2.979,0,0,1-.514-1.666l2.689.018a1.111,1.111,0,0,0,1.266,1.248,1.661,1.661,0,0,0,.914-.242A1.045,1.045,0,0,0,152.921,22.275ZM159.645,25h-2.9l1.652-9.51h2.9Zm-.993-11.909a1.341,1.341,0,0,1,.453-1.072,1.625,1.625,0,0,1,1.138-.431,1.678,1.678,0,0,1,1.129.387,1.318,1.318,0,0,1,.47,1.011,1.344,1.344,0,0,1-.448,1.077,1.63,1.63,0,0,1-1.143.426,1.7,1.7,0,0,1-1.121-.382A1.3,1.3,0,0,1,158.651,13.091Zm7.233,9.8a1.244,1.244,0,0,0,.976-.345,1.717,1.717,0,0,0,.448-.938l2.707-.009a3.559,3.559,0,0,1-.62,1.872,3.745,3.745,0,0,1-1.529,1.279,4.521,4.521,0,0,1-2.061.426,3.57,3.57,0,0,1-2.927-1.367,4.726,4.726,0,0,1-.835-3.441l.026-.211a6.371,6.371,0,0,1,.809-2.553,4.626,4.626,0,0,1,1.709-1.718,4.433,4.433,0,0,1,2.369-.571,3.536,3.536,0,0,1,2.624,1.059,3.755,3.755,0,0,1,.927,2.764l-2.707-.009q.044-1.5-1.081-1.529-1.529-.053-1.758,2.567l-.079.893-.009.333Q164.874,22.864,165.885,22.891ZM176,25a2.578,2.578,0,0,1-.123-.861,2.933,2.933,0,0,1-2.329,1.037,2.866,2.866,0,0,1-2.057-.826,2.483,2.483,0,0,1-.765-1.96,2.79,2.79,0,0,1,1.292-2.377,6.091,6.091,0,0,1,3.41-.831l.967.018.105-.536.035-.466a.755.755,0,0,0-.8-.826,1.111,1.111,0,0,0-1.169,1.046l-2.9.009a2.754,2.754,0,0,1,.624-1.666,3.7,3.7,0,0,1,1.578-1.09,5.512,5.512,0,0,1,2.123-.356,4.251,4.251,0,0,1,1.894.453,2.82,2.82,0,0,1,1.217,1.187,3.031,3.031,0,0,1,.308,1.753l-.712,4.474-.044.545a2.4,2.4,0,0,0,.167,1.107l-.009.167Zm-1.652-1.916A1.865,1.865,0,0,0,175.9,22.3l.29-1.529-.747-.009a1.969,1.969,0,0,0-1.2.409,1.55,1.55,0,0,0-.589,1.068.778.778,0,0,0,.136.593A.7.7,0,0,0,174.349,23.084Zm16.945-4.913a8.273,8.273,0,0,0-.9-.088,2.233,2.233,0,0,0-1.986.9L187.339,25h-2.892l1.652-9.51,2.7-.009-.22,1.248a2.64,2.64,0,0,1,2.2-1.441,4.144,4.144,0,0,1,.9.123Zm5.071-2.856a3.994,3.994,0,0,1,2.206.637,3.59,3.59,0,0,1,1.367,1.727,5.33,5.33,0,0,1,.312,2.461l-.018.193a5.636,5.636,0,0,1-1.626,3.533,4.575,4.575,0,0,1-3.41,1.31,3.977,3.977,0,0,1-2.188-.628,3.612,3.612,0,0,1-1.367-1.709,5.179,5.179,0,0,1-.321-2.443,5.863,5.863,0,0,1,1.6-3.727A4.547,4.547,0,0,1,196.365,15.314ZM194.212,20.4l-.026.518q-.123,1.957,1.2,1.992,1.705.053,1.978-2.764l.035-.8a2.155,2.155,0,0,0-.294-1.259,1.073,1.073,0,0,0-.918-.487,1.512,1.512,0,0,0-1.314.654A4.278,4.278,0,0,0,194.212,20.4Zm10.863-4.917-.193,1.143a3.414,3.414,0,0,1,2.777-1.31,2.509,2.509,0,0,1,1.415.4,1.843,1.843,0,0,1,.738,1.028,3.619,3.619,0,0,1,2.892-1.433,2.241,2.241,0,0,1,1.956.989,4.117,4.117,0,0,1,.461,2.711L214.128,25h-2.9l1.011-5.987.035-.518q0-.869-.817-.9a1.872,1.872,0,0,0-1.424.781L208.881,25h-2.9l1-5.969.035-.527q0-.9-.817-.9a1.86,1.86,0,0,0-1.406.781L203.625,25h-2.892l1.652-9.51ZM221.2,25a2.578,2.578,0,0,1-.123-.861,2.933,2.933,0,0,1-2.329,1.037,2.866,2.866,0,0,1-2.057-.826,2.483,2.483,0,0,1-.765-1.96,2.79,2.79,0,0,1,1.292-2.377,6.091,6.091,0,0,1,3.41-.831l.967.018.105-.536.035-.466a.755.755,0,0,0-.8-.826,1.111,1.111,0,0,0-1.169,1.046l-2.9.009a2.754,2.754,0,0,1,.624-1.666,3.7,3.7,0,0,1,1.578-1.09,5.512,5.512,0,0,1,2.123-.356,4.251,4.251,0,0,1,1.894.453,2.82,2.82,0,0,1,1.217,1.187,3.031,3.031,0,0,1,.308,1.753l-.712,4.474-.044.545a2.4,2.4,0,0,0,.167,1.107l-.009.167Zm-1.652-1.916a1.865,1.865,0,0,0,1.556-.782l.29-1.529-.747-.009a1.969,1.969,0,0,0-1.2.409,1.55,1.55,0,0,0-.589,1.068.778.778,0,0,0,.136.593A.7.7,0,0,0,219.551,23.084ZM222.179,11.5H225.4l-2.8,2.76-2.531,0Zm7.3,3.981-.2,1.143a3.38,3.38,0,0,1,2.751-1.318,2.27,2.27,0,0,1,1.964.98,4.1,4.1,0,0,1,.47,2.729l-1,5.985h-2.9l1.011-6.01a3.108,3.108,0,0,0,.018-.563q-.062-.836-.984-.836a1.807,1.807,0,0,0-1.4.678L228.023,25h-2.892l1.652-9.51Zm11.065-2.355-.413,2.364h1.521l-.36,2.057h-1.521l-.738,4.368a1.164,1.164,0,0,0,.057.677q.119.229.593.246a6.873,6.873,0,0,0,.756-.044l-.211,2.145a4.673,4.673,0,0,1-1.556.22,2.563,2.563,0,0,1-2.013-.791,2.7,2.7,0,0,1-.545-2.1l.773-4.72h-1.178l.352-2.057h1.178l.413-2.364ZM244.257,25h-2.9l1.652-9.51h2.9Zm-.993-11.909a1.341,1.341,0,0,1,.453-1.072,1.625,1.625,0,0,1,1.138-.431,1.678,1.678,0,0,1,1.129.387,1.318,1.318,0,0,1,.47,1.011,1.344,1.344,0,0,1-.448,1.077,1.63,1.63,0,0,1-1.143.426,1.7,1.7,0,0,1-1.121-.382A1.3,1.3,0,0,1,243.264,13.091Zm7.233,9.8a1.244,1.244,0,0,0,.976-.345,1.717,1.717,0,0,0,.448-.938l2.707-.009a3.559,3.559,0,0,1-.62,1.872,3.745,3.745,0,0,1-1.529,1.279,4.521,4.521,0,0,1-2.061.426,3.57,3.57,0,0,1-2.927-1.367,4.726,4.726,0,0,1-.835-3.441l.026-.211a6.371,6.371,0,0,1,.809-2.553,4.626,4.626,0,0,1,1.709-1.718,4.433,4.433,0,0,1,2.369-.571,3.536,3.536,0,0,1,2.624,1.059,3.755,3.755,0,0,1,.927,2.764l-2.707-.009q.044-1.5-1.081-1.529-1.529-.053-1.758,2.567l-.079.893-.009.333Q249.486,22.864,250.5,22.891ZM260.613,25a2.578,2.578,0,0,1-.123-.861,2.933,2.933,0,0,1-2.329,1.037,2.866,2.866,0,0,1-2.057-.826,2.483,2.483,0,0,1-.765-1.96,2.79,2.79,0,0,1,1.292-2.377,6.091,6.091,0,0,1,3.41-.831l.967.018.105-.536.035-.466a.755.755,0,0,0-.8-.826,1.111,1.111,0,0,0-1.169,1.046l-2.9.009a2.754,2.754,0,0,1,.624-1.666,3.7,3.7,0,0,1,1.578-1.09,5.512,5.512,0,0,1,2.123-.356,4.251,4.251,0,0,1,1.894.453,2.82,2.82,0,0,1,1.217,1.187,3.031,3.031,0,0,1,.308,1.753l-.712,4.474-.044.545a2.4,2.4,0,0,0,.167,1.107l-.009.167Zm-1.652-1.916a1.865,1.865,0,0,0,1.556-.782l.29-1.529-.747-.009a1.969,1.969,0,0,0-1.2.409,1.55,1.55,0,0,0-.589,1.068.778.778,0,0,0,.136.593A.7.7,0,0,0,258.961,23.084Zm6.091.58a1.391,1.391,0,0,1,.457-1.107,1.707,1.707,0,0,1,2.241-.04,1.372,1.372,0,0,1,.475,1.042,1.406,1.406,0,0,1-.448,1.1,1.717,1.717,0,0,1-2.259.04A1.389,1.389,0,0,1,265.052,23.664Z" transform="translate(1000 8678)" fill="#fff"/>
    <path id="Trazado_129248" data-name="Trazado 129248" d="M5.44-3.516,9.36-12.8h3.445L6.618,0H3.331L1.187-12.8H4.438ZM16.233.176a4.421,4.421,0,0,1-2.272-.6,3.793,3.793,0,0,1-1.507-1.652,4.44,4.44,0,0,1-.4-2.333l.026-.246a5.829,5.829,0,0,1,1.63-3.713,4.51,4.51,0,0,1,3.415-1.314,3.678,3.678,0,0,1,2.092.621A3.468,3.468,0,0,1,20.487-7.4a5.1,5.1,0,0,1,.264,2.381l-.167,1.206h-5.66A1.854,1.854,0,0,0,15.346-2.6a1.549,1.549,0,0,0,1.178.492,2.993,2.993,0,0,0,2.259-.967L20-1.472a3.578,3.578,0,0,1-1.5,1.2,5.263,5.263,0,0,1-2.1.451Zm.7-7.576a1.487,1.487,0,0,0-1.068.385,3.229,3.229,0,0,0-.787,1.347h2.892l.053-.254a1.929,1.929,0,0,0,.018-.577A1.017,1.017,0,0,0,16.937-7.4Zm11.03.571a8.273,8.273,0,0,0-.9-.088,2.233,2.233,0,0,0-1.986.9L24.012,0H21.12l1.652-9.51,2.7-.009-.22,1.248a2.64,2.64,0,0,1,2.2-1.441,4.144,4.144,0,0,1,.9.123ZM37.2-4.737A6.891,6.891,0,0,1,35.833-1.1,3.409,3.409,0,0,1,32.968.185,2.522,2.522,0,0,1,30.806-.993L30.445,0H27.826l2.347-13.5h2.892l-.94,4.772a2.87,2.87,0,0,1,2.136-.958,2.679,2.679,0,0,1,2.18,1,4.351,4.351,0,0,1,.826,2.667,9.674,9.674,0,0,1-.044,1.1Zm-2.874-.171A9.1,9.1,0,0,0,34.4-5.926q0-1.413-1.011-1.474a1.732,1.732,0,0,0-1.5.763L31.2-2.846a1.163,1.163,0,0,0,1.2.746q1.415.044,1.784-1.843l.123-.781ZM5.44,21.484,9.36,12.2h3.445L6.618,25H3.331L1.187,12.2H4.438Zm10.793,3.691a4.421,4.421,0,0,1-2.272-.6,3.793,3.793,0,0,1-1.507-1.652,4.44,4.44,0,0,1-.4-2.333l.026-.246a5.829,5.829,0,0,1,1.63-3.713,4.51,4.51,0,0,1,3.415-1.314,3.678,3.678,0,0,1,2.092.621A3.468,3.468,0,0,1,20.487,17.6a5.1,5.1,0,0,1,.264,2.381l-.167,1.206h-5.66a1.854,1.854,0,0,0,.422,1.213,1.549,1.549,0,0,0,1.178.492,2.993,2.993,0,0,0,2.259-.967L20,23.528a3.578,3.578,0,0,1-1.5,1.2,5.263,5.263,0,0,1-2.1.451Zm.7-7.576a1.487,1.487,0,0,0-1.068.385,3.229,3.229,0,0,0-.787,1.347h2.892l.053-.254a1.929,1.929,0,0,0,.018-.577A1.017,1.017,0,0,0,16.937,17.6Zm11.03.571a8.273,8.273,0,0,0-.9-.088,2.233,2.233,0,0,0-1.986.9L24.012,25H21.12l1.652-9.51,2.7-.009-.22,1.248a2.64,2.64,0,0,1,2.2-1.441,4.144,4.144,0,0,1,.9.123ZM37.2,20.263A6.891,6.891,0,0,1,35.833,23.9a3.409,3.409,0,0,1-2.865,1.283,2.522,2.522,0,0,1-2.162-1.178l-.36.993H27.826l2.347-13.5h2.892l-.94,4.772a2.87,2.87,0,0,1,2.136-.958,2.679,2.679,0,0,1,2.18,1,4.351,4.351,0,0,1,.826,2.667,9.674,9.674,0,0,1-.044,1.1Zm-2.874-.171a9.1,9.1,0,0,0,.079-1.018q0-1.413-1.011-1.474a1.732,1.732,0,0,0-1.5.763L31.2,22.154a1.163,1.163,0,0,0,1.2.746q1.415.044,1.784-1.843l.123-.781Zm8.947-4.777a3.994,3.994,0,0,1,2.206.637,3.59,3.59,0,0,1,1.367,1.727,5.33,5.33,0,0,1,.312,2.461l-.018.193a5.636,5.636,0,0,1-1.626,3.533,4.575,4.575,0,0,1-3.41,1.31,3.977,3.977,0,0,1-2.188-.628,3.612,3.612,0,0,1-1.367-1.709,5.179,5.179,0,0,1-.321-2.443,5.863,5.863,0,0,1,1.6-3.727A4.547,4.547,0,0,1,43.269,15.314ZM41.115,20.4l-.026.518q-.123,1.957,1.2,1.992,1.705.053,1.978-2.764l.035-.8A2.155,2.155,0,0,0,44,18.087a1.073,1.073,0,0,0-.918-.487,1.512,1.512,0,0,0-1.314.654A4.278,4.278,0,0,0,41.115,20.4Z" transform="translate(591 8678)" fill="#3c3fa7"/>
    <path id="Trazado_129245" data-name="Trazado 129245" d="M10.74-4.359a4.614,4.614,0,0,1-.883,2.391A5,5,0,0,1,7.835-.36,6.259,6.259,0,0,1,5.124.176,4.215,4.215,0,0,1,1.969-1.116,5.193,5.193,0,0,1,.712-4.5a11.02,11.02,0,0,1,.312-3.1A8.2,8.2,0,0,1,2.3-10.525a5.855,5.855,0,0,1,2.083-1.863A5.407,5.407,0,0,1,7-12.981a4.577,4.577,0,0,1,3.309,1.257,4.92,4.92,0,0,1,1.323,3.366l-3-.009a2.465,2.465,0,0,0-.422-1.67,1.852,1.852,0,0,0-1.389-.536q-2.373-.079-2.892,3.691A20.283,20.283,0,0,0,3.7-4.447Q3.656-2.285,5.3-2.224A2.348,2.348,0,0,0,7-2.747,2.615,2.615,0,0,0,7.8-4.324Zm6.24-5.326a3.994,3.994,0,0,1,2.206.637,3.59,3.59,0,0,1,1.367,1.727,5.33,5.33,0,0,1,.312,2.461l-.018.193a5.636,5.636,0,0,1-1.626,3.533,4.575,4.575,0,0,1-3.41,1.31,3.977,3.977,0,0,1-2.188-.628,3.612,3.612,0,0,1-1.367-1.709,5.179,5.179,0,0,1-.321-2.443,5.863,5.863,0,0,1,1.6-3.727A4.547,4.547,0,0,1,16.98-9.686ZM14.827-4.6l-.026.518Q14.678-2.127,16-2.092q1.705.053,1.978-2.764l.035-.8a2.155,2.155,0,0,0-.294-1.259A1.073,1.073,0,0,0,16.8-7.4a1.512,1.512,0,0,0-1.314.654A4.278,4.278,0,0,0,14.827-4.6ZM25.69-9.519,25.5-8.376a3.414,3.414,0,0,1,2.777-1.31,2.509,2.509,0,0,1,1.415.4,1.843,1.843,0,0,1,.738,1.028,3.619,3.619,0,0,1,2.892-1.433,2.241,2.241,0,0,1,1.956.989,4.117,4.117,0,0,1,.461,2.711L34.743,0h-2.9l1.011-5.987.035-.518q0-.869-.817-.9a1.872,1.872,0,0,0-1.424.781L29.5,0H26.6l1-5.969.035-.527q0-.9-.817-.9a1.86,1.86,0,0,0-1.406.781L24.24,0H21.349L23-9.51ZM45.853-4.746a7.9,7.9,0,0,1-.782,2.659A4.348,4.348,0,0,1,43.589-.356a3.417,3.417,0,0,1-1.973.541A2.584,2.584,0,0,1,39.595-.8l-.861,4.456H35.842L38.127-9.51,40.8-9.519l-.149.905a2.8,2.8,0,0,1,2.259-1.072,2.662,2.662,0,0,1,2.167.993,4.388,4.388,0,0,1,.831,2.663A10.274,10.274,0,0,1,45.853-4.746ZM43.04-5.924Q43-7.374,42.056-7.4a1.7,1.7,0,0,0-1.521.747l-.677,3.771a1.173,1.173,0,0,0,1.213.782q1.538.026,1.89-2.646Q43.04-5.59,43.04-5.924ZM49.421,0h-2.9l2.338-13.5h2.9Zm6.565.176a4.421,4.421,0,0,1-2.272-.6,3.793,3.793,0,0,1-1.507-1.652,4.44,4.44,0,0,1-.4-2.333l.026-.246a5.829,5.829,0,0,1,1.63-3.713,4.51,4.51,0,0,1,3.415-1.314,3.678,3.678,0,0,1,2.092.621A3.468,3.468,0,0,1,60.24-7.4,5.1,5.1,0,0,1,60.5-5.02l-.167,1.206h-5.66A1.854,1.854,0,0,0,55.1-2.6a1.549,1.549,0,0,0,1.178.492,2.993,2.993,0,0,0,2.259-.967l1.213,1.6a3.578,3.578,0,0,1-1.5,1.2,5.263,5.263,0,0,1-2.1.451Zm.7-7.576a1.487,1.487,0,0,0-1.068.385,3.229,3.229,0,0,0-.787,1.347h2.892l.053-.254A1.929,1.929,0,0,0,57.8-6.5,1.017,1.017,0,0,0,56.689-7.4Zm8.525-2.118-.193,1.143A3.414,3.414,0,0,1,67.8-9.686a2.509,2.509,0,0,1,1.415.4,1.843,1.843,0,0,1,.738,1.028,3.619,3.619,0,0,1,2.892-1.433A2.241,2.241,0,0,1,74.8-8.7a4.117,4.117,0,0,1,.461,2.711L74.268,0h-2.9l1.011-5.987.035-.518q0-.869-.817-.9a1.872,1.872,0,0,0-1.424.781L69.021,0h-2.9l1-5.969.035-.527q0-.9-.817-.9a1.86,1.86,0,0,0-1.406.781L63.765,0H60.873l1.652-9.51ZM80.71.176a4.421,4.421,0,0,1-2.272-.6,3.793,3.793,0,0,1-1.507-1.652,4.44,4.44,0,0,1-.4-2.333l.026-.246a5.829,5.829,0,0,1,1.63-3.713A4.51,4.51,0,0,1,81.6-9.686a3.678,3.678,0,0,1,2.092.621A3.468,3.468,0,0,1,84.964-7.4a5.1,5.1,0,0,1,.264,2.381l-.167,1.206H79.4A1.854,1.854,0,0,0,79.822-2.6,1.549,1.549,0,0,0,81-2.109a2.993,2.993,0,0,0,2.259-.967l1.213,1.6a3.578,3.578,0,0,1-1.5,1.2,5.263,5.263,0,0,1-2.1.451Zm.7-7.576a1.487,1.487,0,0,0-1.068.385,3.229,3.229,0,0,0-.787,1.347H82.45l.053-.254a1.929,1.929,0,0,0,.018-.577A1.017,1.017,0,0,0,81.413-7.4Zm8.455-2.118-.2,1.143a3.38,3.38,0,0,1,2.751-1.318,2.27,2.27,0,0,1,1.964.98,4.1,4.1,0,0,1,.47,2.729L93.85,0h-2.9L91.96-6.01a3.108,3.108,0,0,0,.018-.563q-.062-.836-.984-.836a1.807,1.807,0,0,0-1.4.678L88.409,0H85.518L87.17-9.51Zm11.065-2.355-.413,2.364h1.521l-.36,2.057H100.16l-.738,4.368a1.164,1.164,0,0,0,.057.677q.119.229.593.246a6.873,6.873,0,0,0,.756-.044l-.211,2.145a4.673,4.673,0,0,1-1.556.22,2.563,2.563,0,0,1-2.013-.791,2.7,2.7,0,0,1-.545-2.1l.773-4.72H96.1l.352-2.057h1.178l.413-2.364ZM10.74,20.641a4.614,4.614,0,0,1-.883,2.391A5,5,0,0,1,7.835,24.64a6.259,6.259,0,0,1-2.711.536,4.215,4.215,0,0,1-3.155-1.292A5.193,5.193,0,0,1,.712,20.5a11.02,11.02,0,0,1,.312-3.1A8.2,8.2,0,0,1,2.3,14.475a5.855,5.855,0,0,1,2.083-1.863A5.407,5.407,0,0,1,7,12.019a4.577,4.577,0,0,1,3.309,1.257,4.92,4.92,0,0,1,1.323,3.366l-3-.009a2.465,2.465,0,0,0-.422-1.67,1.852,1.852,0,0,0-1.389-.536q-2.373-.079-2.892,3.691A20.283,20.283,0,0,0,3.7,20.553q-.044,2.162,1.6,2.224A2.348,2.348,0,0,0,7,22.253,2.615,2.615,0,0,0,7.8,20.676Zm6.24-5.326a3.994,3.994,0,0,1,2.206.637,3.59,3.59,0,0,1,1.367,1.727,5.33,5.33,0,0,1,.312,2.461l-.018.193a5.636,5.636,0,0,1-1.626,3.533,4.575,4.575,0,0,1-3.41,1.31,3.977,3.977,0,0,1-2.188-.628,3.612,3.612,0,0,1-1.367-1.709,5.179,5.179,0,0,1-.321-2.443,5.863,5.863,0,0,1,1.6-3.727A4.547,4.547,0,0,1,16.98,15.314ZM14.827,20.4l-.026.518q-.123,1.957,1.2,1.992,1.705.053,1.978-2.764l.035-.8a2.155,2.155,0,0,0-.294-1.259A1.073,1.073,0,0,0,16.8,17.6a1.512,1.512,0,0,0-1.314.654A4.278,4.278,0,0,0,14.827,20.4ZM25.69,15.481,25.5,16.624a3.414,3.414,0,0,1,2.777-1.31,2.509,2.509,0,0,1,1.415.4,1.843,1.843,0,0,1,.738,1.028,3.619,3.619,0,0,1,2.892-1.433,2.241,2.241,0,0,1,1.956.989,4.117,4.117,0,0,1,.461,2.711L34.743,25h-2.9l1.011-5.987.035-.518q0-.869-.817-.9a1.872,1.872,0,0,0-1.424.781L29.5,25H26.6l1-5.969.035-.527q0-.9-.817-.9a1.86,1.86,0,0,0-1.406.781L24.24,25H21.349L23,15.49Zm20.162,4.772a7.9,7.9,0,0,1-.782,2.659,4.348,4.348,0,0,1-1.481,1.731,3.417,3.417,0,0,1-1.973.541,2.584,2.584,0,0,1-2.021-.984l-.861,4.456H35.842L38.127,15.49l2.672-.009-.149.905a2.8,2.8,0,0,1,2.259-1.072,2.662,2.662,0,0,1,2.167.993,4.388,4.388,0,0,1,.831,2.663A10.274,10.274,0,0,1,45.853,20.254ZM43.04,19.076Q43,17.626,42.056,17.6a1.7,1.7,0,0,0-1.521.747l-.677,3.771a1.173,1.173,0,0,0,1.213.782q1.538.026,1.89-2.646Q43.04,19.41,43.04,19.076ZM49.421,25h-2.9l2.338-13.5h2.9Zm6.565.176a4.421,4.421,0,0,1-2.272-.6,3.793,3.793,0,0,1-1.507-1.652,4.44,4.44,0,0,1-.4-2.333l.026-.246a5.829,5.829,0,0,1,1.63-3.713,4.51,4.51,0,0,1,3.415-1.314,3.678,3.678,0,0,1,2.092.621A3.468,3.468,0,0,1,60.24,17.6,5.1,5.1,0,0,1,60.5,19.98l-.167,1.206h-5.66A1.854,1.854,0,0,0,55.1,22.4a1.549,1.549,0,0,0,1.178.492,2.993,2.993,0,0,0,2.259-.967l1.213,1.6a3.578,3.578,0,0,1-1.5,1.2,5.263,5.263,0,0,1-2.1.451Zm.7-7.576a1.487,1.487,0,0,0-1.068.385,3.229,3.229,0,0,0-.787,1.347h2.892l.053-.254A1.929,1.929,0,0,0,57.8,18.5,1.017,1.017,0,0,0,56.689,17.6Zm8.525-2.118-.193,1.143a3.414,3.414,0,0,1,2.777-1.31,2.509,2.509,0,0,1,1.415.4,1.843,1.843,0,0,1,.738,1.028,3.619,3.619,0,0,1,2.892-1.433A2.241,2.241,0,0,1,74.8,16.3a4.117,4.117,0,0,1,.461,2.711L74.268,25h-2.9l1.011-5.987.035-.518q0-.869-.817-.9a1.872,1.872,0,0,0-1.424.781L69.021,25h-2.9l1-5.969.035-.527q0-.9-.817-.9a1.86,1.86,0,0,0-1.406.781L63.765,25H60.873l1.652-9.51Zm15.5,9.694a4.421,4.421,0,0,1-2.272-.6,3.793,3.793,0,0,1-1.507-1.652,4.44,4.44,0,0,1-.4-2.333l.026-.246a5.829,5.829,0,0,1,1.63-3.713A4.51,4.51,0,0,1,81.6,15.314a3.678,3.678,0,0,1,2.092.621A3.468,3.468,0,0,1,84.964,17.6a5.1,5.1,0,0,1,.264,2.381l-.167,1.206H79.4a1.854,1.854,0,0,0,.422,1.213A1.549,1.549,0,0,0,81,22.891a2.993,2.993,0,0,0,2.259-.967l1.213,1.6a3.578,3.578,0,0,1-1.5,1.2,5.263,5.263,0,0,1-2.1.451Zm.7-7.576a1.487,1.487,0,0,0-1.068.385,3.229,3.229,0,0,0-.787,1.347H82.45l.053-.254a1.929,1.929,0,0,0,.018-.577A1.017,1.017,0,0,0,81.413,17.6Zm8.455-2.118-.2,1.143a3.38,3.38,0,0,1,2.751-1.318,2.27,2.27,0,0,1,1.964.98,4.1,4.1,0,0,1,.47,2.729L93.85,25h-2.9l1.011-6.01a3.108,3.108,0,0,0,.018-.563q-.062-.836-.984-.836a1.807,1.807,0,0,0-1.4.678L88.409,25H85.518l1.652-9.51Zm11.065-2.355-.413,2.364h1.521l-.36,2.057H100.16l-.738,4.368a1.164,1.164,0,0,0,.057.677q.119.229.593.246a6.873,6.873,0,0,0,.756-.044l-.211,2.145a4.673,4.673,0,0,1-1.556.22,2.563,2.563,0,0,1-2.013-.791,2.7,2.7,0,0,1-.545-2.1l.773-4.72H96.1l.352-2.057h1.178l.413-2.364Zm5.941,2.188a3.994,3.994,0,0,1,2.206.637,3.59,3.59,0,0,1,1.367,1.727,5.33,5.33,0,0,1,.312,2.461l-.018.193a5.636,5.636,0,0,1-1.626,3.533,4.575,4.575,0,0,1-3.41,1.31,3.977,3.977,0,0,1-2.188-.628,3.612,3.612,0,0,1-1.367-1.709,5.179,5.179,0,0,1-.321-2.443,5.863,5.863,0,0,1,1.6-3.727A4.547,4.547,0,0,1,106.875,15.314ZM104.722,20.4l-.026.518q-.123,1.957,1.2,1.992,1.705.053,1.978-2.764l.035-.8a2.155,2.155,0,0,0-.294-1.259,1.073,1.073,0,0,0-.918-.487,1.512,1.512,0,0,0-1.314.654A4.278,4.278,0,0,0,104.722,20.4Z" transform="translate(765 8678)" fill="#fff"/>
    <path id="Trazado_129249" data-name="Trazado 129249" d="M11.618-13.31h5.333l-.806,4.657H10.828l-1.112,6.3H4.77l1.1-6.3H.516l.806-4.657h5.35l1.063-6.123h4.947Z" transform="translate(495 8696)" fill="#ff5f65"/>
    <path id="Trazado_129246" data-name="Trazado 129246" d="M11.618-13.31h5.333l-.806,4.657H10.828l-1.112,6.3H4.77l1.1-6.3H.516l.806-4.657h5.35l1.063-6.123h4.947Z" transform="translate(705 8696)" fill="#ff5f65"/>
    <path id="Trazado_129243" data-name="Trazado 129243" d="M16.838-11.634H2.32l.741-4.189h14.5ZM15.614-4.56H1.1L1.837-8.75h14.5Z" transform="translate(915 8696)" fill="#ff5f65"/>
  </g>
</svg>
