<svg xmlns="http://www.w3.org/2000/svg" xmlns:xlink="http://www.w3.org/1999/xlink" width="1029" height="229" viewBox="0 0 1029 229">
  <defs>
    <clipPath id="clip-path">
      <rect id="Rectángulo_34077" data-name="Rectángulo 34077" width="1029" height="229" transform="translate(128 4247)" fill="#fff7da"/>
    </clipPath>
    <clipPath id="clip-path-2">
      <rect id="Rectángulo_35356" data-name="Rectángulo 35356" width="1035" height="691" transform="translate(0 -0.315)" fill="none"/>
    </clipPath>
  </defs>
  <g id="Grupo_81" data-name="Grupo 81" transform="translate(-128 -4247)" clip-path="url(#clip-path)">
    <g id="Grupo_90521" data-name="Grupo 90521" transform="translate(127 4071.316)">
      <g id="BACKGROUND">
        <g id="Grupo_90469" data-name="Grupo 90469">
          <rect id="Rectángulo_35354" data-name="Rectángulo 35354" width="1035" height="691" transform="translate(0 -0.315)" fill="#f4e6d0"/>
          <g id="Grupo_90454" data-name="Grupo 90454">
            <path id="Trazado_124725" data-name="Trazado 124725" d="M388.139,208.963c-13.8-5.518-27.59-2.759-42.765-1.38C319.163,213.1,36.86,290.9,0,302.321V611.7H1034.632V221.275c-100.172,28.134-184.476,50.2-277.3,72.092a310.569,310.569,0,0,1-183.673-12.581C511.013,256.472,444.071,232.269,388.139,208.963Z" transform="translate(0 78.051)" fill="#dbbe8f"/>
            <path id="Trazado_124726" data-name="Trazado 124726" d="M650.176,289.072q-14.319,3.377-28.821,5.387C509.671,334.23,397.582,370.194,282.36,397.8c99.325-23.452,194.511-46.9,295.215-73.114,33.108-8.277,66.216-11.036,97.945-22.072,11.036-2.759,20.693-8.277,31.729-9.657-26.211,13.8-53.8,27.59-81.391,38.626,88.289-27.59,176.577-44.144,270.384-59.319,10.545-1.791,20.933-3.581,31.232-5.372V216.98C827.3,245.114,743,267.178,650.176,289.072Z" transform="translate(107.158 82.346)" fill="#f5d4a0"/>
            <path id="Trazado_124727" data-name="Trazado 124727" d="M76.37,321.737A2242.463,2242.463,0,0,1,351.946,206.574c-2.164.23-4.352.462-6.572.664C319.163,212.756,36.86,290.55,0,301.975v16.081c56.545-16.624,114.048-31.454,171.556-47.361C139.827,287.249,106.719,301.044,76.37,321.737Z" transform="translate(0 78.397)" fill="#f5d4a0"/>
            <rect id="Rectángulo_35355" data-name="Rectángulo 35355" width="1035" height="691" transform="translate(0 -0.315)" fill="none"/>
          </g>
          <g id="Grupo_90468" data-name="Grupo 90468">
            <g id="Grupo_90467" data-name="Grupo 90467" clip-path="url(#clip-path-2)">
              <g id="Grupo_90458" data-name="Grupo 90458" transform="translate(-41.013 314.884)">
                <g id="Grupo_90455" data-name="Grupo 90455" transform="translate(30.178)">
                  <path id="Trazado_124728" data-name="Trazado 124728" d="M115.743,228.258C70.7,252.617,33.889,292.608,12.822,340.082A244.654,244.654,0,0,0-1.714,492.947C64.188,421.965,110.732,326.013,115.743,228.258Z" transform="translate(7.854 -228.258)" fill="#3b53db"/>
                  <path id="Trazado_124729" data-name="Trazado 124729" d="M112.031,230.095c-6.052,9.713-11.282,19.986-16.56,30.134-5.293,10.177-10.45,20.419-15.587,30.675-9.732,19.429-19.452,38.869-28.8,58.488-9.212,19.341-18.054,38.868-26.1,58.723A616.626,616.626,0,0,0,3.738,468.841c-3.674,12.745-6.892,25.664-9.451,38.7l3.2-1.938q2.94-14.437,6.824-28.658a591.591,591.591,0,0,1,20.279-60.4c7.873-20.068,16.62-39.78,25.791-59.284,9.1-19.361,18.636-38.516,28.163-57.672q15.248-30.66,30.969-61.071c1.311-2.53,2.62-5.052,3.864-7.616A.786.786,0,0,0,112.031,230.095Z" transform="translate(8.667 -227.705)" fill="#282b38"/>
                  <path id="Trazado_124730" data-name="Trazado 124730" d="M78.429,286.023A135.88,135.88,0,0,0,48.6,310.672c-1.411,1.524-2.781,3.087-4.126,4.671a95.18,95.18,0,0,0,.813-36.623,58.862,58.862,0,0,0-2.936-11.581.836.836,0,0,0-1.615.423c.887,4.319,2.05,8.545,2.687,12.919a97.408,97.408,0,0,1,1.026,13.061,95.077,95.077,0,0,1-3.332,26c-.273,1.006,1.138,2.062,1.884,1.127A147.988,147.988,0,0,1,59.849,302.8a173.806,173.806,0,0,1,19.64-14.911C80.623,287.131,79.633,285.308,78.429,286.023Z" transform="translate(26.288 -213.724)" fill="#282b38"/>
                  <path id="Trazado_124731" data-name="Trazado 124731" d="M60.6,330.247A103.173,103.173,0,0,0,27.956,356.43c-1.408,1.682-2.756,3.41-4.063,5.17a114.694,114.694,0,0,0-.272-41.349,85.167,85.167,0,0,0-3.479-13.074.815.815,0,0,0-1.575.414,147.9,147.9,0,0,1,4.261,22.816,119.207,119.207,0,0,1-.124,22.874,112.141,112.141,0,0,1-2.093,13.049,1.16,1.16,0,0,0,2.1.915A106.726,106.726,0,0,1,51.563,338.1c3.228-2.192,6.571-4.3,9.968-6.216A.941.941,0,0,0,60.6,330.247Z" transform="translate(17.87 -198.524)" fill="#282b38"/>
                  <path id="Trazado_124732" data-name="Trazado 124732" d="M44.774,360.413a219.315,219.315,0,0,0-17.832,17.531c-4.86,5.217-9.514,10.618-14.038,16.129a65.366,65.366,0,0,0-4.911-33.162,53.044,53.044,0,0,0-5.352-9.527c-.52-.738-1.723-.1-1.244.708,8.059,13.606,11.672,29.557,8.9,45.244-.164.924,1.036,2.017,1.8,1.076q7.863-9.726,16.424-18.855c5.711-6.088,11.748-11.82,17.649-17.718C47.082,360.923,45.742,359.586,44.774,360.413Z" transform="translate(11.323 -181.654)" fill="#282b38"/>
                </g>
                <g id="Grupo_90456" data-name="Grupo 90456" transform="translate(0 16.102)">
                  <path id="Trazado_124733" data-name="Trazado 124733" d="M37.96,239.93C1.949,276.343-21.628,325.315-27.97,376.864A244.654,244.654,0,0,0,2.6,527.344C45,440.257,61.609,334.915,37.96,239.93Z" transform="translate(29.73 -239.93)" fill="#fbcc34"/>
                  <path id="Trazado_124734" data-name="Trazado 124734" d="M-4.243,438.005A616.509,616.509,0,0,0-6.9,502.285a441.99,441.99,0,0,0,3.369,49.658l2.807.466c-.465-3.653-.9-7.31-1.264-10.974q-1.571-15.739-2-31.562a591.48,591.48,0,0,1,1.826-63.688c1.693-21.49,4.326-42.894,7.425-64.224,3.076-21.173,6.623-42.272,10.164-63.371q5.666-33.77,11.858-67.439c.517-2.8,1.036-5.6,1.482-8.411a.786.786,0,0,0-1.524-.383c-2.963,11.054-4.979,22.4-7.075,33.65-2.1,11.275-4.056,22.576-5.987,33.882-3.657,21.421-7.3,42.846-10.533,64.337C.456,395.412-2.321,416.666-4.243,438.005Z" transform="translate(38.373 -239.228)" fill="#282b38"/>
                  <path id="Trazado_124735" data-name="Trazado 124735" d="M32.924,296.236a135.856,135.856,0,0,0-21.36,32.26c-.908,1.871-1.763,3.765-2.589,5.671A95.169,95.169,0,0,0-.9,298.89a58.894,58.894,0,0,0-6.179-10.225.836.836,0,0,0-1.422.876c2.107,3.874,4.448,7.576,6.331,11.577a97.651,97.651,0,0,1,4.783,12.2,95.068,95.068,0,0,1,4.377,25.842c.03,1.042,1.689,1.642,2.13.531a147.88,147.88,0,0,1,10.916-22,173.722,173.722,0,0,1,14.452-19.979C35.347,296.656,33.868,295.2,32.924,296.236Z" transform="translate(37.739 -221.57)" fill="#282b38"/>
                  <path id="Trazado_124736" data-name="Trazado 124736" d="M28.739,343.732A103.185,103.185,0,0,0,5.125,378.284c-.858,2.017-1.644,4.064-2.382,6.128A114.7,114.7,0,0,0-9.549,344.93a85.149,85.149,0,0,0-7.133-11.5c-.617-.822-1.94-.059-1.386.854A147.908,147.908,0,0,1-7.353,354.878,119.062,119.062,0,0,1-.816,376.8a111.877,111.877,0,0,1,1.8,13.092,1.159,1.159,0,0,0,2.272.265,106.714,106.714,0,0,1,19.124-36.28c2.45-3.036,5.034-6.03,7.728-8.848C30.945,344.148,29.614,342.9,28.739,343.732Z" transform="translate(34.106 -204.577)" fill="#282b38"/>
                  <path id="Trazado_124737" data-name="Trazado 124737" d="M22.378,378.275a219.414,219.414,0,0,0-11.959,21.963c-3.131,6.4-6.013,12.926-8.738,19.515a65.358,65.358,0,0,0-14.347-30.3,53.051,53.051,0,0,0-7.894-7.557c-.712-.555-1.679.4-.985,1.039,11.669,10.673,19.768,24.882,21.679,40.7.112.931,1.578,1.629,2.032.506q4.693-11.592,10.226-22.817c3.694-7.487,7.8-14.728,11.73-22.087A1,1,0,0,0,22.378,378.275Z" transform="translate(32.746 -187.61)" fill="#282b38"/>
                </g>
                <g id="Grupo_90457" data-name="Grupo 90457" transform="translate(17.08 66.347)">
                  <path id="Trazado_124738" data-name="Trazado 124738" d="M166.107,276.353C116.83,290.3,72.183,321.291,41.264,363.025A244.665,244.665,0,0,0-6.276,509.033C73.527,454.141,139.885,370.659,166.107,276.353Z" transform="translate(21.549 -276.353)" fill="#e82048"/>
                  <path id="Trazado_124739" data-name="Trazado 124739" d="M-14.673,545.213c.872-2.278,1.72-4.566,2.616-6.837q2.959-7.5,6.217-14.871,6.388-14.47,13.808-28.452a591.7,591.7,0,0,1,32.969-54.52c12.064-17.866,24.9-35.2,38.108-52.23,13.108-16.907,26.591-33.521,40.068-50.135q21.57-26.594,43.548-52.841c1.832-2.184,3.658-4.359,5.433-6.59.622-.781-.417-1.817-1.138-1.084-8.025,8.16-15.37,17.044-22.736,25.8-7.385,8.776-14.653,17.648-21.9,26.534-13.739,16.838-27.466,33.688-40.868,50.8-13.21,16.864-26.1,33.991-38.286,51.613A616.272,616.272,0,0,0,9.176,487.017a418.72,418.72,0,0,0-26.525,57.752Z" transform="translate(17.349 -275.955)" fill="#282b38"/>
                  <path id="Trazado_124740" data-name="Trazado 124740" d="M105.949,331.961a135.863,135.863,0,0,0-34.484,17.547c-1.711,1.18-3.388,2.406-5.046,3.659A95.181,95.181,0,0,0,75.2,317.6a58.96,58.96,0,0,0-.338-11.942.836.836,0,0,0-1.669.062c-.076,4.409.137,8.785-.2,13.194a97.381,97.381,0,0,1-1.849,12.97,95.092,95.092,0,0,1-8.924,24.645c-.487.922.661,2.261,1.592,1.511A147.892,147.892,0,0,1,84.157,344.28a173.85,173.85,0,0,1,22.42-10.266C107.848,333.52,107.278,331.526,105.949,331.961Z" transform="translate(47.505 -265.524)" fill="#282b38"/>
                  <path id="Trazado_124741" data-name="Trazado 124741" d="M78.86,371.229a103.2,103.2,0,0,0-37.574,18.429c-1.741,1.334-3.434,2.727-5.093,4.159A114.678,114.678,0,0,0,44.952,353.4a85.084,85.084,0,0,0-.544-13.516.814.814,0,0,0-1.626.059,148.048,148.048,0,0,1-.821,23.2,119.155,119.155,0,0,1-5.112,22.3,111.855,111.855,0,0,1-4.889,12.276,1.159,1.159,0,0,0,1.847,1.351,106.738,106.738,0,0,1,34.518-22.148c3.628-1.435,7.351-2.766,11.084-3.89A.941.941,0,0,0,78.86,371.229Z" transform="translate(36.016 -252.527)" fill="#282b38"/>
                  <path id="Trazado_124742" data-name="Trazado 124742" d="M54.15,397.216a219.612,219.612,0,0,0-21.228,13.219c-5.881,4.031-11.6,8.285-17.219,12.676a65.348,65.348,0,0,0,2.443-33.434A52.948,52.948,0,0,0,15,379.212c-.346-.833-1.66-.476-1.368.418,4.9,15.038,4.941,31.392-1.189,46.1-.36.865.571,2.193,1.52,1.442q9.794-7.774,20.141-14.816c6.9-4.694,14.045-8.972,21.09-13.441A1,1,0,0,0,54.15,397.216Z" transform="translate(28.626 -237.495)" fill="#282b38"/>
                </g>
              </g>
              <g id="Grupo_90462" data-name="Grupo 90462" transform="translate(838.443 384.752)">
                <g id="Grupo_90459" data-name="Grupo 90459" transform="translate(44.685)">
                  <path id="Trazado_124743" data-name="Trazado 124743" d="M644.653,278.9c-11.028,59.671-1.508,123.363,26.62,178.1A289.886,289.886,0,0,0,801.478,584.091C785.005,470.512,731.1,356.224,644.653,278.9Z" transform="translate(-640.176 -278.905)" fill="#3b53db"/>
                  <path id="Trazado_124744" data-name="Trazado 124744" d="M643.472,282.465c4.461,12.806,10.048,25.27,15.485,37.687,5.452,12.449,11.066,24.823,16.706,37.187,10.686,23.428,21.389,46.851,32.539,70.061,10.992,22.881,22.429,45.558,34.762,67.748a730.215,730.215,0,0,0,40.218,64.758c9.026,12.867,18.549,25.442,28.673,37.5l.593-4.4q-11.133-13.446-21.362-27.605a701.274,701.274,0,0,1-40.639-63.623c-12.657-22.187-24.336-44.915-35.51-67.88-11.09-22.795-21.671-45.833-32.257-68.866q-16.945-36.866-33.307-73.982c-1.36-3.091-2.714-6.173-4.152-9.229A.932.932,0,0,0,643.472,282.465Z" transform="translate(-638.948 -278.013)" fill="#282b38"/>
                  <path id="Trazado_124745" data-name="Trazado 124745" d="M694.143,330.79c-2.173,15.079-1.64,30.8.56,45.841.357,2.438.781,4.863,1.24,7.281a112.744,112.744,0,0,0-33.181-27.985,69.722,69.722,0,0,0-12.865-5.9.99.99,0,0,0-.81,1.8c4.645,2.393,9.405,4.463,13.917,7.128a115.429,115.429,0,0,1,12.812,8.767,112.654,112.654,0,0,1,21.505,22.4c.723,1,2.748.484,2.44-.9a175.319,175.319,0,0,1-3.956-28.825,206.049,206.049,0,0,1,.85-29.206C696.8,329.59,694.378,329.148,694.143,330.79Z" transform="translate(-637.011 -259.607)" fill="#282b38"/>
                  <path id="Trazado_124746" data-name="Trazado 124746" d="M721.684,380.333a122.279,122.279,0,0,0-.123,49.588c.5,2.548,1.1,5.077,1.748,7.591a135.892,135.892,0,0,0-38.346-30.5,100.73,100.73,0,0,0-14.648-6.513c-1.152-.395-1.94,1.235-.789,1.76A175.309,175.309,0,0,1,693.742,415.3a141.169,141.169,0,0,1,21.008,17.124,132.95,132.95,0,0,1,10.482,11.633,1.373,1.373,0,0,0,2.4-1.254,126.46,126.46,0,0,1-5.43-48.291c.378-4.608.915-9.262,1.677-13.819A1.115,1.115,0,0,0,721.684,380.333Z" transform="translate(-629.251 -240.751)" fill="#282b38"/>
                  <path id="Trazado_124747" data-name="Trazado 124747" d="M737.746,420.75a260.366,260.366,0,0,0,2.912,29.487c1.2,8.363,2.72,16.673,4.439,24.943a77.447,77.447,0,0,0-34.242-20.13,62.8,62.8,0,0,0-12.769-2.146c-1.068-.07-1.375,1.515-.273,1.673,18.545,2.685,35.946,11.213,48.355,25.437.731.837,2.631.545,2.329-.858q-3.122-14.485-5.18-29.171c-1.368-9.8-2.167-19.628-3.22-29.458A1.181,1.181,0,0,0,737.746,420.75Z" transform="translate(-618.564 -225.55)" fill="#282b38"/>
                </g>
                <g id="Grupo_90460" data-name="Grupo 90460" transform="translate(0 91.387)">
                  <path id="Trazado_124748" data-name="Trazado 124748" d="M607.784,345.151c6.812,60.3,34.452,118.464,77.291,162.65a289.892,289.892,0,0,0,161.549,83.7C797.815,487.628,712.992,393.969,607.784,345.151Z" transform="translate(-607.784 -345.151)" fill="#fbcc34"/>
                  <path id="Trazado_124749" data-name="Trazado 124749" d="M765.881,523.161A730.027,730.027,0,0,0,823.2,573.414a523.166,523.166,0,0,0,48.313,33.82l2.516-2.243c-3.715-2.287-7.409-4.608-11.062-6.994q-15.687-10.255-30.606-21.622a700.8,700.8,0,0,1-57.392-49.044c-18.565-17.543-36.353-35.891-53.725-54.611-17.244-18.582-34.07-37.545-50.9-56.5q-26.938-30.34-53.393-61.089c-2.2-2.563-4.391-5.118-6.658-7.622a.931.931,0,0,0-1.486,1.122c7.994,10.953,16.965,21.253,25.78,31.549,8.837,10.324,17.81,20.53,26.8,30.719,17.041,19.3,34.1,38.6,51.518,57.561C730.084,487.152,747.626,505.52,765.881,523.161Z" transform="translate(-607.47 -344.383)" fill="#282b38"/>
                  <path id="Trazado_124750" data-name="Trazado 124750" d="M669.719,383.8c2.309,15.059,7.393,29.946,13.875,43.695,1.051,2.228,2.162,4.424,3.305,6.605a112.749,112.749,0,0,0-39.888-17.12,69.839,69.839,0,0,0-14.027-1.905.99.99,0,0,0-.25,1.963c5.14.938,10.3,1.533,15.388,2.77a115.4,115.4,0,0,1,14.808,4.66,112.6,112.6,0,0,1,27.095,15.179c.984.746,2.77-.337,2.073-1.571a175.1,175.1,0,0,1-12.173-26.426,206.041,206.041,0,0,1-7.685-28.189C671.909,381.874,669.468,382.155,669.719,383.8Z" transform="translate(-598.632 -331.012)" fill="#282b38"/>
                  <path id="Trazado_124751" data-name="Trazado 124751" d="M710.423,423.742a122.246,122.246,0,0,0,14.311,47.477c1.224,2.291,2.526,4.539,3.881,6.755a135.885,135.885,0,0,0-45.561-18.022,100.875,100.875,0,0,0-15.908-1.967.965.965,0,0,0-.243,1.913,175.261,175.261,0,0,1,26.961,5.426,141.086,141.086,0,0,1,25.082,10.27,132.747,132.747,0,0,1,13.411,8.081,1.374,1.374,0,0,0,1.936-1.9,126.446,126.446,0,0,1-19.247-44.62c-.979-4.519-1.82-9.127-2.416-13.71A1.114,1.114,0,0,0,710.423,423.742Z" transform="translate(-585.658 -315.792)" fill="#282b38"/>
                  <path id="Trazado_124752" data-name="Trazado 124752" d="M736.565,456.779a260.617,260.617,0,0,0,11.366,27.364c3.58,7.651,7.454,15.159,11.505,22.571a77.441,77.441,0,0,0-38.618-9.3,62.837,62.837,0,0,0-12.842,1.661c-1.04.244-.875,1.85.226,1.682,18.524-2.829,37.654.268,53.663,10.265.943.589,2.676-.244,1.978-1.5q-7.2-12.949-13.443-26.4c-4.159-8.975-7.785-18.149-11.651-27.247A1.181,1.181,0,0,0,736.565,456.779Z" transform="translate(-570.025 -303.399)" fill="#282b38"/>
                </g>
                <g id="Grupo_90461" data-name="Grupo 90461" transform="translate(126.358 2.329)">
                  <path id="Trazado_124753" data-name="Trazado 124753" d="M721.285,280.593C697.5,336.419,692.895,400.654,708.4,460.212a289.9,289.9,0,0,0,99.337,152.433C816.446,498.208,788.782,374.913,721.285,280.593Z" transform="translate(-699.381 -280.593)" fill="#e82048"/>
                  <path id="Trazado_124754" data-name="Trazado 124754" d="M826.343,650.547c-1.453-2.5-2.933-4.981-4.361-7.5q-4.718-8.3-9.1-16.794-8.6-16.651-15.979-33.894A701.045,701.045,0,0,1,771.132,521.4c-7.511-24.414-13.95-49.144-19.843-73.993-5.849-24.667-11.148-49.458-16.453-74.246q-8.492-39.674-16.361-79.467c-.652-3.314-1.3-6.618-2.037-9.913a.932.932,0,0,0-1.847.244c1.56,13.471,4.292,26.854,6.889,40.158,2.6,13.337,5.381,26.64,8.188,39.937,5.317,25.194,10.651,50.388,16.467,75.473,5.733,24.728,11.948,49.353,19.141,73.7a730.207,730.207,0,0,0,25.12,71.973,496.053,496.053,0,0,0,33.55,67.415Z" transform="translate(-693.612 -279.674)" fill="#282b38"/>
                  <path id="Trazado_124755" data-name="Trazado 124755" d="M754.717,339.5c-5.412,14.243-8.323,29.7-9.457,44.859-.183,2.457-.3,4.915-.378,7.376a112.76,112.76,0,0,0-26.275-34.55,69.706,69.706,0,0,0-11.268-8.57.99.99,0,0,0-1.184,1.585c4.01,3.349,8.205,6.406,12.025,9.992a115.689,115.689,0,0,1,10.591,11.351,112.681,112.681,0,0,1,16.1,26.56c.488,1.134,2.577,1.072,2.578-.346a175.256,175.256,0,0,1,2.428-28.993,205.977,205.977,0,0,1,7.2-28.316C757.568,338.9,755.3,337.944,754.717,339.5Z" transform="translate(-696.959 -258.539)" fill="#282b38"/>
                  <path id="Trazado_124756" data-name="Trazado 124756" d="M770.831,393.431A122.3,122.3,0,0,0,759.89,441.8c-.063,2.6-.037,5.2.05,7.79a135.9,135.9,0,0,0-30.767-38.13,100.636,100.636,0,0,0-12.874-9.552c-1.039-.637-2.162.781-1.155,1.545a175.219,175.219,0,0,1,20.788,18.007,141.156,141.156,0,0,1,16.765,21.3,132.7,132.7,0,0,1,7.691,13.641,1.374,1.374,0,0,0,2.62-.7,126.439,126.439,0,0,1,5.238-48.312c1.374-4.414,2.914-8.839,4.653-13.119A1.115,1.115,0,0,0,770.831,393.431Z" transform="translate(-693.548 -238.02)" fill="#282b38"/>
                  <path id="Trazado_124757" data-name="Trazado 124757" d="M778.425,437.1a260.626,260.626,0,0,0-3.592,29.413c-.655,8.422-.984,16.865-1.11,25.31A77.44,77.44,0,0,0,744.7,464.7a62.752,62.752,0,0,0-11.993-4.881c-1.025-.3-1.672,1.177-.631,1.573,17.512,6.666,32.634,18.787,41.639,35.376.53.975,2.449,1.1,2.46-.33q.112-14.818,1.311-29.6c.8-9.858,2.167-19.628,3.285-29.45A1.181,1.181,0,0,0,778.425,437.1Z" transform="translate(-687.174 -221.573)" fill="#282b38"/>
                </g>
              </g>
              <g id="Grupo_90466" data-name="Grupo 90466" transform="translate(545.269 463.813)">
                <g id="Grupo_90463" data-name="Grupo 90463" transform="translate(37.059)">
                  <path id="Trazado_124758" data-name="Trazado 124758" d="M445.306,336.216c-21.449,42.4-28.348,92.346-19.291,139.674a226.98,226.98,0,0,0,69.784,124.2C508.479,511.125,493.2,413.375,445.306,336.216Z" transform="translate(-422.126 -336.216)" fill="#3b53db"/>
                  <path id="Trazado_124759" data-name="Trazado 124759" d="M438.243,338.854c.526,10.6,1.974,21.2,3.319,31.729,1.349,10.555,2.838,21.09,4.347,31.624,2.86,19.957,5.733,39.915,8.99,59.813,3.209,19.614,6.8,39.174,11.17,58.564A571.93,571.93,0,0,0,482,578.106c3.943,11.658,8.324,23.206,13.27,34.5l1.414-3.172q-5.395-12.558-9.957-25.45a548.8,548.8,0,0,1-16.495-56.763c-4.614-19.461-8.375-39.112-11.7-58.831-3.3-19.571-6.169-39.214-9.041-58.853q-4.6-31.434-8.7-62.928c-.339-2.622-.676-5.237-1.083-7.849A.73.73,0,0,0,438.243,338.854Z" transform="translate(-416.01 -335.499)" fill="#282b38"/>
                  <path id="Trazado_124760" data-name="Trazado 124760" d="M466.884,383.556a126.019,126.019,0,0,0-9.691,34.564c-.27,1.909-.487,3.825-.675,5.743a88.308,88.308,0,0,0-18.754-28.343,54.693,54.693,0,0,0-8.364-7.274.775.775,0,0,0-1.007,1.178c2.962,2.823,6.082,5.427,8.883,8.425a90.442,90.442,0,0,1,7.691,9.412,88.185,88.185,0,0,1,11.214,21.577c.323.912,1.958.97,2.032-.138a137.4,137.4,0,0,1,3.385-22.527,161.45,161.45,0,0,1,7.082-21.753C469.142,383.24,467.424,382.375,466.884,383.556Z" transform="translate(-419.851 -318.464)" fill="#282b38"/>
                  <path id="Trazado_124761" data-name="Trazado 124761" d="M476.693,426.425a95.724,95.724,0,0,0-11.032,37.226c-.183,2.026-.3,4.056-.361,6.089a106.427,106.427,0,0,0-22.08-31.373,78.986,78.986,0,0,0-9.567-8.123c-.779-.552-1.73.5-.981,1.148a137.159,137.159,0,0,1,15.315,15.137,110.448,110.448,0,0,1,12.006,17.5A104.091,104.091,0,0,1,465.3,475.08a1.076,1.076,0,0,0,2.083-.412,99.038,99.038,0,0,1,6.573-37.477c1.3-3.378,2.731-6.755,4.31-10.011A.873.873,0,0,0,476.693,426.425Z" transform="translate(-418.228 -302.158)" fill="#282b38"/>
                  <path id="Trazado_124762" data-name="Trazado 124762" d="M480.591,461.059a203.474,203.474,0,0,0-4.317,22.8c-.945,6.547-1.636,13.126-2.169,19.719A60.617,60.617,0,0,0,452.822,480.9a49.1,49.1,0,0,0-9.12-4.43c-.785-.287-1.367.835-.574,1.2,13.341,6.107,24.532,16.354,30.716,29.777.364.791,1.857.989,1.938-.131q.85-11.571,2.545-23.057c1.133-7.662,2.7-15.224,4.078-22.842A.924.924,0,0,0,480.591,461.059Z" transform="translate(-414.3 -289.108)" fill="#282b38"/>
                </g>
                <g id="Grupo_90464" data-name="Grupo 90464" transform="translate(0 57.811)">
                  <path id="Trazado_124763" data-name="Trazado 124763" d="M398.407,378.123c-8.185,46.8-.251,96.6,22.185,139.243a226.971,226.971,0,0,0,102.9,98.519C509.741,527.082,466.676,438.007,398.407,378.123Z" transform="translate(-395.263 -378.123)" fill="#fbcc34"/>
                  <path id="Trazado_124764" data-name="Trazado 124764" d="M477.107,546.682a571.761,571.761,0,0,0,31.978,50.4,409.788,409.788,0,0,0,28.836,36.066l2.385-1.13q-3.431-3.807-6.768-7.7-9.523-11.164-18.223-22.994a548.608,548.608,0,0,1-32.3-49.508c-10.077-17.274-19.395-34.982-28.316-52.878-8.855-17.764-17.313-35.722-25.775-53.675q-13.545-28.738-26.636-57.673c-1.088-2.411-2.171-4.814-3.32-7.2a.73.73,0,0,0-1.364.515c3.59,9.993,8.058,19.71,12.409,29.39,4.361,9.7,8.851,19.352,13.359,28.99,8.543,18.262,17.1,36.52,26.005,54.609C458.158,511.733,467.285,529.4,477.107,546.682Z" transform="translate(-394.393 -377.427)" fill="#282b38"/>
                  <path id="Trazado_124765" data-name="Trazado 124765" d="M437.6,418.46a126.019,126.019,0,0,0,.785,35.888c.3,1.905.647,3.8,1.026,5.69a88.279,88.279,0,0,0-26.19-21.66,54.738,54.738,0,0,0-10.119-4.526.776.776,0,0,0-.621,1.421c3.654,1.837,7.4,3.421,10.951,5.474a90.807,90.807,0,0,1,10.1,6.768,88.19,88.19,0,0,1,17.007,17.38c.574.778,2.155.359,1.9-.723a137.182,137.182,0,0,1-3.315-22.538,161.475,161.475,0,0,1,.444-22.872C439.67,417.5,437.773,417.173,437.6,418.46Z" transform="translate(-392.695 -363.125)" fill="#282b38"/>
                  <path id="Trazado_124766" data-name="Trazado 124766" d="M459.537,457.057a95.758,95.758,0,0,0,.277,38.826c.415,1.991.9,3.966,1.426,5.93a106.4,106.4,0,0,0-30.254-23.59,78.924,78.924,0,0,0-11.516-4.988.756.756,0,0,0-.606,1.384,137.226,137.226,0,0,1,19.058,10.025A110.45,110.45,0,0,1,454.5,497.894a104.219,104.219,0,0,1,8.3,9.029,1.075,1.075,0,0,0,1.872-1,99.035,99.035,0,0,1-4.616-37.768c.261-3.61.647-7.258,1.21-10.832A.873.873,0,0,0,459.537,457.057Z" transform="translate(-386.475 -348.435)" fill="#282b38"/>
                  <path id="Trazado_124767" data-name="Trazado 124767" d="M472.393,488.556a203.613,203.613,0,0,0,2.5,23.065c1,6.537,2.254,13.034,3.663,19.5a60.606,60.606,0,0,0-26.961-15.5,49.118,49.118,0,0,0-10.014-1.585c-.836-.047-1.065,1.2-.2,1.312,14.54,1.962,28.229,8.509,38.051,19.55.578.651,2.064.407,1.817-.688q-2.556-11.317-4.275-22.8c-1.145-7.66-1.844-15.351-2.744-23.039A.924.924,0,0,0,472.393,488.556Z" transform="translate(-377.968 -336.589)" fill="#282b38"/>
                </g>
                <g id="Grupo_90465" data-name="Grupo 90465" transform="translate(84.768 23.612)">
                  <path id="Trazado_124768" data-name="Trazado 124768" d="M506.118,353.332c-30.182,36.694-47.815,83.935-49.3,132.1a226.977,226.977,0,0,0,41,136.432C529.6,537.811,536.019,439.081,506.118,353.332Z" transform="translate(-456.711 -353.332)" fill="#e82048"/>
                  <path id="Trazado_124769" data-name="Trazado 124769" d="M497.865,655.725c-.539-2.2-1.1-4.39-1.622-6.594q-1.709-7.28-3.127-14.624-2.785-14.406-4.528-28.989a549.275,549.275,0,0,1-3.711-58.993c-.257-20,.361-40,1.417-59.966,1.046-19.821,2.534-39.615,4.017-59.407q2.373-31.68,5.239-63.311c.241-2.633.483-5.257.655-7.9a.729.729,0,0,0-1.44-.223c-1.8,10.464-2.7,21.12-3.685,31.687-.986,10.595-1.833,21.2-2.658,31.81-1.563,20.1-3.114,40.2-4.278,60.333-1.148,19.841-1.912,39.713-1.879,59.591a572.015,572.015,0,0,0,2.994,59.613A388.525,388.525,0,0,0,495.591,656.8Z" transform="translate(-447.013 -352.652)" fill="#282b38"/>
                  <path id="Trazado_124770" data-name="Trazado 124770" d="M509.833,404.219a126.06,126.06,0,0,0-17,31.616c-.68,1.8-1.309,3.627-1.912,5.459A88.265,88.265,0,0,0,478.8,409.54a54.518,54.518,0,0,0-6.575-8.924.775.775,0,0,0-1.239.93c2.273,3.4,4.751,6.623,6.83,10.16a90.511,90.511,0,0,1,5.452,10.864,88.171,88.171,0,0,1,6.235,23.5c.116.96,1.7,1.374,2.013.309a137.159,137.159,0,0,1,8.221-21.246A161.2,161.2,0,0,1,511.4,405.452C512.107,404.4,510.618,403.185,509.833,404.219Z" transform="translate(-451.351 -335.491)" fill="#282b38"/>
                  <path id="Trazado_124771" data-name="Trazado 124771" d="M509.994,448.455a95.741,95.741,0,0,0-18.888,33.922c-.621,1.937-1.174,3.894-1.682,5.864a106.41,106.41,0,0,0-14.7-35.434,78.923,78.923,0,0,0-7.564-10.015c-.64-.709-1.8.109-1.208.906a137.116,137.116,0,0,1,11.644,18.113,110.376,110.376,0,0,1,7.9,19.7,103.916,103.916,0,0,1,2.769,11.944,1.075,1.075,0,0,0,2.122.052,99.027,99.027,0,0,1,14.594-35.14c2.006-3.013,4.139-6,6.39-8.829C512.067,448.651,510.732,447.615,509.994,448.455Z" transform="translate(-453.267 -319.484)" fill="#282b38"/>
                  <path id="Trazado_124772" data-name="Trazado 124772" d="M506.954,481.939a204.017,204.017,0,0,0-9.188,21.3c-2.349,6.183-4.459,12.453-6.417,18.77a60.619,60.619,0,0,0-15.823-26.775,49.2,49.2,0,0,0-7.934-6.313c-.7-.452-1.516.516-.822,1.043,11.687,8.87,20.373,21.312,23.479,35.761.182.851,1.6,1.371,1.92.3q3.354-11.106,7.514-21.947c2.777-7.23,5.958-14.268,8.964-21.4A.924.924,0,0,0,506.954,481.939Z" transform="translate(-452.994 -304.723)" fill="#282b38"/>
                </g>
              </g>
            </g>
          </g>
        </g>
      </g>
      <g id="OBJECTS">
        <g id="Grupo_90519" data-name="Grupo 90519">
          <g id="Grupo_90512" data-name="Grupo 90512">
            <g id="Grupo_90511" data-name="Grupo 90511" clip-path="url(#clip-path-2)">
              <g id="Grupo_90488" data-name="Grupo 90488" transform="translate(374.23 60.164)">
                <path id="Trazado_124773" data-name="Trazado 124773" d="M564.118,395.151l-14.359,52.794L413.023,564.188H590.071l67.57-31.2a113.144,113.144,0,0,0,65.338-93.536l3.418-41.973Z" transform="translate(-217.484 89.799)" fill="#0b0c0f"/>
                <path id="Trazado_124774" data-name="Trazado 124774" d="M524.732,411.439a108.154,108.154,0,0,0,41.1,77.974C549.935,521.268,534.5,548.82,518.6,580.675H650.166c14.592-31.348,27.469-39.468,36.161-71.326s11.971-66.3,5.319-114.047C646.356,392.184,569.34,403,524.732,411.439Z" transform="translate(-177.415 89.648)" fill="#282b38"/>
                <g id="Grupo_90487" data-name="Grupo 90487">
                  <g id="Grupo_90471" data-name="Grupo 90471" transform="translate(0 268.816)">
                    <path id="Trazado_124775" data-name="Trazado 124775" d="M398.868,252.972l-71.121-1.357-.225-.039v24.518l51.669,12.5Z" transform="translate(-249.933 -233.504)" fill="#db9d67"/>
                    <path id="Trazado_124776" data-name="Trazado 124776" d="M347.794,257.7a34.745,34.745,0,0,0-32.871-13.224,65.8,65.8,0,0,1-15.749-5.743,2.413,2.413,0,0,0-3.355,2.857,12.571,12.571,0,0,0,5.07,7.325c3.867,2.515,13.911,4.492,18.415,5.485,4.42,7.811,7.1,12.276,16.016,13.34a15.294,15.294,0,0,0,8.971-1.231C347,265.069,348.085,260.748,347.794,257.7Z" transform="translate(-261.998 -238.476)" fill="#db9d67"/>
                    <path id="Trazado_124777" data-name="Trazado 124777" d="M346.135,275.7c1.582-7.74-.7-13.541-6.975-18.345s-12.479-9.091-19.592-5.65c-6.979,3.374-15.308,5.492-21.737,8.826a160.31,160.31,0,0,0,5.739,25A95.312,95.312,0,0,0,346.135,275.7Z" transform="translate(-261.201 -233.927)" fill="#db9d67"/>
                    <path id="Trazado_124778" data-name="Trazado 124778" d="M336.517,266.062c-2.767,1.349-5.921.408-8.59-.734a23.826,23.826,0,0,1-14.965-18.238.69.69,0,0,0-1.348.3,28.2,28.2,0,0,0,5.776,12.133A26.386,26.386,0,0,0,329.3,267.33c2.562.859,5.35,1.178,7.849-.041C337.949,266.9,337.314,265.674,336.517,266.062Z" transform="translate(-255.977 -235.405)" fill="#bd7231"/>
                    <g id="Grupo_90470" data-name="Grupo 90470" transform="translate(0 23.507)">
                      <path id="Trazado_124779" data-name="Trazado 124779" d="M313.593,269.759c-3.992,2.767-8.143,5.584-12.755,7.142-5.43,1.835-11.346,1.331-16.954.764a3.449,3.449,0,1,0-.281,6.892c6.172.624,12.733,1.05,18.712-.917a49.457,49.457,0,0,0,11.279-5.653Z" transform="translate(-267.856 -250.111)" fill="#db9d67"/>
                      <path id="Trazado_124780" data-name="Trazado 124780" d="M316.737,264.753a64.91,64.91,0,0,1-16.434,6.689,29.722,29.722,0,0,1-11.195.3c-4.276-.535-8.55-1.094-12.824-1.642a3.562,3.562,0,0,0-4.188,2.5c-.412,1.64.644,3.95,2.5,4.188,4.493.574,8.983,1.168,13.479,1.723a37.616,37.616,0,0,0,13.419-.264,74.442,74.442,0,0,0,11.9-4.265c1.126-.477,2.238-.985,3.337-1.513Z" transform="translate(-271.001 -252.01)" fill="#db9d67"/>
                      <path id="Trazado_124781" data-name="Trazado 124781" d="M317.014,259.732a64.665,64.665,0,0,1-17.378,6.187,29.714,29.714,0,0,1-11.195-.268c-4.243-.75-8.483-1.526-12.725-2.287a3.559,3.559,0,0,0-4.308,2.287c-.5,1.618.443,3.977,2.287,4.308,4.459.8,8.914,1.624,13.376,2.4a37.587,37.587,0,0,0,13.414.415,74.373,74.373,0,0,0,12.1-3.657c1.5-.546,2.97-1.151,4.425-1.791Z" transform="translate(-271.278 -253.916)" fill="#db9d67"/>
                      <path id="Trazado_124782" data-name="Trazado 124782" d="M315.69,255.516a65.963,65.963,0,0,1-12.565,3.9,29.712,29.712,0,0,1-11.195-.268c-4.243-.752-8.483-1.526-12.725-2.289a3.56,3.56,0,0,0-4.308,2.289c-.5,1.617.443,3.976,2.287,4.308,4.459.8,8.914,1.622,13.376,2.4a37.619,37.619,0,0,0,13.414.415,72.091,72.091,0,0,0,11.715-3.518Z" transform="translate(-269.954 -255.516)" fill="#db9d67"/>
                    </g>
                  </g>
                  <g id="Grupo_90480" data-name="Grupo 90480" transform="translate(358.309)">
                    <g id="Grupo_90479" data-name="Grupo 90479">
                      <path id="Trazado_124783" data-name="Trazado 124783" d="M703.658,194.678Q689.9,174.1,676.152,153.519c-15.54-14.773-33.224-22.523-47.862-24.536-2.894,6.2-8.649,13.424-6.5,20.213a36.133,36.133,0,0,0,12.054,16.829,37.472,37.472,0,0,0,25.006,7.866c5.046,10.5,10.516,21.222,15.562,31.718C684.4,206.338,696.628,201.81,703.658,194.678Z" transform="translate(-496.742 -11.214)" fill="#db9d67"/>
                      <g id="Grupo_90478" data-name="Grupo 90478">
                        <g id="Grupo_90477" data-name="Grupo 90477">
                          <g id="Grupo_90472" data-name="Grupo 90472" transform="translate(71.724 39.182)">
                            <path id="Trazado_124784" data-name="Trazado 124784" d="M654.125,119.489a41.711,41.711,0,0,1-1.228,4.318c-.29.814-.593,1.614-.91,2.414a60.8,60.8,0,0,1-3.035,6.346c-.621,1.145-1.269,2.276-1.945,3.407-1.435,2.4-2.966,4.759-4.5,7.091-.221.345-.441.676-.662,1.007-.483.731-.993,1.49-1.531,2.221-2.856,4.028-6.387,7.808-11.16,8.153-4.166.3-7.987-2.18-11.271-4.759A103.243,103.243,0,0,1,592.5,120.579c-4.511-7.7-15.368-23.631-5.435-30.294,3.794-2.552,7.808-4.856,11.85-7.1.855-.469,1.711-.952,2.566-1.421,1.876-1.035,3.752-2.055,5.615-3.1.855-.469,1.711-.952,2.552-1.435l.5-.29c1.586-.91,3.2-1.835,4.87-2.635.938-.441,1.89-.855,2.856-1.2a16.715,16.715,0,0,1,6.1-1.076c7.987.193,13.988,7.063,18.9,13.354s9.988,12.912,11.615,20.734A31.524,31.524,0,0,1,654.125,119.489Z" transform="translate(-583.007 -72.016)" fill="#fafafa"/>
                            <path id="Trazado_124785" data-name="Trazado 124785" d="M645.319,119.192a41.71,41.71,0,0,1-1.228,4.318c-.3-.828-.621-1.655-.952-2.469-7.6-18.872-21.437-34.2-36.929-47.041.938-.441,1.89-.855,2.856-1.2,3.256,2.731,6.442,5.559,9.491,8.525C629.717,92.112,639.4,104.859,645.319,119.192Z" transform="translate(-574.202 -71.718)" fill="#231f20"/>
                            <path id="Trazado_124786" data-name="Trazado 124786" d="M642.324,131.135c-.621,1.145-1.269,2.276-1.945,3.407a77.633,77.633,0,0,0-3.421-10.636c-7.518-18.692-21.175-33.895-36.488-46.683.855-.469,1.711-.952,2.552-1.435,3.214,2.69,6.346,5.477,9.367,8.4C625.839,97.213,637.165,113.063,642.324,131.135Z" transform="translate(-576.38 -70.583)" fill="#231f20"/>
                            <path id="Trazado_124787" data-name="Trazado 124787" d="M638.132,140.384c-.221.345-.441.676-.662,1.007-.483.731-.993,1.49-1.531,2.221a78.917,78.917,0,0,0-4.566-16.14c-7.587-18.83-21.382-34.143-36.833-46.972.855-.469,1.711-.952,2.566-1.421,3.325,2.773,6.566,5.656,9.684,8.677C621.647,102.117,633.9,119.954,638.132,140.384Z" transform="translate(-578.631 -69.335)" fill="#231f20"/>
                          </g>
                          <path id="Trazado_124788" data-name="Trazado 124788" d="M592.206,56.07c-10.281-10.021-26.048-15.813-39.33-10.361-9.062,3.719-15.635,12.136-18.859,21.385s-3.431,19.292-2.563,29.048c4.623,52.009,41.409,99.8,90.505,117.571,8.727,3.159,17.936,5.452,27.2,4.97s18.651-4,24.8-10.953c8.982-10.149,9.415-25.725,4.614-38.4s-13.967-23.127-22.947-33.279c-11.346-12.825-23.125-25.315-33.549-38.921C612.177,84.2,605.43,65.987,592.206,56.07Z" transform="translate(-531.015 -43.613)" fill="#fafafa"/>
                          <path id="Trazado_124789" data-name="Trazado 124789" d="M591.862,62.035c-9.746-9.5-24.692-14.99-37.281-9.822-8.589,3.526-14.821,11.5-17.876,20.272s-3.253,18.287-2.431,27.535c4.381,49.3,39.253,94.6,85.79,111.446,8.271,2.995,17,5.168,25.787,4.711s17.68-3.794,23.51-10.382c8.514-9.621,8.926-24.386,4.374-36.4S660.5,147.472,651.984,137.85c-10.755-12.158-21.919-24-31.8-36.894C610.792,88.7,604.4,71.436,591.862,62.035Z" transform="translate(-529.935 -41.103)" fill="#e2c675" opacity="0.46" style="mix-blend-mode: multiply;isolation: isolate"/>
                          <g id="Grupo_90473" data-name="Grupo 90473" transform="translate(2.543 7.742)">
                            <path id="Trazado_124790" data-name="Trazado 124790" d="M643.833,218c-7.11,0-14.766-1.564-23.857-4.856-23.082-8.356-43.6-23.574-59.327-44.009s-25.2-44.161-27.368-68.613c-1.011-11.378-.215-20.312,2.5-28.112,3.471-9.963,10.27-17.651,18.655-21.093,13.769-5.649,29.344.966,38.7,10.048,8.255,6.22,13.875,15.7,19.312,24.863a145.328,145.328,0,0,0,9.205,14.27c7.5,9.79,15.9,19.139,24.021,28.182q3.872,4.308,7.718,8.636c8.114,9.172,17.31,19.567,22.009,31.971,5.248,13.856,3.431,28.694-4.631,37.8-5.644,6.378-14.564,10.331-24.471,10.846C645.487,217.976,644.662,218,643.833,218ZM565.294,51.974a25.64,25.64,0,0,0-9.81,1.9c-7.655,3.141-13.886,10.229-17.1,19.448-2.585,7.416-3.334,15.983-2.359,26.96,4.3,48.389,39.207,93.733,84.887,110.27,9.795,3.547,17.818,5.015,25.245,4.632,9.175-.477,17.393-4.093,22.548-9.919,7.39-8.352,9.007-22.089,4.116-35-4.518-11.93-13.148-21.686-21.494-31.12q-3.828-4.327-7.7-8.621c-8.157-9.081-16.591-18.472-24.158-28.346a149.65,149.65,0,0,1-9.39-14.541c-5.314-8.96-10.808-18.225-18.663-24.117l-.137-.116C584.773,57.062,575.063,51.974,565.294,51.974Z" transform="translate(-532.858 -49.225)" fill="#231f20"/>
                          </g>
                          <g id="Grupo_90474" data-name="Grupo 90474" transform="translate(10.873 20.732)">
                            <path id="Trazado_124791" data-name="Trazado 124791" d="M632.659,204.736c-6.023,0-12.5-1.356-20.195-4.208-40.022-14.839-69.443-53.98-73.212-97.395-.854-9.848-.182-17.582,2.118-24.337,2.942-8.652,8.717-15.335,15.839-18.328,11.709-4.925,24.928.821,32.871,8.712,6.984,5.4,11.73,13.591,16.32,21.518a125.53,125.53,0,0,0,7.746,12.3c6.319,8.447,13.4,16.515,20.24,24.321q3.263,3.721,6.507,7.456c6.851,7.932,14.616,16.924,18.585,27.661,4.445,12.017,2.9,24.895-3.937,32.806-4.8,5.551-12.373,8.992-20.786,9.44Q633.714,204.737,632.659,204.736Zm-66.2-143.342a20.951,20.951,0,0,0-8.178,1.617c-6.4,2.69-11.607,8.767-14.3,16.674-2.17,6.382-2.8,13.756-1.981,23.21,3.62,41.712,32.99,80.8,71.423,95.047,8.223,3.05,14.95,4.319,21.184,3.984,7.669-.408,14.537-3.5,18.845-8.488,6.191-7.164,7.539-18.957,3.439-30.047-3.8-10.268-11.062-18.679-18.087-26.812q-3.226-3.737-6.493-7.442c-6.878-7.844-13.99-15.954-20.374-24.486a129.414,129.414,0,0,1-7.925-12.57c-4.471-7.721-9.092-15.7-15.684-20.767L588.2,71.2C582.749,65.759,574.624,61.394,566.457,61.394Z" transform="translate(-538.897 -58.641)" fill="#231f20"/>
                          </g>
                          <g id="Grupo_90475" data-name="Grupo 90475" transform="translate(20.418 35.051)">
                            <path id="Trazado_124792" data-name="Trazado 124792" d="M623.516,189.429c-5,0-10.386-1.117-16.767-3.468-33.148-12.213-57.517-44.423-60.638-80.152-.709-8.118-.149-14.5,1.762-20.079,2.454-7.171,7.273-12.708,13.221-15.193,9.767-4.079,20.781.665,27.4,7.191,5.8,4.459,9.731,11.2,13.53,17.723a103.214,103.214,0,0,0,6.384,10.072c5.216,6.927,11.058,13.547,16.708,19.948q2.7,3.056,5.376,6.122c5.672,6.526,12.1,13.923,15.4,22.778,3.7,9.95,2.407,20.62-3.3,27.182-4.006,4.6-10.326,7.459-17.34,7.83Q624.392,189.429,623.516,189.429ZM568.826,71.775a17.162,17.162,0,0,0-6.668,1.309c-5.22,2.18-9.476,7.116-11.675,13.538-1.782,5.2-2.3,11.225-1.624,18.946,2.983,34.144,27.18,66.138,58.844,77.8,6.764,2.491,12.293,3.525,17.408,3.257,6.273-.332,11.886-2.842,15.4-6.887,5.053-5.809,6.15-15.391,2.793-24.408-3.12-8.386-9.106-15.273-14.9-21.931-1.776-2.043-3.569-4.075-5.361-6.106-5.685-6.442-11.564-13.1-16.844-20.115a106.665,106.665,0,0,1-6.565-10.342c-3.68-6.315-7.487-12.847-12.891-16.973l-.134-.117C582.155,75.327,575.5,71.775,568.826,71.775Z" transform="translate(-545.816 -69.021)" fill="#231f20"/>
                          </g>
                          <g id="Grupo_90476" data-name="Grupo 90476" transform="translate(30.33 51.205)">
                            <path id="Trazado_124793" data-name="Trazado 124793" d="M612.941,173.255a37.576,37.576,0,0,1-12.969-2.667c-25.554-9.36-44.339-34.049-46.743-61.434-.549-6.24-.113-11.152,1.368-15.457,1.915-5.559,5.678-9.855,10.327-11.785,7.618-3.165,16.2.492,21.356,5.539,4.495,3.44,7.521,8.608,10.451,13.606a78.15,78.15,0,0,0,4.875,7.651c3.991,5.27,8.465,10.31,12.794,15.186,1.384,1.56,2.769,3.119,4.14,4.689,4.37,5,9.324,10.664,11.876,17.481,2.885,7.7,1.868,15.975-2.591,21.072a19.231,19.231,0,0,1-13.529,6.084Q613.624,173.254,612.941,173.255ZM570.984,83.483a12.974,12.974,0,0,0-5,.975c-3.921,1.629-7.12,5.324-8.778,10.137-1.352,3.927-1.742,8.477-1.229,14.318,2.278,25.929,20.759,50.225,44.943,59.084,5.15,1.887,9.356,2.668,13.232,2.467a16.472,16.472,0,0,0,11.6-5.144c3.8-4.344,4.617-11.523,2.084-18.29-2.375-6.346-6.947-11.575-11.37-16.633q-2.051-2.347-4.126-4.674c-4.362-4.914-8.874-10-12.927-15.351a80.722,80.722,0,0,1-5.057-7.921c-2.81-4.792-5.714-9.748-9.811-12.857l-.134-.116C581.037,86.154,576.016,83.483,570.984,83.483Z" transform="translate(-553.001 -80.731)" fill="#231f20"/>
                          </g>
                          <path id="Trazado_124794" data-name="Trazado 124794" d="M584.343,94.2c-4.254-4.148-10.781-6.546-16.278-4.289a14.579,14.579,0,0,0-7.807,8.852,28.811,28.811,0,0,0-1.061,12.024c1.913,21.527,17.14,41.307,37.462,48.664a28.972,28.972,0,0,0,11.26,2.058,14.688,14.688,0,0,0,10.266-4.534c3.718-4.2,3.9-10.648,1.911-15.895s-5.781-9.572-9.5-13.774c-4.7-5.308-9.571-10.479-13.886-16.11C592.61,105.846,589.816,98.307,584.343,94.2Z" transform="translate(-520.388 -26.371)" fill="#231f20"/>
                        </g>
                        <path id="Trazado_124795" data-name="Trazado 124795" d="M668.993,162.921a24.462,24.462,0,0,1-28.215,3.532c-7.154.243-14.837.539-21.991.782,1.677-4.078,4.712-6.978,9.069-7.651s8.8.3,13,1.66a16.025,16.025,0,0,1,13.779-8.476C660.317,152.585,666.148,158,668.993,162.921Z" transform="translate(-497.704 -2.189)" fill="#db9d67"/>
                      </g>
                    </g>
                    <path id="Trazado_124796" data-name="Trazado 124796" d="M662.332,155.847a19.98,19.98,0,0,0-28.389,4.965c-.5.731.669,1.462,1.171.73a18.607,18.607,0,0,1,26.488-4.523C662.319,157.54,663.048,156.367,662.332,155.847Z" transform="translate(-491.999 -2.481)" fill="#bd7231"/>
                  </g>
                  <path id="Trazado_124797" data-name="Trazado 124797" d="M875.725,293.834c-15.495-48.88-47.8-92.347-76.961-135.3-19.35,7.983-23.225,12.938-42.574,20.922L791.343,246.9,720.6,219.706c.014.1.029.2.044.3a232.354,232.354,0,0,0-105.279,4.769c-1.562-2.134-3.217-4.216-4.981-6.224L488.11,288.905c-35.846-3.352-74.957-7.219-110.8-10.57-9.708,18.2-18.054,39.283-17.894,59.909,44.27,7.278,100.334,16.972,144.47,16.972,19.768-6.942,36.3-13.427,51.956-19.978a353.462,353.462,0,0,1,18.985,124.487c-.521,18.906-.091,23.485-3.71,42.105,64.371,23.961,139.268,46.473,189.375-.508,1.208-15.11,2.777-41.865,2.439-57.436-.29-13.363-1.138-39.157-2.439-52.678a648.93,648.93,0,0,0-10.814-70.162c34.99,3.4,67.274,5.346,101.528,5.772A25.36,25.36,0,0,0,875.725,293.834Z" transform="translate(-237.83 0)" fill="#fafafa"/>
                  <path id="Trazado_124798" data-name="Trazado 124798" d="M559.249,275.311c-60.178,40.556-132.088,21.207-198.768,5.017a84.188,84.188,0,0,0-1.066,13.6c44.27,7.278,100.334,16.972,144.47,16.972,19.768-6.942,36.3-13.427,51.956-19.978q3.795,11.073,6.853,22.376C561.071,299.343,559.741,288.113,559.249,275.311Z" transform="translate(-237.83 44.319)" fill="#be9f46" opacity="0.3" style="mix-blend-mode: multiply;isolation: isolate"/>
                  <path id="Trazado_124799" data-name="Trazado 124799" d="M816.85,265.6a258.619,258.619,0,0,0-13.007-32.679c2.414,18.9-.2,37.549-23.308,41.567-37.247,5.518-74.493,2.759-110.361-6.9,5.518,33.108,20.693,71.734-1.38,100.7a223.137,223.137,0,0,1-84.15,67.6c30.349-4.139,57.939-16.554,84.15-31.729-17.934,33.108-51.042,52.421-86.909,60.7-21.331,5.052-44.49,8.961-67.339,9.59,63.848,23.632,137.562,45.06,187.071-1.362,1.208-15.11,2.777-41.865,2.439-57.436-.29-13.363-1.138-39.157-2.439-52.678A648.93,648.93,0,0,0,690.8,292.816c34.99,3.4,67.274,5.346,101.528,5.772A25.36,25.36,0,0,0,816.85,265.6Z" transform="translate(-178.955 28.232)" fill="#be9f46" opacity="0.3" style="mix-blend-mode: multiply;isolation: isolate"/>
                  <g id="Grupo_90486" data-name="Grupo 90486" transform="translate(341.047 100.079)">
                    <g id="Grupo_90481" data-name="Grupo 90481" transform="translate(4.815 106.091)">
                      <path id="Trazado_124800" data-name="Trazado 124800" d="M609.9,244.06a40.144,40.144,0,0,0,2.628-19.633,32.074,32.074,0,0,0-17.93-24.312c-9.473-4.356-20.619-5.59-29.315.206a36.221,36.221,0,0,0-33.839,15.129,37.569,37.569,0,0,0-2.487,37.487c5.366,10.548,15.368,17.712,23.635,26.157a53.93,53.93,0,0,0-18.863,20.853,55.135,55.135,0,0,0-3.023,41.744,67.462,67.462,0,0,0,31.238-38.737c4.391,17.56,15.67,32.589,31.925,43.278a55.141,55.141,0,0,0-2.276-41.792,53.959,53.959,0,0,0-17.862-20.771C589.008,273.331,603.472,260.977,609.9,244.06Z" transform="translate(-520.815 -191.798)" fill="#be9f46" opacity="0.3" style="mix-blend-mode: multiply;isolation: isolate"/>
                      <path id="Trazado_124801" data-name="Trazado 124801" d="M606.8,239.962a38.939,38.939,0,0,0,2.628-19.319,31.618,31.618,0,0,0-17.93-23.925c-9.474-4.286-20.621-5.5-29.316.2A35.685,35.685,0,0,0,525.855,248.7c5.365,10.378,15.368,17.427,23.634,25.737a52.641,52.641,0,0,0-21.886,61.6,66.6,66.6,0,0,0,31.239-38.117c4.391,17.278,15.669,32.068,31.925,42.587a52.619,52.619,0,0,0-20.139-61.562C585.906,268.763,600.37,256.608,606.8,239.962Z" transform="translate(-521.992 -193.064)" fill="#e82048"/>
                      <path id="Trazado_124802" data-name="Trazado 124802" d="M582.933,303.914c1.379,5.518-2.759,9.657-4.138,13.8,2.449-11.018,1.622-25.284-5.339-35.107a54.393,54.393,0,0,0-4.762-3.667c4.423-2.944,8.768-6.062,12.878-9.4q-4.732,2.2-9.675,4.028c11.036-13.8,26.211-24.831,27.59-42.765-5.518,6.9-11.036,15.175-19.313,19.313,17.634-9.92,20.29-32.163,14.317-50.558a29.926,29.926,0,0,0-4.928-2.838c-9.474-4.286-20.621-5.5-29.316.2a34.3,34.3,0,0,0-9.23.076,50.829,50.829,0,0,0-8.089,10.352c-6.9,11.036-9.657,26.211-4.139,40.006-2.759-8.277-11.036-15.175-9.656-24.831-4.183,13.594-1.219,29.556,7.063,41.3,3.762,3.554,7.728,6.961,11.36,10.613a54.4,54.4,0,0,0-6.844,5.181c-7.807,11.494-8.821,25.48-8.821,39.475,0-11.036,6.9-19.313,9.657-28.97,0,15.295-4.718,32.674-14.461,45.063a66.47,66.47,0,0,0,29.822-37.272c3.985,15.682,13.659,29.3,27.564,39.552C586.653,326.231,585.217,313.814,582.933,303.914Z" transform="translate(-520.059 -193.064)" fill="#e2c675" opacity="0.71" style="mix-blend-mode: multiply;isolation: isolate"/>
                    </g>
                    <g id="Grupo_90485" data-name="Grupo 90485">
                      <g id="Grupo_90482" data-name="Grupo 90482" transform="translate(3.749)">
                        <path id="Trazado_124803" data-name="Trazado 124803" d="M530.955,124.152a31.556,31.556,0,0,1,35.315-4.539,8.008,8.008,0,0,0-7.573,1.866,22.577,22.577,0,0,1,26.615,23.693c5.424,2.029,8.636,8.065,8.638,13.857s-2.671,11.29-6.11,15.951-7.658,8.685-11.371,13.132-6.99,9.492-8.026,15.191q-8.581-12.769-17.164-25.537c-3.29-4.894-6.648-9.863-11.215-13.592a21.737,21.737,0,0,0-13.338-5.232c-2.947-.018-3.174.272-4.122-2.709a29.829,29.829,0,0,1-1.307-6.921A31.6,31.6,0,0,1,530.955,124.152Z" transform="translate(-521.219 -116.159)" fill="#231f20"/>
                        <path id="Trazado_124804" data-name="Trazado 124804" d="M584.593,145.173a22.577,22.577,0,0,0-26.615-23.693,8.008,8.008,0,0,1,7.573-1.866,31.556,31.556,0,0,0-35.315,4.539,29.811,29.811,0,0,0-7.121,10.309c6.031-9.243,18.5-12.914,28.221-12.007,8.615,1.533,35.875,13.876,21.791,26.46,17.694-.386,15.453,13.431,14.895,24.782,2.991-4.374,5.215-9.394,5.21-14.666C593.228,153.237,590.017,147.2,584.593,145.173Z" transform="translate(-520.5 -116.159)" fill="#6c301e"/>
                      </g>
                      <g id="Grupo_90483" data-name="Grupo 90483" transform="translate(0 25.286)">
                        <path id="Trazado_124805" data-name="Trazado 124805" d="M529.77,209.807a22.892,22.892,0,0,0,5.264,0c1.1-.094,2.211-.25,3.31-.419.582-.085,1.17-.182,1.759-.279.5-.083,1-.171,1.5-.25,1.057-.178,2.078-.345,3.039-.486.6,4.239,1.028,8.758,1.346,13.39.655,9.321.846,19.09,1.033,27.9,0,0,6.423,13.443,11.6,12.014,8.625-2.382,21.555-19.851,25.8-27.307-6.165-16.706-10.991-32.661-13.8-48.268,4.283-.217,9.752-2.624,11.615-6.492s.713-9.128-2.947-11.363-9.346-.31-10.382,3.852c-1.724-5.929-2.8-8.5-3.729-14.631,0,0,1.1-10.144,2.852-13.784-9.65-4.725-26.756-10.054-36.409-9.088-2.374,3.054-7.593,13.149-8.25,16.96-2.524,14.61-4.035,19.183-4.8,33.988C517.789,200.461,525.271,209.2,529.77,209.807Z" transform="translate(-518.501 -134.489)" fill="#db9d67"/>
                        <path id="Trazado_124806" data-name="Trazado 124806" d="M528.159,192.535a27.75,27.75,0,0,0,3.21-.13c1.1-.1,2.208-.258,3.309-.419.582-.085,1.17-.182,1.759-.279.505-.083,1-.171,1.5-.25,1.057-.178,2.078-.345,3.039-.486.6,4.239,1.028,8.759,1.346,13.39,5.713-7.253,10.1-15.666,14.245-24.006A56.545,56.545,0,0,1,528.159,192.535Z" transform="translate(-514.836 -117.082)" fill="#bd7231"/>
                        <path id="Trazado_124807" data-name="Trazado 124807" d="M557.341,165.763a.469.469,0,0,1-.444-.48,4.532,4.532,0,0,1,2.745-4.092,4.275,4.275,0,0,1,4.77,1.1,4.389,4.389,0,0,1,1.186,2.693c.045.592-.879.549-.924-.037a3.417,3.417,0,0,0-6.811-.081,2.277,2.277,0,0,1,1.044,4.088c-.47.355-1.1-.32-.628-.68a1.436,1.436,0,0,0,.524-1.677A1.453,1.453,0,0,0,557.341,165.763Z" transform="translate(-503.93 -124.476)" fill="#bd7231"/>
                        <path id="Trazado_124808" data-name="Trazado 124808" d="M539.814,161.231q.3-1.966.589-3.93a2.066,2.066,0,0,1,.593-1.286,1.894,1.894,0,0,1,1.328-.488,1.862,1.862,0,0,1,1.286.595,1.8,1.8,0,0,1,.488,1.327q-.3,1.966-.589,3.932a2.05,2.05,0,0,1-.594,1.284,1.85,1.85,0,0,1-2.613-.1A1.8,1.8,0,0,1,539.814,161.231Z" transform="translate(-510.417 -126.506)" fill="#231f20"/>
                        <path id="Trazado_124809" data-name="Trazado 124809" d="M522.168,158.705q.3-1.964.589-3.93a2.059,2.059,0,0,1,.593-1.284,1.883,1.883,0,0,1,1.328-.488,1.855,1.855,0,0,1,1.284.593,1.8,1.8,0,0,1,.49,1.328q-.3,1.964-.589,3.93a2.059,2.059,0,0,1-.593,1.284,1.882,1.882,0,0,1-1.328.488,1.854,1.854,0,0,1-1.284-.593A1.8,1.8,0,0,1,522.168,158.705Z" transform="translate(-517.114 -127.465)" fill="#231f20"/>
                        <path id="Trazado_124810" data-name="Trazado 124810" d="M538.135,149.069a10.236,10.236,0,0,1,12.926,3.765c.321.5-.5.922-.821.424a9.289,9.289,0,0,0-11.68-3.366C538.022,150.141,537.594,149.322,538.135,149.069Z" transform="translate(-511.145 -129.317)" fill="#231f20"/>
                        <path id="Trazado_124811" data-name="Trazado 124811" d="M522.511,146.869a6.72,6.72,0,0,1,8.641,1.195c.383.452-.294,1.082-.68.626a5.808,5.808,0,0,0-7.538-1,.464.464,0,0,1-.622-.2A.473.473,0,0,1,522.511,146.869Z" transform="translate(-517.075 -130.194)" fill="#231f20"/>
                      </g>
                      <path id="Trazado_124812" data-name="Trazado 124812" d="M542.751,172.915a44.787,44.787,0,0,1-17.616,5.151c.9,2.475,2.718,4.9,5.339,5.166a9.288,9.288,0,0,0,7.274-2.987A27.381,27.381,0,0,0,542.751,172.915Z" transform="translate(-515.984 -94.62)" fill="#212121"/>
                      <g id="Grupo_90484" data-name="Grupo 90484" transform="translate(4.815 57.876)">
                        <path id="Trazado_124813" data-name="Trazado 124813" d="M529.025,178.121a.5.5,0,0,1-.218.015,8.57,8.57,0,0,1-5.623-2.773c-1.339-1.651-1.762-4.43-.15-6.216a7.311,7.311,0,0,1,3.2-1.785,14.055,14.055,0,0,0,1.553-.615c2.958-1.45,4.435-4.89,5.693-8.288a.523.523,0,0,1,.677-.312.529.529,0,0,1,.312.677c-1.334,3.6-2.909,7.247-6.22,8.87a15.1,15.1,0,0,1-1.665.662,6.448,6.448,0,0,0-2.77,1.5c-1.217,1.351-.851,3.567.185,4.848a7.566,7.566,0,0,0,4.941,2.392.528.528,0,0,1,.081,1.029Z" transform="translate(-521.992 -158.114)" fill="#bd7231"/>
                      </g>
                    </g>
                  </g>
                </g>
              </g>
              <g id="Grupo_90510" data-name="Grupo 90510" transform="translate(-20.986 100.491)">
                <g id="Grupo_90490" data-name="Grupo 90490" transform="translate(303.893 222.555)">
                  <g id="Grupo_90489" data-name="Grupo 90489">
                    <path id="Trazado_124814" data-name="Trazado 124814" d="M298.983,235.755l-93.9,48.618,18.163,41.962,77.818-66.519c5.372,3.721,11.907,6.733,17.59,5.519l18.839-4.517L346.65,243.5,308.7,234.552A14.1,14.1,0,0,0,298.983,235.755Z" transform="translate(-205.078 -234.175)" fill="#bc691f"/>
                  </g>
                  <path id="Trazado_124815" data-name="Trazado 124815" d="M279.821,256.593A79.84,79.84,0,0,1,305.688,274.7a2.59,2.59,0,0,0,4.45-2.177,16.019,16.019,0,0,0-1.018-3.6,26.371,26.371,0,0,0-25.736-15.9" transform="translate(-176.712 -227.05)" fill="#bc691f"/>
                  <path id="Trazado_124816" data-name="Trazado 124816" d="M324.438,264.516c-3.318-7.066-7.507-14.381-15.7-16.257-4.5-1.029-9.319.07-13.788.724l-3.527.516,4.733,7.144c3.172-.545,6.486-1.221,9.633-.957,6.153.515,9.067,6.731,11.392,11.682a3.9,3.9,0,1,0,7.255-2.851Z" transform="translate(-172.309 -228.99)" fill="#bc691f"/>
                  <path id="Trazado_124817" data-name="Trazado 124817" d="M332.212,260.311c-3.318-7.066-7.507-14.381-15.7-16.258-4.494-1.029-9.319.07-13.788.724l-3.527.516,4.733,7.144c3.171-.545,6.486-1.219,9.633-.957,6.153.515,9.068,6.731,11.392,11.682a3.9,3.9,0,0,0,7.255-2.851Z" transform="translate(-169.358 -230.586)" fill="#bc691f"/>
                  <path id="Trazado_124818" data-name="Trazado 124818" d="M330.5,256.346c-3.316-7.066-7.506-14.381-15.7-16.256-4.494-1.03-9.319.069-13.788.723l-3.526.516,4.732,7.146c3.173-.546,6.488-1.221,9.634-.957,6.153.513,9.068,6.731,11.392,11.682a3.9,3.9,0,0,0,7.253-2.853Z" transform="translate(-170.006 -232.09)" fill="#bc691f"/>
                </g>
                <g id="Grupo_90509" data-name="Grupo 90509">
                  <g id="Grupo_90492" data-name="Grupo 90492" transform="translate(12.294 410.389)">
                    <g id="Grupo_90491" data-name="Grupo 90491">
                      <path id="Trazado_124819" data-name="Trazado 124819" d="M175.326,572.736c100.7,20.693,200.029,66.216,296.594,12.416,33.108-19.313,57.939-48.283,66.216-85.53a110.034,110.034,0,0,0,.309-25.976,245.753,245.753,0,0,0-16.393-45.124c-6.9-14.435-23.493-52.683-40.191-57.487-22.013-6.331-19.079,32-23.2,44.009a105.537,105.537,0,0,1-40.277,52.474c-34.9,23.579-79.658,27.546-121.578,23.432s-82.859-15.493-124.76-19.794-86.63-.75-121.846,22.358A127.014,127.014,0,0,0-2.9,569.691a132.016,132.016,0,0,0,5.686,77.723c.036-.061.069-.123.106-.183C40.135,589.291,104.972,558.941,175.326,572.736Z" transform="translate(6.301 -370.335)" fill="#fbcc34"/>
                      <path id="Trazado_124820" data-name="Trazado 124820" d="M541.15,471.684a238.3,238.3,0,0,0-5.2-26.459,110.038,110.038,0,0,1-.309,25.976c-8.277,37.247-33.108,66.216-66.216,85.53-96.566,53.8-195.89,8.277-296.594-12.416C102.473,530.52,37.636,560.869.389,618.809c-.037.061-.07.123-.106.183a129.953,129.953,0,0,0,6.648,14.5C45.909,601.372,98.812,590.725,149.3,592.1s99.951,13.554,149.714,22.18,101.464,13.641,150.326.862c27.917-7.3,55.231-21.12,72.47-44.262C542.455,543.16,545.865,505.923,541.15,471.684Z" transform="translate(8.8 -341.914)" fill="#3b53db"/>
                    </g>
                    <path id="Trazado_124821" data-name="Trazado 124821" d="M473.3,592.05c-15.175-6.9-20.693-27.59-8.277-40.006,35.049-33.751,50.551-78.5,56.856-123.89-7-14.7-23.454-52.354-40.017-57.119-22.013-6.331-19.079,32-23.2,44.009a105.537,105.537,0,0,1-40.277,52.474c-34.9,23.579-79.658,27.546-121.578,23.432s-82.859-15.493-124.76-19.794-86.63-.75-121.846,22.358A127.014,127.014,0,0,0-2.9,569.691a132.016,132.016,0,0,0,5.686,77.723,129.953,129.953,0,0,0,6.648,14.5c38.978-32.118,91.881-42.765,142.367-41.392s99.951,13.554,149.714,22.18,101.464,13.641,150.326.862c27.917-7.3,55.231-21.12,72.47-44.262,1.1-1.477,2.141-2.985,3.144-4.515-4.614,1.6-9.321,3.01-14.144,4.163C499.511,603.086,485.716,597.568,473.3,592.05Z" transform="translate(6.301 -370.335)" fill="#be9f46" opacity="0.71" style="mix-blend-mode: multiply;isolation: isolate"/>
                  </g>
                  <path id="Trazado_124822" data-name="Trazado 124822" d="M460.929,553.4c-21.976,15.382-50.794,17.63-77.321,13.7s-51.9-13.423-77.984-19.658C215.9,525.965,117.293,545,42.013,598.348c-21.548,15.257-52.5,38.723-49.662,64.975a173.42,173.42,0,0,1,110.126-215.41c.207-.083.428-.152.635-.221a18.018,18.018,0,0,1-2.842-2.138c-6.635-5.973-8.829-16.333-6.773-25.217,2.331-10.07,9.008-18.554,16.154-26,27.8-29.011,63.347-42.02,99.738-56.753-.676-15.809-10.912-32.446-21.065-44.572s-21.369-24.183-25.88-39.344A50.538,50.538,0,0,1,225.2,190.786c14.03,4.152,32.819,5.242,47.1,8.374,26.611,5.822,33.177,48.007,27.99,74.742,15.313,41.206,30.2,80.577,45.51,121.783,9.284-6.208,20.362,2.318,27.783,10.664s17.561,18.044,28,14.126c15.119-5.656,9.684-30.956,22.21-41.137,6.3-5.132,15.809-4.746,23.038-1.021s12.65,10.181,17.478,16.733c17.52,23.7,30.487,51.7,31.66,81.157S485.084,536.5,460.929,553.4Z" transform="translate(15.213 -28.832)" fill="#fafafa"/>
                  <path id="Trazado_124823" data-name="Trazado 124823" d="M324.764,415.305c-6.113-6.278-11.722-14.125-18.723-18.963-6.555,1.3-12.289,5.1-13.7,12.144-13.035-29.33-26.044-59.522-34.359-91.238-23.1-18.539-40.315-44.919-54.486-70.322,8.009-15.038,7.408-34.2,2.068-50.708-10.193-1.446-20.77-2.847-29.509-5.43a51.614,51.614,0,0,0-50.09,12.766A50.067,50.067,0,0,0,114.292,222.4c3.083,30.614,21.209,60.952,42.859,86.766,7.216,8.419,9.189,21.031,11.406,33.267-6.765,2.929-13.178,6.558-20.254,8.861,6.554,43.369,42.417,82.609,87.48,86.167-6.9-12.416-9.657-26.211-17.934-38.626C246.162,424.966,289.934,430.436,324.764,415.305Z" transform="translate(64.361 -28.833)" fill="#be9f46" opacity="0.3" style="mix-blend-mode: multiply;isolation: isolate"/>
                  <g id="Grupo_90496" data-name="Grupo 90496" transform="translate(7.496 339.367)">
                    <g id="Grupo_90493" data-name="Grupo 90493" transform="translate(236.985)">
                      <path id="Trazado_124824" data-name="Trazado 124824" d="M438.4,363.049a79.036,79.036,0,0,0-33.15-36.154c2.232,53.052-19.724,104.856-66.765,136.61-45.292,31.411-96.773,42.7-148.093,40.44a303.391,303.391,0,0,0,144.338,2.966c33.575-7.586,67.171-21.969,88.868-48.691C444.884,432,452.063,393.939,438.4,363.049Z" transform="translate(-151.241 -315.798)" fill="#e82048"/>
                      <path id="Trazado_124825" data-name="Trazado 124825" d="M349.249,466.558c47.041-31.754,69-83.558,66.765-136.61a78.545,78.545,0,0,0-14.448-6.427c-6.9-2.254-25.268-7.511-31.929-2.713-7.323,5.274-8.462,29.509-10.455,38.4-5.337,23.806-10.842,48.044-23.147,69.112-16.63,28.473-45,49.151-76.266,59.615s-65.258,11.215-97.76,5.66A296.6,296.6,0,0,0,201.156,507C252.477,509.262,303.957,497.969,349.249,466.558Z" transform="translate(-162.01 -318.851)" fill="#fbcc34"/>
                    </g>
                    <path id="Trazado_124826" data-name="Trazado 124826" d="M437.536,366.1a80.08,80.08,0,0,0-47.6-42.581c-6.9-2.254-25.268-7.511-31.929-2.713a11.844,11.844,0,0,0-3.423,4.561c1.331,3.354,2.588,6.725,3.726,10.137,17.934,48.283,13.8,111.74-33.108,142.089,8.277-13.8,16.554-28.97,13.8-45.524-16.554,38.626-53.8,64.837-95.186,71.734a231.934,231.934,0,0,1-51.163,3.977,303.328,303.328,0,0,0,141.215,2.182c33.574-7.586,67.171-21.969,88.868-48.691C444.025,435.048,451.2,396.992,437.536,366.1Z" transform="translate(86.603 -318.851)" fill="#be9f46" opacity="0.71" style="mix-blend-mode: multiply;isolation: isolate"/>
                    <g id="Grupo_90495" data-name="Grupo 90495" transform="translate(0 53.212)">
                      <g id="Grupo_90494" data-name="Grupo 90494">
                        <path id="Trazado_124827" data-name="Trazado 124827" d="M353.815,494.663c-52.421-13.8-97.945-37.247-150.366-41.385-67.6-6.9-133.812,13.8-182.1,63.457C7.908,531.862-2.455,551.087-6.326,571.287a139.339,139.339,0,0,0,4.863,15.034c12.847-42.363,49.135-70.529,91.81-82.3s87.995-8.113,131.838-1.988,87.788,14.646,131.994,12.318a229.782,229.782,0,0,0,64.572-12.594A242.433,242.433,0,0,1,353.815,494.663Z" transform="translate(11.09 -321.536)" fill="#e82048"/>
                        <path id="Trazado_124828" data-name="Trazado 124828" d="M488.188,494.2c33.523-36.047,50.94-92.789,28.832-136.771C522.3,399,493.252,439.59,455.463,457.712s-82.1,17.367-123.2,9.174-80.5-23.316-121.269-33.05-84.42-13.856-124.012-.109a144.148,144.148,0,0,0-92,173.448c3.871-20.2,14.234-39.425,27.68-54.551,48.283-49.662,114.5-70.355,182.1-63.457,52.421,4.139,97.945,27.59,150.366,41.385a242.43,242.43,0,0,0,64.936,7.095C445.874,528.469,469.576,514.211,488.188,494.2Z" transform="translate(9.779 -357.424)" fill="#3b53db"/>
                      </g>
                      <path id="Trazado_124829" data-name="Trazado 124829" d="M508.209,423.232c-37.247,48.283-99.325,60.7-157.264,67.6-56.56,5.518-111.74-16.554-165.541-30.349,27.59,0,56.56-1.38,84.15,1.379-78.632-20.693-172.439-23.452-234.517,35.867C17.242,514.631-2.828,539-9.668,564.534a145.383,145.383,0,0,0,4.61,30.508A139.348,139.348,0,0,0-.195,610.075c12.847-42.363,49.135-70.529,91.81-82.3s87.995-8.113,131.838-1.988,87.788,14.646,131.994,12.318a229.786,229.786,0,0,0,64.572-12.594c25.812-9.177,49.513-23.435,68.126-43.45,23.013-24.744,38.432-59.242,38.69-92.668A136.924,136.924,0,0,1,508.209,423.232Z" transform="translate(9.821 -345.291)" fill="#be9f46" opacity="0.71" style="mix-blend-mode: multiply;isolation: isolate"/>
                    </g>
                  </g>
                  <g id="Grupo_90502" data-name="Grupo 90502" transform="translate(161.364)">
                    <path id="Trazado_124830" data-name="Trazado 124830" d="M120.563,133.8c-4.385-2.828-8.564-6.766-9.434-11.911a11.626,11.626,0,0,1,15.728-12.756c-5.212-7.122-7.542-16.827-4.179-24.987S135.993,70.553,144.2,73.8c8.165,3.229,11.582,12.716,14.068,21.138,1.391-4.813,2.874-9.757,6.02-13.656s8.4-6.531,13.212-5.125c4.308,1.259,7.244,5.453,8.287,9.819s.53,8.932.01,13.391c2.119-3.733,7.769-4.394,11.261-1.9s4.846,7.248,4.191,11.49-3.011,8.036-5.726,11.36a53.632,53.632,0,0,1-36.333,19.015c-5.641.517-11.655,1.782-17.3,1.835C134.521,141.238,126.637,137.718,120.563,133.8Z" transform="translate(-98.261 -72.845)" fill="#e82048"/>
                    <path id="Trazado_124831" data-name="Trazado 124831" d="M127.007,130.625c-3.166-2.042-6.184-4.886-6.813-8.6a8.4,8.4,0,0,1,11.359-9.211c-3.765-5.143-5.446-12.151-3.018-18.044s9.615-9.815,15.543-7.47c5.9,2.331,8.364,9.182,10.159,15.263,1-3.475,2.073-7.045,4.345-9.861s6.07-4.717,9.542-3.7c3.111.91,5.23,3.938,5.983,7.091s.382,6.452.007,9.67c1.53-2.7,5.61-3.173,8.132-1.37s3.5,5.234,3.027,8.3a17.6,17.6,0,0,1-4.136,8.2A38.73,38.73,0,0,1,154.9,134.623c-4.072.372-8.416,1.286-12.49,1.324C137.087,136,131.394,133.454,127.007,130.625Z" transform="translate(-94.805 -67.622)" fill="#9e8439" opacity="0.71" style="mix-blend-mode: multiply;isolation: isolate"/>
                    <g id="Grupo_90501" data-name="Grupo 90501" transform="translate(0 32.467)">
                      <circle id="Elipse_4819" data-name="Elipse 4819" cx="27.632" cy="27.632" r="27.632" transform="translate(0 66.731) rotate(-81.841)" fill="#282b38"/>
                      <path id="Trazado_124832" data-name="Trazado 124832" d="M129.479,155.264A43.486,43.486,0,1,0,154.767,99.2,43.485,43.485,0,0,0,129.479,155.264Z" transform="translate(-92.311 -96.381)" fill="#282b38"/>
                      <g id="Grupo_90500" data-name="Grupo 90500" transform="translate(61.739 17.018)">
                        <g id="Grupo_90498" data-name="Grupo 90498">
                          <g id="Grupo_90497" data-name="Grupo 90497">
                            <path id="Trazado_124833" data-name="Trazado 124833" d="M203.47,180.486a22.3,22.3,0,0,1-5.045.884c-1.07.092-2.16.13-3.24.15-.573.015-1.153.021-1.733.025-.5.007-.988,0-1.477.011-1.042.007-2.049.017-2.992.044.134,4.162.476,8.565.944,13.056.928,9.044,2.377,18.437,3.669,26.917,26.331,29.087-12.341,34.118-30.624-2.886,1.275-17.506-.163-44.777-2.6-54.093-4.143.508-9.785-.887-12.217-4.283s-2.207-8.63.927-11.381,8.906-1.86,10.593,1.958c.662-5.972,1.268-8.618,1.131-14.646,0,0-2.752-9.538-5.035-12.736,8.461-6.137,23.965-14.1,33.379-14.788,2.785,2.53,9.473,11.334,10.738,14.877,4.859,13.581,6.2,17.94,10.279,31.773C212.236,162.37,207.68,179.153,203.47,180.486Z" transform="translate(-146.513 -108.717)" fill="#bc691f"/>
                            <path id="Trazado_124834" data-name="Trazado 124834" d="M194.439,162.991a27.262,27.262,0,0,1-3.1.412c-1.069.084-2.16.121-3.24.15-.572.015-1.153.021-1.733.025-.5.007-.988,0-1.477.011-1.042.007-2.049.017-2.992.044.134,4.162.476,8.565.944,13.056-6.685-6-12.293-13.327-17.66-20.629A55.013,55.013,0,0,0,194.439,162.991Z" transform="translate(-139.428 -90.75)" fill="#a24d00"/>
                            <path id="Trazado_124835" data-name="Trazado 124835" d="M156.622,143.327a.453.453,0,0,0,.343-.534,4.411,4.411,0,0,0-3.314-3.464,4.161,4.161,0,0,0-4.388,1.855,4.273,4.273,0,0,0-.686,2.778c.055.575.933.379.879-.19a3.325,3.325,0,0,1,6.514-1.215,2.215,2.215,0,0,0-.319,4.092c.51.262,1-.491.487-.756a1.337,1.337,0,0,1,.483-2.566Z" transform="translate(-145.737 -97.137)" fill="#872c11"/>
                            <path id="Trazado_124836" data-name="Trazado 124836" d="M172.613,138.521l-1.221-3.67a2,2,0,0,0-.784-1.131,1.829,1.829,0,0,0-1.355-.247,1.81,1.81,0,0,0-1.131.784,1.742,1.742,0,0,0-.247,1.355l1.221,3.668a1.347,1.347,0,0,0,.284.626,1.363,1.363,0,0,0,.5.506,1.8,1.8,0,0,0,2.486-.537A1.749,1.749,0,0,0,172.613,138.521Z" transform="translate(-138.427 -99.338)" fill="#231f20"/>
                            <path id="Trazado_124837" data-name="Trazado 124837" d="M189.1,133.154l-1.221-3.669a1.985,1.985,0,0,0-.784-1.131,1.8,1.8,0,0,0-2.486.537,1.754,1.754,0,0,0-.247,1.355l1.221,3.668a2.012,2.012,0,0,0,.784,1.133,1.8,1.8,0,0,0,2.487-.537A1.748,1.748,0,0,0,189.1,133.154Z" transform="translate(-132.169 -101.375)" fill="#231f20"/>
                            <path id="Trazado_124838" data-name="Trazado 124838" d="M174.4,126.521a9.958,9.958,0,0,0-11.76,5.766c-.223.532.636.8.858.269a9.039,9.039,0,0,1,10.633-5.177C174.688,127.53,174.961,126.672,174.4,126.521Z" transform="translate(-140.407 -102.09)" fill="#231f20"/>
                            <path id="Trazado_124839" data-name="Trazado 124839" d="M188,121.824a6.537,6.537,0,0,0-8.083,2.588c-.291.5.462.988.756.487a5.651,5.651,0,0,1,7.058-2.217.453.453,0,0,0,.564-.294A.461.461,0,0,0,188,121.824Z" transform="translate(-133.862 -103.94)" fill="#231f20"/>
                          </g>
                        </g>
                        <path id="Trazado_124840" data-name="Trazado 124840" d="M190.117,149.774a18.377,18.377,0,0,0,.3-2.836L170.58,146.7a8.1,8.1,0,0,0,.137,1.131A43.408,43.408,0,0,0,190.117,149.774Z" transform="translate(-137.38 -94.304)" fill="#fafafa"/>
                        <path id="Trazado_124841" data-name="Trazado 124841" d="M170.679,147.515c1.257,7.449,12.338,7.807,18.8,6.513a31.737,31.737,0,0,1,.6-4.565A43.408,43.408,0,0,1,170.679,147.515Z" transform="translate(-137.342 -93.993)" fill="#231f20"/>
                        <g id="Grupo_90499" data-name="Grupo 90499" transform="translate(49.096 34.441)">
                          <path id="Trazado_124842" data-name="Trazado 124842" d="M186.24,149.674a.4.4,0,0,0,.221-.039,10.535,10.535,0,0,0,5.766-8.87.392.392,0,0,0-.326-.4,13.024,13.024,0,0,1-9.062-6.473.392.392,0,1,0-.688.375,13.839,13.839,0,0,0,9.27,6.808,9.884,9.884,0,0,1-5.311,7.859.394.394,0,0,0,.13.744Z" transform="translate(-182.103 -133.683)" fill="#872c11"/>
                        </g>
                      </g>
                      <path id="Trazado_124843" data-name="Trazado 124843" d="M162.274,175.949c1.88-5.464,9.4-11.453,4.1-17.176-1.826-1.971-4.239-3.443-5.6-5.819-1.375-2.391-.95-4.919.338-7.24,1.519-2.736,3.184-4.875,1.989-8.147s-3.991-5.58-6.28-8.087c-2.264-2.48-4.15-5.355-4.105-8.826a7.176,7.176,0,0,1,4.115-6.76c1.567-.659,2.667,1.746,1.093,2.41-2.385,1-2.916,3.868-2.376,6.18.693,2.962,3.227,5.239,5.255,7.346,3.614,3.752,7.089,8.785,4.427,14.067-1.01,2-3.177,4.188-2.622,6.609.537,2.342,3.04,3.933,4.688,5.474,1.73,1.617,3.271,3.5,3.59,5.924.364,2.778-.716,5.479-2.067,7.847-1.556,2.727-3.9,5.285-4.414,8.484-.368,2.308,1.04,5.893,3.886,5.495,1.686-.236,2.135,2.37.446,2.607a5.853,5.853,0,0,1-5.838-2.988A8.467,8.467,0,0,1,162.274,175.949Z" transform="translate(-82.423 -89.777)" fill="#282b38"/>
                      <path id="Trazado_124844" data-name="Trazado 124844" d="M174.38,103.623A22.061,22.061,0,0,1,199.846,120.7c.629,2.992.315,5.915.276,8.938s.721,5.641,3.458,7.2c3.929,2.244,8.935,2.309,12.091,5.9,4.889,5.566,1.24,13.158-1.847,18.552-.846,1.476-3-.062-2.159-1.528,2.544-4.443,6.3-11.636,1.373-15.931-3.093-2.7-7.691-2.84-11.151-4.937-4.635-2.806-4.456-7.819-4.263-12.625a19.156,19.156,0,0,0-22.8-20.043A1.323,1.323,0,0,1,174.38,103.623Z" transform="translate(-74.6 -93.766)" fill="#282b38"/>
                    </g>
                  </g>
                  <path id="Trazado_124845" data-name="Trazado 124845" d="M237.642,426.357q-21.293-11.588-43.524-21.369-19.679-8.629-39.978-15.768c-13.547-4.773-27.342-9.077-41.537-11.436-13.7-2.29-28.183-2.607-41.9.166.207-.083.428-.152.635-.221a18.018,18.018,0,0,1-2.842-2.138c2.414-.552,4.842-.993,7.284-1.352,28.418-4.1,56.656,4.221,83.157,13.754A577.557,577.557,0,0,1,239.1,424.012C240.663,424.868,239.187,427.2,237.642,426.357Z" transform="translate(46.983 41.13)" fill="#be9f46" opacity="0.4" style="mix-blend-mode: multiply;isolation: isolate"/>
                  <path id="Trazado_124846" data-name="Trazado 124846" d="M326.1,328.376c-4.6,21.345-9.764,43-20.133,62.4-9.615,17.986-24.1,33.474-43.11,41.541a59.883,59.883,0,0,1-32.356,4.4c-1.755-.266-1.851,2.493-.112,2.756,20.207,3.065,40.251-5.293,55.375-18.376,16.578-14.343,26.711-34.314,33.438-54.866a367.219,367.219,0,0,0,9.535-37.044C329.109,327.462,326.474,326.635,326.1,328.376Z" transform="translate(107.944 23.765)" fill="#be9f46" opacity="0.4" style="mix-blend-mode: multiply;isolation: isolate"/>
                  <g id="Grupo_90508" data-name="Grupo 90508" transform="translate(160.373 134.76)">
                    <g id="Grupo_90507" data-name="Grupo 90507">
                      <g id="Grupo_90506" data-name="Grupo 90506" transform="translate(105.643 153.113)">
                        <g id="Grupo_90503" data-name="Grupo 90503">
                          <path id="Trazado_124847" data-name="Trazado 124847" d="M214.386,329.345l104.32,22.983,8.307-15.473-95.258-50.989c-6.424-2.92-20.956-5.122-33.918-4.079-7.477.6-14.849,1.573-18.438,8.158h0c-4.523,8.3.188,16.594,7.307,22.809C195.86,320.742,209.081,327.807,214.386,329.345Z" transform="translate(-177.621 -281.523)" fill="#bc691f"/>
                        </g>
                        <g id="Grupo_90505" data-name="Grupo 90505" transform="translate(139.21 40.957)">
                          <g id="Grupo_90504" data-name="Grupo 90504">
                            <path id="Trazado_124848" data-name="Trazado 124848" d="M278.533,320.858c9.749-1.526,43.788-9.378,43.788-9.378l-6.3,21.243s-18.357,18.439-35.615,8.236Z" transform="translate(-278.533 -311.112)" fill="#bc691f"/>
                            <path id="Trazado_124849" data-name="Trazado 124849" d="M314.982,336.514c-1.224-4.54-2.927-9.3-7.241-11.764a36.9,36.9,0,0,0-7.816-2.811l2.216,6.355c.764.259,1.542.49,2.272.814,3.584,1.582,4.606,5.915,5.569,9.486.384,1.422,2.326,1.966,3.54,1.461A2.8,2.8,0,0,0,314.982,336.514Z" transform="translate(-270.415 -307.143)" fill="#bc691f"/>
                            <path id="Trazado_124850" data-name="Trazado 124850" d="M323.535,333.767c-2.534-6.291-5.812-12.839-12.825-14.864-3.849-1.111-8.087-.392-11.995-.041l-3.085.276,3.758,6.427a33.934,33.934,0,0,1,8.4-.361c5.311.744,7.538,6.278,9.314,10.684a3.385,3.385,0,1,0,6.43-2.12Z" transform="translate(-272.045 -308.52)" fill="#bc691f"/>
                            <path id="Trazado_124851" data-name="Trazado 124851" d="M330.32,328.644c-3.253-5.95-7.276-12.069-14.478-13.26-3.952-.653-8.077.557-11.918,1.363l-11.512,2.413,4.506,5.97,6.915-1.45c3.173-.665,6.583-1.77,9.847-1.7,5.362.117,8.222,5.353,10.5,9.521a3.386,3.386,0,1,0,6.139-2.86Z" transform="translate(-273.266 -309.701)" fill="#bc691f"/>
                            <path id="Trazado_124852" data-name="Trazado 124852" d="M297.337,316.819l2.228,6.391,6.088-2.162c3.056-1.084,6.286-2.636,9.531-3,5.329-.6,8.865,4.2,11.682,8.029a3.386,3.386,0,1,0,5.7-3.657c-4.021-5.46-8.827-10.985-16.125-11.2-4-.117-7.928,1.635-11.626,2.947Z" transform="translate(-271.397 -311.213)" fill="#bc691f"/>
                          </g>
                        </g>
                      </g>
                      <path id="Trazado_124853" data-name="Trazado 124853" d="M262.3,332.09a8.1,8.1,0,1,1-3.932,15.713,12.958,12.958,0,0,1-14.775,19.63,12.993,12.993,0,0,1-19.755,15.023c3.173,9.477-4.028,20.969-13.961,22.238-7.808-20.734-17.451-38.557-25.259-59.277-12.429-32.97-26.569-67.32-55.58-77.86C96.667,255.79,97.936,226.779,105.5,207.948s24.914-33.881,44.986-36.874c20.431-3.063,42.227,7.091,53.042,24.693s10.029,41.634-1.931,58.491c0,.014.014.014.014.028l1.49,2.359c9.257,14.692,17.8,30.018,27.121,44.641,16.154,7.9,32.487,14,48.642,21.893C275.7,329.193,269.064,331.442,262.3,332.09Z" transform="translate(-101.041 -170.532)" fill="#fafafa"/>
                    </g>
                    <path id="Trazado_124854" data-name="Trazado 124854" d="M197.265,236.06c-.648.441-1.311.869-1.986,1.255-6.153,3.573-13.354,5.3-20.32,6.415a80.077,80.077,0,0,1-22.748.524c-13.3-1.724-26.087-7.408-35.426-17.175-1.228-1.283.8-3.159,2.028-1.876a52.258,52.258,0,0,0,17.147,11.836c12.581,5.408,26.638,6.111,40.02,3.725,6.553-1.173,14.03-3.187,19.8-7.063Z" transform="translate(-95.21 -149.947)" fill="#be9f46" opacity="0.4" style="mix-blend-mode: multiply;isolation: isolate"/>
                  </g>
                </g>
              </g>
            </g>
          </g>
          <g id="Grupo_90518" data-name="Grupo 90518">
            <g id="Grupo_90517" data-name="Grupo 90517" clip-path="url(#clip-path-2)">
              <g id="Grupo_90514" data-name="Grupo 90514" transform="translate(544.642 465.043)">
                <g id="Grupo_90513" data-name="Grupo 90513">
                  <path id="Trazado_124855" data-name="Trazado 124855" d="M395.812,616.766c26.517-60.578,97.837-89.739,164.076-73.271,34.828,8.345,71.563-12.251,93.7-37.819,39.039-44.577,59.891-124.548,132.371-115.761,27.6,4.318,50.221,23.234,70.435,40.807,63.227,60.934,151.7,111.344,233.133,74.783q1.031-.066,2.068-.148c-64.146,38.858-154.713,29.6-208.514-23.183-23.987-23.534-43.791-55.88-76.688-62.739-35.371-7.373-68.984,18.908-90.886,47.643s-39.227,62.656-69.7,82.064c-25.271,16.092-56.324,19.935-86.261,21.1s-60.381.109-89.307,7.917-56.942,26.513-66.625,54.866A36.472,36.472,0,0,1,395.812,616.766Z" transform="translate(-394.428 -317.321)" fill="#e82048"/>
                  <path id="Trazado_124856" data-name="Trazado 124856" d="M870.78,416.626c-42.838-36.491-102.715-50.891-146.972-13.957-34.066,29.977-47.245,76.324-81.311,106.3-16.765,15.926-38.748,24.21-62.867,24.988-63.783,3.952-128.36-2.011-173.166,47.25q-3.8,3.96-7.161,8.24c6.146-17.747,16.219-34.151,27.28-43.126,25.663-20.821,60.4-25.844,93.344-28.414s67.225-3.783,96.555-19.008c34.224-17.765,56.368-51.729,78.556-83.266s48.385-63.775,85.376-74.658c40.146-11.811,83.8,4.882,117.13,30.184s59.5,58.716,90.134,87.225,71.54,58.988,113.383,59.592c-1.684,1.229-3.4,2.411-5.126,3.565q-3.857,2.009-7.736,3.748-2.463.157-4.893.225C996.885,524.755,933.832,470.69,870.78,416.626Z" transform="translate(-393.103 -337.108)" fill="#fbcc34"/>
                  <path id="Trazado_124857" data-name="Trazado 124857" d="M408.171,569.1c44.805-49.261,109.383-43.3,173.166-47.25,24.119-.778,46.1-9.062,62.867-24.988,34.066-29.978,47.245-76.325,81.311-106.3,44.256-36.935,104.134-22.534,146.972,13.956,63.052,54.064,126.1,108.129,212.527,108.89q2.427-.064,4.893-.225C1008.473,549.747,920,499.337,856.773,438.4c-20.214-17.574-42.838-36.489-70.435-40.807-72.479-8.786-93.332,71.184-132.371,115.761-22.136,25.568-58.87,46.164-93.7,37.819-66.238-16.467-137.559,12.693-164.076,73.271-3.107-13.786-.76-31,4.817-47.1Q404.375,573.077,408.171,569.1Z" transform="translate(-394.809 -325.002)" fill="#3b53db"/>
                </g>
                <path id="Trazado_124858" data-name="Trazado 124858" d="M396.193,628.973c-3.107-13.785-.76-31,4.817-47.1,6.146-17.747,16.219-34.151,27.28-43.126,25.663-20.821,60.4-25.844,93.344-28.414,12.468-.973,25.128-1.753,37.637-3.172,24.319,9.6,49.8,12.289,75.947,1.861-24.271,18.063-52.417,26.073-82.166,28.452,27.323,10.48,58.139,11.853,82.274-3.129,51.3-33.623,87.9-90.712,80.928-152.179a214.31,214.31,0,0,1,20.69-22.038c1.246-.279,2.5-.549,3.75-.8,75.454-16.4,119.59,60.289,147.264,118.336-3.738-13.136-10.024-24.532-8.8-38.063,27.156,41.969,64.9,81.937,118.492,84.942,30.253,1.741,58.443-6.662,86.582-16.3a95.989,95.989,0,0,0,18.542,2.153c-1.684,1.229-3.4,2.411-5.126,3.565q-3.857,2.009-7.736,3.748,1.031-.066,2.068-.148c-64.146,38.858-154.713,29.6-208.514-23.183-23.987-23.534-43.791-55.88-76.688-62.739-35.371-7.373-68.984,18.908-90.886,47.643s-39.226,62.656-69.7,82.064c-25.271,16.092-56.324,19.935-86.261,21.1s-60.381.109-89.307,7.917-56.942,26.513-66.625,54.866A36.472,36.472,0,0,1,396.193,628.973Z" transform="translate(-394.809 -329.528)" fill="#e2c675" opacity="0.71" style="mix-blend-mode: multiply;isolation: isolate"/>
              </g>
              <g id="Grupo_90516" data-name="Grupo 90516" transform="translate(-96.194 -83.734)">
                <g id="Grupo_90515" data-name="Grupo 90515">
                  <path id="Trazado_124859" data-name="Trazado 124859" d="M-50.9,430.017c-10.836-65.233,33.017-128.588,97.512-150.933,33.739-12.013,53.284-49.319,57.88-82.823C112.883,137.6,86.719,59.21,152.25,27.022c25.482-11.443,54.764-7.936,81.293-4.241,86.233,16.56,187.881,10.524,236.169-64.551q.828-.619,1.653-1.253C438.817,24.544,357.87,66.209,283.982,51.335c-32.943-6.631-67.189-22.93-98.5-10.726C151.82,53.732,137.993,94.1,135.319,130.129s1.32,73.91-13.628,106.8c-12.395,27.276-36.32,47.441-60.773,64.751S10.379,334.725-9.6,357.052s-33.249,53.289-25.892,82.332A36.462,36.462,0,0,1-50.9,430.017Z" transform="translate(76.254 67.406)" fill="#e82048"/>
                  <path id="Trazado_124860" data-name="Trazado 124860" d="M234.743-7.478c-55.809-7.2-113.845,13.4-130.776,68.505-12.188,43.71,2.058,89.74-10.128,133.45-5.358,22.5-19.259,41.434-39.047,55.248C3.5,287.842-53.87,318.083-64.535,383.813c-.686,3.6-1.177,7.205-1.505,10.814-4.534-18.227-5.045-37.469-.673-51.027C-56.569,312.149-30.2,288.984-4,268.853S50.272,229,66.542,200.235c18.985-33.563,19.007-74.107,20.392-112.642s5.744-79.845,30.8-109.152c27.2-31.8,72.886-41.635,114.625-38.622s81.9,16.733,123.128,23.907S447.63-25.882,483.024-48.209c-.742,1.949-1.531,3.874-2.351,5.784q-2.136,3.789-4.438,7.362-1.978,1.475-3.977,2.86C399.422,14.318,317.083,3.42,234.743-7.478Z" transform="translate(69.731 60.698)" fill="#fbcc34"/>
                  <path id="Trazado_124861" data-name="Trazado 124861" d="M-65.55,376.76c10.665-65.729,68.033-95.971,119.326-134.088,19.788-13.814,33.689-32.752,39.047-55.248,12.187-43.71-2.06-89.74,10.128-133.45,16.931-55.1,74.967-75.707,130.776-68.505,82.34,10.9,164.679,21.8,237.515-24.725q2-1.38,3.977-2.86C426.932,32.961,325.284,39,239.051,22.436c-26.529-3.7-55.811-7.2-81.293,4.241C92.227,58.865,118.391,137.258,110,195.916c-4.6,33.5-24.141,70.81-57.88,82.823-64.495,22.345-108.348,85.7-97.512,150.933-10.124-9.855-17.551-25.56-21.667-42.1C-66.727,383.966-66.236,380.357-65.55,376.76Z" transform="translate(70.746 67.751)" fill="#3b53db"/>
                </g>
                <path id="Trazado_124862" data-name="Trazado 124862" d="M-44.373,433.29c-10.124-9.855-17.551-25.56-21.667-42.1-4.534-18.227-5.045-37.469-.673-51.027C-56.569,308.713-30.2,285.548-4,265.417c9.917-7.619,20.1-15.182,29.808-23.2C51.431,237,74.248,225.344,90.471,202.336c-10.483,28.382-29.7,50.453-53.328,68.68,28.615-6.128,55.187-21.793,67.236-47.517,24.646-56.172,24.159-123.983-15.226-171.687a214.252,214.252,0,0,1,5.311-29.757c.893-.913,1.792-1.821,2.708-2.712,54.28-54.918,133.113-14.739,187.979,18.8-10.3-8.967-21.785-15.086-28.146-27.092C302.662,31.4,356.1,44.3,402.65,17.573c26.3-15.049,45.34-37.473,63.66-60.905a95.908,95.908,0,0,0,16.714-8.313c-.742,1.949-1.531,3.874-2.351,5.784q-2.136,3.789-4.438,7.362.828-.619,1.653-1.253C445.34,27.816,364.393,69.481,290.506,54.608c-32.943-6.631-67.189-22.93-98.5-10.726C158.343,57,144.516,97.368,141.843,133.4s1.32,73.91-13.628,106.8c-12.395,27.276-36.32,47.441-60.773,64.751S16.9,338-3.075,360.325s-33.249,53.289-25.892,82.332A36.462,36.462,0,0,1-44.373,433.29Z" transform="translate(69.731 64.134)" fill="#e2c675" opacity="0.71" style="mix-blend-mode: multiply;isolation: isolate"/>
              </g>
            </g>
          </g>
        </g>
        <g id="Grupo_90520" data-name="Grupo 90520" transform="translate(15.361)">
          <path id="Trazado_124863" data-name="Trazado 124863" d="M437.591,33.168l.017-.019-.041.037c-3.427,2.428-6.557,5.8-9.52,8.7-.324.316-.63.637-.933.959l-.452.418c.072-.062.146-.115.219-.174-2.516,2.747-4.194,5.77-4.03,9.777.188,4.53,2.429,8.99,2.137,13.187-.807.851-1.494,1.609-1.775,1.868-.77.709-4.544,5.333-5.528,5.2a6.18,6.18,0,0,0,4.521-1.124c-.014.015-.025.03-.04.046l.066-.061a37.614,37.614,0,0,0,3.894-3.461c2.6-2.382,5.908-4.763,8.059-7.594,3.173-4.176,1.942-8.243.839-12.937a21.932,21.932,0,0,1-.719-7.884,13.806,13.806,0,0,1,7.567,2.047c1.367.8,9.978-10.974,11.159-10.284C447.164,28.432,442.117,29.969,437.591,33.168Z" transform="translate(143.154 11.354)" fill="#fbcc34"/>
          <path id="Trazado_124864" data-name="Trazado 124864" d="M466.81,228.092c.112.589-5.032,4.536-5.631,5.086-.688.636-5.7,4.286-5.528,5.2.073.385.123.748.157,1.1-6.917,1.029-14.4-.53-20.5,3.988.048-.051.092-.1.142-.152l-.266.244c-.262.2-.521.406-.778.628-4.892,4.232-16.43,11.763-12.3,19.383-.539-.993,11.8-9.1,11.159-10.283a7.735,7.735,0,0,1-.952-3c7.076-1.026,14.845.84,21.119-4.272C458.4,241.967,468.191,235.388,466.81,228.092Z" transform="translate(144.501 86.563)" fill="#e82048"/>
          <path id="Trazado_124865" data-name="Trazado 124865" d="M525,30.99c-.389.338-.788.677-1.192,1.019-.161-1.018-7.785,5.839-7.858,6.932a24.633,24.633,0,0,0-6.5,9.851c.461-1.5,4.442-3.991,5.631-5.086,1.338-1.235,4.975-3.4,5.528-5.2a15.156,15.156,0,0,1,.7-1.815,18.079,18.079,0,0,1,11.715-.063c.669.221,5.017-4.522,5.63-5.086.593-.546,4.9-5.406,5.529-5.2C537.167,24.025,530.422,26.28,525,30.99Z" transform="translate(177.982 9.649)" fill="#e82048"/>
          <path id="Trazado_124866" data-name="Trazado 124866" d="M636.633,67.742c-.988.909-5.439,3.8-5.529,5.2a19.644,19.644,0,0,1-1.091,5.508,17.8,17.8,0,0,1-11.52-.393c-.615-.228-5.043,4.545-5.631,5.086-.565.521-4.957,5.408-5.528,5.2,8.728,3.22,15.313-.429,21.636-6.206,6.146-5.616,12.722-10.526,13.293-19.476C642.2,63.692,637.479,66.963,636.633,67.742Z" transform="translate(215.128 23.779)" fill="#3b53db"/>
          <path id="Trazado_124867" data-name="Trazado 124867" d="M726.648,28.136c.116-.131.215-.268.334-.4l-.868.828q-1.645,1.366-3.272,2.872c-1.3,1.2-2.558,2.389-3.761,3.587l-1.769,1.611c.23-.182.465-.35.7-.526-5.9,6.1-10.123,12.6-10.059,22.206-.005-.9,4.867-4.381,5.631-5.085.893-.824,5.536-3.941,5.528-5.2a28.586,28.586,0,0,1,3.955-15,28.4,28.4,0,0,1,17.1-2.349c.943.152,4.875-4.39,5.63-5.085s4.588-5.35,5.528-5.2C741.259,18.781,733.756,22.353,726.648,28.136Z" transform="translate(253.313 7.594)" fill="#e82048"/>
          <path id="Trazado_124868" data-name="Trazado 124868" d="M689.612,127.475c-.422-.382-10.9,10.513-11.159,10.283,13.223,11.966,30.08-8.568,44.744-1.85,1.869.855,9.48-11.053,11.159-10.284C719.692,118.905,702.837,139.442,689.612,127.475Z" transform="translate(242.118 47.149)" fill="#fbcc34"/>
          <path id="Trazado_124869" data-name="Trazado 124869" d="M514.322,311.87C502.354,319,488.5,304,477.154,313.106c-3.551,2.85-7.943,7.706-10.733,9.945,9.677-7.767,21.7,3.06,32.4.879,3.692-.752,5.882-3.047,8.556-5.488,3.184-2.905,6.789-5.673,9.366-9.156A17.331,17.331,0,0,1,514.322,311.87Z" transform="translate(161.65 117.377)" fill="#fbcc34"/>
          <path id="Trazado_124870" data-name="Trazado 124870" d="M620.731,351.143c-.294.146-.593.283-.9.4a20.72,20.72,0,0,1-9.5,1.363,22.429,22.429,0,0,1-15.557-8.8c.159.2-11.458,9.908-11.159,10.284,7.143,8.976,19.563,11.745,29.354,5.216,6.419-4.281,13.572-10.784,17.764-17.267C628.426,345.909,623.678,347.933,620.731,351.143Z" transform="translate(206.124 129.921)" fill="#e82048"/>
          <path id="Trazado_124871" data-name="Trazado 124871" d="M416.369,337c-5.459,5.179-8.936,11.407-8.216,19.146-.07-.748,4.954-4.463,5.63-5.086.789-.727,5.63-4.107,5.528-5.2a20.866,20.866,0,0,1,2.141-11.414,17.312,17.312,0,0,1,3.693-1.3c1.657-.345,4.384-3.937,5.631-5.085s3.85-4.849,5.528-5.2C428.077,324.576,422.216,331.446,416.369,337Z" transform="translate(139.501 122.529)" fill="#3b53db"/>
          <path id="Trazado_124872" data-name="Trazado 124872" d="M725.505,251.435c.01.073-1.886,1.66-1.671,1.466q-1.993,1.8-3.961,3.62t-3.93,3.652c-.236.224-1.635,1.287-1.6,1.545a15.592,15.592,0,0,0,13.4,13.224,11.177,11.177,0,0,0,1.671-1.466q1.99-1.8,3.961-3.62t3.93-3.652c.229-.217,1.384-1.574,1.6-1.546A15.59,15.59,0,0,1,725.505,251.435Z" transform="translate(255.74 95.422)" fill="#e82048"/>
          <path id="Trazado_124873" data-name="Trazado 124873" d="M643.343,219.149c-6.5,5.913-13.242,11.329-16.224,19.877.545-1.56,4.381-3.934,5.631-5.086,1.4-1.286,4.885-3.355,5.528-5.2a30.111,30.111,0,0,1,2.883-6.139,29.308,29.308,0,0,1,12.344-3.274c1.345-.063,4.624-4.159,5.631-5.086s4.161-5.133,5.528-5.2C656.039,209.457,649.548,213.5,643.343,219.149Z" transform="translate(222.636 79.335)" fill="#3b53db"/>
          <path id="Trazado_124874" data-name="Trazado 124874" d="M465.4,185.652c-1.288-.782-10.058,10.952-11.159,10.283a33.823,33.823,0,0,0,36.132-.4c4.212-2.687,6.98-7.619,11.159-10.284A33.822,33.822,0,0,1,465.4,185.652Z" transform="translate(157.029 70.305)" fill="#fbcc34"/>
          <path id="Trazado_124875" data-name="Trazado 124875" d="M212.587,59.969l-.015-.019.04.037c3.427,2.427,6.557,5.8,9.52,8.7.324.316.63.636.933.959l.452.418c-.072-.062-.146-.114-.219-.175,2.516,2.748,4.194,5.772,4.03,9.777-.188,4.532-2.429,8.992-2.137,13.188.807.851,1.494,1.609,1.775,1.866.77.709,4.544,5.335,5.528,5.2a6.186,6.186,0,0,1-4.521-1.124c.015.015.025.03.04.046l-.066-.061a37.467,37.467,0,0,1-3.894-3.463c-2.6-2.382-5.908-4.762-8.059-7.593-3.173-4.176-1.942-8.244-.839-12.937a21.9,21.9,0,0,0,.719-7.884,13.8,13.8,0,0,0-7.567,2.047c-1.367.8-9.978-10.975-11.159-10.284C203.015,55.233,208.061,56.77,212.587,59.969Z" transform="translate(59.459 21.526)" fill="#fbcc34"/>
          <path id="Trazado_124876" data-name="Trazado 124876" d="M45.024,24.854C53.417,27.435,62.941,21.7,70.682,27.4c4.9,3.61,15.106,10.973,13.915,17.855.106-.615-5.02-4.525-5.631-5.086-.662-.611-5.108-3.835-5.5-5-7-.131-14.42,2.806-20.814-1.713-4.639-3.279-11.577-8.772-13.77-14.085C39.817,21.641,42.489,23.212,45.024,24.854Z" transform="translate(-0.606 7.351)" fill="#3b53db"/>
          <path id="Trazado_124877" data-name="Trazado 124877" d="M222.29,161.05c-.112.589,5.032,4.534,5.631,5.085.688.636,5.7,4.286,5.528,5.2-.073.385-.123.748-.157,1.1,6.917,1.029,14.4-.53,20.5,3.988-.048-.05-.092-.1-.141-.152l.265.244c.262.2.521.406.778.628,4.892,4.234,16.431,11.763,12.3,19.385.539-.995-11.8-9.1-11.159-10.284a7.736,7.736,0,0,0,.952-3c-7.076-1.028-14.845.839-21.119-4.274C230.7,174.924,220.909,168.345,222.29,161.05Z" transform="translate(68.95 61.12)" fill="#e82048"/>
          <path id="Trazado_124878" data-name="Trazado 124878" d="M312.607,42.7c.388.338.786.677,1.191,1.019.161-1.017,7.785,5.839,7.858,6.932a24.653,24.653,0,0,1,6.5,9.851c-.461-1.5-4.442-3.991-5.63-5.086-1.34-1.235-4.976-3.4-5.528-5.2a15.383,15.383,0,0,0-.7-1.815,18.083,18.083,0,0,0-11.713-.063c-.67.221-5.019-4.522-5.631-5.086-.593-.546-4.9-5.406-5.528-5.2C300.44,35.73,307.185,37.985,312.607,42.7Z" transform="translate(95.994 14.091)" fill="#e82048"/>
          <path id="Trazado_124879" data-name="Trazado 124879" d="M140.893,5.086c.986.909,5.438,3.8,5.528,5.2a19.645,19.645,0,0,0,1.091,5.507,17.8,17.8,0,0,0,11.52-.393c.617-.226,5.044,4.545,5.631,5.086.566.521,4.957,5.409,5.528,5.2-8.728,3.221-15.313-.428-21.636-6.206C142.409,13.86,135.833,8.95,135.262,0,135.328,1.037,140.048,4.307,140.893,5.086Z" transform="translate(35.972)" fill="#3b53db"/>
          <path id="Trazado_124880" data-name="Trazado 124880" d="M88.6,164.335c-.116-.131-.215-.268-.334-.4l.868.828q1.645,1.366,3.272,2.872c1.3,1.2,2.556,2.389,3.759,3.587q.886.8,1.769,1.611c-.229-.182-.464-.35-.7-.526,5.9,6.1,10.123,12.6,10.059,22.206.006-.9-4.868-4.381-5.631-5.085-.894-.824-5.536-3.941-5.528-5.2a28.605,28.605,0,0,0-3.955-15,28.4,28.4,0,0,0-17.1-2.349c-.944.152-4.877-4.391-5.631-5.086s-4.588-5.348-5.528-5.2C73.984,154.98,81.488,158.552,88.6,164.335Z" transform="translate(8.897 59.282)" fill="#e82048"/>
          <path id="Trazado_124881" data-name="Trazado 124881" d="M67.379,275.489c.422-.381,10.9,10.513,11.159,10.284-13.224,11.966-30.08-8.57-44.744-1.851-1.869.857-9.48-11.053-11.159-10.284C37.3,266.921,54.154,287.458,67.379,275.489Z" transform="translate(-6.771 103.322)" fill="#fbcc34"/>
          <path id="Trazado_124882" data-name="Trazado 124882" d="M296.732,194.7c11.966,7.133,25.816-7.876,37.167,1.235,3.551,2.85,7.943,7.707,10.733,9.946-9.676-7.767-21.7,3.058-32.4.879-3.69-.752-5.882-3.049-8.556-5.488-3.184-2.907-6.789-5.674-9.365-9.156A17.331,17.331,0,0,0,296.732,194.7Z" transform="translate(96.331 72.908)" fill="#fbcc34"/>
          <path id="Trazado_124883" data-name="Trazado 124883" d="M163.856,367.789c1.915.723,4.13,3.7,5.631,5.086s3.613,4.474,5.528,5.2L152.9,369.726c-1.915-.723-4.13-3.7-5.63-5.086s-3.613-4.475-5.528-5.2Z" transform="translate(38.432 136.411)" fill="#fbcc34"/>
          <path id="Trazado_124884" data-name="Trazado 124884" d="M261.35,380.432c.294.146.593.283.9.4a20.7,20.7,0,0,0,9.5,1.363,22.429,22.429,0,0,0,15.557-8.8c-.159.2,11.458,9.906,11.159,10.283-7.143,8.976-19.563,11.745-29.353,5.217-6.42-4.282-13.572-10.784-17.764-17.269C253.657,375.2,258.4,377.222,261.35,380.432Z" transform="translate(80.028 141.036)" fill="#e82048"/>
          <path id="Trazado_124885" data-name="Trazado 124885" d="M364.94,368.266c5.457,5.179,8.935,11.407,8.216,19.145.069-.746-4.954-4.461-5.631-5.085-.789-.728-5.628-4.107-5.528-5.2a20.865,20.865,0,0,0-2.14-11.414,17.315,17.315,0,0,0-3.693-1.3c-1.658-.345-4.385-3.937-5.631-5.086s-3.85-4.848-5.528-5.2C353.231,355.846,359.092,362.716,364.94,368.266Z" transform="translate(115.572 134.397)" fill="#3b53db"/>
          <path id="Trazado_124886" data-name="Trazado 124886" d="M125.9,232.43c-.011.073,1.884,1.661,1.671,1.466,1.327,1.2,2.645,2.409,3.959,3.62s2.629,2.427,3.93,3.652c.237.223,1.635,1.287,1.6,1.546a15.591,15.591,0,0,1-13.4,13.223,11.024,11.024,0,0,1-1.671-1.466q-1.993-1.8-3.961-3.618T114.1,247.2c-.229-.217-1.384-1.573-1.6-1.545A15.593,15.593,0,0,0,125.9,232.43Z" transform="translate(27.334 88.209)" fill="#e82048"/>
          <path id="Trazado_124887" data-name="Trazado 124887" d="M32.455,205.266c6.5,5.911,13.242,11.329,16.224,19.877-.545-1.562-4.381-3.934-5.631-5.086-1.4-1.286-4.885-3.355-5.528-5.2a30.136,30.136,0,0,0-2.883-6.137,29.308,29.308,0,0,0-12.344-3.274c-1.345-.065-4.624-4.159-5.631-5.086s-4.161-5.133-5.528-5.2C19.76,195.574,26.25,199.621,32.455,205.266Z" transform="translate(-11.135 74.066)" fill="#3b53db"/>
        </g>
      </g>
    </g>
  </g>
</svg>
