<svg xmlns="http://www.w3.org/2000/svg" width="1240" height="87" viewBox="0 0 1240 87">
  <g id="Grupo_94072" data-name="Grupo 94072" transform="translate(-180 -9931)">
    <rect id="Rectángulo_35253" data-name="Rectángulo 35253" width="105" height="86" rx="10" transform="translate(180 9931)" fill="#6b8dff"/>
    <rect id="Rectángulo_35254" data-name="Rectángulo 35254" width="152" height="86" rx="10" transform="translate(330 9931)" fill="#01ac57"/>
    <rect id="Rectángulo_35255" data-name="Rectángulo 35255" width="115" height="86" rx="10" transform="translate(527 9931)" fill="#ff5f65"/>
    <rect id="Rectángulo_35257" data-name="Rectángulo 35257" width="94" height="86" rx="10" transform="translate(696 9931)" fill="#ffd947"/>
    <rect id="Rectángulo_35258" data-name="Rectángulo 35258" width="152" height="86" rx="10" transform="translate(855 9931)" fill="#acade1"/>
    <rect id="Rectángulo_35256" data-name="Rectángulo 35256" width="361" height="86" rx="10" transform="translate(1059 9932)" fill="#3c3fa7"/>
    <path id="Trazado_129241" data-name="Trazado 129241" d="M-18.483-3.463Q-18.29-4.456-19.556-5L-21-5.6q-3.032-1.362-2.883-3.709a3.274,3.274,0,0,1,.738-1.912,4.385,4.385,0,0,1,1.872-1.305,6.889,6.889,0,0,1,2.61-.448A4.439,4.439,0,0,1-15.6-11.865a3.679,3.679,0,0,1,1.138,2.874h-2.988a1.79,1.79,0,0,0-.312-1.182,1.351,1.351,0,0,0-1.112-.461,2.33,2.33,0,0,0-1.336.352,1.426,1.426,0,0,0-.686.993q-.167.879,1.305,1.441a14.352,14.352,0,0,1,2.14.967,3.534,3.534,0,0,1,1.969,3.393A3.474,3.474,0,0,1-16.2-1.547a4.115,4.115,0,0,1-1.78,1.292,6.576,6.576,0,0,1-2.553.439,6.164,6.164,0,0,1-1.925-.325,4.235,4.235,0,0,1-1.521-.9,3.9,3.9,0,0,1-1.23-3.12l3.015.009a2.064,2.064,0,0,0,.378,1.49,1.816,1.816,0,0,0,1.45.505A2.176,2.176,0,0,0-19.1-2.5,1.441,1.441,0,0,0-18.483-3.463Zm9.738,2.426A3.148,3.148,0,0,1-11.312.185a2.492,2.492,0,0,1-2.1-.976,3.6,3.6,0,0,1-.549-2.566l1.028-6.152h2.892l-1.046,6.195a2.064,2.064,0,0,0,0,.466.766.766,0,0,0,.853.748,1.868,1.868,0,0,0,1.556-.722L-7.506-9.51H-4.6L-6.249,0H-8.938ZM.062-9.51-1.6.3A4.036,4.036,0,0,1-2.883,2.94a3.9,3.9,0,0,1-2.725.927A9.186,9.186,0,0,1-7.058,3.7l.237-2.25a3.9,3.9,0,0,0,.8.105A1.407,1.407,0,0,0-4.509.2l1.67-9.712Zm-2.681-2.4a1.326,1.326,0,0,1,.457-1.075,1.646,1.646,0,0,1,1.134-.423A1.6,1.6,0,0,1,.1-13.037a1.332,1.332,0,0,1,.475,1.018,1.35,1.35,0,0,1-.435,1.058,1.67,1.67,0,0,1-1.156.45A1.667,1.667,0,0,1-2.145-10.9,1.323,1.323,0,0,1-2.619-11.913ZM4.834.176a4.421,4.421,0,0,1-2.272-.6A3.793,3.793,0,0,1,1.055-2.079a4.44,4.44,0,0,1-.4-2.333l.026-.246a5.829,5.829,0,0,1,1.63-3.713A4.51,4.51,0,0,1,5.722-9.686a3.678,3.678,0,0,1,2.092.621A3.468,3.468,0,0,1,9.088-7.4,5.1,5.1,0,0,1,9.352-5.02L9.185-3.814H3.524A1.854,1.854,0,0,0,3.946-2.6a1.549,1.549,0,0,0,1.178.492,2.993,2.993,0,0,0,2.259-.967L8.6-1.472a3.578,3.578,0,0,1-1.5,1.2,5.263,5.263,0,0,1-2.1.451Zm.7-7.576a1.487,1.487,0,0,0-1.068.385,3.229,3.229,0,0,0-.787,1.347H6.574l.053-.254A1.929,1.929,0,0,0,6.645-6.5,1.017,1.017,0,0,0,5.537-7.4Zm9.589-4.474L14.713-9.51h1.521l-.36,2.057H14.353l-.738,4.368a1.164,1.164,0,0,0,.057.677q.119.229.593.246a6.873,6.873,0,0,0,.756-.044L14.81-.062a4.673,4.673,0,0,1-1.556.22,2.563,2.563,0,0,1-2.013-.791,2.7,2.7,0,0,1-.545-2.1l.773-4.72H10.292l.352-2.057h1.178l.413-2.364Zm5.941,2.188a3.994,3.994,0,0,1,2.206.637A3.59,3.59,0,0,1,24.64-7.321a5.33,5.33,0,0,1,.312,2.461l-.018.193a5.636,5.636,0,0,1-1.626,3.533A4.575,4.575,0,0,1,19.9.176,3.977,3.977,0,0,1,17.71-.453a3.612,3.612,0,0,1-1.367-1.709,5.179,5.179,0,0,1-.321-2.443,5.863,5.863,0,0,1,1.6-3.727A4.547,4.547,0,0,1,21.067-9.686ZM18.914-4.6l-.026.518q-.123,1.957,1.2,1.992,1.705.053,1.978-2.764l.035-.8A2.155,2.155,0,0,0,21.8-6.913a1.073,1.073,0,0,0-.918-.487,1.512,1.512,0,0,0-1.314.654A4.278,4.278,0,0,0,18.914-4.6Z" transform="translate(234 9980)" fill="#12263f"/>
    <path id="Trazado_129251" data-name="Trazado 129251" d="M10.74-4.359a4.614,4.614,0,0,1-.883,2.391A5,5,0,0,1,7.835-.36,6.259,6.259,0,0,1,5.124.176,4.215,4.215,0,0,1,1.969-1.116,5.193,5.193,0,0,1,.712-4.5a11.02,11.02,0,0,1,.312-3.1A8.2,8.2,0,0,1,2.3-10.525a5.855,5.855,0,0,1,2.083-1.863A5.407,5.407,0,0,1,7-12.981a4.577,4.577,0,0,1,3.309,1.257,4.92,4.92,0,0,1,1.323,3.366l-3-.009a2.465,2.465,0,0,0-.422-1.67,1.852,1.852,0,0,0-1.389-.536q-2.373-.079-2.892,3.691A20.283,20.283,0,0,0,3.7-4.447Q3.656-2.285,5.3-2.224A2.348,2.348,0,0,0,7-2.747,2.615,2.615,0,0,0,7.8-4.324Zm4.878-4.113A3.107,3.107,0,0,1,18.07-9.694a2.472,2.472,0,0,1,2.123,1.046,3.981,3.981,0,0,1,.5,2.742L19.705,0H16.813l.993-5.948a3.079,3.079,0,0,0,.018-.563.878.878,0,0,0-.967-.9,1.873,1.873,0,0,0-1.389.572L14.256,0H11.364l2.347-13.5H16.6ZM26.736,0a2.578,2.578,0,0,1-.123-.861A2.933,2.933,0,0,1,24.284.176,2.866,2.866,0,0,1,22.228-.65a2.483,2.483,0,0,1-.765-1.96,2.79,2.79,0,0,1,1.292-2.377,6.091,6.091,0,0,1,3.41-.831l.967.018.105-.536.035-.466a.755.755,0,0,0-.8-.826A1.111,1.111,0,0,0,25.3-6.583l-2.9.009a2.754,2.754,0,0,1,.624-1.666A3.7,3.7,0,0,1,24.6-9.33a5.512,5.512,0,0,1,2.123-.356,4.251,4.251,0,0,1,1.894.453,2.82,2.82,0,0,1,1.217,1.187,3.031,3.031,0,0,1,.308,1.753l-.712,4.474-.044.545a2.4,2.4,0,0,0,.167,1.107L29.549,0ZM25.084-1.916A1.865,1.865,0,0,0,26.64-2.7l.29-1.529-.747-.009a1.969,1.969,0,0,0-1.2.409A1.55,1.55,0,0,0,24.4-2.76a.778.778,0,0,0,.136.593A.7.7,0,0,0,25.084-1.916ZM37.591-6.829a8.273,8.273,0,0,0-.9-.088,2.233,2.233,0,0,0-1.986.9L33.636,0H30.744L32.4-9.51l2.7-.009-.22,1.248a2.64,2.64,0,0,1,2.2-1.441,4.144,4.144,0,0,1,.9.123ZM40.482,0h-2.9L39.92-13.5h2.9Zm6.565.176a4.421,4.421,0,0,1-2.272-.6,3.793,3.793,0,0,1-1.507-1.652,4.44,4.44,0,0,1-.4-2.333l.026-.246a5.829,5.829,0,0,1,1.63-3.713,4.51,4.51,0,0,1,3.415-1.314,3.678,3.678,0,0,1,2.092.621A3.468,3.468,0,0,1,51.3-7.4a5.1,5.1,0,0,1,.264,2.381L51.4-3.814h-5.66A1.854,1.854,0,0,0,46.16-2.6a1.549,1.549,0,0,0,1.178.492A2.993,2.993,0,0,0,49.6-3.076l1.213,1.6a3.578,3.578,0,0,1-1.5,1.2,5.263,5.263,0,0,1-2.1.451Zm.7-7.576a1.487,1.487,0,0,0-1.068.385A3.229,3.229,0,0,0,45.9-5.669h2.892l.053-.254a1.929,1.929,0,0,0,.018-.577A1.017,1.017,0,0,0,47.751-7.4Zm9.527,4.676q.114-.58-.9-.87l-.624-.158a4.806,4.806,0,0,1-2.241-1.134,2.244,2.244,0,0,1-.668-1.731,2.758,2.758,0,0,1,1.217-2.228,4.633,4.633,0,0,1,2.861-.839,4.292,4.292,0,0,1,2.72.853,2.781,2.781,0,0,1,1.059,2.25l-2.883-.009q.035-1.125-.993-1.125a1.417,1.417,0,0,0-.817.259,1.007,1.007,0,0,0-.448.69q-.149.712,1.257.976a7.3,7.3,0,0,1,1.89.672,2.821,2.821,0,0,1,1.02.945,2.35,2.35,0,0,1,.325,1.354,2.541,2.541,0,0,1-.562,1.538A3.642,3.642,0,0,1,57.942-.2a5.557,5.557,0,0,1-2.2.378,4.469,4.469,0,0,1-1.912-.431A3.408,3.408,0,0,1,52.449-1.4a2.979,2.979,0,0,1-.514-1.666l2.689.018A1.111,1.111,0,0,0,55.89-1.8a1.661,1.661,0,0,0,.914-.242A1.045,1.045,0,0,0,57.278-2.725Zm8.587-2.048a6.917,6.917,0,0,1,1.371-3.6A3.4,3.4,0,0,1,70.1-9.686a2.592,2.592,0,0,1,2.013,1.02l.923-4.834h2.9L73.6,0H71.024l.123-1.028A2.968,2.968,0,0,1,68.783.185,2.62,2.62,0,0,1,66.634-.831,4.476,4.476,0,0,1,65.8-3.507a8.231,8.231,0,0,1,.035-1.081Zm2.883.2a6.9,6.9,0,0,0-.062.984q0,1.459.984,1.485a1.844,1.844,0,0,0,1.521-.817l.65-3.647a1.171,1.171,0,0,0-1.16-.835,1.478,1.478,0,0,0-1.305.7A4.507,4.507,0,0,0,68.748-4.57ZM80.842-9.686a3.994,3.994,0,0,1,2.206.637,3.59,3.59,0,0,1,1.367,1.727,5.33,5.33,0,0,1,.312,2.461l-.018.193a5.636,5.636,0,0,1-1.626,3.533,4.575,4.575,0,0,1-3.41,1.31,3.977,3.977,0,0,1-2.188-.628,3.612,3.612,0,0,1-1.367-1.709A5.179,5.179,0,0,1,75.8-4.605a5.863,5.863,0,0,1,1.6-3.727A4.547,4.547,0,0,1,80.842-9.686ZM78.688-4.6l-.026.518q-.123,1.957,1.2,1.992,1.705.053,1.978-2.764l.035-.8a2.155,2.155,0,0,0-.294-1.259,1.073,1.073,0,0,0-.918-.487,1.512,1.512,0,0,0-1.314.654A4.278,4.278,0,0,0,78.688-4.6ZM89.921.176a4.421,4.421,0,0,1-2.272-.6,3.793,3.793,0,0,1-1.507-1.652,4.44,4.44,0,0,1-.4-2.333l.026-.246a5.829,5.829,0,0,1,1.63-3.713,4.51,4.51,0,0,1,3.415-1.314,3.678,3.678,0,0,1,2.092.621A3.468,3.468,0,0,1,94.175-7.4a5.1,5.1,0,0,1,.264,2.381l-.167,1.206h-5.66A1.854,1.854,0,0,0,89.033-2.6a1.549,1.549,0,0,0,1.178.492,2.993,2.993,0,0,0,2.259-.967l1.213,1.6a3.578,3.578,0,0,1-1.5,1.2,5.263,5.263,0,0,1-2.1.451Zm.7-7.576a1.487,1.487,0,0,0-1.068.385,3.229,3.229,0,0,0-.787,1.347h2.892l.053-.254a1.929,1.929,0,0,0,.018-.577A1.017,1.017,0,0,0,90.624-7.4Zm9.527,4.676q.114-.58-.9-.87l-.624-.158A4.806,4.806,0,0,1,96.39-4.887a2.244,2.244,0,0,1-.668-1.731,2.758,2.758,0,0,1,1.217-2.228A4.633,4.633,0,0,1,99.8-9.686a4.292,4.292,0,0,1,2.72.853,2.781,2.781,0,0,1,1.059,2.25L100.7-6.592q.035-1.125-.993-1.125a1.417,1.417,0,0,0-.817.259,1.007,1.007,0,0,0-.448.69q-.149.712,1.257.976a7.3,7.3,0,0,1,1.89.672,2.821,2.821,0,0,1,1.02.945,2.35,2.35,0,0,1,.325,1.354,2.541,2.541,0,0,1-.562,1.538A3.642,3.642,0,0,1,100.815-.2a5.557,5.557,0,0,1-2.2.378A4.469,4.469,0,0,1,96.7-.255,3.408,3.408,0,0,1,95.322-1.4a2.979,2.979,0,0,1-.514-1.666L97.5-3.05A1.111,1.111,0,0,0,98.763-1.8a1.661,1.661,0,0,0,.914-.242A1.045,1.045,0,0,0,100.151-2.725Zm12.4-6.794-.2,1.143A3.38,3.38,0,0,1,115.1-9.694a2.27,2.27,0,0,1,1.964.98,4.1,4.1,0,0,1,.47,2.729l-1,5.985h-2.9l1.011-6.01a3.108,3.108,0,0,0,.018-.563q-.062-.836-.984-.836a1.807,1.807,0,0,0-1.4.678L111.094,0H108.2l1.652-9.51Zm11.188-.167a3.994,3.994,0,0,1,2.206.637,3.59,3.59,0,0,1,1.367,1.727,5.33,5.33,0,0,1,.312,2.461l-.018.193a5.636,5.636,0,0,1-1.626,3.533,4.575,4.575,0,0,1-3.41,1.31,3.977,3.977,0,0,1-2.188-.628,3.612,3.612,0,0,1-1.367-1.709,5.179,5.179,0,0,1-.321-2.443,5.863,5.863,0,0,1,1.6-3.727A4.547,4.547,0,0,1,123.741-9.686ZM121.588-4.6l-.026.518q-.123,1.957,1.2,1.992,1.705.053,1.978-2.764l.035-.8a2.155,2.155,0,0,0-.294-1.259,1.073,1.073,0,0,0-.918-.487,1.512,1.512,0,0,0-1.314.654A4.278,4.278,0,0,0,121.588-4.6Zm11.927-7.273L133.1-9.51h1.521l-.36,2.057h-1.521L132-3.085a1.164,1.164,0,0,0,.057.677q.119.229.593.246a6.873,6.873,0,0,0,.756-.044L133.2-.062a4.673,4.673,0,0,1-1.556.22,2.563,2.563,0,0,1-2.013-.791,2.7,2.7,0,0,1-.545-2.1l.773-4.72h-1.178l.352-2.057h1.178l.413-2.364ZM143.341.176a4.421,4.421,0,0,1-2.272-.6,3.793,3.793,0,0,1-1.507-1.652,4.44,4.44,0,0,1-.4-2.333l.026-.246a5.829,5.829,0,0,1,1.63-3.713,4.51,4.51,0,0,1,3.415-1.314,3.678,3.678,0,0,1,2.092.621A3.468,3.468,0,0,1,147.595-7.4a5.1,5.1,0,0,1,.264,2.381l-.167,1.206h-5.66a1.854,1.854,0,0,0,.422,1.213,1.549,1.549,0,0,0,1.178.492,2.993,2.993,0,0,0,2.259-.967l1.213,1.6a3.578,3.578,0,0,1-1.5,1.2,5.263,5.263,0,0,1-2.1.451Zm.7-7.576a1.487,1.487,0,0,0-1.068.385,3.229,3.229,0,0,0-.787,1.347h2.892l.053-.254a1.929,1.929,0,0,0,.018-.577A1.017,1.017,0,0,0,144.044-7.4ZM152.5-9.519l-.2,1.143a3.38,3.38,0,0,1,2.751-1.318,2.27,2.27,0,0,1,1.964.98,4.1,4.1,0,0,1,.47,2.729L156.48,0h-2.9l1.011-6.01a3.108,3.108,0,0,0,.018-.563q-.062-.836-.984-.836a1.807,1.807,0,0,0-1.4.678L151.04,0h-2.892L149.8-9.51Zm10.4.009L161.235.3a4.036,4.036,0,0,1-1.283,2.641,3.9,3.9,0,0,1-2.725.927,9.186,9.186,0,0,1-1.45-.167l.237-2.25a3.9,3.9,0,0,0,.8.105A1.407,1.407,0,0,0,158.326.2L160-9.51Zm-2.681-2.4a1.326,1.326,0,0,1,.457-1.075,1.646,1.646,0,0,1,1.134-.423,1.6,1.6,0,0,1,1.125.375,1.332,1.332,0,0,1,.475,1.018,1.35,1.35,0,0,1-.435,1.058,1.67,1.67,0,0,1-1.156.45,1.667,1.667,0,0,1-1.125-.392A1.323,1.323,0,0,1,160.216-11.913Zm8.271,2.228a3.994,3.994,0,0,1,2.206.637,3.59,3.59,0,0,1,1.367,1.727,5.33,5.33,0,0,1,.312,2.461l-.018.193a5.636,5.636,0,0,1-1.626,3.533,4.575,4.575,0,0,1-3.41,1.31,3.977,3.977,0,0,1-2.188-.628,3.612,3.612,0,0,1-1.367-1.709,5.179,5.179,0,0,1-.321-2.443,5.863,5.863,0,0,1,1.6-3.727A4.547,4.547,0,0,1,168.486-9.686ZM166.333-4.6l-.026.518q-.123,1.957,1.2,1.992,1.705.053,1.978-2.764l.035-.8a2.155,2.155,0,0,0-.294-1.259A1.073,1.073,0,0,0,168.3-7.4a1.512,1.512,0,0,0-1.314.654A4.278,4.278,0,0,0,166.333-4.6Zm10.872.418,2.461-5.326h3.19L177.284,1.424a4.765,4.765,0,0,1-1.437,1.868,3.266,3.266,0,0,1-1.938.576,5.473,5.473,0,0,1-1.274-.193l.22-2.118h.334a2.394,2.394,0,0,0,.94-.171,1.432,1.432,0,0,0,.677-.664l.413-.791L173.7-9.51h2.988Zm16.066-2.646a8.273,8.273,0,0,0-.9-.088,2.233,2.233,0,0,0-1.986.9L189.316,0h-2.892l1.652-9.51,2.7-.009-.22,1.248a2.64,2.64,0,0,1,2.2-1.441,4.144,4.144,0,0,1,.9.123Zm5.071-2.856a3.994,3.994,0,0,1,2.206.637,3.59,3.59,0,0,1,1.367,1.727,5.33,5.33,0,0,1,.312,2.461l-.018.193a5.636,5.636,0,0,1-1.626,3.533,4.575,4.575,0,0,1-3.41,1.31,3.977,3.977,0,0,1-2.188-.628,3.612,3.612,0,0,1-1.367-1.709,5.179,5.179,0,0,1-.321-2.443,5.863,5.863,0,0,1,1.6-3.727A4.547,4.547,0,0,1,198.343-9.686ZM196.189-4.6l-.026.518q-.123,1.957,1.2,1.992,1.705.053,1.978-2.764l.035-.8a2.155,2.155,0,0,0-.294-1.259,1.073,1.073,0,0,0-.918-.487,1.512,1.512,0,0,0-1.314.654A4.278,4.278,0,0,0,196.189-4.6Zm10.863-4.917-.193,1.143a3.414,3.414,0,0,1,2.777-1.31,2.509,2.509,0,0,1,1.415.4,1.843,1.843,0,0,1,.738,1.028,3.619,3.619,0,0,1,2.892-1.433,2.241,2.241,0,0,1,1.956.989,4.117,4.117,0,0,1,.461,2.711L216.105,0h-2.9l1.011-5.987.035-.518q0-.869-.817-.9a1.872,1.872,0,0,0-1.424.781L210.858,0h-2.9l1-5.969L209-6.5q0-.9-.817-.9a1.86,1.86,0,0,0-1.406.781L205.6,0h-2.892l1.652-9.51ZM223.181,0a2.578,2.578,0,0,1-.123-.861A2.933,2.933,0,0,1,220.729.176a2.866,2.866,0,0,1-2.057-.826,2.483,2.483,0,0,1-.765-1.96A2.79,2.79,0,0,1,219.2-4.988a6.091,6.091,0,0,1,3.41-.831l.967.018.105-.536.035-.466a.755.755,0,0,0-.8-.826,1.111,1.111,0,0,0-1.169,1.046l-2.9.009a2.754,2.754,0,0,1,.624-1.666,3.7,3.7,0,0,1,1.578-1.09,5.512,5.512,0,0,1,2.123-.356,4.251,4.251,0,0,1,1.894.453,2.82,2.82,0,0,1,1.217,1.187,3.031,3.031,0,0,1,.308,1.753l-.712,4.474-.044.545A2.4,2.4,0,0,0,226-.167L225.993,0Zm-1.652-1.916a1.865,1.865,0,0,0,1.556-.782l.29-1.529-.747-.009a1.969,1.969,0,0,0-1.2.409,1.55,1.55,0,0,0-.589,1.068.778.778,0,0,0,.136.593A.7.7,0,0,0,221.528-1.916Zm9.932-7.6-.2,1.143a3.38,3.38,0,0,1,2.751-1.318,2.27,2.27,0,0,1,1.964.98,4.1,4.1,0,0,1,.47,2.729l-1,5.985h-2.9l1.011-6.01a3.108,3.108,0,0,0,.018-.563q-.062-.836-.984-.836a1.807,1.807,0,0,0-1.4.678L230,0h-2.892l1.652-9.51Zm11.065-2.355-.413,2.364h1.521l-.36,2.057h-1.521l-.738,4.368a1.164,1.164,0,0,0,.057.677q.119.229.593.246a6.873,6.873,0,0,0,.756-.044l-.211,2.145a4.673,4.673,0,0,1-1.556.22,2.563,2.563,0,0,1-2.013-.791,2.7,2.7,0,0,1-.545-2.1l.773-4.72h-1.178l.352-2.057h1.178l.413-2.364ZM246.234,0h-2.9l1.652-9.51h2.9Zm-.993-11.909a1.341,1.341,0,0,1,.453-1.072,1.625,1.625,0,0,1,1.138-.431,1.678,1.678,0,0,1,1.129.387,1.318,1.318,0,0,1,.47,1.011,1.344,1.344,0,0,1-.448,1.077,1.63,1.63,0,0,1-1.143.426,1.7,1.7,0,0,1-1.121-.382A1.3,1.3,0,0,1,245.241-11.909Zm7.233,9.8a1.244,1.244,0,0,0,.976-.345,1.717,1.717,0,0,0,.448-.938l2.707-.009a3.559,3.559,0,0,1-.62,1.872A3.745,3.745,0,0,1,254.457-.25,4.521,4.521,0,0,1,252.4.176a3.57,3.57,0,0,1-2.927-1.367,4.726,4.726,0,0,1-.835-3.441l.026-.211a6.371,6.371,0,0,1,.809-2.553,4.626,4.626,0,0,1,1.709-1.718,4.433,4.433,0,0,1,2.369-.571,3.536,3.536,0,0,1,2.624,1.059,3.755,3.755,0,0,1,.927,2.764l-2.707-.009q.044-1.5-1.081-1.529-1.529-.053-1.758,2.567l-.079.893-.009.333Q251.464-2.136,252.475-2.109Zm13.553-7.409-.193,1.143a3.414,3.414,0,0,1,2.777-1.31,2.509,2.509,0,0,1,1.415.4,1.843,1.843,0,0,1,.738,1.028,3.619,3.619,0,0,1,2.892-1.433,2.241,2.241,0,0,1,1.956.989,4.117,4.117,0,0,1,.461,2.711L275.08,0h-2.9l1.011-5.987.035-.518q0-.869-.817-.9a1.872,1.872,0,0,0-1.424.781L269.833,0h-2.9l1-5.969.035-.527q0-.9-.817-.9a1.86,1.86,0,0,0-1.406.781L264.577,0h-2.892l1.652-9.51Zm16.646,8.481A3.148,3.148,0,0,1,280.107.185,2.492,2.492,0,0,1,278-.791a3.6,3.6,0,0,1-.549-2.566l1.028-6.152h2.892l-1.046,6.195a2.064,2.064,0,0,0,0,.466.766.766,0,0,0,.853.748,1.868,1.868,0,0,0,1.556-.722l1.178-6.688h2.909L285.17,0H282.48Zm9.413-1.687q.114-.58-.9-.87l-.624-.158a4.806,4.806,0,0,1-2.241-1.134,2.244,2.244,0,0,1-.668-1.731,2.758,2.758,0,0,1,1.217-2.228,4.633,4.633,0,0,1,2.861-.839,4.292,4.292,0,0,1,2.72.853,2.781,2.781,0,0,1,1.059,2.25l-2.883-.009q.035-1.125-.993-1.125a1.417,1.417,0,0,0-.817.259,1.007,1.007,0,0,0-.448.69q-.149.712,1.257.976a7.3,7.3,0,0,1,1.89.672,2.821,2.821,0,0,1,1.02.945,2.35,2.35,0,0,1,.325,1.354,2.541,2.541,0,0,1-.562,1.538A3.642,3.642,0,0,1,292.75-.2a5.557,5.557,0,0,1-2.2.378,4.469,4.469,0,0,1-1.912-.431,3.408,3.408,0,0,1-1.38-1.147,2.979,2.979,0,0,1-.514-1.666l2.689.018A1.111,1.111,0,0,0,290.7-1.8a1.661,1.661,0,0,0,.914-.242A1.045,1.045,0,0,0,292.087-2.725ZM298.811,0h-2.9l1.652-9.51h2.9Zm-.993-11.909a1.341,1.341,0,0,1,.453-1.072,1.625,1.625,0,0,1,1.138-.431,1.678,1.678,0,0,1,1.129.387,1.318,1.318,0,0,1,.47,1.011,1.344,1.344,0,0,1-.448,1.077,1.63,1.63,0,0,1-1.143.426,1.7,1.7,0,0,1-1.121-.382A1.3,1.3,0,0,1,297.817-11.909Zm7.233,9.8a1.244,1.244,0,0,0,.976-.345,1.717,1.717,0,0,0,.448-.938l2.707-.009a3.559,3.559,0,0,1-.62,1.872A3.745,3.745,0,0,1,307.033-.25a4.521,4.521,0,0,1-2.061.426,3.57,3.57,0,0,1-2.927-1.367,4.726,4.726,0,0,1-.835-3.441l.026-.211a6.371,6.371,0,0,1,.809-2.553,4.626,4.626,0,0,1,1.709-1.718,4.433,4.433,0,0,1,2.369-.571,3.536,3.536,0,0,1,2.624,1.059,3.755,3.755,0,0,1,.927,2.764l-2.707-.009q.044-1.5-1.081-1.529-1.529-.053-1.758,2.567l-.079.893-.009.333Q304.04-2.136,305.051-2.109Zm5.2.773a1.391,1.391,0,0,1,.457-1.107,1.611,1.611,0,0,1,1.134-.439,1.624,1.624,0,0,1,1.107.4,1.372,1.372,0,0,1,.475,1.042,1.406,1.406,0,0,1-.448,1.1,1.594,1.594,0,0,1-1.143.444,1.6,1.6,0,0,1-1.116-.4A1.389,1.389,0,0,1,310.254-1.336Z" transform="translate(1089 9980)" fill="#fff"/>
    <path id="Trazado_129243" data-name="Trazado 129243" d="M7.532-2.4H3.445L2.312,0H-1L5.774-12.8H8.6L10.969,0H7.84ZM4.57-4.772H7.225L6.662-9.185ZM17.648-1.037A3.148,3.148,0,0,1,15.082.185a2.492,2.492,0,0,1-2.1-.976,3.6,3.6,0,0,1-.549-2.566L13.456-9.51h2.892L15.3-3.315a2.064,2.064,0,0,0,0,.466.766.766,0,0,0,.853.748,1.868,1.868,0,0,0,1.556-.722L18.888-9.51H21.8L20.145,0H17.455Zm8.895-5.871,1.749-2.6h3.129L28.178-4.746,29.918,0H27.035l-1-2.795L24.179,0H21.015l3.41-5.01-1.661-4.5h2.909ZM33.82,0h-2.9l1.652-9.51h2.9Zm-.993-11.909a1.341,1.341,0,0,1,.453-1.072,1.625,1.625,0,0,1,1.138-.431,1.678,1.678,0,0,1,1.129.387,1.318,1.318,0,0,1,.47,1.011,1.344,1.344,0,0,1-.448,1.077,1.63,1.63,0,0,1-1.143.426,1.7,1.7,0,0,1-1.121-.382A1.3,1.3,0,0,1,32.827-11.909ZM38.707,0h-2.9l2.338-13.5h2.9Zm4.887,0h-2.9l1.652-9.51h2.9ZM42.6-11.909a1.341,1.341,0,0,1,.453-1.072,1.625,1.625,0,0,1,1.138-.431,1.678,1.678,0,0,1,1.129.387,1.318,1.318,0,0,1,.47,1.011,1.344,1.344,0,0,1-.448,1.077,1.63,1.63,0,0,1-1.143.426,1.7,1.7,0,0,1-1.121-.382A1.3,1.3,0,0,1,42.6-11.909ZM50.792,0a2.578,2.578,0,0,1-.123-.861A2.933,2.933,0,0,1,48.34.176,2.866,2.866,0,0,1,46.283-.65a2.483,2.483,0,0,1-.765-1.96,2.79,2.79,0,0,1,1.292-2.377,6.091,6.091,0,0,1,3.41-.831l.967.018.105-.536.035-.466a.755.755,0,0,0-.8-.826,1.111,1.111,0,0,0-1.169,1.046l-2.9.009a2.754,2.754,0,0,1,.624-1.666,3.7,3.7,0,0,1,1.578-1.09,5.512,5.512,0,0,1,2.123-.356,4.251,4.251,0,0,1,1.894.453,2.82,2.82,0,0,1,1.217,1.187A3.031,3.031,0,0,1,54.2-6.293L53.49-1.819l-.044.545a2.4,2.4,0,0,0,.167,1.107L53.6,0ZM49.14-1.916A1.865,1.865,0,0,0,50.7-2.7l.29-1.529-.747-.009a1.969,1.969,0,0,0-1.2.409,1.55,1.55,0,0,0-.589,1.068.778.778,0,0,0,.136.593A.7.7,0,0,0,49.14-1.916ZM61.646-6.829a8.273,8.273,0,0,0-.9-.088,2.233,2.233,0,0,0-1.986.9L57.691,0H54.8l1.652-9.51,2.7-.009-.22,1.248a2.64,2.64,0,0,1,2.2-1.441,4.144,4.144,0,0,1,.9.123Zm10.978-7.3.448,1.494a8.35,8.35,0,0,0-2.654,3.507A19.043,19.043,0,0,0,69.17-3.261l-.044.861Q68.994,1.2,70.673,2.5L70.04,3.955a4.8,4.8,0,0,1-1.793-1.586A7.037,7.037,0,0,1,67.192-.193,12.928,12.928,0,0,1,66.92-3.34a17.29,17.29,0,0,1,.809-4.72,12.029,12.029,0,0,1,1.978-3.858A6.848,6.848,0,0,1,72.624-14.133ZM77.6-11.874,77.186-9.51h1.521l-.36,2.057H76.825l-.738,4.368a1.164,1.164,0,0,0,.057.677q.119.229.593.246a6.873,6.873,0,0,0,.756-.044L77.282-.062a4.673,4.673,0,0,1-1.556.22,2.563,2.563,0,0,1-2.013-.791,2.7,2.7,0,0,1-.545-2.1l.773-4.72H72.765l.352-2.057h1.178l.413-2.364ZM83.54-9.686a3.994,3.994,0,0,1,2.206.637,3.59,3.59,0,0,1,1.367,1.727,5.33,5.33,0,0,1,.312,2.461l-.018.193a5.636,5.636,0,0,1-1.626,3.533,4.575,4.575,0,0,1-3.41,1.31,3.977,3.977,0,0,1-2.188-.628,3.612,3.612,0,0,1-1.367-1.709A5.179,5.179,0,0,1,78.5-4.605a5.863,5.863,0,0,1,1.6-3.727A4.547,4.547,0,0,1,83.54-9.686ZM81.387-4.6l-.026.518q-.123,1.957,1.2,1.992,1.705.053,1.978-2.764l.035-.8a2.155,2.155,0,0,0-.294-1.259,1.073,1.073,0,0,0-.918-.487,1.512,1.512,0,0,0-1.314.654A4.278,4.278,0,0,0,81.387-4.6ZM92.8-4.772a6.917,6.917,0,0,1,1.371-3.6,3.4,3.4,0,0,1,2.865-1.31,2.592,2.592,0,0,1,2.013,1.02l.923-4.834h2.9L100.538,0H97.963l.123-1.028A2.968,2.968,0,0,1,95.722.185,2.62,2.62,0,0,1,93.573-.831a4.476,4.476,0,0,1-.831-2.676,8.231,8.231,0,0,1,.035-1.081Zm2.883.2a6.9,6.9,0,0,0-.062.984q0,1.459.984,1.485a1.844,1.844,0,0,0,1.521-.817l.65-3.647A1.171,1.171,0,0,0,97.62-7.4a1.478,1.478,0,0,0-1.305.7A4.507,4.507,0,0,0,95.687-4.57ZM107.78-9.686a3.994,3.994,0,0,1,2.206.637,3.59,3.59,0,0,1,1.367,1.727,5.33,5.33,0,0,1,.312,2.461l-.018.193a5.636,5.636,0,0,1-1.626,3.533,4.575,4.575,0,0,1-3.41,1.31,3.977,3.977,0,0,1-2.188-.628,3.612,3.612,0,0,1-1.367-1.709,5.179,5.179,0,0,1-.321-2.443,5.863,5.863,0,0,1,1.6-3.727A4.547,4.547,0,0,1,107.78-9.686ZM105.627-4.6l-.026.518q-.123,1.957,1.2,1.992,1.705.053,1.978-2.764l.035-.8a2.155,2.155,0,0,0-.294-1.259A1.073,1.073,0,0,0,107.6-7.4a1.512,1.512,0,0,0-1.314.654A4.278,4.278,0,0,0,105.627-4.6ZM117.545-5a14.98,14.98,0,0,1-1.1,4,10.938,10.938,0,0,1-2.013,3.164A6.909,6.909,0,0,1,111.8,3.973l-.448-1.494a8.651,8.651,0,0,0,2.659-3.542,18.733,18.733,0,0,0,1.244-5.845l.053-.861q.088-3.612-1.556-4.887l.642-1.459a5.14,5.14,0,0,1,2.373,2.492,10.339,10.339,0,0,1,.914,4.232l.009.554a14.818,14.818,0,0,1-.114,1.591Z" transform="translate(345 9981)" fill="#12263f"/>
    <path id="Trazado_129245" data-name="Trazado 129245" d="M10.4,0H7.488L4.43-8.077,3.023,0H.018L2.232-12.8H5.168L8.218-4.72l1.4-8.077h3.006Zm6.565.176a4.421,4.421,0,0,1-2.272-.6,3.793,3.793,0,0,1-1.507-1.652,4.44,4.44,0,0,1-.4-2.333l.026-.246a5.829,5.829,0,0,1,1.63-3.713,4.51,4.51,0,0,1,3.415-1.314,3.678,3.678,0,0,1,2.092.621A3.468,3.468,0,0,1,21.217-7.4,5.1,5.1,0,0,1,21.48-5.02l-.167,1.206h-5.66A1.854,1.854,0,0,0,16.075-2.6a1.549,1.549,0,0,0,1.178.492,2.993,2.993,0,0,0,2.259-.967l1.213,1.6a3.578,3.578,0,0,1-1.5,1.2,5.263,5.263,0,0,1-2.1.451Zm.7-7.576a1.487,1.487,0,0,0-1.068.385,3.229,3.229,0,0,0-.787,1.347H18.7l.053-.254a1.929,1.929,0,0,0,.018-.577A1.017,1.017,0,0,0,17.666-7.4Zm4.658,2.628a7.226,7.226,0,0,1,.787-2.593,4.564,4.564,0,0,1,1.551-1.753,3.735,3.735,0,0,1,2.109-.576,2.6,2.6,0,0,1,2.162,1.028l.308-.853,2.672.009L30.357-.369a4.467,4.467,0,0,1-1.7,3.05,5.4,5.4,0,0,1-3.568,1.063,5.1,5.1,0,0,1-1.837-.378,3.957,3.957,0,0,1-1.521-1.09L23.106.571a2.489,2.489,0,0,0,1.986.993A2.324,2.324,0,0,0,27.536-.483l.07-.29a2.973,2.973,0,0,1-2.171.949,2.932,2.932,0,0,1-1.608-.461,3.034,3.034,0,0,1-1.09-1.305,5.076,5.076,0,0,1-.448-1.9A8.253,8.253,0,0,1,22.324-4.772Zm2.856.94a2.306,2.306,0,0,0,.29,1.257.984.984,0,0,0,.844.466A1.933,1.933,0,0,0,27.8-2.742l.747-4.034a1.281,1.281,0,0,0-1.178-.633,1.683,1.683,0,0,0-1.415.716,3.861,3.861,0,0,0-.721,1.929Q25.181-4.21,25.181-3.832ZM37.327,0A2.578,2.578,0,0,1,37.2-.861,2.933,2.933,0,0,1,34.875.176,2.866,2.866,0,0,1,32.818-.65a2.483,2.483,0,0,1-.765-1.96,2.79,2.79,0,0,1,1.292-2.377,6.091,6.091,0,0,1,3.41-.831l.967.018.105-.536.035-.466a.755.755,0,0,0-.8-.826,1.111,1.111,0,0,0-1.169,1.046l-2.9.009a2.754,2.754,0,0,1,.624-1.666A3.7,3.7,0,0,1,35.2-9.33a5.512,5.512,0,0,1,2.123-.356,4.251,4.251,0,0,1,1.894.453A2.82,2.82,0,0,1,40.43-8.046a3.031,3.031,0,0,1,.308,1.753l-.712,4.474-.044.545a2.4,2.4,0,0,0,.167,1.107L40.14,0ZM35.675-1.916A1.865,1.865,0,0,0,37.23-2.7l.29-1.529-.747-.009a1.969,1.969,0,0,0-1.2.409,1.55,1.55,0,0,0-.589,1.068.778.778,0,0,0,.136.593A.7.7,0,0,0,35.675-1.916Zm10.046-.193a1.244,1.244,0,0,0,.976-.345,1.717,1.717,0,0,0,.448-.938L49.852-3.4a3.559,3.559,0,0,1-.62,1.872A3.745,3.745,0,0,1,47.7-.25a4.521,4.521,0,0,1-2.061.426,3.57,3.57,0,0,1-2.927-1.367,4.726,4.726,0,0,1-.835-3.441l.026-.211A6.371,6.371,0,0,1,42.715-7.4a4.626,4.626,0,0,1,1.709-1.718,4.433,4.433,0,0,1,2.369-.571,3.536,3.536,0,0,1,2.624,1.059,3.755,3.755,0,0,1,.927,2.764l-2.707-.009q.044-1.5-1.081-1.529Q45.026-7.453,44.8-4.834l-.079.893-.009.333Q44.71-2.136,45.721-2.109ZM53.525,0h-2.9l1.652-9.51h2.9Zm-.993-11.909a1.341,1.341,0,0,1,.453-1.072,1.625,1.625,0,0,1,1.138-.431,1.678,1.678,0,0,1,1.129.387,1.318,1.318,0,0,1,.47,1.011,1.344,1.344,0,0,1-.448,1.077,1.63,1.63,0,0,1-1.143.426,1.7,1.7,0,0,1-1.121-.382A1.3,1.3,0,0,1,52.532-11.909Zm8.376,2.224a3.994,3.994,0,0,1,2.206.637,3.59,3.59,0,0,1,1.367,1.727,5.33,5.33,0,0,1,.312,2.461l-.018.193a5.636,5.636,0,0,1-1.626,3.533,4.575,4.575,0,0,1-3.41,1.31,3.977,3.977,0,0,1-2.188-.628,3.612,3.612,0,0,1-1.367-1.709,5.179,5.179,0,0,1-.321-2.443,5.863,5.863,0,0,1,1.6-3.727A4.547,4.547,0,0,1,60.908-9.686ZM58.755-4.6l-.026.518q-.123,1.957,1.2,1.992,1.705.053,1.978-2.764l.035-.8a2.155,2.155,0,0,0-.294-1.259,1.073,1.073,0,0,0-.918-.487,1.512,1.512,0,0,0-1.314.654A4.278,4.278,0,0,0,58.755-4.6Zm3.2-8.9H65.18l-2.8,2.76-2.531,0Zm7.594,3.981-.2,1.143A3.38,3.38,0,0,1,72.1-9.694a2.27,2.27,0,0,1,1.964.98,4.1,4.1,0,0,1,.47,2.729L73.529,0h-2.9L71.64-6.01a3.108,3.108,0,0,0,.018-.563q-.062-.836-.984-.836a1.807,1.807,0,0,0-1.4.678L68.089,0H65.2L66.85-9.51Z" transform="translate(547 9980)" fill="#12263f"/>
    <path id="Trazado_129247" data-name="Trazado 129247" d="M5.44-3.516,9.36-12.8h3.445L6.618,0H3.331L1.187-12.8H4.438ZM16.233.176a4.421,4.421,0,0,1-2.272-.6,3.793,3.793,0,0,1-1.507-1.652,4.44,4.44,0,0,1-.4-2.333l.026-.246a5.829,5.829,0,0,1,1.63-3.713,4.51,4.51,0,0,1,3.415-1.314,3.678,3.678,0,0,1,2.092.621A3.468,3.468,0,0,1,20.487-7.4a5.1,5.1,0,0,1,.264,2.381l-.167,1.206h-5.66A1.854,1.854,0,0,0,15.346-2.6a1.549,1.549,0,0,0,1.178.492,2.993,2.993,0,0,0,2.259-.967L20-1.472a3.578,3.578,0,0,1-1.5,1.2,5.263,5.263,0,0,1-2.1.451Zm.7-7.576a1.487,1.487,0,0,0-1.068.385,3.229,3.229,0,0,0-.787,1.347h2.892l.053-.254a1.929,1.929,0,0,0,.018-.577A1.017,1.017,0,0,0,16.937-7.4Zm11.03.571a8.273,8.273,0,0,0-.9-.088,2.233,2.233,0,0,0-1.986.9L24.012,0H21.12l1.652-9.51,2.7-.009-.22,1.248a2.64,2.64,0,0,1,2.2-1.441,4.144,4.144,0,0,1,.9.123ZM37.2-4.737A6.891,6.891,0,0,1,35.833-1.1,3.409,3.409,0,0,1,32.968.185,2.522,2.522,0,0,1,30.806-.993L30.445,0H27.826l2.347-13.5h2.892l-.94,4.772a2.87,2.87,0,0,1,2.136-.958,2.679,2.679,0,0,1,2.18,1,4.351,4.351,0,0,1,.826,2.667,9.674,9.674,0,0,1-.044,1.1Zm-2.874-.171A9.1,9.1,0,0,0,34.4-5.926q0-1.413-1.011-1.474a1.732,1.732,0,0,0-1.5.763L31.2-2.846a1.163,1.163,0,0,0,1.2.746q1.415.044,1.784-1.843l.123-.781Zm8.947-4.777a3.994,3.994,0,0,1,2.206.637,3.59,3.59,0,0,1,1.367,1.727,5.33,5.33,0,0,1,.312,2.461l-.018.193A5.636,5.636,0,0,1,45.51-1.134,4.575,4.575,0,0,1,42.1.176a3.977,3.977,0,0,1-2.188-.628,3.612,3.612,0,0,1-1.367-1.709,5.179,5.179,0,0,1-.321-2.443,5.863,5.863,0,0,1,1.6-3.727A4.547,4.547,0,0,1,43.269-9.686ZM41.115-4.6l-.026.518q-.123,1.957,1.2,1.992,1.705.053,1.978-2.764l.035-.8A2.155,2.155,0,0,0,44-6.913a1.073,1.073,0,0,0-.918-.487,1.512,1.512,0,0,0-1.314.654A4.278,4.278,0,0,0,41.115-4.6Z" transform="translate(720 9981)" fill="#12263f"/>
    <path id="Trazado_129249" data-name="Trazado 129249" d="M10.74-4.359a4.614,4.614,0,0,1-.883,2.391A5,5,0,0,1,7.835-.36,6.259,6.259,0,0,1,5.124.176,4.215,4.215,0,0,1,1.969-1.116,5.193,5.193,0,0,1,.712-4.5a11.02,11.02,0,0,1,.312-3.1A8.2,8.2,0,0,1,2.3-10.525a5.855,5.855,0,0,1,2.083-1.863A5.407,5.407,0,0,1,7-12.981a4.577,4.577,0,0,1,3.309,1.257,4.92,4.92,0,0,1,1.323,3.366l-3-.009a2.465,2.465,0,0,0-.422-1.67,1.852,1.852,0,0,0-1.389-.536q-2.373-.079-2.892,3.691A20.283,20.283,0,0,0,3.7-4.447Q3.656-2.285,5.3-2.224A2.348,2.348,0,0,0,7-2.747,2.615,2.615,0,0,0,7.8-4.324Zm6.24-5.326a3.994,3.994,0,0,1,2.206.637,3.59,3.59,0,0,1,1.367,1.727,5.33,5.33,0,0,1,.312,2.461l-.018.193a5.636,5.636,0,0,1-1.626,3.533,4.575,4.575,0,0,1-3.41,1.31,3.977,3.977,0,0,1-2.188-.628,3.612,3.612,0,0,1-1.367-1.709,5.179,5.179,0,0,1-.321-2.443,5.863,5.863,0,0,1,1.6-3.727A4.547,4.547,0,0,1,16.98-9.686ZM14.827-4.6l-.026.518Q14.678-2.127,16-2.092q1.705.053,1.978-2.764l.035-.8a2.155,2.155,0,0,0-.294-1.259A1.073,1.073,0,0,0,16.8-7.4a1.512,1.512,0,0,0-1.314.654A4.278,4.278,0,0,0,14.827-4.6ZM25.69-9.519,25.5-8.376a3.414,3.414,0,0,1,2.777-1.31,2.509,2.509,0,0,1,1.415.4,1.843,1.843,0,0,1,.738,1.028,3.619,3.619,0,0,1,2.892-1.433,2.241,2.241,0,0,1,1.956.989,4.117,4.117,0,0,1,.461,2.711L34.743,0h-2.9l1.011-5.987.035-.518q0-.869-.817-.9a1.872,1.872,0,0,0-1.424.781L29.5,0H26.6l1-5.969.035-.527q0-.9-.817-.9a1.86,1.86,0,0,0-1.406.781L24.24,0H21.349L23-9.51ZM45.853-4.746a7.9,7.9,0,0,1-.782,2.659A4.348,4.348,0,0,1,43.589-.356a3.417,3.417,0,0,1-1.973.541A2.584,2.584,0,0,1,39.595-.8l-.861,4.456H35.842L38.127-9.51,40.8-9.519l-.149.905a2.8,2.8,0,0,1,2.259-1.072,2.662,2.662,0,0,1,2.167.993,4.388,4.388,0,0,1,.831,2.663A10.274,10.274,0,0,1,45.853-4.746ZM43.04-5.924Q43-7.374,42.056-7.4a1.7,1.7,0,0,0-1.521.747l-.677,3.771a1.173,1.173,0,0,0,1.213.782q1.538.026,1.89-2.646Q43.04-5.59,43.04-5.924ZM49.421,0h-2.9l2.338-13.5h2.9Zm6.565.176a4.421,4.421,0,0,1-2.272-.6,3.793,3.793,0,0,1-1.507-1.652,4.44,4.44,0,0,1-.4-2.333l.026-.246a5.829,5.829,0,0,1,1.63-3.713,4.51,4.51,0,0,1,3.415-1.314,3.678,3.678,0,0,1,2.092.621A3.468,3.468,0,0,1,60.24-7.4,5.1,5.1,0,0,1,60.5-5.02l-.167,1.206h-5.66A1.854,1.854,0,0,0,55.1-2.6a1.549,1.549,0,0,0,1.178.492,2.993,2.993,0,0,0,2.259-.967l1.213,1.6a3.578,3.578,0,0,1-1.5,1.2,5.263,5.263,0,0,1-2.1.451Zm.7-7.576a1.487,1.487,0,0,0-1.068.385,3.229,3.229,0,0,0-.787,1.347h2.892l.053-.254A1.929,1.929,0,0,0,57.8-6.5,1.017,1.017,0,0,0,56.689-7.4Zm8.525-2.118-.193,1.143A3.414,3.414,0,0,1,67.8-9.686a2.509,2.509,0,0,1,1.415.4,1.843,1.843,0,0,1,.738,1.028,3.619,3.619,0,0,1,2.892-1.433A2.241,2.241,0,0,1,74.8-8.7a4.117,4.117,0,0,1,.461,2.711L74.268,0h-2.9l1.011-5.987.035-.518q0-.869-.817-.9a1.872,1.872,0,0,0-1.424.781L69.021,0h-2.9l1-5.969.035-.527q0-.9-.817-.9a1.86,1.86,0,0,0-1.406.781L63.765,0H60.873l1.652-9.51ZM80.71.176a4.421,4.421,0,0,1-2.272-.6,3.793,3.793,0,0,1-1.507-1.652,4.44,4.44,0,0,1-.4-2.333l.026-.246a5.829,5.829,0,0,1,1.63-3.713A4.51,4.51,0,0,1,81.6-9.686a3.678,3.678,0,0,1,2.092.621A3.468,3.468,0,0,1,84.964-7.4a5.1,5.1,0,0,1,.264,2.381l-.167,1.206H79.4A1.854,1.854,0,0,0,79.822-2.6,1.549,1.549,0,0,0,81-2.109a2.993,2.993,0,0,0,2.259-.967l1.213,1.6a3.578,3.578,0,0,1-1.5,1.2,5.263,5.263,0,0,1-2.1.451Zm.7-7.576a1.487,1.487,0,0,0-1.068.385,3.229,3.229,0,0,0-.787,1.347H82.45l.053-.254a1.929,1.929,0,0,0,.018-.577A1.017,1.017,0,0,0,81.413-7.4Zm8.455-2.118-.2,1.143a3.38,3.38,0,0,1,2.751-1.318,2.27,2.27,0,0,1,1.964.98,4.1,4.1,0,0,1,.47,2.729L93.85,0h-2.9L91.96-6.01a3.108,3.108,0,0,0,.018-.563q-.062-.836-.984-.836a1.807,1.807,0,0,0-1.4.678L88.409,0H85.518L87.17-9.51Zm11.065-2.355-.413,2.364h1.521l-.36,2.057H100.16l-.738,4.368a1.164,1.164,0,0,0,.057.677q.119.229.593.246a6.873,6.873,0,0,0,.756-.044l-.211,2.145a4.673,4.673,0,0,1-1.556.22,2.563,2.563,0,0,1-2.013-.791,2.7,2.7,0,0,1-.545-2.1l.773-4.72H96.1l.352-2.057h1.178l.413-2.364Zm5.941,2.188a3.994,3.994,0,0,1,2.206.637,3.59,3.59,0,0,1,1.367,1.727,5.33,5.33,0,0,1,.312,2.461l-.018.193a5.636,5.636,0,0,1-1.626,3.533,4.575,4.575,0,0,1-3.41,1.31,3.977,3.977,0,0,1-2.188-.628,3.612,3.612,0,0,1-1.367-1.709,5.179,5.179,0,0,1-.321-2.443,5.863,5.863,0,0,1,1.6-3.727A4.547,4.547,0,0,1,106.875-9.686ZM104.722-4.6l-.026.518q-.123,1.957,1.2,1.992,1.705.053,1.978-2.764l.035-.8a2.155,2.155,0,0,0-.294-1.259,1.073,1.073,0,0,0-.918-.487,1.512,1.512,0,0,0-1.314.654A4.278,4.278,0,0,0,104.722-4.6Z" transform="translate(875 9981)" fill="#12263f"/>
    <path id="Trazado_129242" data-name="Trazado 129242" d="M11.618-13.31h5.333l-.806,4.657H10.828l-1.112,6.3H4.77l1.1-6.3H.516l.806-4.657h5.35l1.063-6.123h4.947Z" transform="translate(300 9986)" fill="#ff5f65"/>
    <path id="Trazado_129244" data-name="Trazado 129244" d="M11.618-13.31h5.333l-.806,4.657H10.828l-1.112,6.3H4.77l1.1-6.3H.516l.806-4.657h5.35l1.063-6.123h4.947Z" transform="translate(497 9986)" fill="#ff5f65"/>
    <path id="Trazado_129246" data-name="Trazado 129246" d="M11.618-13.31h5.333l-.806,4.657H10.828l-1.112,6.3H4.77l1.1-6.3H.516l.806-4.657h5.35l1.063-6.123h4.947Z" transform="translate(658 9986)" fill="#ff5f65"/>
    <path id="Trazado_129248" data-name="Trazado 129248" d="M11.618-13.31h5.333l-.806,4.657H10.828l-1.112,6.3H4.77l1.1-6.3H.516l.806-4.657h5.35l1.063-6.123h4.947Z" transform="translate(817 9986)" fill="#ff5f65"/>
    <path id="Trazado_129250" data-name="Trazado 129250" d="M16.838-11.634H2.32l.741-4.189h14.5ZM15.614-4.56H1.1L1.837-8.75h14.5Z" transform="translate(1020 9987)" fill="#ff5f65"/>
  </g>
</svg>
