<svg xmlns="http://www.w3.org/2000/svg" width="1240" height="87" viewBox="0 0 1240 87">
  <g id="Grupo_94067" data-name="Grupo 94067" transform="translate(-180 -9931)">
    <rect id="Rectángulo_35253" data-name="Rectángulo 35253" width="105" height="86" rx="10" transform="translate(180 9931)" fill="#6b8dff"/>
    <rect id="Rectángulo_35254" data-name="Rectángulo 35254" width="152" height="86" rx="10" transform="translate(330 9931)" fill="#01ac57"/>
    <rect id="Rectángulo_35255" data-name="Rectángulo 35255" width="115" height="86" rx="10" transform="translate(527 9931)" fill="#ff5f65"/>
    <rect id="Rectángulo_35257" data-name="Rectángulo 35257" width="94" height="86" rx="10" transform="translate(696 9931)" fill="#ffd947"/>
    <rect id="Rectángulo_35258" data-name="Rectángulo 35258" width="152" height="86" rx="10" transform="translate(855 9931)" fill="#acade1"/>
    <rect id="Rectángulo_35256" data-name="Rectángulo 35256" width="361" height="86" rx="10" transform="translate(1059 9932)" fill="#3c3fa7"/>
    <path id="Trazado_129270" data-name="Trazado 129270" d="M-18.483-3.4a1.268,1.268,0,0,0-.479-1.055,5.954,5.954,0,0,0-1.683-.782,16.147,16.147,0,0,1-1.969-.782Q-25.1-7.242-25.1-9.378a3.011,3.011,0,0,1,.62-1.876,4.008,4.008,0,0,1,1.753-1.266,6.823,6.823,0,0,1,2.549-.453,5.969,5.969,0,0,1,2.474.492,3.917,3.917,0,0,1,1.7,1.4A3.661,3.661,0,0,1-15.4-9h-3.076a1.547,1.547,0,0,0-.479-1.213,1.867,1.867,0,0,0-1.3-.431,2.106,2.106,0,0,0-1.305.365,1.119,1.119,0,0,0-.479.927,1.127,1.127,0,0,0,.527.892,6.65,6.65,0,0,0,1.854.826,11.36,11.36,0,0,1,2.18.918,3.663,3.663,0,0,1,2.074,3.3A3.125,3.125,0,0,1-16.664-.782a5.629,5.629,0,0,1-3.472.958,6.888,6.888,0,0,1-2.817-.558,4.247,4.247,0,0,1-1.9-1.529,3.985,3.985,0,0,1-.637-2.237h3.094a1.963,1.963,0,0,0,.532,1.516,2.513,2.513,0,0,0,1.727.488,1.985,1.985,0,0,0,1.208-.33A1.088,1.088,0,0,0-18.483-3.4Zm10.2,2.373a3.054,3.054,0,0,1-2.54,1.2A3,3,0,0,1-13.2-.734,3.826,3.826,0,0,1-14-3.349V-9.51h2.962v6.179A1.065,1.065,0,0,0-9.853-2.109,1.548,1.548,0,0,0-8.4-2.839V-9.51h2.979V0H-8.2ZM-.615-9.51V.325a3.452,3.452,0,0,1-.967,2.6,3.714,3.714,0,0,1-2.672.914,6.308,6.308,0,0,1-1.4-.149V1.45a5.667,5.667,0,0,0,.835.079A1.084,1.084,0,0,0-3.586.308V-9.51Zm-3.19-2.452A1.322,1.322,0,0,1-3.349-13a1.724,1.724,0,0,1,1.187-.4A1.724,1.724,0,0,1-.976-13a1.322,1.322,0,0,1,.457,1.037,1.322,1.322,0,0,1-.457,1.037,1.724,1.724,0,0,1-1.187.4,1.724,1.724,0,0,1-1.187-.4A1.322,1.322,0,0,1-3.806-11.962ZM5.66.176A4.889,4.889,0,0,1,2.118-1.129a4.507,4.507,0,0,1-1.354-3.4v-.246a5.84,5.84,0,0,1,.541-2.575A3.955,3.955,0,0,1,2.883-9.075a4.763,4.763,0,0,1,2.461-.611A4.117,4.117,0,0,1,8.508-8.442a4.887,4.887,0,0,1,1.16,3.467v1.151H3.779a2.135,2.135,0,0,0,.694,1.257,2.066,2.066,0,0,0,1.389.457,2.662,2.662,0,0,0,2.2-.984l1.354,1.6A3.784,3.784,0,0,1,7.844-.277,5.3,5.3,0,0,1,5.66.176ZM5.326-7.4q-1.3,0-1.547,1.723H6.768v-.229a1.467,1.467,0,0,0-.36-1.1A1.434,1.434,0,0,0,5.326-7.4Zm8.982-4.474V-9.51h1.564v2.057H14.309V-3.1a1.111,1.111,0,0,0,.193.747,1.037,1.037,0,0,0,.765.211A4.345,4.345,0,0,0,16-2.2V-.079a5.466,5.466,0,0,1-1.67.255,3.1,3.1,0,0,1-2.259-.721,2.954,2.954,0,0,1-.729-2.188v-4.72H10.134V-9.51h1.213v-2.364ZM16.4-4.843a5.613,5.613,0,0,1,.554-2.536,3.96,3.96,0,0,1,1.591-1.709,4.791,4.791,0,0,1,2.435-.6,4.373,4.373,0,0,1,3.366,1.323,5.076,5.076,0,0,1,1.23,3.6v.105a4.925,4.925,0,0,1-1.235,3.529A4.384,4.384,0,0,1,21,.176a4.434,4.434,0,0,1-3.261-1.217,4.761,4.761,0,0,1-1.327-3.3Zm2.962.185a3.538,3.538,0,0,0,.413,1.934A1.376,1.376,0,0,0,21-2.109q1.582,0,1.617-2.435v-.3q0-2.558-1.635-2.558-1.485,0-1.608,2.206Z" transform="translate(234 9980)" fill="#12263f"/>
    <path id="Trazado_129260" data-name="Trazado 129260" d="M10.74-4.359a4.614,4.614,0,0,1-.883,2.391A5,5,0,0,1,7.835-.36,6.259,6.259,0,0,1,5.124.176,4.215,4.215,0,0,1,1.969-1.116,5.193,5.193,0,0,1,.712-4.5a11.02,11.02,0,0,1,.312-3.1A8.2,8.2,0,0,1,2.3-10.525a5.855,5.855,0,0,1,2.083-1.863A5.407,5.407,0,0,1,7-12.981a4.577,4.577,0,0,1,3.309,1.257,4.92,4.92,0,0,1,1.323,3.366l-3-.009a2.465,2.465,0,0,0-.422-1.67,1.852,1.852,0,0,0-1.389-.536q-2.373-.079-2.892,3.691A20.283,20.283,0,0,0,3.7-4.447Q3.656-2.285,5.3-2.224A2.348,2.348,0,0,0,7-2.747,2.615,2.615,0,0,0,7.8-4.324Zm4.878-4.113A3.107,3.107,0,0,1,18.07-9.694a2.472,2.472,0,0,1,2.123,1.046,3.981,3.981,0,0,1,.5,2.742L19.705,0H16.813l.993-5.948a3.079,3.079,0,0,0,.018-.563.878.878,0,0,0-.967-.9,1.873,1.873,0,0,0-1.389.572L14.256,0H11.364l2.347-13.5H16.6ZM26.736,0a2.578,2.578,0,0,1-.123-.861A2.933,2.933,0,0,1,24.284.176,2.866,2.866,0,0,1,22.228-.65a2.483,2.483,0,0,1-.765-1.96,2.79,2.79,0,0,1,1.292-2.377,6.091,6.091,0,0,1,3.41-.831l.967.018.105-.536.035-.466a.755.755,0,0,0-.8-.826A1.111,1.111,0,0,0,25.3-6.583l-2.9.009a2.754,2.754,0,0,1,.624-1.666A3.7,3.7,0,0,1,24.6-9.33a5.512,5.512,0,0,1,2.123-.356,4.251,4.251,0,0,1,1.894.453,2.82,2.82,0,0,1,1.217,1.187,3.031,3.031,0,0,1,.308,1.753l-.712,4.474-.044.545a2.4,2.4,0,0,0,.167,1.107L29.549,0ZM25.084-1.916A1.865,1.865,0,0,0,26.64-2.7l.29-1.529-.747-.009a1.969,1.969,0,0,0-1.2.409A1.55,1.55,0,0,0,24.4-2.76a.778.778,0,0,0,.136.593A.7.7,0,0,0,25.084-1.916ZM37.591-6.829a8.273,8.273,0,0,0-.9-.088,2.233,2.233,0,0,0-1.986.9L33.636,0H30.744L32.4-9.51l2.7-.009-.22,1.248a2.64,2.64,0,0,1,2.2-1.441,4.144,4.144,0,0,1,.9.123ZM40.482,0h-2.9L39.92-13.5h2.9Zm6.565.176a4.421,4.421,0,0,1-2.272-.6,3.793,3.793,0,0,1-1.507-1.652,4.44,4.44,0,0,1-.4-2.333l.026-.246a5.829,5.829,0,0,1,1.63-3.713,4.51,4.51,0,0,1,3.415-1.314,3.678,3.678,0,0,1,2.092.621A3.468,3.468,0,0,1,51.3-7.4a5.1,5.1,0,0,1,.264,2.381L51.4-3.814h-5.66A1.854,1.854,0,0,0,46.16-2.6a1.549,1.549,0,0,0,1.178.492A2.993,2.993,0,0,0,49.6-3.076l1.213,1.6a3.578,3.578,0,0,1-1.5,1.2,5.263,5.263,0,0,1-2.1.451Zm.7-7.576a1.487,1.487,0,0,0-1.068.385A3.229,3.229,0,0,0,45.9-5.669h2.892l.053-.254a1.929,1.929,0,0,0,.018-.577A1.017,1.017,0,0,0,47.751-7.4Zm9.527,4.676q.114-.58-.9-.87l-.624-.158a4.806,4.806,0,0,1-2.241-1.134,2.244,2.244,0,0,1-.668-1.731,2.758,2.758,0,0,1,1.217-2.228,4.633,4.633,0,0,1,2.861-.839,4.292,4.292,0,0,1,2.72.853,2.781,2.781,0,0,1,1.059,2.25l-2.883-.009q.035-1.125-.993-1.125a1.417,1.417,0,0,0-.817.259,1.007,1.007,0,0,0-.448.69q-.149.712,1.257.976a7.3,7.3,0,0,1,1.89.672,2.821,2.821,0,0,1,1.02.945,2.35,2.35,0,0,1,.325,1.354,2.541,2.541,0,0,1-.562,1.538A3.642,3.642,0,0,1,57.942-.2a5.557,5.557,0,0,1-2.2.378,4.469,4.469,0,0,1-1.912-.431A3.408,3.408,0,0,1,52.449-1.4a2.979,2.979,0,0,1-.514-1.666l2.689.018A1.111,1.111,0,0,0,55.89-1.8a1.661,1.661,0,0,0,.914-.242A1.045,1.045,0,0,0,57.278-2.725Zm8.587-2.048a6.917,6.917,0,0,1,1.371-3.6A3.4,3.4,0,0,1,70.1-9.686a2.592,2.592,0,0,1,2.013,1.02l.923-4.834h2.9L73.6,0H71.024l.123-1.028A2.968,2.968,0,0,1,68.783.185,2.62,2.62,0,0,1,66.634-.831,4.476,4.476,0,0,1,65.8-3.507a8.231,8.231,0,0,1,.035-1.081Zm2.883.2a6.9,6.9,0,0,0-.062.984q0,1.459.984,1.485a1.844,1.844,0,0,0,1.521-.817l.65-3.647a1.171,1.171,0,0,0-1.16-.835,1.478,1.478,0,0,0-1.305.7A4.507,4.507,0,0,0,68.748-4.57ZM80.842-9.686a3.994,3.994,0,0,1,2.206.637,3.59,3.59,0,0,1,1.367,1.727,5.33,5.33,0,0,1,.312,2.461l-.018.193a5.636,5.636,0,0,1-1.626,3.533,4.575,4.575,0,0,1-3.41,1.31,3.977,3.977,0,0,1-2.188-.628,3.612,3.612,0,0,1-1.367-1.709A5.179,5.179,0,0,1,75.8-4.605a5.863,5.863,0,0,1,1.6-3.727A4.547,4.547,0,0,1,80.842-9.686ZM78.688-4.6l-.026.518q-.123,1.957,1.2,1.992,1.705.053,1.978-2.764l.035-.8a2.155,2.155,0,0,0-.294-1.259,1.073,1.073,0,0,0-.918-.487,1.512,1.512,0,0,0-1.314.654A4.278,4.278,0,0,0,78.688-4.6ZM89.921.176a4.421,4.421,0,0,1-2.272-.6,3.793,3.793,0,0,1-1.507-1.652,4.44,4.44,0,0,1-.4-2.333l.026-.246a5.829,5.829,0,0,1,1.63-3.713,4.51,4.51,0,0,1,3.415-1.314,3.678,3.678,0,0,1,2.092.621A3.468,3.468,0,0,1,94.175-7.4a5.1,5.1,0,0,1,.264,2.381l-.167,1.206h-5.66A1.854,1.854,0,0,0,89.033-2.6a1.549,1.549,0,0,0,1.178.492,2.993,2.993,0,0,0,2.259-.967l1.213,1.6a3.578,3.578,0,0,1-1.5,1.2,5.263,5.263,0,0,1-2.1.451Zm.7-7.576a1.487,1.487,0,0,0-1.068.385,3.229,3.229,0,0,0-.787,1.347h2.892l.053-.254a1.929,1.929,0,0,0,.018-.577A1.017,1.017,0,0,0,90.624-7.4Zm9.527,4.676q.114-.58-.9-.87l-.624-.158A4.806,4.806,0,0,1,96.39-4.887a2.244,2.244,0,0,1-.668-1.731,2.758,2.758,0,0,1,1.217-2.228A4.633,4.633,0,0,1,99.8-9.686a4.292,4.292,0,0,1,2.72.853,2.781,2.781,0,0,1,1.059,2.25L100.7-6.592q.035-1.125-.993-1.125a1.417,1.417,0,0,0-.817.259,1.007,1.007,0,0,0-.448.69q-.149.712,1.257.976a7.3,7.3,0,0,1,1.89.672,2.821,2.821,0,0,1,1.02.945,2.35,2.35,0,0,1,.325,1.354,2.541,2.541,0,0,1-.562,1.538A3.642,3.642,0,0,1,100.815-.2a5.557,5.557,0,0,1-2.2.378A4.469,4.469,0,0,1,96.7-.255,3.408,3.408,0,0,1,95.322-1.4a2.979,2.979,0,0,1-.514-1.666L97.5-3.05A1.111,1.111,0,0,0,98.763-1.8a1.661,1.661,0,0,0,.914-.242A1.045,1.045,0,0,0,100.151-2.725Zm12.4-6.794-.2,1.143A3.38,3.38,0,0,1,115.1-9.694a2.27,2.27,0,0,1,1.964.98,4.1,4.1,0,0,1,.47,2.729l-1,5.985h-2.9l1.011-6.01a3.108,3.108,0,0,0,.018-.563q-.062-.836-.984-.836a1.807,1.807,0,0,0-1.4.678L111.094,0H108.2l1.652-9.51Zm11.188-.167a3.994,3.994,0,0,1,2.206.637,3.59,3.59,0,0,1,1.367,1.727,5.33,5.33,0,0,1,.312,2.461l-.018.193a5.636,5.636,0,0,1-1.626,3.533,4.575,4.575,0,0,1-3.41,1.31,3.977,3.977,0,0,1-2.188-.628,3.612,3.612,0,0,1-1.367-1.709,5.179,5.179,0,0,1-.321-2.443,5.863,5.863,0,0,1,1.6-3.727A4.547,4.547,0,0,1,123.741-9.686ZM121.588-4.6l-.026.518q-.123,1.957,1.2,1.992,1.705.053,1.978-2.764l.035-.8a2.155,2.155,0,0,0-.294-1.259,1.073,1.073,0,0,0-.918-.487,1.512,1.512,0,0,0-1.314.654A4.278,4.278,0,0,0,121.588-4.6Zm11.927-7.273L133.1-9.51h1.521l-.36,2.057h-1.521L132-3.085a1.164,1.164,0,0,0,.057.677q.119.229.593.246a6.873,6.873,0,0,0,.756-.044L133.2-.062a4.673,4.673,0,0,1-1.556.22,2.563,2.563,0,0,1-2.013-.791,2.7,2.7,0,0,1-.545-2.1l.773-4.72h-1.178l.352-2.057h1.178l.413-2.364ZM143.341.176a4.421,4.421,0,0,1-2.272-.6,3.793,3.793,0,0,1-1.507-1.652,4.44,4.44,0,0,1-.4-2.333l.026-.246a5.829,5.829,0,0,1,1.63-3.713,4.51,4.51,0,0,1,3.415-1.314,3.678,3.678,0,0,1,2.092.621A3.468,3.468,0,0,1,147.595-7.4a5.1,5.1,0,0,1,.264,2.381l-.167,1.206h-5.66a1.854,1.854,0,0,0,.422,1.213,1.549,1.549,0,0,0,1.178.492,2.993,2.993,0,0,0,2.259-.967l1.213,1.6a3.578,3.578,0,0,1-1.5,1.2,5.263,5.263,0,0,1-2.1.451Zm.7-7.576a1.487,1.487,0,0,0-1.068.385,3.229,3.229,0,0,0-.787,1.347h2.892l.053-.254a1.929,1.929,0,0,0,.018-.577A1.017,1.017,0,0,0,144.044-7.4ZM152.5-9.519l-.2,1.143a3.38,3.38,0,0,1,2.751-1.318,2.27,2.27,0,0,1,1.964.98,4.1,4.1,0,0,1,.47,2.729L156.48,0h-2.9l1.011-6.01a3.108,3.108,0,0,0,.018-.563q-.062-.836-.984-.836a1.807,1.807,0,0,0-1.4.678L151.04,0h-2.892L149.8-9.51Zm10.4.009L161.235.3a4.036,4.036,0,0,1-1.283,2.641,3.9,3.9,0,0,1-2.725.927,9.186,9.186,0,0,1-1.45-.167l.237-2.25a3.9,3.9,0,0,0,.8.105A1.407,1.407,0,0,0,158.326.2L160-9.51Zm-2.681-2.4a1.326,1.326,0,0,1,.457-1.075,1.646,1.646,0,0,1,1.134-.423,1.6,1.6,0,0,1,1.125.375,1.332,1.332,0,0,1,.475,1.018,1.35,1.35,0,0,1-.435,1.058,1.67,1.67,0,0,1-1.156.45,1.667,1.667,0,0,1-1.125-.392A1.323,1.323,0,0,1,160.216-11.913Zm8.271,2.228a3.994,3.994,0,0,1,2.206.637,3.59,3.59,0,0,1,1.367,1.727,5.33,5.33,0,0,1,.312,2.461l-.018.193a5.636,5.636,0,0,1-1.626,3.533,4.575,4.575,0,0,1-3.41,1.31,3.977,3.977,0,0,1-2.188-.628,3.612,3.612,0,0,1-1.367-1.709,5.179,5.179,0,0,1-.321-2.443,5.863,5.863,0,0,1,1.6-3.727A4.547,4.547,0,0,1,168.486-9.686ZM166.333-4.6l-.026.518q-.123,1.957,1.2,1.992,1.705.053,1.978-2.764l.035-.8a2.155,2.155,0,0,0-.294-1.259A1.073,1.073,0,0,0,168.3-7.4a1.512,1.512,0,0,0-1.314.654A4.278,4.278,0,0,0,166.333-4.6Zm10.74.418,2.461-5.326h3.19L177.152,1.424a4.765,4.765,0,0,1-1.437,1.868,3.266,3.266,0,0,1-1.938.576,5.473,5.473,0,0,1-1.274-.193l.22-2.118h.334a2.394,2.394,0,0,0,.94-.171,1.432,1.432,0,0,0,.677-.664l.413-.791L173.566-9.51h2.988ZM193.14-6.829a8.273,8.273,0,0,0-.9-.088,2.233,2.233,0,0,0-1.986.9L189.185,0h-2.892l1.652-9.51,2.7-.009-.22,1.248a2.64,2.64,0,0,1,2.2-1.441,4.144,4.144,0,0,1,.9.123Zm5.071-2.856a3.994,3.994,0,0,1,2.206.637,3.59,3.59,0,0,1,1.367,1.727A5.33,5.33,0,0,1,202.1-4.86l-.018.193a5.636,5.636,0,0,1-1.626,3.533,4.575,4.575,0,0,1-3.41,1.31,3.977,3.977,0,0,1-2.188-.628,3.612,3.612,0,0,1-1.367-1.709,5.179,5.179,0,0,1-.321-2.443,5.863,5.863,0,0,1,1.6-3.727A4.547,4.547,0,0,1,198.211-9.686ZM196.058-4.6l-.026.518q-.123,1.957,1.2,1.992,1.705.053,1.978-2.764l.035-.8a2.155,2.155,0,0,0-.294-1.259,1.073,1.073,0,0,0-.918-.487,1.512,1.512,0,0,0-1.314.654A4.278,4.278,0,0,0,196.058-4.6Zm10.863-4.917-.193,1.143a3.414,3.414,0,0,1,2.777-1.31,2.509,2.509,0,0,1,1.415.4,1.843,1.843,0,0,1,.738,1.028,3.619,3.619,0,0,1,2.892-1.433,2.241,2.241,0,0,1,1.956.989,4.117,4.117,0,0,1,.461,2.711L215.974,0h-2.9l1.011-5.987.035-.518q0-.869-.817-.9a1.872,1.872,0,0,0-1.424.781L210.727,0h-2.9l1-5.969.035-.527q0-.9-.817-.9a1.86,1.86,0,0,0-1.406.781L205.471,0h-2.892l1.652-9.51ZM223.049,0a2.578,2.578,0,0,1-.123-.861A2.933,2.933,0,0,1,220.6.176,2.866,2.866,0,0,1,218.54-.65a2.483,2.483,0,0,1-.765-1.96,2.79,2.79,0,0,1,1.292-2.377,6.091,6.091,0,0,1,3.41-.831l.967.018.105-.536.035-.466a.755.755,0,0,0-.8-.826,1.111,1.111,0,0,0-1.169,1.046l-2.9.009a2.754,2.754,0,0,1,.624-1.666,3.7,3.7,0,0,1,1.578-1.09,5.512,5.512,0,0,1,2.123-.356,4.251,4.251,0,0,1,1.894.453,2.82,2.82,0,0,1,1.217,1.187,3.031,3.031,0,0,1,.308,1.753l-.712,4.474-.044.545a2.4,2.4,0,0,0,.167,1.107L225.861,0ZM221.4-1.916a1.865,1.865,0,0,0,1.556-.782l.29-1.529-.747-.009a1.969,1.969,0,0,0-1.2.409,1.55,1.55,0,0,0-.589,1.068.778.778,0,0,0,.136.593A.7.7,0,0,0,221.4-1.916Zm9.932-7.6-.2,1.143a3.38,3.38,0,0,1,2.751-1.318,2.27,2.27,0,0,1,1.964.98,4.1,4.1,0,0,1,.47,2.729L235.31,0h-2.9l1.011-6.01a3.108,3.108,0,0,0,.018-.563q-.062-.836-.984-.836a1.807,1.807,0,0,0-1.4.678L229.869,0h-2.892l1.652-9.51Zm11.065-2.355L241.98-9.51H243.5l-.36,2.057H241.62l-.738,4.368a1.164,1.164,0,0,0,.057.677q.119.229.593.246a6.873,6.873,0,0,0,.756-.044l-.211,2.145a4.673,4.673,0,0,1-1.556.22,2.563,2.563,0,0,1-2.013-.791,2.7,2.7,0,0,1-.545-2.1l.773-4.72H237.56l.352-2.057h1.178l.413-2.364ZM246.1,0h-2.9l1.652-9.51h2.9Zm-.993-11.909a1.341,1.341,0,0,1,.453-1.072,1.625,1.625,0,0,1,1.138-.431,1.678,1.678,0,0,1,1.129.387,1.318,1.318,0,0,1,.47,1.011,1.344,1.344,0,0,1-.448,1.077,1.63,1.63,0,0,1-1.143.426,1.7,1.7,0,0,1-1.121-.382A1.3,1.3,0,0,1,245.109-11.909Zm7.233,9.8a1.244,1.244,0,0,0,.976-.345,1.717,1.717,0,0,0,.448-.938l2.707-.009a3.559,3.559,0,0,1-.62,1.872A3.745,3.745,0,0,1,254.325-.25a4.521,4.521,0,0,1-2.061.426,3.57,3.57,0,0,1-2.927-1.367,4.726,4.726,0,0,1-.835-3.441l.026-.211a6.371,6.371,0,0,1,.809-2.553,4.626,4.626,0,0,1,1.709-1.718,4.433,4.433,0,0,1,2.369-.571,3.536,3.536,0,0,1,2.624,1.059,3.755,3.755,0,0,1,.927,2.764l-2.707-.009q.044-1.5-1.081-1.529-1.529-.053-1.758,2.567l-.079.893-.009.333Q251.332-2.136,252.343-2.109ZM265.9-9.519,265.7-8.376a3.414,3.414,0,0,1,2.777-1.31,2.509,2.509,0,0,1,1.415.4,1.843,1.843,0,0,1,.738,1.028,3.619,3.619,0,0,1,2.892-1.433,2.241,2.241,0,0,1,1.956.989,4.117,4.117,0,0,1,.461,2.711L274.948,0h-2.9l1.011-5.987.035-.518q0-.869-.817-.9a1.872,1.872,0,0,0-1.424.781L269.7,0h-2.9l1-5.969.035-.527q0-.9-.817-.9a1.86,1.86,0,0,0-1.406.781L264.445,0h-2.892l1.652-9.51Zm16.646,8.481A3.148,3.148,0,0,1,279.976.185a2.492,2.492,0,0,1-2.1-.976,3.6,3.6,0,0,1-.549-2.566L278.35-9.51h2.892L280.2-3.315a2.064,2.064,0,0,0,0,.466.766.766,0,0,0,.853.748,1.868,1.868,0,0,0,1.556-.722l1.178-6.688h2.909L285.038,0h-2.689Zm9.413-1.687q.114-.58-.9-.87l-.624-.158a4.806,4.806,0,0,1-2.241-1.134,2.244,2.244,0,0,1-.668-1.731,2.758,2.758,0,0,1,1.217-2.228,4.633,4.633,0,0,1,2.861-.839,4.292,4.292,0,0,1,2.72.853,2.781,2.781,0,0,1,1.059,2.25L292.5-6.592q.035-1.125-.993-1.125a1.417,1.417,0,0,0-.817.259,1.007,1.007,0,0,0-.448.69q-.149.712,1.257.976a7.3,7.3,0,0,1,1.89.672,2.821,2.821,0,0,1,1.02.945,2.35,2.35,0,0,1,.325,1.354,2.541,2.541,0,0,1-.562,1.538A3.642,3.642,0,0,1,292.619-.2a5.557,5.557,0,0,1-2.2.378,4.469,4.469,0,0,1-1.912-.431,3.408,3.408,0,0,1-1.38-1.147,2.979,2.979,0,0,1-.514-1.666l2.689.018A1.111,1.111,0,0,0,290.566-1.8a1.661,1.661,0,0,0,.914-.242A1.045,1.045,0,0,0,291.955-2.725ZM298.679,0h-2.9l1.652-9.51h2.9Zm-.993-11.909a1.341,1.341,0,0,1,.453-1.072,1.625,1.625,0,0,1,1.138-.431,1.678,1.678,0,0,1,1.129.387,1.318,1.318,0,0,1,.47,1.011,1.344,1.344,0,0,1-.448,1.077,1.63,1.63,0,0,1-1.143.426,1.7,1.7,0,0,1-1.121-.382A1.3,1.3,0,0,1,297.686-11.909Zm7.233,9.8a1.244,1.244,0,0,0,.976-.345,1.717,1.717,0,0,0,.448-.938L309.05-3.4a3.559,3.559,0,0,1-.62,1.872A3.745,3.745,0,0,1,306.9-.25a4.521,4.521,0,0,1-2.061.426,3.57,3.57,0,0,1-2.927-1.367,4.726,4.726,0,0,1-.835-3.441l.026-.211a6.371,6.371,0,0,1,.809-2.553,4.626,4.626,0,0,1,1.709-1.718,4.433,4.433,0,0,1,2.369-.571,3.536,3.536,0,0,1,2.624,1.059,3.755,3.755,0,0,1,.927,2.764l-2.707-.009q.044-1.5-1.081-1.529Q304.225-7.453,304-4.834l-.079.893-.009.333Q303.908-2.136,304.919-2.109Zm5.2.773a1.391,1.391,0,0,1,.457-1.107,1.611,1.611,0,0,1,1.134-.439,1.624,1.624,0,0,1,1.107.4,1.372,1.372,0,0,1,.475,1.042,1.406,1.406,0,0,1-.448,1.1A1.594,1.594,0,0,1,311.7.105a1.6,1.6,0,0,1-1.116-.4A1.389,1.389,0,0,1,310.122-1.336Z" transform="translate(1089 9969)" fill="#fff"/>
    <path id="Trazado_129259" data-name="Trazado 129259" d="M10.74-4.359a4.614,4.614,0,0,1-.883,2.391A5,5,0,0,1,7.835-.36,6.259,6.259,0,0,1,5.124.176,4.215,4.215,0,0,1,1.969-1.116,5.193,5.193,0,0,1,.712-4.5a11.02,11.02,0,0,1,.312-3.1A8.2,8.2,0,0,1,2.3-10.525a5.855,5.855,0,0,1,2.083-1.863A5.407,5.407,0,0,1,7-12.981a4.577,4.577,0,0,1,3.309,1.257,4.92,4.92,0,0,1,1.323,3.366l-3-.009a2.465,2.465,0,0,0-.422-1.67,1.852,1.852,0,0,0-1.389-.536q-2.373-.079-2.892,3.691A20.283,20.283,0,0,0,3.7-4.447Q3.656-2.285,5.3-2.224A2.348,2.348,0,0,0,7-2.747,2.615,2.615,0,0,0,7.8-4.324Zm4.878-4.113A3.107,3.107,0,0,1,18.07-9.694a2.472,2.472,0,0,1,2.123,1.046,3.981,3.981,0,0,1,.5,2.742L19.705,0H16.813l.993-5.948a3.079,3.079,0,0,0,.018-.563.878.878,0,0,0-.967-.9,1.873,1.873,0,0,0-1.389.572L14.256,0H11.364l2.347-13.5H16.6ZM26.736,0a2.578,2.578,0,0,1-.123-.861A2.933,2.933,0,0,1,24.284.176,2.866,2.866,0,0,1,22.228-.65a2.483,2.483,0,0,1-.765-1.96,2.79,2.79,0,0,1,1.292-2.377,6.091,6.091,0,0,1,3.41-.831l.967.018.105-.536.035-.466a.755.755,0,0,0-.8-.826A1.111,1.111,0,0,0,25.3-6.583l-2.9.009a2.754,2.754,0,0,1,.624-1.666A3.7,3.7,0,0,1,24.6-9.33a5.512,5.512,0,0,1,2.123-.356,4.251,4.251,0,0,1,1.894.453,2.82,2.82,0,0,1,1.217,1.187,3.031,3.031,0,0,1,.308,1.753l-.712,4.474-.044.545a2.4,2.4,0,0,0,.167,1.107L29.549,0ZM25.084-1.916A1.865,1.865,0,0,0,26.64-2.7l.29-1.529-.747-.009a1.969,1.969,0,0,0-1.2.409A1.55,1.55,0,0,0,24.4-2.76a.778.778,0,0,0,.136.593A.7.7,0,0,0,25.084-1.916ZM37.591-6.829a8.273,8.273,0,0,0-.9-.088,2.233,2.233,0,0,0-1.986.9L33.636,0H30.744L32.4-9.51l2.7-.009-.22,1.248a2.64,2.64,0,0,1,2.2-1.441,4.144,4.144,0,0,1,.9.123ZM40.482,0h-2.9L39.92-13.5h2.9Zm6.565.176a4.421,4.421,0,0,1-2.272-.6,3.793,3.793,0,0,1-1.507-1.652,4.44,4.44,0,0,1-.4-2.333l.026-.246a5.829,5.829,0,0,1,1.63-3.713,4.51,4.51,0,0,1,3.415-1.314,3.678,3.678,0,0,1,2.092.621A3.468,3.468,0,0,1,51.3-7.4a5.1,5.1,0,0,1,.264,2.381L51.4-3.814h-5.66A1.854,1.854,0,0,0,46.16-2.6a1.549,1.549,0,0,0,1.178.492A2.993,2.993,0,0,0,49.6-3.076l1.213,1.6a3.578,3.578,0,0,1-1.5,1.2,5.263,5.263,0,0,1-2.1.451Zm.7-7.576a1.487,1.487,0,0,0-1.068.385A3.229,3.229,0,0,0,45.9-5.669h2.892l.053-.254a1.929,1.929,0,0,0,.018-.577A1.017,1.017,0,0,0,47.751-7.4Zm9.527,4.676q.114-.58-.9-.87l-.624-.158a4.806,4.806,0,0,1-2.241-1.134,2.244,2.244,0,0,1-.668-1.731,2.758,2.758,0,0,1,1.217-2.228,4.633,4.633,0,0,1,2.861-.839,4.292,4.292,0,0,1,2.72.853,2.781,2.781,0,0,1,1.059,2.25l-2.883-.009q.035-1.125-.993-1.125a1.417,1.417,0,0,0-.817.259,1.007,1.007,0,0,0-.448.69q-.149.712,1.257.976a7.3,7.3,0,0,1,1.89.672,2.821,2.821,0,0,1,1.02.945,2.35,2.35,0,0,1,.325,1.354,2.541,2.541,0,0,1-.562,1.538A3.642,3.642,0,0,1,57.942-.2a5.557,5.557,0,0,1-2.2.378,4.469,4.469,0,0,1-1.912-.431A3.408,3.408,0,0,1,52.449-1.4a2.979,2.979,0,0,1-.514-1.666l2.689.018A1.111,1.111,0,0,0,55.89-1.8a1.661,1.661,0,0,0,.914-.242A1.045,1.045,0,0,0,57.278-2.725Zm8.587-2.048a6.917,6.917,0,0,1,1.371-3.6A3.4,3.4,0,0,1,70.1-9.686a2.592,2.592,0,0,1,2.013,1.02l.923-4.834h2.9L73.6,0H71.024l.123-1.028A2.968,2.968,0,0,1,68.783.185,2.62,2.62,0,0,1,66.634-.831,4.476,4.476,0,0,1,65.8-3.507a8.231,8.231,0,0,1,.035-1.081Zm2.883.2a6.9,6.9,0,0,0-.062.984q0,1.459.984,1.485a1.844,1.844,0,0,0,1.521-.817l.65-3.647a1.171,1.171,0,0,0-1.16-.835,1.478,1.478,0,0,0-1.305.7A4.507,4.507,0,0,0,68.748-4.57ZM80.842-9.686a3.994,3.994,0,0,1,2.206.637,3.59,3.59,0,0,1,1.367,1.727,5.33,5.33,0,0,1,.312,2.461l-.018.193a5.636,5.636,0,0,1-1.626,3.533,4.575,4.575,0,0,1-3.41,1.31,3.977,3.977,0,0,1-2.188-.628,3.612,3.612,0,0,1-1.367-1.709A5.179,5.179,0,0,1,75.8-4.605a5.863,5.863,0,0,1,1.6-3.727A4.547,4.547,0,0,1,80.842-9.686ZM78.688-4.6l-.026.518q-.123,1.957,1.2,1.992,1.705.053,1.978-2.764l.035-.8a2.155,2.155,0,0,0-.294-1.259,1.073,1.073,0,0,0-.918-.487,1.512,1.512,0,0,0-1.314.654A4.278,4.278,0,0,0,78.688-4.6ZM89.921.176a4.421,4.421,0,0,1-2.272-.6,3.793,3.793,0,0,1-1.507-1.652,4.44,4.44,0,0,1-.4-2.333l.026-.246a5.829,5.829,0,0,1,1.63-3.713,4.51,4.51,0,0,1,3.415-1.314,3.678,3.678,0,0,1,2.092.621A3.468,3.468,0,0,1,94.175-7.4a5.1,5.1,0,0,1,.264,2.381l-.167,1.206h-5.66A1.854,1.854,0,0,0,89.033-2.6a1.549,1.549,0,0,0,1.178.492,2.993,2.993,0,0,0,2.259-.967l1.213,1.6a3.578,3.578,0,0,1-1.5,1.2,5.263,5.263,0,0,1-2.1.451Zm.7-7.576a1.487,1.487,0,0,0-1.068.385,3.229,3.229,0,0,0-.787,1.347h2.892l.053-.254a1.929,1.929,0,0,0,.018-.577A1.017,1.017,0,0,0,90.624-7.4Zm9.527,4.676q.114-.58-.9-.87l-.624-.158A4.806,4.806,0,0,1,96.39-4.887a2.244,2.244,0,0,1-.668-1.731,2.758,2.758,0,0,1,1.217-2.228A4.633,4.633,0,0,1,99.8-9.686a4.292,4.292,0,0,1,2.72.853,2.781,2.781,0,0,1,1.059,2.25L100.7-6.592q.035-1.125-.993-1.125a1.417,1.417,0,0,0-.817.259,1.007,1.007,0,0,0-.448.69q-.149.712,1.257.976a7.3,7.3,0,0,1,1.89.672,2.821,2.821,0,0,1,1.02.945,2.35,2.35,0,0,1,.325,1.354,2.541,2.541,0,0,1-.562,1.538A3.642,3.642,0,0,1,100.815-.2a5.557,5.557,0,0,1-2.2.378A4.469,4.469,0,0,1,96.7-.255,3.408,3.408,0,0,1,95.322-1.4a2.979,2.979,0,0,1-.514-1.666L97.5-3.05A1.111,1.111,0,0,0,98.763-1.8a1.661,1.661,0,0,0,.914-.242A1.045,1.045,0,0,0,100.151-2.725Zm7.963-6.794-.2,1.143a3.38,3.38,0,0,1,2.751-1.318,2.27,2.27,0,0,1,1.964.98,4.1,4.1,0,0,1,.47,2.729L112.1,0h-2.9l1.011-6.01a3.108,3.108,0,0,0,.018-.563q-.062-.836-.984-.836a1.807,1.807,0,0,0-1.4.678L106.655,0h-2.892l1.652-9.51Zm9.4-3.981h3.226l-2.8,2.76-2.531,0Zm7.638,1.626-.413,2.364h1.521l-.36,2.057h-1.521l-.738,4.368a1.164,1.164,0,0,0,.057.677q.119.229.593.246a6.873,6.873,0,0,0,.756-.044L124.84-.062a4.673,4.673,0,0,1-1.556.22,2.563,2.563,0,0,1-2.013-.791,2.7,2.7,0,0,1-.545-2.1l.773-4.72h-1.178l.352-2.057h1.178l.413-2.364ZM134.982.176a4.421,4.421,0,0,1-2.272-.6A3.793,3.793,0,0,1,131.2-2.079a4.44,4.44,0,0,1-.4-2.333l.026-.246a5.829,5.829,0,0,1,1.63-3.713,4.51,4.51,0,0,1,3.415-1.314,3.678,3.678,0,0,1,2.092.621A3.468,3.468,0,0,1,139.236-7.4,5.1,5.1,0,0,1,139.5-5.02l-.167,1.206h-5.66a1.854,1.854,0,0,0,.422,1.213,1.549,1.549,0,0,0,1.178.492,2.993,2.993,0,0,0,2.259-.967l1.213,1.6a3.578,3.578,0,0,1-1.5,1.2,5.263,5.263,0,0,1-2.1.451Zm.7-7.576a1.487,1.487,0,0,0-1.068.385,3.229,3.229,0,0,0-.787,1.347h2.892l.053-.254a1.929,1.929,0,0,0,.018-.577A1.017,1.017,0,0,0,135.686-7.4Zm8.455-2.118-.2,1.143a3.38,3.38,0,0,1,2.751-1.318,2.27,2.27,0,0,1,1.964.98,4.1,4.1,0,0,1,.47,2.729l-1,5.985h-2.9l1.011-6.01a3.108,3.108,0,0,0,.018-.563q-.062-.836-.984-.836a1.807,1.807,0,0,0-1.4.678L142.682,0H139.79l1.652-9.51Zm10.4.009L152.877.3a4.036,4.036,0,0,1-1.283,2.641,3.9,3.9,0,0,1-2.725.927,9.186,9.186,0,0,1-1.45-.167l.237-2.25a3.9,3.9,0,0,0,.8.105A1.407,1.407,0,0,0,149.968.2l1.67-9.712Zm-2.681-2.4a1.326,1.326,0,0,1,.457-1.075,1.646,1.646,0,0,1,1.134-.423,1.6,1.6,0,0,1,1.125.375,1.332,1.332,0,0,1,.475,1.018,1.35,1.35,0,0,1-.435,1.058,1.67,1.67,0,0,1-1.156.45,1.667,1.667,0,0,1-1.125-.392A1.323,1.323,0,0,1,151.857-11.913Zm8.271,2.228a3.994,3.994,0,0,1,2.206.637A3.59,3.59,0,0,1,163.7-7.321a5.33,5.33,0,0,1,.312,2.461L164-4.667a5.636,5.636,0,0,1-1.626,3.533,4.575,4.575,0,0,1-3.41,1.31,3.977,3.977,0,0,1-2.188-.628A3.612,3.612,0,0,1,155.4-2.162a5.179,5.179,0,0,1-.321-2.443,5.863,5.863,0,0,1,1.6-3.727A4.547,4.547,0,0,1,160.128-9.686ZM157.975-4.6l-.026.518q-.123,1.957,1.2,1.992,1.705.053,1.978-2.764l.035-.8a2.155,2.155,0,0,0-.294-1.259,1.073,1.073,0,0,0-.918-.487,1.512,1.512,0,0,0-1.314.654A4.278,4.278,0,0,0,157.975-4.6Zm10.74.418,2.461-5.326h3.19L168.794,1.424a4.765,4.765,0,0,1-1.437,1.868,3.266,3.266,0,0,1-1.938.576,5.473,5.473,0,0,1-1.274-.193l.22-2.118h.334a2.394,2.394,0,0,0,.94-.171,1.432,1.432,0,0,0,.677-.664l.413-.791L165.208-9.51H168.2Zm16.066-2.646a8.273,8.273,0,0,0-.9-.088,2.233,2.233,0,0,0-1.986.9L180.826,0h-2.892l1.652-9.51,2.7-.009-.22,1.248a2.64,2.64,0,0,1,2.2-1.441,4.144,4.144,0,0,1,.9.123Zm5.071-2.856a3.994,3.994,0,0,1,2.206.637,3.59,3.59,0,0,1,1.367,1.727,5.33,5.33,0,0,1,.312,2.461l-.018.193a5.636,5.636,0,0,1-1.626,3.533,4.575,4.575,0,0,1-3.41,1.31A3.977,3.977,0,0,1,186.5-.453a3.612,3.612,0,0,1-1.367-1.709,5.179,5.179,0,0,1-.321-2.443,5.863,5.863,0,0,1,1.6-3.727A4.547,4.547,0,0,1,189.853-9.686ZM187.7-4.6l-.026.518q-.123,1.957,1.2,1.992,1.705.053,1.978-2.764l.035-.8a2.155,2.155,0,0,0-.294-1.259,1.073,1.073,0,0,0-.918-.487,1.512,1.512,0,0,0-1.314.654A4.278,4.278,0,0,0,187.7-4.6Zm10.863-4.917-.193,1.143a3.414,3.414,0,0,1,2.777-1.31,2.509,2.509,0,0,1,1.415.4,1.843,1.843,0,0,1,.738,1.028,3.619,3.619,0,0,1,2.892-1.433,2.241,2.241,0,0,1,1.956.989,4.117,4.117,0,0,1,.461,2.711L207.615,0h-2.9l1.011-5.987.035-.518q0-.869-.817-.9a1.872,1.872,0,0,0-1.424.781L202.368,0h-2.9l1-5.969L200.5-6.5q0-.9-.817-.9a1.86,1.86,0,0,0-1.406.781L197.112,0h-2.892l1.652-9.51ZM214.69,0a2.578,2.578,0,0,1-.123-.861A2.933,2.933,0,0,1,212.238.176a2.866,2.866,0,0,1-2.057-.826,2.483,2.483,0,0,1-.765-1.96,2.79,2.79,0,0,1,1.292-2.377,6.091,6.091,0,0,1,3.41-.831l.967.018.105-.536.035-.466a.755.755,0,0,0-.8-.826,1.111,1.111,0,0,0-1.169,1.046l-2.9.009a2.754,2.754,0,0,1,.624-1.666,3.7,3.7,0,0,1,1.578-1.09,5.512,5.512,0,0,1,2.123-.356,4.251,4.251,0,0,1,1.894.453,2.82,2.82,0,0,1,1.217,1.187,3.031,3.031,0,0,1,.308,1.753l-.712,4.474-.044.545a2.4,2.4,0,0,0,.167,1.107L217.5,0Zm-1.652-1.916a1.865,1.865,0,0,0,1.556-.782l.29-1.529-.747-.009a1.969,1.969,0,0,0-1.2.409,1.55,1.55,0,0,0-.589,1.068.778.778,0,0,0,.136.593A.7.7,0,0,0,213.038-1.916Zm9.932-7.6-.2,1.143a3.38,3.38,0,0,1,2.751-1.318,2.27,2.27,0,0,1,1.964.98,4.1,4.1,0,0,1,.47,2.729l-1,5.985h-2.9l1.011-6.01a3.108,3.108,0,0,0,.018-.563q-.062-.836-.984-.836a1.807,1.807,0,0,0-1.4.678L221.511,0h-2.892l1.652-9.51Zm11.065-2.355-.413,2.364h1.521l-.36,2.057h-1.521l-.738,4.368a1.164,1.164,0,0,0,.057.677q.119.229.593.246a6.873,6.873,0,0,0,.756-.044l-.211,2.145a4.673,4.673,0,0,1-1.556.22,2.563,2.563,0,0,1-2.013-.791,2.7,2.7,0,0,1-.545-2.1l.773-4.72H229.2l.352-2.057h1.178l.413-2.364ZM237.744,0h-2.9L236.5-9.51h2.9Zm-.993-11.909a1.341,1.341,0,0,1,.453-1.072,1.625,1.625,0,0,1,1.138-.431,1.678,1.678,0,0,1,1.129.387,1.318,1.318,0,0,1,.47,1.011,1.344,1.344,0,0,1-.448,1.077,1.63,1.63,0,0,1-1.143.426,1.7,1.7,0,0,1-1.121-.382A1.3,1.3,0,0,1,236.751-11.909Zm7.233,9.8a1.244,1.244,0,0,0,.976-.345,1.717,1.717,0,0,0,.448-.938l2.707-.009a3.559,3.559,0,0,1-.62,1.872A3.745,3.745,0,0,1,245.966-.25a4.521,4.521,0,0,1-2.061.426,3.57,3.57,0,0,1-2.927-1.367,4.726,4.726,0,0,1-.835-3.441l.026-.211a6.371,6.371,0,0,1,.809-2.553,4.626,4.626,0,0,1,1.709-1.718,4.433,4.433,0,0,1,2.369-.571,3.536,3.536,0,0,1,2.624,1.059,3.755,3.755,0,0,1,.927,2.764L245.9-5.871q.044-1.5-1.081-1.529-1.529-.053-1.758,2.567l-.079.893-.009.333Q242.974-2.136,243.984-2.109Zm13.553-7.409-.193,1.143a3.414,3.414,0,0,1,2.777-1.31,2.509,2.509,0,0,1,1.415.4,1.843,1.843,0,0,1,.738,1.028,3.619,3.619,0,0,1,2.892-1.433,2.241,2.241,0,0,1,1.956.989,4.117,4.117,0,0,1,.461,2.711L266.59,0h-2.9L264.7-5.987l.035-.518q0-.869-.817-.9a1.872,1.872,0,0,0-1.424.781L261.343,0h-2.9l1-5.969.035-.527q0-.9-.817-.9a1.86,1.86,0,0,0-1.406.781L256.087,0H253.2l1.652-9.51Zm16.646,8.481A3.148,3.148,0,0,1,271.617.185a2.492,2.492,0,0,1-2.1-.976,3.6,3.6,0,0,1-.549-2.566l1.028-6.152h2.892l-1.046,6.195a2.064,2.064,0,0,0,0,.466.766.766,0,0,0,.853.748,1.868,1.868,0,0,0,1.556-.722l1.178-6.688h2.909L276.68,0H273.99ZM283.6-2.725q.114-.58-.9-.87l-.624-.158a4.806,4.806,0,0,1-2.241-1.134,2.244,2.244,0,0,1-.668-1.731,2.758,2.758,0,0,1,1.217-2.228,4.633,4.633,0,0,1,2.861-.839,4.292,4.292,0,0,1,2.72.853,2.781,2.781,0,0,1,1.059,2.25l-2.883-.009q.035-1.125-.993-1.125a1.417,1.417,0,0,0-.817.259,1.007,1.007,0,0,0-.448.69q-.149.712,1.257.976a7.3,7.3,0,0,1,1.89.672,2.821,2.821,0,0,1,1.02.945,2.35,2.35,0,0,1,.325,1.354,2.541,2.541,0,0,1-.562,1.538A3.642,3.642,0,0,1,284.26-.2a5.557,5.557,0,0,1-2.2.378,4.469,4.469,0,0,1-1.912-.431,3.408,3.408,0,0,1-1.38-1.147,2.979,2.979,0,0,1-.514-1.666l2.689.018A1.111,1.111,0,0,0,282.208-1.8a1.661,1.661,0,0,0,.914-.242A1.045,1.045,0,0,0,283.6-2.725ZM290.32,0h-2.9l1.652-9.51h2.9Zm-.993-11.909a1.341,1.341,0,0,1,.453-1.072,1.625,1.625,0,0,1,1.138-.431,1.678,1.678,0,0,1,1.129.387,1.318,1.318,0,0,1,.47,1.011,1.344,1.344,0,0,1-.448,1.077,1.63,1.63,0,0,1-1.143.426,1.7,1.7,0,0,1-1.121-.382A1.3,1.3,0,0,1,289.327-11.909Zm7.233,9.8a1.244,1.244,0,0,0,.976-.345,1.717,1.717,0,0,0,.448-.938l2.707-.009a3.559,3.559,0,0,1-.62,1.872A3.745,3.745,0,0,1,298.542-.25a4.521,4.521,0,0,1-2.061.426,3.57,3.57,0,0,1-2.927-1.367,4.726,4.726,0,0,1-.835-3.441l.026-.211a6.371,6.371,0,0,1,.809-2.553,4.626,4.626,0,0,1,1.709-1.718,4.433,4.433,0,0,1,2.369-.571,3.536,3.536,0,0,1,2.624,1.059,3.755,3.755,0,0,1,.927,2.764l-2.707-.009q.044-1.5-1.081-1.529-1.529-.053-1.758,2.567l-.079.893-.009.333Q295.55-2.136,296.561-2.109Zm5.2.773a1.391,1.391,0,0,1,.457-1.107,1.611,1.611,0,0,1,1.134-.439,1.624,1.624,0,0,1,1.107.4,1.372,1.372,0,0,1,.475,1.042,1.406,1.406,0,0,1-.448,1.1,1.594,1.594,0,0,1-1.143.444,1.6,1.6,0,0,1-1.116-.4A1.389,1.389,0,0,1,301.764-1.336Z" transform="translate(1093 9993)" fill="#fff"/>
    <path id="Trazado_129268" data-name="Trazado 129268" d="M8.235-2.391H4.008L3.27,0h-3.3L4.667-12.8h2.9L12.3,0H8.982ZM4.746-4.772H7.5L6.117-9.211ZM18.659-1.028a3.054,3.054,0,0,1-2.54,1.2,3,3,0,0,1-2.369-.91,3.826,3.826,0,0,1-.8-2.615V-9.51h2.962v6.179a1.065,1.065,0,0,0,1.187,1.222,1.548,1.548,0,0,0,1.45-.729V-9.51h2.979V0H18.747ZM27-6.891,28.38-9.51h3.076l-2.5,4.632L31.579,0H28.485L26.991-2.812,25.523,0H22.412l2.637-4.878-2.5-4.632h3.111ZM35.534,0H32.563V-9.51h2.971ZM32.388-11.962A1.322,1.322,0,0,1,32.845-13a1.724,1.724,0,0,1,1.187-.4,1.724,1.724,0,0,1,1.187.4,1.322,1.322,0,0,1,.457,1.037,1.322,1.322,0,0,1-.457,1.037,1.724,1.724,0,0,1-1.187.4,1.724,1.724,0,0,1-1.187-.4A1.322,1.322,0,0,1,32.388-11.962ZM40.482,0H37.512V-13.5h2.971Zm4.948,0H42.46V-9.51h2.971ZM42.284-11.962A1.322,1.322,0,0,1,42.741-13a1.724,1.724,0,0,1,1.187-.4,1.724,1.724,0,0,1,1.187.4,1.322,1.322,0,0,1,.457,1.037,1.322,1.322,0,0,1-.457,1.037,1.724,1.724,0,0,1-1.187.4,1.724,1.724,0,0,1-1.187-.4A1.322,1.322,0,0,1,42.284-11.962ZM52.611,0a3.344,3.344,0,0,1-.281-.853A2.754,2.754,0,0,1,50.045.176,3.374,3.374,0,0,1,47.76-.637a2.588,2.588,0,0,1-.94-2.043,2.66,2.66,0,0,1,1.143-2.338,5.821,5.821,0,0,1,3.322-.791H52.2v-.5q0-1.316-1.134-1.316A.927.927,0,0,0,50.01-6.587H47.048a2.655,2.655,0,0,1,1.173-2.239,4.931,4.931,0,0,1,2.993-.86,4.323,4.323,0,0,1,2.874.888,3.086,3.086,0,0,1,1.081,2.435v4.21a4.311,4.311,0,0,0,.4,2V0ZM50.757-1.934a1.652,1.652,0,0,0,.918-.237,1.487,1.487,0,0,0,.523-.536V-4.228h-.861q-1.547,0-1.547,1.389a.848.848,0,0,0,.272.655A.986.986,0,0,0,50.757-1.934Zm11.8-4.9-.976-.07a1.752,1.752,0,0,0-1.793.879V0H56.83V-9.51h2.777l.1,1.222a2.294,2.294,0,0,1,2.083-1.4,2.888,2.888,0,0,1,.826.105Zm11.259-7.3.448,1.494a8.35,8.35,0,0,0-2.654,3.507,19.043,19.043,0,0,0-1.248,5.871l-.044.861Q70.189,1.2,71.868,2.5l-.633,1.459a4.8,4.8,0,0,1-1.793-1.586A7.037,7.037,0,0,1,68.388-.193a12.928,12.928,0,0,1-.272-3.146,17.29,17.29,0,0,1,.809-4.72A12.029,12.029,0,0,1,70.9-11.918,6.848,6.848,0,0,1,73.819-14.133Zm4.975,2.259L78.381-9.51H79.9l-.36,2.057H78.021l-.738,4.368a1.164,1.164,0,0,0,.057.677q.119.229.593.246a6.873,6.873,0,0,0,.756-.044L78.478-.062a4.673,4.673,0,0,1-1.556.22,2.563,2.563,0,0,1-2.013-.791,2.7,2.7,0,0,1-.545-2.1l.773-4.72H73.96l.352-2.057h1.178l.413-2.364Zm5.941,2.188a3.994,3.994,0,0,1,2.206.637,3.59,3.59,0,0,1,1.367,1.727A5.33,5.33,0,0,1,88.62-4.86l-.018.193a5.636,5.636,0,0,1-1.626,3.533,4.575,4.575,0,0,1-3.41,1.31,3.977,3.977,0,0,1-2.188-.628,3.612,3.612,0,0,1-1.367-1.709,5.179,5.179,0,0,1-.321-2.443,5.863,5.863,0,0,1,1.6-3.727A4.547,4.547,0,0,1,84.735-9.686ZM82.582-4.6l-.026.518q-.123,1.957,1.2,1.992,1.705.053,1.978-2.764l.035-.8a2.155,2.155,0,0,0-.294-1.259,1.073,1.073,0,0,0-.918-.487,1.512,1.512,0,0,0-1.314.654A4.278,4.278,0,0,0,82.582-4.6ZM94-4.772a6.917,6.917,0,0,1,1.371-3.6,3.4,3.4,0,0,1,2.865-1.31,2.592,2.592,0,0,1,2.013,1.02l.923-4.834h2.9L101.733,0H99.158l.123-1.028A2.968,2.968,0,0,1,96.917.185,2.62,2.62,0,0,1,94.768-.831a4.476,4.476,0,0,1-.831-2.676,8.231,8.231,0,0,1,.035-1.081Zm2.883.2a6.9,6.9,0,0,0-.062.984q0,1.459.984,1.485a1.844,1.844,0,0,0,1.521-.817l.65-3.647a1.171,1.171,0,0,0-1.16-.835,1.478,1.478,0,0,0-1.305.7A4.507,4.507,0,0,0,96.882-4.57Zm12.094-5.115a3.994,3.994,0,0,1,2.206.637,3.59,3.59,0,0,1,1.367,1.727,5.33,5.33,0,0,1,.312,2.461l-.018.193a5.636,5.636,0,0,1-1.626,3.533,4.575,4.575,0,0,1-3.41,1.31,3.977,3.977,0,0,1-2.188-.628,3.612,3.612,0,0,1-1.367-1.709,5.179,5.179,0,0,1-.321-2.443,5.863,5.863,0,0,1,1.6-3.727A4.547,4.547,0,0,1,108.976-9.686ZM106.822-4.6l-.026.518q-.123,1.957,1.2,1.992,1.705.053,1.978-2.764l.035-.8a2.155,2.155,0,0,0-.294-1.259,1.073,1.073,0,0,0-.918-.487,1.512,1.512,0,0,0-1.314.654A4.278,4.278,0,0,0,106.822-4.6ZM118.74-5a14.98,14.98,0,0,1-1.1,4,10.938,10.938,0,0,1-2.013,3.164,6.909,6.909,0,0,1-2.632,1.806l-.448-1.494A8.651,8.651,0,0,0,115.2-1.063a18.733,18.733,0,0,0,1.244-5.845l.053-.861q.088-3.612-1.556-4.887l.642-1.459a5.14,5.14,0,0,1,2.373,2.492,10.339,10.339,0,0,1,.914,4.232l.009.554a14.818,14.818,0,0,1-.114,1.591Z" transform="translate(345 9981)" fill="#12263f"/>
    <path id="Trazado_129266" data-name="Trazado 129266" d="M11.654,0H8.587L4.052-7.963V0H.967V-12.8H4.052L8.578-4.834V-12.8h3.076ZM18.07.176a4.889,4.889,0,0,1-3.542-1.305,4.507,4.507,0,0,1-1.354-3.4v-.246a5.84,5.84,0,0,1,.541-2.575,3.955,3.955,0,0,1,1.578-1.727,4.763,4.763,0,0,1,2.461-.611,4.117,4.117,0,0,1,3.164,1.244,4.887,4.887,0,0,1,1.16,3.467v1.151H16.189a2.135,2.135,0,0,0,.694,1.257,2.066,2.066,0,0,0,1.389.457,2.662,2.662,0,0,0,2.2-.984l1.354,1.6A3.784,3.784,0,0,1,20.254-.277,5.3,5.3,0,0,1,18.07.176ZM17.736-7.4q-1.3,0-1.547,1.723h2.988v-.229a1.467,1.467,0,0,0-.36-1.1A1.434,1.434,0,0,0,17.736-7.4Zm5.186,2.575A6.421,6.421,0,0,1,23.4-7.374a3.821,3.821,0,0,1,1.362-1.709,3.591,3.591,0,0,1,2.065-.6,2.855,2.855,0,0,1,2.32,1l.105-.826h2.689V-.36a4.009,4.009,0,0,1-.584,2.184,3.75,3.75,0,0,1-1.692,1.424,6.219,6.219,0,0,1-2.566.5,5.365,5.365,0,0,1-2.026-.4,3.657,3.657,0,0,1-1.5-1.028L24.812.58a2.716,2.716,0,0,0,2.18.976A1.764,1.764,0,0,0,28.96-.466v-.3a2.781,2.781,0,0,1-2.153.94,3.437,3.437,0,0,1-2.812-1.332A5.517,5.517,0,0,1,22.922-4.72Zm2.971.185a3.383,3.383,0,0,0,.439,1.85,1.386,1.386,0,0,0,1.23.681,1.573,1.573,0,0,0,1.4-.642v-4a1.534,1.534,0,0,0-1.38-.65,1.4,1.4,0,0,0-1.239.708A3.858,3.858,0,0,0,25.893-4.641ZM38.979,0A3.344,3.344,0,0,1,38.7-.853,2.754,2.754,0,0,1,36.413.176a3.374,3.374,0,0,1-2.285-.813,2.588,2.588,0,0,1-.94-2.043A2.66,2.66,0,0,1,34.33-5.019a5.821,5.821,0,0,1,3.322-.791h.914v-.5q0-1.316-1.134-1.316a.927.927,0,0,0-1.055,1.042H33.416a2.655,2.655,0,0,1,1.173-2.239,4.931,4.931,0,0,1,2.993-.86,4.323,4.323,0,0,1,2.874.888,3.086,3.086,0,0,1,1.081,2.435v4.21a4.311,4.311,0,0,0,.4,2V0ZM37.125-1.934a1.652,1.652,0,0,0,.918-.237,1.487,1.487,0,0,0,.523-.536V-4.228h-.861q-1.547,0-1.547,1.389a.848.848,0,0,0,.272.655A.986.986,0,0,0,37.125-1.934ZM47.2-2.109a1.317,1.317,0,0,0,.967-.338,1.241,1.241,0,0,0,.334-.945h2.777A3.288,3.288,0,0,1,50.155-.826a4.168,4.168,0,0,1-2.887,1A4.22,4.22,0,0,1,44-1.125a5.125,5.125,0,0,1-1.2-3.6v-.123A5.792,5.792,0,0,1,43.334-7.4a3.872,3.872,0,0,1,1.534-1.7,4.573,4.573,0,0,1,2.373-.593,4.116,4.116,0,0,1,2.944,1.028,3.647,3.647,0,0,1,1.09,2.786H48.5A1.626,1.626,0,0,0,48.138-7a1.244,1.244,0,0,0-.967-.4q-1.151,0-1.345,1.468a10.357,10.357,0,0,0-.062,1.283,4.068,4.068,0,0,0,.343,1.986A1.187,1.187,0,0,0,47.2-2.109ZM55.652,0H52.682V-9.51h2.971ZM52.506-11.962A1.322,1.322,0,0,1,52.963-13a1.724,1.724,0,0,1,1.187-.4,1.724,1.724,0,0,1,1.187.4,1.322,1.322,0,0,1,.457,1.037,1.322,1.322,0,0,1-.457,1.037,1.724,1.724,0,0,1-1.187.4,1.724,1.724,0,0,1-1.187-.4A1.322,1.322,0,0,1,52.506-11.962Zm4.6,7.119a5.613,5.613,0,0,1,.554-2.536,3.96,3.96,0,0,1,1.591-1.709,4.791,4.791,0,0,1,2.435-.6,4.373,4.373,0,0,1,3.366,1.323,5.076,5.076,0,0,1,1.23,3.6v.105a4.925,4.925,0,0,1-1.235,3.529A4.384,4.384,0,0,1,61.7.176a4.434,4.434,0,0,1-3.261-1.217,4.761,4.761,0,0,1-1.327-3.3Zm2.962.185a3.538,3.538,0,0,0,.413,1.934,1.376,1.376,0,0,0,1.222.615q1.582,0,1.617-2.435v-.3q0-2.558-1.635-2.558-1.485,0-1.608,2.206ZM62.086-13.5h3.129l-2.443,2.76-2.417,0ZM70.3-9.51l.1,1.116a3.225,3.225,0,0,1,2.716-1.292,2.713,2.713,0,0,1,2.219.888,4.226,4.226,0,0,1,.76,2.672V0H73.125V-6a1.6,1.6,0,0,0-.29-1.059A1.342,1.342,0,0,0,71.78-7.4a1.413,1.413,0,0,0-1.292.686V0H67.526V-9.51Z" transform="translate(547 9980)" fill="#12263f"/>
    <path id="Trazado_129264" data-name="Trazado 129264" d="M5.933-3.48,8.481-12.8h3.445L7.62,0H4.245L-.026-12.8H3.393Zm11,3.656a4.889,4.889,0,0,1-3.542-1.305,4.507,4.507,0,0,1-1.354-3.4v-.246a5.84,5.84,0,0,1,.541-2.575,3.955,3.955,0,0,1,1.578-1.727,4.763,4.763,0,0,1,2.461-.611,4.117,4.117,0,0,1,3.164,1.244,4.887,4.887,0,0,1,1.16,3.467v1.151H15.056a2.135,2.135,0,0,0,.694,1.257,2.066,2.066,0,0,0,1.389.457,2.662,2.662,0,0,0,2.2-.984l1.354,1.6A3.784,3.784,0,0,1,19.121-.277,5.3,5.3,0,0,1,16.937.176ZM16.6-7.4q-1.3,0-1.547,1.723h2.988v-.229a1.467,1.467,0,0,0-.36-1.1A1.434,1.434,0,0,0,16.6-7.4Zm11.285.571-.976-.07a1.752,1.752,0,0,0-1.793.879V0H22.157V-9.51h2.777l.1,1.222a2.294,2.294,0,0,1,2.083-1.4,2.888,2.888,0,0,1,.826.105Zm9.9,2.153a5.8,5.8,0,0,1-.967,3.595A3.238,3.238,0,0,1,34.093.176,2.81,2.81,0,0,1,31.755-.976L31.632,0H28.978V-13.5h2.962v4.755a2.711,2.711,0,0,1,2.136-.94,3.239,3.239,0,0,1,2.742,1.274,5.826,5.826,0,0,1,.967,3.586Zm-2.971-.189a3.866,3.866,0,0,0-.365-1.952A1.229,1.229,0,0,0,33.328-7.4a1.418,1.418,0,0,0-1.389.763v3.773a1.426,1.426,0,0,0,1.406.755,1.258,1.258,0,0,0,1.327-1.018A7.309,7.309,0,0,0,34.813-4.865Zm3.9.022a5.613,5.613,0,0,1,.554-2.536A3.96,3.96,0,0,1,40.86-9.088a4.791,4.791,0,0,1,2.435-.6,4.373,4.373,0,0,1,3.366,1.323,5.076,5.076,0,0,1,1.23,3.6v.105a4.925,4.925,0,0,1-1.235,3.529A4.384,4.384,0,0,1,43.313.176a4.434,4.434,0,0,1-3.261-1.217,4.761,4.761,0,0,1-1.327-3.3Zm2.962.185a3.538,3.538,0,0,0,.413,1.934,1.376,1.376,0,0,0,1.222.615q1.582,0,1.617-2.435v-.3q0-2.558-1.635-2.558-1.485,0-1.608,2.206Z" transform="translate(720 9981)" fill="#12263f"/>
    <path id="Trazado_129262" data-name="Trazado 129262" d="M11.32-4.333a4.673,4.673,0,0,1-.721,2.36A4.35,4.35,0,0,1,8.75-.387a6.3,6.3,0,0,1-2.72.563A5.025,5.025,0,0,1,2.057-1.468,6.786,6.786,0,0,1,.606-6.108v-.633a7.746,7.746,0,0,1,.655-3.292,4.961,4.961,0,0,1,1.885-2.18,5.26,5.26,0,0,1,2.848-.769,5.516,5.516,0,0,1,3.744,1.226,4.844,4.844,0,0,1,1.608,3.379H8.271a2.292,2.292,0,0,0-.589-1.679,2.422,2.422,0,0,0-1.687-.51A1.843,1.843,0,0,0,4.307-9.7a5.536,5.536,0,0,0-.562,2.751v.905A6.125,6.125,0,0,0,4.258-3.12a1.882,1.882,0,0,0,1.771.879,2.369,2.369,0,0,0,1.626-.5,2.126,2.126,0,0,0,.6-1.591Zm.949-.51a5.613,5.613,0,0,1,.554-2.536,3.96,3.96,0,0,1,1.591-1.709,4.791,4.791,0,0,1,2.435-.6,4.373,4.373,0,0,1,3.366,1.323,5.076,5.076,0,0,1,1.23,3.6v.105A4.925,4.925,0,0,1,20.21-1.129,4.384,4.384,0,0,1,16.866.176a4.434,4.434,0,0,1-3.261-1.217,4.761,4.761,0,0,1-1.327-3.3Zm2.962.185a3.538,3.538,0,0,0,.413,1.934,1.376,1.376,0,0,0,1.222.615q1.582,0,1.617-2.435v-.3q0-2.558-1.635-2.558-1.485,0-1.608,2.206ZM25.55-9.51l.1,1.116a3.27,3.27,0,0,1,2.716-1.292A2.407,2.407,0,0,1,30.8-8.253a3.165,3.165,0,0,1,2.795-1.433q2.892,0,2.971,3.5V0H33.592V-6a1.813,1.813,0,0,0-.246-1.063,1.048,1.048,0,0,0-.9-.334,1.4,1.4,0,0,0-1.31.782l.009.123V0H28.178V-5.985a1.906,1.906,0,0,0-.237-1.081,1.045,1.045,0,0,0-.905-.334,1.42,1.42,0,0,0-1.3.782V0H22.772V-9.51ZM47.083-4.685a5.735,5.735,0,0,1-1,3.538A3.2,3.2,0,0,1,43.392.176a2.742,2.742,0,0,1-2.153-.958V3.656H38.276V-9.51h2.769l.088.879a2.742,2.742,0,0,1,2.241-1.055,3.224,3.224,0,0,1,2.733,1.3,5.805,5.805,0,0,1,.976,3.564Zm-2.962-.185q0-2.531-1.477-2.531a1.394,1.394,0,0,0-1.406.756V-2.9a1.439,1.439,0,0,0,1.424.791q1.415,0,1.459-2.443ZM51.513,0H48.542V-13.5h2.971Zm6.425.176A4.889,4.889,0,0,1,54.4-1.129a4.507,4.507,0,0,1-1.354-3.4v-.246a5.84,5.84,0,0,1,.541-2.575A3.955,3.955,0,0,1,55.16-9.075a4.763,4.763,0,0,1,2.461-.611,4.117,4.117,0,0,1,3.164,1.244,4.887,4.887,0,0,1,1.16,3.467v1.151H56.057a2.135,2.135,0,0,0,.694,1.257,2.066,2.066,0,0,0,1.389.457,2.662,2.662,0,0,0,2.2-.984l1.354,1.6A3.784,3.784,0,0,1,60.122-.277,5.3,5.3,0,0,1,57.938.176ZM57.6-7.4q-1.3,0-1.547,1.723h2.988v-.229a1.467,1.467,0,0,0-.36-1.1A1.434,1.434,0,0,0,57.6-7.4ZM65.936-9.51l.1,1.116a3.27,3.27,0,0,1,2.716-1.292,2.407,2.407,0,0,1,2.435,1.433,3.165,3.165,0,0,1,2.795-1.433q2.892,0,2.971,3.5V0H73.978V-6a1.813,1.813,0,0,0-.246-1.063,1.048,1.048,0,0,0-.9-.334,1.4,1.4,0,0,0-1.31.782l.009.123V0H68.563V-5.985a1.906,1.906,0,0,0-.237-1.081,1.045,1.045,0,0,0-.905-.334,1.42,1.42,0,0,0-1.3.782V0H63.158V-9.51ZM83.241.176A4.889,4.889,0,0,1,79.7-1.129a4.507,4.507,0,0,1-1.354-3.4v-.246a5.84,5.84,0,0,1,.541-2.575,3.955,3.955,0,0,1,1.578-1.727,4.763,4.763,0,0,1,2.461-.611,4.117,4.117,0,0,1,3.164,1.244,4.887,4.887,0,0,1,1.16,3.467v1.151H81.36a2.135,2.135,0,0,0,.694,1.257,2.066,2.066,0,0,0,1.389.457,2.662,2.662,0,0,0,2.2-.984l1.354,1.6A3.784,3.784,0,0,1,85.425-.277,5.3,5.3,0,0,1,83.241.176ZM82.907-7.4q-1.3,0-1.547,1.723h2.988v-.229a1.467,1.467,0,0,0-.36-1.1A1.434,1.434,0,0,0,82.907-7.4ZM91.16-9.51l.1,1.116a3.225,3.225,0,0,1,2.716-1.292,2.713,2.713,0,0,1,2.219.888,4.226,4.226,0,0,1,.76,2.672V0H93.981V-6a1.6,1.6,0,0,0-.29-1.059A1.342,1.342,0,0,0,92.637-7.4a1.413,1.413,0,0,0-1.292.686V0H88.383V-9.51Zm10.881-2.364V-9.51h1.564v2.057h-1.564V-3.1a1.111,1.111,0,0,0,.193.747,1.037,1.037,0,0,0,.765.211,4.345,4.345,0,0,0,.738-.053V-.079a5.466,5.466,0,0,1-1.67.255,3.1,3.1,0,0,1-2.259-.721,2.954,2.954,0,0,1-.729-2.188v-4.72H97.866V-9.51h1.213v-2.364Zm2.092,7.031a5.613,5.613,0,0,1,.554-2.536,3.96,3.96,0,0,1,1.591-1.709,4.791,4.791,0,0,1,2.435-.6,4.373,4.373,0,0,1,3.366,1.323,5.076,5.076,0,0,1,1.23,3.6v.105a4.925,4.925,0,0,1-1.235,3.529A4.384,4.384,0,0,1,108.729.176a4.434,4.434,0,0,1-3.261-1.217,4.761,4.761,0,0,1-1.327-3.3Zm2.962.185a3.538,3.538,0,0,0,.413,1.934,1.376,1.376,0,0,0,1.222.615q1.582,0,1.617-2.435v-.3q0-2.558-1.635-2.558-1.485,0-1.608,2.206Z" transform="translate(875 9981)" fill="#12263f"/>
    <path id="Trazado_129269" data-name="Trazado 129269" d="M11.618-13.31h5.333l-.806,4.657H10.828l-1.112,6.3H4.77l1.1-6.3H.516l.806-4.657h5.35l1.063-6.123h4.947Z" transform="translate(300 9986)" fill="#ff5f65"/>
    <path id="Trazado_129267" data-name="Trazado 129267" d="M11.618-13.31h5.333l-.806,4.657H10.828l-1.112,6.3H4.77l1.1-6.3H.516l.806-4.657h5.35l1.063-6.123h4.947Z" transform="translate(497 9986)" fill="#ff5f65"/>
    <path id="Trazado_129265" data-name="Trazado 129265" d="M11.618-13.31h5.333l-.806,4.657H10.828l-1.112,6.3H4.77l1.1-6.3H.516l.806-4.657h5.35l1.063-6.123h4.947Z" transform="translate(658 9986)" fill="#ff5f65"/>
    <path id="Trazado_129263" data-name="Trazado 129263" d="M11.618-13.31h5.333l-.806,4.657H10.828l-1.112,6.3H4.77l1.1-6.3H.516l.806-4.657h5.35l1.063-6.123h4.947Z" transform="translate(817 9986)" fill="#ff5f65"/>
    <path id="Trazado_129261" data-name="Trazado 129261" d="M16.838-11.634H2.32l.741-4.189h14.5ZM15.614-4.56H1.1L1.837-8.75h14.5Z" transform="translate(1020 9987)" fill="#ff5f65"/>
  </g>
</svg>
