<?xml version="1.0" encoding="UTF-8" standalone="no"?><!DOCTYPE svg PUBLIC "-//W3C//DTD SVG 1.1//EN" "http://www.w3.org/Graphics/SVG/1.1/DTD/svg11.dtd"><svg width="100%" height="100%" viewBox="0 0 5167 363" version="1.1" xmlns="http://www.w3.org/2000/svg" xmlns:xlink="http://www.w3.org/1999/xlink" xml:space="preserve" xmlns:serif="http://www.serif.com/" style="fill-rule:evenodd;clip-rule:evenodd;stroke-linejoin:round;stroke-miterlimit:2;"><g id="Grupo_94073"><path id="Rectángulo_35264" d="M1312.5,41.667c0,-22.997 -18.67,-41.667 -41.667,-41.667l-354.166,0c-22.997,0 -41.667,18.67 -41.667,41.667l0,275c0,22.996 18.67,41.666 41.667,41.666l354.166,0c22.997,0 41.667,-18.67 41.667,-41.666l0,-275Z" style="fill:#6b8dff;"/><path id="Rectángulo_35263" d="M633.333,41.667c0,-22.997 -18.67,-41.667 -41.666,-41.667l-550,0c-22.997,0 -41.667,18.67 -41.667,41.667l0,275c0,22.996 18.67,41.666 41.667,41.666l550,0c22.996,0 41.666,-18.67 41.666,-41.666l0,-275Z" style="fill:#01ac57;"/><path id="Rectángulo_35260" d="M1945.83,41.667c0,-22.997 -18.67,-41.667 -41.666,-41.667l-308.334,0c-22.996,0 -41.666,18.67 -41.666,41.667l-0,275c-0,22.996 18.67,41.666 41.666,41.666l308.334,0c22.996,0 41.666,-18.67 41.666,-41.666l0,-275Z" style="fill:#ffd947;"/><path id="Rectángulo_35265" d="M3416.67,41.667c-0,-22.997 -18.671,-41.667 -41.667,-41.667l-308.333,0c-22.997,0 -41.667,18.67 -41.667,41.667l0,275c0,22.996 18.67,41.666 41.667,41.666l308.333,0c22.996,0 41.667,-18.67 41.667,-41.666l-0,-275Z" style="fill:#ff5f65;"/><path id="Rectángulo_35261" d="M2808.33,41.667c0,-22.997 -18.67,-41.667 -41.666,-41.667l-550,0c-22.997,0 -41.667,18.67 -41.667,41.667l0,275c0,22.996 18.67,41.666 41.667,41.666l550,0c22.996,0 41.666,-18.67 41.666,-41.666l0,-275Z" style="fill:#acade1;"/><path id="Rectángulo_35259" d="M5166.67,45.833c-0,-22.996 -18.671,-41.666 -41.667,-41.666l-1420.83,-0c-22.997,-0 -41.667,18.67 -41.667,41.666l0,275c0,22.997 18.67,41.667 41.667,41.667l1420.83,0c22.996,0 41.667,-18.67 41.667,-41.667l-0,-275Z" style="fill:#3c3fa7;"/><path id="Trazado_129254" d="M1018.67,189.738c0.146,-2.759 -1.646,-4.894 -5.376,-6.405l-6.37,-2.5c-8.957,-3.783 -13.689,-8.934 -14.196,-15.454c-0.266,-2.916 0.418,-5.709 1.95,-7.966c1.725,-2.469 4.152,-4.346 7.032,-5.438c3.283,-1.32 6.887,-1.954 10.611,-1.867c4.666,-0.132 9.463,1.52 13.415,4.621c3.698,3.1 6.053,7.483 6.434,11.975l-12.45,0c-0.089,-1.743 -0.795,-3.487 -1.996,-4.925c-1.345,-1.33 -3.163,-2.042 -4.905,-1.921c-1.973,-0.085 -3.842,0.427 -5.359,1.467c-1.392,0.888 -2.226,2.404 -2.274,4.138c-0.119,2.441 1.976,4.443 6.286,6.004c3.232,1.097 6.405,2.444 9.486,4.029c5.698,2.617 9.735,8.212 10.201,14.137c0.263,2.937 -0.383,5.759 -1.849,8.088c-1.594,2.434 -3.895,4.295 -6.656,5.383c-3.205,1.309 -6.733,1.931 -10.379,1.829c-2.732,-0.022 -5.504,-0.479 -8.212,-1.354c-2.465,-0.79 -4.805,-2.068 -6.868,-3.75c-4.048,-3.338 -6.609,-8.119 -6.961,-13l12.568,0.038c0.016,2.194 0.895,4.419 2.452,6.208c1.823,1.559 4.146,2.33 6.339,2.104c1.874,0.078 3.646,-0.422 5.073,-1.429c1.242,-0.925 1.968,-2.378 2.004,-4.013Zm42.003,10.109c-2.084,3.299 -5.793,5.192 -9.977,5.091c-3.381,0.165 -6.872,-1.358 -9.324,-4.066c-2.525,-3.148 -3.882,-6.968 -3.798,-10.692l0.662,-25.633l12.05,-0l-0.712,25.812c0.018,0.645 0.11,1.297 0.274,1.942c0.274,1.73 1.904,3.137 3.635,3.137c0.121,0 0.241,-0.007 0.36,-0.02c2.534,0.107 4.795,-1.016 6.058,-3.009l0.946,-27.866l12.109,-0l-1.273,39.625l-11.204,-0l0.194,-4.321Zm31.708,-35.304l-1.15,40.875c0.256,4.206 -1.098,8.135 -3.792,11c-2.773,2.687 -6.642,4.069 -10.809,3.862c-2.039,-0.071 -4.092,-0.304 -6.14,-0.696l-0.337,-9.375c1.13,0.261 2.268,0.408 3.396,0.438c0.148,0.011 0.296,0.016 0.443,0.016c3.14,0 5.395,-2.523 5.059,-5.662l1.241,-40.467l12.089,0.009Zm-12.584,-10c-0.333,-1.706 0.137,-3.362 1.272,-4.48c1.128,-1.165 2.73,-1.796 4.476,-1.762c1.691,-0.107 3.453,0.447 4.918,1.546c1.401,1.052 2.345,2.606 2.578,4.242c0.314,1.664 -0.122,3.28 -1.189,4.408c-1.133,1.22 -2.764,1.891 -4.552,1.875c-1.706,0.059 -3.464,-0.519 -4.933,-1.621c-1.397,-1.045 -2.339,-2.592 -2.572,-4.221l0.002,0.013Zm38.169,50.358c-3.318,0.036 -6.712,-0.828 -9.82,-2.5c-2.967,-1.614 -5.495,-4.018 -7.253,-6.896c-1.853,-3.029 -2.904,-6.39 -3.04,-9.721l-0.037,-1.025c-0.48,-5.802 1.155,-11.294 4.606,-15.47c3.22,-3.749 8.106,-5.741 13.439,-5.48c3.094,-0.039 6.262,0.864 9.082,2.588c2.684,1.709 4.881,4.133 6.288,6.937c1.597,3.172 2.454,6.571 2.501,9.917l0.014,5.025l-23.587,0c0.224,1.841 1.102,3.636 2.473,5.058c1.456,1.357 3.352,2.104 5.198,2.05c3.577,0.066 6.799,-1.402 8.843,-4.029l6.015,6.679c-1.277,2.205 -3.195,3.935 -5.544,5c-2.584,1.222 -5.472,1.861 -8.485,1.88l-0.693,-0.013Zm-1.543,-31.567c-1.647,-0.074 -3.167,0.503 -4.223,1.605c-1.313,1.574 -2.167,3.501 -2.487,5.612l12.063,0l0.071,-1.058c0.034,-0.795 -0.056,-1.607 -0.265,-2.409c-0.577,-2.286 -2.887,-3.97 -5.147,-3.75l-0.012,0Zm37.32,-18.641l-0.316,9.85l6.337,-0l-0.289,8.571l-6.337,-0l-0.504,18.2c-0.07,0.942 0.151,1.925 0.636,2.82c0.42,0.636 1.292,0.978 2.616,1.025c1.052,-0.003 2.095,-0.064 3.124,-0.183l0.383,8.933c-2,0.67 -4.148,0.98 -6.354,0.917c-3.116,0.193 -6.36,-1.015 -8.853,-3.296c-2.295,-2.47 -3.568,-5.645 -3.507,-8.75l0.442,-19.666l-4.904,-0l0.255,-8.571l4.909,-0l0.329,-9.85l12.033,-0Zm26.043,9.116c3.252,-0.034 6.579,0.889 9.566,2.655c2.857,1.741 5.21,4.261 6.726,7.2c1.695,3.268 2.637,6.781 2.748,10.254l0.039,0.804c0.345,5.554 -1.32,10.774 -4.695,14.721c-3.245,3.709 -8.113,5.688 -13.429,5.458c-3.227,0.035 -6.528,-0.876 -9.495,-2.621c-2.833,-1.727 -5.175,-4.216 -6.702,-7.121c-1.715,-3.236 -2.668,-6.728 -2.776,-10.179c-0.516,-5.803 1.071,-11.312 4.473,-15.529c3.225,-3.829 8.158,-5.882 13.557,-5.642l-0.012,0Zm-5.965,21.192l0.197,2.158c0.426,5.436 2.484,8.203 6.172,8.3c4.757,0.148 6.962,-3.691 6.615,-11.516l-0.325,-3.334c-0.13,-1.835 -0.827,-3.667 -1.995,-5.245c-1.022,-1.289 -2.578,-2.057 -4.112,-2.03c-2.185,-0.097 -4.112,0.935 -5.09,2.725c-1.308,2.685 -1.813,5.772 -1.462,8.942Z" style="fill:#12263f;fill-rule:nonzero;"/><path id="Trazado_129262" d="M3804.24,154.167l9.225,-53.334l15.675,0.038c4.311,-0.092 8.542,1.185 12.083,3.646c3.449,2.436 6.02,5.925 7.325,9.941c1.26,3.846 1.647,7.924 1.133,11.938l-0.258,2.233c-0.604,4.633 -2.231,9.074 -4.762,13c-2.426,3.805 -5.757,6.949 -9.696,9.15c-3.917,2.2 -8.33,3.366 -12.821,3.388l-17.904,-0Zm20.066,-43.434l-5.833,33.509l3.663,0.037c4.054,0.122 7.923,-1.738 10.362,-4.979c2.988,-4.522 4.595,-9.818 4.625,-15.237l0.075,-1.209c0.354,-3.084 -0.289,-6.202 -1.833,-8.896c-1.418,-2.038 -3.767,-3.236 -6.25,-3.187l-4.809,-0.038Zm49.859,3.075c3.257,-0.034 6.454,0.889 9.191,2.654c2.606,1.743 4.599,4.261 5.696,7.196c1.234,3.268 1.679,6.782 1.3,10.255l-0.075,0.804c-0.44,5.554 -2.842,10.774 -6.775,14.721c-3.771,3.711 -8.922,5.69 -14.208,5.458c-3.229,0.035 -6.398,-0.875 -9.117,-2.617c-2.589,-1.727 -4.579,-4.216 -5.696,-7.121c-1.258,-3.236 -1.717,-6.728 -1.337,-10.179c0.304,-5.803 2.669,-11.312 6.667,-15.529c3.766,-3.829 8.988,-5.882 14.354,-5.642Zm-8.954,21.192l-0.109,2.158c-0.341,5.436 1.325,8.203 5,8.3c4.736,0.148 7.484,-3.691 8.242,-11.516l0.146,-3.334c0.138,-1.832 -0.29,-3.664 -1.225,-5.246c-0.845,-1.296 -2.304,-2.065 -3.85,-2.029c-2.171,-0.097 -4.244,0.935 -5.475,2.725c-1.689,2.685 -2.632,5.772 -2.729,8.942Zm46.804,19.9c-3.323,0.036 -6.595,-0.828 -9.467,-2.5c-2.746,-1.611 -4.943,-4.015 -6.3,-6.896c-1.425,-3.029 -2.001,-6.39 -1.667,-9.721l0.109,-1.025c0.339,-5.802 2.75,-11.294 6.791,-15.471c3.755,-3.751 8.929,-5.742 14.23,-5.475c3.1,-0.039 6.14,0.864 8.716,2.588c2.443,1.708 4.3,4.13 5.313,6.933c1.145,3.172 1.52,6.572 1.091,9.917l-0.695,5.025l-23.584,0c-0.03,1.844 0.602,3.639 1.779,5.058c1.265,1.357 3.055,2.104 4.909,2.05c3.567,0.066 6.997,-1.402 9.412,-4.029l5.054,6.667c-1.588,2.205 -3.75,3.934 -6.25,5c-2.756,1.221 -5.735,1.861 -8.75,1.879l-0.691,-0Zm2.916,-31.567c-1.636,-0.074 -3.237,0.503 -4.45,1.604c-1.535,1.575 -2.661,3.502 -3.279,5.613l12.05,-0l0.221,-1.058c0.145,-0.793 0.171,-1.604 0.075,-2.405c-0.252,-2.283 -2.317,-3.966 -4.604,-3.754l-0.013,0Zm39.696,19.484c0.317,-1.611 -0.933,-2.82 -3.75,-3.625l-2.6,-0.659c-3.476,-0.719 -6.699,-2.35 -9.337,-4.725c-1.924,-1.889 -2.94,-4.52 -2.784,-7.212c0.085,-3.737 1.987,-7.207 5.092,-9.288c3.479,-2.446 7.671,-3.676 11.921,-3.496c4.071,-0.141 8.071,1.114 11.333,3.555c2.862,2.255 4.499,5.732 4.413,9.375l-12.013,-0.038c0.097,-3.125 -1.282,-4.687 -4.137,-4.687c-1.219,-0.001 -2.409,0.376 -3.405,1.079c-1.002,0.648 -1.682,1.695 -1.866,2.875c-0.414,1.978 1.332,3.333 5.237,4.066c2.742,0.567 5.392,1.509 7.875,2.8c1.723,0.938 3.184,2.292 4.25,3.938c1.011,1.7 1.483,3.668 1.354,5.642c-0.052,2.335 -0.875,4.589 -2.341,6.408c-1.72,2.045 -3.949,3.601 -6.463,4.508c-2.917,1.14 -6.036,1.676 -9.166,1.575c-2.756,-0.001 -5.477,-0.615 -7.967,-1.796c-2.311,-1.05 -4.298,-2.7 -5.754,-4.779c-1.39,-2.048 -2.136,-4.466 -2.142,-6.941l11.204,0.075c-0.028,0.206 -0.042,0.414 -0.042,0.622c0,2.539 2.09,4.629 4.629,4.629c0.231,0 0.461,-0.017 0.688,-0.051c1.341,0.04 2.664,-0.311 3.809,-1.009c1.023,-0.634 1.738,-1.665 1.975,-2.846l-0.013,0.005Zm79.042,-6.813c-0.265,3.598 -1.537,7.05 -3.671,9.958c-2.175,2.936 -5.083,5.248 -8.433,6.705c-3.552,1.576 -7.412,2.339 -11.296,2.233c-4.942,0.137 -9.719,-1.819 -13.146,-5.383c-3.375,-3.922 -5.234,-8.927 -5.238,-14.1c-0.18,-4.346 0.258,-8.695 1.3,-12.917c0.956,-4.366 2.76,-8.503 5.309,-12.175c2.224,-3.25 5.202,-5.914 8.679,-7.763c3.378,-1.731 7.139,-2.581 10.933,-2.47c5.111,-0.174 10.082,1.714 13.788,5.237c3.55,3.805 5.522,8.822 5.512,14.025l-12.5,-0.037c0.27,-2.455 -0.355,-4.927 -1.758,-6.959c-1.531,-1.52 -3.632,-2.331 -5.788,-2.233c-6.591,-0.219 -10.608,4.907 -12.05,15.379c-0.533,3.359 -0.862,6.747 -0.987,10.146c-0.106,5.997 2.121,9.081 6.679,9.25c2.555,0.231 5.1,-0.553 7.083,-2.179c1.855,-1.732 3.048,-4.058 3.371,-6.575l12.213,-0.142Zm20.325,-17.137c2.431,-3.186 6.209,-5.069 10.216,-5.092c3.495,-0.145 6.832,1.5 8.846,4.358c2.048,3.432 2.788,7.491 2.084,11.425l-4.117,24.609l-12.05,-0l4.137,-24.784c0.097,-0.778 0.122,-1.563 0.075,-2.346c0.002,-0.036 0.002,-0.073 0.002,-0.11c0,-2.007 -1.651,-3.659 -3.658,-3.659c-0.125,0 -0.249,0.007 -0.373,0.019c-2.176,-0.047 -4.276,0.817 -5.787,2.384l-5.038,28.496l-12.062,-0l9.779,-56.25l12.05,-0l-4.104,20.95Zm46.325,35.3c-0.373,-1.158 -0.546,-2.372 -0.513,-3.588c-2.405,2.843 -5.982,4.435 -9.704,4.321c-3.201,0.049 -6.292,-1.192 -8.571,-3.442c-2.223,-2.111 -3.397,-5.106 -3.2,-8.166c-0.027,-4.013 2.025,-7.766 5.417,-9.909c4.293,-2.523 9.236,-3.727 14.208,-3.462l4.029,0.075l0.438,-2.234l0.146,-1.941c0.01,-0.101 0.014,-0.202 0.014,-0.302c0,-1.726 -1.42,-3.146 -3.145,-3.146c-0.068,-0 -0.135,0.002 -0.203,0.006c-2.53,-0.136 -4.726,1.829 -4.87,4.358l-12.084,0.038c0.075,-2.537 0.99,-4.979 2.6,-6.942c1.755,-2.065 4.023,-3.632 6.575,-4.541c2.823,-1.071 5.829,-1.575 8.846,-1.484c2.741,0.01 5.443,0.657 7.892,1.888c2.152,1.09 3.917,2.817 5.054,4.946c1.149,2.251 1.596,4.796 1.283,7.304l-2.966,18.641l-0.184,2.271c-0.133,1.571 0.107,3.152 0.7,4.613l-0.041,0.696l-11.721,-0Zm-6.884,-7.984c2.565,0.048 4.993,-1.176 6.48,-3.266l1.208,-6.371l-3.112,-0.038c-1.809,0.002 -3.568,0.601 -5,1.704c-1.392,1.086 -2.279,2.695 -2.455,4.45c-0.154,0.867 0.051,1.759 0.567,2.471c0.57,0.685 1.422,1.072 2.313,1.05Zm52.112,-20.471c-1.242,-0.19 -2.494,-0.312 -3.75,-0.366c-3.219,-0.273 -6.358,1.149 -8.275,3.75l-4.454,25.071l-12.05,-0l6.883,-39.625l11.25,-0.038l-0.917,5.2c1.769,-3.485 5.266,-5.776 9.167,-6.004c1.265,0.033 2.523,0.205 3.75,0.512l-1.604,11.5Zm12.046,28.455l-12.083,-0l9.741,-56.25l12.083,-0l-9.741,56.25Zm27.354,0.733c-3.323,0.036 -6.595,-0.828 -9.467,-2.5c-2.737,-1.611 -4.925,-4.01 -6.279,-6.883c-1.425,-3.03 -2.001,-6.39 -1.667,-9.721l0.109,-1.025c0.339,-5.802 2.75,-11.294 6.791,-15.471c3.755,-3.752 8.929,-5.742 14.23,-5.475c3.1,-0.039 6.14,0.863 8.716,2.587c2.435,1.707 4.285,4.125 5.296,6.921c1.149,3.173 1.526,6.574 1.1,9.921l-0.696,5.025l-23.583,0c-0.037,1.839 0.584,3.632 1.75,5.054c1.265,1.357 3.055,2.104 4.908,2.05c3.568,0.066 6.998,-1.402 9.413,-4.029l5.054,6.667c-1.588,2.205 -3.75,3.934 -6.25,5c-2.756,1.221 -5.735,1.861 -8.75,1.879l-0.675,-0Zm2.917,-31.567c-1.637,-0.074 -3.238,0.503 -4.45,1.604c-1.536,1.575 -2.662,3.502 -3.28,5.613l12.05,-0l0.221,-1.058c0.152,-0.794 0.183,-1.606 0.092,-2.409c-0.254,-2.286 -2.326,-3.97 -4.617,-3.75l-0.016,0Zm39.695,19.484c0.317,-1.611 -0.933,-2.82 -3.75,-3.625l-2.6,-0.659c-3.476,-0.719 -6.699,-2.35 -9.337,-4.725c-1.924,-1.889 -2.939,-4.52 -2.783,-7.212c0.081,-3.732 1.974,-7.199 5.07,-9.284c3.48,-2.446 7.672,-3.675 11.921,-3.495c4.072,-0.141 8.072,1.113 11.334,3.554c2.861,2.255 4.498,5.732 4.412,9.375l-12.012,-0.038c0.097,-3.125 -1.282,-4.687 -4.138,-4.687c-1.219,-0 -2.408,0.377 -3.404,1.079c-1.003,0.649 -1.682,1.695 -1.867,2.875c-0.414,1.978 1.332,3.333 5.238,4.067c2.741,0.566 5.391,1.508 7.875,2.8c1.723,0.937 3.184,2.291 4.25,3.937c1.011,1.701 1.483,3.668 1.354,5.642c-0.052,2.335 -0.876,4.589 -2.342,6.408c-1.713,2.04 -3.933,3.594 -6.437,4.504c-2.918,1.14 -6.036,1.676 -9.167,1.575c-2.755,-0.001 -5.477,-0.615 -7.967,-1.796c-2.31,-1.05 -4.297,-2.7 -5.754,-4.779c-1.39,-2.048 -2.136,-4.466 -2.141,-6.941l11.204,0.075c-0.028,0.206 -0.042,0.413 -0.042,0.621c-0,2.54 2.09,4.629 4.629,4.629c0.229,0 0.457,-0.017 0.684,-0.05c1.34,0.04 2.663,-0.311 3.808,-1.009c1.025,-0.633 1.742,-1.664 1.979,-2.846l-0.017,0.005Zm53.521,12.083c-3.323,0.036 -6.594,-0.828 -9.466,-2.5c-2.737,-1.611 -4.926,-4.01 -6.28,-6.883c-1.424,-3.03 -2,-6.39 -1.666,-9.721l0.108,-1.025c0.339,-5.802 2.75,-11.294 6.792,-15.471c3.754,-3.752 8.928,-5.742 14.229,-5.475c3.1,-0.039 6.14,0.863 8.717,2.587c2.433,1.708 4.282,4.125 5.291,6.921c1.149,3.173 1.527,6.574 1.1,9.921l-0.696,5.025l-23.583,0c-0.035,1.84 0.589,3.633 1.758,5.054c1.265,1.357 3.055,2.104 4.909,2.05c3.568,0.066 6.997,-1.402 9.412,-4.029l5.054,6.667c-1.588,2.205 -3.75,3.934 -6.25,5c-2.756,1.221 -5.735,1.861 -8.75,1.879l-0.679,-0Zm2.917,-31.567c-1.636,-0.074 -3.238,0.503 -4.45,1.604c-1.535,1.575 -2.661,3.502 -3.279,5.613l12.062,-0l0.221,-1.058c0.146,-0.793 0.171,-1.604 0.075,-2.405c-0.252,-2.288 -2.325,-3.973 -4.617,-3.754l-0.012,0Zm35.229,-8.825l-0.833,4.763c2.728,-3.546 6.989,-5.587 11.462,-5.492c3.245,-0.135 6.341,1.409 8.184,4.083c1.951,3.448 2.644,7.47 1.958,11.371l-4.167,24.934l-12.083,-0l4.212,-25.042c0.096,-0.778 0.122,-1.563 0.075,-2.346c-0.172,-2.322 -1.538,-3.483 -4.1,-3.483c-2.269,0.014 -4.415,1.053 -5.833,2.825l-4.942,28.046l-12.05,-0l6.884,-39.625l11.233,-0.034Zm43.333,0.038l-6.92,40.871c-0.337,4.207 -2.247,8.138 -5.346,11.004c-3.153,2.687 -7.217,4.07 -11.354,3.862c-2.024,-0.073 -4.039,-0.307 -6.025,-0.7l0.987,-9.375c1.093,0.261 2.21,0.408 3.333,0.438c0.142,0.01 0.283,0.015 0.425,0.015c3.14,0 5.751,-2.523 5.859,-5.661l6.958,-40.467l12.083,0.013Zm-11.17,-10c-0.093,-1.706 0.611,-3.362 1.904,-4.479c1.293,-1.166 2.984,-1.797 4.725,-1.763c1.704,-0.099 3.383,0.461 4.687,1.563c1.252,1.052 1.977,2.606 1.979,4.241c0.079,1.665 -0.585,3.281 -1.812,4.409c-1.305,1.22 -3.031,1.891 -4.817,1.875c-1.71,0.051 -3.38,-0.531 -4.687,-1.634c-1.252,-1.047 -1.976,-2.597 -1.975,-4.229l-0.004,0.017Zm34.462,9.283c3.257,-0.034 6.454,0.889 9.192,2.654c2.605,1.743 4.598,4.26 5.696,7.196c1.233,3.268 1.679,6.782 1.3,10.254l-0.075,0.804c-0.44,5.555 -2.843,10.775 -6.775,14.721c-3.771,3.712 -8.923,5.691 -14.209,5.459c-3.228,0.034 -6.398,-0.875 -9.116,-2.617c-2.589,-1.727 -4.58,-4.216 -5.696,-7.121c-1.258,-3.236 -1.717,-6.728 -1.338,-10.179c0.304,-5.803 2.669,-11.312 6.667,-15.529c3.763,-3.837 8.985,-5.897 14.354,-5.663l0,0.021Zm-8.971,21.171l-0.108,2.158c-0.342,5.436 1.325,8.203 5,8.3c4.736,0.148 7.483,-3.691 8.242,-11.516l0.145,-3.334c0.139,-1.832 -0.289,-3.664 -1.225,-5.246c-0.839,-1.288 -2.287,-2.056 -3.825,-2.029c-2.17,-0.097 -4.244,0.935 -5.475,2.725c-1.697,2.682 -2.648,5.77 -2.754,8.942Zm45.3,1.742l10.254,-22.192l13.292,-0l-23.229,45.55c-1.313,3.055 -3.372,5.731 -5.988,7.783c-2.369,1.634 -5.197,2.475 -8.075,2.4c-1.794,-0.058 -3.576,-0.328 -5.308,-0.804l0.917,-8.825l1.391,0c1.341,0.028 2.673,-0.214 3.917,-0.712c1.227,-0.575 2.222,-1.551 2.821,-2.767l1.721,-3.296l-6.325,-39.337l12.45,-0l2.162,22.2Zm66.942,-11.025c-1.242,-0.191 -2.494,-0.313 -3.75,-0.367c-3.219,-0.273 -6.358,1.15 -8.275,3.75l-4.45,25.067l-12.05,-0l6.9,-39.625l11.25,-0.038l-0.917,5.2c1.768,-3.485 5.266,-5.776 9.167,-6.004c1.265,0.033 2.523,0.205 3.75,0.512l-1.625,11.505Zm21.129,-11.9c3.257,-0.034 6.454,0.889 9.192,2.654c2.605,1.742 4.598,4.26 5.696,7.196c1.233,3.268 1.679,6.781 1.3,10.254l-0.075,0.804c-0.444,5.554 -2.849,10.772 -6.784,14.717c-3.771,3.711 -8.922,5.69 -14.208,5.458c-3.232,0.035 -6.404,-0.876 -9.125,-2.621c-2.589,-1.727 -4.579,-4.216 -5.696,-7.121c-1.258,-3.236 -1.717,-6.728 -1.337,-10.179c0.304,-5.803 2.668,-11.312 6.666,-15.529c3.771,-3.835 9.003,-5.888 14.375,-5.642l-0.004,0.009Zm-8.967,21.183l-0.108,2.158c-0.342,5.436 1.325,8.203 5,8.3c4.736,0.148 7.483,-3.691 8.242,-11.516l0.146,-3.334c0.138,-1.832 -0.29,-3.664 -1.225,-5.246c-0.84,-1.288 -2.288,-2.056 -3.825,-2.029c-2.171,-0.097 -4.244,0.935 -5.475,2.725c-1.698,2.682 -2.649,5.77 -2.755,8.942Zm45.263,-20.488l-0.804,4.763c2.773,-3.546 7.07,-5.574 11.571,-5.458c2.087,-0.046 4.141,0.535 5.895,1.666c1.499,1.02 2.588,2.538 3.075,4.284c2.858,-3.762 7.323,-5.971 12.046,-5.959c3.246,-0.139 6.339,1.425 8.15,4.121c1.916,3.433 2.594,7.423 1.921,11.296l-4.133,24.942l-12.084,-0l4.213,-24.946l0.146,-2.159c-0,-2.413 -1.135,-3.663 -3.404,-3.75c-2.369,0.126 -4.555,1.325 -5.934,3.255l-4.8,27.6l-12.083,-0l4.167,-24.871l0.145,-2.196c0,-2.5 -1.134,-3.75 -3.404,-3.75c-2.343,0.141 -4.5,1.339 -5.858,3.254l-4.867,27.563l-12.05,-0l6.884,-39.625l11.208,-0.03Zm67.2,39.655c-0.373,-1.158 -0.546,-2.372 -0.513,-3.588c-2.405,2.843 -5.982,4.435 -9.704,4.321c-3.201,0.049 -6.292,-1.192 -8.571,-3.442c-2.219,-2.114 -3.387,-5.108 -3.187,-8.166c-0.033,-4.005 2.005,-7.755 5.383,-9.905c4.294,-2.522 9.236,-3.727 14.209,-3.462l4.029,0.075l0.437,-2.233l0.146,-1.942c0.01,-0.1 0.015,-0.201 0.015,-0.302c-0,-1.726 -1.42,-3.146 -3.146,-3.146c-0.068,-0 -0.135,0.002 -0.202,0.006c-2.53,-0.136 -4.726,1.829 -4.871,4.359l-12.083,0.037c0.075,-2.537 0.989,-4.979 2.6,-6.942c1.754,-2.065 4.022,-3.632 6.575,-4.541c2.822,-1.071 5.828,-1.575 8.845,-1.484c2.742,0.011 5.443,0.657 7.892,1.888c2.155,1.088 3.923,2.814 5.063,4.942c1.149,2.251 1.596,4.796 1.283,7.304l-2.95,18.641l-0.183,2.271c-0.135,1.571 0.103,3.152 0.695,4.613l-0.045,0.696l-11.717,-0Zm-6.883,-7.984c2.56,0.044 4.983,-1.18 6.466,-3.266l1.209,-6.371l-3.113,-0.038c-1.808,0.002 -3.567,0.601 -5,1.704c-1.391,1.086 -2.279,2.695 -2.454,4.45c-0.154,0.867 0.05,1.759 0.567,2.471c0.571,0.687 1.427,1.074 2.32,1.05l0.005,0Zm41.383,-31.666l-0.833,4.762c2.728,-3.546 6.989,-5.587 11.462,-5.492c3.245,-0.135 6.341,1.41 8.183,4.084c1.952,3.448 2.644,7.469 1.959,11.371l-4.167,24.937l-12.083,0l4.212,-25.042c0.096,-0.778 0.121,-1.563 0.075,-2.345c-0.172,-2.323 -1.539,-3.484 -4.1,-3.484c-2.269,0.014 -4.415,1.053 -5.833,2.825l-4.958,28.034l-12.05,-0l6.883,-39.625l11.25,-0.025Zm46.104,-9.813l-1.721,9.85l6.338,0l-1.5,8.571l-6.338,-0l-3.075,18.2c-0.203,0.943 -0.12,1.925 0.238,2.821c0.33,0.636 1.154,0.978 2.471,1.025c1.052,-0.003 2.104,-0.065 3.15,-0.184l-0.88,8.938c-2.093,0.669 -4.285,0.979 -6.483,0.917c-3.143,0.192 -6.216,-1.015 -8.387,-3.296c-1.946,-2.47 -2.771,-5.646 -2.271,-8.75l3.221,-19.667l-4.909,0l1.467,-8.571l4.908,0l1.721,-9.85l12.05,-0.004Zm15.454,49.463l-12.083,-0l6.883,-39.625l12.084,-0l-6.884,39.625Zm-4.137,-49.621c-0.083,-1.698 0.612,-3.344 1.887,-4.467c1.288,-1.19 2.989,-1.834 4.742,-1.796c1.712,-0.057 3.387,0.517 4.704,1.613c1.243,1.045 1.961,2.589 1.958,4.212c0.094,1.701 -0.594,3.355 -1.866,4.488c-1.298,1.185 -3.006,1.822 -4.763,1.775c-1.697,0.046 -3.355,-0.519 -4.671,-1.592c-1.271,-1.035 -2.005,-2.594 -1.995,-4.233l0.004,-0Zm30.137,40.833c1.5,0.134 2.985,-0.391 4.067,-1.437c1.011,-1.079 1.663,-2.445 1.867,-3.909l11.279,-0.037c-0.109,2.791 -1.005,5.495 -2.584,7.8c-1.603,2.319 -3.804,4.161 -6.37,5.329c-2.683,1.259 -5.626,1.867 -8.588,1.775c-4.737,0.154 -9.273,-1.964 -12.196,-5.696c-2.973,-4.146 -4.221,-9.29 -3.479,-14.337l0.108,-0.88c0.358,-3.744 1.507,-7.37 3.371,-10.637c1.699,-2.978 4.162,-5.449 7.134,-7.158c3.003,-1.7 6.423,-2.524 9.87,-2.38c4.098,-0.114 8.064,1.486 10.934,4.413c2.785,3.161 4.178,7.316 3.862,11.517l-11.279,-0.038c0.122,-4.167 -1.379,-6.29 -4.504,-6.371c-4.247,-0.147 -6.689,3.418 -7.325,10.696l-0.329,3.721l-0.038,1.387c-0.008,4.087 1.392,6.167 4.2,6.242Zm56.471,-30.871l-0.804,4.763c2.773,-3.546 7.071,-5.574 11.571,-5.459c2.087,-0.045 4.141,0.535 5.896,1.667c1.498,1.02 2.587,2.538 3.075,4.283c2.855,-3.767 7.322,-5.981 12.05,-5.97c3.245,-0.139 6.338,1.424 8.15,4.12c1.915,3.434 2.594,7.423 1.92,11.296l-4.137,24.959l-12.083,-0l4.212,-24.946l0.146,-2.159c-0,-2.413 -1.135,-3.663 -3.404,-3.75c-2.368,0.126 -4.555,1.325 -5.934,3.255l-4.804,27.6l-12.083,-0l4.167,-24.871l0.145,-2.196c0,-2.5 -1.134,-3.75 -3.404,-3.75c-2.343,0.141 -4.5,1.339 -5.858,3.254l-4.85,27.563l-12.083,-0l6.883,-39.625l11.229,-0.034Zm69.358,35.338c-2.549,3.298 -6.524,5.191 -10.691,5.091c-3.405,0.165 -6.681,-1.358 -8.75,-4.066c-2.08,-3.148 -2.897,-6.968 -2.288,-10.692l4.259,-25.637l12.05,-0l-4.359,25.812c-0.073,0.645 -0.073,1.297 0,1.942c0.03,1.73 1.461,3.137 3.192,3.137c0.121,0 0.242,-0.007 0.362,-0.021c2.519,0.108 4.939,-1.015 6.484,-3.008l4.908,-27.867l12.121,0l-6.888,39.63l-11.204,-0l0.804,-4.321Zm39.221,-7.029c0.317,-1.611 -0.933,-2.82 -3.75,-3.625l-2.6,-0.659c-3.476,-0.719 -6.699,-2.35 -9.337,-4.725c-1.924,-1.889 -2.94,-4.52 -2.784,-7.212c0.081,-3.732 1.975,-7.199 5.071,-9.284c3.48,-2.446 7.672,-3.675 11.921,-3.495c4.072,-0.141 8.072,1.113 11.333,3.554c2.862,2.255 4.499,5.732 4.413,9.375l-12.013,-0.038c0.098,-3.125 -1.281,-4.687 -4.137,-4.687c-1.219,-0 -2.408,0.377 -3.404,1.079c-1.003,0.649 -1.682,1.695 -1.867,2.875c-0.414,1.978 1.332,3.333 5.238,4.067c2.741,0.566 5.391,1.508 7.875,2.8c1.723,0.937 3.184,2.291 4.25,3.937c1.011,1.701 1.483,3.668 1.354,5.642c-0.052,2.335 -0.876,4.589 -2.342,6.408c-1.718,2.043 -3.944,3.597 -6.454,4.504c-2.917,1.14 -6.036,1.676 -9.167,1.575c-2.755,-0.001 -5.476,-0.615 -7.966,-1.796c-2.309,-1.05 -4.295,-2.701 -5.75,-4.779c-1.39,-2.048 -2.136,-4.466 -2.142,-6.941l11.204,0.075c-0.028,0.205 -0.042,0.413 -0.042,0.621c0,2.539 2.09,4.629 4.629,4.629c0.228,-0 0.455,-0.017 0.68,-0.05c1.34,0.04 2.663,-0.311 3.808,-1.009c1.025,-0.633 1.742,-1.664 1.979,-2.846l0,0.005Zm28.017,11.35l-12.083,-0l6.883,-39.625l12.083,-0l-6.883,39.625Zm-4.138,-49.621c-0.083,-1.698 0.613,-3.344 1.888,-4.467c1.288,-1.19 2.989,-1.834 4.742,-1.796c1.712,-0.057 3.387,0.517 4.704,1.613c1.243,1.045 1.961,2.589 1.958,4.212c0.093,1.701 -0.595,3.355 -1.867,4.488c-1.297,1.185 -3.005,1.822 -4.762,1.775c-1.697,0.046 -3.355,-0.519 -4.671,-1.592c-1.269,-1.036 -2.003,-2.594 -1.992,-4.233Zm30.138,40.833c1.499,0.134 2.985,-0.391 4.067,-1.437c1.011,-1.079 1.663,-2.445 1.866,-3.909l11.275,-0.033c-0.109,2.791 -1.005,5.495 -2.583,7.8c-1.602,2.317 -3.803,4.157 -6.367,5.325c-2.683,1.259 -5.625,1.867 -8.587,1.775c-4.737,0.154 -9.274,-1.964 -12.196,-5.696c-2.973,-4.146 -4.221,-9.29 -3.479,-14.337l0.108,-0.88c0.357,-3.744 1.506,-7.37 3.371,-10.637c1.695,-2.976 4.154,-5.447 7.121,-7.158c3.003,-1.7 6.423,-2.524 9.871,-2.38c4.098,-0.114 8.063,1.486 10.933,4.413c2.785,3.161 4.178,7.316 3.862,11.517l-11.279,-0.038c0.123,-4.175 -1.386,-6.298 -4.525,-6.371c-4.247,-0.147 -6.689,3.418 -7.325,10.696l-0.329,3.721l-0.037,1.387c0.014,4.087 1.425,6.167 4.233,6.242Zm32.042,-8.021c-0.058,-5.004 1.975,-9.812 5.604,-13.258l3.037,-2.417c1.47,-1.135 2.737,-2.51 3.75,-4.066c0.862,-1.445 1.264,-3.118 1.154,-4.796c0.007,-0.082 0.01,-0.163 0.01,-0.245c0,-1.703 -1.401,-3.104 -3.104,-3.104c-0.103,0 -0.207,0.005 -0.31,0.015c-1.363,-0.07 -2.685,0.499 -3.571,1.538c-1.071,1.305 -1.773,2.873 -2.033,4.542l-12.05,0.075c0.156,-4.455 2.19,-8.642 5.596,-11.517c3.64,-2.884 8.219,-4.325 12.854,-4.046c2.857,0.005 5.677,0.643 8.258,1.867c2.23,1.052 4.07,2.784 5.255,4.946c1.18,2.288 1.677,4.87 1.429,7.433c-0.588,4.646 -3.12,8.831 -6.963,11.508l-4.283,3.404c-2.465,2.032 -4.097,4.902 -4.583,8.059l-10.05,0.062Zm-3.809,11.317c-0.099,-1.757 0.601,-3.468 1.904,-4.65c1.288,-1.208 2.998,-1.865 4.763,-1.829c1.726,-0.055 3.407,0.562 4.687,1.721c1.22,1.091 1.925,2.647 1.942,4.283c0.099,1.748 -0.595,3.452 -1.887,4.633c-1.295,1.204 -3.012,1.855 -4.78,1.813c-1.691,0.041 -3.34,-0.539 -4.633,-1.629c-1.277,-1.078 -2.01,-2.671 -1.996,-4.342Z" style="fill:#fff;fill-rule:nonzero;"/><path id="Trazado_129263" d="M3754.74,220.929c0.413,2.728 0.343,5.424 -0.206,7.967c-0.545,2.095 -1.608,3.95 -3.104,5.416l-2.762,2.638c-2.568,1.997 -3.736,5.313 -3.117,8.846c0.005,0.03 0.009,0.06 0.015,0.09c0.278,1.6 1.823,2.917 3.423,2.917c0.041,-0 0.082,-0.001 0.122,-0.003c3.196,0.072 4.822,-1.954 4.877,-6.079l12.07,-0.075c0.614,4.434 -0.675,8.603 -3.549,11.483c-3.15,2.902 -7.505,4.345 -12.214,4.046c-4.06,0.177 -8.311,-1.204 -11.888,-3.863c-3.256,-2.652 -5.282,-6.492 -5.439,-10.312c-0.216,-4.7 1.638,-8.923 5.089,-11.592l4.036,-3.75c1.882,-1.978 2.841,-4.699 2.698,-7.654l9.949,-0.075Zm2.398,-11.279c0.373,1.718 -0.02,3.386 -1.075,4.558c-1.071,1.256 -2.697,1.937 -4.505,1.888c-1.702,0.044 -3.471,-0.566 -4.946,-1.704c-1.435,-1.084 -2.429,-2.653 -2.727,-4.305c-0.385,-1.737 0.028,-3.423 1.123,-4.583c1.079,-1.215 2.681,-1.878 4.459,-1.846c1.702,-0.043 3.472,0.566 4.946,1.704c1.43,1.08 2.423,2.642 2.725,4.288Zm43.83,24.425l-17.025,-0l-2.987,10l-13.808,-0l18.96,-53.333l11.792,-0l19.127,53.333l-13.037,-0l-3.022,-10Zm-14.056,-9.883l11.058,-0l-5.538,-18.384l-5.52,18.384Zm94.416,1.72c0.359,3.601 -0.316,7.054 -1.947,9.963c-1.663,2.933 -4.167,5.243 -7.26,6.7c-3.278,1.577 -7.005,2.34 -10.908,2.233c-4.918,0.137 -10.036,-1.819 -14.082,-5.383c-4.058,-3.921 -6.789,-8.926 -7.693,-14.1c-0.936,-4.345 -1.255,-8.694 -0.946,-12.917c0.197,-4.371 1.284,-8.512 3.198,-12.187c1.659,-3.25 4.174,-5.914 7.329,-7.763c3.077,-1.731 6.691,-2.581 10.504,-2.471c5.08,-0.173 10.38,1.715 14.698,5.238c4.212,3.804 7.056,8.821 7.951,14.025l-12.506,-0.038c-0.157,-2.454 -1.212,-4.926 -2.968,-6.958c-1.796,-1.52 -4.038,-2.331 -6.176,-2.233c-6.63,-0.22 -9.755,4.907 -9.376,15.379c0.052,3.359 0.313,6.747 0.78,10.146c0.922,6.005 3.682,9.094 8.278,9.266c2.595,0.231 5.004,-0.552 6.705,-2.179c1.553,-1.731 2.341,-4.058 2.227,-6.575l12.192,-0.146Zm17.345,-17.137c1.877,-3.186 5.328,-5.069 9.331,-5.092c3.469,-0.144 7.093,1.5 9.604,4.359c2.645,3.432 4.091,7.491 4.07,11.425l0.158,24.608l-12.046,-0l-0.172,-24.783c-0.038,-0.778 -0.15,-1.564 -0.333,-2.346c-0.005,-0.037 -0.011,-0.074 -0.017,-0.111c-0.349,-2.007 -2.288,-3.658 -4.295,-3.658c-0.124,-0 -0.247,0.006 -0.369,0.019c-2.184,-0.048 -4.134,0.817 -5.373,2.383l-0.1,28.496l-12.045,-0l-0.001,-56.25l12.033,-0l-0.445,20.95Zm52.463,35.3c-0.575,-1.158 -0.959,-2.371 -1.137,-3.588c-1.911,2.843 -5.211,4.436 -8.953,4.321c-3.193,0.049 -6.499,-1.192 -9.169,-3.441c-2.586,-2.114 -4.276,-5.109 -4.607,-8.167c-0.73,-4.004 0.656,-7.754 3.661,-9.904c3.855,-2.523 8.588,-3.728 13.606,-3.463l4.043,0.075l0.049,-2.233l-0.192,-1.942c-0.008,-0.1 -0.02,-0.201 -0.038,-0.302c-0.3,-1.726 -1.967,-3.146 -3.693,-3.146c-0.067,0 -0.134,0.002 -0.201,0.007c-2.558,-0.144 -4.42,1.821 -4.126,4.354l-12.077,0.037c-0.366,-2.537 0.124,-4.979 1.393,-6.941c1.395,-2.066 3.391,-3.632 5.786,-4.542c2.636,-1.071 5.554,-1.575 8.588,-1.483c2.742,0.01 5.556,0.656 8.219,1.887c2.348,1.088 4.42,2.815 5.931,4.946c1.54,2.251 2.43,4.796 2.553,7.304l0.275,18.642l0.211,2.271c0.139,1.57 0.652,3.151 1.498,4.612l0.096,0.696l-11.716,-0Zm-8.276,-7.983c2.574,0.049 4.792,-1.175 5.915,-3.267l0.101,-6.371l-3.119,-0.037c-1.808,0.001 -3.463,0.6 -4.704,1.704c-1.193,1.091 -1.791,2.701 -1.654,4.454c-0.004,0.866 0.356,1.759 0.996,2.471c0.681,0.675 1.588,1.059 2.465,1.046Zm48.553,-20.471c-1.275,-0.191 -2.548,-0.313 -3.814,-0.367c-3.266,-0.273 -6.158,1.15 -7.622,3.75l-0.096,25.071l-12.045,-0l0.006,-39.625l11.243,-0.038l-0.012,5.2c1.162,-3.484 4.261,-5.775 8.122,-6.004c1.271,0.033 2.559,0.205 3.84,0.513l0.378,11.5Zm16.998,28.454l-12.084,-0l-0.042,-56.25l12.083,-0l0.043,56.25Zm27.481,0.733c-3.317,0.036 -6.738,-0.828 -9.901,-2.5c-3.017,-1.611 -5.623,-4.01 -7.476,-6.883c-1.952,-3.03 -3.112,-6.39 -3.357,-9.721l-0.07,-1.025c-0.669,-5.802 0.787,-11.294 4.102,-15.471c3.102,-3.751 7.93,-5.742 13.277,-5.475c3.093,-0.039 6.29,0.864 9.167,2.588c2.727,1.708 4.993,4.126 6.486,6.921c1.701,3.172 2.67,6.573 2.825,9.92l0.19,5.021l-23.583,0c0.283,1.841 1.217,3.636 2.633,5.059c1.501,1.356 3.421,2.104 5.265,2.05c3.583,0.067 6.761,-1.403 8.72,-4.034l6.213,6.667c-1.205,2.205 -3.066,3.934 -5.381,5c-2.544,1.221 -5.411,1.861 -8.423,1.879l-0.687,0.004Zm-2.572,-31.566c-1.649,-0.075 -3.15,0.502 -4.171,1.604c-1.25,1.576 -2.031,3.502 -2.275,5.608l12.05,0l0.037,-1.058c0.008,-0.793 -0.108,-1.604 -0.343,-2.404c-0.653,-2.294 -3.029,-3.98 -5.285,-3.75l-0.013,-0Zm43.084,19.483c0.036,-1.611 -1.424,-2.819 -4.38,-3.625l-2.715,-0.658c-3.601,-0.72 -7.108,-2.351 -10.159,-4.725c-2.252,-1.889 -3.725,-4.521 -4.037,-7.213c-0.568,-3.731 0.723,-7.199 3.456,-9.283c3.054,-2.447 7.033,-3.676 11.313,-3.496c4.047,-0.141 8.266,1.113 11.952,3.554c3.254,2.255 5.495,5.733 6.042,9.375l-12.019,-0.037c-0.446,-3.125 -2.097,-4.688 -4.952,-4.688c-1.219,-0 -2.343,0.377 -3.217,1.079c-0.89,0.649 -1.387,1.696 -1.367,2.875c-0.07,1.978 1.912,3.334 5.945,4.067c2.84,0.567 5.654,1.509 8.362,2.8c1.886,0.937 3.582,2.291 4.934,3.937c1.307,1.701 2.121,3.668 2.335,5.642c0.355,2.336 -0.077,4.59 -1.227,6.408c-1.359,2.041 -3.311,3.595 -5.659,4.505c-2.719,1.139 -5.744,1.675 -8.892,1.575c-2.756,-0.002 -5.584,-0.615 -8.279,-1.796c-2.493,-1.05 -4.768,-2.701 -6.585,-4.779c-1.747,-2.049 -2.913,-4.467 -3.349,-6.942l11.217,0.075c0.008,0.206 0.03,0.414 0.066,0.622c0.442,2.54 2.895,4.629 5.434,4.629c0.231,0 0.458,-0.017 0.679,-0.051c1.347,0.04 2.61,-0.31 3.633,-1.008c0.915,-0.634 1.453,-1.665 1.485,-2.846l-0.016,0.004Zm48.498,11.35l-12.083,-0l-0.039,-56.25l12.084,-0l0.038,56.25Zm27.482,0.733c-3.317,0.036 -6.739,-0.828 -9.901,-2.5c-3.017,-1.611 -5.623,-4.01 -7.476,-6.883c-1.952,-3.03 -3.112,-6.39 -3.357,-9.721l-0.07,-1.025c-0.67,-5.802 0.786,-11.294 4.102,-15.471c3.102,-3.751 7.929,-5.742 13.277,-5.475c3.093,-0.039 6.29,0.864 9.166,2.588c2.731,1.707 5,4.125 6.495,6.921c1.701,3.172 2.67,6.573 2.825,9.92l0.178,5.025l-23.571,0c0.282,1.839 1.213,3.632 2.625,5.055c1.5,1.356 3.42,2.104 5.265,2.05c3.579,0.066 6.754,-1.402 8.712,-4.03l6.213,6.667c-1.205,2.205 -3.066,3.934 -5.381,5c-2.544,1.221 -5.411,1.861 -8.423,1.879l-0.679,0Zm-2.572,-31.566c-1.649,-0.075 -3.15,0.502 -4.171,1.604c-1.261,1.574 -2.052,3.502 -2.303,5.612l12.05,0l0.036,-1.058c0.008,-0.793 -0.108,-1.604 -0.343,-2.404c-0.649,-2.283 -3.006,-3.967 -5.256,-3.754l-0.013,-0Zm39.821,10.95c-0.255,-3.776 0.22,-7.442 1.4,-10.805c0.969,-2.954 2.759,-5.472 5.193,-7.304c2.335,-1.658 5.251,-2.494 8.37,-2.4c3.496,-0.121 7.139,1.479 9.753,4.284l0.665,-3.555l11.14,0.038l0.139,38.087c0.334,5.02 -1.426,9.611 -4.874,12.709c-3.718,3.191 -8.716,4.761 -14.096,4.429c-2.635,-0.047 -5.323,-0.581 -7.928,-1.575c-2.617,-0.985 -5.061,-2.543 -7.127,-4.542l4.494,-7.104c2.406,2.599 5.741,4.133 8.994,4.138c5.139,0.296 8.979,-3.473 8.696,-8.534l0.081,-1.208c-1.899,2.513 -4.928,3.946 -8.358,3.954c-2.368,0.024 -4.813,-0.644 -7.034,-1.921c-2.235,-1.342 -4.139,-3.229 -5.487,-5.437c-1.562,-2.493 -2.664,-5.182 -3.243,-7.917c-0.398,-1.78 -0.658,-3.565 -0.778,-5.337Zm12.581,3.916c0.213,1.825 0.948,3.643 2.119,5.238c0.963,1.215 2.427,1.952 3.854,1.941c2.358,0.066 4.453,-0.898 5.729,-2.637l0.19,-16.808c-1.31,-1.729 -3.388,-2.75 -5.367,-2.638c-2.347,-0.052 -4.367,1.069 -5.377,2.983c-1.301,2.358 -1.856,5.137 -1.607,8.038c0.126,1.539 0.28,2.833 0.463,3.883l-0.004,0Zm54.795,11.646c-1.976,3.299 -5.621,5.191 -9.806,5.092c-3.376,0.164 -6.917,-1.359 -9.457,-4.067c-2.627,-3.148 -4.109,-6.968 -4.147,-10.692l-0.173,-25.633l12.05,0l0.13,25.813c0.038,0.645 0.152,1.296 0.337,1.941c0.33,1.73 2.006,3.138 3.737,3.138c0.121,-0 0.241,-0.007 0.359,-0.021c2.538,0.107 4.763,-1.016 5.96,-3.008l0.064,-27.867l12.121,-0l-0.019,39.625l-11.204,-0l0.048,-4.321Zm37.999,-7.029c0.036,-1.611 -1.424,-2.819 -4.38,-3.625l-2.715,-0.658c-3.601,-0.72 -7.107,-2.351 -10.159,-4.725c-2.252,-1.889 -3.725,-4.521 -4.037,-7.213c-0.568,-3.731 0.723,-7.199 3.457,-9.283c3.053,-2.447 7.032,-3.676 11.313,-3.496c4.047,-0.141 8.265,1.113 11.951,3.554c3.254,2.255 5.495,5.733 6.042,9.375l-12.019,-0.037c-0.446,-3.125 -2.097,-4.688 -4.952,-4.688c-1.219,-0 -2.343,0.377 -3.217,1.079c-0.89,0.649 -1.387,1.696 -1.366,2.875c-0.07,1.978 1.911,3.334 5.944,4.067c2.84,0.567 5.654,1.509 8.362,2.8c1.886,0.937 3.582,2.291 4.935,3.937c1.306,1.701 2.12,3.668 2.335,5.642c0.354,2.336 -0.078,4.59 -1.228,6.408c-1.367,2.046 -3.329,3.6 -5.688,4.505c-2.719,1.139 -5.744,1.675 -8.892,1.575c-2.756,-0.002 -5.584,-0.615 -8.279,-1.796c-2.492,-1.051 -4.765,-2.701 -6.581,-4.779c-1.746,-2.049 -2.913,-4.467 -3.349,-6.942l11.217,0.075c0.008,0.207 0.03,0.415 0.067,0.624c0.441,2.54 2.894,4.629 5.434,4.629c0.234,0 0.465,-0.018 0.691,-0.053c1.347,0.04 2.61,-0.31 3.633,-1.008c0.915,-0.634 1.452,-1.665 1.484,-2.846l-0.003,0.004Zm31.289,-38.121l-0.009,9.85l6.338,0l-0.01,8.571l-6.337,-0l0.089,18.2c-0.039,0.943 0.214,1.925 0.728,2.821c0.441,0.636 1.324,0.978 2.649,1.025c1.052,-0.003 2.093,-0.065 3.118,-0.184l0.675,8.938c-1.978,0.669 -4.116,0.979 -6.324,0.917c-3.11,0.192 -6.393,-1.015 -8.961,-3.296c-2.375,-2.47 -3.752,-5.646 -3.792,-8.75l-0.198,-19.667l-4.93,0l-0.023,-8.571l4.908,0l0.009,-9.85l12.07,-0.004Zm33.676,49.471c-0.574,-1.158 -0.958,-2.371 -1.136,-3.588c-1.911,2.843 -5.211,4.436 -8.953,4.321c-3.193,0.049 -6.499,-1.192 -9.169,-3.441c-2.587,-2.114 -4.276,-5.109 -4.608,-8.167c-0.729,-4.004 0.657,-7.754 3.662,-9.904c3.854,-2.523 8.587,-3.728 13.606,-3.463l4.042,0.075l0.049,-2.233l-0.192,-1.942c-0.007,-0.1 -0.02,-0.201 -0.038,-0.302c-0.3,-1.726 -1.967,-3.146 -3.692,-3.146c-0.068,0 -0.135,0.002 -0.201,0.007c-2.554,-0.137 -4.409,1.828 -4.113,4.358l-12.077,0.037c-0.366,-2.537 0.124,-4.979 1.393,-6.941c1.395,-2.065 3.391,-3.632 5.785,-4.542c2.636,-1.071 5.555,-1.575 8.588,-1.483c2.743,0.01 5.557,0.656 8.22,1.887c2.348,1.088 4.419,2.815 5.931,4.946c1.54,2.251 2.43,4.796 2.553,7.304l0.275,18.642l0.211,2.271c0.138,1.571 0.652,3.151 1.498,4.612l0.083,0.692l-11.717,-0Zm-8.271,-7.983c2.573,0.051 4.791,-1.17 5.916,-3.259l0.101,-6.371l-3.119,-0.037c-1.808,0.001 -3.463,0.601 -4.704,1.704c-1.202,1.085 -1.81,2.695 -1.68,4.45c-0.004,0.866 0.356,1.759 0.996,2.471c0.688,0.679 1.603,1.063 2.485,1.042l0.005,-0Zm56.096,7.983l-12.083,-0l-0.039,-56.25l12.084,-0l0.038,56.25Zm30,-0c-0.574,-1.158 -0.958,-2.371 -1.136,-3.588c-1.913,2.845 -5.216,4.438 -8.961,4.321c-3.194,0.049 -6.5,-1.192 -9.17,-3.441c-2.586,-2.114 -4.276,-5.109 -4.607,-8.167c-0.73,-4.004 0.657,-7.754 3.661,-9.904c3.855,-2.523 8.588,-3.728 13.607,-3.463l4.042,0.075l0.049,-2.233l-0.192,-1.942c-0.008,-0.1 -0.02,-0.201 -0.038,-0.302c-0.3,-1.726 -1.967,-3.146 -3.693,-3.146c-0.067,0 -0.134,0.002 -0.201,0.007c-2.552,-0.137 -4.406,1.826 -4.113,4.354l-12.077,0.037c-0.366,-2.537 0.124,-4.979 1.393,-6.941c1.393,-2.064 3.386,-3.631 5.777,-4.542c2.636,-1.071 5.555,-1.575 8.588,-1.483c2.743,0.01 5.557,0.656 8.22,1.887c2.347,1.088 4.419,2.815 5.93,4.946c1.541,2.251 2.43,4.796 2.554,7.304l0.274,18.642l0.212,2.271c0.138,1.57 0.651,3.151 1.498,4.612l0.096,0.696l-11.713,-0Zm-8.271,-7.983c2.573,0.051 4.791,-1.17 5.916,-3.259l0.101,-6.371l-3.119,-0.037c-1.808,0.001 -3.463,0.601 -4.704,1.704c-1.191,1.089 -1.79,2.696 -1.656,4.446c-0.003,0.866 0.356,1.759 0.996,2.471c0.68,0.672 1.583,1.057 2.457,1.046l0.009,-0Zm54.66,-31.667l0.024,4.762c2.157,-3.546 6.102,-5.573 10.622,-5.458c2.08,-0.046 4.235,0.535 6.186,1.667c1.675,1.02 3.029,2.538 3.82,4.283c2.2,-3.767 6.282,-5.981 11.011,-5.971c3.221,-0.139 6.586,1.425 8.867,4.121c2.512,3.433 3.884,7.423 3.885,11.296l0.192,24.95l-12.083,-0l-0.125,-24.946l-0.23,-2.158c-0.419,-2.414 -1.771,-3.664 -4.056,-3.75c-2.346,0.125 -4.324,1.324 -5.367,3.254l-0.002,27.6l-12.083,-0l-0.158,-24.871l-0.236,-2.196c-0.434,-2.5 -1.786,-3.75 -4.056,-3.75c-2.319,0.141 -4.267,1.339 -5.292,3.254l-0.075,27.563l-12.05,-0l-0.006,-39.625l11.212,-0.025Zm75.503,35.337c-1.981,3.301 -5.634,5.191 -9.825,5.084c-3.376,0.164 -6.916,-1.359 -9.457,-4.067c-2.627,-3.148 -4.108,-6.968 -4.146,-10.692l-0.174,-25.633l12.05,0l0.13,25.813c0.039,0.645 0.152,1.296 0.338,1.941c0.33,1.73 2.006,3.138 3.736,3.138c0.122,-0 0.242,-0.007 0.36,-0.021c2.537,0.107 4.762,-1.016 5.96,-3.008l0.063,-27.867l12.121,-0l-0.01,39.625l-11.205,-0l0.059,-4.313Zm-5.625,-51.929l13.442,0l-9.667,11.5l-10.546,0l6.771,-11.5Zm43.64,44.896c0.036,-1.611 -1.424,-2.819 -4.381,-3.625l-2.714,-0.658c-3.601,-0.72 -7.108,-2.351 -10.159,-4.725c-2.252,-1.889 -3.726,-4.521 -4.038,-7.213c-0.568,-3.731 0.724,-7.198 3.457,-9.283c3.054,-2.446 7.032,-3.676 11.313,-3.496c4.047,-0.141 8.265,1.114 11.951,3.554c3.254,2.255 5.496,5.733 6.043,9.375l-12.019,-0.037c-0.446,-3.125 -2.097,-4.688 -4.953,-4.688c-1.218,0 -2.342,0.377 -3.216,1.079c-0.89,0.649 -1.388,1.696 -1.367,2.875c-0.07,1.978 1.912,3.334 5.945,4.067c2.839,0.567 5.653,1.509 8.362,2.8c1.885,0.937 3.582,2.291 4.934,3.938c1.307,1.7 2.121,3.667 2.335,5.641c0.351,2.332 -0.082,4.581 -1.229,6.396c-1.367,2.049 -3.33,3.606 -5.691,4.513c-2.719,1.139 -5.745,1.675 -8.893,1.575c-2.756,-0.002 -5.583,-0.615 -8.279,-1.796c-2.491,-1.051 -4.764,-2.701 -6.581,-4.779c-1.746,-2.049 -2.912,-4.467 -3.348,-6.942l11.217,0.075c0.008,0.206 0.03,0.414 0.066,0.622c0.442,2.539 2.895,4.629 5.434,4.629c0.229,-0 0.455,-0.017 0.675,-0.051c1.347,0.04 2.61,-0.31 3.633,-1.008c0.913,-0.635 1.449,-1.666 1.48,-2.846l0.023,0.008Zm29.968,11.346l-12.083,-0l-0.006,-39.625l12.083,-0l0.006,39.625Zm-12.765,-49.621c-0.378,-1.697 0.031,-3.343 1.111,-4.467c1.081,-1.189 2.67,-1.833 4.429,-1.795c1.703,-0.057 3.477,0.517 4.985,1.612c1.425,1.045 2.411,2.589 2.691,4.213c0.388,1.701 -0.012,3.354 -1.087,4.487c-1.091,1.186 -2.689,1.822 -4.454,1.775c-1.689,0.047 -3.445,-0.519 -4.947,-1.592c-1.45,-1.036 -2.454,-2.594 -2.728,-4.233Zm37.237,40.833c1.523,0.135 2.917,-0.39 3.817,-1.437c0.823,-1.078 1.238,-2.444 1.187,-3.908l11.273,-0.038c0.376,2.791 -0.05,5.496 -1.228,7.8c-1.199,2.319 -3.081,4.161 -5.444,5.329c-2.464,1.259 -5.301,1.867 -8.279,1.775c-4.71,0.155 -9.615,-1.964 -13.186,-5.696c-3.694,-4.146 -5.836,-9.289 -5.972,-14.337l-0.044,-0.879c-0.297,-3.75 0.22,-7.382 1.518,-10.654c1.178,-2.977 3.207,-5.448 5.876,-7.159c2.708,-1.699 5.985,-2.523 9.457,-2.379c4.078,-0.115 8.322,1.486 11.701,4.413c3.334,3.16 5.45,7.316 5.865,11.516l-11.286,-0.037c-0.602,-4.167 -2.473,-6.29 -5.612,-6.371c-4.272,-0.147 -6.094,3.418 -5.465,10.696l0.318,3.721l0.204,1.387c0.712,4.097 2.479,6.183 5.3,6.258Zm43.678,8.788c-0.574,-1.158 -0.958,-2.371 -1.136,-3.588c-1.911,2.843 -5.211,4.436 -8.953,4.321c-3.193,0.049 -6.499,-1.192 -9.169,-3.441c-2.587,-2.114 -4.276,-5.109 -4.608,-8.167c-0.729,-4.004 0.657,-7.754 3.662,-9.904c3.854,-2.523 8.587,-3.728 13.606,-3.463l4.042,0.075l0.049,-2.233l-0.178,-1.933c-0.007,-0.101 -0.02,-0.202 -0.038,-0.303c-0.3,-1.725 -1.967,-3.145 -3.692,-3.145c-0.068,-0 -0.135,0.002 -0.201,0.006c-2.554,-0.136 -4.409,1.829 -4.113,4.358l-12.077,0.038c-0.366,-2.537 0.124,-4.98 1.393,-6.942c1.395,-2.065 3.391,-3.632 5.785,-4.542c2.636,-1.07 5.555,-1.575 8.588,-1.483c2.743,0.01 5.557,0.656 8.22,1.888c2.348,1.087 4.419,2.815 5.931,4.945c1.54,2.252 2.43,4.797 2.553,7.305l0.275,18.641l0.211,2.271c0.138,1.571 0.652,3.152 1.498,4.613l0.073,0.683l-11.721,-0Zm-8.271,-7.983c2.573,0.051 4.791,-1.17 5.916,-3.259l0.101,-6.371l-3.119,-0.037c-1.808,0.001 -3.463,0.601 -4.704,1.704c-1.202,1.085 -1.81,2.695 -1.68,4.45c-0.004,0.866 0.356,1.759 0.996,2.471c0.689,0.68 1.606,1.064 2.49,1.042Zm67.045,-20.471c-1.276,-0.191 -2.549,-0.313 -3.814,-0.367c-3.267,-0.273 -6.158,1.15 -7.623,3.75l-0.095,25.071l-12.05,-0l-0.006,-39.625l11.243,-0.038l-0.013,5.2c1.163,-3.484 4.262,-5.775 8.123,-6.004c1.271,0.033 2.558,0.205 3.839,0.513l0.396,11.5Zm19.06,-11.9c3.251,-0.034 6.608,0.889 9.653,2.654c2.91,1.742 5.342,4.26 6.951,7.196c1.802,3.268 2.858,6.781 3.083,10.254l0.065,0.804c0.525,5.554 -0.97,10.774 -4.216,14.721c-3.126,3.712 -7.933,5.691 -13.259,5.458c-3.223,0.035 -6.55,-0.875 -9.572,-2.616c-2.894,-1.727 -5.322,-4.217 -6.947,-7.125c-1.821,-3.236 -2.887,-6.728 -3.107,-10.18c-0.705,-5.803 0.702,-11.311 3.966,-15.529c3.103,-3.832 7.974,-5.885 13.386,-5.641l-0.003,0.004Zm-5.287,21.187l0.267,2.159c0.603,5.436 2.751,8.202 6.443,8.3c4.761,0.147 6.841,-3.692 6.239,-11.517l-0.434,-3.333c-0.18,-1.833 -0.926,-3.664 -2.137,-5.246c-1.063,-1.289 -2.645,-2.057 -4.178,-2.029c-2.187,-0.098 -4.081,0.934 -5.001,2.725c-1.231,2.682 -1.645,5.769 -1.199,8.941Zm41.7,-20.487l0.024,4.762c2.156,-3.546 6.102,-5.573 10.622,-5.458c2.079,-0.046 4.234,0.535 6.185,1.667c1.676,1.02 3.029,2.537 3.82,4.283c2.201,-3.768 6.283,-5.981 11.012,-5.971c3.221,-0.139 6.586,1.425 8.866,4.121c2.513,3.433 3.885,7.423 3.885,11.296l0.202,24.954l-12.084,-0l-0.125,-24.946l-0.229,-2.158c-0.42,-2.414 -1.772,-3.664 -4.056,-3.75c-2.347,0.125 -4.324,1.324 -5.368,3.254l-0.001,27.6l-12.083,-0l-0.158,-24.871l-0.236,-2.196c-0.435,-2.5 -1.787,-3.75 -4.056,-3.75c-2.319,0.141 -4.268,1.339 -5.293,3.254l-0.074,27.563l-12.05,-0l-0.006,-39.625l11.203,-0.029Zm74.095,39.654c-0.574,-1.158 -0.959,-2.371 -1.137,-3.588c-1.911,2.843 -5.211,4.436 -8.952,4.321c-3.194,0.049 -6.5,-1.192 -9.17,-3.441c-2.586,-2.114 -4.276,-5.109 -4.607,-8.167c-0.73,-4.004 0.657,-7.754 3.661,-9.904c3.855,-2.523 8.588,-3.728 13.607,-3.463l4.042,0.075l0.049,-2.233l-0.186,-1.933c-0.008,-0.101 -0.021,-0.202 -0.038,-0.303c-0.3,-1.725 -1.967,-3.145 -3.693,-3.145c-0.067,-0 -0.134,0.002 -0.201,0.006c-2.554,-0.136 -4.408,1.829 -4.113,4.358l-12.077,0.038c-0.366,-2.537 0.124,-4.98 1.393,-6.942c1.395,-2.065 3.391,-3.632 5.786,-4.542c2.636,-1.07 5.554,-1.575 8.588,-1.483c2.742,0.01 5.556,0.656 8.219,1.888c2.348,1.087 4.42,2.815 5.931,4.945c1.54,2.252 2.43,4.797 2.553,7.305l0.275,18.641l0.211,2.271c0.139,1.571 0.652,3.152 1.498,4.613l0.082,0.683l-11.721,-0Zm-8.272,-7.983c2.574,0.051 4.791,-1.17 5.917,-3.259l0.101,-6.371l-3.119,-0.037c-1.809,0.001 -3.463,0.601 -4.704,1.704c-1.202,1.085 -1.81,2.695 -1.68,4.45c-0.004,0.866 0.356,1.759 0.996,2.471c0.688,0.68 1.606,1.064 2.489,1.042Zm2.558,-48.267l13.442,-0l-9.667,11.5l-10.546,-0l6.771,-11.5Zm33.301,16.587l-0.005,4.763c2.112,-3.546 6.018,-5.587 10.507,-5.492c3.222,-0.135 6.586,1.409 8.894,4.084c2.55,3.447 3.942,7.469 3.935,11.37l0.169,24.938l-12.083,-0l-0.142,-25.042c-0.039,-0.778 -0.15,-1.563 -0.332,-2.346c-0.576,-2.322 -2.145,-3.483 -4.706,-3.483c-2.267,0.014 -4.232,1.053 -5.342,2.825l-0.061,28.046l-12.05,-0l-0.007,-39.625l11.223,-0.038Zm44.398,-9.812l0.025,9.85l6.338,-0l-0.01,8.571l-6.338,-0l0.081,18.2c-0.039,0.943 0.215,1.925 0.728,2.821c0.442,0.636 1.325,0.977 2.649,1.025c1.052,-0.004 2.093,-0.065 3.119,-0.184l0.674,8.938c-1.977,0.669 -4.115,0.979 -6.324,0.916c-3.109,0.193 -6.392,-1.014 -8.96,-3.295c-2.376,-2.47 -3.752,-5.646 -3.792,-8.75l-0.199,-19.667l-4.908,-0l-0.024,-8.571l4.884,0l0.008,-9.85l12.049,-0.004Zm24.073,49.475l-12.083,-0l-0.006,-39.625l12.083,-0l0.006,39.625Zm-12.765,-49.621c-0.378,-1.697 0.031,-3.343 1.111,-4.467c1.081,-1.189 2.67,-1.833 4.429,-1.795c1.703,-0.057 3.477,0.517 4.985,1.612c1.425,1.045 2.411,2.589 2.691,4.213c0.388,1.701 -0.012,3.354 -1.087,4.487c-1.091,1.186 -2.689,1.822 -4.454,1.775c-1.689,0.047 -3.445,-0.519 -4.947,-1.592c-1.45,-1.036 -2.454,-2.594 -2.728,-4.233Zm37.237,40.833c1.523,0.135 2.917,-0.39 3.817,-1.437c0.823,-1.078 1.238,-2.444 1.187,-3.908l11.273,-0.038c0.376,2.791 -0.05,5.496 -1.228,7.8c-1.199,2.319 -3.081,4.161 -5.444,5.329c-2.464,1.259 -5.301,1.867 -8.279,1.775c-4.71,0.155 -9.615,-1.964 -13.186,-5.696c-3.694,-4.146 -5.836,-9.289 -5.972,-14.337l-0.044,-0.879c-0.294,-3.745 0.224,-7.371 1.521,-10.638c1.178,-2.976 3.206,-5.447 5.876,-7.158c2.708,-1.699 5.985,-2.524 9.457,-2.379c4.078,-0.115 8.322,1.485 11.701,4.412c3.334,3.161 5.45,7.316 5.865,11.517l-11.286,-0.038c-0.602,-4.166 -2.473,-6.29 -5.612,-6.37c-4.273,-0.148 -6.094,3.418 -5.465,10.695l0.318,3.721l0.203,1.388c0.714,4.086 2.48,6.166 5.298,6.241Zm43.682,8.788c-0.574,-1.158 -0.958,-2.371 -1.136,-3.588c-1.912,2.844 -5.214,4.437 -8.957,4.321c-3.193,0.049 -6.499,-1.192 -9.169,-3.441c-2.587,-2.114 -4.276,-5.109 -4.608,-8.167c-0.729,-4.004 0.657,-7.754 3.662,-9.904c3.854,-2.523 8.587,-3.728 13.606,-3.463l4.042,0.075l0.049,-2.233l-0.192,-1.942c-0.007,-0.1 -0.02,-0.201 -0.038,-0.302c-0.3,-1.726 -1.967,-3.146 -3.692,-3.146c-0.068,0 -0.135,0.002 -0.201,0.007c-2.554,-0.137 -4.409,1.828 -4.113,4.358l-12.077,0.037c-0.366,-2.537 0.124,-4.979 1.393,-6.941c1.395,-2.065 3.391,-3.632 5.785,-4.542c2.636,-1.071 5.555,-1.575 8.588,-1.483c2.743,0.01 5.557,0.656 8.22,1.887c2.348,1.088 4.419,2.815 5.931,4.946c1.54,2.251 2.43,4.796 2.553,7.304l0.275,18.642l0.211,2.271c0.146,1.571 0.666,3.15 1.518,4.608l0.067,0.696l-11.717,-0Zm-8.271,-7.983c2.573,0.051 4.791,-1.17 5.917,-3.259l0.1,-6.371l-3.119,-0.037c-1.808,0.001 -3.462,0.601 -4.703,1.704c-1.203,1.085 -1.811,2.695 -1.681,4.45c-0.004,0.866 0.356,1.759 0.996,2.471c0.688,0.679 1.603,1.063 2.486,1.042l0.004,-0Zm34.203,-8.825c-0.927,-5.005 0.269,-9.813 3.299,-13.259l2.617,-2.416c1.272,-1.136 2.301,-2.511 3.043,-4.067c0.61,-1.445 0.722,-3.117 0.32,-4.796c-0.007,-0.081 -0.018,-0.163 -0.032,-0.244c-0.296,-1.703 -1.941,-3.105 -3.644,-3.105c-0.104,0 -0.206,0.006 -0.307,0.016c-1.376,-0.071 -2.599,0.498 -3.304,1.537c-0.844,1.305 -1.274,2.874 -1.243,4.542l-12.037,0.075c-0.617,-4.456 0.692,-8.643 3.601,-11.517c3.139,-2.884 7.467,-4.325 12.151,-4.046c2.858,0.006 5.789,0.643 8.583,1.867c2.413,1.052 4.554,2.784 6.114,4.946c1.579,2.289 2.524,4.87 2.722,7.433c0.218,4.643 -1.585,8.824 -4.959,11.5l-3.692,3.404c-2.111,2.032 -3.244,4.902 -3.182,8.059l-10.05,0.071Zm-1.841,11.316c-0.405,-1.756 -0.002,-3.467 1.096,-4.65c1.077,-1.208 2.673,-1.865 4.444,-1.829c1.717,-0.055 3.505,0.562 4.987,1.721c1.409,1.092 2.384,2.647 2.686,4.283c0.403,1.749 0.005,3.452 -1.081,4.634c-1.086,1.204 -2.689,1.855 -4.465,1.812c-1.683,0.041 -3.433,-0.538 -4.916,-1.629c-1.465,-1.077 -2.474,-2.671 -2.751,-4.342Z" style="fill:#fff;fill-rule:nonzero;"/><path id="Trazado_129252" d="M92.308,198.333l-17.029,0l-3.26,10l-13.8,0l20.432,-53.333l11.775,0l17.664,53.333l-13.038,0l-2.744,-10Zm-13.786,-9.883l11.063,0l-5.033,-18.387l-6.03,18.387Zm56.766,15.563c-2.068,3.298 -5.766,5.191 -9.948,5.091c-3.381,0.164 -6.879,-1.358 -9.344,-4.066c-2.54,-3.149 -3.916,-6.969 -3.85,-10.692l0.516,-25.638l12.05,0l-0.595,25.813c0.021,0.645 0.117,1.296 0.284,1.942c0.282,1.73 1.919,3.137 3.65,3.137c0.121,-0 0.241,-0.007 0.36,-0.021c2.534,0.107 4.79,-1.015 6.043,-3.008l0.842,-27.863l12.133,0l-1.106,39.625l-11.208,0l0.173,-4.32Zm33.488,-24.463l5.704,-10.833l13.038,-0l-10.613,19.841l10.139,19.775l-12.013,0l-5.868,-11.645l-6.032,11.645l-13.183,0l11.158,-20.875l-9.66,-18.75l12.121,0l5.209,10.842Zm34.526,28.783l-12.083,0l1.093,-39.625l12.084,0l-1.094,39.625Zm-11.388,-49.621c-0.331,-1.697 0.124,-3.343 1.235,-4.466c1.114,-1.19 2.721,-1.834 4.48,-1.796c1.703,-0.057 3.462,0.517 4.939,1.612c1.396,1.045 2.339,2.589 2.574,4.213c0.342,1.701 -0.104,3.354 -1.211,4.487c-1.124,1.186 -2.739,1.823 -4.503,1.776c-1.69,0.046 -3.431,-0.519 -4.903,-1.592c-1.421,-1.036 -2.382,-2.595 -2.611,-4.233Zm31.751,49.62l-12.084,0l1.523,-56.25l12.083,0l-1.522,56.25Zm20.362,0l-12.083,0l1.093,-39.625l12.084,0l-1.094,39.625Zm-11.392,-49.62c-0.331,-1.698 0.124,-3.344 1.235,-4.467c1.114,-1.19 2.721,-1.834 4.479,-1.796c1.704,-0.057 3.463,0.517 4.94,1.613c1.396,1.044 2.339,2.588 2.574,4.212c0.342,1.701 -0.105,3.354 -1.211,4.488c-1.124,1.185 -2.739,1.822 -4.503,1.775c-1.69,0.046 -3.431,-0.519 -4.903,-1.592c-1.422,-1.036 -2.382,-2.595 -2.611,-4.233Zm41.384,49.62c-0.542,-1.158 -0.893,-2.371 -1.037,-3.587c-1.99,2.842 -5.334,4.435 -9.073,4.321c-3.194,0.048 -6.466,-1.193 -9.073,-3.442c-2.528,-2.114 -4.134,-5.108 -4.381,-8.167c-0.618,-4.004 0.872,-7.754 3.936,-9.904c3.925,-2.523 8.691,-3.727 13.703,-3.462l4.04,0.075l0.111,-2.234l-0.138,-1.941c-0.005,-0.101 -0.015,-0.202 -0.03,-0.303c-0.252,-1.725 -1.879,-3.145 -3.605,-3.145c-0.068,-0 -0.135,0.002 -0.201,0.006c-2.55,-0.136 -4.459,1.829 -4.234,4.358l-12.078,0.038c-0.296,-2.537 0.262,-4.98 1.586,-6.942c1.452,-2.065 3.491,-3.632 5.911,-4.541c2.666,-1.071 5.598,-1.576 8.629,-1.484c2.743,0.01 5.539,0.656 8.168,1.888c2.317,1.087 4.341,2.815 5.793,4.946c1.474,2.25 2.29,4.794 2.342,7.3l-0.235,18.641l0.149,2.271c0.094,1.571 0.564,3.151 1.369,4.613l0.048,0.695l-11.7,0Zm-8.05,-7.983c2.58,0.055 4.839,-1.17 6.023,-3.267l0.277,-6.37l-3.118,-0.038c-1.808,0.001 -3.479,0.601 -4.751,1.704c-1.232,1.085 -1.885,2.695 -1.804,4.45c-0.027,0.866 0.308,1.759 0.928,2.471c0.664,0.679 1.564,1.065 2.445,1.05Zm49.117,-20.471c-1.27,-0.19 -2.54,-0.313 -3.803,-0.366c-3.259,-0.273 -6.19,1.149 -7.727,3.75l-0.791,25.07l-12.046,0l1.093,-39.625l11.245,-0.037l-0.157,5.2c1.259,-3.485 4.422,-5.776 8.29,-6.004c1.269,0.033 2.552,0.204 3.824,0.512l0.072,11.5Zm50.014,-30.416l1.867,6.225c-4.926,3.794 -8.745,8.841 -11.059,14.612c-3.013,7.823 -4.769,16.074 -5.2,24.446l-0.183,3.587c-0.367,10 1.782,16.806 6.446,20.417l-2.638,6.063c-3.008,-1.537 -5.578,-3.811 -7.471,-6.609c-2.158,-3.232 -3.652,-6.86 -4.395,-10.675c-0.913,-4.308 -1.293,-8.712 -1.134,-13.112c0.206,-6.68 1.341,-13.3 3.371,-19.667c1.751,-5.813 4.544,-11.26 8.242,-16.075c3.138,-4.123 7.34,-7.314 12.154,-9.229l-0,0.017Zm20.733,9.395l-1.725,9.85l6.338,0l-1.5,8.571l-6.342,0l-3.075,18.2c-0.203,0.943 -0.12,1.925 0.238,2.821c0.33,0.636 1.154,0.978 2.47,1.025c1.053,-0.003 2.105,-0.064 3.15,-0.183l-0.879,8.933c-2.094,0.669 -4.286,0.979 -6.483,0.917c-3.143,0.192 -6.216,-1.015 -8.388,-3.296c-1.946,-2.47 -2.77,-5.646 -2.27,-8.75l3.22,-19.667l-4.9,0l1.467,-8.571l4.908,0l1.721,-9.85l12.05,0Zm24.75,9.117c3.258,-0.034 6.454,0.889 9.192,2.654c2.605,1.742 4.598,4.26 5.696,7.196c1.234,3.268 1.679,6.782 1.3,10.254l-0.075,0.804c-0.44,5.554 -2.843,10.775 -6.775,14.721c-3.771,3.712 -8.922,5.691 -14.209,5.459c-3.228,0.034 -6.397,-0.876 -9.116,-2.617c-2.589,-1.727 -4.58,-4.216 -5.696,-7.121c-1.251,-3.238 -1.703,-6.73 -1.317,-10.179c0.304,-5.803 2.669,-11.312 6.667,-15.529c3.761,-3.824 8.975,-5.876 14.333,-5.642Zm-8.971,21.192l-0.108,2.158c-0.342,5.436 1.325,8.203 5,8.3c4.736,0.147 7.483,-3.692 8.242,-11.517l0.146,-3.333c0.138,-1.833 -0.29,-3.664 -1.225,-5.246c-0.84,-1.288 -2.288,-2.056 -3.825,-2.029c-2.171,-0.098 -4.244,0.934 -5.475,2.725c-1.698,2.682 -2.649,5.769 -2.755,8.942Zm47.555,-0.717c0.445,-5.44 2.426,-10.642 5.712,-15c2.843,-3.661 7.309,-5.703 11.938,-5.458c3.296,0.061 6.388,1.628 8.387,4.25l3.846,-20.142l12.083,0l-9.725,56.233l-10.729,0l0.513,-4.283c-2.302,3.14 -5.957,5.015 -9.85,5.054c-3.487,0.102 -6.82,-1.474 -8.955,-4.233c-2.317,-3.25 -3.531,-7.159 -3.462,-11.15c-0.05,-1.503 -0.001,-3.008 0.146,-4.504l0.096,-0.767Zm12.012,0.833c-0.184,1.359 -0.27,2.729 -0.258,4.1c-0,4.053 1.366,6.116 4.1,6.188c2.544,-0.015 4.921,-1.292 6.337,-3.404l2.709,-15.196c-0.634,-2.107 -2.618,-3.536 -4.817,-3.471c-2.201,-0.071 -4.279,1.043 -5.438,2.917c-1.598,2.693 -2.498,5.745 -2.616,8.875l-0.017,-0.009Zm50.404,-21.308c3.258,-0.034 6.454,0.889 9.192,2.654c2.605,1.742 4.598,4.26 5.696,7.196c1.234,3.268 1.679,6.782 1.3,10.254l-0.075,0.804c-0.44,5.554 -2.843,10.775 -6.775,14.721c-3.771,3.712 -8.922,5.691 -14.209,5.459c-3.228,0.034 -6.397,-0.876 -9.116,-2.617c-2.589,-1.727 -4.58,-4.216 -5.696,-7.121c-1.258,-3.236 -1.717,-6.728 -1.338,-10.179c0.304,-5.803 2.669,-11.312 6.667,-15.529c3.766,-3.83 8.989,-5.882 14.354,-5.642Zm-8.971,21.192l-0.108,2.158c-0.342,5.436 1.325,8.203 5,8.3c4.736,0.147 7.483,-3.692 8.242,-11.517l0.146,-3.333c0.138,-1.833 -0.29,-3.664 -1.225,-5.246c-0.842,-1.291 -2.293,-2.059 -3.834,-2.029c-2.17,-0.098 -4.244,0.934 -5.475,2.725c-1.694,2.683 -2.643,5.77 -2.746,8.942Zm49.659,-1.667c-0.748,5.741 -2.29,11.351 -4.584,16.667c-2.016,4.844 -4.853,9.304 -8.387,13.183c-3.017,3.334 -6.773,5.916 -10.967,7.538l-1.866,-6.225c4.91,-3.875 8.729,-8.962 11.079,-14.759c3.02,-7.788 4.77,-16.011 5.183,-24.354l0.221,-3.587c0.244,-10.034 -1.917,-16.821 -6.483,-20.363l2.675,-6.079c4.39,2.222 7.883,5.89 9.887,10.383c2.5,5.543 3.798,11.553 3.808,17.634l0.038,2.308c-0.039,2.216 -0.198,4.429 -0.475,6.629l-0.129,1.025Z" style="fill:#12263f;fill-rule:nonzero;"/><path id="Trazado_129256" d="M1674.65,193.683l10.869,-38.683l14.354,0l-18.244,53.333l-13.696,0l-16.469,-53.333l13.546,0l9.64,38.683Zm47.145,15.384c-3.318,0.036 -6.712,-0.828 -9.82,-2.5c-2.965,-1.611 -5.492,-4.011 -7.252,-6.884c-1.853,-3.029 -2.904,-6.389 -3.04,-9.72l-0.036,-1.025c-0.481,-5.803 1.154,-11.294 4.606,-15.471c3.224,-3.752 8.116,-5.743 13.455,-5.475c3.095,-0.039 6.262,0.863 9.082,2.587c2.675,1.708 4.865,4.125 6.27,6.921c1.597,3.173 2.455,6.574 2.501,9.921l0.015,5.025l-23.584,-0c0.225,1.84 1.103,3.633 2.473,5.054c1.456,1.356 3.351,2.104 5.198,2.05c3.577,0.066 6.799,-1.402 8.843,-4.029l6.014,6.679c-1.277,2.205 -3.194,3.934 -5.543,5c-2.584,1.221 -5.473,1.861 -8.485,1.879l-0.697,-0.012Zm-1.543,-31.567c-1.648,-0.075 -3.167,0.502 -4.224,1.604c-1.313,1.575 -2.166,3.502 -2.486,5.613l12.05,-0l0.071,-1.059c0.034,-0.793 -0.056,-1.603 -0.264,-2.404c-0.575,-2.281 -2.875,-3.964 -5.131,-3.754l-0.016,0Zm46.294,2.379c-1.269,-0.19 -2.538,-0.313 -3.802,-0.366c-3.257,-0.273 -6.195,1.149 -7.745,3.75l-0.895,25.07l-12.05,0l1.285,-39.625l11.244,-0.037l-0.182,5.2c1.276,-3.485 4.45,-5.776 8.319,-6.004c1.269,0.033 2.551,0.204 3.822,0.512l0.004,11.5Zm39.719,8.717c0.37,5.492 -0.864,10.754 -3.555,15.154c-2.358,3.617 -6.535,5.617 -11.181,5.354c-3.642,0.04 -7.322,-1.821 -9.702,-4.908l-0.919,4.137l-10.913,0l1.832,-56.25l12.05,0l-1.107,19.884c1.905,-2.534 4.939,-3.987 8.336,-3.992c3.495,-0.12 7.084,1.426 9.672,4.167c2.792,3.225 4.554,7.131 5.011,11.112c0.243,1.53 0.398,3.06 0.465,4.583l0.011,0.759Zm-12.076,-0.713c-0.016,-1.407 -0.114,-2.823 -0.291,-4.241c-0.554,-3.925 -2.248,-5.973 -5.08,-6.142c-2.503,-0.092 -4.7,1.113 -5.801,3.179l-0.639,15.796c1.06,2.04 3.299,3.319 5.439,3.108c3.948,0.123 6.064,-2.437 6.349,-7.679l0.052,-3.254l-0.029,-0.767Zm34.467,-19.904c3.253,-0.034 6.58,0.889 9.567,2.654c2.852,1.743 5.2,4.26 6.713,7.196c1.695,3.268 2.637,6.782 2.748,10.254l0.039,0.805c0.34,5.556 -1.331,10.776 -4.712,14.72c-3.247,3.712 -8.118,5.691 -13.437,5.459c-3.224,0.034 -6.522,-0.875 -9.487,-2.617c-2.833,-1.727 -5.175,-4.216 -6.701,-7.121c-1.716,-3.236 -2.668,-6.728 -2.776,-10.179c-0.516,-5.803 1.071,-11.312 4.473,-15.529c3.224,-3.831 8.156,-5.885 13.556,-5.646l0.017,0.004Zm-5.998,21.188l0.197,2.158c0.426,5.436 2.484,8.203 6.172,8.3c4.757,0.147 6.962,-3.692 6.615,-11.517l-0.325,-3.333c-0.131,-1.836 -0.83,-3.668 -2,-5.246c-1.021,-1.288 -2.577,-2.056 -4.111,-2.029c-2.185,-0.098 -4.112,0.934 -5.09,2.725c-1.307,2.685 -1.81,5.772 -1.458,8.942Z" style="fill:#12263f;fill-rule:nonzero;"/><path id="Trazado_129260" d="M3201.78,207.546c0.667,-13.236 4.921,-23.302 12.762,-30.196l6.925,-5.504c3.345,-2.586 6.231,-5.716 8.538,-9.258c1.964,-3.292 2.881,-7.105 2.629,-10.93c0.014,-0.18 0.021,-0.361 0.021,-0.542c-0,-3.886 -3.198,-7.084 -7.083,-7.084c-0.233,0 -0.465,0.012 -0.696,0.035c-3.107,-0.162 -6.117,1.135 -8.134,3.504c-2.435,2.974 -4.029,6.547 -4.616,10.346l-27.442,0.166c0.354,-10.155 4.995,-19.699 12.763,-26.25c8.29,-6.569 18.72,-9.852 29.279,-9.216c6.506,0.013 12.93,1.466 18.808,4.254c5.076,2.393 9.267,6.332 11.971,11.25c2.689,5.214 3.819,11.094 3.254,16.933c-0.667,9.397 -5.944,18.128 -15.833,26.192l-9.759,7.758c-5.6,4.626 -9.309,11.154 -10.416,18.334l-22.971,0.208Zm-8.675,25.787c-0.228,-4.005 1.368,-7.906 4.338,-10.604c2.929,-2.746 6.818,-4.242 10.833,-4.166c3.932,-0.13 7.765,1.277 10.679,3.92c2.777,2.487 4.383,6.031 4.421,9.759c0.232,3.979 -1.345,7.857 -4.288,10.546c-2.949,2.742 -6.857,4.225 -10.883,4.129c-3.852,0.093 -7.609,-1.228 -10.554,-3.713c-2.905,-2.449 -4.573,-6.071 -4.546,-9.871Z" style="fill:#12263f;fill-rule:nonzero;"/><path id="Trazado_129258" d="M2298.37,190.171c0.242,3.6 -0.545,7.053 -2.272,9.962c-1.758,2.933 -4.337,5.244 -7.478,6.7c-3.329,1.577 -7.081,2.34 -10.98,2.234c-4.923,0.136 -9.976,-1.82 -13.907,-5.384c-3.929,-3.921 -6.495,-8.926 -7.229,-14.1c-0.795,-4.345 -0.971,-8.694 -0.525,-12.916c0.339,-4.372 1.561,-8.513 3.595,-12.188c1.765,-3.25 4.366,-5.913 7.582,-7.762c3.125,-1.727 6.756,-2.577 10.555,-2.471c5.086,-0.174 10.324,1.715 14.528,5.237c4.088,3.805 6.768,8.822 7.494,14.025l-12.506,-0.037c-0.077,-2.455 -1.05,-4.926 -2.741,-6.959c-1.746,-1.52 -3.961,-2.331 -6.103,-2.233c-6.623,-0.219 -9.915,4.907 -9.877,15.379c-0.047,3.36 0.113,6.748 0.479,10.146c0.726,6.006 3.385,9.093 7.975,9.263c2.587,0.23 5.022,-0.553 6.776,-2.179c1.594,-1.737 2.445,-4.061 2.405,-6.571l12.229,-0.146Zm22.865,-22.192c3.252,-0.034 6.579,0.889 9.567,2.654c2.851,1.743 5.2,4.26 6.712,7.196c1.695,3.268 2.637,6.782 2.749,10.254l0.038,0.805c0.345,5.554 -1.32,10.774 -4.695,14.72c-3.247,3.712 -8.118,5.691 -13.437,5.459c-3.224,0.034 -6.522,-0.875 -9.486,-2.617c-2.833,-1.727 -5.175,-4.216 -6.702,-7.121c-1.716,-3.236 -2.668,-6.728 -2.776,-10.179c-0.516,-5.803 1.071,-11.312 4.473,-15.529c3.224,-3.831 8.156,-5.885 13.556,-5.646l0.001,0.004Zm-5.978,21.188l0.197,2.158c0.426,5.431 2.481,8.194 6.167,8.292c4.757,0.147 6.962,-3.692 6.615,-11.517l-0.325,-3.333c-0.121,-1.833 -0.807,-3.664 -1.966,-5.246c-1.025,-1.287 -2.582,-2.052 -4.115,-2.021c-2.184,-0.098 -4.112,0.934 -5.09,2.725c-1.316,2.683 -1.828,5.77 -1.483,8.942Zm42.367,-20.496l-0.119,4.762c2.272,-3.546 6.284,-5.573 10.8,-5.458c2.081,-0.046 4.217,0.535 6.131,1.667c1.643,1.02 2.947,2.537 3.681,4.283c2.323,-3.768 6.477,-5.981 11.206,-5.971c3.226,-0.139 6.54,1.425 8.732,4.121c2.401,3.433 3.643,7.423 3.517,11.296l-0.623,24.962l-12.084,0l0.688,-24.945l-0.159,-2.159c-0.341,-2.414 -1.652,-3.664 -3.934,-3.75c-2.35,0.126 -4.367,1.325 -5.473,3.254l-0.884,27.6l-12.084,0l0.653,-24.87l-0.164,-2.196c-0.353,-2.5 -1.665,-3.75 -3.934,-3.75c-2.324,0.14 -4.311,1.338 -5.399,3.254l-0.989,27.562l-12.046,0l1.281,-39.625l11.203,-0.037Zm86.822,19.887c0.121,3.856 -0.453,7.607 -1.693,11.08c-0.969,2.91 -2.749,5.4 -5.156,7.212c-2.223,1.573 -4.981,2.36 -7.902,2.254c-3.286,-0.011 -6.604,-1.524 -9.001,-4.104l-0.964,18.567l-12.05,-0l1.77,-54.859l11.133,-0.037l-0.088,3.771c1.852,-2.883 5.108,-4.539 8.781,-4.467c3.474,-0.121 7.041,1.415 9.614,4.138c2.785,3.222 4.552,7.119 5.03,11.095c0.288,1.787 0.463,3.574 0.526,5.35Zm-12.414,-4.908c-0.68,-4.028 -2.336,-6.078 -4.969,-6.15c-2.536,-0.164 -4.786,1.024 -5.897,3.113l-0.601,15.712c1.033,2.11 3.317,3.459 5.514,3.258c4.283,0.073 6.388,-3.602 6.317,-11.025c-0.111,-2.344 -0.233,-3.98 -0.364,-4.908Zm30.075,24.683l-12.083,0l1.794,-56.25l12.084,0l-1.795,56.25Zm27.458,0.734c-3.318,0.036 -6.712,-0.828 -9.82,-2.5c-2.965,-1.611 -5.492,-4.011 -7.252,-6.884c-1.853,-3.029 -2.903,-6.389 -3.04,-9.72l-0.036,-1.025c-0.481,-5.803 1.154,-11.294 4.606,-15.471c3.224,-3.752 8.117,-5.743 13.455,-5.475c3.095,-0.039 6.262,0.863 9.083,2.587c2.674,1.708 4.864,4.125 6.269,6.921c1.591,3.173 2.443,6.572 2.484,9.917l0.014,5.025l-23.583,-0c0.231,1.844 1.116,3.639 2.494,5.058c1.456,1.356 3.352,2.104 5.198,2.05c3.577,0.066 6.799,-1.402 8.843,-4.029l5.996,6.667c-1.277,2.205 -3.194,3.934 -5.543,5c-2.584,1.221 -5.473,1.86 -8.485,1.879l-0.683,-0Zm-1.543,-31.567c-1.647,-0.075 -3.167,0.502 -4.224,1.604c-1.313,1.575 -2.166,3.502 -2.486,5.613l12.05,-0l0.071,-1.059c0.043,-0.793 -0.038,-1.605 -0.24,-2.408c-0.578,-2.292 -2.896,-3.977 -5.159,-3.75l-0.012,0Zm34.274,-8.825l-0.132,4.763c2.275,-3.554 6.295,-5.584 10.82,-5.463c2.081,-0.046 4.217,0.535 6.132,1.667c1.642,1.02 2.946,2.537 3.68,4.283c2.323,-3.768 6.477,-5.981 11.206,-5.971c3.226,-0.136 6.539,1.431 8.729,4.129c2.401,3.433 3.643,7.423 3.517,11.296l-0.612,24.954l-12.083,0l0.688,-24.945l-0.159,-2.159c-0.341,-2.414 -1.652,-3.664 -3.934,-3.75c-2.351,0.126 -4.367,1.325 -5.474,3.254l-0.9,27.6l-12.084,0l0.653,-24.87l-0.164,-2.196c-0.353,-2.5 -1.665,-3.75 -3.934,-3.75c-2.324,0.14 -4.312,1.338 -5.399,3.254l-0.972,27.562l-12.05,0l1.285,-39.625l11.187,-0.033Zm70.285,40.392c-3.318,0.036 -6.711,-0.828 -9.819,-2.5c-2.965,-1.611 -5.493,-4.011 -7.252,-6.884c-1.853,-3.029 -2.904,-6.389 -3.04,-9.72l-0.037,-1.025c-0.48,-5.803 1.155,-11.294 4.606,-15.471c3.219,-3.756 8.108,-5.753 13.445,-5.492c3.095,-0.039 6.262,0.863 9.083,2.588c2.681,1.71 4.875,4.134 6.28,6.937c1.597,3.173 2.455,6.574 2.501,9.921l0.014,5.025l-23.587,-0c0.225,1.84 1.102,3.633 2.472,5.054c1.457,1.355 3.352,2.101 5.198,2.046c3.577,0.066 6.799,-1.402 8.843,-4.029l5.996,6.666c-1.277,2.205 -3.194,3.935 -5.544,5c-2.584,1.222 -5.472,1.861 -8.484,1.88l-0.675,0.004Zm-1.543,-31.567c-1.647,-0.075 -3.166,0.502 -4.223,1.604c-1.313,1.575 -2.167,3.502 -2.486,5.613l12.062,-0l0.072,-1.059c0.033,-0.793 -0.056,-1.603 -0.265,-2.404c-0.575,-2.288 -2.887,-3.974 -5.147,-3.754l-0.013,0Zm33.983,-8.825l-0.161,4.763c2.228,-3.546 6.2,-5.588 10.687,-5.492c3.225,-0.136 6.54,1.409 8.76,4.083c2.438,3.448 3.699,7.469 3.565,11.371l-0.644,24.933l-12.084,0l0.671,-25.041c-0.014,-0.778 -0.1,-1.564 -0.257,-2.346c-0.5,-2.322 -2.031,-3.483 -4.592,-3.483c-2.267,0.013 -4.266,1.052 -5.434,2.825l-0.975,28.045l-12.046,0l1.285,-39.625l11.225,-0.033Zm44.718,-9.812l-0.33,9.85l6.338,-0l-0.289,8.57l-6.325,0l-0.504,18.2c-0.07,0.943 0.152,1.926 0.636,2.821c0.42,0.636 1.292,0.978 2.616,1.025c1.052,-0.003 2.095,-0.064 3.124,-0.183l0.383,8.937c-1.999,0.67 -4.147,0.98 -6.353,0.917c-3.117,0.193 -6.36,-1.015 -8.854,-3.296c-2.295,-2.47 -3.568,-5.645 -3.507,-8.75l0.443,-19.666l-4.9,-0l0.255,-8.571l4.909,-0l0.329,-9.85l12.029,-0.004Zm26.042,9.116c3.252,-0.034 6.579,0.889 9.566,2.654c2.852,1.743 5.201,4.26 6.713,7.196c1.695,3.268 2.637,6.782 2.749,10.254l0.038,0.805c0.345,5.554 -1.32,10.774 -4.695,14.72c-3.247,3.712 -8.118,5.691 -13.437,5.459c-3.224,0.034 -6.522,-0.875 -9.487,-2.617c-2.833,-1.727 -5.175,-4.216 -6.701,-7.121c-1.716,-3.236 -2.668,-6.728 -2.776,-10.179c-0.516,-5.803 1.071,-11.312 4.473,-15.529c3.227,-3.835 8.166,-5.89 13.573,-5.646l-0.016,0.004Zm-5.961,21.188l0.197,2.158c0.426,5.436 2.483,8.203 6.172,8.3c4.757,0.147 6.962,-3.692 6.615,-11.517l-0.325,-3.333c-0.121,-1.833 -0.808,-3.664 -1.966,-5.246c-1.022,-1.288 -2.578,-2.056 -4.112,-2.029c-2.185,-0.098 -4.112,0.934 -5.09,2.725c-1.319,2.682 -1.834,5.769 -1.491,8.942Z" style="fill:#12263f;fill-rule:nonzero;"/><path id="Trazado_129253" d="M765.075,173.708l22.221,0l-3.358,19.405l-22.155,-0l-4.633,26.25l-20.608,-0l4.583,-26.25l-22.308,-0l3.358,-19.405l22.292,0l4.429,-25.512l20.612,-0l-4.433,25.512Z" style="fill:#ff5f65;fill-rule:nonzero;"/><path id="Trazado_129255" d="M1444.24,173.708l22.221,0l-3.359,19.405l-22.154,-0l-4.633,26.25l-20.609,-0l4.584,-26.25l-22.309,-0l3.359,-19.405l22.291,0l4.43,-25.512l20.612,-0l-4.433,25.512Z" style="fill:#ff5f65;fill-rule:nonzero;"/><path id="Trazado_129259" d="M2915.08,173.708l22.221,0l-3.358,19.405l-22.155,-0l-4.633,26.25l-20.608,-0l4.583,-26.25l-22.308,-0l3.358,-19.405l22.292,0l4.429,-25.512l20.612,-0l-4.433,25.512Z" style="fill:#ff5f65;fill-rule:nonzero;"/><path id="Trazado_129257" d="M2077.57,173.708l22.221,0l-3.358,19.405l-22.155,-0l-4.633,26.25l-20.608,-0l4.583,-26.25l-22.308,-0l3.358,-19.405l22.292,0l4.429,-25.512l20.612,-0l-4.433,25.512Z" style="fill:#ff5f65;fill-rule:nonzero;"/><path id="Trazado_129261" d="M3570.16,184.858l-60.491,0l3.087,-17.454l60.417,0l-3.013,17.454Zm-5.1,29.475l-60.475,0l3.071,-17.458l60.417,0l-3.013,17.458Z" style="fill:#ff5f65;fill-rule:nonzero;"/></g></svg>