<svg xmlns="http://www.w3.org/2000/svg" width="400" height="407.085" viewBox="0 0 400 407.085">
  <g id="Grupo_89883" data-name="Grupo 89883" transform="translate(-133.348 -631.266)">
    <g id="Speech_Bubble" data-name="Speech Bubble" transform="translate(149.979 662.218)">
      <g id="Grupo_89613" data-name="Grupo 89613">
        <g id="Grupo_89605" data-name="Grupo 89605">
          <g id="Grupo_89604" data-name="Grupo 89604">
            <g id="Grupo_89603" data-name="Grupo 89603">
              <g id="Grupo_89602" data-name="Grupo 89602">
                <g id="Grupo_89601" data-name="Grupo 89601">
                  <g id="Grupo_89600" data-name="Grupo 89600">
                    <g id="Grupo_89594" data-name="Grupo 89594" transform="translate(0.231 0.244)">
                      <g id="Grupo_89593" data-name="Grupo 89593">
                        <g id="Grupo_89592" data-name="Grupo 89592">
                          <g id="Grupo_89591" data-name="Grupo 89591">
                            <path id="Trazado_122663" data-name="Trazado 122663" d="M233.946,736,221.3,734.522a40.661,40.661,0,1,1,8.2-12.042l.015-.017Z" transform="translate(-151.809 -665.42)" fill="#fff"/>
                          </g>
                        </g>
                      </g>
                    </g>
                    <g id="Grupo_89599" data-name="Grupo 89599">
                      <g id="Grupo_89598" data-name="Grupo 89598">
                        <g id="Grupo_89597" data-name="Grupo 89597">
                          <g id="Grupo_89596" data-name="Grupo 89596">
                            <g id="Grupo_89595" data-name="Grupo 89595">
                              <path id="Trazado_122664" data-name="Trazado 122664" d="M233.924,735.974s-.113-.309-.313-.894c-.2-.6-.5-1.463-.88-2.594-.768-2.284-1.9-5.641-3.363-10.007l.219.04-.015.017a.126.126,0,0,1-.214-.131,40.579,40.579,0,0,0,3.285-19.725,39.836,39.836,0,0,0-1.009-6.176,45.6,45.6,0,0,0-2.157-6.335,40.31,40.31,0,0,0-77.026,10.589,41.059,41.059,0,0,0,1.865,18.458,39.72,39.72,0,0,0,9.181,14.866,40.468,40.468,0,0,0,27.743,12.234l1.732.022a10.991,10.991,0,0,0,1.7-.054l3.311-.292a55.98,55.98,0,0,0,6.152-1.35,40.457,40.457,0,0,0,17.058-10.226.121.121,0,0,1,.1-.036l9.356,1.167,2.432.311c.55.071.842.117.842.117s-.259-.018-.795-.074l-2.4-.253-9.46-1.029.1-.036A40.426,40.426,0,0,1,204.244,745a55.958,55.958,0,0,1-6.2,1.391l-3.344.31a11.1,11.1,0,0,1-1.719.061l-1.75-.016a40.848,40.848,0,0,1-28.1-12.3A40.183,40.183,0,0,1,153.8,719.4a41.569,41.569,0,0,1-1.909-18.711,40.606,40.606,0,0,1,7.191-18.33,18.029,18.029,0,0,1,1.5-1.966l1.569-1.9,1.732-1.737a16.741,16.741,0,0,1,1.789-1.655l1.874-1.546c.609-.532,1.322-.923,1.976-1.388.673-.438,1.316-.921,2.01-1.315l2.107-1.131A40.253,40.253,0,0,1,191.5,665.16a40.977,40.977,0,0,1,30.309,12.572A40.583,40.583,0,0,1,229.878,690a45.867,45.867,0,0,1,2.155,6.409,39.942,39.942,0,0,1,.991,6.242,40.586,40.586,0,0,1-3.434,19.859l-.215-.132.015-.017a.125.125,0,0,1,.177-.02.132.132,0,0,1,.042.06c1.414,4.424,2.5,7.827,3.241,10.143.355,1.123.627,1.979.815,2.577C233.845,735.695,233.924,735.974,233.924,735.974Z" transform="translate(-151.556 -665.153)" fill="#263238"/>
                            </g>
                          </g>
                        </g>
                      </g>
                    </g>
                  </g>
                </g>
              </g>
            </g>
          </g>
        </g>
        <g id="Grupo_89612" data-name="Grupo 89612" transform="translate(21.574 26.044)">
          <g id="Grupo_89611" data-name="Grupo 89611">
            <g id="Grupo_89610" data-name="Grupo 89610">
              <g id="Grupo_89609" data-name="Grupo 89609">
                <g id="Grupo_89608" data-name="Grupo 89608">
                  <g id="Grupo_89607" data-name="Grupo 89607">
                    <g id="Grupo_89606" data-name="Grupo 89606">
                      <path id="Trazado_122665" data-name="Trazado 122665" d="M175.175,710.006l5-5.352,10.284,8.534,18.953-19.522,4.982,5.012L190.06,723.2Z" transform="translate(-175.175 -693.665)" fill="#ff725e"/>
                    </g>
                  </g>
                </g>
              </g>
            </g>
          </g>
        </g>
      </g>
    </g>
    <g id="Character" transform="translate(133.348 631.266)">
      <g id="Grupo_89882" data-name="Grupo 89882">
        <g id="Grupo_89615" data-name="Grupo 89615" transform="translate(176.31 208.789)">
          <g id="Grupo_89614" data-name="Grupo 89614">
            <path id="Trazado_122666" data-name="Trazado 122666" d="M337.024,860.211a59.832,59.832,0,0,1-10.65-.2,59.832,59.832,0,0,1,10.65.2Z" transform="translate(-326.374 -859.85)" fill="#263238"/>
          </g>
        </g>
        <g id="Grupo_89664" data-name="Grupo 89664">
          <g id="Grupo_89617" data-name="Grupo 89617" transform="translate(17.947 186.371)">
            <g id="Grupo_89616" data-name="Grupo 89616">
              <path id="Trazado_122667" data-name="Trazado 122667" d="M153.025,853.961s3.537,20.073,6.89,24.338,5.525,17.545,5.525,17.545l27.427-9.875-1.84-10.076,1.668-25.417s-9.384-15.664-9.022-15.13S153.025,853.961,153.025,853.961Z" transform="translate(-152.999 -835.309)" fill="#ffbf9d"/>
              <path id="Trazado_122668" data-name="Trazado 122668" d="M165.419,895.873l0-.027c-.022-.133-2.209-13.324-5.52-17.535-1.735-2.206-3.517-8.709-4.708-13.777-1.288-5.488-2.178-10.52-2.188-10.571l0-.016.014-.007c.077-.045,7.767-4.53,15.35-9.042,13.252-7.885,15.278-9.367,15.29-9.54l0-.007,0,0h0c-.01-.026-.005-.029,0-.035s.032.006.041.02a.038.038,0,0,1,.007.021c.4.735,8.928,14.962,9.015,15.109l0,.005v.007l-1.668,25.418,1.844,10.089-.018.006Zm-12.371-41.9c.117.659,3.611,20.151,6.882,24.311,1.735,2.206,3.146,6.863,4.024,10.381.906,3.628,1.447,6.822,1.5,7.148l27.384-9.859L191,875.895l1.667-25.416c-.105-.174-2.33-3.889-4.523-7.558-1.313-2.2-2.358-3.948-3.106-5.2-.445-.746-.787-1.324-1.02-1.718-.2-.34-.3-.508-.345-.593C182.8,836.615,154.46,853.147,153.048,853.97Z" transform="translate(-152.997 -835.306)" fill="#ff9a6c"/>
            </g>
          </g>
          <g id="Grupo_89618" data-name="Grupo 89618" transform="translate(22.509 196.549)">
            <path id="Trazado_122669" data-name="Trazado 122669" d="M243.789,846.449s-14.168,4.344-16.355,19.259c-1.012,6.9-11.354,70.51-11.354,70.51l-16.021-45.486-42.068,15.6s15.318,47.134,16.266,49.9c7.873,22.98,14.427,55.36,50.21,51.749,37.233-3.758,30.237-76.089,30.237-76.089Z" transform="translate(-157.991 -846.449)" fill="#455a64"/>
          </g>
          <g id="Grupo_89623" data-name="Grupo 89623" transform="translate(0 12.869)">
            <g id="Grupo_89622" data-name="Grupo 89622">
              <g id="Grupo_89619" data-name="Grupo 89619" transform="translate(0.133 1.378)">
                <rect id="Rectángulo_35279" data-name="Rectángulo 35279" width="334.019" height="3.314" transform="translate(0 217.67) rotate(-40.667)" fill="#e0e0e0"/>
              </g>
              <g id="Grupo_89621" data-name="Grupo 89621">
                <g id="Grupo_89620" data-name="Grupo 89620">
                  <path id="Trazado_122670" data-name="Trazado 122670" d="M135.643,866.919a2.739,2.739,0,0,1,.332-.332l.98-.888,3.836-3.389,14.732-12.844,54.129-46.9c45.7-39.532,108.768-93.976,178.7-154.061l-.1,1.375-2.149-2.5-.01-.013,1.375.1C254.681,761.56,145.3,855.031,133.547,864.478l.01-.136,1.692,2.058a4.165,4.165,0,0,1,.395.519c0,.016-.091-.072-.416-.424l-1.817-2.027-.063-.069.073-.067c11.11-10.2,119.989-104.252,252.778-218.341l.739-.636.636.74.011.012,2.148,2.5.636.739-.74.636c-70.235,60.348-133.841,114.742-179.775,153.94l-54.344,46.3L140.768,862.7l-3.827,3.2A13.82,13.82,0,0,1,135.643,866.919Z" transform="translate(-133.348 -645.355)" fill="#263238"/>
                </g>
              </g>
            </g>
          </g>
          <g id="Grupo_89644" data-name="Grupo 89644" transform="translate(17.347 171.202)">
            <g id="Grupo_89624" data-name="Grupo 89624" transform="translate(24.053)">
              <path id="Trazado_122671" data-name="Trazado 122671" d="M185.137,818.937c.264.163,3.962,3.831,7.524,6.657s4.669,3.04,5.655,7.338,2.6,18.172,2.191,21.273-11.012,23.236-11.012,23.236-10.1,3.693-10.793-9.722,10.921-21.887,10.921-21.887l-1.554-10.321s-5.63-5.375-6.264-9.681S183.115,817.7,185.137,818.937Z" transform="translate(-178.672 -818.7)" fill="#ffbf9d"/>
            </g>
            <g id="Grupo_89641" data-name="Grupo 89641" transform="translate(0 7.636)">
              <g id="Grupo_89628" data-name="Grupo 89628" transform="translate(0 17.926)">
                <g id="Grupo_89625" data-name="Grupo 89625" transform="translate(0.229 0.142)">
                  <path id="Trazado_122672" data-name="Trazado 122672" d="M160.434,847.739c-4.416-2.226-6.4.214-7.167,1.632a6.671,6.671,0,0,0-.431,4.762A10.8,10.8,0,0,0,155,858.121c1.281,1.587,2.886,2.989,4.783,3.119s4.2-2.243,4.442-4.509" transform="translate(-152.59 -846.841)" fill="#ffbf9d"/>
                </g>
                <g id="Grupo_89627" data-name="Grupo 89627">
                  <g id="Grupo_89626" data-name="Grupo 89626">
                    <path id="Trazado_122673" data-name="Trazado 122673" d="M164.206,856.718c.016,0,.016.109,0,.315a3.825,3.825,0,0,1-.207.877,6,6,0,0,1-1.941,2.668,3.665,3.665,0,0,1-2.178.846,5.028,5.028,0,0,1-2.542-.816,10,10,0,0,1-2.185-1.934,14.016,14.016,0,0,1-1.8-2.551,7.66,7.66,0,0,1-.705-5.914,4.976,4.976,0,0,1,3.418-3.412,5.493,5.493,0,0,1,3.275.371,5.826,5.826,0,0,1,.808.386c.179.1.269.157.261.172a9.931,9.931,0,0,1-1.132-.384,5.6,5.6,0,0,0-3.131-.218,4.662,4.662,0,0,0-3.081,3.218,7.321,7.321,0,0,0,.707,5.559,14.054,14.054,0,0,0,1.727,2.469,9.813,9.813,0,0,0,2.067,1.868,4.692,4.692,0,0,0,2.315.792,3.368,3.368,0,0,0,1.968-.72,6.171,6.171,0,0,0,1.97-2.467C164.123,857.143,164.161,856.711,164.206,856.718Z" transform="translate(-152.339 -846.685)" fill="#ff9a6c"/>
                  </g>
                </g>
              </g>
              <g id="Grupo_89632" data-name="Grupo 89632" transform="translate(6.116 9.492)">
                <g id="Grupo_89629" data-name="Grupo 89629" transform="translate(0.214 0.129)">
                  <path id="Trazado_122674" data-name="Trazado 122674" d="M166.782,838.2a8.184,8.184,0,0,0-3.753-.557,4.285,4.285,0,0,0-3.244,2.331,7.437,7.437,0,0,0-.467,3.792,20.912,20.912,0,0,0,7.209,14.558,3.188,3.188,0,0,0,3.959.09c.807-.59,1.585-1.438,2.207-4.974" transform="translate(-159.269 -837.593)" fill="#ffbf9d"/>
                </g>
                <g id="Grupo_89631" data-name="Grupo 89631">
                  <g id="Grupo_89630" data-name="Grupo 89630">
                    <path id="Trazado_122675" data-name="Trazado 122675" d="M172.672,853.429a1.252,1.252,0,0,1-.025.392c-.032.255-.09.628-.192,1.106a10.524,10.524,0,0,1-.5,1.716,4.043,4.043,0,0,1-1.427,1.919,3.362,3.362,0,0,1-2.847.568,3.576,3.576,0,0,1-1.458-.782c-.428-.346-.847-.729-1.262-1.136a19.949,19.949,0,0,1-4.15-6.26,22.881,22.881,0,0,1-1.744-7.309,8.146,8.146,0,0,1,.327-3.307,4.3,4.3,0,0,1,1.852-2.24,4.581,4.581,0,0,1,2.305-.645,6.743,6.743,0,0,1,1.78.229,9.753,9.753,0,0,1,1.071.343,1.154,1.154,0,0,1,.356.166c-.012.039-.525-.132-1.469-.328a5.19,5.19,0,0,0-3.868.522,3.975,3.975,0,0,0-1.657,2.085,7.848,7.848,0,0,0-.261,3.142,23.161,23.161,0,0,0,1.744,7.155,20.029,20.029,0,0,0,4.024,6.138c.4.4.8.779,1.218,1.123a3.192,3.192,0,0,0,1.292.723,3.026,3.026,0,0,0,2.55-.46,3.817,3.817,0,0,0,1.377-1.749,11.839,11.839,0,0,0,.564-1.657A13.582,13.582,0,0,1,172.672,853.429Z" transform="translate(-159.035 -837.451)" fill="#ff9a6c"/>
                  </g>
                </g>
              </g>
              <g id="Grupo_89636" data-name="Grupo 89636" transform="translate(13.141 3.908)">
                <g id="Grupo_89633" data-name="Grupo 89633" transform="translate(0.218 0.144)">
                  <path id="Trazado_122676" data-name="Trazado 122676" d="M175.46,833.193a5.509,5.509,0,0,0-4.773-1.608,4.933,4.933,0,0,0-3.665,4.026,8.828,8.828,0,0,0,.4,3.554,69.807,69.807,0,0,0,4.392,12.036,6.419,6.419,0,0,0,1.7,2.461,3.494,3.494,0,0,0,4.238-.391c1.276-1.016,2.149-2.484,2.674-5.471" transform="translate(-166.964 -831.496)" fill="#ffbf9d"/>
                </g>
                <g id="Grupo_89635" data-name="Grupo 89635">
                  <g id="Grupo_89634" data-name="Grupo 89634">
                    <path id="Trazado_122677" data-name="Trazado 122677" d="M180.4,847.787a1.394,1.394,0,0,1-.031.422c-.037.273-.107.674-.227,1.186a9.62,9.62,0,0,1-.625,1.818,6.014,6.014,0,0,1-1.535,2.052,4.321,4.321,0,0,1-2.9,1.132,3.028,3.028,0,0,1-1.7-.571,4.668,4.668,0,0,1-1.211-1.433,57.645,57.645,0,0,1-3.2-7.4c-.483-1.345-.908-2.675-1.284-3.969a26.77,26.77,0,0,1-.906-3.8,5.346,5.346,0,0,1,.7-3.5,5.166,5.166,0,0,1,2.349-2.049,4.4,4.4,0,0,1,2.558-.239,5.552,5.552,0,0,1,1.8.712,6.139,6.139,0,0,1,.97.729c.2.189.3.3.286.311-.03.037-.444-.381-1.348-.88a5.606,5.606,0,0,0-1.751-.61,4.168,4.168,0,0,0-2.378.286,4.863,4.863,0,0,0-2.145,1.944,4.959,4.959,0,0,0-.607,3.247,27.45,27.45,0,0,0,.917,3.72c.381,1.284.806,2.6,1.286,3.94a61.607,61.607,0,0,0,3.13,7.343,4.29,4.29,0,0,0,1.081,1.319,2.638,2.638,0,0,0,1.468.512,4,4,0,0,0,2.673-.995,7.256,7.256,0,0,0,2.2-3.661C180.255,848.349,180.362,847.779,180.4,847.787Z" transform="translate(-166.726 -831.339)" fill="#ff9a6c"/>
                  </g>
                </g>
              </g>
              <g id="Grupo_89640" data-name="Grupo 89640" transform="translate(21.198)">
                <g id="Grupo_89637" data-name="Grupo 89637" transform="translate(0.224 0.176)">
                  <path id="Trazado_122678" data-name="Trazado 122678" d="M186.054,834.006a26.75,26.75,0,0,1,1.66,6.611A9.447,9.447,0,0,1,186.32,847a3.773,3.773,0,0,1-5.163,1.166,7.59,7.59,0,0,1-2.243-3.324,55.964,55.964,0,0,1-2.4-7.553,17.909,17.909,0,0,1-.71-3.993,9.346,9.346,0,0,1,.573-3.822c.493-1.217,3.082-3.286,5.465-1.575A13.052,13.052,0,0,1,186.054,834.006Z" transform="translate(-175.792 -827.253)" fill="#ffbf9d"/>
                </g>
                <g id="Grupo_89639" data-name="Grupo 89639">
                  <g id="Grupo_89638" data-name="Grupo 89638">
                    <path id="Trazado_122679" data-name="Trazado 122679" d="M186.033,833.989c-.044.016-.292-.69-.928-1.872a14.866,14.866,0,0,0-1.333-2.038,9.577,9.577,0,0,0-2.292-2.2,3.253,3.253,0,0,0-3.533.156,3.721,3.721,0,0,0-1.4,1.492,7.694,7.694,0,0,0-.509,2.2,13.557,13.557,0,0,0,.511,4.871c.433,1.675.894,3.409,1.459,5.15a24.189,24.189,0,0,0,2.051,4.886,4.154,4.154,0,0,0,1.735,1.637,3.134,3.134,0,0,0,2.233.1,4.762,4.762,0,0,0,2.919-3,10.229,10.229,0,0,0,.628-3.8,21.9,21.9,0,0,0-.959-5.573l-.449-1.484a2.424,2.424,0,0,1-.138-.525,2.278,2.278,0,0,1,.228.493c.133.33.319.82.534,1.461a20.32,20.32,0,0,1,1.119,5.62,10.4,10.4,0,0,1-.6,3.946,6.331,6.331,0,0,1-1.138,1.951,4.593,4.593,0,0,1-2.018,1.327,3.571,3.571,0,0,1-2.548-.105,4.585,4.585,0,0,1-1.943-1.8,24.146,24.146,0,0,1-2.113-4.991c-.57-1.759-1.028-3.5-1.458-5.184a18.889,18.889,0,0,1-.487-2.536,12.4,12.4,0,0,1-.008-2.49,8.081,8.081,0,0,1,.559-2.317,4.07,4.07,0,0,1,1.573-1.665,3.99,3.99,0,0,1,2.027-.638,3.4,3.4,0,0,1,1.89.528,9.581,9.581,0,0,1,2.33,2.33,13.872,13.872,0,0,1,1.285,2.113,11.9,11.9,0,0,1,.61,1.436A2.306,2.306,0,0,1,186.033,833.989Z" transform="translate(-175.547 -827.06)" fill="#ff9a6c"/>
                  </g>
                </g>
              </g>
            </g>
            <g id="Grupo_89643" data-name="Grupo 89643" transform="translate(23.921 16.811)">
              <g id="Grupo_89642" data-name="Grupo 89642">
                <path id="Trazado_122680" data-name="Trazado 122680" d="M188.057,837.1a3.269,3.269,0,0,1,.178.738c.1.555.225,1.252.375,2.1.307,1.893.721,4.444,1.208,7.453l.027.168-.164.062a12.756,12.756,0,0,0-3.541,2.025,16.943,16.943,0,0,0-3.075,3.328c-3.33,4.214-3.954,9.159-4.19,12.571a25.1,25.1,0,0,0,.087,4.088c.105.962.252,1.481.2,1.493a1.253,1.253,0,0,1-.135-.369,8.552,8.552,0,0,1-.251-1.1,21.2,21.2,0,0,1-.24-4.13,29.4,29.4,0,0,1,.842-6.081,16.328,16.328,0,0,1,1.249-3.433,29.7,29.7,0,0,1,2.049-3.321,17.006,17.006,0,0,1,3.172-3.41,12.915,12.915,0,0,1,3.686-2.062l-.137.23c-.419-3.02-.775-5.58-1.039-7.479l-.258-2.115A3.261,3.261,0,0,1,188.057,837.1Z" transform="translate(-178.528 -837.105)" fill="#ff9a6c"/>
              </g>
            </g>
          </g>
          <g id="Grupo_89646" data-name="Grupo 89646" transform="translate(80.589 286.318)">
            <g id="Grupo_89645" data-name="Grupo 89645">
              <path id="Trazado_122681" data-name="Trazado 122681" d="M227.418,978.773a7.386,7.386,0,0,1-.309-1.324l-.679-3.639c-.569-3.16-1.325-7.367-2.162-12.017-.835-4.7-1.552-8.955-2.026-12.046-.237-1.545-.419-2.8-.53-3.665a7.556,7.556,0,0,1-.126-1.354,7.39,7.39,0,0,1,.309,1.324l.679,3.638c.568,3.161,1.325,7.367,2.162,12.019.835,4.695,1.552,8.954,2.026,12.044.237,1.545.418,2.8.53,3.665A7.569,7.569,0,0,1,227.418,978.773Z" transform="translate(-221.577 -944.729)" fill="#263238"/>
            </g>
          </g>
          <g id="Grupo_89650" data-name="Grupo 89650" transform="translate(20.381 229.264)">
            <g id="Grupo_89647" data-name="Grupo 89647" transform="translate(0.202 0.3)">
              <path id="Trazado_122682" data-name="Trazado 122682" d="M159.985,908.656l-4.1-13.965,38.108-12.1,3.481,12.018Z" transform="translate(-155.882 -882.595)" fill="#e0e0e0"/>
            </g>
            <g id="Grupo_89649" data-name="Grupo 89649">
              <g id="Grupo_89648" data-name="Grupo 89648">
                <path id="Trazado_122683" data-name="Trazado 122683" d="M159.966,908.628a1.249,1.249,0,0,1,.193-.087l.55-.221,2.108-.821,7.827-3,26.728-10.129-.141.279-3.488-12.015.3.16-.948.3-37.183,11.723.107-.2c1.229,4.316,2.217,7.79,2.909,10.221l.778,2.791c.081.3.147.544.2.734a1.931,1.931,0,0,1,.061.264,1.192,1.192,0,0,1-.082-.222l-.222-.7c-.2-.654-.484-1.566-.844-2.731l-3.111-10.269-.046-.152.153-.049,37.137-11.867.948-.3.233-.074.068.235c1.2,4.167,2.373,8.212,3.474,12.019l.059.206-.2.074-26.958,9.984-7.82,2.861-2.082.749-.533.185A.788.788,0,0,1,159.966,908.628Z" transform="translate(-155.661 -882.266)" fill="#263238"/>
              </g>
            </g>
          </g>
          <g id="Grupo_89652" data-name="Grupo 89652" transform="translate(80.598 286.318)" opacity="0.3">
            <g id="Grupo_89651" data-name="Grupo 89651">
              <path id="Trazado_122684" data-name="Trazado 122684" d="M221.588,944.729c7.045,12.866,10.23,28.3,10.4,42.971.015,1.28-.417,3-1.7,2.968-1.154-.027-1.61-1.485-1.746-2.631-1.642-13.847-5.312-29.461-6.955-43.307" transform="translate(-221.588 -944.729)"/>
            </g>
          </g>
          <g id="Grupo_89663" data-name="Grupo 89663" transform="translate(186.747)">
            <g id="Grupo_89656" data-name="Grupo 89656">
              <g id="Grupo_89653" data-name="Grupo 89653">
                <path id="Trazado_122685" data-name="Trazado 122685" d="M504.208,708.687c-14.455-14.267-14.118-39.72-25.187-56.75-13.147-20.229-37.715-23.382-61.4-18.873a3.7,3.7,0,0,0-1.735.848l-76.8,66.817a3.7,3.7,0,0,0,3.245,6.389c16.526-3.663,37.355-2.915,48.43,8.757,11.266,11.871,20.036,44.866,29.164,58.593,14.48,21.776,30.948,36.882,60.146,39.138a3.669,3.669,0,0,0,2.886-1.092l3.348-3.391c.07-.071.139-.147.2-.224,22.293-26.542,41.728-51.424,63.681-77.769a3.694,3.694,0,0,0-2.321-6.023C531.826,722.852,515.65,719.978,504.208,708.687Z" transform="translate(-337.801 -631.266)" fill="#ff725e"/>
              </g>
              <g id="Grupo_89655" data-name="Grupo 89655" transform="translate(100.564 50.496)">
                <g id="Grupo_89654" data-name="Grupo 89654">
                  <path id="Trazado_122686" data-name="Trazado 122686" d="M450.2,777.865a.942.942,0,0,1-.067-.241c-.038-.189-.087-.425-.147-.718-.125-.67-.3-1.6-.521-2.772q-.164-.91-.364-2.006c-.115-.736-.2-1.543-.307-2.406-.195-1.729-.5-3.691-.593-5.882q-.1-1.642-.217-3.433c-.069-1.195-.037-2.441-.06-3.729-.082-2.578.095-5.329.227-8.224a113.225,113.225,0,0,1,8.661-36.543c1.182-2.647,2.258-5.184,3.489-7.452.6-1.141,1.13-2.268,1.727-3.3l1.735-2.97c1.064-1.917,2.22-3.532,3.17-4.99.486-.722.921-1.406,1.354-2.012l1.226-1.629,1.709-2.243.454-.575a.946.946,0,0,1,.167-.185,1.036,1.036,0,0,1-.129.216l-.417.6c-.395.554-.941,1.321-1.635,2.294q-.54.748-1.19,1.65c-.421.613-.844,1.3-1.318,2.03-.926,1.469-2.06,3.091-3.1,5.014l-1.7,2.977c-.586,1.038-1.108,2.166-1.7,3.306-1.212,2.268-2.27,4.8-3.436,7.443a115.515,115.515,0,0,0-8.628,36.4c-.142,2.884-.335,5.623-.269,8.193.015,1.283-.026,2.525.032,3.716s.127,2.333.186,3.424c.069,2.186.353,4.144.522,5.872.1.862.166,1.669.268,2.4q.175,1.1.322,2.009c.184,1.181.328,2.112.432,2.784.041.3.075.536.1.727A1.075,1.075,0,0,1,450.2,777.865Z" transform="translate(-447.899 -686.549)" fill="#263238"/>
                </g>
              </g>
            </g>
            <g id="Grupo_89658" data-name="Grupo 89658" transform="translate(128.741 107.701)" opacity="0.3">
              <g id="Grupo_89657" data-name="Grupo 89657">
                <path id="Trazado_122687" data-name="Trazado 122687" d="M536.313,765.893,516.474,755.04c-5.147-2.816-10.547-5.7-16.412-5.857-7.529-.2-14.779,4.488-18.388,11.1s-3.754,14.821-1.133,21.882a37.135,37.135,0,0,0,14.024,17.262,38,38,0,0,1,6.025,4.495c1.748,1.8,3.009,4.293,2.625,6.775l1.847.815,33.872-41.543Z" transform="translate(-478.747 -749.177)"/>
              </g>
            </g>
            <g id="Grupo_89660" data-name="Grupo 89660" transform="translate(26.382 5.484)">
              <g id="Grupo_89659" data-name="Grupo 89659">
                <path id="Trazado_122688" data-name="Trazado 122688" d="M425.087,637.27a4.792,4.792,0,0,1-.543.57l-1.619,1.567c-1.412,1.355-3.475,3.295-6.042,5.671-5.133,4.756-12.305,11.239-20.371,18.235s-15.5,13.179-20.939,17.587c-2.716,2.2-4.928,3.972-6.469,5.178l-1.78,1.381a4.912,4.912,0,0,1-.641.456,4.957,4.957,0,0,1,.581-.531l1.724-1.451,6.372-5.293c5.378-4.474,12.774-10.694,20.841-17.686s15.266-13.433,20.455-18.124l6.144-5.559,1.68-1.5A4.831,4.831,0,0,1,425.087,637.27Z" transform="translate(-366.684 -637.269)" fill="#263238"/>
              </g>
            </g>
            <g id="Grupo_89662" data-name="Grupo 89662" transform="translate(23.445 8.836)" opacity="0.3">
              <g id="Grupo_89661" data-name="Grupo 89661">
                <path id="Trazado_122689" data-name="Trazado 122689" d="M417.815,644.024l-54.346,46.682c18.13-10.377,39.97-24.884,57.736-49.767C420.929,641.24,418.091,643.723,417.815,644.024Z" transform="translate(-363.469 -640.939)"/>
              </g>
            </g>
          </g>
        </g>
        <g id="Grupo_89689" data-name="Grupo 89689" transform="translate(106.795 149.004)">
          <g id="Grupo_89665" data-name="Grupo 89665" transform="translate(25.782)">
            <path id="Trazado_122690" data-name="Trazado 122690" d="M385.717,905.974l-20.735-98.716-8.1-12.862L303.06,811.782s-3.893,7.943-3.883,8.9l-20.682,14.137,8.482,108.83-7.318,33.546,2.839,75.049H398.379Z" transform="translate(-278.495 -794.397)" fill="#e0e0e0"/>
          </g>
          <g id="Grupo_89666" data-name="Grupo 89666" transform="translate(0.729 29.316)">
            <path id="Trazado_122691" data-name="Trazado 122691" d="M291.184,826.492c-1.36.906-40.118,18.587-40.118,18.587l10.021,159.056-7.4,51.123,32.465-.238s4.853-24.136,6.213-64.939S291.184,826.492,291.184,826.492Z" transform="translate(-251.066 -826.492)" fill="#455a64"/>
          </g>
          <g id="Grupo_89667" data-name="Grupo 89667" transform="translate(107.37 9.277)">
            <path id="Trazado_122692" data-name="Trazado 122692" d="M370.668,804.553s-4.726,170.286-2,182.074,15.37,66.493,15.37,66.493h70.283l-29.879-81.062L429.96,890.5l-5.523-78.225-34.456-.906Z" transform="translate(-367.819 -804.553)" fill="#455a64"/>
          </g>
          <g id="Grupo_89669" data-name="Grupo 89669" transform="translate(0 70.718)">
            <g id="Grupo_89668" data-name="Grupo 89668">
              <path id="Trazado_122693" data-name="Trazado 122693" d="M250.274,871.82a1.985,1.985,0,0,1,.053.35c.026.256.062.6.107,1.03.085.934.206,2.265.36,3.968.3,3.446.709,8.435,1.175,14.6s.989,13.515,1.476,21.679c.24,4.082.478,8.369.65,12.817.193,4.452.224,9.056.505,13.761.507,9.42,1.3,18.378,2.054,26.519s1.537,15.464,2.2,21.613c.676,6.127,1.224,11.094,1.606,14.559.187,1.7.333,3.027.437,3.959.044.434.078.775.1,1.03a1.975,1.975,0,0,1,.02.353,1.975,1.975,0,0,1-.068-.347c-.037-.254-.087-.593-.15-1.025-.124-.93-.3-2.254-.525-3.949-.441-3.431-1.05-8.4-1.756-14.543s-1.508-13.467-2.3-21.609-1.586-17.1-2.093-26.535c-.282-4.715-.31-9.329-.5-13.768-.167-4.444-.395-8.728-.623-12.81-.463-8.163-.953-15.51-1.374-21.68-.431-6.149-.78-11.135-1.024-14.612-.116-1.705-.207-3.039-.27-3.974-.026-.436-.046-.778-.06-1.035A1.953,1.953,0,0,1,250.274,871.82Z" transform="translate(-250.268 -871.82)" fill="#263238"/>
            </g>
          </g>
          <g id="Grupo_89671" data-name="Grupo 89671" transform="translate(108.215 12.862)">
            <g id="Grupo_89670" data-name="Grupo 89670">
              <path id="Trazado_122694" data-name="Trazado 122694" d="M380.374,808.478a1.144,1.144,0,0,1,.1.2l.278.612c.245.562.594,1.364,1.046,2.4.9,2.11,2.178,5.216,3.691,9.209a271.094,271.094,0,0,1,10.286,33.718l.045.19-.187.057-6.229,1.916-.015-.419a7.512,7.512,0,0,1,3.81,2.32,10.577,10.577,0,0,1,2.214,4.008c.89,3.018.486,6.266-.185,9.371-1.474,6.2-3.006,12.652-4.578,19.268l-15.4,64.144-4.72,19.425c-.564,2.275-1,4.05-1.306,5.276l-.352,1.369c-.082.308-.135.462-.135.462s.022-.162.088-.473c.073-.33.174-.788.306-1.38.283-1.231.693-3.012,1.219-5.3l4.572-19.461c3.909-16.438,9.3-39.119,15.263-64.176,1.574-6.61,3.109-13.055,4.585-19.255.67-3.077,1.056-6.253.206-9.143a10.157,10.157,0,0,0-2.11-3.84,7.069,7.069,0,0,0-3.579-2.194l-.78-.186.765-.233,6.235-1.9-.142.247a282.041,282.041,0,0,0-10.109-33.727c-1.478-4-2.723-7.12-3.581-9.244l-.987-2.424c-.1-.263-.185-.469-.247-.625A1.256,1.256,0,0,1,380.374,808.478Z" transform="translate(-368.743 -808.478)" fill="#263238"/>
            </g>
          </g>
          <g id="Grupo_89673" data-name="Grupo 89673" transform="translate(26.347 30.133)">
            <g id="Grupo_89672" data-name="Grupo 89672">
              <path id="Trazado_122695" data-name="Trazado 122695" d="M292.119,988.6s-.028-.151-.061-.447c-.032-.316-.076-.754-.132-1.315-.109-1.178-.266-2.88-.467-5.06-.413-4.393-1.018-10.75-1.828-18.6-1.6-15.7-4.087-37.356-6.67-61.3-.68-6.393-1.329-12.626-1.906-18.615-.285-2.973-.649-5.989.068-8.855a9.585,9.585,0,0,1,1.936-3.855,6.694,6.694,0,0,1,3.532-2.272l.079.425-7.24.986-.319.043.093-.308c3.842-12.6,7.047-23.111,9.3-30.5l2.639-8.541q.459-1.452.711-2.246l.19-.575a.1.1,0,1,1,.032.01c-.041.148-.093.339-.16.583q-.229.8-.651,2.264c-.59,2-1.444,4.9-2.529,8.575-2.212,7.4-5.361,17.926-9.134,30.546l-.226-.264,7.236-1.006.08.426a6.258,6.258,0,0,0-3.294,2.136,9.125,9.125,0,0,0-1.837,3.679c-.687,2.756-.335,5.721-.043,8.7.616,5.984,1.258,12.216,1.915,18.61,2.582,23.937,5.014,45.6,6.532,61.313.766,7.854,1.322,14.216,1.678,18.616.163,2.184.29,3.887.377,5.068.037.564.065,1,.085,1.32C292.123,988.451,292.119,988.6,292.119,988.6Z" transform="translate(-279.113 -827.387)" fill="#263238"/>
            </g>
          </g>
          <g id="Grupo_89674" data-name="Grupo 89674" transform="translate(65.161 36.886)">
            <path id="Trazado_122696" data-name="Trazado 122696" d="M321.607,847.32l4.263,10.379h11.144l4.09-12.014-9.165-10.9-2.99.407Z" transform="translate(-321.607 -834.78)" fill="#ff725e"/>
          </g>
          <g id="Grupo_89676" data-name="Grupo 89676" transform="translate(46.462 26.282)">
            <g id="Grupo_89675" data-name="Grupo 89675">
              <path id="Trazado_122697" data-name="Trazado 122697" d="M328.734,831.755a1.606,1.606,0,0,1-.192.375l-.622,1.039-2.342,3.839c-1.986,3.269-4.721,7.867-7.679,13.2l-.176.317-.216-.291c-.983-1.33-2-2.714-3.008-4.151a156.09,156.09,0,0,1-9.92-15.939c-1.144-2.114-2-3.858-2.592-5.065l-.652-1.4a2.35,2.35,0,0,1-.2-.5,2.318,2.318,0,0,1,.284.46c.192.357.434.807.731,1.362.639,1.18,1.543,2.9,2.722,4.986a181.125,181.125,0,0,0,10.015,15.827c1.006,1.434,2.017,2.816,2.994,4.147l-.392.026c2.981-5.329,5.771-9.9,7.83-13.131,1.028-1.615,1.871-2.9,2.462-3.769l.689-.995A1.571,1.571,0,0,1,328.734,831.755Z" transform="translate(-301.136 -823.171)" fill="#263238"/>
            </g>
          </g>
          <g id="Grupo_89678" data-name="Grupo 89678" transform="translate(74.06 12.861)">
            <g id="Grupo_89677" data-name="Grupo 89677">
              <path id="Trazado_122698" data-name="Trazado 122698" d="M365.5,808.478a3.553,3.553,0,0,1-.257.623l-.817,1.746-3.085,6.382L351.01,838.206l-4.681,9.4-.14.281-.222-.223a146.772,146.772,0,0,1-10.919-12.006c-1.244-1.57-2.179-2.858-2.795-3.759-.312-.447-.534-.8-.688-1.041a1.8,1.8,0,0,1-.215-.375,1.856,1.856,0,0,1,.278.332l.747,1c.652.87,1.619,2.129,2.891,3.669,2.528,3.092,6.358,7.232,11.02,11.864l-.362.058,4.659-9.411,10.461-20.914c1.342-2.631,2.436-4.776,3.22-6.314l.9-1.706A3.478,3.478,0,0,1,365.5,808.478Z" transform="translate(-331.35 -808.478)" fill="#263238"/>
            </g>
          </g>
          <g id="Grupo_89679" data-name="Grupo 89679" transform="translate(73.999 62.308)" opacity="0.3">
            <path id="Trazado_122699" data-name="Trazado 122699" d="M331.283,1044.321c.675-1.284,20.789-28.052,20.789-28.052l-14.5-153.657Z" transform="translate(-331.283 -862.612)"/>
          </g>
          <g id="Grupo_89680" data-name="Grupo 89680" transform="translate(58.357 59.805)">
            <path id="Trazado_122700" data-name="Trazado 122700" d="M325.435,859.872s-13.319,154.5-11.007,163.749l15.373,20.463,15.938-30.338c.351-1.451-9.812-153.874-9.812-153.874Z" transform="translate(-314.158 -859.872)" fill="#ff725e"/>
          </g>
          <g id="Grupo_89684" data-name="Grupo 89684" transform="translate(129.823 206.493)">
            <g id="Grupo_89681" data-name="Grupo 89681" transform="translate(0 0.227)">
              <path id="Trazado_122701" data-name="Trazado 122701" d="M392.4,1020.834c0,.481,8.635,15.731,8.635,15.731l46-.245-10.2-15.6Z" transform="translate(-392.4 -1020.717)" fill="#455a64"/>
            </g>
            <g id="Grupo_89683" data-name="Grupo 89683" transform="translate(0.001)">
              <g id="Grupo_89682" data-name="Grupo 89682">
                <path id="Trazado_122702" data-name="Trazado 122702" d="M392.4,1020.812a1.046,1.046,0,0,1,.2-.015l.622-.016,2.439-.035,9.2-.087,31.978-.192h.123l.068.1c3.178,4.854,6.629,10.127,10.209,15.6l.239.366-.438,0-.434,0-45.57.17h-.1l-.047-.085c-2.721-4.858-4.888-8.789-6.352-11.516-.732-1.365-1.291-2.426-1.651-3.157-.185-.362-.308-.648-.395-.837a1.824,1.824,0,0,1-.093-.3l.136.282.436.814,1.725,3.112,6.481,11.441-.144-.084,45.57-.315.434,0-.2.368-10.19-15.608.19.1-31.826-.025-9.251-.038-2.485-.022-.648-.012A1.605,1.605,0,0,1,392.4,1020.812Z" transform="translate(-392.401 -1020.468)" fill="#263238"/>
              </g>
            </g>
          </g>
          <g id="Grupo_89686" data-name="Grupo 89686" transform="translate(69.511 44.061)">
            <g id="Grupo_89685" data-name="Grupo 89685">
              <path id="Trazado_122703" data-name="Trazado 122703" d="M338.328,842.637a19,19,0,0,1-1.735,2.311c-1.107,1.4-2.633,3.325-4.283,5.484s-3.108,4.14-4.164,5.576a19.19,19.19,0,0,1-1.773,2.282,15.844,15.844,0,0,1,1.5-2.474c.987-1.488,2.408-3.507,4.062-5.672s3.227-4.066,4.4-5.41A16.016,16.016,0,0,1,338.328,842.637Z" transform="translate(-326.37 -842.635)" fill="#263238"/>
            </g>
          </g>
          <g id="Grupo_89687" data-name="Grupo 89687" transform="translate(75.225 28.54)" opacity="0.3">
            <path id="Trazado_122704" data-name="Trazado 122704" d="M332.626,833.623s9.648,17.394,13.792,18.747,11.412-26.727,11.412-26.727l-11.582,22.752Z" transform="translate(-332.626 -825.643)"/>
          </g>
          <g id="Grupo_89688" data-name="Grupo 89688" transform="translate(110.22 30.133)" opacity="0.3">
            <path id="Trazado_122705" data-name="Trazado 122705" d="M370.938,976.015s21.708-70.913,26.339-90.884-1.386-25.569-1.386-25.569l4.28-2.592-12.856-29.582,8.451,28.917-6.233,1.908s4.9.364,6.177,7.563S370.938,976.015,370.938,976.015Z" transform="translate(-370.938 -827.387)"/>
          </g>
        </g>
        <g id="Grupo_89720" data-name="Grupo 89720" transform="translate(270.778 107.65)">
          <g id="Grupo_89717" data-name="Grupo 89717">
            <g id="Grupo_89711" data-name="Grupo 89711" transform="translate(51.585)">
              <g id="Grupo_89690" data-name="Grupo 89690">
                <path id="Trazado_122706" data-name="Trazado 122706" d="M498.224,759.317s-2.408-2.317-6.671-.086c0,0-4.452,2.347-5.08,4.307s.359,4.628,1.186,6.609,5.734,9.313,5.734,9.313a25.927,25.927,0,0,0,4.126,12.662c4.132,6.5,11.063,6.688,12.38,11.382s1.792,6.1,1.025,9.329-2.082,8.752-2.082,8.752l27.03,13.809s1.731-19.459,1.217-30.937-.531-23,.193-26.723-.247-9.193-1.408-9.769c0,0,3.159-7.822-.694-10.036s-28.516-9.7-31.184-8.717-3.658,2.338-4.352,5.256A44.569,44.569,0,0,1,498.224,759.317Z" transform="translate(-486.274 -749.122)" fill="#ffbf9d"/>
              </g>
              <g id="Grupo_89692" data-name="Grupo 89692" transform="translate(11.334 10.315)">
                <g id="Grupo_89691" data-name="Grupo 89691">
                  <path id="Trazado_122707" data-name="Trazado 122707" d="M522.348,779.915a3.289,3.289,0,0,1-.648-.943,3.25,3.25,0,0,1,.125-3.175l.058.2-3.534-1.321.221-.214c.315.888.662,1.864,1.028,2.9l-.043-.071a7.459,7.459,0,0,1,1.079,1.375,3.7,3.7,0,0,1,.523,1.812,3.662,3.662,0,0,1-2.119,3.255,3.518,3.518,0,0,1-2.122.289,5.749,5.749,0,0,1-1.036-.322c-.333-.121-.661-.263-.987-.415a17.418,17.418,0,0,1-3.746-2.323,14.392,14.392,0,0,1-2.162-2.127l.158.091a8.117,8.117,0,0,1-4.538-1.957,5.883,5.883,0,0,1-1.851-4.146l.155.209a8.926,8.926,0,0,1-2.868-1.441,4.372,4.372,0,0,1-1.028-1.121,3.448,3.448,0,0,1-.322-1.422,23.614,23.614,0,0,1,.41-4.652c.216-1.275.429-2.271.586-2.948a5.814,5.814,0,0,1,.284-1.029,7.236,7.236,0,0,1-.154,1.056c-.115.684-.29,1.684-.469,2.959a24.9,24.9,0,0,0-.309,4.589,3.187,3.187,0,0,0,.289,1.251,4.018,4.018,0,0,0,.954,1.01,8.627,8.627,0,0,0,2.739,1.339l.15.046.005.164a5.49,5.49,0,0,0,1.741,3.8,7.7,7.7,0,0,0,4.287,1.819l.094.013.064.079a14.119,14.119,0,0,0,2.084,2.043,17.16,17.16,0,0,0,3.642,2.265c.318.148.636.288.96.407a5.477,5.477,0,0,0,.947.3,3.07,3.07,0,0,0,1.851-.243,3.236,3.236,0,0,0,1.888-2.848,4.4,4.4,0,0,0-1.455-2.917l-.031-.032-.013-.038c-.351-1.039-.683-2.02-.985-2.914l-.118-.348.339.134,3.5,1.4.15.059-.093.137a3.019,3.019,0,0,0-.484,1.674,3.349,3.349,0,0,0,.277,1.292C522.114,779.587,522.381,779.892,522.348,779.915Z" transform="translate(-498.683 -760.415)" fill="#ff9a6c"/>
                </g>
              </g>
              <g id="Grupo_89694" data-name="Grupo 89694" transform="translate(21.909 12.674)">
                <g id="Grupo_89693" data-name="Grupo 89693">
                  <path id="Trazado_122708" data-name="Trazado 122708" d="M531.936,766.525a7.115,7.115,0,0,1-1.314-.193l-3.543-.7-5.243-1.1-3.092-.662a9.77,9.77,0,0,0-3.272-.364,3.3,3.3,0,0,0-2.465,1.81,13.1,13.1,0,0,0-1.085,2.9,39.467,39.467,0,0,0-1.022,5.224c-.2,1.507-.325,2.734-.423,3.581a7.207,7.207,0,0,1-.2,1.313,6.867,6.867,0,0,1,.011-1.327c.041-.852.113-2.085.273-3.606a35.763,35.763,0,0,1,.933-5.3,13.228,13.228,0,0,1,1.1-3.017,4.509,4.509,0,0,1,1.119-1.349,3.427,3.427,0,0,1,1.684-.7,9.974,9.974,0,0,1,3.438.38l3.086.69,5.22,1.194,3.511.846A7.052,7.052,0,0,1,531.936,766.525Z" transform="translate(-510.26 -762.998)" fill="#ff9a6c"/>
                </g>
              </g>
              <g id="Grupo_89696" data-name="Grupo 89696" transform="translate(15.713 7.161)">
                <g id="Grupo_89695" data-name="Grupo 89695">
                  <path id="Trazado_122709" data-name="Trazado 122709" d="M527.032,760.375a7.679,7.679,0,0,1-1.346-.269l-3.63-.878c-1.533-.365-3.36-.789-5.4-1.177-1.02-.19-2.1-.383-3.213-.522a7.663,7.663,0,0,0-3.371.2,5.383,5.383,0,0,0-2.588,2.064,12.507,12.507,0,0,0-1.444,2.86,45.856,45.856,0,0,0-1.572,5.282c-.358,1.531-.575,2.786-.721,3.655a8.741,8.741,0,0,1-.252,1.348,6.645,6.645,0,0,1,.068-1.373c.09-.88.258-2.15.575-3.7a41.1,41.1,0,0,1,1.489-5.362,12.722,12.722,0,0,1,1.475-2.978,5.813,5.813,0,0,1,2.814-2.245,8.005,8.005,0,0,1,3.582-.215c1.139.151,2.213.353,3.241.555,2.052.413,3.876.872,5.4,1.281s2.751.769,3.6,1.026A7.529,7.529,0,0,1,527.032,760.375Z" transform="translate(-503.477 -756.963)" fill="#ff9a6c"/>
                </g>
              </g>
              <g id="Grupo_89698" data-name="Grupo 89698" transform="translate(42.741 10.998)">
                <g id="Grupo_89697" data-name="Grupo 89697">
                  <path id="Trazado_122710" data-name="Trazado 122710" d="M539.906,763.711c-.088.114-1.406-.894-3.3-1.558-1.887-.686-3.545-.741-3.54-.885a8.323,8.323,0,0,1,6.839,2.443Z" transform="translate(-533.067 -761.163)" fill="#ff9a6c"/>
                </g>
              </g>
              <g id="Grupo_89700" data-name="Grupo 89700" transform="translate(13.152 3.334)">
                <g id="Grupo_89699" data-name="Grupo 89699">
                  <path id="Trazado_122711" data-name="Trazado 122711" d="M513.229,753.092a4.468,4.468,0,0,1-1.028.008,24.4,24.4,0,0,0-2.773.02,8.34,8.34,0,0,0-3.828,1.169,5.1,5.1,0,0,0-1.64,1.646,8.628,8.628,0,0,0-.943,2.364c-.839,3.478-1.375,6.7-1.73,9.022q-.237,1.629-.4,2.761a4.4,4.4,0,0,1-.192,1.01,4.2,4.2,0,0,1,.008-1.029c.038-.66.117-1.612.251-2.786a77.4,77.4,0,0,1,1.6-9.1,8.856,8.856,0,0,1,1.008-2.491,5.467,5.467,0,0,1,1.8-1.77,8.386,8.386,0,0,1,4.04-1.134,17.776,17.776,0,0,1,2.808.131A4.1,4.1,0,0,1,513.229,753.092Z" transform="translate(-500.673 -752.772)" fill="#ff9a6c"/>
                </g>
              </g>
              <g id="Grupo_89702" data-name="Grupo 89702" transform="translate(32.326 5.307)">
                <g id="Grupo_89701" data-name="Grupo 89701">
                  <path id="Trazado_122712" data-name="Trazado 122712" d="M528.007,756.581a22.614,22.614,0,0,1-6.341-1.616,22.588,22.588,0,0,1,6.341,1.616Z" transform="translate(-521.665 -754.933)" fill="#ff9a6c"/>
                </g>
              </g>
              <g id="Grupo_89704" data-name="Grupo 89704" transform="translate(8.823 24.183)">
                <g id="Grupo_89703" data-name="Grupo 89703">
                  <path id="Trazado_122713" data-name="Trazado 122713" d="M502.867,775.62a15.905,15.905,0,0,0-6.924,5.242,9.262,9.262,0,0,1,6.924-5.242Z" transform="translate(-495.934 -775.599)" fill="#ff9a6c"/>
                </g>
              </g>
              <g id="Grupo_89706" data-name="Grupo 89706" transform="translate(4.168 20.245)">
                <g id="Grupo_89705" data-name="Grupo 89705">
                  <path id="Trazado_122714" data-name="Trazado 122714" d="M498.486,771.3c.032.046-.3.364-.96.722a5.84,5.84,0,0,1-2.831.674,7.7,7.7,0,0,1-2.825-.651c-.676-.3-1.057-.551-1.031-.606.059-.171,1.713.694,3.866.781C496.878,772.271,498.414,771.142,498.486,771.3Z" transform="translate(-490.838 -771.287)" fill="#ff9a6c"/>
                </g>
              </g>
              <g id="Grupo_89708" data-name="Grupo 89708" transform="translate(21.909 31.993)">
                <g id="Grupo_89707" data-name="Grupo 89707">
                  <path id="Trazado_122715" data-name="Trazado 122715" d="M527.7,784.207a34.96,34.96,0,0,0-3.974.634A17.388,17.388,0,0,0,510.89,797.95a34.828,34.828,0,0,0-.549,3.986,4.117,4.117,0,0,1-.08-1.09,15.17,15.17,0,0,1,.3-2.968,16.981,16.981,0,0,1,13.082-13.365,15.137,15.137,0,0,1,2.96-.364A4.121,4.121,0,0,1,527.7,784.207Z" transform="translate(-510.26 -784.148)" fill="#ff9a6c"/>
                </g>
              </g>
              <g id="Grupo_89710" data-name="Grupo 89710" transform="translate(27.524 55.933)">
                <g id="Grupo_89709" data-name="Grupo 89709">
                  <path id="Trazado_122716" data-name="Trazado 122716" d="M532.571,813.287a8.549,8.549,0,0,1-2.424.473,21.727,21.727,0,0,1-11.634-2.1,8.58,8.58,0,0,1-2.105-1.292,24.282,24.282,0,0,1,2.246.986,25.673,25.673,0,0,0,11.469,2.073A24.508,24.508,0,0,1,532.571,813.287Z" transform="translate(-516.407 -810.359)" fill="#ff9a6c"/>
                </g>
              </g>
            </g>
            <g id="Grupo_89712" data-name="Grupo 89712" transform="translate(0.006 58.299)">
              <path id="Trazado_122717" data-name="Trazado 122717" d="M491.837,866.88l-44.371-34.195S439.083,812.849,429.8,813V893.7l40.765,24.36c3.453,2.417,19.393,12.123,34.334,14.891,8.123,1.5,19.805-1.734,24.085-8.8,1.232-2.033,4.783-10.871,5.107-13.456,1.292-10.337,3.824-89.212,3.824-89.212l-44.391-8.538Z" transform="translate(-429.805 -812.949)" fill="#455a64"/>
            </g>
            <g id="Grupo_89714" data-name="Grupo 89714" transform="translate(57.516 110.554)">
              <g id="Grupo_89713" data-name="Grupo 89713">
                <path id="Trazado_122718" data-name="Trazado 122718" d="M502.576,921.6a2.471,2.471,0,0,1-.346-.427l-.921-1.283-.657-.935c-.228-.349-.451-.744-.7-1.162-.489-.843-1.1-1.776-1.617-2.89l-.861-1.725c-.294-.6-.535-1.259-.82-1.923-.595-1.32-1.056-2.794-1.577-4.333a51.793,51.793,0,0,1-2.028-20.912c.216-1.61.385-3.147.715-4.556.153-.706.263-1.4.437-2.044s.349-1.265.513-1.859c.294-1.194.714-2.226,1.031-3.148.168-.458.31-.889.467-1.275s.323-.724.465-1.043l.657-1.436a2.382,2.382,0,0,1,.258-.487,2.466,2.466,0,0,1-.171.526l-.574,1.467q-.195.484-.424,1.054c-.144.39-.273.823-.427,1.282-.292.925-.688,1.958-.959,3.149q-.23.888-.48,1.853c-.163.646-.264,1.333-.406,2.034-.311,1.4-.464,2.928-.667,4.527a53.171,53.171,0,0,0,2.011,20.739c.506,1.529.949,3,1.524,4.313.275.661.506,1.316.789,1.918s.563,1.176.828,1.726c.5,1.117,1.081,2.055,1.545,2.906.24.421.45.822.666,1.176l.619.954c.344.542.624.982.844,1.33A2.368,2.368,0,0,1,502.576,921.6Z" transform="translate(-492.768 -870.158)" fill="#263238"/>
              </g>
            </g>
            <g id="Grupo_89716" data-name="Grupo 89716" transform="translate(0 81.773)">
              <g id="Grupo_89715" data-name="Grupo 89715">
                <path id="Trazado_122719" data-name="Trazado 122719" d="M438.891,838.648a1.973,1.973,0,0,1,0,.354c-.012.257-.026.6-.046,1.035-.052.936-.126,2.271-.22,3.976-.214,3.479-.521,8.466-.9,14.618-.807,12.361-1.916,29.4-3.143,48.211-1.281,18.818-2.441,35.851-3.282,48.21-.441,6.147-.8,11.131-1.049,14.606-.132,1.7-.236,3.035-.309,3.97-.039.434-.069.775-.092,1.031a.177.177,0,1,1-.048,0l.045-1.035c.052-.936.126-2.27.22-3.975.214-3.478.521-8.465.9-14.616.807-12.363,1.916-29.4,3.144-48.221,1.281-18.812,2.44-35.844,3.281-48.2.442-6.147.8-11.131,1.049-14.606.132-1.7.237-3.035.309-3.97.039-.435.069-.775.092-1.031A1.942,1.942,0,0,1,438.891,838.648Z" transform="translate(-429.798 -838.648)" fill="#263238"/>
              </g>
            </g>
          </g>
          <g id="Grupo_89719" data-name="Grupo 89719" transform="translate(52.595 114.586)" opacity="0.3">
            <g id="Grupo_89718" data-name="Grupo 89718">
              <path id="Trazado_122720" data-name="Trazado 122720" d="M496.947,911.845A49.652,49.652,0,0,1,492.7,896.26a49.108,49.108,0,0,1,2.763-21.688c-8.094,11.583-10.642,28.076-5.193,41.114.694,1.661,1.814,3.507,3.612,3.624a3.54,3.54,0,0,0,3.327-2.8A7.391,7.391,0,0,0,496.947,911.845Z" transform="translate(-487.38 -874.572)"/>
            </g>
          </g>
        </g>
        <g id="Grupo_89881" data-name="Grupo 89881" transform="translate(132.577 30.264)">
          <g id="Grupo_89728" data-name="Grupo 89728" transform="translate(74.577 18.118)">
            <g id="Grupo_89727" data-name="Grupo 89727">
              <g id="Grupo_89726" data-name="Grupo 89726">
                <g id="Grupo_89725" data-name="Grupo 89725">
                  <g id="Grupo_89724" data-name="Grupo 89724">
                    <g id="Grupo_89723" data-name="Grupo 89723">
                      <g id="Grupo_89722" data-name="Grupo 89722">
                        <g id="Grupo_89721" data-name="Grupo 89721">
                          <path id="Trazado_122721" data-name="Trazado 122721" d="M365.775,751.663c3.116-9.2,6.2-18.474,7.683-28.075s1.317-19.63-1.956-28.778c-.5-1.387-4.756-10.7-6.224-10.574-1.049.09,1.54,8.763,1,9.666-5.162,8.619-6.663,19.042-5.979,29.064a131.53,131.53,0,0,0,5.477,28.7" transform="translate(-360.143 -684.235)" fill="#263238"/>
                        </g>
                      </g>
                    </g>
                  </g>
                </g>
              </g>
            </g>
          </g>
          <g id="Grupo_89729" data-name="Grupo 89729" transform="translate(0 2.814)">
            <path id="Trazado_122722" data-name="Trazado 122722" d="M323.586,667.48l-2.253.093A43.558,43.558,0,0,0,279.6,709.38c-.828,21.1-1.471,44.43-.865,55.708C279.987,788.436,303.5,791.1,303.5,791.1c.052,0,.1,9.843.1,9.843l23.262,15.482,30.558-32.866,2.695-70.4C361.206,688.819,347.949,667.9,323.586,667.48Z" transform="translate(-278.495 -667.48)" fill="#ffbf9d"/>
          </g>
          <g id="Grupo_89739" data-name="Grupo 89739" transform="translate(25.006 116.19)">
            <g id="Grupo_89738" data-name="Grupo 89738">
              <g id="Grupo_89737" data-name="Grupo 89737">
                <g id="Grupo_89736" data-name="Grupo 89736">
                  <g id="Grupo_89735" data-name="Grupo 89735">
                    <g id="Grupo_89734" data-name="Grupo 89734">
                      <g id="Grupo_89733" data-name="Grupo 89733">
                        <g id="Grupo_89732" data-name="Grupo 89732">
                          <g id="Grupo_89731" data-name="Grupo 89731">
                            <g id="Grupo_89730" data-name="Grupo 89730">
                              <path id="Trazado_122723" data-name="Trazado 122723" d="M305.872,801.853s14.76.256,30.044-10.248c0,0-6.592,17.864-29.988,16.723Z" transform="translate(-305.872 -791.605)" fill="#ff9a6c"/>
                            </g>
                          </g>
                        </g>
                      </g>
                    </g>
                  </g>
                </g>
              </g>
            </g>
          </g>
          <g id="Grupo_89755" data-name="Grupo 89755" transform="translate(11.878 61.069)">
            <g id="Grupo_89754" data-name="Grupo 89754">
              <g id="Grupo_89753" data-name="Grupo 89753">
                <g id="Grupo_89752" data-name="Grupo 89752">
                  <g id="Grupo_89751" data-name="Grupo 89751">
                    <g id="Grupo_89750" data-name="Grupo 89750">
                      <g id="Grupo_89749" data-name="Grupo 89749">
                        <g id="Grupo_89748" data-name="Grupo 89748">
                          <g id="Grupo_89747" data-name="Grupo 89747">
                            <g id="Grupo_89746" data-name="Grupo 89746">
                              <g id="Grupo_89745" data-name="Grupo 89745">
                                <g id="Grupo_89744" data-name="Grupo 89744">
                                  <g id="Grupo_89743" data-name="Grupo 89743">
                                    <g id="Grupo_89742" data-name="Grupo 89742">
                                      <g id="Grupo_89741" data-name="Grupo 89741">
                                        <g id="Grupo_89740" data-name="Grupo 89740">
                                          <path id="Trazado_122724" data-name="Trazado 122724" d="M291.5,734.41a3.339,3.339,0,0,0,3.356,3.234,3.193,3.193,0,0,0,3.314-3.15,3.339,3.339,0,0,0-3.352-3.235A3.2,3.2,0,0,0,291.5,734.41Z" transform="translate(-291.499 -731.258)" fill="#263238"/>
                                        </g>
                                      </g>
                                    </g>
                                  </g>
                                </g>
                              </g>
                            </g>
                          </g>
                        </g>
                      </g>
                    </g>
                  </g>
                </g>
              </g>
            </g>
          </g>
          <g id="Grupo_89772" data-name="Grupo 89772" transform="translate(6.437 51.041)">
            <g id="Grupo_89771" data-name="Grupo 89771">
              <g id="Grupo_89770" data-name="Grupo 89770">
                <g id="Grupo_89769" data-name="Grupo 89769">
                  <g id="Grupo_89768" data-name="Grupo 89768">
                    <g id="Grupo_89767" data-name="Grupo 89767">
                      <g id="Grupo_89766" data-name="Grupo 89766">
                        <g id="Grupo_89765" data-name="Grupo 89765">
                          <g id="Grupo_89764" data-name="Grupo 89764">
                            <g id="Grupo_89763" data-name="Grupo 89763">
                              <g id="Grupo_89762" data-name="Grupo 89762">
                                <g id="Grupo_89761" data-name="Grupo 89761">
                                  <g id="Grupo_89760" data-name="Grupo 89760">
                                    <g id="Grupo_89759" data-name="Grupo 89759">
                                      <g id="Grupo_89758" data-name="Grupo 89758">
                                        <g id="Grupo_89757" data-name="Grupo 89757">
                                          <g id="Grupo_89756" data-name="Grupo 89756">
                                            <path id="Trazado_122725" data-name="Trazado 122725" d="M285.6,724.063c.431.418,2.881-1.556,6.471-1.7,3.584-.19,6.3,1.547,6.666,1.092.183-.2-.27-.97-1.452-1.758a9.159,9.159,0,0,0-5.359-1.412,8.8,8.8,0,0,0-5.129,1.893C285.731,723.075,285.39,723.877,285.6,724.063Z" transform="translate(-285.543 -720.279)" fill="#263238"/>
                                          </g>
                                        </g>
                                      </g>
                                    </g>
                                  </g>
                                </g>
                              </g>
                            </g>
                          </g>
                        </g>
                      </g>
                    </g>
                  </g>
                </g>
              </g>
            </g>
          </g>
          <g id="Grupo_89788" data-name="Grupo 89788" transform="translate(44.101 61.069)">
            <g id="Grupo_89787" data-name="Grupo 89787">
              <g id="Grupo_89786" data-name="Grupo 89786">
                <g id="Grupo_89785" data-name="Grupo 89785">
                  <g id="Grupo_89784" data-name="Grupo 89784">
                    <g id="Grupo_89783" data-name="Grupo 89783">
                      <g id="Grupo_89782" data-name="Grupo 89782">
                        <g id="Grupo_89781" data-name="Grupo 89781">
                          <g id="Grupo_89780" data-name="Grupo 89780">
                            <g id="Grupo_89779" data-name="Grupo 89779">
                              <g id="Grupo_89778" data-name="Grupo 89778">
                                <g id="Grupo_89777" data-name="Grupo 89777">
                                  <g id="Grupo_89776" data-name="Grupo 89776">
                                    <g id="Grupo_89775" data-name="Grupo 89775">
                                      <g id="Grupo_89774" data-name="Grupo 89774">
                                        <g id="Grupo_89773" data-name="Grupo 89773">
                                          <path id="Trazado_122726" data-name="Trazado 122726" d="M326.777,734.41a3.339,3.339,0,0,0,3.356,3.233,3.193,3.193,0,0,0,3.315-3.149,3.341,3.341,0,0,0-3.353-3.235A3.2,3.2,0,0,0,326.777,734.41Z" transform="translate(-326.777 -731.258)" fill="#263238"/>
                                        </g>
                                      </g>
                                    </g>
                                  </g>
                                </g>
                              </g>
                            </g>
                          </g>
                        </g>
                      </g>
                    </g>
                  </g>
                </g>
              </g>
            </g>
          </g>
          <g id="Grupo_89805" data-name="Grupo 89805" transform="translate(41.66 50.42)">
            <g id="Grupo_89804" data-name="Grupo 89804">
              <g id="Grupo_89803" data-name="Grupo 89803">
                <g id="Grupo_89802" data-name="Grupo 89802">
                  <g id="Grupo_89801" data-name="Grupo 89801">
                    <g id="Grupo_89800" data-name="Grupo 89800">
                      <g id="Grupo_89799" data-name="Grupo 89799">
                        <g id="Grupo_89798" data-name="Grupo 89798">
                          <g id="Grupo_89797" data-name="Grupo 89797">
                            <g id="Grupo_89796" data-name="Grupo 89796">
                              <g id="Grupo_89795" data-name="Grupo 89795">
                                <g id="Grupo_89794" data-name="Grupo 89794">
                                  <g id="Grupo_89793" data-name="Grupo 89793">
                                    <g id="Grupo_89792" data-name="Grupo 89792">
                                      <g id="Grupo_89791" data-name="Grupo 89791">
                                        <g id="Grupo_89790" data-name="Grupo 89790">
                                          <g id="Grupo_89789" data-name="Grupo 89789">
                                            <path id="Trazado_122727" data-name="Trazado 122727" d="M324.163,723.383c.433.417,2.886-1.556,6.474-1.7,3.582-.19,6.294,1.547,6.666,1.092.182-.2-.267-.969-1.453-1.757a9.158,9.158,0,0,0-5.358-1.413,8.811,8.811,0,0,0-5.13,1.893C324.3,722.395,323.953,723.2,324.163,723.383Z" transform="translate(-324.105 -719.6)" fill="#263238"/>
                                          </g>
                                        </g>
                                      </g>
                                    </g>
                                  </g>
                                </g>
                              </g>
                            </g>
                          </g>
                        </g>
                      </g>
                    </g>
                  </g>
                </g>
              </g>
            </g>
          </g>
          <g id="Grupo_89821" data-name="Grupo 89821" transform="translate(20.726 52.341)">
            <g id="Grupo_89820" data-name="Grupo 89820">
              <g id="Grupo_89819" data-name="Grupo 89819">
                <g id="Grupo_89818" data-name="Grupo 89818">
                  <g id="Grupo_89817" data-name="Grupo 89817">
                    <g id="Grupo_89816" data-name="Grupo 89816">
                      <g id="Grupo_89815" data-name="Grupo 89815">
                        <g id="Grupo_89814" data-name="Grupo 89814">
                          <g id="Grupo_89813" data-name="Grupo 89813">
                            <g id="Grupo_89812" data-name="Grupo 89812">
                              <g id="Grupo_89811" data-name="Grupo 89811">
                                <g id="Grupo_89810" data-name="Grupo 89810">
                                  <g id="Grupo_89809" data-name="Grupo 89809">
                                    <g id="Grupo_89808" data-name="Grupo 89808">
                                      <g id="Grupo_89807" data-name="Grupo 89807">
                                        <g id="Grupo_89806" data-name="Grupo 89806">
                                          <path id="Trazado_122728" data-name="Trazado 122728" d="M310.441,751.681c.008-.2-2.239-.5-5.873-.811-.922-.057-1.8-.2-1.977-.822a4.678,4.678,0,0,1,.5-2.743l2.422-7.092c3.354-10.094,5.742-18.377,5.334-18.509s-3.457,7.943-6.811,18.036c-.8,2.489-1.575,4.86-2.306,7.13-.3,1.056-.851,2.263-.327,3.617a2.3,2.3,0,0,0,1.562,1.278,6.256,6.256,0,0,0,1.566.153C308.178,751.962,310.436,751.885,310.441,751.681Z" transform="translate(-301.185 -721.702)" fill="#263238"/>
                                        </g>
                                      </g>
                                    </g>
                                  </g>
                                </g>
                              </g>
                            </g>
                          </g>
                        </g>
                      </g>
                    </g>
                  </g>
                </g>
              </g>
            </g>
          </g>
          <g id="Grupo_89833" data-name="Grupo 89833" transform="translate(40.046 38.869)">
            <g id="Grupo_89832" data-name="Grupo 89832">
              <g id="Grupo_89831" data-name="Grupo 89831">
                <g id="Grupo_89830" data-name="Grupo 89830">
                  <g id="Grupo_89829" data-name="Grupo 89829">
                    <g id="Grupo_89828" data-name="Grupo 89828">
                      <g id="Grupo_89827" data-name="Grupo 89827">
                        <g id="Grupo_89826" data-name="Grupo 89826">
                          <g id="Grupo_89825" data-name="Grupo 89825">
                            <g id="Grupo_89824" data-name="Grupo 89824">
                              <g id="Grupo_89823" data-name="Grupo 89823">
                                <g id="Grupo_89822" data-name="Grupo 89822">
                                  <path id="Trazado_122729" data-name="Trazado 122729" d="M322.385,711.107c.525.9,3.969-.211,8.206-.477,4.232-.353,7.8.243,8.19-.719.169-.459-.581-1.254-2.1-1.934a14.285,14.285,0,0,0-12.491.911C322.777,709.783,322.151,710.679,322.385,711.107Z" transform="translate(-322.337 -706.953)" fill="#263238"/>
                                </g>
                              </g>
                            </g>
                          </g>
                        </g>
                      </g>
                    </g>
                  </g>
                </g>
              </g>
            </g>
          </g>
          <g id="Grupo_89845" data-name="Grupo 89845" transform="translate(5.778 40.359)">
            <g id="Grupo_89844" data-name="Grupo 89844">
              <g id="Grupo_89843" data-name="Grupo 89843">
                <g id="Grupo_89842" data-name="Grupo 89842">
                  <g id="Grupo_89841" data-name="Grupo 89841">
                    <g id="Grupo_89840" data-name="Grupo 89840">
                      <g id="Grupo_89839" data-name="Grupo 89839">
                        <g id="Grupo_89838" data-name="Grupo 89838">
                          <g id="Grupo_89837" data-name="Grupo 89837">
                            <g id="Grupo_89836" data-name="Grupo 89836">
                              <g id="Grupo_89835" data-name="Grupo 89835">
                                <g id="Grupo_89834" data-name="Grupo 89834">
                                  <path id="Trazado_122730" data-name="Trazado 122730" d="M284.939,712.5c.768.8,3.67-.129,7.186-.261,3.51-.237,6.508.377,7.171-.494.289-.422-.2-1.227-1.522-1.965A11.315,11.315,0,0,0,291.9,708.6a11.141,11.141,0,0,0-5.69,1.79C284.985,711.263,284.6,712.113,284.939,712.5Z" transform="translate(-284.821 -708.584)" fill="#263238"/>
                                </g>
                              </g>
                            </g>
                          </g>
                        </g>
                      </g>
                    </g>
                  </g>
                </g>
              </g>
            </g>
          </g>
          <g id="Grupo_89853" data-name="Grupo 89853" transform="translate(80.428 64.907)">
            <g id="Grupo_89852" data-name="Grupo 89852">
              <g id="Grupo_89851" data-name="Grupo 89851">
                <g id="Grupo_89850" data-name="Grupo 89850">
                  <g id="Grupo_89849" data-name="Grupo 89849">
                    <g id="Grupo_89848" data-name="Grupo 89848">
                      <g id="Grupo_89847" data-name="Grupo 89847">
                        <g id="Grupo_89846" data-name="Grupo 89846">
                          <path id="Trazado_122731" data-name="Trazado 122731" d="M366.548,736.423c.392-.189,15.855-5.41,16,10.581s-15.936,12.842-15.968,12.385S366.548,736.423,366.548,736.423Z" transform="translate(-366.548 -735.46)" fill="#ffbf9d"/>
                        </g>
                      </g>
                    </g>
                  </g>
                </g>
              </g>
            </g>
          </g>
          <g id="Grupo_89862" data-name="Grupo 89862" transform="translate(85.278 70.052)">
            <g id="Grupo_89861" data-name="Grupo 89861">
              <g id="Grupo_89860" data-name="Grupo 89860">
                <g id="Grupo_89859" data-name="Grupo 89859">
                  <g id="Grupo_89858" data-name="Grupo 89858">
                    <g id="Grupo_89857" data-name="Grupo 89857">
                      <g id="Grupo_89856" data-name="Grupo 89856">
                        <g id="Grupo_89855" data-name="Grupo 89855">
                          <g id="Grupo_89854" data-name="Grupo 89854">
                            <path id="Trazado_122732" data-name="Trazado 122732" d="M371.873,753.772c.069-.052.28.192.754.4a2.783,2.783,0,0,0,2.083.023c1.683-.636,3.081-3.331,3.131-6.214a9.2,9.2,0,0,0-.817-3.982,3.222,3.222,0,0,0-2.115-2.118,1.417,1.417,0,0,0-1.637.779c-.21.448-.106.767-.191.8-.044.04-.345-.265-.223-.926a1.777,1.777,0,0,1,.62-1.008,2.1,2.1,0,0,1,1.536-.421,3.915,3.915,0,0,1,2.934,2.452A9.471,9.471,0,0,1,378.955,748c-.073,3.223-1.694,6.254-4,6.944a2.982,2.982,0,0,1-2.551-.4C371.9,754.157,371.817,753.8,371.873,753.772Z" transform="translate(-371.858 -741.092)" fill="#ff9a6c"/>
                          </g>
                        </g>
                      </g>
                    </g>
                  </g>
                </g>
              </g>
            </g>
          </g>
          <g id="Grupo_89870" data-name="Grupo 89870" transform="translate(10.924)">
            <g id="Grupo_89869" data-name="Grupo 89869">
              <g id="Grupo_89868" data-name="Grupo 89868">
                <g id="Grupo_89867" data-name="Grupo 89867">
                  <g id="Grupo_89866" data-name="Grupo 89866">
                    <g id="Grupo_89865" data-name="Grupo 89865">
                      <g id="Grupo_89864" data-name="Grupo 89864">
                        <g id="Grupo_89863" data-name="Grupo 89863">
                          <path id="Trazado_122733" data-name="Trazado 122733" d="M290.966,682.616c-2.59-1.427,5.173-9.812,11.532-12.7,9.611-4.366,24.288-7.06,33.152-4.552,10.673,3.021,19.541,8.325,24.9,18.035s7.383,21.024,7.078,32.112c-.093,3.383-.442,6.91-2.248,9.771-2.231,3.538-6.516,5.766-6.326,10.644a6.692,6.692,0,0,1-1.658,4.882c-2.925,3.115-6.505.193-8.153-2.739-3.518-6.261-3.914-13.739-4.227-20.915-.222-5.1-.432-10.31,1-15.21.78-2.665,2.036-5.185,2.668-7.89s.548-5.774-1.138-7.983a10,10,0,0,0-1.3-1.313,16.678,16.678,0,0,0-16.547-3.141c-9,3.191-24.38,7.958-28.4,4.9-5.781-4.393-7.165-7.261-7.165-7.261Z" transform="translate(-290.455 -664.399)" fill="#263238"/>
                        </g>
                      </g>
                    </g>
                  </g>
                </g>
              </g>
            </g>
          </g>
          <g id="Grupo_89880" data-name="Grupo 89880" transform="translate(30.433 84.542)">
            <g id="Grupo_89879" data-name="Grupo 89879">
              <g id="Grupo_89878" data-name="Grupo 89878">
                <g id="Grupo_89877" data-name="Grupo 89877">
                  <g id="Grupo_89876" data-name="Grupo 89876">
                    <g id="Grupo_89875" data-name="Grupo 89875">
                      <g id="Grupo_89874" data-name="Grupo 89874">
                        <g id="Grupo_89873" data-name="Grupo 89873">
                          <g id="Grupo_89872" data-name="Grupo 89872">
                            <g id="Grupo_89871" data-name="Grupo 89871">
                              <path id="Trazado_122734" data-name="Trazado 122734" d="M322.638,756.957c-.551-.035-.574,3.637-3.728,6.229s-7.062,2.171-7.093,2.685c-.052.23.869.717,2.521.77a9.147,9.147,0,0,0,5.92-2.032,7.97,7.97,0,0,0,2.891-5.226C323.294,757.848,322.889,756.937,322.638,756.957Z" transform="translate(-311.814 -756.957)" fill="#263238"/>
                            </g>
                          </g>
                        </g>
                      </g>
                    </g>
                  </g>
                </g>
              </g>
            </g>
          </g>
        </g>
      </g>
    </g>
  </g>
</svg>
