<svg xmlns="http://www.w3.org/2000/svg" xmlns:xlink="http://www.w3.org/1999/xlink" width="86" height="85" viewBox="0 0 86 85">
  <defs>
    <clipPath id="clip-path">
      <rect id="Rectángulo_35378" data-name="Rectángulo 35378" width="85" height="85" transform="translate(180 769)" fill="#fff" stroke="#707070" stroke-width="1"/>
    </clipPath>
  </defs>
  <g id="_33" data-name="33" transform="translate(-390 -769)">
    <circle id="Elipse_4830" data-name="Elipse 4830" cx="42.5" cy="42.5" r="42.5" transform="translate(391 769)" fill="#ffd947"/>
    <g id="Enmascarar_grupo_108" data-name="Enmascarar grupo 108" transform="translate(210)" clip-path="url(#clip-path)">
      <g id="coche-deportivo" transform="translate(180 769)">
        <g id="Grupo_90701" data-name="Grupo 90701">
          <path id="Trazado_125401" data-name="Trazado 125401" d="M12.27,28.056,9.353,25.812,6.441,28.056v5.086L9.5,35.033l2.766-1.891Z" fill="#ececec" fill-rule="evenodd"/>
          <path id="Trazado_125402" data-name="Trazado 125402" d="M14.025,22.712,3.218,21.517a.82.82,0,0,0-.847.847V27.21a.849.849,0,0,0,.847.847H14.025a.849.849,0,0,0,.847-.847V23.559A.889.889,0,0,0,14.025,22.712Z" fill="#24a7ff" fill-rule="evenodd"/>
          <path id="Trazado_125403" data-name="Trazado 125403" d="M10.228,22.369a.92.92,0,0,1,.847.9v3.886a.879.879,0,0,1-.842.9h3.792a.849.849,0,0,0,.847-.847V23.559a.889.889,0,0,0-.847-.847L3.218,21.517a.63.63,0,0,0-.188,0Z" fill="#24a7ff" fill-rule="evenodd" style="mix-blend-mode: multiply;isolation: isolate"/>
          <path id="Trazado_125404" data-name="Trazado 125404" d="M12.27,33.142h-7.4c-1.849,0-3.665,1.3-3.609,4.436V53.706a2.117,2.117,0,0,0,1.4,2.385l5.989,1.651,65.43,1.073h6.474c2.254.066,3.119-.809,3.115-2.277V42.9c0-3.237-1.99-3.674-9.367-5.1L66.8,36.35c-2.442-.475-1.915-.259-5.185-3.091L53.667,26.4c-2.287-1.976-2.545-1.656-7.006-1.651H28.9a6.934,6.934,0,0,0-4.168,1.515L16.608,32.4c-1.167.885-1.675.739-2.945.739H12.27Z" fill="#24a7ff" fill-rule="evenodd"/>
          <path id="Trazado_125405" data-name="Trazado 125405" d="M60.762,53.626H22.437a6.259,6.259,0,0,1,.174,1.689,9.3,9.3,0,0,1-.79,3.5H61.473a9.483,9.483,0,0,1-.856-3.641A5.651,5.651,0,0,1,60.762,53.626Z" fill="#ffdfe0" fill-rule="evenodd"/>
          <path id="Trazado_125406" data-name="Trazado 125406" d="M1.261,38.684v6.789l3.6-.8c1.811-.4,2.625-.287,3.919-2.141l1.4-2a1.147,1.147,0,0,0-.828-1.849H1.261Z" fill="#a6e7f0" fill-rule="evenodd"/>
          <path id="Trazado_125407" data-name="Trazado 125407" d="M7.245,40.956c-1.294,1.854-2.026,1.475-3.833,1.875l-2.152.477v2.164l3.6-.8c1.811-.4,2.625-.287,3.919-2.141l1.4-2a1.147,1.147,0,0,0-.828-1.849h-.56a1.485,1.485,0,0,1-.155.273Z" fill="#6bd9e7" fill-rule="evenodd"/>
          <path id="Trazado_125408" data-name="Trazado 125408" d="M30.28,29.731a2.973,2.973,0,0,0-2.131.885l-3.933,2.832a1.828,1.828,0,0,0-.781,1.7v1.233c0,.16.212.3.475.3l7.838.014c1.745.028,1.745-1.219,1.745-1.966V30.56c-.014-.179.019-.833-1.026-.833Z" fill="#a6e7f0" fill-rule="evenodd"/>
          <path id="Trazado_125409" data-name="Trazado 125409" d="M30.28,36.694l1.468,0c1.745.028,1.745-1.219,1.745-1.966V30.559c-.014-.179.019-.833-1.026-.833-.729,0-1.458,0-2.188,0Z" fill="#6bd9e7" fill-rule="evenodd"/>
          <path id="Trazado_125410" data-name="Trazado 125410" d="M66.794,47.03a8.141,8.141,0,0,0-7.993,6.6,8,8,0,0,0-.151,1.548,8.144,8.144,0,1,0,8.144-8.144Z" fill="#838383" fill-rule="evenodd"/>
          <path id="Trazado_125411" data-name="Trazado 125411" d="M16.429,47.171a8.144,8.144,0,0,0-8.144,8.144,8.267,8.267,0,0,0,.367,2.428,8.147,8.147,0,0,0,15.131,1.073,8.059,8.059,0,0,0,.79-3.5,8.318,8.318,0,0,0-.174-1.689,8.145,8.145,0,0,0-7.97-6.455Z" fill="#838383" fill-rule="evenodd"/>
          <path id="Trazado_125412" data-name="Trazado 125412" d="M16.429,52.581a2.733,2.733,0,1,0,2.733,2.733A2.733,2.733,0,0,0,16.429,52.581Z" fill="#ececec" fill-rule="evenodd"/>
          <path id="Trazado_125413" data-name="Trazado 125413" d="M66.794,52.44a2.733,2.733,0,1,0,2.733,2.733A2.736,2.736,0,0,0,66.794,52.44Z" fill="#ececec" fill-rule="evenodd"/>
          <path id="Trazado_125414" data-name="Trazado 125414" d="M78.711,44.861A1.746,1.746,0,0,0,76.97,46.6V47.91a1.749,1.749,0,0,0,1.741,1.741H83.67V44.861H78.711Z" fill="#a6e7f0" fill-rule="evenodd"/>
          <path id="Trazado_125415" data-name="Trazado 125415" d="M80.183,44.861H83.67v4.789H80.183Z" fill="#6bd9e7" fill-rule="evenodd"/>
          <path id="Trazado_125416" data-name="Trazado 125416" d="M24.4,53.626a8.145,8.145,0,0,0-7.97-6.455,8.239,8.239,0,0,0-1.571.151,8.153,8.153,0,0,1,6.4,6.3,8.01,8.01,0,0,1,.174,1.689A8.093,8.093,0,0,1,21,57.945a8.862,8.862,0,0,1-.353.87,8.15,8.15,0,0,1-5.787,4.493,8.241,8.241,0,0,0,1.571.151,8.136,8.136,0,0,0,7.354-4.643A7.873,7.873,0,0,0,24.121,58a8.142,8.142,0,0,0,.452-2.682,8.342,8.342,0,0,0-.174-1.689Z" fill="#595959" fill-rule="evenodd"/>
          <path id="Trazado_125417" data-name="Trazado 125417" d="M74.764,53.485a8.156,8.156,0,0,0-9.537-6.3,8.147,8.147,0,0,1,6.394,6.3,8.011,8.011,0,0,1,.179,1.689,8.133,8.133,0,0,1-.438,2.63,8.243,8.243,0,0,1-.353.87,8.145,8.145,0,0,1-5.782,4.488,7.835,7.835,0,0,0,1.567.155,8.157,8.157,0,0,0,7.358-4.643,7.667,7.667,0,0,0,.334-.819,8.221,8.221,0,0,0,.278-4.371Z" fill="#595959" fill-rule="evenodd"/>
          <path id="Trazado_125418" data-name="Trazado 125418" d="M39.111,29.778c-1.049,0-1.016.649-1.03.828v4.785c0,.743-.113,1.374,1.139,1.35H55.253c.263,0,.475-.141.475-.3V35.41a1.036,1.036,0,0,0-.433-.851l-5.274-3.886a2.981,2.981,0,0,0-2.131-.894Z" fill="#a6e7f0" fill-rule="evenodd"/>
          <path id="Trazado_125419" data-name="Trazado 125419" d="M50.021,30.672a2.981,2.981,0,0,0-2.131-.894H43.552a2.982,2.982,0,0,1,2.131.894l5.274,3.886a1.036,1.036,0,0,1,.433.851v1.03c0,.16-.212.3-.475.3h4.338c.263,0,.475-.141.475-.3V35.41a1.036,1.036,0,0,0-.433-.851Z" fill="#6bd9e7" fill-rule="evenodd"/>
          <path id="Trazado_125420" data-name="Trazado 125420" d="M2.663,51.885a2.017,2.017,0,0,1-1.4-2.2v4.018a2.117,2.117,0,0,0,1.4,2.385l5.989,1.651a8.261,8.261,0,0,1-.367-2.428,8,8,0,0,1,.207-1.821Z" fill="#24a7ff" fill-rule="evenodd" style="mix-blend-mode: multiply;isolation: isolate"/>
          <path id="Trazado_125421" data-name="Trazado 125421" d="M10.233,28.056h-.88v5.086H12.27V28.056Z" fill="#cecece" fill-rule="evenodd"/>
          <path id="Trazado_125422" data-name="Trazado 125422" d="M83.67,42.9c0-2.733-1.416-3.467-6.286-4.488a7.439,7.439,0,0,1,2.8,5.848v.6H83.67Z" fill="#24a7ff" fill-rule="evenodd" style="mix-blend-mode: multiply;isolation: isolate"/>
          <path id="Trazado_125423" data-name="Trazado 125423" d="M80.183,49.65v9.165h.372c2.254.066,3.119-.809,3.115-2.277V49.65H80.183Z" fill="#24a7ff" fill-rule="evenodd" style="mix-blend-mode: multiply;isolation: isolate"/>
        </g>
        <path id="Trazado_125424" data-name="Trazado 125424" d="M38.7,41.593a1.254,1.254,0,1,0,0,2.509h4.8a1.254,1.254,0,1,0,0-2.509Z"/>
        <path id="Trazado_125425" data-name="Trazado 125425" d="M32.488,28.472l-2.185,0a3.8,3.8,0,0,0-2.618.943c-.078.057-.16.118-.251.183L23.5,32.434a3.051,3.051,0,0,0-1.309,2.7v1.255a1.644,1.644,0,0,0,1.712,1.555h.02l7.835.014h.068a2.933,2.933,0,0,0,2.141-.77,3.255,3.255,0,0,0,.807-2.451V30.559c0-.033,0-.073,0-.105A2.059,2.059,0,0,0,32.488,28.472Zm-.222,6.27a2.352,2.352,0,0,1-.059.661,1.037,1.037,0,0,1-.416.052h-.018l-7.07-.013v-.3c0-.366,0-.476.264-.666L28.9,31.639c.1-.07.187-.136.272-.2.55-.4.621-.456,1.135-.456l1.961,0Z"/>
        <path id="Trazado_125426" data-name="Trazado 125426" d="M16.438,51.351a3.99,3.99,0,1,0,3.993,3.992A3.995,3.995,0,0,0,16.438,51.351Zm0,5.472a1.481,1.481,0,1,1,1.484-1.479A1.481,1.481,0,0,1,16.438,56.822Z"/>
        <path id="Trazado_125427" data-name="Trazado 125427" d="M66.855,51.209A3.99,3.99,0,1,0,70.848,55.2,3.995,3.995,0,0,0,66.855,51.209Zm0,5.472A1.481,1.481,0,1,1,68.338,55.2,1.485,1.485,0,0,1,66.855,56.681Z"/>
        <path id="Trazado_125428" data-name="Trazado 125428" d="M74.606,36.577l-7.842-1.513a4.908,4.908,0,0,1-1.444-.383,13.2,13.2,0,0,1-1.728-1.4c-.314-.275-.678-.593-1.106-.963l-7.951-6.874c-2.2-1.9-2.992-1.971-6.007-1.958-.523,0-1.115,0-1.814,0l-4.8-.056H41.9a1.254,1.254,0,0,0-.014,2.509l4.8.056c.719.008,1.322.006,1.854,0,2.679-.011,2.783-.012,4.355,1.347l7.952,6.874c.424.366.784.681,1.095.953,2.071,1.812,2.277,1.959,4.351,2.357l7.839,1.513c7.657,1.483,8.361,1.808,8.361,3.873v.712H78.782a3,3,0,0,0-3,3v1.308a3,3,0,0,0,3,3h3.709V56.57c0,.5-.145.643-.193.69-.113.111-.5.364-1.638.334H75.953A9.408,9.408,0,0,0,57.872,52.4H43.858a1.254,1.254,0,1,0,0,2.509h13.6c0,.1-.007.192-.007.289a9.386,9.386,0,0,0,.31,2.4H25.572a9.385,9.385,0,0,0,.274-2.25c0-.146,0-.291-.011-.435H38.659a1.254,1.254,0,1,0,0-2.509H25.372A9.4,9.4,0,0,0,7.035,55.343c0,.231.011.46.028.687L3,54.91c-.307-.085-.494-.205-.486-1.156,0,0,0-.017,0-.02V46.5l2.627-.582c.256-.057.492-.1.711-.146a5.178,5.178,0,0,0,3.968-2.5l1.4-2a2.355,2.355,0,0,0,.217-2.495,2.473,2.473,0,0,0-2.077-1.322H2.512a3.4,3.4,0,0,1,.774-2.421A2.171,2.171,0,0,1,4.864,34.4h8.807c.16,0,.308,0,.446,0a4.385,4.385,0,0,0,3.256-1l8.135-6.149a5.716,5.716,0,0,1,3.411-1.266h7.048a1.254,1.254,0,1,0,0-2.509H28.924A8.147,8.147,0,0,0,24,25.259l-8.136,6.15a2,2,0,0,1-1.7.489c-.151,0-.312-.005-.487-.005h-.143V29.311h.5a2.106,2.106,0,0,0,2.106-2.1V23.554a2.128,2.128,0,0,0-1.968-2.094L3.352,20.266a1.967,1.967,0,0,0-1.526.5,2.143,2.143,0,0,0-.714,1.6v4.85a2.1,2.1,0,0,0,2.1,2.1H5.186v2.582H4.864A4.67,4.67,0,0,0,1.5,33.265,5.786,5.786,0,0,0,0,37.6V53.735c-.015,1.953.768,3.163,2.328,3.594l5.37,1.48A9.4,9.4,0,0,0,24.547,60.1H58.831a9.4,9.4,0,0,0,16.049,0h5.73l.236,0a4.381,4.381,0,0,0,3.205-1.05A3.319,3.319,0,0,0,85,56.566V42.914C85,38.59,81.957,38,74.606,36.577ZM3.621,22.819l10.006,1.105V26.8H3.621ZM7.7,29.311H11.02v2.582H7.7ZM7.76,41.828a2.828,2.828,0,0,1-2.4,1.48c-.238.047-.495.1-.771.159l-2.082.462V39.953h6.56Zm8.679,20.409a6.9,6.9,0,1,1,6.9-6.894,6.9,6.9,0,0,1-6.9,6.894ZM66.855,62.1a6.9,6.9,0,1,1,6.9-6.9A6.906,6.906,0,0,1,66.855,62.1ZM78.781,48.415a.487.487,0,0,1-.486-.486V46.621a.487.487,0,0,1,.486-.486H82.49v2.281H78.781Z"/>
        <path id="Trazado_125429" data-name="Trazado 125429" d="M36.859,30.611V35.4c0,.053,0,.106,0,.157a2.369,2.369,0,0,0,.579,1.847,2.421,2.421,0,0,0,1.718.607H55.345a1.632,1.632,0,0,0,1.685-1.555v-1.03a2.28,2.28,0,0,0-.943-1.861L50.8,29.66c-.093-.067-.178-.13-.259-.19a3.808,3.808,0,0,0-2.611-.946H39.144a2.058,2.058,0,0,0-2.282,2c0,.03,0,.06,0,.09ZM39.368,35.4V31.033h8.56c.507,0,.576.051,1.117.453.088.066.182.135.274.2l5.169,3.81H39.367C39.368,35.463,39.368,35.429,39.368,35.4Z"/>
      </g>
    </g>
  </g>
</svg>
