<svg xmlns="http://www.w3.org/2000/svg" xmlns:xlink="http://www.w3.org/1999/xlink" width="86" height="85" viewBox="0 0 86 85">
  <defs>
    <clipPath id="clip-path">
      <rect id="Rectángulo_35379" data-name="Rectángulo 35379" width="85" height="85" transform="translate(600 769)" fill="#fff" stroke="#707070" stroke-width="1"/>
    </clipPath>
  </defs>
  <g id="_34" data-name="34" transform="translate(-810 -769)">
    <circle id="Elipse_4827" data-name="Elipse 4827" cx="42.5" cy="42.5" r="42.5" transform="translate(811 769)" fill="#ffd947"/>
    <g id="Enmascarar_grupo_109" data-name="Enmascarar grupo 109" transform="translate(210)" clip-path="url(#clip-path)">
      <g id="manzana" transform="translate(600 769)">
        <path id="Trazado_125430" data-name="Trazado 125430" d="M74.738,48.016c0,9.646-6.273,22.976-13.857,30.259-3.364,3.234-6.986,5.275-10.435,5.275a21.948,21.948,0,0,1-6.224-.915,13.535,13.535,0,0,0-7.851,0,21.948,21.948,0,0,1-6.224.915c-3.613,0-7.42-2.242-10.919-5.748C11.862,70.426,5.855,57.455,5.855,48.016c0-13.926,8.331-22.34,16.164-24.371,3.752-.973,8.106-.346,11.623.569a26.349,26.349,0,0,0,11.1.476q1.114-.191,2.211-.476c3.516-.915,7.868-1.542,11.623-.569C66.407,25.676,74.738,34.09,74.738,48.016Z" fill="#f94848"/>
        <path id="Trazado_125431" data-name="Trazado 125431" d="M60.88,78.275C51.573,79.919,44.4,79.464,39,78.156A21.821,21.821,0,0,1,22.527,59.571c-2.739-22.564,12-29.133,12-29.133a16.49,16.49,0,0,0,9.18.915c-3.1-3.1,1.029-6.663,1.029-6.663a26.349,26.349,0,0,1-11.1-.476c-3.516-.915-7.87-1.542-11.623-.569C14.185,25.676,5.855,34.09,5.855,48.017S18.928,83.55,30.146,83.55a21.948,21.948,0,0,0,6.224-.915,13.535,13.535,0,0,1,7.851,0,21.948,21.948,0,0,0,6.224.915c3.449,0,7.071-2.041,10.435-5.275Z" fill="#dd2c2c"/>
        <path id="Trazado_125432" data-name="Trazado 125432" d="M79.146,2.313S77.211,15.8,67.024,19.721c-9.739,3.752-18.419-6.393-21.98-5.594a1.425,1.425,0,0,0-.449.174l-.008,0,0-.008c.12-.364,4.025-12,14.054-12.758C68.83.766,74.374,5.408,79.146,2.313Z" fill="#23b75f"/>
        <path id="Trazado_125433" data-name="Trazado 125433" d="M79.146,2.313S72.956,9.856,64.252,9.856C56.6,9.856,47.2,13.3,45.044,14.127c-.259.1-.412.161-.449.174l-.008,0,0-.008c.12-.364,4.025-12,14.054-12.758C68.83.766,74.374,5.408,79.146,2.313Z" fill="#a3e261"/>
        <ellipse id="Elipse_4831" data-name="Elipse 4831" cx="6.962" cy="4.505" rx="6.962" ry="4.505" transform="translate(59.777 49.503) rotate(-95.676)" fill="#fc8181"/>
        <path id="Trazado_125434" data-name="Trazado 125434" d="M71.215,33.765a1.451,1.451,0,0,0-.651,1.945,27.33,27.33,0,0,1,2.723,12.306c0,6.425-2.951,14.929-7.7,22.2C60.717,77.655,55.058,82.1,50.446,82.1a20.635,20.635,0,0,1-5.805-.853,14.981,14.981,0,0,0-8.69,0,20.633,20.633,0,0,1-5.805.853c-4.612,0-10.271-4.444-15.138-11.888-4.751-7.266-7.7-15.77-7.7-22.2a26.074,26.074,0,0,1,4.856-15.777A19.246,19.246,0,0,1,22.382,25.05c2.856-.741,6.623-.544,10.892.568.467.122.944.233,1.419.33a1.451,1.451,0,1,0,.584-2.842c-.425-.087-.853-.187-1.271-.3-4.815-1.254-8.971-1.445-12.352-.568A21.885,21.885,0,0,0,9.837,30.5,28.944,28.944,0,0,0,4.4,48.016c0,6.958,3.132,16.071,8.175,23.783C18.065,80.188,24.467,85,30.145,85a23.294,23.294,0,0,0,6.644-.977,12.09,12.09,0,0,1,7.012,0A23.282,23.282,0,0,0,50.446,85c5.678,0,12.081-4.812,17.567-13.2,5.042-7.712,8.175-16.825,8.175-23.783a30.2,30.2,0,0,0-3.027-13.6A1.45,1.45,0,0,0,71.215,33.765Z"/>
        <path id="Trazado_125435" data-name="Trazado 125435" d="M67.881,31.533a1.451,1.451,0,1,0,2.251-1.83,21.761,21.761,0,0,0-11.194-7.461c-3.381-.877-7.537-.685-12.352.568a25.056,25.056,0,0,1-3.184.612,1.451,1.451,0,1,0,.362,2.879,27.969,27.969,0,0,0,3.554-.683c4.27-1.112,8.037-1.308,10.893-.568A18.847,18.847,0,0,1,67.881,31.533Z"/>
        <path id="Trazado_125436" data-name="Trazado 125436" d="M79.927,1.091a1.452,1.452,0,0,0-1.571,0c-2.083,1.351-4.423.855-7.966.106L69.448,1a1.451,1.451,0,0,0-.59,2.841l.931.2c2.661.563,5.068,1.073,7.336.63-1.091,3.9-3.959,11.13-10.622,13.7-5.634,2.171-10.929-.873-15.183-3.318a22.32,22.32,0,0,0-4.555-2.225c1.51-3.2,5.254-9.327,11.988-9.838a30.075,30.075,0,0,1,5.957.147,1.451,1.451,0,1,0,.349-2.88,32.962,32.962,0,0,0-6.525-.16c-4.6.35-8.723,2.863-11.913,7.269a26.214,26.214,0,0,0-3.345,6.3l-3.818,5.8a37.991,37.991,0,0,0-2.226-5.448,1.451,1.451,0,0,0-2.562,1.361,42.482,42.482,0,0,1,4.058,14.833,9.966,9.966,0,0,1-2.931-.741c-.961-.435-1.26-.877-1.26-.989a1.451,1.451,0,0,0-2.9,0c0,.855.385,2.463,2.964,3.631a14.172,14.172,0,0,0,5.7,1.086,14.182,14.182,0,0,0,5.7-1.086c2.579-1.168,2.964-2.777,2.964-3.631a1.451,1.451,0,0,0-2.9,0c0,.112-.3.553-1.26.989a10.214,10.214,0,0,1-3.161.764,43.813,43.813,0,0,0-1.127-7.092l5.008-7.6a3.249,3.249,0,0,1,1,.266,29.282,29.282,0,0,1,3.357,1.766c3.4,1.956,7.748,4.455,12.63,4.454a13.894,13.894,0,0,0,5.042-.944C78.4,16.891,80.5,3.1,80.582,2.518A1.45,1.45,0,0,0,79.927,1.091Z"/>
      </g>
    </g>
  </g>
</svg>
