<svg xmlns="http://www.w3.org/2000/svg" xmlns:xlink="http://www.w3.org/1999/xlink" width="86" height="85" viewBox="0 0 86 85">
  <defs>
    <clipPath id="clip-path">
      <rect id="Rectángulo_35383" data-name="Rectángulo 35383" width="85" height="85" transform="translate(810 1115)" fill="#fff" stroke="#707070" stroke-width="1"/>
    </clipPath>
  </defs>
  <g id="_36" data-name="36" transform="translate(-810 -1115)">
    <circle id="Elipse_4832" data-name="Elipse 4832" cx="42.5" cy="42.5" r="42.5" transform="translate(811 1115)" fill="#ffd947"/>
    <g id="Enmascarar_grupo_111" data-name="Enmascarar grupo 111" clip-path="url(#clip-path)">
      <g id="ansiedad" transform="translate(810 1115)">
        <g id="Grupo_90706" data-name="Grupo 90706">
          <path id="Trazado_125455" data-name="Trazado 125455" d="M45.418,17.806c0-2.93-.4-5.825-2.136-7.912A12.039,12.039,0,0,0,23.054,22.536a12.9,12.9,0,0,0,2.824,3.515A11.334,11.334,0,0,0,34.249,29.1c6.647,0,11.169-4.649,11.169-11.3Z" fill="#b3e59f"/>
          <path id="Trazado_125456" data-name="Trazado 125456" d="M43.1,9.679a12.066,12.066,0,0,1,.613,7.723.825.825,0,0,1-.683.613,16.9,16.9,0,0,0-8.389,3.6.832.832,0,0,1-.694.177A9.116,9.116,0,0,0,32.15,21.6l-.086,0a11,11,0,0,0-6.606,2.177l-.015,0a.691.691,0,0,1-.728-1.1A14.85,14.85,0,0,0,27.109,7.754a12.033,12.033,0,0,0-4.126,14.612l0,0c.037.074.03.083.125.276A12.036,12.036,0,1,0,43.1,9.679Z" fill="#95d6a4"/>
          <path id="Trazado_125457" data-name="Trazado 125457" d="M24.821,13.115c0-3.337-.862-6.274-3.056-8.454A12.037,12.037,0,0,0,2.988,19.439c2.111,3.474,6.2,5.224,10.559,5.224,6.647,0,11.275-4.9,11.275-11.549Z" fill="#df646e"/>
          <path id="Trazado_125458" data-name="Trazado 125458" d="M25.317,13.2A12.037,12.037,0,0,1,2.932,19.344,12.036,12.036,0,0,0,21.307,4.23,12,12,0,0,1,25.317,13.2Z" fill="#dc4955"/>
          <path id="Trazado_125459" data-name="Trazado 125459" d="M81.238,44.492c0-3.768-1.206-7.131-3.917-9.338A12.037,12.037,0,0,0,59.9,51.445c2.18,3.076,6.433,4.057,10.49,4.057C77.038,55.5,81.238,51.139,81.238,44.492Z" fill="#df646e"/>
          <path id="Trazado_125460" data-name="Trazado 125460" d="M78.583,52.64a10.038,10.038,0,0,0,.974-1.208,12.031,12.031,0,0,0-3.144-16.947,12.032,12.032,0,0,1-.449,14,.826.826,0,0,1-.843.3,14.95,14.95,0,0,0-3.4-.391,14.787,14.787,0,0,0-9.6,3.527.83.83,0,0,1-.894.116,11.947,11.947,0,0,1-1.507-.858A12.026,12.026,0,0,0,78.583,52.64Z" fill="#dc4955"/>
          <path id="Trazado_125461" data-name="Trazado 125461" d="M83.258,63.169c0-3.337-.862-6.274-3.056-8.454A12.037,12.037,0,0,0,61.425,69.493c2.111,3.474,6.2,5.224,10.559,5.224C78.631,74.717,83.258,69.816,83.258,63.169Z" fill="#faf8f8"/>
          <path id="Trazado_125462" data-name="Trazado 125462" d="M83.755,63.252A12.037,12.037,0,0,1,61.369,69.4,12.036,12.036,0,0,0,79.744,54.284,12,12,0,0,1,83.755,63.252Z" fill="#f0e9e6"/>
          <path id="Trazado_125463" data-name="Trazado 125463" d="M83.258,13.115c0-3.337-.862-6.274-3.056-8.454A12.037,12.037,0,0,0,61.425,19.439c2.111,3.474,6.2,5.224,10.559,5.224,6.647,0,11.275-4.9,11.275-11.549Z" fill="#faf8f8"/>
          <path id="Trazado_125464" data-name="Trazado 125464" d="M83.755,13.2a12.037,12.037,0,0,1-22.385,6.146A12.036,12.036,0,0,0,79.744,4.23,12,12,0,0,1,83.755,13.2Z" fill="#f0e9e6"/>
          <path id="Trazado_125465" data-name="Trazado 125465" d="M57.1,71.372l-6.924-4.1-15.212-.036-2.637.8-2.181,8.805,5.974,6.917H49.014Z" fill="#faf8f8"/>
          <path id="Trazado_125466" data-name="Trazado 125466" d="M37.462,60.093l-2.117,3.838-.408,3.524A5.034,5.034,0,0,0,35.992,71.2c1.072,1.331,3.04,2.725,6.574,2.725s5.5-1.393,6.574-2.724a4.906,4.906,0,0,0,.921-1.832c.163-.618-.653-1.488-.729-2.134l.016-7.4Z" fill="#f2d1a5"/>
          <path id="Trazado_125467" data-name="Trazado 125467" d="M35.344,63.931l.444-3.838,13.561-.26.825,7.437.593,1.2-.707.9-1.2-.361c-.733-.162-.658-1.179-.741-1.742l-.133-1.2a.767.767,0,0,0-1.053-.623,11.667,11.667,0,0,1-4.367.888,13.181,13.181,0,0,1-7.222-2.4Z" fill="#f2bb88"/>
          <path id="Trazado_125468" data-name="Trazado 125468" d="M49.233,82.865a36.416,36.416,0,0,0,3.256-11.77,1.148,1.148,0,0,0-.81-1.24l-1.619-.487a5.154,5.154,0,0,0,.134-1.914l-.02-.184,2.628.79,7.844,2.359c3.239.974,1.785,10.8,1.785,10.8l-11.5,2.538H48.767Z" fill="#f0e9e6"/>
          <path id="Trazado_125469" data-name="Trazado 125469" d="M18.259,77.432l1.449,4.957,14.5,1.365h2.162l-.466-.89c-2.6-4.95-3.326-11.744-3.52-14.436a3.128,3.128,0,0,0-.054-.4l-7.855,2.38A8.935,8.935,0,0,0,18.259,77.432Z" fill="#f0e9e6"/>
          <path id="Trazado_125470" data-name="Trazado 125470" d="M16.713,83.755a1.277,1.277,0,0,1-1.257-1.5l.915-5.136a10.793,10.793,0,0,1,7.564-8.534L28.5,67.212a1.531,1.531,0,0,1,1.969,1.355C30.7,71.829,31.5,78.606,34.2,83.755Z" fill="#f5de46"/>
          <path id="Trazado_125471" data-name="Trazado 125471" d="M57.914,43.4h.855a3.709,3.709,0,0,1,3.7,3.715,5.116,5.116,0,0,1-5.107,5.124H27.872a5.116,5.116,0,0,1-5.107-5.124,3.709,3.709,0,0,1,3.7-3.715H57.914Z" fill="#f2bb88"/>
          <path id="Trazado_125472" data-name="Trazado 125472" d="M57.914,43.4c0,6.5-.126,8.635-2.77,12.309-3.647,5.067-8.19,8.509-12.526,8.509s-8.879-3.442-12.526-8.509c-2.209-3.069-2.66-5.064-2.749-9.426-.017-.86.585-2.188.585-3.258l-2.15-14.538,33.577,4.5Z" fill="#f2d1a5"/>
          <path id="Trazado_125473" data-name="Trazado 125473" d="M59.356,32.984,57.927,43.308A8.615,8.615,0,0,0,54.7,39.315c-4.812-3.144-9.873,1.131-17.621-5.752a0,0,0,0,1,0,0q-.17-.151-.342-.309a.639.639,0,0,0-1.037.257c-.137.388-.28.766-.433,1.132a8.885,8.885,0,0,1-3.616,4.521c-2.11,1.246-3.891,5.961-4.3,7.12-.017-.86-.02-1.813-.02-2.883L25.877,29.44l.788-.835Z" fill="#f2bb88"/>
          <path id="Trazado_125474" data-name="Trazado 125474" d="M35.3,29.442c-.23.726-.268,2.372-.543,3.029a8.885,8.885,0,0,1-3.615,4.521c-2.412,1.423-3.814,6.408-3.814,6.408-3.153,0-4.557-4.71-4.557-7.943,0-7.539,4.6-11.4,9.366-11.366a6.45,6.45,0,0,1,1.788.258c.332.1.721.514,1.057.68.281-.3.518-.868.82-1.135A15.037,15.037,0,0,1,45.987,20.3a18.5,18.5,0,0,1,4.563.881C62.162,24.15,64.238,40.5,57.855,42.8a10.484,10.484,0,0,0-.275-1.2,8.588,8.588,0,0,0-3.393-4.451C49.375,34,44.315,38.276,36.566,31.393c-.349-.31-.91-1.594-1.271-1.952Z" fill="#7a6d79"/>
          <path id="Trazado_125475" data-name="Trazado 125475" d="M57.914,43.4s-.01-.152-.029-.346a6.8,6.8,0,0,0-.306-1.457c3.434-5.1.636-18.115-9.324-20.66a20.314,20.314,0,0,0-3.631-.59,19.461,19.461,0,0,1,6.184.59C62.42,23.9,64.3,41.1,57.914,43.4Z" fill="#685e68"/>
          <g id="Grupo_90704" data-name="Grupo 90704">
            <path id="Trazado_125476" data-name="Trazado 125476" d="M25.33,54.993c0-2.931-.4-5.825-2.136-7.912A12.039,12.039,0,0,0,2.966,59.723,12.9,12.9,0,0,0,5.79,63.238a11.334,11.334,0,0,0,8.371,3.052c6.647,0,11.169-4.649,11.169-11.3Z" fill="#b3e59f"/>
            <path id="Trazado_125477" data-name="Trazado 125477" d="M25.982,54.785A12.037,12.037,0,0,1,2.89,59.55,12.037,12.037,0,0,0,23.008,46.866,11.987,11.987,0,0,1,25.982,54.785Z" fill="#95d6a4"/>
            <g id="Grupo_90703" data-name="Grupo 90703">
              <g id="Grupo_90702" data-name="Grupo 90702">
                <path id="Trazado_125478" data-name="Trazado 125478" d="M14.029,61.806v-.084" fill="#faf8f8"/>
              </g>
            </g>
          </g>
          <g id="Grupo_90705" data-name="Grupo 90705">
            <path id="Trazado_125479" data-name="Trazado 125479" d="M67.884,83.232a1.276,1.276,0,0,0,1.253-1.5l-1.476-4.622a9.215,9.215,0,0,0-7.021-7.752l-3.846-.985c-.939-.28-1.169-.714-1.237.263-.017.249-.961.453-.985.741-.3,3.48-1.153,9.622-3.634,14.38l16.214-.037Z" fill="#f5de46"/>
            <path id="Trazado_125480" data-name="Trazado 125480" d="M54.571,69.374l4.173,1.244a10.786,10.786,0,0,1,7.579,8.51l.828,4.588,1.264,0a1.276,1.276,0,0,0,1.253-1.5l-.927-5.13a10.785,10.785,0,0,0-7.579-8.51L56.6,67.211a1.53,1.53,0,0,0-1.964,1.358c-.017.249-.039.518-.063.805Z" fill="#f3d332"/>
          </g>
        </g>
        <g id="Grupo_90707" data-name="Grupo 90707">
          <path id="Trazado_125481" data-name="Trazado 125481" d="M66.849,41.623a1.245,1.245,0,0,0,1.245-1.245,1.711,1.711,0,0,1,.016-.236A1.68,1.68,0,0,1,69.775,38.7h.034a1.68,1.68,0,0,1,1.183,2.836,1.666,1.666,0,0,1-1.219.524A1.245,1.245,0,0,0,68.529,43.3v3.059a1.245,1.245,0,1,0,2.49,0V44.357A4.186,4.186,0,0,0,72.8,43.249a4.138,4.138,0,0,0,1.141-3.091,4.171,4.171,0,0,0-8.335.22,1.245,1.245,0,0,0,1.245,1.245Z"/>
          <path id="Trazado_125482" data-name="Trazado 125482" d="M34.116,20.752a1.245,1.245,0,0,0,1.245-1.245V10.542a1.245,1.245,0,1,0-2.49,0v8.965A1.245,1.245,0,0,0,34.116,20.752Z"/>
          <path id="Trazado_125483" data-name="Trazado 125483" d="M71.719,26.562A13.281,13.281,0,1,0,58.437,13.281,13.3,13.3,0,0,0,71.719,26.562Zm0-24.072A10.791,10.791,0,1,1,60.928,13.281,10.8,10.8,0,0,1,71.719,2.49Z"/>
          <path id="Trazado_125484" data-name="Trazado 125484" d="M17.494,8.948A4.183,4.183,0,0,0,13.415,5H13.33a4.167,4.167,0,0,0-4.171,4.17,1.245,1.245,0,0,0,2.49,0,1.712,1.712,0,0,1,.016-.236A1.68,1.68,0,0,1,13.33,7.487h.034a1.68,1.68,0,0,1,1.183,2.836,1.666,1.666,0,0,1-1.219.524,1.245,1.245,0,0,0-1.245,1.245v3.059a1.245,1.245,0,1,0,2.49,0V13.146a4.187,4.187,0,0,0,1.779-1.108,4.138,4.138,0,0,0,1.141-3.091Z"/>
          <path id="Trazado_125485" data-name="Trazado 125485" d="M13.365,18.974a1.245,1.245,0,0,0-1.245,1.245V20.3a1.245,1.245,0,0,0,2.49,0v-.084a1.245,1.245,0,0,0-1.245-1.245Z"/>
          <path id="Trazado_125486" data-name="Trazado 125486" d="M14.029,60.477a1.245,1.245,0,0,0-1.245,1.245v.084a1.245,1.245,0,1,0,2.49,0v-.084A1.245,1.245,0,0,0,14.029,60.477Z"/>
          <path id="Trazado_125487" data-name="Trazado 125487" d="M14.028,57.939a1.245,1.245,0,0,0,1.245-1.245V47.729a1.245,1.245,0,0,0-2.49,0v8.965A1.245,1.245,0,0,0,14.028,57.939Z"/>
          <path id="Trazado_125488" data-name="Trazado 125488" d="M83.688,61.464a1.245,1.245,0,0,0-1.189,1.3c.007.163.011.327.011.489A10.8,10.8,0,0,1,69,73.7a12.043,12.043,0,0,0-7.25-6.31A10.794,10.794,0,0,1,71.719,52.46a10.844,10.844,0,0,1,9.308,5.328,1.245,1.245,0,0,0,2.146-1.263,13.25,13.25,0,0,0-3.158-3.636A13.28,13.28,0,0,0,62.479,33.364,17.582,17.582,0,0,0,57.36,23.171a1.245,1.245,0,1,0-1.714,1.806A15.477,15.477,0,0,1,59.963,38.36a6.77,6.77,0,0,1-1.131,2.75,8.806,8.806,0,0,0-4.006-5.044c-2.226-1.455-4.511-1.531-6.72-1.605-3.357-.112-6.826-.231-11.469-4.688l-.473-4.617c3.449-3.333,8.743-4.478,14.291-3.061.237.06.472.128.7.2a1.245,1.245,0,1,0,.763-2.37c-.276-.089-.561-.171-.847-.244a21.58,21.58,0,0,0-3.837-.624,13.287,13.287,0,0,0-13.2-14.743A13.256,13.256,0,0,0,25.286,7.6,13.28,13.28,0,1,0,3.235,21.969a1.245,1.245,0,0,0,1.883-1.63,10.759,10.759,0,1,1,4.274,3.011,1.245,1.245,0,1,0-.9,2.323,13.271,13.271,0,0,0,13.528-2.405,13.3,13.3,0,0,0,2.214,3.294,13.666,13.666,0,0,0-2.782,8.858A12.358,12.358,0,0,0,23.8,42.871a4.991,4.991,0,0,0-1.558,1.54A13.136,13.136,0,0,0,13.945,41.5,13.281,13.281,0,1,0,27.227,54.785a13.413,13.413,0,0,0-.07-1.358l.1.008a16.74,16.74,0,0,0,1.762,2.979A28.5,28.5,0,0,0,34.3,62.083l-.485,4.161-2.6.784a2.77,2.77,0,0,0-3.082-1.078l-4.57,1.379A12.7,12.7,0,0,0,17.98,70.9a12.148,12.148,0,0,0-2.854,5.972l-1.183,6.664a1.245,1.245,0,0,0,1.008,1.444A1.265,1.265,0,0,0,15.17,85a1.246,1.246,0,0,0,1.225-1.027l1.184-6.67a9.667,9.667,0,0,1,2.261-4.746,10.192,10.192,0,0,1,4.442-2.844l4.569-1.379a.278.278,0,0,1,.244.038.282.282,0,0,1,.125.219,40.251,40.251,0,0,0,.724,5.071,1.245,1.245,0,0,0,2.441-.5c-.267-1.315-.463-2.559-.587-3.714l1.918-.579a6.255,6.255,0,0,0,1.3,3.052c1.173,1.46,3.435,3.2,7.55,3.2s6.377-1.741,7.55-3.2a6.26,6.26,0,0,0,1.307-3.085l1.924.586a51.927,51.927,0,0,1-.936,6.2L51.23,79.9a24.463,24.463,0,0,1-1.4,3.279,1.245,1.245,0,1,0,2.207,1.153A27.021,27.021,0,0,0,53.6,80.676c.009-.025.016-.05.023-.075l1.2-4.34c.006-.022.012-.045.017-.068a55.088,55.088,0,0,0,1.076-7.6.281.281,0,0,1,.125-.219.276.276,0,0,1,.244-.038l4.569,1.378a9.59,9.59,0,0,1,6.7,7.6l1.183,6.664a1.245,1.245,0,0,0,2.452-.435c-.3-1.639-.978-5.584-1.273-7.128A13.275,13.275,0,0,0,85,63.252c0-.2,0-.4-.013-.6a1.25,1.25,0,0,0-1.3-1.189ZM80.517,44.492a10.7,10.7,0,0,1-2.6,7.023,13.231,13.231,0,0,0-14.723,1.564A10.747,10.747,0,0,1,61.7,51.7a6.363,6.363,0,0,0,1.979-4.615,4.97,4.97,0,0,0-2.852-4.494,9.23,9.23,0,0,0,1.576-3.74,14.371,14.371,0,0,0,.266-2.522,10.789,10.789,0,0,1,17.848,8.161Zm-21.4.156a2.471,2.471,0,0,1,2.073,2.439,3.889,3.889,0,0,1-2.469,3.62A34.023,34.023,0,0,0,59.116,44.648ZM26.563,13.281a13.255,13.255,0,0,0-.369-3.1A10.791,10.791,0,0,1,44.824,17.6a10.93,10.93,0,0,1-.1,1.443,15.99,15.99,0,0,0-10.147,4.186A8.413,8.413,0,0,0,32,22.8a9.823,9.823,0,0,0-5.985,2.024,10.792,10.792,0,0,1-2.136-3.555,13.213,13.213,0,0,0,2.678-7.988Zm.21,14.18a7.389,7.389,0,0,1,5.29-2.17,5.15,5.15,0,0,1,1.639.27l.477,4.655c-.84,2.582-1.817,4.535-3.735,5.667a8.1,8.1,0,0,0-4.3,5.813c-1.373-1.1-2.2-4.085-2.2-6.277,0-3.37.978-6.122,2.829-7.959ZM23.944,47.087a2.471,2.471,0,0,1,2.073-2.439,34.023,34.023,0,0,0,.4,6.06A3.888,3.888,0,0,1,23.944,47.087Zm.792,7.7A10.791,10.791,0,1,1,13.945,43.994a10.681,10.681,0,0,1,7.51,3.043c0,.017,0,.033,0,.049A6.379,6.379,0,0,0,24.5,52.525,10.861,10.861,0,0,1,24.736,54.785Zm6.305.175c-2.437-3.386-2.537-5.2-2.537-11.591a5.6,5.6,0,0,1,3.2-5.341,10.41,10.41,0,0,0,4.281-5.477c4.842,4.159,8.8,4.291,12.032,4.4,2.122.071,3.8.127,5.441,1.2,2.249,1.47,3.166,2.981,3.166,5.218,0,6.393-.1,8.205-2.537,11.591-3.658,5.083-7.859,8-11.525,8S34.7,60.042,31.042,54.96ZM48.175,70.366c-1.21,1.507-3.1,2.271-5.608,2.271s-4.4-.764-5.608-2.271a3.841,3.841,0,0,1-.789-2.838l.449-3.853a11.967,11.967,0,0,0,5.949,1.772,11.966,11.966,0,0,0,5.95-1.772l.448,3.854A3.842,3.842,0,0,1,48.175,70.366Zm6.451-4.045a2.781,2.781,0,0,0-.69.681l-2.619-.8-.479-4.124a28.5,28.5,0,0,0,5.274-5.667,16.742,16.742,0,0,0,1.762-2.979,6.3,6.3,0,0,0,1.7-.387,13.245,13.245,0,0,0,1.86,1.815A13.3,13.3,0,0,0,58.837,66.5L57,65.951a2.761,2.761,0,0,0-2.376.371Z"/>
          <path id="Trazado_125489" data-name="Trazado 125489" d="M33.783,78.664a1.245,1.245,0,1,0-2.385.718c.849,2.817,1.61,4.749,1.642,4.83a1.245,1.245,0,0,0,2.316-.916C35.348,83.278,34.6,81.382,33.783,78.664Z"/>
          <path id="Trazado_125490" data-name="Trazado 125490" d="M45.952,49.015l3.307,1.909A1.245,1.245,0,1,0,50.5,48.768l-1.439-.831,1.439-.831a1.245,1.245,0,0,0-1.245-2.157l-3.307,1.909a1.245,1.245,0,0,0,0,2.157Z"/>
          <path id="Trazado_125491" data-name="Trazado 125491" d="M39.048,46.859l-3.307-1.909A1.245,1.245,0,0,0,34.5,47.106l1.439.831-1.439.831a1.245,1.245,0,1,0,1.245,2.157l3.307-1.909a1.245,1.245,0,0,0,0-2.157Z"/>
          <path id="Trazado_125492" data-name="Trazado 125492" d="M45.073,57.69a1.245,1.245,0,0,0-1.245-1.245H41.172a1.245,1.245,0,0,0,0,2.49h2.656A1.245,1.245,0,0,0,45.073,57.69Z"/>
          <path id="Trazado_125493" data-name="Trazado 125493" d="M40.564,53.253a3.527,3.527,0,0,0,3.871,0,1.245,1.245,0,0,0-1.381-2.072,1.052,1.052,0,0,1-1.109,0,1.245,1.245,0,0,0-1.381,2.072Z"/>
          <circle id="Elipse_4835" data-name="Elipse 4835" cx="1.245" cy="1.245" r="1.245" transform="translate(65.576 11.953)"/>
          <circle id="Elipse_4836" data-name="Elipse 4836" cx="1.245" cy="1.245" r="1.245" transform="translate(75.537 11.953)"/>
          <circle id="Elipse_4837" data-name="Elipse 4837" cx="1.245" cy="1.245" r="1.245" transform="translate(70.557 11.953)"/>
          <circle id="Elipse_4838" data-name="Elipse 4838" cx="1.245" cy="1.245" r="1.245" transform="translate(65.41 61.924)"/>
          <circle id="Elipse_4839" data-name="Elipse 4839" cx="1.245" cy="1.245" r="1.245" transform="translate(75.371 61.924)"/>
          <circle id="Elipse_4840" data-name="Elipse 4840" cx="1.245" cy="1.245" r="1.245" transform="translate(70.391 61.924)"/>
        </g>
      </g>
    </g>
  </g>
</svg>
