<svg xmlns="http://www.w3.org/2000/svg" xmlns:xlink="http://www.w3.org/1999/xlink" width="63" height="63" viewBox="0 0 63 63">
  <defs>
    <clipPath id="clip-path">
      <rect id="Rectángulo_35408" data-name="Rectángulo 35408" width="63" height="63" transform="translate(-2494 -9642.5)" fill="#8284d2" stroke="#707070" stroke-width="1"/>
    </clipPath>
  </defs>
  <g id="Enmascarar_grupo_129" data-name="Enmascarar grupo 129" transform="translate(2494 9642.5)" clip-path="url(#clip-path)">
    <g id="pensamiento-positivo" transform="translate(-2495.016 -9643.517)">
      <g id="Grupo_90746" data-name="Grupo 90746">
        <g id="Grupo_90727" data-name="Grupo 90727">
          <path id="Trazado_125601" data-name="Trazado 125601" d="M34.548,56.9,36.581,63H28.452l2.032-6.1Z" fill="#ff826e"/>
        </g>
        <g id="Grupo_90728" data-name="Grupo 90728">
          <path id="Trazado_125602" data-name="Trazado 125602" d="M36.388,53.479,34.548,56.9H30.484l-1.839-3.424,3.871-1.656Z" fill="#fc6e51"/>
        </g>
        <g id="Grupo_90729" data-name="Grupo 90729">
          <path id="Trazado_125603" data-name="Trazado 125603" d="M19.306,63H11.177V59.85A10.984,10.984,0,0,1,16.6,50.39a10.765,10.765,0,0,1,3.567-1.311l3.2-.579L25.4,54.871l3.241-1.392L30.484,56.9,28.452,63Z" fill="#fcd770"/>
        </g>
        <g id="Grupo_90730" data-name="Grupo 90730">
          <path id="Trazado_125604" data-name="Trazado 125604" d="M45.726,63H36.581l-2.032-6.1,1.839-3.424,3.241,1.392L41.661,48.5l3.2.579A10.972,10.972,0,0,1,53.2,56.121a11.034,11.034,0,0,1,.65,3.729V63Z" fill="#fcd770"/>
        </g>
        <g id="Grupo_90731" data-name="Grupo 90731">
          <path id="Trazado_125605" data-name="Trazado 125605" d="M32.516,51.823l-3.871,1.656L25.4,54.871,23.371,48.5l4.065-.742Z" fill="#ffc729"/>
        </g>
        <g id="Grupo_90732" data-name="Grupo 90732">
          <path id="Trazado_125606" data-name="Trazado 125606" d="M41.661,48.5l-2.032,6.371-3.241-1.392-3.871-1.656L37.6,47.758Z" fill="#ffc729"/>
        </g>
        <g id="Grupo_90733" data-name="Grupo 90733">
          <path id="Trazado_125607" data-name="Trazado 125607" d="M51.884,8.983l-3.658,2.286A26.429,26.429,0,0,0,6.1,32.516v2.032H2.032V32.516A30.477,30.477,0,0,1,51.884,8.983Z" fill="#ccd1d9"/>
        </g>
        <g id="Grupo_90734" data-name="Grupo 90734">
          <path id="Trazado_125608" data-name="Trazado 125608" d="M63,32.516v2.032H58.935V32.516a26.331,26.331,0,0,0-7.408-18.341l1.839-3.892A30.366,30.366,0,0,1,63,32.516Z" fill="#ccd1d9"/>
        </g>
        <g id="Grupo_90735" data-name="Grupo 90735">
          <path id="Trazado_125609" data-name="Trazado 125609" d="M32.516,6.1v8.129H30.535A12.231,12.231,0,0,0,18.92,30.331l.325.986a3.037,3.037,0,0,0-.955,2.215,2.817,2.817,0,0,0,.183,1.016H6.1V32.516A26.436,26.436,0,0,1,32.516,6.1Z" fill="#69d6f4"/>
        </g>
        <g id="Grupo_90736" data-name="Grupo 90736">
          <path id="Trazado_125610" data-name="Trazado 125610" d="M48.225,11.269l-7.479,4.674A12.186,12.186,0,0,0,34.5,14.226H32.516V6.1a26.3,26.3,0,0,1,15.709,5.172Z" fill="#69d6f4"/>
        </g>
        <g id="Grupo_90737" data-name="Grupo 90737">
          <path id="Trazado_125611" data-name="Trazado 125611" d="M58.935,34.548H46.559a2.817,2.817,0,0,0,.183-1.016,3.037,3.037,0,0,0-.955-2.215l.325-.986a12.152,12.152,0,0,0,.63-3.861,12.932,12.932,0,0,0-.142-1.89l4.928-10.405a26.331,26.331,0,0,1,7.408,18.341Z" fill="#69d6f4"/>
        </g>
        <g id="Grupo_90738" data-name="Grupo 90738">
          <path id="Trazado_125612" data-name="Trazado 125612" d="M51.884,8.983l2.987-1.87-1.5,3.17-1.839,3.892L46.6,24.58a12.211,12.211,0,0,0-3.445-6.767,11.955,11.955,0,0,0-2.408-1.87l7.479-4.674Z" fill="#ff826e"/>
        </g>
        <g id="Grupo_90739" data-name="Grupo 90739">
          <path id="Trazado_125613" data-name="Trazado 125613" d="M42.677,26.419a2.038,2.038,0,0,1-2.032,2.032H33.532a3.041,3.041,0,0,1-2.154-.894l-.041-.041-.051.03a8.718,8.718,0,0,1-3.851.9A3.053,3.053,0,0,1,24.387,25.4a6.946,6.946,0,0,0-2.032,4.908v.173H21.339a3.056,3.056,0,0,0-2.093.833l-.325-.986A12.231,12.231,0,0,1,30.535,14.226H34.5a12.186,12.186,0,0,1,6.249,1.717,11.955,11.955,0,0,1,2.408,1.87A12.211,12.211,0,0,1,46.6,24.58a12.932,12.932,0,0,1,.142,1.89,12.152,12.152,0,0,1-.63,3.861l-.325.986a3.056,3.056,0,0,0-2.093-.833H42.677Z" fill="#656d78"/>
        </g>
        <g id="Grupo_90740" data-name="Grupo 90740">
          <path id="Trazado_125614" data-name="Trazado 125614" d="M36.631,44.862l.965,2.9-5.081,4.065-5.081-4.065.965-2.9v-.01a10.127,10.127,0,0,0,8.231,0Z" fill="#f0d0b4"/>
        </g>
        <g id="Grupo_90741" data-name="Grupo 90741">
          <path id="Trazado_125615" data-name="Trazado 125615" d="M46.742,33.532a2.817,2.817,0,0,1-.183,1.016,2.883,2.883,0,0,1-.711,1.138,3.041,3.041,0,0,1-2.154.894H42.627c.03-.335.051-.671.051-1.016V30.484h1.016a3.05,3.05,0,0,1,3.048,3.048Z" fill="#f0d0b4"/>
        </g>
        <g id="Grupo_90742" data-name="Grupo 90742">
          <path id="Trazado_125616" data-name="Trazado 125616" d="M42.677,30.484v5.081c0,.345-.02.681-.051,1.016a10.162,10.162,0,0,1-20.221,0c-.03-.335-.051-.671-.051-1.016V30.311A6.946,6.946,0,0,1,24.387,25.4a3.053,3.053,0,0,0,3.048,3.048,8.718,8.718,0,0,0,3.851-.9l.051-.03.041.041a3.041,3.041,0,0,0,2.154.894h7.113a2.038,2.038,0,0,0,2.032-2.032Z" fill="#f0d0b4"/>
        </g>
        <g id="Grupo_90743" data-name="Grupo 90743">
          <path id="Trazado_125617" data-name="Trazado 125617" d="M22.406,36.581H21.339a3.041,3.041,0,0,1-2.154-.894,2.883,2.883,0,0,1-.711-1.138,2.817,2.817,0,0,1-.183-1.016,3.05,3.05,0,0,1,3.048-3.048h1.016v5.081C22.355,35.91,22.375,36.245,22.406,36.581Z" fill="#f0d0b4"/>
        </g>
        <g id="Grupo_90744" data-name="Grupo 90744">
          <circle id="Elipse_4846" data-name="Elipse 4846" cx="6.097" cy="6.097" r="6.097" transform="translate(2.032 38.613)" fill="#ccd1d9"/>
        </g>
        <g id="Grupo_90745" data-name="Grupo 90745">
          <circle id="Elipse_4847" data-name="Elipse 4847" cx="6.097" cy="6.097" r="6.097" transform="translate(50.806 38.613)" fill="#ccd1d9"/>
        </g>
      </g>
      <g id="Grupo_90747" data-name="Grupo 90747">
        <path id="Trazado_125618" data-name="Trazado 125618" d="M31.5,31.5H29.468a1.016,1.016,0,0,1-2.032,0H25.4a3.048,3.048,0,0,0,6.1,0Z"/>
        <path id="Trazado_125619" data-name="Trazado 125619" d="M36.581,32.516A1.017,1.017,0,0,1,35.565,31.5H33.532a3.048,3.048,0,0,0,6.1,0H37.6A1.017,1.017,0,0,1,36.581,32.516Z"/>
        <path id="Trazado_125620" data-name="Trazado 125620" d="M35.565,38.448a3.213,3.213,0,0,1-6.1,0l-.053-.156-1.927.647.053.154a5.244,5.244,0,0,0,9.95,0l.053-.156-1.927-.647Z"/>
        <path id="Trazado_125621" data-name="Trazado 125621" d="M54.6,10.065l2.677-5.652L51.955,7.738A31.492,31.492,0,0,0,1.016,32.516v3.048H17.839a4.051,4.051,0,0,0,3.5,2.032h.194a11.2,11.2,0,0,0,5.627,7.774l-.5,1.495L19.985,48.08a11.963,11.963,0,0,0-9.824,11.77v4.166h44.71V59.85a11.963,11.963,0,0,0-9.824-11.77l-6.676-1.214-.5-1.495A11.2,11.2,0,0,0,43.5,37.6h.194a4.051,4.051,0,0,0,3.5-2.032H64.016V32.516A31.619,31.619,0,0,0,54.6,10.065Zm-10.9,16.355a3.052,3.052,0,0,0-3.048-3.048H37.6V25.4h3.048a1.016,1.016,0,0,1,0,2.032H33.532a2.032,2.032,0,0,1,0-4.065V21.339a4.054,4.054,0,0,0-3.714,5.7,7.611,7.611,0,0,1-2.383.394,2.032,2.032,0,1,1,0-4.065V21.339a4.055,4.055,0,0,0-4.02,3.627,8.019,8.019,0,0,0-2.028,4.5h-.049a4.036,4.036,0,0,0-1.526.3A11.2,11.2,0,0,1,30.53,15.242H34.5A11.2,11.2,0,0,1,45.22,29.771a4.036,4.036,0,0,0-1.526-.3ZM33.532,7.153a25.128,25.128,0,0,1,12.831,4.08l-5.649,3.53A13.173,13.173,0,0,0,34.5,13.21h-.97Zm9.059,8.834,9.877-6.173L46.849,21.675a13.308,13.308,0,0,0-4.258-5.688ZM3.048,32.516A29.435,29.435,0,0,1,50.1,8.9l-1.852,1.157A27.413,27.413,0,0,0,5.081,32.516v1.016H3.048Zm4.065,1.016V32.516A25.431,25.431,0,0,1,31.5,7.138V13.21h-.97A13.257,13.257,0,0,0,17.954,30.658l.147.443a4.025,4.025,0,0,0-.827,2.432Zm12.194,0A2.034,2.034,0,0,1,21.339,31.5v4.065A2.034,2.034,0,0,1,19.306,33.532ZM27.161,48.84l3.395,2.716L26.03,53.5l-1.341-4.207Zm4.055,9.079h2.6l1.356,4.065h-5.31Zm2.724-2.032H31.09l-1.025-1.909,2.451-1.05,2.451,1.051ZM12.194,59.85a9.935,9.935,0,0,1,8.155-9.771l2.325-.423,2.1,6.589,3.415-1.463L29.381,57,27.72,61.984h-7.4V57.919H18.29v4.065h-6.1Zm38.343-6.356a9.94,9.94,0,0,1,2.3,6.356v2.134h-6.1V57.919H44.71v4.065h-7.4L35.651,57l1.191-2.216,3.415,1.463,2.1-6.589,2.325.423a9.945,9.945,0,0,1,5.853,3.415Zm-10.195-4.2L39,53.5l-4.526-1.94,3.395-2.716Zm-3.932-1.883-3.893,3.114-3.893-3.114.41-1.227a11.058,11.058,0,0,0,6.967,0Zm-3.893-2.7a9.155,9.155,0,0,1-9.145-9.145V30.309a5.946,5.946,0,0,1,.659-2.7,4.057,4.057,0,0,0,3.405,1.86,9.69,9.69,0,0,0,3.731-.772,4.038,4.038,0,0,0,2.366.772h7.113a3.014,3.014,0,0,0,1.016-.187v6.284A9.155,9.155,0,0,1,32.516,44.71Zm11.177-9.145V31.5a2.032,2.032,0,1,1,0,4.065ZM46.931,31.1l.147-.443a12.875,12.875,0,0,0,.558-5.9L51.8,15.981a25.252,25.252,0,0,1,6.124,16.535v1.016H47.758A4.025,4.025,0,0,0,46.931,31.1Zm15.053,2.432H59.952V32.516a27.291,27.291,0,0,0-7.212-18.529l.937-1.977a29.154,29.154,0,0,1,8.308,20.507Z"/>
        <path id="Trazado_125622" data-name="Trazado 125622" d="M57.919,41.661H55.887v2.032H53.855v2.032h2.032v2.032h2.032V45.726h2.032V43.694H57.919Z"/>
        <path id="Trazado_125623" data-name="Trazado 125623" d="M56.9,37.6a7.113,7.113,0,1,0,7.113,7.113A7.122,7.122,0,0,0,56.9,37.6Zm0,12.194a5.081,5.081,0,1,1,5.081-5.081A5.086,5.086,0,0,1,56.9,49.79Z"/>
        <path id="Trazado_125624" data-name="Trazado 125624" d="M5.081,43.694h6.1v2.032h-6.1Z"/>
        <path id="Trazado_125625" data-name="Trazado 125625" d="M15.242,44.71a7.113,7.113,0,1,0-7.113,7.113A7.122,7.122,0,0,0,15.242,44.71ZM8.129,49.79A5.081,5.081,0,1,1,13.21,44.71,5.086,5.086,0,0,1,8.129,49.79Z"/>
      </g>
    </g>
  </g>
</svg>
