<svg xmlns="http://www.w3.org/2000/svg" xmlns:xlink="http://www.w3.org/1999/xlink" width="63" height="63" viewBox="0 0 63 63">
  <defs>
    <clipPath id="clip-path">
      <rect id="Rectángulo_35434" data-name="Rectángulo 35434" width="63" height="63" transform="translate(-1994 -8536)" fill="#b0c0d2" stroke="#707070" stroke-width="1"/>
    </clipPath>
  </defs>
  <g id="Enmascarar_grupo_155" data-name="Enmascarar grupo 155" transform="translate(1994 8536)" clip-path="url(#clip-path)">
    <g id="ciudadania" transform="translate(-1994 -8536)">
      <g id="Grupo_90783" data-name="Grupo 90783">
        <path id="Trazado_125900" data-name="Trazado 125900" d="M48.664,17.392,45.587,16.27a1.62,1.62,0,0,1-1.051-1.31l-.234-3a4.98,4.98,0,0,1-5.446,0l-.234,2.994a1.617,1.617,0,0,1-1.053,1.31l-3.075,1.121c-.95.345-2.375.969-2.375.969.219.347.52.761.429.637l.076.106,6.719,9.3c1.1,1.524,11.163-9.262,11.163-9.262.167-.2.538-.781.537-.78s-1.427-.624-2.378-.97Z" fill="#ffd0c6"/>
      </g>
      <g id="Grupo_90784" data-name="Grupo 90784">
        <path id="Trazado_125901" data-name="Trazado 125901" d="M30.478,11.085a11.243,11.243,0,0,0,1.64,7.276s1.424-.624,2.375-.969l3.075-1.121a1.617,1.617,0,0,0,1.053-1.31l.234-2.994a4.98,4.98,0,0,0,5.446,0l.234,3a1.62,1.62,0,0,0,1.051,1.31l3.077,1.121c.951.346,2.378.97,2.378.97a11.18,11.18,0,1,0-20.507-7.7c-.007,0-.061.453-.057.421Z" fill="#eaf0f0"/>
      </g>
      <g id="Grupo_90785" data-name="Grupo 90785">
        <path id="Trazado_125902" data-name="Trazado 125902" d="M54.848,25.854l-5.427,5.435a4.242,4.242,0,0,0-1.24,3v3.643a4.242,4.242,0,0,1-1.24,3L39.5,48.376a4.232,4.232,0,0,1-5.986,0L30.2,45.26a4.287,4.287,0,0,1,0-5.994,4.245,4.245,0,0,0,1.239-3V29.317a4.235,4.235,0,0,0-4.232-4.238,4.229,4.229,0,0,1-2.993-1.242l-5.575-5.583a4.237,4.237,0,0,1-1.24-3V14.9A25.531,25.531,0,1,0,54.848,25.854Z" fill="#80b4ff"/>
      </g>
      <g id="Grupo_90786" data-name="Grupo 90786">
        <path id="Trazado_125903" data-name="Trazado 125903" d="M20.8,41.736v8.856a2.9,2.9,0,0,1-.849,2.054l-1.6,1.606A2.9,2.9,0,0,0,17.5,56.3v1.28A25.617,25.617,0,0,1,6.544,30.795l7.18,7.188a2.9,2.9,0,0,0,2.051.85H17.9a2.9,2.9,0,0,1,2.9,2.9Z" fill="#a0e4a5"/>
      </g>
      <g id="Grupo_90787" data-name="Grupo 90787">
        <path id="Trazado_125904" data-name="Trazado 125904" d="M41.578,12.776A4.979,4.979,0,0,1,36.6,7.8V6.21a4.979,4.979,0,0,1,9.959,0V7.8A4.979,4.979,0,0,1,41.578,12.776Z" fill="#ffd0c6"/>
      </g>
      <g id="Grupo_90788" data-name="Grupo 90788">
        <path id="Trazado_125905" data-name="Trazado 125905" d="M18.642,18.255l5.575,5.583a4.229,4.229,0,0,0,2.993,1.242,4.235,4.235,0,0,1,4.232,4.238V36.27a4.245,4.245,0,0,1-1.239,3,4.287,4.287,0,0,0,0,5.994l3.313,3.115a4.232,4.232,0,0,0,5.986,0l7.439-7.449a4.242,4.242,0,0,0,1.24-3V34.286a4.242,4.242,0,0,1,1.24-3l5.427-5.435a25.584,25.584,0,0,0-4.343-6.711l-6.7,9.274a2.747,2.747,0,0,1-4.454,0L32.623,19.1a11.645,11.645,0,0,1-1.98-4.366,11.513,11.513,0,0,1-.108-4.073,26.139,26.139,0,0,0-9.28,2.126A25.479,25.479,0,0,0,17.4,14.9v.363a4.237,4.237,0,0,0,1.24,3Z" fill="#a0e4a5"/>
      </g>
      <g id="Grupo_90789" data-name="Grupo 90789">
        <path id="Trazado_125906" data-name="Trazado 125906" d="M48.668,17.391l-2.111-.769s-2.273,2.725-4.977,2.725S36.6,16.624,36.6,16.624l-2.106.767c-.95.346-2.374.97-2.374.97.183.293.427.632.444.657L39.342,28.4a2.79,2.79,0,0,0,4.477,0l6.718-9.3.06-.085c.017-.025.261-.364.444-.657,0,0-1.424-.624-2.374-.97Z" fill="#868eaf"/>
      </g>
      <g id="Grupo_90790" data-name="Grupo 90790">
        <path id="Trazado_125907" data-name="Trazado 125907" d="M55.983,25.377l-.009-.022a26.427,26.427,0,0,0-3.914-6.3l.019-.03,0,0A12.41,12.41,0,0,0,41.579,0h-.007A12.409,12.409,0,0,0,29.516,9.5,27.037,27.037,0,0,0,4.739,36.209,27.034,27.034,0,0,0,31.5,63a26.727,26.727,0,0,0,13.391-3.592,1.231,1.231,0,0,0-1.234-2.129A24.26,24.26,0,0,1,18.726,56.9V56.3a1.683,1.683,0,0,1,.489-1.183l1.6-1.605a4.107,4.107,0,0,0,1.209-2.924V41.736A4.136,4.136,0,0,0,17.9,37.6H15.775a1.656,1.656,0,0,1-1.181-.489l-6.7-6.7a24.291,24.291,0,0,1,8.582-13.329,5.492,5.492,0,0,0,1.291,2.043l5.575,5.583a5.424,5.424,0,0,0,3.863,1.6,3.008,3.008,0,0,1,3,3.007V36.27a2.993,2.993,0,0,1-.879,2.126,5.514,5.514,0,0,0,.027,7.76l3.3,3.1a5.52,5.52,0,0,0,7.713-.015L47.811,41.8a5.437,5.437,0,0,0,1.6-3.867V34.285a2.992,2.992,0,0,1,.881-2.128L54.4,28.045a24.4,24.4,0,0,1-3.2,22.409,1.23,1.23,0,1,0,1.995,1.441,26.845,26.845,0,0,0,2.788-26.517ZM12.853,38.852a4.1,4.1,0,0,0,2.922,1.212H17.9a1.672,1.672,0,0,1,1.669,1.672v8.856a1.663,1.663,0,0,1-.489,1.184l-1.6,1.605A4.156,4.156,0,0,0,16.4,55.258a24.537,24.537,0,0,1-9.035-21.9ZM41.578,2.461A3.753,3.753,0,0,1,45.327,6.21V7.8a3.749,3.749,0,0,1-7.5,0V6.21a3.753,3.753,0,0,1,3.742-3.749h.007Zm.99,25.5a1.551,1.551,0,0,1-2.229-.273L34,18.9c.749-.3,1.51-.572,2.268-.849a8.237,8.237,0,0,0,5.315,2.522,8.217,8.217,0,0,0,5.309-2.522s1.955.721,2.27.85L42.807,27.7a1.543,1.543,0,0,1-.238.26ZM40.3,13.873a6.3,6.3,0,0,0,2.91-.084l.1,1.267a2.831,2.831,0,0,0,1.06,1.924,4.871,4.871,0,0,1-2.789,1.135,4.962,4.962,0,0,1-2.792-1.136,2.823,2.823,0,0,0,1.059-1.923l.1-1.266.353.083ZM51.527,12.41A9.925,9.925,0,0,1,50.509,16.8c-.453-.188-4.5-1.683-4.5-1.683a.388.388,0,0,1-.248-.294l-.178-2.281A6.2,6.2,0,0,0,47.788,7.8V6.21a6.187,6.187,0,0,0-.258-1.768A9.94,9.94,0,0,1,51.527,12.41ZM35.083,4.874c.176-.152.358-.3.544-.434a6.186,6.186,0,0,0-.258,1.769V7.8a6.2,6.2,0,0,0,2.208,4.743L37.4,14.822a.386.386,0,0,1-.251.293s-4.36,1.626-4.487,1.679A9.918,9.918,0,0,1,35.083,4.874ZM46.95,34.286v3.643a2.993,2.993,0,0,1-.881,2.128l-7.439,7.449a3.045,3.045,0,0,1-4.273-.026l-3.1-2.917a3.049,3.049,0,0,1-.183-4.427,5.439,5.439,0,0,0,1.6-3.865V29.317a5.471,5.471,0,0,0-5.462-5.468,2.978,2.978,0,0,1-2.122-.881l-5.575-5.583a3.014,3.014,0,0,1-.866-1.828,24.487,24.487,0,0,1,10.529-3.563,12.811,12.811,0,0,0,2.45,7.829l6.727,9.314a4.018,4.018,0,0,0,6.464-.013l5.765-7.981a24.3,24.3,0,0,1,2.789,4.449l-4.819,4.826A5.437,5.437,0,0,0,46.95,34.286Z"/>
        <path id="Trazado_125908" data-name="Trazado 125908" d="M49.8,54.661a1.23,1.23,0,1,0-.522,1.536A1.239,1.239,0,0,0,49.8,54.661Z"/>
      </g>
    </g>
  </g>
</svg>
