<svg id="altura" xmlns="http://www.w3.org/2000/svg" width="47.818" height="54" viewBox="0 0 47.818 54">
  <g id="Grupo_93441" data-name="Grupo 93441" transform="translate(0 0)">
    <g id="Grupo_93440" data-name="Grupo 93440" transform="translate(33.624 0.791)">
      <path id="Trazado_127234" data-name="Trazado 127234" d="M332.212,8.555V58.863a1.055,1.055,0,0,1-1.055,1.055H319.864a1.055,1.055,0,0,1-1.055-1.055V8.555A1.055,1.055,0,0,1,319.864,7.5h11.294A1.055,1.055,0,0,1,332.212,8.555Z" transform="translate(-318.809 -7.5)" fill="#fcb44d"/>
      <g id="Grupo_93439" data-name="Grupo 93439">
        <path id="Trazado_127235" data-name="Trazado 127235" d="M327.848,140.38a2.219,2.219,0,0,1-4,1.32l-5.035,1.04v-4.294h5.727a2.22,2.22,0,0,1,3.312,1.933Z" transform="translate(-318.809 -124.379)" fill="#fca62f"/>
        <path id="Trazado_127236" data-name="Trazado 127236" d="M404.633,8.555V58.863a1.055,1.055,0,0,1-1.055,1.055h-3.81a1.055,1.055,0,0,0,1.055-1.055V8.555A1.055,1.055,0,0,0,399.769,7.5h3.81A1.055,1.055,0,0,1,404.633,8.555Z" transform="translate(-391.23 -7.5)" fill="#fca62f"/>
      </g>
    </g>
    <path id="Trazado_127237" data-name="Trazado 127237" d="M113.663,244.475a28.023,28.023,0,0,0-.238,3.716c0,7.879,2.085,19.622,2.688,22.857a1.043,1.043,0,0,0,1.026.852h4.52a1.043,1.043,0,0,0,1.026-.852c.6-3.235,2.688-14.977,2.688-22.857a28.04,28.04,0,0,0-.237-3.716Z" transform="translate(-101.462 -218.691)" fill="#b5dbfd"/>
    <path id="Trazado_127238" data-name="Trazado 127238" d="M125.136,244.472H113.663a28.066,28.066,0,0,0-.238,3.717c0,1.049.036,2.166.1,3.322a2.072,2.072,0,0,0,1.427.566h5.565a1.664,1.664,0,0,1,1.66,1.8c-.584,6.989-1.95,14.653-2.419,17.169a1.044,1.044,0,0,1-1.026.852h2.925a1.045,1.045,0,0,0,1.026-.852c.6-3.235,2.687-14.978,2.687-22.857a28.08,28.08,0,0,0-.237-3.717Z" transform="translate(-101.462 -218.688)" fill="#8dcafc"/>
    <path id="Trazado_127239" data-name="Trazado 127239" d="M135.611,478.183c.14.8.26,1.452.348,1.924a1.043,1.043,0,0,0,1.026.852h4.52a1.043,1.043,0,0,0,1.026-.852c.088-.472.208-1.127.348-1.924Z" transform="translate(-121.308 -427.75)" fill="#ffeee7"/>
    <path id="Trazado_127240" data-name="Trazado 127240" d="M78.778,85.155V81.324H74.363v3.831l-3.253.973a4.47,4.47,0,0,0-2.915,2.743l-1.906,5.2a2.923,2.923,0,0,0,.7,3.1l3.646,3.557-.079.733a2.082,2.082,0,0,0,2.07,2.306h8.94a2.083,2.083,0,0,0,2.07-2.311l-1.094-9.925L99.578,88.01V85.155h-20.8Z" transform="translate(-59.137 -72.747)" fill="#fb4a59"/>
    <path id="Trazado_127241" data-name="Trazado 127241" d="M77.71,170.947,76.528,180.9l-3.646-3.556a2.646,2.646,0,0,1-.188-.2C76.754,175.668,77.68,171.1,77.71,170.947Z" transform="translate(-65.028 -152.917)" fill="#f82f40"/>
    <path id="Trazado_127242" data-name="Trazado 127242" d="M185.193,177.482h-3.241a2.082,2.082,0,0,0,2.07-2.311s-.085-8.91,1.984-11.439l.164,1.513,1.094,9.925A2.083,2.083,0,0,1,185.193,177.482Z" transform="translate(-162.762 -146.464)" fill="#f82f40"/>
    <path id="Trazado_127243" data-name="Trazado 127243" fill="#fdb0a0"/>
    <path id="Trazado_127244" data-name="Trazado 127244" d="M135.273,41.006a3.54,3.54,0,0,1-3.54-3.54V36.458a2.79,2.79,0,0,1,2.79-2.79h1.5a2.79,2.79,0,0,1,2.79,2.79v1.008A3.54,3.54,0,0,1,135.273,41.006Z" transform="translate(-117.839 -30.117)" fill="#fdb0a0"/>
    <path id="Trazado_127245" data-name="Trazado 127245" d="M176.646,12.894a2.717,2.717,0,0,1-.816,2.044c-2.04,0-2.829-.915-2.829-2.044a1.835,1.835,0,1,1,3.646,0Z" transform="translate(-154.754 -9.706)" fill="#ba5d4f"/>
    <path id="Trazado_127246" data-name="Trazado 127246" d="M118.77,7.945a4.963,4.963,0,0,0-2.207.692c-.414.227-.574.089-.694.015-.844-.523-.9,1.028-.71,1.737a3.219,3.219,0,0,0,3.41,2.328c1.8,0,3.267-1.068,3.267-2.386S120.574,7.945,118.77,7.945Z" transform="translate(-102.934 -7.107)" fill="#ba5d4f"/>
    <circle id="Elipse_4871" data-name="Elipse 4871" cx="2.198" cy="2.198" r="2.198" transform="translate(38.243 12.123)" fill="#fdb0a0"/>
  </g>
  <g id="Grupo_93442" data-name="Grupo 93442" transform="translate(6.182 0)">
    <path id="Trazado_127247" data-name="Trazado 127247" d="M98.408,0H87.116A1.848,1.848,0,0,0,85.27,1.846v9.771H80.845a.791.791,0,1,0,0,1.582h9.263a2.984,2.984,0,0,0-.128,1.855L76.537,17.832l-.07-.648a.791.791,0,1,0-1.573.17l.163,1.506s0,.006,0,.009l1.094,9.925a1.276,1.276,0,0,1-.322,1,1.3,1.3,0,0,1-.351.276V28.806a.791.791,0,0,0-1.582,0v1.421H72.6V28.806a.791.791,0,1,0-1.582,0v1.421H69.726V28.806a.791.791,0,0,0-1.582,0v1.421H66.85V28.806a.791.791,0,0,0-1.582,0v1.241a1.3,1.3,0,0,1-.3-.248,1.277,1.277,0,0,1-.323-1l.079-.729,1.271-10.706a.791.791,0,1,0-1.571-.187l-.469,3.954-.645-.6a.791.791,0,0,0-1.078,1.158l1.491,1.387-.382,3.218-2.5-2.436a2.135,2.135,0,0,1-.513-2.26l1.906-5.2a3.7,3.7,0,0,1,2.4-2.258l3.253-.973a.791.791,0,0,0,.564-.758V11.44a4.315,4.315,0,0,0,2.833,0v.967a.791.791,0,0,0,.791.791h5.034a.791.791,0,0,0,0-1.582H72.869V10.469A4.317,4.317,0,0,0,74.2,7.349V6.341a3.593,3.593,0,0,0-.055-.621,3.556,3.556,0,0,0,.973-2.532A2.734,2.734,0,0,0,72.505.353,2.476,2.476,0,0,0,70.957.9,4.337,4.337,0,0,0,68.272.047a5.718,5.718,0,0,0-2.565.778A1.187,1.187,0,0,0,64.4.867c-.814.6-.63,2.129-.5,2.617a3.7,3.7,0,0,0,1.688,2.285,3.6,3.6,0,0,0-.046.572V7.349a4.318,4.318,0,0,0,1.332,3.12v1.35l-2.689.8a5.285,5.285,0,0,0-3.431,3.229l-1.906,5.2a3.719,3.719,0,0,0,.894,3.937l3.371,3.288-.038.35a2.877,2.877,0,0,0,.551,2.023c.036,1.571.143,3.363.321,5.331a.791.791,0,0,0,.787.72c.024,0,.048,0,.072,0a.791.791,0,0,0,.717-.859c-.134-1.481-.227-2.859-.28-4.113a2.867,2.867,0,0,0,.688.085h3.654V49.642H67.4c-.441-2.55-1.033-6.248-1.5-10.115a.791.791,0,0,0-1.571.188c.665,5.571,1.6,10.8,1.971,12.787a1.835,1.835,0,0,0,1.8,1.5h4.52a1.835,1.835,0,0,0,1.8-1.5c.586-3.139,2.5-13.922,2.686-21.787a2.877,2.877,0,0,0,.6-2.094l-1.015-9.21,8.561-1.769v5.073a.791.791,0,1,0,1.582,0v-5.4l3.977-.822a2.988,2.988,0,1,0,.777-4.877H86.852V1.846a.264.264,0,0,1,.264-.264H98.409a.264.264,0,0,1,.264.264V3.606h-2.3a.791.791,0,0,0,0,1.582h2.3V7.735H97.427a.791.791,0,1,0,0,1.582h1.245v2.546H97.427a.791.791,0,1,0,0,1.582h1.245v2.546H97.427a.791.791,0,1,0,0,1.582h1.245v2.546h-2.3a.791.791,0,0,0,0,1.582h2.3v2.546H97.427a.791.791,0,1,0,0,1.582h1.245v2.546H97.427a.791.791,0,1,0,0,1.582h1.245V32.5H97.427a.791.791,0,1,0,0,1.582h1.245v2.546h-2.3a.791.791,0,0,0,0,1.582h2.3V40.76H97.427a.791.791,0,1,0,0,1.582h1.245v2.546H97.427a.791.791,0,1,0,0,1.582h1.245v2.546H97.427a.791.791,0,1,0,0,1.582h1.245v1.556a.264.264,0,0,1-.264.264H87.116a.264.264,0,0,1-.264-.264V26.449a.791.791,0,1,0-1.582,0V52.154A1.848,1.848,0,0,0,87.116,54H98.408a1.848,1.848,0,0,0,1.846-1.846V1.846A1.848,1.848,0,0,0,98.408,0ZM73.537,3.188a2.123,2.123,0,0,1-.368,1.242,2.621,2.621,0,0,1-1.2-.313,2.619,2.619,0,0,0,.157-.893,2.823,2.823,0,0,0-.207-1.065.909.909,0,0,1,.583-.223,1.16,1.16,0,0,1,1.032,1.253Zm-8.171-.78a1.442,1.442,0,0,0,1.08-.184,4.14,4.14,0,0,1,1.826-.595c1.3,0,2.275.686,2.275,1.6,0,.865-1.134,1.6-2.476,1.6A2.438,2.438,0,0,1,65.426,3.08a2.388,2.388,0,0,1-.06-.672ZM68.071,6.4a4.631,4.631,0,0,0,2.975-1,3.7,3.7,0,0,0,1.536.553,2.012,2.012,0,0,1,.037.383V7.349a2.749,2.749,0,1,1-5.5,0V6.341c0-.006,0-.011,0-.017a5.673,5.673,0,0,0,.949.078Zm3.093,25.408h3.7a2.865,2.865,0,0,0,.639-.073,154.165,154.165,0,0,1-2.164,17.906H71.164Zm-3.3,20.4c-.051-.271-.112-.6-.181-.988h1.9v1.194H68.113A.252.252,0,0,1,67.865,52.212Zm4.768.206H71.164V51.224h1.9c-.069.382-.13.715-.181.988A.252.252,0,0,1,72.633,52.418Zm21.651-38.1a1.407,1.407,0,1,1-1.407-1.407A1.408,1.408,0,0,1,94.284,14.321Z" transform="translate(-58.619 0)"/>
    <path id="Trazado_127248" data-name="Trazado 127248" d="M352.283,437.457v-1.733a.791.791,0,0,0-1.582,0v1.733a.791.791,0,0,0,1.582,0Z" transform="translate(-319.895 -389.061)"/>
    <path id="Trazado_127249" data-name="Trazado 127249" d="M377.535,378.132V369.4a.791.791,0,0,0-1.582,0v8.728a.791.791,0,0,0,1.582,0Z" transform="translate(-342.484 -329.736)"/>
    <path id="Trazado_127250" data-name="Trazado 127250" d="M159.224,151.977h-1.106a.791.791,0,1,0,0,1.582h1.106a.791.791,0,1,0,0-1.582Z" transform="translate(-146.916 -135.948)"/>
  </g>
</svg>
