<svg id="alegre" xmlns="http://www.w3.org/2000/svg" width="54" height="54" viewBox="0 0 54 54">
  <g id="Grupo_93458" data-name="Grupo 93458" transform="translate(0.871 0.871)">
    <g id="Grupo_93443" data-name="Grupo 93443" transform="translate(13.935)">
      <path id="Trazado_127251" data-name="Trazado 127251" d="M148.194,17.052a10.452,10.452,0,0,1-5.226,1.4,3.471,3.471,0,0,1-2.4-.959,5.95,5.95,0,0,0-1.083,3.423v1.02h-.871A2.614,2.614,0,0,0,136,24.548v-6.1A10.452,10.452,0,0,1,146.452,8h3.484a10.451,10.451,0,0,1,10.452,10.452v6.1a2.614,2.614,0,0,0-2.613-2.613H156.9v-1.02a5.948,5.948,0,0,0-1.742-4.206,8.712,8.712,0,0,1-6.968,3.484Z" transform="translate(-136 -8)" fill="#656d78"/>
    </g>
    <g id="Grupo_93444" data-name="Grupo 93444" transform="translate(10.243 29.38)">
      <path id="Trazado_127252" data-name="Trazado 127252" d="M109.257,286.8l-2.345,2.01-4.832-4.832,3.365-3.646a6.968,6.968,0,0,1,5.12-2.242h3.046a1.733,1.733,0,0,0,.871-.233v.233a3.484,3.484,0,1,0,6.968,0v-.233a1.733,1.733,0,0,0,.871.233h3.046a6.968,6.968,0,0,1,5.12,2.242l3.365,3.646-4.832,4.832-2.345-2.01v7.017h0a1.685,1.685,0,0,0-.412-.05h-1.33a1.741,1.741,0,0,0-1.742,1.742V299a1.741,1.741,0,0,0,1.742,1.742H111A1.741,1.741,0,0,0,112.741,299v-3.484A1.741,1.741,0,0,0,111,293.77h-1.33a1.685,1.685,0,0,0-.412.05h0Z" transform="translate(-102.08 -277.86)" fill="#fcd770"/>
    </g>
    <g id="Grupo_93445" data-name="Grupo 93445" transform="translate(5.226 35.501)">
      <path id="Trazado_127253" data-name="Trazado 127253" d="M62.7,341.613l3.754,3.128,1.374-.687a1.712,1.712,0,0,1,.368-.134,1.683,1.683,0,0,1,.412-.05h1.33a1.741,1.741,0,0,1,1.742,1.742V349.1a1.741,1.741,0,0,1-1.742,1.742H68.656a1.744,1.744,0,0,1-.864-.23l-9.533-5.447a4.485,4.485,0,0,1-1.07-6.934l3.828-4.147,4.832,4.832Z" transform="translate(-56 -334.08)" fill="#f0d0b4"/>
    </g>
    <g id="Grupo_93446" data-name="Grupo 93446" transform="translate(31.355 35.501)">
      <path id="Trazado_127254" data-name="Trazado 127254" d="M304.98,341.613l-3.151-2.7,4.832-4.832,3.828,4.147a4.484,4.484,0,0,1-1.07,6.934l-9.533,5.447a1.744,1.744,0,0,1-.864.23h-1.279A1.741,1.741,0,0,1,296,349.1v-3.484a1.741,1.741,0,0,1,1.742-1.742h1.33a1.683,1.683,0,0,1,.412.05,1.712,1.712,0,0,1,.368.134l1.374.687Z" transform="translate(-296 -334.08)" fill="#f0d0b4"/>
    </g>
    <g id="Grupo_93447" data-name="Grupo 93447" transform="translate(34.839 13.935)">
      <path id="Trazado_127255" data-name="Trazado 127255" d="M328.871,136a2.613,2.613,0,0,1,0,5.226H328V136Z" transform="translate(-328 -136)" fill="#f0d0b4"/>
    </g>
    <g id="Grupo_93448" data-name="Grupo 93448" transform="translate(17.419 8.71)">
      <path id="Trazado_127256" data-name="Trazado 127256" d="M185.419,98.452v1.68a7.1,7.1,0,0,1-6.1,7.03,1.741,1.741,0,0,0,.51,1.232,1.759,1.759,0,0,0,.361.277v.233a3.484,3.484,0,1,1-6.968,0v-.233a1.741,1.741,0,0,0,.871-1.509,7.1,7.1,0,0,1-6.1-7.03V92.206a5.95,5.95,0,0,1,1.083-3.423,3.471,3.471,0,0,0,2.4.959,10.452,10.452,0,0,0,5.226-1.4v3.142A8.712,8.712,0,0,0,183.677,88a5.948,5.948,0,0,1,1.742,4.206v6.246Z" transform="translate(-168 -88)" fill="#f0d0b4"/>
    </g>
    <g id="Grupo_93449" data-name="Grupo 93449" transform="translate(13.935 13.935)">
      <path id="Trazado_127257" data-name="Trazado 127257" d="M139.484,136v5.226h-.871a2.613,2.613,0,0,1,0-5.226Z" transform="translate(-136 -136)" fill="#f0d0b4"/>
    </g>
    <g id="Grupo_93450" data-name="Grupo 93450" transform="translate(0 15.677)">
      <path id="Trazado_127258" data-name="Trazado 127258" d="M16.71,153.742v1.742L8,157.226V152Z" transform="translate(-8 -152)" fill="#69d6f4"/>
    </g>
    <g id="Grupo_93451" data-name="Grupo 93451" transform="translate(3.484 22.645)">
      <path id="Trazado_127259" data-name="Trazado 127259" d="M48.71,216.871l-5.226,6.1L40,221.226,46.968,216Z" transform="translate(-40 -216)" fill="#69d6f4"/>
    </g>
    <g id="Grupo_93452" data-name="Grupo 93452" transform="translate(1.742 5.226)">
      <path id="Trazado_127260" data-name="Trazado 127260" d="M27.484,56l5.226,6.968-.871,1.742L24,58.613Z" transform="translate(-24 -56)" fill="#69d6f4"/>
    </g>
    <g id="Grupo_93453" data-name="Grupo 93453" transform="translate(43.548 15.677)">
      <path id="Trazado_127261" data-name="Trazado 127261" d="M416.71,152v5.226L408,155.484v-1.742Z" transform="translate(-408 -152)" fill="#69d6f4"/>
    </g>
    <g id="Grupo_93454" data-name="Grupo 93454" transform="translate(41.806 5.226)">
      <path id="Trazado_127262" data-name="Trazado 127262" d="M400.71,58.613l-7.839,6.1L392,62.968,397.226,56Z" transform="translate(-392 -56)" fill="#69d6f4"/>
    </g>
    <g id="Grupo_93455" data-name="Grupo 93455" transform="translate(40.064 22.645)">
      <path id="Trazado_127263" data-name="Trazado 127263" d="M384.71,221.226l-3.484,1.742-5.226-6.1,1.742-.871Z" transform="translate(-376 -216)" fill="#69d6f4"/>
    </g>
    <g id="Grupo_93456" data-name="Grupo 93456" transform="translate(20.903 36.581)">
      <path id="Trazado_127264" data-name="Trazado 127264" d="M210.452,346.464a2.462,2.462,0,0,1-.722,1.742l-4.5,4.5-4.5-4.5a2.463,2.463,0,1,1,3.484-3.484l1.02,1.02,1.02-1.02a2.464,2.464,0,0,1,4.206,1.742Z" transform="translate(-200 -344)" fill="#ff826e"/>
    </g>
    <g id="Grupo_93457" data-name="Grupo 93457" transform="translate(20.903 19.161)">
      <path id="Trazado_127265" data-name="Trazado 127265" d="M200,184h10.452A5.226,5.226,0,0,1,200,184Z" transform="translate(-200 -184)" fill="#ff826e"/>
    </g>
  </g>
  <g id="Grupo_93459" data-name="Grupo 93459" transform="translate(0 0)">
    <path id="Trazado_127266" data-name="Trazado 127266" d="M257.742,130.613a.871.871,0,1,1,1.742,0v.871h1.742v-.871a2.613,2.613,0,1,0-5.226,0v.871h1.742Z" transform="translate(-228.129 -114.065)"/>
    <path id="Trazado_127267" data-name="Trazado 127267" d="M193.742,130.613a.871.871,0,1,1,1.742,0v.871h1.742v-.871a2.613,2.613,0,1,0-5.226,0v.871h1.742Z" transform="translate(-171.097 -114.065)"/>
    <path id="Trazado_127268" data-name="Trazado 127268" d="M204.194,176.871V176H192v.871a6.1,6.1,0,1,0,12.194,0Zm-10.364.871h8.535a4.355,4.355,0,0,1-8.535,0Z" transform="translate(-171.097 -156.839)"/>
    <path id="Trazado_127269" data-name="Trazado 127269" d="M198.1,346.812l5.12-5.12a3.334,3.334,0,1,0-4.716-4.716l-.4.4-.4-.4a3.334,3.334,0,1,0-4.716,4.716Zm-2.762-9.07a1.582,1.582,0,0,1,1.126.466l1.636,1.636,1.636-1.636a1.592,1.592,0,0,1,2.252,2.252l-3.888,3.889-3.888-3.888a1.593,1.593,0,0,1,1.126-2.719Z" transform="translate(-171.097 -299.419)"/>
    <path id="Trazado_127270" data-name="Trazado 127270" d="M82.935,32.135a7.861,7.861,0,0,0-5.76-2.522H74.129a.868.868,0,0,1-.586-.227,7.972,7.972,0,0,0,5.812-7.674V20.9a3.488,3.488,0,0,0,3.484-3.484v-6.1A11.335,11.335,0,0,0,71.516,0H68.032A11.335,11.335,0,0,0,56.71,11.323v6.1A3.488,3.488,0,0,0,60.194,20.9v.809a7.972,7.972,0,0,0,5.812,7.674.868.868,0,0,1-.586.227H62.373a7.861,7.861,0,0,0-5.76,2.522L49.42,39.928A5.354,5.354,0,0,0,50.7,48.208l9.533,5.447a2.618,2.618,0,0,0,1.3.344H78.021a2.617,2.617,0,0,0,1.3-.344l9.533-5.447a5.355,5.355,0,0,0,1.278-8.281Zm-3.58-12.973V15.677a1.742,1.742,0,1,1,0,3.484ZM68.032,1.742h3.484A9.592,9.592,0,0,1,81.1,11.323V14.4a3.461,3.461,0,0,0-1.742-.469v-.149a6.773,6.773,0,0,0-2-4.821l-.71-.71-.6.8a7.883,7.883,0,0,1-5.4,3.086V10.41q.357-.227.7-.481l.7-.523L70.994,8.013l-.7.523a9.639,9.639,0,0,1-5.748,1.916,2.616,2.616,0,0,1-2.613-2.613.871.871,0,1,1,1.742,0V8.71h1.742V7.839a2.613,2.613,0,0,0-5.226,0,4.332,4.332,0,0,0,.872,2.612,6.778,6.778,0,0,0-.872,3.336v.149a3.461,3.461,0,0,0-1.742.469V11.323a9.592,9.592,0,0,1,9.581-9.581ZM58.452,17.419a1.744,1.744,0,0,1,1.742-1.742v3.484A1.744,1.744,0,0,1,58.452,17.419Zm3.484,4.293V13.786a5.05,5.05,0,0,1,.479-2.153,4.327,4.327,0,0,0,2.134.561,11.372,11.372,0,0,0,4.355-.876v2.618h.871a9.635,9.635,0,0,0,6.963-3,5.04,5.04,0,0,1,.875,2.852v7.926a6.261,6.261,0,0,1-5.349,6.167l-.748.107v.755a2.607,2.607,0,0,0,.863,1.938,2.612,2.612,0,0,1-5.209,0,2.607,2.607,0,0,0,.863-1.938v-.755l-.748-.107a6.261,6.261,0,0,1-5.349-6.167Zm-4.042,11.6a6.114,6.114,0,0,1,4.48-1.962h3.046l.087,0a4.355,4.355,0,0,0,8.535,0l.087,0h3.046a6.114,6.114,0,0,1,4.48,1.962l2.8,3.031-3.67,3.67-1.428-1.224V34.839H77.613V45.29h-.871A2.616,2.616,0,0,0,74.129,47.9v3.484a2.6,2.6,0,0,0,.15.871H65.27a2.6,2.6,0,0,0,.15-.871V47.9a2.616,2.616,0,0,0-2.613-2.613h-.871V34.839H60.194v3.954l-1.428,1.224-3.67-3.67Zm21.461,7.771,3.275,2.808L80.106,46l-.751-.375Zm-19.161,0v4.536L59.443,46l-2.524-2.1Zm1.334,11.171a.872.872,0,0,1-.432-.115L51.562,46.7a3.612,3.612,0,0,1-.862-5.587l3.213-3.481,3.526,3.526-1.878,1.61-.907-.755-1.115,1.338L59.2,48.066l1.884-.942a.876.876,0,0,1,.39-.092h1.331a.872.872,0,0,1,.871.871v3.484a.872.872,0,0,1-.871.871H61.527ZM87.986,46.7l-9.533,5.447a.873.873,0,0,1-.432.115H76.742a.872.872,0,0,1-.871-.871V47.9a.872.872,0,0,1,.871-.871h1.331a.876.876,0,0,1,.39.092l1.884.942,5.663-4.719-1.115-1.338-.907.755-1.878-1.61,3.526-3.526,3.213,3.481a3.613,3.613,0,0,1-.862,5.587Z" transform="translate(-42.774 0)"/>
    <path id="Trazado_127271" data-name="Trazado 127271" d="M10.452,144.331,0,142.241v7.351l10.452-2.09ZM8.71,146.073l-6.968,1.394v-3.1l6.968,1.394Z" transform="translate(0 -126.755)"/>
    <path id="Trazado_127272" data-name="Trazado 127272" d="M36.591,208.245l-3.221-1.611-8.526,6.394L30.2,215.7Zm-8.447,4.486,5.41-4.057.263.131-4.057,4.733Z" transform="translate(-22.139 -184.138)"/>
    <path id="Trazado_127273" data-name="Trazado 127273" d="M21.985,52.9l-6.071-8.1-5.093,3.82L20.4,56.069Zm-2.195.494-6.1-4.744,1.875-1.406,4.38,5.84Z" transform="translate(-9.643 -39.923)"/>
    <path id="Trazado_127274" data-name="Trazado 127274" d="M400,144.331v3.17l10.452,2.09v-7.351Zm8.71,3.136-6.968-1.394v-.314l6.968-1.394Z" transform="translate(-356.452 -126.755)"/>
    <path id="Trazado_127275" data-name="Trazado 127275" d="M363.258,208.245l6.394,7.46L375,213.028l-8.526-6.394Zm6.832,5.294-4.057-4.733.263-.131,5.41,4.057Z" transform="translate(-323.71 -184.138)"/>
    <path id="Trazado_127276" data-name="Trazado 127276" d="M393.8,48.62,388.7,44.8l-6.071,8.1,1.587,3.174Zm-4.745-1.381,1.875,1.406-6.1,4.744-.155-.31Z" transform="translate(-340.975 -39.923)"/>
  </g>
</svg>
