<svg xmlns="http://www.w3.org/2000/svg" xmlns:xlink="http://www.w3.org/1999/xlink" width="56" height="56" viewBox="0 0 56 56">
  <defs>
    <clipPath id="clip-path">
      <rect id="Rectángulo_35799" data-name="Rectángulo 35799" width="56" height="56" transform="translate(495 5880)" fill="#fff" stroke="#707070" stroke-width="1"/>
    </clipPath>
  </defs>
  <g id="_69" data-name="69" transform="translate(-495 -5880)" clip-path="url(#clip-path)">
    <g id="bolsa-de-dinero" transform="translate(494.157 5879.216)">
      <g id="Grupo_93469" data-name="Grupo 93469">
        <g id="Grupo_93460" data-name="Grupo 93460">
          <path id="Trazado_127277" data-name="Trazado 127277" d="M32.232,5.66l2.92,8.761h-2.7L27.04,9.013a3.065,3.065,0,0,1,2.686-3.038l2.5-.315Z" fill="#d3a06c"/>
        </g>
        <g id="Grupo_93461" data-name="Grupo 93461">
          <path id="Trazado_127278" data-name="Trazado 127278" d="M44.165,2.7l-.9,2.929-2.7,8.788H35.152L32.232,5.66l-.685-2.055,4.507-.9,1.8,2.7L40.56,1.8Z" fill="#d3a06c"/>
        </g>
        <g id="Grupo_93462" data-name="Grupo 93462">
          <path id="Trazado_127279" data-name="Trazado 127279" d="M48.672,9.013l-5.408,5.408h-2.7l2.7-8.788,2.722.343A3.065,3.065,0,0,1,48.672,9.013Z" fill="#d3a06c"/>
        </g>
        <g id="Grupo_93463" data-name="Grupo 93463">
          <path id="Trazado_127280" data-name="Trazado 127280" d="M45.067,14.421a1.808,1.808,0,0,1,1.8,1.8,1.816,1.816,0,0,1-1.8,1.8H30.645a1.808,1.808,0,0,1-1.8-1.8,1.816,1.816,0,0,1,1.8-1.8H45.067Z" fill="#ccd1d9"/>
        </g>
        <g id="Grupo_93464" data-name="Grupo 93464">
          <path id="Trazado_127281" data-name="Trazado 127281" d="M36.053,45.067V37.856H20.01a17.378,17.378,0,0,1-.18-2.488A16.926,16.926,0,0,1,27.59,21.145l4.858-3.119H43.264l4.858,3.119a16.911,16.911,0,0,1-9.149,31.132H36.738c-.234,0-.46-.009-.685-.018Z" fill="#cf9e76"/>
        </g>
        <g id="Grupo_93465" data-name="Grupo 93465">
          <path id="Trazado_127282" data-name="Trazado 127282" d="M36.053,52.259v3.623H15.323a9.013,9.013,0,0,0,0-18.027H36.053v14.4Z" fill="#b4dd7f"/>
        </g>
        <g id="Grupo_93466" data-name="Grupo 93466">
          <circle id="Elipse_4872" data-name="Elipse 4872" cx="9.013" cy="9.013" r="9.013" transform="translate(6.309 37.856)" fill="#fcd770"/>
        </g>
        <g id="Grupo_93467" data-name="Grupo 93467">
          <path id="Trazado_127283" data-name="Trazado 127283" d="M10.816,37.856h4.507a9.013,9.013,0,0,0,0,18.027H5.408A3.6,3.6,0,0,1,1.8,52.277V34.251a3.6,3.6,0,0,0,3.605,3.605Z" fill="#b4dd7f"/>
        </g>
        <g id="Grupo_93468" data-name="Grupo 93468">
          <path id="Trazado_127284" data-name="Trazado 127284" d="M10.816,30.645v7.211H5.408a3.605,3.605,0,1,1,0-7.211Z" fill="#a0d468"/>
        </g>
      </g>
      <g id="Grupo_93470" data-name="Grupo 93470">
        <path id="Trazado_127285" data-name="Trazado 127285" d="M22.535,35.138l1.8.028a12.563,12.563,0,0,1,.141-1.684L22.7,33.212A14.369,14.369,0,0,0,22.535,35.138Z"/>
        <path id="Trazado_127286" data-name="Trazado 127286" d="M29.056,23.421a14.186,14.186,0,0,0-5.927,7.861l1.727.516a12.385,12.385,0,0,1,5.175-6.86l1.149-.738-.974-1.516Z"/>
        <path id="Trazado_127287" data-name="Trazado 127287" d="M53.177,35.135l-1.8.033,0,.2a12.41,12.41,0,0,1-.082,1.429L53.085,37a14.359,14.359,0,0,0,.094-1.634Z"/>
        <path id="Trazado_127288" data-name="Trazado 127288" d="M42.973,47.11l.582,1.706A14.189,14.189,0,0,0,52.7,39.025l-1.742-.465a12.388,12.388,0,0,1-7.986,8.55Z"/>
        <path id="Trazado_127289" data-name="Trazado 127289" d="M48.605,20.389,46.039,18.74a2.691,2.691,0,0,0-.634-5.185l4.168-4.168V9.013A3.97,3.97,0,0,0,46.1,5.08l-1.659-.207.865-2.811L40.2.784,37.9,3.849,36.468,1.7l-6.1,1.22L31.028,4.9l-1.418.177a3.97,3.97,0,0,0-3.472,3.933v.373l4.168,4.168a2.691,2.691,0,0,0-.634,5.185l-2.566,1.649a17.733,17.733,0,0,0-8.179,14.98c0,.529.032,1.058.078,1.585H11.717V29.744H5.408A4.512,4.512,0,0,0,.9,34.251V52.277a4.512,4.512,0,0,0,4.507,4.507H36.955V53.179h2.02a17.809,17.809,0,0,0,9.631-32.79ZM45.877,6.868a2.167,2.167,0,0,1,1.866,1.8L42.891,13.52h-1.11l2.123-6.9ZM35.639,3.706l2.175,3.261,3.11-4.146,2.1.525L39.895,13.52H35.8L32.725,4.289Zm-5.8,3.162,1.775-.222L33.9,13.52h-1.08L27.969,8.667a2.167,2.167,0,0,1,1.866-1.8Zm.81,8.455H45.067a.9.9,0,1,1,0,1.8H30.645a.9.9,0,0,1,0-1.8ZM5.408,31.547H9.915v5.408H5.408a2.7,2.7,0,0,1,0-5.408Zm0,23.435a2.707,2.707,0,0,1-2.7-2.7V37.854a4.483,4.483,0,0,0,2.7.9H9.64a9.891,9.891,0,0,0,0,16.224Zm9.915-16.224a8.112,8.112,0,1,1-8.112,8.112A8.121,8.121,0,0,1,15.323,38.757ZM35.152,54.981H21.006a9.891,9.891,0,0,0,0-16.224H35.152Zm1.8-16.606a4.462,4.462,0,0,0,1.8.382,2.7,2.7,0,1,1,0,5.408h-1.8Zm2.02,13h-2.02V45.968h1.8a4.507,4.507,0,0,0,0-9.013,2.7,2.7,0,0,1,0-5.408h2.7v2.7h1.8V29.744H39.659v-1.8h-1.8v1.894a4.514,4.514,0,0,0-3.605,4.416,4.46,4.46,0,0,0,.925,2.7H20.818c-.051-.526-.087-1.055-.087-1.585a15.942,15.942,0,0,1,7.35-13.464l4.631-2.977H43l4.631,2.977a16.007,16.007,0,0,1-8.656,29.471Z"/>
        <path id="Trazado_127290" data-name="Trazado 127290" d="M14.421,53.179h1.8v-1.8a2.7,2.7,0,0,0,0-5.408h-1.8a.9.9,0,0,1,0-1.8h2.7v.9h1.8v-2.7h-2.7v-1.8h-1.8v1.8a2.7,2.7,0,1,0,0,5.408h1.8a.9.9,0,0,1,0,1.8h-2.7v-.9h-1.8v2.7h2.7Z"/>
        <path id="Trazado_127291" data-name="Trazado 127291" d="M31.547,45.067h1.8V40.56H28.843v1.8h2.7Z"/>
        <path id="Trazado_127292" data-name="Trazado 127292" d="M33.349,48.672h-1.8v2.7h-2.7v1.8h4.507Z"/>
      </g>
    </g>
  </g>
</svg>
