<svg xmlns="http://www.w3.org/2000/svg" xmlns:xlink="http://www.w3.org/1999/xlink" width="56" height="56" viewBox="0 0 56 56">
  <defs>
    <clipPath id="clip-path">
      <rect id="Rectángulo_35801" data-name="Rectángulo 35801" width="56" height="56" transform="translate(495 5956)" fill="#fff" stroke="#707070" stroke-width="1"/>
    </clipPath>
  </defs>
  <g id="_71" data-name="71" transform="translate(-495 -5956)" clip-path="url(#clip-path)">
    <g id="FILLED_OUTLINE" data-name="FILLED OUTLINE" transform="translate(493.579 5954.376)">
      <path id="Trazado_127309" data-name="Trazado 127309" d="M53.178,14.579,42.753,18.588,32.576,22.111A1.858,1.858,0,0,1,30.9,21.6l-1.156-1.156-2.788.929-.929-3.718,2.788-.929.635-2.836a1.857,1.857,0,0,1,1.176-1.176l2.764-.921,7.507-2.5,9.389-3.13A1.86,1.86,0,0,1,52.635,7.34l1.639,4.917a1.86,1.86,0,0,1-1.1,2.322Z" fill="#004699"/>
      <path id="Trazado_127310" data-name="Trazado 127310" d="M40.27,13.594l-3.931,1.474a1.858,1.858,0,0,1-2.456-1.29l-.5-1.982,7.507-2.5.527,2.109a1.859,1.859,0,0,1-1.151,2.191Z" fill="#00a4ff"/>
      <path id="Trazado_127311" data-name="Trazado 127311" d="M42.485,40.571l-2.677.82L32.242,43.71A11.14,11.14,0,0,0,27.192,36.7l-3.138-1.918,12.235-2.8.092-.022a1.858,1.858,0,0,0,1.336-2.184L35.62,20a1.858,1.858,0,0,1,.986-2.052l.512-.257a1.858,1.858,0,0,1,2.594,1.075.8.8,0,0,0,1.007.5l2.033-.677,3.506,15.425a5.577,5.577,0,0,1-3.775,6.558Z" fill="#f9b7b7"/>
      <path id="Trazado_127312" data-name="Trazado 127312" d="M27.192,36.7,15.8,29.741l-.132.132a18.588,18.588,0,0,0-5.444,13.144V57.624H32.53V46.22A11.153,11.153,0,0,0,27.192,36.7Z" fill="#68a341"/>
      <path id="Trazado_127313" data-name="Trazado 127313" d="M15.8,50.189h9.294v7.435H15.8Z" fill="#f9b7b7"/>
      <path id="Trazado_127314" data-name="Trazado 127314" d="M14.871,41.824H26.024v8.365H14.871Z" fill="#7ab753"/>
      <path id="Trazado_127315" data-name="Trazado 127315" d="M11.708,5.408A9.294,9.294,0,0,0,4.673,16.386l.186.883a13.941,13.941,0,0,0,9.234,10.354l1.476.492-2.556-7.668.457-.152a2.783,2.783,0,0,0-.88-5.424h-.506l-.044-.222A4.647,4.647,0,0,1,15.55,9.209l3.363-.776A5.577,5.577,0,0,0,23.235,3V2.788Z" fill="#9e694c"/>
      <path id="Trazado_127316" data-name="Trazado 127316" d="M28.812,16.73l-2.788.929,1.3,4.568a1.858,1.858,0,0,1-1.422,2.333l-1.775.356a.928.928,0,0,0-.732,1.077l1.717,9.443-9.281-5.673-2.823-9.315.457-.152a2.784,2.784,0,0,0-.879-5.424h-.507l-.044-.222A4.646,4.646,0,0,1,15.55,9.209l3.362-.776A5.573,5.573,0,0,0,22.4,5.939l1.768,7.073L28.812,15.8Z" fill="#f9b7b7"/>
      <g id="Grupo_93472" data-name="Grupo 93472">
        <path id="Trazado_127317" data-name="Trazado 127317" d="M52.047,25.094v-.367a1.859,1.859,0,0,0-.312-1.031l-1.547-2.32L48.642,23.7a1.859,1.859,0,0,0-.312,1.031v.367a1.859,1.859,0,1,0,3.718,0Z" fill="#36c6ff"/>
        <path id="Trazado_127318" data-name="Trazado 127318" d="M53.594,39.5l-1.547-2.32L50.5,39.5a1.859,1.859,0,0,0-.312,1.031v.367a1.859,1.859,0,0,0,3.718,0v-.367a1.859,1.859,0,0,0-.312-1.031Z" fill="#36c6ff"/>
        <path id="Trazado_127319" data-name="Trazado 127319" d="M43.683,49.259l-1.547,2.32a1.859,1.859,0,0,0-.312,1.031v.367a1.859,1.859,0,0,0,3.718,0V52.61a1.859,1.859,0,0,0-.312-1.031Z" fill="#36c6ff"/>
      </g>
      <path id="Trazado_127320" data-name="Trazado 127320" d="M19.4,12.541h2.077V14.4H19.4Z" transform="translate(-3.868 10.567) rotate(-26.565)" fill="#575757"/>
      <path id="Trazado_127321" data-name="Trazado 127321" d="M39.808,41.392,32.241,43.71A11.14,11.14,0,0,0,27.192,36.7l-3.138-1.918,12.235-2.8.092-.022Z" fill="#7ab753"/>
      <path id="Trazado_127322" data-name="Trazado 127322" d="M19.4,12.541h2.077V14.4H19.4Z" transform="translate(-3.868 10.567) rotate(-26.565)"/>
      <path id="Trazado_127323" data-name="Trazado 127323" d="M25.094,49.259H15.8V41.824H13.941v9.294h.929v6.506H16.73V51.118h7.435v6.506h1.859V51.118h.929V41.824H25.094Z"/>
      <path id="Trazado_127324" data-name="Trazado 127324" d="M52.047,35.5l-2.32,3.48a2.779,2.779,0,0,0-.468,1.547v.367a2.788,2.788,0,0,0,5.577,0v-.367a2.779,2.779,0,0,0-.468-1.547Zm.929,5.393a.929.929,0,1,1-1.859,0v-.367a.927.927,0,0,1,.156-.516l.773-1.16.773,1.16a.927.927,0,0,1,.156.516Z"/>
      <path id="Trazado_127325" data-name="Trazado 127325" d="M43.683,47.584l-2.32,3.48a2.779,2.779,0,0,0-.468,1.547v.367a2.788,2.788,0,1,0,5.577,0V52.61A2.779,2.779,0,0,0,46,51.064Zm.929,5.393a.929.929,0,0,1-1.859,0V52.61a.927.927,0,0,1,.156-.516l.773-1.16.773,1.16a.927.927,0,0,1,.156.516Z"/>
      <path id="Trazado_127326" data-name="Trazado 127326" d="M52.977,25.094v-.367a2.779,2.779,0,0,0-.468-1.547l-2.32-3.48-2.32,3.48a2.779,2.779,0,0,0-.468,1.547v.367a2.788,2.788,0,0,0,5.577,0Zm-3.718,0v-.367a.927.927,0,0,1,.156-.516l.773-1.16.773,1.16a.927.927,0,0,1,.156.516v.367a.929.929,0,1,1-1.859,0Z"/>
      <path id="Trazado_127327" data-name="Trazado 127327" d="M43.838,19.167l9.674-3.721a2.784,2.784,0,0,0,1.644-3.484L53.517,7.046A2.788,2.788,0,0,0,49.99,5.283L30.329,11.836A2.8,2.8,0,0,0,28.566,13.6l-.269.807-3.323-1.994L23.392,6.088A6.514,6.514,0,0,0,24.165,3V1.624L11.5,4.5A10.224,10.224,0,0,0,3.763,16.577l.186.883A14.923,14.923,0,0,0,13.8,28.5l.734.245.22.732A19.383,19.383,0,0,0,9.294,43.017V57.624h1.859V43.017a17.534,17.534,0,0,1,4.794-12.1L26.708,37.5A10.286,10.286,0,0,1,31.6,46.22v11.4h1.859V46.22a11.891,11.891,0,0,0-.14-1.81l9.443-2.951a6.506,6.506,0,0,0,4.4-7.652Zm-3.6-8.674.284,1.135a.929.929,0,0,1-.575,1.1L36.013,14.2a.929.929,0,0,1-1.228-.645L34.5,12.406ZM29.741,17.4V15.951l.588-1.763a.934.934,0,0,1,.588-.588l1.812-.6L32.982,14a2.789,2.789,0,0,0,3.684,1.935L40.6,14.464a2.787,2.787,0,0,0,1.726-3.287L42,9.9l8.573-2.858a.93.93,0,0,1,1.176.588l1.639,4.916a.928.928,0,0,1-.548,1.161l-10.406,4-1.889.63A2.788,2.788,0,0,0,36.7,16.857l-.513.256a2.788,2.788,0,0,0-1.479,3.078l.112.522-2.429.486a.928.928,0,0,1-.84-.254l-1.562-1.562-2.291.764-.54-1.888ZM13.875,26.559a13.061,13.061,0,0,1-8.107-9.481l-.186-.883a8.365,8.365,0,0,1,6.331-9.88L22.2,3.976a4.623,4.623,0,0,1-3.5,3.552L15.341,8.3a5.55,5.55,0,0,0-4.214,6.527l.194.969h1.268a1.854,1.854,0,0,1,.586,3.613l-1.313.437Zm8.609-.4,1.345,7.4-7.242-4.426-2.434-8.113a3.713,3.713,0,0,0-1.272-7.068,3.7,3.7,0,0,1,2.877-3.838l3.363-.776a6.514,6.514,0,0,0,2.81-1.426l1.424,5.7,4.24,2.544-2.711.9,1.55,5.424a.929.929,0,0,1-.711,1.167L23.949,24a1.868,1.868,0,0,0-1.464,2.155Zm1.829-.332,1.775-.355a2.788,2.788,0,0,0,2.134-3.5l-.01-.035,1.278-.426.749.749a2.784,2.784,0,0,0,2.518.763l2.454-.491,1.6,7.446a.931.931,0,0,1-.714,1.1L25.675,33.314ZM32.893,42.6a12.153,12.153,0,0,0-5.216-6.685l-1.363-.833,9.471-2.029,2.822,7.762Zm9.314-2.911-1.824.57-2.846-7.827a2.784,2.784,0,0,0,1.088-2.839l-2.1-9.786a.929.929,0,0,1,.493-1.026l.513-.256a.929.929,0,0,1,1.3.537,1.727,1.727,0,0,0,2.182,1.091l1.06-.353,3.278,14.425a4.671,4.671,0,0,1-3.145,5.465Z"/>
    </g>
  </g>
</svg>
