<svg xmlns="http://www.w3.org/2000/svg" width="210.548" height="192.444" viewBox="0 0 210.548 192.444">
  <g id="Grupo_93280" data-name="Grupo 93280" transform="translate(-61.795 -172.916)">
    <ellipse id="Elipse_4855" data-name="Elipse 4855" cx="41.274" cy="6.661" rx="41.274" ry="6.661" transform="translate(189.795 352.038)" fill="#ffe16c"/>
    <ellipse id="Elipse_4856" data-name="Elipse 4856" cx="49.774" cy="7.661" rx="49.774" ry="7.661" transform="translate(61.795 347.038)" fill="#ffe16c"/>
    <g id="Grupo_93270" data-name="Grupo 93270" transform="translate(188.555 172.916)">
      <g id="Grupo_93263" data-name="Grupo 93263" transform="translate(54.884 177.935)">
        <path id="Trazado_126584" data-name="Trazado 126584" d="M416.061,420.271c-.514-.928-1.95-1.348-2.9-1.533-1.524-.3-3.713-.738-5.241-1.015-2.517-.455-4.6-.439-6.99-1.37a.069.069,0,0,0-.079.015,6.162,6.162,0,0,0-1.873-.5c-.194-.051-.388.193-.265.352a19.365,19.365,0,0,0-.261,3.666c0,1.009.312,1.578,1.343,1.721a19.022,19.022,0,0,0,3.759.019c1.266.036,2.541,0,3.806-.061,1.088.025,5.214-.234,6.09-.24s2.038.08,2.6-.675A.372.372,0,0,0,416.061,420.271Z" transform="translate(-398.456 -415.863)" fill="#859249"/>
        <path id="Trazado_126585" data-name="Trazado 126585" d="M413.329,422.52c-2.321,0-4.635.053-6.953.1a53.246,53.246,0,0,1-6.444-.021c-.484-.064-1.176-.057-1.432-.614a1.323,1.323,0,0,0,1.312,1.263,19.024,19.024,0,0,0,3.759.019c1.266.036,2.541,0,3.806-.061,1.088.025,5.214-.234,6.09-.24s2.038.08,2.6-.675a.259.259,0,0,0,.048-.132A5.927,5.927,0,0,1,413.329,422.52Z" transform="translate(-398.467 -417.5)" fill="#616e34"/>
      </g>
      <g id="Grupo_93264" data-name="Grupo 93264" transform="translate(14.285 177.544)">
        <path id="Trazado_126586" data-name="Trazado 126586" d="M359.518,417.5c-.026-1.692-1.263-2.071-2.742-2.073-.552,0-1.765-.294-2.232.154a1.024,1.024,0,0,0-.18.929c-.053,1.454-1.4,1.556-2.689,1.811-1.15.227-2.341.453-3.5.626-1.608.239-4.232.418-5.035,2.1-.672,1.413,1.764,1.541,2.482,1.588,2.43.159,4.879-.052,7.312-.079a24.018,24.018,0,0,0,5.8-.649C360.23,421.509,359.534,418.538,359.518,417.5Z" transform="translate(-343.024 -415.329)" fill="#859249"/>
        <path id="Trazado_126587" data-name="Trazado 126587" d="M358.417,423.422c-1.263.281-5.269.617-5.952.653-1.909.1-3.786.212-5.7.168-.9-.019-2.98.181-3.625-.684a.841.841,0,0,1-.1-.155c-.141,1.085,1.926,1.2,2.578,1.241,2.43.159,4.879-.052,7.312-.079a24.018,24.018,0,0,0,5.8-.649,1.273,1.273,0,0,0,.864-1.077A2.044,2.044,0,0,1,358.417,423.422Z" transform="translate(-343.029 -417.339)" fill="#616e34"/>
      </g>
      <path id="Trazado_126588" data-name="Trazado 126588" d="M390.337,388.506a59.329,59.329,0,0,0-.866-8.264q-.713-4.667-1.422-9.333c-.924-6.134-1.579-12.3-2.44-18.445-.865-6.192-1.541-12.34-3.212-18.385-.843-3.043-1.478-6.139-2.357-9.171-.428-1.478-.895-2.94-1.3-4.424a11.848,11.848,0,0,0-1.083-3.272c-.007-.012-.018-.012-.027-.019a9.247,9.247,0,0,0-.451-1.021c-.669-1.279-2.008-1.786-3.228-2.384-3.065-1.507-6.915-1.687-10.273-1.439-3.02.225-6.444,2-7.791,4.827a7.226,7.226,0,0,0-.528,3.291,360.535,360.535,0,0,0-1.071,38.14c.039,3.011.379,6.031.576,9.033.213,3.3.316,6.592.7,9.876a85.87,85.87,0,0,0,1.433,9.6,12.038,12.038,0,0,1,.5,2.063.994.994,0,0,0,.421.779c1.186.516,2.6-.168,3.825.023a.453.453,0,0,0,.339-.086.392.392,0,0,0,.346-.562,10.616,10.616,0,0,1-.4-2.84c-.163-1.2-.237-2.433-.431-3.62a42.566,42.566,0,0,1-.288-4.361c-.071-1.246-.14-2.5-.222-3.743-.376-5.59-.987-11.255-.551-16.864.2-2.626.547-5.232.711-7.866.168-2.679.159-5.352.508-8.018.391-2.988.8-5.971,1.263-8.948a44.963,44.963,0,0,1,1.238-5.245c1.26.142,2.515.245,3.789.288s2.534.127,3.8.218c2.329,4.179,3.206,9.089,4.649,13.582a54.332,54.332,0,0,1,1.835,7.487c.457,2.717,1.274,5.367,1.756,8.083.934,5.24,2.432,10.35,3.414,15.579.489,2.591.967,5.188,1.463,7.777a43.844,43.844,0,0,1,1,7.489.475.475,0,0,0,.083.532c.338.364,1.058.242,1.524.3a10.483,10.483,0,0,0,2.093.027h.054a.43.43,0,0,0,.587-.172A.5.5,0,0,0,390.337,388.506Z" transform="translate(-331.734 -210.203)" fill="#a95f61"/>
      <path id="Trazado_126589" data-name="Trazado 126589" d="M362.984,413.345c-.034-.247-.061-.5-.089-.746-1.7.277-3.387.462-5.117.585.057.261.109.523.171.784a12.038,12.038,0,0,1,.5,2.063.994.994,0,0,0,.421.779c1.186.516,2.6-.168,3.825.023a.453.453,0,0,0,.339-.086.392.392,0,0,0,.346-.562A10.616,10.616,0,0,1,362.984,413.345Z" transform="translate(-332.687 -237.054)" fill="#a95f61" opacity="0.5" style="mix-blend-mode: multiply;isolation: isolate"/>
      <path id="Trazado_126590" data-name="Trazado 126590" d="M401.7,412.214a15.149,15.149,0,0,1-4.379.332,25.415,25.415,0,0,1,.178,2.536.475.475,0,0,0,.083.532c.338.364,1.058.242,1.524.3a10.483,10.483,0,0,0,2.093.027h.054a.43.43,0,0,0,.587-.172.5.5,0,0,0,.03-.518C401.859,414.233,401.8,413.222,401.7,412.214Z" transform="translate(-343.268 -236.951)" fill="#a95f61" opacity="0.5" style="mix-blend-mode: multiply;isolation: isolate"/>
      <path id="Trazado_126591" data-name="Trazado 126591" d="M355.521,322.666a19.264,19.264,0,0,0,4.983.879,49.133,49.133,0,0,0,7.312.136,43.969,43.969,0,0,0,11.524-2.325c-.084-.291-.176-.579-.254-.872A11.849,11.849,0,0,0,378,317.212c-.007-.012-.018-.012-.027-.019a9.247,9.247,0,0,0-.451-1.021c-.669-1.279-2.008-1.786-3.228-2.384-3.065-1.507-6.915-1.687-10.273-1.439-3.02.225-6.444,2-7.791,4.827a7.226,7.226,0,0,0-.528,3.291C355.635,321.2,355.582,321.934,355.521,322.666Z" transform="translate(-332.083 -210.203)" fill="#a95f61" opacity="0.5" style="mix-blend-mode: multiply;isolation: isolate"/>
      <path id="Trazado_126592" data-name="Trazado 126592" d="M389.581,389.447a22.8,22.8,0,0,0-.13-3.562c-.258-2.089-2.958-16.977-3.431-19.717-1.98-11.475-3.935-23.091-8.623-33.834-2.706.289-5.411.6-8.108.967.927.086,1.855.158,2.792.19,1.269.042,2.534.127,3.8.218,2.329,4.179,3.206,9.089,4.649,13.582a54.332,54.332,0,0,1,1.835,7.487c.457,2.717,1.274,5.367,1.756,8.083.934,5.24,2.432,10.35,3.414,15.579.489,2.591.967,5.188,1.463,7.777C389.2,387.282,389.407,388.361,389.581,389.447Z" transform="translate(-335.767 -215.576)" fill="#a95f61" opacity="0.5" style="mix-blend-mode: multiply;isolation: isolate"/>
      <path id="Trazado_126593" data-name="Trazado 126593" d="M402.448,415.347a10.172,10.172,0,0,1-.071-1.292c-.034-.47.033-.987-.547-1.112a5.9,5.9,0,0,0-1.756.03c-.394.049-.787.079-1.185.1-.3.013-.71.1-1.08.119-.774-.039-.721.379-.68.532a4.9,4.9,0,0,1,.116,1.435,4.714,4.714,0,0,0,.034.851.484.484,0,0,0,.365.431,7.453,7.453,0,0,0,1.9.021c.412,0,.833-.054,1.244-.08a11.962,11.962,0,0,0,1.29-.015.475.475,0,0,0,.416-.356A1.328,1.328,0,0,0,402.448,415.347Z" transform="translate(-343.212 -237.131)" fill="#a74655"/>
      <path id="Trazado_126594" data-name="Trazado 126594" d="M363.454,415.291a12.5,12.5,0,0,0-.126-1.679.457.457,0,0,0-.427-.33,10.65,10.65,0,0,0-2.336.214c-.978.135-1.991.216-2.976.3a.215.215,0,0,0-.155.1.485.485,0,0,0-.25.545c.139.627.259,1.274.4,1.908.106.47.111.922.655,1.052,1.616.382,3.3-.156,4.907-.163a.474.474,0,0,0,.453-.34A4.042,4.042,0,0,0,363.454,415.291Z" transform="translate(-332.524 -237.233)" fill="#a74655"/>
      <path id="Trazado_126595" data-name="Trazado 126595" d="M400.045,416.359a3.024,3.024,0,0,1-1.719-.873,3.427,3.427,0,0,1-.527-2.184c-.762-.034-.71.379-.669.532a4.9,4.9,0,0,1,.116,1.435,4.714,4.714,0,0,0,.034.851.484.484,0,0,0,.365.431,7.453,7.453,0,0,0,1.9.021c.412,0,.833-.054,1.244-.08.092-.007.182-.006.275,0A5.99,5.99,0,0,1,400.045,416.359Z" transform="translate(-343.212 -237.242)" fill="#a74655" opacity="0.2" style="mix-blend-mode: multiply;isolation: isolate"/>
      <path id="Trazado_126596" data-name="Trazado 126596" d="M363.745,415.293a12.5,12.5,0,0,0-.126-1.679.457.457,0,0,0-.427-.33,4.006,4.006,0,0,0-.47-.009,6.235,6.235,0,0,1,.4,2.435c-.065.831-.825,1.13-1.508,1.361a6.275,6.275,0,0,1-3.358.2.752.752,0,0,0,.272.123c1.616.382,3.3-.156,4.907-.163a.474.474,0,0,0,.453-.34A4.042,4.042,0,0,0,363.745,415.293Z" transform="translate(-332.815 -237.234)" fill="#a74655" opacity="0.2" style="mix-blend-mode: multiply;isolation: isolate"/>
      <path id="Trazado_126597" data-name="Trazado 126597" d="M419.063,251.021a8.153,8.153,0,0,0-2.8,2.791c.3-.937.53-1.9.778-2.837a19.951,19.951,0,0,0,.5-2.335c.048-.342.313-1.106.021-1.4-.877-.89-2.456,3.674-3.072,5.6-.157.248-.253.816-.532.956-.341.171.093-3.18.172-4.31.058-.781.322-2.29-.644-2.647-.9-.335-1.208,2.266-1.311,4.4-.109.6.018,2.3-.458,2.777-.218.219-.831-2.493-.946-3.256-.137-.9.068-3.188-1.276-3.342-1.808-.207-.061,7.459-.234,7.659s-.628-.09-1.133-.642c-.568-.623-1.714-1.89-2.709-1.315-.661.379-.237,1.049.115,1.5a8.349,8.349,0,0,0,.842.9,6.534,6.534,0,0,0,2.664,2.859,8.968,8.968,0,0,0,1.2.4c-1.13,2.356-2.032,4.827-3.247,7.15-1.258,2.409-2.673,4.791-3.843,7.257-.5-.685-1.091-1.324-1.613-1.98-.835-1.051-1.611-2.112-2.541-3.078a.366.366,0,0,0,0-.049.2.2,0,0,0-.339-.091,3.335,3.335,0,0,1-.461.271c-.288.184-.546.423-.814.63-.463.351-.93.684-1.4,1.024a.464.464,0,0,0-.138.155c-.013-.014-.028-.029-.043-.043-.114-.1-.31.028-.221.169a29.789,29.789,0,0,0,7.3,7.688c.806.6,1.679.976,2.1-.191.027-.081.052-.161.08-.242,1.757-2.573,2.818-5.722,4.094-8.519.775-1.7,1.62-3.369,2.46-5.039.773-1.533,1.334-3.135,1.99-4.7a2.853,2.853,0,0,0,2.637-1.092,7.036,7.036,0,0,0,1.272-2.945c.282-.271,1.676-1.753,2.042-2.241.281-.374.9-.987.9-1.5C420.471,250.5,419.634,250.682,419.063,251.021Z" transform="translate(-342.799 -192.689)" fill="#efcaa6"/>
      <path id="Trazado_126598" data-name="Trazado 126598" d="M342.4,267.819a2.053,2.053,0,0,1-.231-.5c-.16-.349-.327-.683-.461-1.044a2.841,2.841,0,0,0-.825-1.345.158.158,0,0,0-.24.048s-.01,0-.013.005c-1.244,1.312-2.374,2.675-3.5,4.083-.419.519-.88,1.029-1.338,1.545-.114-.388-.233-.776-.347-1.164-.334-1.13-.5-2.339-.934-3.436-.461-1.156-.648-2.467-1.027-3.658-.316-1-.525-2.023-.783-3.037a5.867,5.867,0,0,0,.975-.462,15.048,15.048,0,0,0,1.885-1.549,6.628,6.628,0,0,0,1.682-1.666c.415-.885-.03-1.344-.948-1.135a7.161,7.161,0,0,0-2,1.1c-.594.375-1,.008-.138-2.188.445-1.138,1.3-2.879.863-4.138a.321.321,0,0,0-.226-.23c-.909-.161-1.374,1.109-1.683,1.748a12.275,12.275,0,0,0-1.139,3.969c-.03-.059-.056-.119-.081-.179a20.967,20.967,0,0,0-.252-3.6c-.116-.762-.294-2.175-1.264-2.248-.6-.048-.728,1.436-.775,1.787a15.146,15.146,0,0,0,.363,4.443.385.385,0,0,1-.083,0c-.322-.789-.683-1.567-1.047-2.3-.382-.768-1.14-2.331-2.167-2.361a.332.332,0,0,0-.288.161c-.36.589.027,1.5.2,2.1a12.045,12.045,0,0,0,1.556,3.257l.008.009c0,.021,0,.042,0,.062a19.46,19.46,0,0,0-2.325-1.6c-.441-.258-1.712-1.06-2.2-.539a.334.334,0,0,0-.089.33,6.984,6.984,0,0,0,3.2,3.057,7.632,7.632,0,0,1,.634,1.57,1.676,1.676,0,0,0,.9.853,3.41,3.41,0,0,0,1.2.223c.072.68.252,1.368.384,2.01a44.908,44.908,0,0,0,1.286,4.533c.433,1.383.833,2.779,1.27,4.162.327,1.041,1.273,4.188,1.482,4.616.547,1.123,1.817.213,2.411-.26a32.723,32.723,0,0,0,3.334-3.212,16.933,16.933,0,0,0,2.6-3.22A.361.361,0,0,0,342.4,267.819Z" transform="translate(-323.519 -193.206)" fill="#efcaa6"/>
      <path id="Trazado_126599" data-name="Trazado 126599" d="M397.477,280.482c.987-.99,1.979-1.979,2.963-2.974-.456-.573-.923-1.137-1.436-1.671a.365.365,0,0,0,0-.049.2.2,0,0,0-.339-.091,3.335,3.335,0,0,1-.461.271c-.288.184-.546.423-.814.63-.463.351-.93.684-1.4,1.024a.464.464,0,0,0-.138.155c-.013-.014-.028-.029-.043-.043-.114-.1-.31.028-.221.169A22.775,22.775,0,0,0,397.477,280.482Z" transform="translate(-342.799 -200.405)" fill="#efcaa6" opacity="0.7" style="mix-blend-mode: multiply;isolation: isolate"/>
      <path id="Trazado_126600" data-name="Trazado 126600" d="M346.419,276.287a11.692,11.692,0,0,0,1.434-1.961.361.361,0,0,0,.167-.607,2.053,2.053,0,0,1-.231-.5c-.16-.349-.327-.683-.461-1.044a2.84,2.84,0,0,0-.825-1.345.158.158,0,0,0-.24.048s-.01,0-.013.005c-.6.633-1.172,1.279-1.734,1.935C345.065,274,345.789,275.126,346.419,276.287Z" transform="translate(-329.138 -199.107)" fill="#efcaa6" opacity="0.7" style="mix-blend-mode: multiply;isolation: isolate"/>
      <path id="Trazado_126601" data-name="Trazado 126601" d="M384.862,268.189c-.933-1.2-1.858-2.388-2.866-3.533a23.56,23.56,0,0,0-6.648-5.638,18.294,18.294,0,0,0-4.522-1.287,14.613,14.613,0,0,0-3.653-.274,55.644,55.644,0,0,0-5.97-.4,12.99,12.99,0,0,0-5.434,1.31,26.967,26.967,0,0,0-5.585,3.54c-.9.7-1.782,1.408-2.648,2.147a11.423,11.423,0,0,0-2.455,2.22c-.328.55.065,1,.3,1.49.441.926,1.044,1.792,1.52,2.7.225.426,1.444,3.688,2.322,3.031a13.891,13.891,0,0,0,1.652-1.737c.729-.768,1.423-1.57,2.124-2.364.128-.144.264-.281.4-.421-.184.467-.36.938-.511,1.41a67.637,67.637,0,0,0-2.154,10.018c-1.031,6.421-2,12.8-1.717,19.316.059,1.331.3,2.655.343,3.981.027.832.97,1.209,1.608,1.479a27.768,27.768,0,0,0,9.406,1.9c4.808.237,15.063-.587,17.451-2.725.46-.412.454-1.35.5-1.906.107-1.211.061-2.434.059-3.648-.005-4.758.237-9.513.211-14.269-.012-2.637-.06-5.252-.183-7.886-.04-.865-.139-1.718-.258-2.565l.131.119c.716.658,2.58,2.431,2.785,2.213.871-.919,1.716-1.868,2.6-2.786.814-.849,2.353-1.866,2.687-3.05C386.562,269.84,385.267,268.707,384.862,268.189Z" transform="translate(-329.256 -195.431)" fill="#7fb6d2"/>
      <path id="Trazado_126602" data-name="Trazado 126602" d="M389.881,290.8c-.012-2.637-.06-5.252-.183-7.886-.037-.816-.129-1.618-.24-2.416-.027.6-.069,1.2-.111,1.791-.122,1.7-.723,24.82-1.457,27.63a6.1,6.1,0,0,1-.752,1.728,5.983,5.983,0,0,0,1.972-1.024c.46-.412.454-1.35.5-1.906.107-1.211.061-2.434.059-3.648C389.665,300.316,389.908,295.561,389.881,290.8Z" transform="translate(-340.543 -201.706)" fill="#7fb6d2" opacity="0.3" style="mix-blend-mode: multiply;isolation: isolate"/>
      <path id="Trazado_126603" data-name="Trazado 126603" d="M352.557,308.257a21.83,21.83,0,0,1-.563-5.717c-.026-.829-.008-1.644.029-2.455-.067-1.233-.045-2.476,0-3.7.082-2.593.245-5.186.393-7.777.287-5.057.689-10.178,2.407-14.982-.012,0-.026,0-.041,0-.153.4-.3.794-.428,1.193a67.637,67.637,0,0,0-2.154,10.018c-1.031,6.421-2,12.8-1.717,19.316.059,1.331.3,2.655.343,3.981.027.832.97,1.209,1.608,1.479.324.137.652.267.984.386A6.4,6.4,0,0,1,352.557,308.257Z" transform="translate(-330.72 -199.866)" fill="#7fb6d2" opacity="0.3" style="mix-blend-mode: multiply;isolation: isolate"/>
      <path id="Trazado_126604" data-name="Trazado 126604" d="M384.862,268.189c-.933-1.2-1.858-2.388-2.866-3.533a23.56,23.56,0,0,0-6.648-5.638,18.294,18.294,0,0,0-4.522-1.287,14.613,14.613,0,0,0-3.653-.274,55.644,55.644,0,0,0-5.97-.4,12.99,12.99,0,0,0-5.434,1.31,26.967,26.967,0,0,0-5.585,3.54c-.9.7-1.782,1.408-2.648,2.147a11.423,11.423,0,0,0-2.455,2.22c-.328.55.065,1,.3,1.49.441.926,1.044,1.792,1.52,2.7.225.426,1.444,3.688,2.322,3.031a13.891,13.891,0,0,0,1.652-1.737c.729-.768,1.423-1.57,2.124-2.364.068-.077.141-.151.213-.225.275-.256.275-.248.292-.248a11.319,11.319,0,0,1,2.9.483c1.123.285,2.279.439,3.414.675,2.657.555,5.277,1.274,7.933,1.83,2.539.533,5.094.955,7.637,1.454,1.089.215,2.787.861,2.767.716l.131.119c.716.658,2.58,2.431,2.785,2.213.871-.919,1.716-1.868,2.6-2.786.814-.849,2.353-1.866,2.687-3.05C386.562,269.84,385.267,268.707,384.862,268.189Z" transform="translate(-329.256 -195.431)" fill="#439dc8"/>
      <path id="Trazado_126605" data-name="Trazado 126605" d="M389.99,278.752c.037-.15.071-.3.1-.453-.042-.7-.195-1.4-.271-2.075a7.561,7.561,0,0,0-.562-2.2c-.022-.049-.094-.013-.082.034.334,1.5.324,3.062.551,4.574A1.006,1.006,0,0,1,389.99,278.752Z" transform="translate(-341.089 -199.965)" fill="#2986ba"/>
      <path id="Trazado_126606" data-name="Trazado 126606" d="M358.341,268.341a20.142,20.142,0,0,0-1.909,3.1c-.107.436-.009.413-.094.85.795-1.436,1.253-2.485,2.079-3.908C358.446,268.336,358.375,268.3,358.341,268.341Z" transform="translate(-332.301 -198.446)" fill="#2986ba"/>
      <path id="Trazado_126607" data-name="Trazado 126607" d="M353.674,272.263a.016.016,0,0,1,.007-.007,14.538,14.538,0,0,1,1.86-3.646c-.988.547-2,1.056-2.962,1.647a13,13,0,0,1-4.183,1.989,6.958,6.958,0,0,1-1.715.122c.235.393.47.787.68,1.189.225.426,1.444,3.688,2.322,3.031a13.9,13.9,0,0,0,1.652-1.737c.729-.768,1.423-1.57,2.124-2.364C353.529,272.41,353.6,272.336,353.674,272.263Z" transform="translate(-329.718 -198.524)" fill="#439dc8" opacity="0.4" style="mix-blend-mode: multiply;isolation: isolate"/>
      <path id="Trazado_126608" data-name="Trazado 126608" d="M394.65,277.936c-2.331-.428-4.084-2.329-5.445-4.248a15.964,15.964,0,0,1,.334,1.86,16.19,16.19,0,0,1,.463,2.99c.042.039.083.074.123.111.716.658,2.58,2.431,2.785,2.213.871-.919,1.716-1.868,2.6-2.786l.116-.112A3.262,3.262,0,0,1,394.65,277.936Z" transform="translate(-341.097 -199.882)" fill="#439dc8" opacity="0.4" style="mix-blend-mode: multiply;isolation: isolate"/>
      <path id="Trazado_126609" data-name="Trazado 126609" d="M365.985,260.725c.42,2.24,2.456,4.214,4.9,3.647,3.161-.737,4.064-3.865,4.434-6.819a15.425,15.425,0,0,0-2.546-.1,55.652,55.652,0,0,0-5.97-.4c-.26,0-.511.007-.762.025A12.453,12.453,0,0,0,365.985,260.725Z" transform="translate(-334.852 -195.431)" fill="#439dc8" opacity="0.4" style="mix-blend-mode: multiply;isolation: isolate"/>
      <path id="Trazado_126610" data-name="Trazado 126610" d="M373.424,252.755a.3.3,0,0,0-.543-.075,13.708,13.708,0,0,0-2.283.568c-.506.177-1.046.278-1.538.486a.13.13,0,0,0-.164.045.558.558,0,0,0-.028.051,2.289,2.289,0,0,0-.208.1.194.194,0,0,0,.031.343,12.646,12.646,0,0,0-.106,1.264c-.183,1.564-.561,3.565.306,4.984,1.271,2.082,3.992,1.263,4.742-.646C374.491,257.694,374.045,255,373.424,252.755Z" transform="translate(-335.514 -194.224)" fill="#efcaa6"/>
      <g id="Grupo_93269" data-name="Grupo 93269" transform="translate(10.792)">
        <g id="Grupo_93265" data-name="Grupo 93265" transform="translate(41.467 38.259)">
          <path id="Trazado_126611" data-name="Trazado 126611" d="M399.338,225.5c-1.528-1.016-2.6.442-3.391,1.612a.17.17,0,0,0-.024.144,6.5,6.5,0,0,0-.974,4.733c.209,1.545,1.11,2.375,2.646,1.915,1.852-.554,2.4-2.708,2.7-4.364C400.52,228.27,400.542,226.3,399.338,225.5Z" transform="translate(-394.872 -225.154)" fill="#efcaa6"/>
          <path id="Trazado_126612" data-name="Trazado 126612" d="M399.24,230.1c-.4-.621-1.228-.328-1.709.029a3.273,3.273,0,0,0-.677.712,1.855,1.855,0,0,0-.25.38,3.36,3.36,0,0,0-.07.4.081.081,0,0,0,.134.079c.086-.082.082-.114.144-.237a2.6,2.6,0,0,1,.494-.6,1.361,1.361,0,0,1,1.641-.469C399.124,230.492,399.361,230.291,399.24,230.1Z" transform="translate(-395.316 -226.382)" fill="#c39368"/>
        </g>
        <g id="Grupo_93266" data-name="Grupo 93266" transform="translate(4.417 36.814)">
          <path id="Trazado_126613" data-name="Trazado 126613" d="M348.941,227.868c-.042-1.085.1-2.648-.684-3.536a2.194,2.194,0,0,0-.564-.433c-.944-.934-2.427-1.115-3.105.418a6.412,6.412,0,0,0,1.7,6.455C348.455,232.367,349,229.481,348.941,227.868Z" transform="translate(-344.286 -223.181)" fill="#efcaa6"/>
          <path id="Trazado_126614" data-name="Trazado 126614" d="M348.066,227.072a1.276,1.276,0,0,0-1.728-.073c-.116.128-.054.41.156.386.484-.056.872-.218,1.295.137a2.481,2.481,0,0,1,.873,1.4.114.114,0,0,0,.22,0A2.305,2.305,0,0,0,348.066,227.072Z" transform="translate(-344.819 -224.121)" fill="#c39368"/>
        </g>
        <path id="Trazado_126615" data-name="Trazado 126615" d="M394.788,197.035a25.325,25.325,0,0,0-2.147-5.4,31.434,31.434,0,0,0-3.994-6.558,52.2,52.2,0,0,0-4.81-4.841,12.483,12.483,0,0,0-2.921-1.695c-.387-.182-.792-.376-1.208-.542a19.12,19.12,0,0,1,2.155-1.105c.291-.125-5.286-1.658-7.454-.678-.232-.292-.473-.572-.707-.843a11.159,11.159,0,0,0-3.773-2.442c.307.992.688,1.966,1.09,2.933a22.7,22.7,0,0,0-4.014-.405,31.013,31.013,0,0,0-5.377.579,39.5,39.5,0,0,0-6,1.513A20.611,20.611,0,0,0,350.7,180.2a34.445,34.445,0,0,0-7.43,6.986,34.974,34.974,0,0,0-3.124,4.525,16.46,16.46,0,0,0-1.891,3.8c-.063.247,1.708.108,2.3-.1a8.75,8.75,0,0,0-.918,1.817c-.137.483,2.184,3.444,2.753,4.419a62.085,62.085,0,0,1,3.4,6.452,52.15,52.15,0,0,1,2.18,7.476.239.239,0,0,0,.393.128.19.19,0,0,0,.138.169,12.907,12.907,0,0,0,3.039.125l4.183.1c2.952.074,5.9.05,8.855.059,2.647.007,5.294.09,7.936.094,1.284,0,2.562.083,3.846.09a7,7,0,0,0,2.9-.207.407.407,0,0,0,.193-.461.7.7,0,0,0-.264-.358c-.007-.006,1.047,1.236,1.039,1.231,1.882-3.529,2.749-8.547,5.423-11.513a53,53,0,0,1,4.555-4.47,29.382,29.382,0,0,1,2.645-2.022C393.418,198.149,394.835,197.214,394.788,197.035Z" transform="translate(-338.255 -172.916)" fill="#7b3906"/>
        <path id="Trazado_126616" data-name="Trazado 126616" d="M385.032,201.325c-.02-.049-.038-.1-.059-.144a14.99,14.99,0,0,1-1.741,2.446c-.119.064-.941-4.788-1.553-6.4-.439.32-5.352,5.3-5.864,5.68-.158.114,3.792-5.817,4.214-7.166a47.163,47.163,0,0,1-6.253,2.761c-1.527.648-12.092,4.988-13.388,4.847-.185-.02,8.8-8.578,9.167-9.745-1.879.766-14.591,9.331-16.838,9.935-.2.053,7.754-10.742,8.527-11.717a75.663,75.663,0,0,0-11.318,8.106,49.414,49.414,0,0,1-5.6,4.394,21.708,21.708,0,0,1,2.44,7.427c.226.467.448.934.655,1.408a52.149,52.149,0,0,1,2.18,7.476.239.239,0,0,0,.393.128.19.19,0,0,0,.138.169,12.908,12.908,0,0,0,3.039.125l4.183.1c2.952.074,5.9.05,8.855.059,2.647.007,5.294.09,7.936.094,1.284,0,2.562.083,3.846.09a7,7,0,0,0,2.9-.207.407.407,0,0,0,.193-.461.7.7,0,0,0-.264-.358c-.007-.006-.013-.006-.021-.011,1.761-.351,2.833-3.264,4.08-6.089.177-.883.432-1.754.662-2.626A32.249,32.249,0,0,1,387,207.132c.166-.387.341-.77.522-1.146C386.657,204.448,385.74,202.942,385.032,201.325Z" transform="translate(-339.88 -177.976)" fill="#d7711f" opacity="0.4" style="mix-blend-mode: multiply;isolation: isolate"/>
        <path id="Trazado_126617" data-name="Trazado 126617" d="M363.693,241.086a12.252,12.252,0,0,0,7.118-1.108,26.077,26.077,0,0,0,10.7-10.946,33.786,33.786,0,0,0,1.868-3.995c1.76-4.568,2.047-9.694,2.481-14.528.115-1.277.222-2.614.437-3.877a1.347,1.347,0,0,0,.015-.16c0-.13,0-.259,0-.389v-.023c-.259-.628-.514-1.258-.75-1.893-.009,0-.02,0-.029.01a6.723,6.723,0,0,0-.747.727c-.549.518-.529.656-.781-.139a30.079,30.079,0,0,0-1.519-3.852c-.1-.006-4.665,3.242-5.727,3.7a27.02,27.02,0,0,0,2.134-3.674,47.845,47.845,0,0,1-9.482,2.809c-2.542.41-5.122.621-7.681.933.007-.007.015-.012.023-.02a36.928,36.928,0,0,0,5.426-6.564c-2.558,1.274-5.161,2.393-7.68,3.765a43.121,43.121,0,0,0-5.722,3.391c.582-1.6,2.44-5.028,2.187-4.876-2.941,1.772-7.8,7.3-7.8,7.327-.13,2.577.333,5.233.362,7.821a69.722,69.722,0,0,0,.339,7.8,23.03,23.03,0,0,0,1.127,4.9,22.375,22.375,0,0,0,8.97,10.947A11.927,11.927,0,0,0,363.693,241.086Z" transform="translate(-340.899 -179.653)" fill="#f4d9bf"/>
        <path id="Trazado_126618" data-name="Trazado 126618" d="M378.582,214.921s.853-2.265,2.533-2.353a3.381,3.381,0,0,1,2.94,1.463C384.436,214.512,381.163,211.859,378.582,214.921Z" transform="translate(-349.046 -183.526)" fill="#cc6809"/>
        <path id="Trazado_126619" data-name="Trazado 126619" d="M363.3,215.751s-.854-2.265-2.534-2.353a3.385,3.385,0,0,0-2.939,1.463C357.445,215.341,360.719,212.688,363.3,215.751Z" transform="translate(-343.484 -183.748)" fill="#cc6809"/>
        <g id="Grupo_93267" data-name="Grupo 93267" transform="translate(29.63 35.437)">
          <path id="Trazado_126620" data-name="Trazado 126620" d="M380.722,223.573c.029,1.268-.4,2.3-.951,2.318s-1.028-1-1.058-2.272.4-2.3.951-2.318S380.692,222.305,380.722,223.573Z" transform="translate(-378.711 -221.301)" fill="#673121"/>
          <path id="Trazado_126621" data-name="Trazado 126621" d="M379.635,222.868c-.023.382-.177.686-.344.675s-.286-.328-.265-.713.177-.685.346-.675S379.656,222.483,379.635,222.868Z" transform="translate(-378.794 -221.529)" fill="#fff"/>
        </g>
        <g id="Grupo_93268" data-name="Grupo 93268" transform="translate(16.365 35.134)">
          <path id="Trazado_126622" data-name="Trazado 126622" d="M362.61,223.159c.03,1.268-.4,2.3-.951,2.317s-1.029-1-1.059-2.27.4-2.306.95-2.319S362.581,221.891,362.61,223.159Z" transform="translate(-360.599 -220.887)" fill="#673121"/>
          <path id="Trazado_126623" data-name="Trazado 126623" d="M361.523,222.453c-.024.384-.176.686-.344.677s-.286-.33-.264-.714.176-.686.345-.675S361.545,222.069,361.523,222.453Z" transform="translate(-360.683 -221.115)" fill="#fff"/>
        </g>
        <path id="Trazado_126624" data-name="Trazado 126624" d="M372.306,235.473c-1.209.312-4.547,1.645-4.68-.648-.086-1.468,1.351-2.98,1.871-4.279.029-.067-.076-.127-.122-.073a14.887,14.887,0,0,0-1.884,3.086,2.5,2.5,0,0,0-.2,2.287c1.126,1.755,3.751.681,5.1-.163A.115.115,0,0,0,372.306,235.473Z" transform="translate(-345.968 -188.313)" fill="#c39368"/>
        <path id="Trazado_126625" data-name="Trazado 126625" d="M373.412,244.8a1.125,1.125,0,0,0-.919.111.262.262,0,0,0,.2.478c.018,0,.121-.027.237-.048a5.149,5.149,0,0,1-2.738,2.556c-2.243.868-3.876.021-5.519-1.466-.062-.056-.175.018-.122.094a4.673,4.673,0,0,0,5.369,2.047,5.409,5.409,0,0,0,3.677-3.447A.268.268,0,0,0,373.412,244.8Z" transform="translate(-345.287 -192.138)" fill="#c39368"/>
      </g>
    </g>
    <g id="Grupo_93279" data-name="Grupo 93279" transform="translate(64.343 174.49)">
      <path id="Trazado_126626" data-name="Trazado 126626" d="M151.324,393.759a6.992,6.992,0,0,0-3.313.114.125.125,0,0,0-.158.067,18.572,18.572,0,0,0-.93,3.322,26.033,26.033,0,0,0-.822,3.76c-.026.356.472.409.6.119a4.526,4.526,0,0,0,.773.321,6.807,6.807,0,0,1,.78.365,3,3,0,0,1,.585.3.43.43,0,0,0,.709-.377,18.8,18.8,0,0,0,1.052-3.272,28.258,28.258,0,0,0,.806-3.989C151.675,394.324,151.717,393.829,151.324,393.759Z" transform="translate(-86.221 -233.548)" fill="#efcaa6"/>
      <path id="Trazado_126627" data-name="Trazado 126627" d="M95.8,390.991c-.053-.04-.224-.454-.305-.582-.18-.281-.435-.513-.625-.789a3.644,3.644,0,0,0-.629-.654,1.968,1.968,0,0,0-.663-.508.217.217,0,0,0-.275.206v.016a27.989,27.989,0,0,0-2.94,3.012,16.348,16.348,0,0,0-3.184,4.056.215.215,0,0,0,.293.291,5.628,5.628,0,0,0,.881.937c.372.354.622.84,1.1,1.066a.431.431,0,0,0,.613-.38,37.237,37.237,0,0,0,3.072-3.2c.861-.96,1.821-1.832,2.662-2.812l0-.005A.4.4,0,0,0,95.8,390.991Z" transform="translate(-70.449 -232.165)" fill="#efcaa6"/>
      <path id="Trazado_126628" data-name="Trazado 126628" d="M151.59,395.888c.09-.47.168-.94.212-1.394.266-.171.308-.666-.085-.735a6.992,6.992,0,0,0-3.313.114.125.125,0,0,0-.158.067,12.881,12.881,0,0,0-.68,2.213Q149.574,395.928,151.59,395.888Z" transform="translate(-86.613 -233.548)" fill="#efcaa6" opacity="0.7" style="mix-blend-mode: multiply;isolation: isolate"/>
      <path id="Trazado_126629" data-name="Trazado 126629" d="M150.261,401.542a3.992,3.992,0,0,1-3.127.11,2.2,2.2,0,0,1-.684-.538,11,11,0,0,0-.349,1.914c-.026.356.472.409.6.119a4.526,4.526,0,0,0,.773.321,6.807,6.807,0,0,1,.78.365,3,3,0,0,1,.585.3.43.43,0,0,0,.709-.377,14.929,14.929,0,0,0,.777-2.226A.656.656,0,0,0,150.261,401.542Z" transform="translate(-86.221 -235.554)" fill="#efcaa6" opacity="0.7" style="mix-blend-mode: multiply;isolation: isolate"/>
      <path id="Trazado_126630" data-name="Trazado 126630" d="M93.193,390.353a28.714,28.714,0,0,1,2.916,2.7c.447-.456.893-.914,1.309-1.4l0-.005a.4.4,0,0,0,0-.659c-.053-.04-.224-.454-.305-.582-.18-.281-.435-.513-.625-.789a3.644,3.644,0,0,0-.629-.654,1.968,1.968,0,0,0-.663-.508.217.217,0,0,0-.275.206v.016A15.9,15.9,0,0,0,93.193,390.353Z" transform="translate(-72.063 -232.165)" fill="#efcaa6" opacity="0.7" style="mix-blend-mode: multiply;isolation: isolate"/>
      <path id="Trazado_126631" data-name="Trazado 126631" d="M91.115,395.535a3.689,3.689,0,0,1-1.041-2.229,14.533,14.533,0,0,0-2.889,3.742.215.215,0,0,0,.293.291,5.627,5.627,0,0,0,.881.938c.372.354.622.84,1.1,1.066a.431.431,0,0,0,.613-.38,29.467,29.467,0,0,0,2.436-2.488A4.676,4.676,0,0,1,91.115,395.535Z" transform="translate(-70.449 -233.465)" fill="#efcaa6" opacity="0.7" style="mix-blend-mode: multiply;isolation: isolate"/>
      <path id="Trazado_126632" data-name="Trazado 126632" d="M147.331,313.252c-.256-.434-.527-.851-.809-1.258a47.858,47.858,0,0,1-8.5,5.837,59.1,59.1,0,0,1-19.565,5.946,78.168,78.168,0,0,1-21.539,0c-3.8-.548-8.387-1.147-11.795-3.324a10.729,10.729,0,0,0-.219,1.367c-.078,1.028-.173,2.047-.2,3.08a17.072,17.072,0,0,0,.916,5.588,20.807,20.807,0,0,0,5.385,9.027,23.676,23.676,0,0,0,9.444,5.345,9.427,9.427,0,0,0,1.156.234c.033,1.237-.1,2.515-.14,3.684-.22,6.335-4.27,12.985-8.84,17.209-.553.513-1.572,1.029-1.934,1.7-.525.973.964,1.954,1.529,2.619,1.14,1.336,2.317,2.634,3.507,3.926a.578.578,0,0,0,.929.026.328.328,0,0,0,.15-.1c2.257-2.8,4.879-5.3,7.189-8.07,2.981-3.572,6.1-7.162,8.24-11.328a18.665,18.665,0,0,0,1.47-4.27,26.728,26.728,0,0,0,.649-2.952c.138.011.275.018.415.03a19.421,19.421,0,0,0,4.251-.124,42.879,42.879,0,0,0,4.807-.686,30.138,30.138,0,0,0,7.76-2.7c1.734,6.876.8,15.093-1.028,21.877-.634,2.347-1.769,4.457-2.536,6.748a.421.421,0,0,0,.287.514c1.077.387,7.956-.13,8.04-.17a.385.385,0,0,0,.384-.281c.424-1.37,1.055-2.712,1.523-4.079a122.455,122.455,0,0,0,5.795-22.045,60.293,60.293,0,0,0,.587-6.138c.036-.865.091-1.752.1-2.636.084-.062.171-.121.254-.188,3.2-2.639,4.359-7.44,4.589-11.41a31,31,0,0,0-.078-6.66A18.4,18.4,0,0,0,147.331,313.252Z" transform="translate(-69.791 -211.706)" fill="#ce9570"/>
      <path id="Trazado_126633" data-name="Trazado 126633" d="M146.522,311.994a47.858,47.858,0,0,1-8.5,5.837,59.1,59.1,0,0,1-19.565,5.946,78.168,78.168,0,0,1-21.539,0c-3.8-.548-8.387-1.147-11.795-3.324a10.729,10.729,0,0,0-.219,1.367c-.078,1.028-.173,2.047-.2,3.08a17.072,17.072,0,0,0,.916,5.588,20.807,20.807,0,0,0,5.385,9.027,23.676,23.676,0,0,0,9.444,5.345,9.427,9.427,0,0,0,1.156.234c.033,1.237-.1,2.515-.14,3.684-.22,6.335-4.27,12.985-8.84,17.209-.553.513-1.572,1.029-1.934,1.7-.379.7.29,1.408.9,2,5.282-4.09,9.635-9.746,11.451-16.084a21.019,21.019,0,0,0,.9-6.223,7.6,7.6,0,0,0-1.6-4.233,10.058,10.058,0,0,1-2.116-7.157c.533-5.347,7.435-4.394,12.085-4.868a75.129,75.129,0,0,0,22.632-5.951,72.906,72.906,0,0,0,10.941-6.477c.923-.626,2.85-1.479,3.446-.042a17.923,17.923,0,0,0-2-5.391C147.074,312.819,146.8,312.4,146.522,311.994Z" transform="translate(-69.791 -211.706)" fill="#ce9570" opacity="0.5" style="mix-blend-mode: multiply;isolation: isolate"/>
      <path id="Trazado_126634" data-name="Trazado 126634" d="M141.093,354.745c1.734,6.876.8,15.093-1.028,21.877-.087.322-.184.637-.288.95a41.965,41.965,0,0,0,2.154-5.962,58.535,58.535,0,0,0,1.814-9.2c.393-3.445.616-7.093-.426-10.446-3.793.709-7.284,2.526-11.091,3.169-2.487.419-5.065.123-7.534.661a2.833,2.833,0,0,0-1.546.628c-.517.609-.428,1.693-.5,2.437a26.09,26.09,0,0,1-1.008,4.608c-.444,1.545-.888,3.1-1.429,4.615.546-.856,1.064-1.731,1.529-2.637a18.665,18.665,0,0,0,1.47-4.27,26.729,26.729,0,0,0,.649-2.952c.138.011.275.018.415.03a19.421,19.421,0,0,0,4.251-.124,42.879,42.879,0,0,0,4.807-.686A30.138,30.138,0,0,0,141.093,354.745Z" transform="translate(-79.294 -222.403)" fill="#ce9570" opacity="0.5" style="mix-blend-mode: multiply;isolation: isolate"/>
      <path id="Trazado_126635" data-name="Trazado 126635" d="M165.7,409.98a14.565,14.565,0,0,0-2.571-1.72c-1.282-.631-2.533-1.357-3.849-1.914s-2.6-1.224-3.978-1.652l-.15-.042-.544-.144a5.32,5.32,0,0,1-3.127-1.454,3.421,3.421,0,0,0-2.224-1.316,1.926,1.926,0,0,0-1.794,1.044c-.906.077-1.744-.261-1.671-1.444a.338.338,0,0,0-.246-.327c-.407-.107-.966.268-1.239.54-.738.729-.6,1.915-.813,2.885-.226,1.022-.322,2.079-.447,3.118-.089.733-.331,2.029.543,2.437,1.013.474,2.1.694,3.118,1.148a35.516,35.516,0,0,1,4.087,1.775,13.069,13.069,0,0,0,5.369,1.856c1.444.148,2.893.138,4.337.255a11.845,11.845,0,0,0,3.858-.292c.829-.208,2.218-.782,2.5-1.7a2.551,2.551,0,0,0-.35-2.006A5.391,5.391,0,0,0,165.7,409.98Z" transform="translate(-85.378 -235.522)" fill="#e9d301"/>
      <path id="Trazado_126636" data-name="Trazado 126636" d="M165.838,415a17,17,0,0,1-8.344.739c-5.369-.817-9.818-3.511-14.517-5.9-.092.739-.3,1.986.551,2.383,1.013.471,2.1.693,3.117,1.145a35.542,35.542,0,0,1,4.087,1.777A13.119,13.119,0,0,0,156.1,417c1.444.147,2.891.139,4.336.254a11.877,11.877,0,0,0,3.857-.289c.831-.209,2.218-.784,2.5-1.7a2.011,2.011,0,0,0,.042-.989A2.31,2.31,0,0,1,165.838,415Z" transform="translate(-85.36 -237.888)" fill="#e2a919"/>
      <path id="Trazado_126637" data-name="Trazado 126637" d="M94.116,406.568c-.719-2.14-1.863-4.224-2.306-6.44-.286-1.423,1.011-3.245-1.4-3.735a5.367,5.367,0,0,0-1.93.127,5.536,5.536,0,0,1-.087-1.515,6.42,6.42,0,0,1,.622-1.432c.075-.188-.107-.351-.275-.367a1.49,1.49,0,0,0-.546.026.8.8,0,0,0-.2-.013,13.414,13.414,0,0,0-1.827.937,17.586,17.586,0,0,0-1.848,1.394,3.046,3.046,0,0,0-1.377,3.005,52.323,52.323,0,0,0,.609,6.2c.561,3.217,1.616,6.687,3.874,9.143a11.555,11.555,0,0,0,2.521,1.962c1.369.844,3,1.545,4.471.443a3.079,3.079,0,0,0,1.178-2.452c.01-.1.017-.207.024-.311A26.587,26.587,0,0,0,94.116,406.568Z" transform="translate(-69.32 -233.435)" fill="#e9d301"/>
      <path id="Trazado_126638" data-name="Trazado 126638" d="M93.082,416.3c-2.807-.683-5.344-3.633-6.6-6.117a28.736,28.736,0,0,1-1.826-13.808c.03-.147.064-.294.1-.44-.146.116-.3.228-.436.352a3.046,3.046,0,0,0-1.377,3.005,52.324,52.324,0,0,0,.609,6.2c.561,3.217,1.616,6.687,3.874,9.143a11.556,11.556,0,0,0,2.521,1.962c1.369.844,3,1.545,4.471.443a2.6,2.6,0,0,0,1-1.459A2.476,2.476,0,0,1,93.082,416.3Z" transform="translate(-69.32 -234.168)" fill="#e2a919"/>
      <path id="Trazado_126639" data-name="Trazado 126639" d="M178.71,232.489c-.6,0-1.158.648-1.471,1.083-.516.716-1.14,1.378-1.668,2.092-.413-.265-.027-1.627.023-1.941.105-.642.212-1.286.291-1.931.035-.285.265-1.921-.581-1.636a.931.931,0,0,0-.527.572c-.267.5-.368,1.195-.576,1.7-.226.546-.432,1.091-.615,1.654-.093.286-.618,2.431-1.129.911-.668-1.99-.478-4.186-1.492-6.052a.6.6,0,0,0-.792-.282c-.464.266-.324,1.107-.312,1.51a13.041,13.041,0,0,0,.253,2.08c.012.205.026.411.048.612.055.5.144,1,.188,1.5.019.2.087,2.05-.366,1.477-.855-1.079-1.5-2.225-2.291-3.335-.373-.522-.827-1.119-1.457-1.147-.028-.015-.052-.036-.081-.049a.352.352,0,0,0-.355,0c-.04.029-.082.056-.124.083a.372.372,0,0,0-.165.4,3.283,3.283,0,0,0,.088.409,5.142,5.142,0,0,0,.768,1.831c.379.713.814,1.392,1.219,2.092a7.056,7.056,0,0,1,.992,1.964c-.258.955-.807.151-.952-.037-.234-.3-.461-.669-.721-.951-.453-.489-1.744-1.04-2.335-.436-.623.636.119,1.4.612,1.864a9.449,9.449,0,0,0,1.528,1.025,2.147,2.147,0,0,1,.38.31c.373.861.643,1.726,1.688,2a2.977,2.977,0,0,0,2.059-.283,14.188,14.188,0,0,0,.148,2.669c.179,1.473.19,2.954.286,4.436.1,1.452.107,2.892.1,4.345a9.012,9.012,0,0,1-.775,3.274,3.973,3.973,0,0,1-3.434.079,7.127,7.127,0,0,1-3.555-2c.007-.019.016-.037.023-.056.09-.252-.247-.412-.423-.25-.768.7-2.246,3.646-1.165,4.421a.355.355,0,0,0,.034.045,6.556,6.556,0,0,0,3.212,1.217,21.109,21.109,0,0,0,4.175.565,11.785,11.785,0,0,0,3.01-.274c.97-.26,1.273-.918,1.477-1.842a41.108,41.108,0,0,0,.617-9.371c-.011-1.457-.037-2.916-.14-4.37a23,23,0,0,0-.26-2.812,2.56,2.56,0,0,0,2.395-1.822,5.333,5.333,0,0,0-.052-2.128C176.369,236.785,180.1,232.5,178.71,232.489Z" transform="translate(-90.385 -189.388)" fill="#efcaa6"/>
      <path id="Trazado_126640" data-name="Trazado 126640" d="M165.52,269.075q.48-1.828,1-3.644a6.02,6.02,0,0,1-2.911-1.778c.007-.019.016-.037.023-.056.09-.252-.247-.412-.423-.25-.768.7-2.246,3.646-1.165,4.421a.357.357,0,0,0,.034.045,6.556,6.556,0,0,0,3.212,1.217Z" transform="translate(-90.385 -198.671)" fill="#efcaa6" opacity="0.7" style="mix-blend-mode: multiply;isolation: isolate"/>
      <path id="Trazado_126641" data-name="Trazado 126641" d="M146.8,295.114a45.336,45.336,0,0,0-1.811-4.6,90.7,90.7,0,0,0-4.523-9.21q-2.607-4.663-5.11-9.391c-.229-.431-.458-.865-.691-1.3,1.49.356,2.969.759,4.457,1.142.578.149.843-.565.967-.978.389-1.31.989-2.572,1.439-3.866.463-1.332,1.032-2.623,1.484-3.956.283-.832.838-1.492-.157-1.967a35.933,35.933,0,0,0-7.772-2.84c-11.9-2.624-27.076-1.813-38.366,3.1-4.6,2-9.3,5.206-12.156,9.406a12.883,12.883,0,0,0-1.8,3.031.359.359,0,0,0,.163.409c.951.475,2.062.7,3.051,1.117.332.141.665.273,1,.4-.3.5-.6,1-.886,1.505a54.11,54.11,0,0,0-2.5,5.2,52.961,52.961,0,0,0-3.313,9.989c-.723,3.305-.929,6.616-1.391,9.949-.1.693-.076,1.406-.167,2.1-.037.292-.171.972.026,1.241a3.86,3.86,0,0,0,1.066.868,43.462,43.462,0,0,0,17.741,7.1c7.6.971,16.489.06,23.907-1.718a60.52,60.52,0,0,0,14.466-5.649c1.233-.661,2.438-1.375,3.671-2.036a33.9,33.9,0,0,0,4.441-2.807,19.669,19.669,0,0,0,1.7-1.438,13.358,13.358,0,0,0,1.443-1.3C147.918,297.664,147.1,296.107,146.8,295.114Z" transform="translate(-68.169 -196.906)" fill="#fd7981"/>
      <path id="Trazado_126642" data-name="Trazado 126642" d="M96.934,281.462c.2-.264.4-.535.59-.808-2-.588-3.661-1.825-5.513-2.775-1.731-.888-3.636-1.409-5.316-2.383-.048.067-.1.13-.143.2-.156.226-.324.461-.494.7,1.665.635,3.321,1.3,4.918,2.092A50.894,50.894,0,0,0,96.934,281.462Z" transform="translate(-70.154 -201.939)" fill="#fff6b4"/>
      <path id="Trazado_126643" data-name="Trazado 126643" d="M88.419,281.243c.1.061.2.111.294.166a9.4,9.4,0,0,1,2.457,1.1,35.411,35.411,0,0,1,3.461,1.306,8.555,8.555,0,0,0,1.494-1.457,42.1,42.1,0,0,1-5.136-2.582,52.861,52.861,0,0,0-5.7-2.477,7.587,7.587,0,0,0-1.021,1.912.359.359,0,0,0,.163.409c.951.475,2.062.7,3.051,1.117.332.141.665.273,1,.4Z" transform="translate(-69.671 -202.421)" fill="#fff6b4"/>
      <path id="Trazado_126644" data-name="Trazado 126644" d="M137.647,317.164a55.068,55.068,0,0,1-19.736,6.825,62.27,62.27,0,0,1-21.478-.623,58.994,58.994,0,0,1-10.706-3,22.061,22.061,0,0,1-4.177-2.125c-.9-.612-1.726-1.314-2.572-1.994-.012.086-.021.17-.033.254-.048.35-.067.7-.086,1.058,1.8,1.772,4.389,2.778,6.666,3.7a61.967,61.967,0,0,0,8.948,3.1,57.229,57.229,0,0,0,21.821,1.044c6.907-1.08,14.262-3.056,20.3-6.659a77.86,77.86,0,0,0,7.306-4.925,24.846,24.846,0,0,0,3.439-3.045c-.091-.3-.2-.594-.294-.868A40.8,40.8,0,0,1,137.647,317.164Z" transform="translate(-68.228 -211.148)" fill="#fff6b4"/>
      <path id="Trazado_126645" data-name="Trazado 126645" d="M143.808,314.976a68.946,68.946,0,0,1-8.188,5.375,51.59,51.59,0,0,1-9.96,3.9,67.058,67.058,0,0,1-10.72,2.344,57.193,57.193,0,0,1-21.948-1.572,70.263,70.263,0,0,1-8.976-3.317,19.03,19.03,0,0,1-5.254-3.012c-.011.146-.023.29-.042.435-.037.292-.171.972.026,1.241a3.86,3.86,0,0,0,1.066.868,43.461,43.461,0,0,0,17.741,7.1c7.6.971,16.489.06,23.907-1.718a60.519,60.519,0,0,0,14.466-5.649c1.233-.661,2.438-1.375,3.671-2.036a33.9,33.9,0,0,0,4.441-2.807,19.663,19.663,0,0,0,1.7-1.438,13.358,13.358,0,0,0,1.443-1.3,1.861,1.861,0,0,0,.239-1.531A26.233,26.233,0,0,1,143.808,314.976Z" transform="translate(-68.169 -211.668)" fill="#fff6b4"/>
      <path id="Trazado_126646" data-name="Trazado 126646" d="M160.789,263.333c-.548,1.459-1.193,2.866-1.811,4.3a34.848,34.848,0,0,1-2.217,4.512c.341.086.682.168,1.022.256a36.8,36.8,0,0,0,2.081-4.1c.6-1.388,1.075-2.818,1.645-4.216a19.221,19.221,0,0,0,.876-2.5c-.248-.111-.5-.214-.749-.32A19.094,19.094,0,0,1,160.789,263.333Z" transform="translate(-89.074 -198.13)" fill="#fff6b4"/>
      <path id="Trazado_126647" data-name="Trazado 126647" d="M162.373,264.777c-.478,1.176-.866,2.384-1.366,3.551a41.507,41.507,0,0,1-2.2,4.385c.593.154,1.184.31,1.776.463s.843-.565.967-.978c.389-1.31.989-2.572,1.439-3.866.463-1.332,1.032-2.623,1.484-3.956.283-.832.838-1.492-.157-1.967-.309-.146-.617-.292-.926-.433A23.794,23.794,0,0,1,162.373,264.777Z" transform="translate(-89.62 -198.322)" fill="#fff6b4"/>
      <path id="Trazado_126648" data-name="Trazado 126648" d="M109.457,267.349a10.093,10.093,0,0,0,6.584,5.543,13.133,13.133,0,0,0,10.284-2.489c3.433-2.552,4.175-7.05,4.938-11a4.227,4.227,0,0,1,1.348-2.535c-9.9-.7-20.68.658-29.238,4.375a32.871,32.871,0,0,1,3.283,1.4C108.428,263.735,108.6,265.607,109.457,267.349Z" transform="translate(-74.788 -196.907)" fill="#fd7981" opacity="0.5" style="mix-blend-mode: multiply;isolation: isolate"/>
      <path id="Trazado_126649" data-name="Trazado 126649" d="M96.8,318.612a10.161,10.161,0,0,1-3.391-6.371,25.934,25.934,0,0,1-.341-8.327c.314-2.26.933-4.627,2.841-6.061a16.56,16.56,0,0,1,6.932-2.739c1.9-.352,4.672-1,6.352.3a4.692,4.692,0,0,1,1.613,2.174c.153.442.293.893.469,1.328.187.47.941,1.808,1.27.5.447-1.779-.9-4.43.454-5.952a1.686,1.686,0,0,1,1.137-.65c1.351-.086,1.768-.94,1.715-2.131-.078-1.73-1.074-2.847-2.192-4.052a.255.255,0,0,1,.168-.423c-.286-.9-.81-1.883-1.836-1.852a5.274,5.274,0,0,0-2.959,1.559,12.554,12.554,0,0,1-4.875,2.557c-2.4.535-5.5,1.165-7.868.234-2.784-1.1.1-4.873,1-6.3a10.3,10.3,0,0,0,1.843-4.881c-.05-.828-.286-1.655-1.089-1.4a11.357,11.357,0,0,0-2.883,1.7,12.257,12.257,0,0,1-6.59,2.6,14,14,0,0,1-5.735-1.211.3.3,0,0,0,.1.083c.951.475,2.062.7,3.051,1.117.332.141.665.273,1,.4-.3.5-.6,1-.886,1.505a54.107,54.107,0,0,0-2.5,5.2,52.96,52.96,0,0,0-3.313,9.989c-.723,3.305-.929,6.616-1.391,9.949-.1.693-.076,1.406-.167,2.1-.037.292-.171.972.026,1.241a3.86,3.86,0,0,0,1.066.868,44.067,44.067,0,0,0,17.048,6.994C96.839,318.64,96.818,318.628,96.8,318.612Z" transform="translate(-68.169 -202.094)" fill="#fd7981" opacity="0.5" style="mix-blend-mode: multiply;isolation: isolate"/>
      <path id="Trazado_126650" data-name="Trazado 126650" d="M157.1,268.374a10.6,10.6,0,0,1-7.544-1.579c.069.091.133.186.2.279a14.324,14.324,0,0,1,2.473,3.594c.344.71.724,1.4,1.109,2.089.138.179.276.355.414.534-.034-.067-.069-.13-.1-.194,1.49.356,2.969.759,4.457,1.142.578.149.843-.565.967-.978.389-1.31.989-2.572,1.439-3.866.4-1.162.883-2.295,1.3-3.449A9.523,9.523,0,0,1,157.1,268.374Z" transform="translate(-87.146 -199.384)" fill="#fd7981" opacity="0.5" style="mix-blend-mode: multiply;isolation: isolate"/>
      <path id="Trazado_126651" data-name="Trazado 126651" d="M151.327,269.3a9.1,9.1,0,0,0-3.393-3.5.051.051,0,0,0-.052.089c2.9,2.023,4.173,5.681,6.072,8.541.053.08.2.033.164-.068A21.533,21.533,0,0,0,151.327,269.3Z" transform="translate(-86.691 -199.344)" fill="#cc4a5f"/>
      <path id="Trazado_126652" data-name="Trazado 126652" d="M126.2,277.106a29.41,29.41,0,0,0-.271-4.733.138.138,0,0,0-.276,0c-.264,2.46-.71,16.834-.784,17.907-.079,1.156-.277,2.312-.277,3.475,0,1.88-.369,3.752-.322,5.631a.411.411,0,0,0,.464.444.4.4,0,0,0,.457-.436c.045-1.766.195-3.543.333-5.306C125.709,291.72,126.222,279.3,126.2,277.106Z" transform="translate(-80.378 -201.068)" fill="#cad6d6"/>
      <path id="Trazado_126653" data-name="Trazado 126653" d="M124.452,299.751c.229-2.128.135-4.282.442-6.409.352-2.447.538-4.887.654-7.354.213-4.572.3-9.148.3-13.725a.133.133,0,0,0-.2.11c-.264,2.46-.71,16.834-.784,17.907-.079,1.156-.277,2.312-.277,3.475,0,1.88-.369,3.752-.322,5.631A.373.373,0,0,0,124.452,299.751Z" transform="translate(-80.378 -201.07)" fill="#9da7a8"/>
      <g id="Grupo_93271" data-name="Grupo 93271" transform="translate(15.546 78.601)">
        <path id="Trazado_126654" data-name="Trazado 126654" d="M119.417,290.587a3.3,3.3,0,0,0-.13-.433c.276-.282.218-.772-.108-1.272a6.909,6.909,0,0,0-3.616-2.673c-2.685-.767-4.575,1.5-5.309,3.841-.2.046-.4.089-.6.126-2.62.46-16.384,2.241-17.41,2.2-.625-.026-1.314.026-1.993.034a11.334,11.334,0,0,1,.1-1.4,10.176,10.176,0,0,1,.932-2.682,30.07,30.07,0,0,0,1.838-3.708.157.157,0,0,0-.041-.164.108.108,0,0,0-.01-.021c-.622-.3-1.226-.64-1.855-.951-.793-.392-1.648-.667-2.425-1.094-.372.148-.6.788-.718,1.083-.478,1.207-1.022,2.371-1.395,3.619a22.877,22.877,0,0,0-1.074,7.709c.124,2.093,1.438,2.593,5.108,2.544a45.484,45.484,0,0,0,7.338-1.044,101.383,101.383,0,0,0,12.593-2.76,2.222,2.222,0,0,0,.922,1.392,2.676,2.676,0,0,0,2.043.359,2.257,2.257,0,0,0,.94-.724,1.714,1.714,0,0,1,.591-.413,2.249,2.249,0,0,0,.122.836,1.943,1.943,0,0,0,2.148,1.065,1.6,1.6,0,0,0,1.219-1.826h0c.555-.094.6-.874.626-1.294a2.29,2.29,0,0,0-.19-.929C119.641,291.828,119.54,291.162,119.417,290.587Z" transform="translate(-85.569 -282.384)" fill="#efcaa6"/>
        <path id="Trazado_126655" data-name="Trazado 126655" d="M93.051,286.568a9.948,9.948,0,0,0,.894-1.955.157.157,0,0,0-.041-.164.108.108,0,0,0-.01-.021c-.622-.3-1.226-.64-1.855-.951-.793-.392-1.648-.667-2.425-1.094-.372.148-.6.788-.718,1.083-.073.185-.149.368-.226.551A13.442,13.442,0,0,1,93.051,286.568Z" transform="translate(-86.399 -282.384)" fill="#efcaa6" opacity="0.7" style="mix-blend-mode: multiply;isolation: isolate"/>
        <path id="Trazado_126656" data-name="Trazado 126656" d="M130.3,291.837a8.082,8.082,0,0,1,.705.85,3.368,3.368,0,0,0-.114-.377.811.811,0,0,0,.092-.879.6.6,0,0,1-.431-.123,4.8,4.8,0,0,0-1.626-.869A10.6,10.6,0,0,1,130.3,291.837Z" transform="translate(-97.171 -284.539)" fill="#efcaa6" opacity="0.7" style="mix-blend-mode: multiply;isolation: isolate"/>
        <path id="Trazado_126657" data-name="Trazado 126657" d="M126.467,298.11c.283-.029.608.242.825.376.461.281.722-.422.328-.738a1.811,1.811,0,0,0-.7-.382c-.748-.157-1.14.471-1.569,1.058a1.715,1.715,0,0,1,.428-.273,2.162,2.162,0,0,0,.042.516A.643.643,0,0,1,126.467,298.11Z" transform="translate(-96.213 -286.387)" fill="#efcaa6" opacity="0.7" style="mix-blend-mode: multiply;isolation: isolate"/>
        <path id="Trazado_126658" data-name="Trazado 126658" d="M130.078,296.845a8.746,8.746,0,0,0-1.03-1.418,6.588,6.588,0,0,0-.861-.224,5.145,5.145,0,0,1,1.214,1.742,1.962,1.962,0,0,1,.035,2.125,1.238,1.238,0,0,1-.431.345,1.617,1.617,0,0,0,1.019-1.761h0a.624.624,0,0,0,.464-.408A1.532,1.532,0,0,1,130.078,296.845Z" transform="translate(-96.973 -285.814)" fill="#efcaa6" opacity="0.7" style="mix-blend-mode: multiply;isolation: isolate"/>
        <path id="Trazado_126659" data-name="Trazado 126659" d="M129.9,293.612a2.252,2.252,0,0,0-1.437-.843c-.11.013-.114.086.108.3.146.14.3.272.451.4.285.248.551.516.829.771a8.907,8.907,0,0,1,.737.727c-.021-.064-.042-.128-.068-.192a.57.57,0,0,0,.391-.352C130.481,294.385,130.152,293.908,129.9,293.612Z" transform="translate(-97.027 -285.163)" fill="#efcaa6" opacity="0.7" style="mix-blend-mode: multiply;isolation: isolate"/>
      </g>
      <path id="Trazado_126660" data-name="Trazado 126660" d="M94.687,284.048a17.577,17.577,0,0,0-1.926-.88c-.476-.23-5.888-2.507-7.2-2.845a.046.046,0,0,0-.036.083c1.4.765,2.949,1.156,4.329,1.95,1.363.784,2.848,1.289,4.243,2.015.3.154.716.569,1.077.5.6-.1.839-.618,1.163-1.105a33.431,33.431,0,0,0,2.719-4.6C99.14,278.983,95.448,284.543,94.687,284.048Z" transform="translate(-70.005 -202.921)" fill="#cc4a5f"/>
      <g id="Grupo_93276" data-name="Grupo 93276">
        <path id="Trazado_126661" data-name="Trazado 126661" d="M133.951,202.148a3.972,3.972,0,0,0,2.977-3.6c.082-2.283-2.365-5.155-4.854-5.63a5.118,5.118,0,0,0,1.441-1.378,3.794,3.794,0,0,0-1.307-5.331,5.8,5.8,0,0,0-5.154-.564,5.7,5.7,0,0,0-1.278-5.922c-2.01-1.869-5.314-2.651-7.581-.85a3.545,3.545,0,0,0-.543.555,5.519,5.519,0,0,0-2.169-2.272,5.244,5.244,0,0,0-6.357,1,6.276,6.276,0,0,0-.45.511c-.765-1.654-2.891-2.829-4.562-3.309a9.066,9.066,0,0,0-8.834,2.724,5.046,5.046,0,0,0-1.346,3.544,5.609,5.609,0,0,0-.66-.726c-1.66-1.515-4.071-1.054-5.866-.032-1.95,1.111-2.4,3.444-2.244,5.5a6.172,6.172,0,0,0-6.425-.889c-2.453,1.138-3.168,3.913-2.828,6.351v.006a4.551,4.551,0,0,0-.454-.267c-2.315-1.157-5,.585-6.351,2.383a5.208,5.208,0,0,0,.079,6.658,2.717,2.717,0,0,0,.237.212,5.519,5.519,0,0,0-1.858.672,6.647,6.647,0,0,0-3.039,6.307c.081,1.644.615,3.468,1.962,4.379a1.955,1.955,0,0,0-.472.335,5.332,5.332,0,0,0-1.456,2.623,6.575,6.575,0,0,0,1.477,6.1A5.051,5.051,0,0,0,69.7,222.84c-.956,1.748-.5,4.3,1.584,5.007a3.394,3.394,0,0,0,1.209.194,5.48,5.48,0,0,0-.076,1.986,5.831,5.831,0,0,0,5.308,4.755,4.24,4.24,0,0,0,4.287-2.572,3.681,3.681,0,0,0,1.017,1.2c.8.589,3.254,1.956,4.175.962a.408.408,0,0,0,.106-.391,11.579,11.579,0,0,0-1.627-2.365,10.984,10.984,0,0,1-1.493-3.844c-.244-1.105-.13-2.3-.3-3.417a19.858,19.858,0,0,0-1.2-4,32.644,32.644,0,0,1-2.485-8.18,11.027,11.027,0,0,1,.735-4.558,7.125,7.125,0,0,1,.535-1.2,4.2,4.2,0,0,0,.642.134,5.367,5.367,0,0,0,5.776-5.948c2.067.941,4.731.9,6.349-.446a5.544,5.544,0,0,0,2.062-4.105,3.608,3.608,0,0,0,3.892.84,3.973,3.973,0,0,0,2.188-1.854,4.839,4.839,0,0,0,1.154,1.184,6.407,6.407,0,0,0,5.876.579,7.462,7.462,0,0,0,3.823-3.064,6.863,6.863,0,0,0,4.3,4.028,4.572,4.572,0,0,0,4.469-.875,2.968,2.968,0,0,0,.3,2.9,2.739,2.739,0,0,0,1.522.912,10.807,10.807,0,0,0,.072,1.523,52.281,52.281,0,0,0,.989,5.427,17.786,17.786,0,0,0,1.769,4.854c.39.706.932,1.359,1.368,2.04s.425,1.495.846,2.132c.4.6,2.014-.146,2.443-.333a4.385,4.385,0,0,0,2.58-2.919,3.665,3.665,0,0,0-.191-2.8,3.67,3.67,0,0,0,2.612-2.617A5.672,5.672,0,0,0,133.951,202.148Z" transform="translate(-64.343 -175.064)" fill="#ec7b23"/>
        <path id="Trazado_126662" data-name="Trazado 126662" d="M133.931,222.639c.3.457,1.31.133,1.965-.13a5.028,5.028,0,0,0,.575-2.254c.042-2.721-1.649-4.2-3.533-5.861-1.969-1.737-3.524-4.579-2.808-7.266a8.242,8.242,0,0,0,.639-1.825c.018-.724-.546-.993-.857-1.575-.365-.686-.073-1.411-.9-1.83-1.176-.6-3.468.4-4.122.489-3.658.488-4.971-4.792-6.244-5.019s-3.249,6.889-7.936,6.266c-2.3-.307-1.5-4.222-2.591-4.673s-.9,3.234-3.409,3.57c-1.337.179-3-2.549-3.979-2.2s-.735,5.877-2.448,6.8c-2.076,1.113-6.266-3.044-7.017-2.163s3,4.7-.756,7.55c-2.908,2.2-5.2-1.958-6-1.041-.289.333.207,2.731-.516,4.323a5.908,5.908,0,0,0-.663,3.808,17.652,17.652,0,0,0,1.15,2.879c.724,1.622.091,3.278-.416,4.859-.82,2.564-.294,4.5.744,6.887.588,1.355,1.441,3.138.88,4.649a4.05,4.05,0,0,1-1.26,1.715,4.461,4.461,0,0,0,2.64-2.408,3.681,3.681,0,0,0,1.017,1.2c.8.589,3.254,1.956,4.175.962a.408.408,0,0,0,.106-.391,11.579,11.579,0,0,0-1.627-2.365,10.984,10.984,0,0,1-1.493-3.844c-.244-1.105-.13-2.3-.3-3.417a19.858,19.858,0,0,0-1.2-4,32.644,32.644,0,0,1-2.485-8.18,11.027,11.027,0,0,1,.735-4.558,7.125,7.125,0,0,1,.535-1.2,4.2,4.2,0,0,0,.642.134,5.367,5.367,0,0,0,5.776-5.948c2.067.941,4.731.9,6.349-.446a5.544,5.544,0,0,0,2.062-4.105,3.608,3.608,0,0,0,3.892.84A3.973,3.973,0,0,0,107.438,201a4.839,4.839,0,0,0,1.154,1.184,6.407,6.407,0,0,0,5.876.579,7.462,7.462,0,0,0,3.823-3.064,6.863,6.863,0,0,0,4.3,4.028,4.572,4.572,0,0,0,4.469-.875,2.968,2.968,0,0,0,.3,2.9,2.739,2.739,0,0,0,1.522.912,10.8,10.8,0,0,0,.072,1.523,52.281,52.281,0,0,0,.989,5.427,17.786,17.786,0,0,0,1.769,4.854c.39.706.932,1.359,1.368,2.04S133.51,222,133.931,222.639Z" transform="translate(-69.395 -181.031)" fill="#d7711f" opacity="0.4" style="mix-blend-mode: multiply;isolation: isolate"/>
        <g id="Grupo_93272" data-name="Grupo 93272" transform="translate(15.652 18.475)">
          <path id="Trazado_126663" data-name="Trazado 126663" d="M134.145,220.942c-.415-.952-1.066-1.758-1.571-2.664a31.515,31.515,0,0,1-1.77-3.56,20.474,20.474,0,0,1-1.11-6.208,3.614,3.614,0,0,0-.007-1.366c-.132-.5-.606-.707-1-.957-1.027-.649-.619-1.326-.78-2.266-.193-1.133-1.635-.146-2.323-.031a6.743,6.743,0,0,1-3.942-.6,5.081,5.081,0,0,1-2.161-2c-.418-.663-.62-1.258-1.464-.884-1.229.545-2.027,1.836-3.268,2.444a6.582,6.582,0,0,1-5,.328c-.623-.264-1.02-1.383-1.542-1.474-.862-.15-1.474,1.171-2.177,1.488a2.886,2.886,0,0,1-2.69-.4c-.806-.514-1.383-.879-2,.063a21.5,21.5,0,0,0-.928,2.344,4.406,4.406,0,0,1-2.439,2.366,4.625,4.625,0,0,1-3.395.015c-.733-.319-1.368-.907-1.753.071-.467,1.184-.424,2.352-1.184,3.482a4.814,4.814,0,0,1-2.748,2.1c-.03,0-.059,0-.09,0-.7-.018-1.433-.465-1.9.171a5.282,5.282,0,0,0-.387,1.544,18.486,18.486,0,0,0-.73,6.662,9.246,9.246,0,0,0,1.461,3.852,10.117,10.117,0,0,1,1.538,5.627,14.314,14.314,0,0,0,.422,4.78,11.348,11.348,0,0,0,2.147,3.893,14.862,14.862,0,0,0,7.23,4.5,26.775,26.775,0,0,0,3.7,1.154,22.042,22.042,0,0,0,7.333.337,33.6,33.6,0,0,0,15.585-5.493,27.59,27.59,0,0,0,3.641-3.045,29.966,29.966,0,0,0,4.167-4.861,13.193,13.193,0,0,0,1.852-5.8A10.184,10.184,0,0,0,134.145,220.942Z" transform="translate(-85.713 -200.29)" fill="#f4d9bf"/>
        </g>
        <path id="Trazado_126664" data-name="Trazado 126664" d="M153.2,222.426c-.754-1.154-2.4-2.155-3.729-1.5a2.113,2.113,0,0,0-1.009,1.134c.412.681.732,1.447,1.174,2.107a13.785,13.785,0,0,1,1.9,4.024,3.192,3.192,0,0,1,.068.394,2.569,2.569,0,0,0,1.756-.961A4.565,4.565,0,0,0,153.2,222.426Z" transform="translate(-86.852 -187.282)" fill="#efcaa6"/>
        <path id="Trazado_126665" data-name="Trazado 126665" d="M88.34,243.123c-.015-.986.074-1.987-.012-2.971-.067-.8-.327-1.64-.366-2.445a2.174,2.174,0,0,0-1.98-.946c-2.418.416-2.154,3.513-1.633,5.251a3.79,3.79,0,0,0,3.907,2.9c.115,0,.223-.017.325-.031A6.664,6.664,0,0,1,88.34,243.123Z" transform="translate(-69.603 -191.568)" fill="#efcaa6"/>
        <path id="Trazado_126666" data-name="Trazado 126666" d="M152.381,223.537a1.829,1.829,0,0,0-1.569,1.066,2.34,2.34,0,0,0-.273.948c.113.177.22.359.323.543a7.084,7.084,0,0,1,.24-.981c.218-.685.821-.936,1.345-1.323A.136.136,0,0,0,152.381,223.537Z" transform="translate(-87.409 -188.034)" fill="#874b37" opacity="0.5"/>
        <path id="Trazado_126667" data-name="Trazado 126667" d="M88.794,241.142c-.006-.064-.012-.127-.019-.189a2.389,2.389,0,0,0-.972-.83,1.674,1.674,0,0,0-2.035.333c-.157.218.129.417.326.332a1.774,1.774,0,0,1,1.63-.051,3.846,3.846,0,0,1,1.041.848A2.9,2.9,0,0,1,88.794,241.142Z" transform="translate(-70.064 -192.423)" fill="#874b37" opacity="0.5"/>
        <path id="Trazado_126668" data-name="Trazado 126668" d="M140.522,224.8a3.944,3.944,0,0,0-3.135.953,3.5,3.5,0,0,0-1.478,2.362.059.059,0,0,0,.115.018,5.219,5.219,0,0,1,4.474-3.147A.1.1,0,0,0,140.522,224.8Z" transform="translate(-83.493 -188.352)" fill="#c39368"/>
        <path id="Trazado_126669" data-name="Trazado 126669" d="M102.458,233.633c-.059.036-.009.114.052.089a4.118,4.118,0,0,1,3.32-.068,6.518,6.518,0,0,1,1.958,1.94.173.173,0,0,0,.289-.166A3.741,3.741,0,0,0,102.458,233.633Z" transform="translate(-74.536 -190.572)" fill="#c39368"/>
        <g id="Grupo_93273" data-name="Grupo 93273" transform="translate(31.387 52.164)">
          <path id="Trazado_126670" data-name="Trazado 126670" d="M114.617,247.8c-1.888-.042-3.538-.923-5.321-1.355.021-.083-.042-.187-.141-.149-1.25.507-1.679,2.169-1.9,3.358a3.687,3.687,0,0,0,1.49,3.6,3.116,3.116,0,0,0,3.991-.268,6.952,6.952,0,0,0,2.183-4.793A.311.311,0,0,0,114.617,247.8Z" transform="translate(-107.198 -246.288)" fill="#f15860"/>
          <path id="Trazado_126671" data-name="Trazado 126671" d="M113.08,247.8c-1.267.8-1.617,3.065-1.6,4.435a.074.074,0,0,0,.149,0,8.55,8.55,0,0,1,1.748-4.133C113.513,247.923,113.26,247.688,113.08,247.8Z" transform="translate(-108.345 -246.685)" fill="#d24e54"/>
        </g>
        <g id="Grupo_93274" data-name="Grupo 93274" transform="translate(49.299 32.785)">
          <path id="Trazado_126672" data-name="Trazado 126672" d="M133.733,221.662c.382,1.167.275,2.247-.237,2.415s-1.233-.645-1.613-1.812-.275-2.248.236-2.415S133.353,220.495,133.733,221.662Z" transform="translate(-131.655 -219.828)" fill="#673121"/>
          <path id="Trazado_126673" data-name="Trazado 126673" d="M132.43,221.378c.085.364.028.686-.13.724s-.357-.225-.444-.588-.027-.686.133-.721S132.344,221.017,132.43,221.378Z" transform="translate(-131.698 -220.085)" fill="#fff"/>
        </g>
        <g id="Grupo_93275" data-name="Grupo 93275" transform="translate(31.345 37.193)">
          <path id="Trazado_126674" data-name="Trazado 126674" d="M109.219,227.679c.382,1.168.275,2.248-.236,2.415s-1.234-.644-1.614-1.812-.275-2.248.236-2.414S108.838,226.513,109.219,227.679Z" transform="translate(-107.14 -225.846)" fill="#673121"/>
          <path id="Trazado_126675" data-name="Trazado 126675" d="M107.915,227.4c.086.361.027.686-.13.723s-.357-.226-.444-.59-.026-.684.13-.72S107.829,227.034,107.915,227.4Z" transform="translate(-107.183 -226.103)" fill="#fff"/>
        </g>
        <path id="Trazado_126676" data-name="Trazado 126676" d="M128.694,209.494s.428-1.635,1.463-1.665a2.28,2.28,0,0,1,1.886,1.128C132.3,209.315,130.489,207.892,128.694,209.494Z" transform="translate(-81.563 -183.832)" fill="#cc6809"/>
        <path id="Trazado_126677" data-name="Trazado 126677" d="M105.3,216.587s.426-1.636,1.463-1.667a2.28,2.28,0,0,1,1.884,1.13C108.9,216.406,107.093,214.983,105.3,216.587Z" transform="translate(-75.302 -185.729)" fill="#cc6809"/>
        <path id="Trazado_126678" data-name="Trazado 126678" d="M124.624,236.736c.633-.465,1.39-.843,1.3-1.767-.085-.884-.973-1.223-1.753-1.241-.053,0-.045-.079,0-.088a1.758,1.758,0,0,1,2.262,1.272c.212,1-.629,2.268-1.754,2.06A.132.132,0,0,1,124.624,236.736Z" transform="translate(-80.343 -190.726)" fill="#c39368"/>
        <path id="Trazado_126679" data-name="Trazado 126679" d="M142.981,226.943c.311.523-.453,1.555-1.711,2.3s-2.53.935-2.842.412.454-1.556,1.711-2.3S142.668,226.419,142.981,226.943Z" transform="translate(-84.149 -188.867)" fill="#f9cbc0"/>
        <path id="Trazado_126680" data-name="Trazado 126680" d="M106.414,236.951c-.149.591-1.42.78-2.839.424s-2.451-1.126-2.3-1.716,1.42-.78,2.839-.423S106.562,236.361,106.414,236.951Z" transform="translate(-74.222 -191.118)" fill="#f9cbc0"/>
        <path id="Trazado_126681" data-name="Trazado 126681" d="M129.908,235.262c-1.754,4.205-4.976,7.692-9.476,8.813a19.947,19.947,0,0,1-6.693.427,19.03,19.03,0,0,1-6.215-2.073.045.045,0,0,0-.045.077,16.216,16.216,0,0,0,6.184,2.517,19,19,0,0,0,6.932-.335,13.189,13.189,0,0,0,9.47-9.378C130.1,235.2,129.947,235.167,129.908,235.262Z" transform="translate(-75.88 -191.158)" fill="#c39368"/>
      </g>
      <g id="Grupo_93278" data-name="Grupo 93278" transform="translate(35.817 57.45)">
        <path id="Trazado_126682" data-name="Trazado 126682" d="M131.124,257.585c-3.459-6.262-13.161-4.794-16.383.874a11.429,11.429,0,0,0-1.405,6.622c1.043,5.757,6.3,8.674,11.907,7.727C132.163,271.637,134.262,263.264,131.124,257.585Z" transform="translate(-113.246 -253.505)" fill="#ffef00"/>
        <g id="Grupo_93277" data-name="Grupo 93277" transform="translate(1.062 0.376)">
          <path id="Trazado_126683" data-name="Trazado 126683" d="M128.5,268.868a.732.732,0,0,1,.372-.1,1.649,1.649,0,0,0,.281-1.028c-.142-1.786-3.078-2.642-3-.354C126.208,268.873,127.118,269.653,128.5,268.868Z" transform="translate(-117.762 -257.226)" fill="#f9f39a"/>
          <path id="Trazado_126684" data-name="Trazado 126684" d="M130.151,265.267a5.661,5.661,0,0,0-3.2-4.079c-1.429-.7-3.893-.524-4.77,1.056a4.109,4.109,0,0,0-.286,3.572,3.2,3.2,0,0,0,2.021,1.909,3.322,3.322,0,0,1-1.107-3.5c.773-3.312,5.141-2.12,5.782.681.536,2.332-1.278,3.844-3.324,4.145-1.9.595-4.416-.3-4.983-2.265a.608.608,0,0,1-.075-.1c-2.023-3.778,1.359-8.2,5.368-8.3a3.8,3.8,0,0,1,3.535,1.4c-1.268-1.919-3.179-3.115-5.713-2.112-3.769,1.493-5.89,6.113-3.737,9.832,2.125,3.669,9.565,4.483,10.435-.661A5.933,5.933,0,0,0,130.151,265.267Z" transform="translate(-115.795 -254.898)" fill="#f9f39a"/>
          <path id="Trazado_126685" data-name="Trazado 126685" d="M131.35,260.273a9.543,9.543,0,0,0-1.195-2.6,7.782,7.782,0,0,0-6.212-3.656,9.436,9.436,0,0,0-9.225,8.552c-.224,3.379,1.275,7.252,4.422,8.841a7.779,7.779,0,0,0,5.6.778,9.989,9.989,0,0,0,5.7-4.123A9.772,9.772,0,0,0,131.35,260.273Zm-1.86,8.185a8.035,8.035,0,0,1-3.685,2.355,7.012,7.012,0,0,1-8.5-3.456c-2.1-4.44-.54-10.49,4.61-11.978a6.515,6.515,0,0,1,6.756,1.661c2.236,2.633,3.775,7.41,1.574,10.5A8.971,8.971,0,0,1,129.491,268.458Z" transform="translate(-114.696 -254.019)" fill="#f9f39a"/>
        </g>
        <path id="Trazado_126686" data-name="Trazado 126686" d="M131.493,260.755a5.644,5.644,0,0,0-1.736-3.576,8.912,8.912,0,0,0-3.925-1.582,8.551,8.551,0,0,0-7.711,2.937,9.3,9.3,0,0,0-1.566,8.264,7.633,7.633,0,0,0,2.186,3.456,6.846,6.846,0,0,0,1.759,1.05,7.772,7.772,0,0,0,9.447-2.815,6.826,6.826,0,0,0-.43-7.643c-1.774-2.2-5.173-2.508-7.626-1.446-2.653,1.151-3.31,4.368-2.566,6.853a4.382,4.382,0,0,0,6.309,2.627c2.2-1.217,2.069-4.465.3-5.985a2.687,2.687,0,0,0-2.743-.261,2.147,2.147,0,0,0-.921,2.466,2.342,2.342,0,0,0,2.124,1.77c.982.088,1.135-.833.85-1.517-.037-.086-.18-.042-.176.047q-.468,1.56-1.641.483a2.048,2.048,0,0,1-.693-1.469c-.124-1.382,1.395-1.572,2.346-1.3,1.742.5,1.878,3.461.89,4.558a3.7,3.7,0,0,1-4.867.263,5.263,5.263,0,0,1-1.367-4.717c.767-3.428,5.077-4.725,7.927-2.952,2.877,1.789,3.22,5.839,1.218,8.43a6.133,6.133,0,0,1-4.288,2.36,6.9,6.9,0,0,1-2.427.065,11.534,11.534,0,0,1-2-.86c-2.849-1.412-3.717-5.4-2.9-8.234a7.48,7.48,0,0,1,5.979-5.556,7.623,7.623,0,0,1,4.525.516,6.083,6.083,0,0,1,2.042,1.191,6.494,6.494,0,0,1,1.264,2.686A.216.216,0,0,0,131.493,260.755Z" transform="translate(-114.035 -254.037)" fill="#f5a6c8"/>
      </g>
    </g>
  </g>
</svg>
