<svg xmlns="http://www.w3.org/2000/svg" width="292.929" height="200.646" viewBox="0 0 292.929 200.646">
  <g id="Grupo_93292" data-name="Grupo 93292" transform="translate(-139.309 13.372)">
    <ellipse id="Elipse_4854" data-name="Elipse 4854" cx="68.422" cy="11.043" rx="68.422" ry="11.043" transform="translate(289.152 154.367)" fill="#ff7f84"/>
    <ellipse id="Elipse_4857" data-name="Elipse 4857" cx="68.422" cy="7.543" rx="68.422" ry="7.543" transform="translate(139.309 152.367)" fill="#ff7f84"/>
    <g id="Grupo_93291" data-name="Grupo 93291" transform="translate(291.853 44.294)">
      <g id="Grupo_93283" data-name="Grupo 93283" transform="translate(14.004 113.871)">
        <g id="Grupo_93281" data-name="Grupo 93281">
          <path id="Trazado_126687" data-name="Trazado 126687" d="M325.789,194.7a2.465,2.465,0,0,0-.506-.04c-1.8-.067-6.595.36-7.836-.241-1.388-.668-6.288-.787-7.169-1.228-.374-.187.614-1.148,1.909-2.216,1.815-1.508,4.244-3.23,4.244-3.23l8.971,4.044S326.91,194.917,325.789,194.7Z" transform="translate(-310.197 -187.748)" fill="#ffb727"/>
          <path id="Trazado_126688" data-name="Trazado 126688" d="M325.919,191.792s1.508,3.124.387,2.911a2.465,2.465,0,0,0-.506-.04c-4.793-1.122-9.706-2.6-13.1-3.685,1.815-1.508,4.244-3.23,4.244-3.23Z" transform="translate(-310.714 -187.748)" fill="#f49727"/>
        </g>
        <g id="Grupo_93282" data-name="Grupo 93282" transform="translate(30.404 0.267)">
          <path id="Trazado_126689" data-name="Trazado 126689" d="M364.431,193.263c-.894.441-5.78.56-7.182,1.228-.8.387-3.1.348-5.1.281a24.8,24.8,0,0,0-3.243,0c-1.108.214.4-2.911.4-2.911l9.5-3.778s1.829,1.335,3.417,2.643C363.644,191.9,364.846,193.063,364.431,193.263Z" transform="translate(-348.5 -188.084)" fill="#ffb727"/>
          <path id="Trazado_126690" data-name="Trazado 126690" d="M362.228,190.727a75.628,75.628,0,0,1-10.079,4.045,24.8,24.8,0,0,0-3.243,0c-1.108.214.4-2.911.4-2.911l9.5-3.778S360.64,189.419,362.228,190.727Z" transform="translate(-348.5 -188.084)" fill="#f49727"/>
        </g>
      </g>
      <g id="Grupo_93286" data-name="Grupo 93286" transform="translate(70.172 115.646)">
        <g id="Grupo_93284" data-name="Grupo 93284">
          <path id="Trazado_126691" data-name="Trazado 126691" d="M396.983,195.764c-.761-.387-4.218-.16-6.608-.227a5.584,5.584,0,0,1-2.149-.333c-1.162-.707-7.009-.053-7.262-.721-.12-.321,1.588-1.388,3.378-2.4,1.9-1.082,3.885-2.1,3.885-2.1l8.757,3.671S398.077,196.326,396.983,195.764Z" transform="translate(-380.957 -189.984)" fill="#ffb727"/>
          <path id="Trazado_126692" data-name="Trazado 126692" d="M397.862,193.655s1.095,2.67,0,2.109c-.761-.387-4.218-.16-6.608-.227l-6.034-3.457c1.9-1.082,3.885-2.1,3.885-2.1Z" transform="translate(-381.836 -189.984)" fill="#f49727"/>
        </g>
        <g id="Grupo_93285" data-name="Grupo 93285" transform="translate(36.884)">
          <path id="Trazado_126693" data-name="Trazado 126693" d="M443.93,194.5c-.253.668-6.1,0-7.262.707a4.645,4.645,0,0,1-1.829.32c-2.389.107-6.127-.16-6.928.241-1.095.561,0-2.109,0-2.109l8.757-3.671s2,1.028,3.9,2.109C442.355,193.108,444.05,194.176,443.93,194.5Z" transform="translate(-427.424 -189.984)" fill="#ffb727"/>
          <path id="Trazado_126694" data-name="Trazado 126694" d="M440.566,192.093c-1.735,1.082-3.871,2.377-5.727,3.431-2.389.107-6.127-.16-6.928.241-1.095.561,0-2.109,0-2.109l8.757-3.671S438.67,191.012,440.566,192.093Z" transform="translate(-427.424 -189.984)" fill="#f49727"/>
        </g>
      </g>
      <path id="Trazado_126695" data-name="Trazado 126695" d="M359.81,85.986v.026c.053,10.106-1.909,29.409-1.909,44.147,0,16.74-1.322,36.938-28.929,36.938-27.019,0-27.82-25.724-27.286-34.281.013-.187.027-.36.04-.534a30.327,30.327,0,0,1,1.615-7.636c-1.215.587-2.483,1.122-3.685,1.576-4.178,1.562-7.729,2.136-7.008.574,1.335-2.83,15.085-18.463,21.559-23.909a29.618,29.618,0,0,0,2.416-9.438c1.068-14.137,8.023-32.252,23.7-32.252,14.137,0,18.569,12.869,19.344,21.238C359.757,83.423,359.8,84.624,359.81,85.986Z" transform="translate(-292.555 -47.779)" fill="#303e54"/>
      <path id="Trazado_126696" data-name="Trazado 126696" d="M449.554,125.405c-1.455,1.3-4.539-5.393-14.684-9.024a49.924,49.924,0,0,1,2.523,8.517c.107.695.214,1.535.28,2.469v.013c.935,11.334-1.615,38.34-31.091,38.34-21.146,0-28.18-11.32-30.53-24.59v-.013c-1.2-6.754-1.175-14.03-1.175-20.557,0-19.357,1.9-44.615,2.777-54.292s4.9-21.974,21.252-21.974c18.129,0,23.135,17.528,24.363,33.881a67.672,67.672,0,0,0,2.723,13.6c2.256,5.46,12.976,13.67,17.127,18.876C447.3,115.887,451.129,123.977,449.554,125.405Z" transform="translate(-309.531 -44.294)" fill="#303e54"/>
      <path id="Trazado_126697" data-name="Trazado 126697" d="M350.514,75.845c4.327.817,6.83-.544,9.334,1.459,2.332,1.866,3.838,10.179,1.919,16.52s-1.418,25.614-1.585,30.2,2.083,34.792-25.115,34.792-23.017-27.951-16.472-38.546,9.3-28.285,9.465-31.289,2.825-14.822,10.1-15.936C344.7,72.048,346.092,75.011,350.514,75.845Z" transform="translate(-296.922 -50.182)" fill="#fff"/>
      <path id="Trazado_126698" data-name="Trazado 126698" d="M394.525,65.069s-5.506-4.922-11.1-.5S377.922,80,380.508,85.261s3.5,5.841.5,11.43-4.422,33.123.751,43.469,16.225,16.124,29.491,12.87,21.073-19.972,14.486-34.406-5.43-23.555-11.438-29.86c-2.572-2.7-4.869-3.17.221-9.679,4.206-5.379,2.783-17.772-8.4-18.606C399.536,59.989,394.525,65.069,394.525,65.069Z" transform="translate(-310.24 -47.625)" fill="#fff"/>
      <g id="Grupo_93287" data-name="Grupo 93287" transform="translate(38.859 31.532)">
        <path id="Trazado_126699" data-name="Trazado 126699" d="M347.155,88.067a5.038,5.038,0,0,1-.177.472,2.858,2.858,0,0,0-5.469-1.647c.033-.165.064-.33.113-.491a2.909,2.909,0,1,1,5.533,1.666Z" transform="translate(-341.509 -84.017)" fill="#262626"/>
        <path id="Trazado_126700" data-name="Trazado 126700" d="M368.379,90.695a4.851,4.851,0,0,1-.079.5,2.858,2.858,0,0,0-5.687-.513,4.845,4.845,0,0,1,.011-.5,2.909,2.909,0,1,1,5.756.518Z" transform="translate(-345.861 -84.673)" fill="#262626"/>
      </g>
      <g id="Grupo_93288" data-name="Grupo 93288" transform="translate(39.36 39.259)">
        <path id="Trazado_126701" data-name="Trazado 126701" d="M361.4,97.826c.387.614-6.234,3.844-10.4,3.124s-9.078-5.233-8.851-5.954,8.784-1.561,11.453-1.121C355.938,94.274,361.011,97.211,361.4,97.826Z" transform="translate(-342.14 -93.752)" fill="#ffb727"/>
        <path id="Trazado_126702" data-name="Trazado 126702" d="M361.4,98.149c.387.614-6.234,3.844-10.4,3.124s-9.078-5.233-8.851-5.954c4.634,4.242,8.194,3.012,10.063,3.266S357.071,100.69,361.4,98.149Z" transform="translate(-342.14 -94.075)" fill="#f49727"/>
      </g>
      <g id="Grupo_93289" data-name="Grupo 93289" transform="translate(74.205 29.901)">
        <path id="Trazado_126703" data-name="Trazado 126703" d="M409.586,83.47s-7.157,6.542-11.273,6.79c-4.131.259-12.276-3.343-12.276-3.343,3.844-.029,9.136-4.656,11.33-4.937C399.271,81.754,405.77,83.893,409.586,83.47Z" transform="translate(-386.038 -81.963)" fill="#ffb727"/>
        <path id="Trazado_126704" data-name="Trazado 126704" d="M409.586,83.861s-7.157,6.542-11.273,6.79c-4.131.259-12.276-3.343-12.276-3.343,6.773,2.254,9.727,1.238,11.425.836S404.582,87.63,409.586,83.861Z" transform="translate(-386.038 -82.354)" fill="#f49727"/>
      </g>
      <g id="Grupo_93290" data-name="Grupo 93290" transform="translate(72.256 21.861)">
        <path id="Trazado_126705" data-name="Trazado 126705" d="M415.217,73.848a1.654,1.654,0,0,1,.035.374c-.545-1.278-2.453-1.954-4.546-1.529s-3.587,1.79-3.591,3.18a1.707,1.707,0,0,1-.114-.358c-.3-1.505,1.293-3.1,3.556-3.555S414.912,72.344,415.217,73.848Z" transform="translate(-388.404 -71.834)" fill="#262626"/>
        <path id="Trazado_126706" data-name="Trazado 126706" d="M391.09,77.886a1.876,1.876,0,0,1,.009.375c-.414-1.321-2.092-2.166-4-1.934s-3.334,1.455-3.42,2.837a1.876,1.876,0,0,1-.081-.367c-.186-1.524,1.346-2.961,3.41-3.212S390.9,76.362,391.09,77.886Z" transform="translate(-383.583 -72.6)" fill="#262626"/>
      </g>
      <path id="Trazado_126707" data-name="Trazado 126707" d="M362.157,92.459c.053,10.106-1.909,29.409-1.909,44.147,0,16.74-1.322,36.938-28.929,36.938-27.019,0-27.82-25.724-27.286-34.281,3,7.369,13.081,18.182,27.685,18.329,22.093.226,25.526-16.154,26.381-24.27S359.741,104.981,362.157,92.459Z" transform="translate(-294.903 -54.226)" fill="#303e54" opacity="0.5" style="mix-blend-mode: multiply;isolation: isolate"/>
      <path id="Trazado_126708" data-name="Trazado 126708" d="M406.887,187.306c-21.146,0-28.18-11.32-30.53-24.59,2.577,3.885,11.747,14.271,34.2,9.479,19.664-4.205,25.631-16.593,27.42-23.228C438.913,160.3,436.363,187.306,406.887,187.306Z" transform="translate(-309.836 -65.879)" fill="#303e54" opacity="0.5" style="mix-blend-mode: multiply;isolation: isolate"/>
    </g>
    <ellipse id="Elipse_4858" data-name="Elipse 4858" cx="35.422" cy="7.543" rx="35.422" ry="7.543" transform="matrix(0.966, 0.259, -0.259, 0.966, 161.344, 154.368)" fill="#ff7f84"/>
    <g id="Grupo_93293" data-name="Grupo 93293" transform="translate(-2253.244 -205.215)">
      <path id="Trazado_126709" data-name="Trazado 126709" d="M2811.6,288.719s-21.145-2.261-40,11.283a.5.5,0,0,0,.188.9c5.066,1.332,26.831,7.426,29,14.338Z" transform="translate(-376.997 -74.079)" fill="#36547f"/>
      <path id="Trazado_126710" data-name="Trazado 126710" d="M2494.4,480.448s-3.154-18.066-23.789-29.65c0,0-3.006,5.346-2.6,5.346S2484.568,462.491,2494.4,480.448Z" transform="translate(16.5 -198.307)" fill="#45669b"/>
      <path id="Trazado_126711" data-name="Trazado 126711" d="M2468.17,440.65s25.068,9.863,32.661,32.027c.086.251-.244.461-.513.327-3.468-1.728-18.345-8.82-30.741-9.835C2467.033,462.961,2468.17,440.65,2468.17,440.65Z" transform="translate(10.065 -190.536)" fill="#bacfe2"/>
      <path id="Trazado_126712" data-name="Trazado 126712" d="M2719.764,470.066s5.712-29.6,35.8-41.044v4.209A101.96,101.96,0,0,0,2719.764,470.066Z" transform="translate(-307.977 -181.631)" fill="#45669b"/>
      <path id="Trazado_126713" data-name="Trazado 126713" d="M2436.618,241.162c5.74-27.877,23.765-45.966,43.687-48.881s41.738,9.345,50.573,17.557c6.715,6.242-6.547,13.618-19.61,30.294-7.737,9.877-17.559,22.474-17.254,41.509.531,33.108,18.448,68.738,9.02,68.738-1.212,0-3.219-.789-5.8-2.266l-5.045,40.319s-9.316-17.177,3.138-39.542a1.294,1.294,0,0,0-.492-1.706C2474.051,333.649,2427.417,285.848,2436.618,241.162Z" transform="translate(-13.602)" fill="#45669b"/>
      <path id="Trazado_126714" data-name="Trazado 126714" d="M2394.411,362.977c7.156-23.412,28.853-35.342,33.84-37.8a2.678,2.678,0,0,0,1.37-1.567c5.539-16.849,20.079-26.486,39.974-32.463,10.782-3.24,24.633-1.6,31.711-1.137-2.032,5.419-11.575,12.613-21.016,24.667-7.737,9.877-17.56,22.474-17.254,41.509.395,24.62,10.4,50.63,11.63,62.35,10.88.957,31.493,12.107,37.321,22.1a.26.26,0,0,1-.371.335c-3.842-2.1-20.758-10.6-33.125-5.159s-16.06,23.022-16.76,27.112a.274.274,0,0,1-.513.054c-4.548-10.357-1.11-30.732,4.6-39.788a1.2,1.2,0,0,0-.068-1.4c-12.76-16.565-32.86-42.233-37.577-69.983a.482.482,0,0,0-.5-.388c-6.635.248-29.092,9.923-32.71,11.943A.365.365,0,0,1,2394.411,362.977Z" transform="translate(17.376 -74.542)" fill="#d3e2f2"/>
      <g id="Grupo_93293-2" data-name="Grupo 93293" transform="translate(2438.759 226.555)">
        <path id="Trazado_126715" data-name="Trazado 126715" d="M2688.367,350.971a32.234,32.234,0,0,1-4.413-1.865,24.734,24.734,0,0,1-3.875-2.428,30.594,30.594,0,0,1-1.734-1.445c-.274-.258-.544-.52-.827-.774-.266-.267-.511-.553-.776-.826-.555-.532-.988-1.152-1.514-1.731-.5-.595-.931-1.237-1.484-1.847.075.383.175.762.281,1.143.05.192.11.38.166.571l.09.284.118.273a12.734,12.734,0,0,0,1.115,2.13c.226.336.44.684.693,1.006s.536.623.807.934a9.459,9.459,0,0,0,.889.87,10.679,10.679,0,0,0,.963.8,14.636,14.636,0,0,0,4.484,2.324A12.069,12.069,0,0,0,2688.367,350.971Z" transform="translate(-2667.967 -340.056)" fill="#233c5b"/>
        <path id="Trazado_126716" data-name="Trazado 126716" d="M2699.574,368.886a32.188,32.188,0,0,1-4.413-1.865,24.683,24.683,0,0,1-3.875-2.428,30.855,30.855,0,0,1-1.734-1.446c-.273-.258-.544-.52-.827-.774-.266-.267-.511-.553-.776-.826-.555-.532-.988-1.152-1.514-1.731-.5-.595-.931-1.237-1.484-1.847.075.383.175.762.281,1.143.05.192.11.38.166.571l.089.285.118.273a12.734,12.734,0,0,0,1.115,2.13c.226.336.441.684.693,1.006s.536.623.807.934a9.427,9.427,0,0,0,.89.87,10.671,10.671,0,0,0,.963.8,14.638,14.638,0,0,0,4.484,2.324A12.068,12.068,0,0,0,2699.574,368.886Z" transform="translate(-2681.992 -353.775)" fill="#233c5b"/>
        <path id="Trazado_126717" data-name="Trazado 126717" d="M2711.344,384.905a32.237,32.237,0,0,1-4.412-1.865,24.689,24.689,0,0,1-3.875-2.428,9.961,9.961,0,0,1-.881-.707,10.088,10.088,0,0,1-.854-.738c-.273-.258-.543-.52-.827-.774-.266-.267-.51-.553-.776-.826-.555-.532-.988-1.152-1.514-1.731-.5-.595-.931-1.237-1.484-1.847.075.383.176.762.281,1.143.049.192.109.38.166.571l.089.284.118.273a12.751,12.751,0,0,0,1.115,2.13c.226.336.441.684.693,1.006s.536.623.807.934a9.424,9.424,0,0,0,.89.87,10.674,10.674,0,0,0,.963.8,14.633,14.633,0,0,0,4.484,2.324A12.067,12.067,0,0,0,2711.344,384.905Z" transform="translate(-2696.72 -366.043)" fill="#233c5b"/>
      </g>
      <g id="Grupo_93294" data-name="Grupo 93294" transform="translate(2456.573 201.788)">
        <path id="Trazado_126742" data-name="Trazado 126742" d="M5.447,10.9a6.094,6.094,0,0,0,6.016-5.729A5.4,5.4,0,0,0,5.735-.268,6.094,6.094,0,0,0-.281,5.461,5.4,5.4,0,0,0,5.447,10.9Z" transform="translate(11.078 14.104) rotate(-157.5)" fill="#fff"/>
        <path id="Trazado_126743" data-name="Trazado 126743" d="M4.274,9.412A4.821,4.821,0,0,0,8.833,4.559,4.465,4.465,0,0,0,4.421-.146,4.821,4.821,0,0,0-.138,4.706,4.465,4.465,0,0,0,4.274,9.412Z" transform="translate(4.437 12.348) rotate(-103.283)" fill="#2b3340"/>
        <path id="Trazado_126718" data-name="Trazado 126718" d="M2662.833,250.885a1.38,1.38,0,1,1-1.376-1.282A1.332,1.332,0,0,1,2662.833,250.885Z" transform="translate(-2656.813 -246.021)" fill="#fff"/>
        <path id="Trazado_126744" data-name="Trazado 126744" d="M1.831,3.944A2.224,2.224,0,0,0,3.944,1.831,1.874,1.874,0,0,0,1.976-.136,2.224,2.224,0,0,0-.136,1.976,1.874,1.874,0,0,0,1.831,3.944Z" transform="translate(10.867 11.246) rotate(-135)" fill="#fff"/>
      </g>
      <g id="Grupo_93296" data-name="Grupo 93296" transform="translate(2468.28 230.071)">
        <path id="Trazado_126719" data-name="Trazado 126719" d="M2550.589,358.955c-4.244,5.763-11.416,11.135-18.387,10.2s-11.416-7.853-10.723-14.09a65.319,65.319,0,0,0,14.07,3.48A74.114,74.114,0,0,0,2550.589,358.955Z" transform="translate(-2521.408 -355.07)" fill="#550e0f"/>
        <path id="Trazado_126720" data-name="Trazado 126720" d="M2561.906,382.744a16.677,16.677,0,0,0-10.855,2.053,12.2,12.2,0,0,0,8.494,5.43c3.749.5,7.556-.823,10.935-3.049C2568.953,384.986,2565.859,383.272,2561.906,382.744Z" transform="translate(-2548.751 -376.137)" fill="#d13a3f"/>
        <g id="Grupo_93295" data-name="Grupo 93295" transform="translate(0.375 0.305)">
          <path id="Trazado_126721" data-name="Trazado 126721" d="M2610.981,362.983c.693-.645,1.315-1.051,1.752-1.466-1.067-.263-2.038-.53-2.891-.78a15.78,15.78,0,0,0,.688,2.178C2610.583,363.11,2610.808,363.144,2610.981,362.983Z" transform="translate(-2606.162 -359.715)" fill="#fff"/>
          <path id="Trazado_126722" data-name="Trazado 126722" d="M2623.841,358.557c.066.191.295.215.458.047.549-.567,1.059-.962,1.452-1.332-1.2-.36-2.136-.679-2.749-.9,0,.005-.009.012-.008.017A14.139,14.139,0,0,0,2623.841,358.557Z" transform="translate(-2622.486 -356.373)" fill="#fff"/>
          <path id="Trazado_126723" data-name="Trazado 126723" d="M2597.427,366.7c.695-.647,1.319-1.054,1.756-1.471-1.016-.2-1.98-.408-2.88-.623.082.558.437,1.141.673,2.027C2597.028,366.832,2597.254,366.866,2597.427,366.7Z" transform="translate(-2589.208 -362.681)" fill="#fff"/>
          <path id="Trazado_126724" data-name="Trazado 126724" d="M2583.905,369.622c.64-.6,1.221-.987,1.65-1.371-.936-.131-1.843-.279-2.714-.44.135.478.416,1.006.613,1.743C2583.507,369.749,2583.732,369.783,2583.905,369.622Z" transform="translate(-2572.196 -365.132)" fill="#fff"/>
          <path id="Trazado_126725" data-name="Trazado 126725" d="M2526.117,373.786a23.159,23.159,0,0,0,2.123-1.748.129.129,0,0,0,.017-.076c-.7.044-1.76.1-3.084.122.127.447.349.949.5,1.621C2525.714,373.9,2525.938,373.943,2526.117,373.786Z" transform="translate(-2500.397 -368.311)" fill="#fff"/>
          <path id="Trazado_126726" data-name="Trazado 126726" d="M2540.349,374.258a25.3,25.3,0,0,0,1.951-1.826c-.935.012-1.989.007-3.129-.024.149.494.476,1.027.722,1.8C2539.955,374.4,2540.183,374.425,2540.349,374.258Z" transform="translate(-2517.961 -368.653)" fill="#fff"/>
          <path id="Trazado_126727" data-name="Trazado 126727" d="M2555.019,373.487c.753-.753,1.433-1.2,1.846-1.691-.958-.033-1.971-.086-3.025-.165.149.5.476,1.03.723,1.8C2554.625,373.627,2554.853,373.653,2555.019,373.487Z" transform="translate(-2536.213 -368.058)" fill="#fff"/>
          <path id="Trazado_126728" data-name="Trazado 126728" d="M2569.768,371.887c.627-.627,1.2-1.04,1.619-1.445-.9-.076-1.822-.172-2.761-.291.162.463.459.972.687,1.683C2569.374,372.027,2569.6,372.053,2569.768,371.887Z" transform="translate(-2554.453 -366.924)" fill="#fff"/>
          <path id="Trazado_126729" data-name="Trazado 126729" d="M2628.9,373.677c-.842-.031-1.485-.142-2.048-.185a13.552,13.552,0,0,0,.724,2.151c.428-.415.819-.971,1.482-1.619C2629.222,373.86,2629.143,373.686,2628.9,373.677Z" transform="translate(-2626.848 -369.483)" fill="#fff"/>
          <path id="Trazado_126730" data-name="Trazado 126730" d="M2625.078,384.279c.115-.19-.017-.337-.265-.294-.813.143-1.467.177-2.026.249a13.67,13.67,0,0,0,1.225,2.04C2624.365,385.772,2624.572,385.114,2625.078,384.279Z" transform="translate(-2621.804 -377.513)" fill="#fff"/>
          <path id="Trazado_126731" data-name="Trazado 126731" d="M2619.426,392.061c.075-.209-.1-.335-.347-.252-.834.281-1.521.419-2.094.587a13.076,13.076,0,0,0,1.76,1.925C2619.031,393.745,2619.079,393.029,2619.426,392.061Z" transform="translate(-2614.669 -383.49)" fill="#fff"/>
          <path id="Trazado_126732" data-name="Trazado 126732" d="M2628.326,394.951h0Z" transform="translate(-2626.404 -385.915)" fill="#fff"/>
          <path id="Trazado_126733" data-name="Trazado 126733" d="M2610.779,399.817c.035-.213-.164-.313-.4-.2-.885.432-1.621.662-2.2.938a12.125,12.125,0,0,0,2.349,1.548C2610.708,401.506,2610.618,400.8,2610.779,399.817Z" transform="translate(-2603.794 -389.453)" fill="#fff"/>
          <path id="Trazado_126734" data-name="Trazado 126734" d="M2597.951,404.738c-.9.655-1.667,1.015-2.191,1.45a11.6,11.6,0,0,0,2.971.9c.021-.6-.245-1.255-.333-2.222C2598.378,404.652,2598.155,404.59,2597.951,404.738Z" transform="translate(-2588.621 -393.348)" fill="#fff"/>
          <path id="Trazado_126735" data-name="Trazado 126735" d="M2535.135,386.687c-.234-.052-.41.089-.351.282.209.7.255,1.264.376,1.73.658-.537,1.291-1.106,1.9-1.7C2536.527,386.914,2535.892,386.857,2535.135,386.687Z" transform="translate(-2511.612 -379.579)" fill="#fff"/>
          <path id="Trazado_126736" data-name="Trazado 126736" d="M2545.171,394.788c-.023.83-.186,1.452-.188,1.979a25.506,25.506,0,0,0,2.2-1.514c-.449-.184-.986-.369-1.591-.67A.268.268,0,0,0,2545.171,394.788Z" transform="translate(-2524.303 -385.603)" fill="#fff"/>
          <path id="Trazado_126737" data-name="Trazado 126737" d="M2557.522,401.291c-.416-.275-.935-.562-1.5-.992a.286.286,0,0,0-.469.148c-.242.941-.6,1.6-.7,2.185A20.829,20.829,0,0,0,2557.522,401.291Z" transform="translate(-2537.127 -389.957)" fill="#fff"/>
          <path id="Trazado_126738" data-name="Trazado 126738" d="M2568.557,405.294c-.417.913-.9,1.528-1.1,2.1a15.935,15.935,0,0,0,3.019-.829c-.369-.382-.891-.768-1.432-1.36A.287.287,0,0,0,2568.557,405.294Z" transform="translate(-2553.246 -393.694)" fill="#fff"/>
          <path id="Trazado_126739" data-name="Trazado 126739" d="M2583.125,407.04c-.594.793-1.171,1.311-1.523,1.82a12.578,12.578,0,0,0,3.144-.012c-.239-.508-.709-1.02-1.135-1.812A.28.28,0,0,0,2583.125,407.04Z" transform="translate(-2571.075 -395.064)" fill="#fff"/>
        </g>
      </g>
      <path id="Trazado_126740" data-name="Trazado 126740" d="M2449.287,297.708c.431.121.979-.4,1.224-1.158s.094-1.474-.337-1.594-.979.4-1.224,1.158S2448.856,297.588,2449.287,297.708Z" transform="translate(65.081 -78.95)" fill="#233c5b"/>
      <path id="Trazado_126741" data-name="Trazado 126741" d="M2462.277,295.609c.368.4,1.248.261,1.964-.311s1-1.36.63-1.76-1.248-.261-1.964.311S2461.909,295.209,2462.277,295.609Z" transform="translate(47.336 -77.703)" fill="#233c5b"/>
    </g>
  </g>
</svg>
