<svg xmlns="http://www.w3.org/2000/svg" xmlns:xlink="http://www.w3.org/1999/xlink" width="85" height="85" viewBox="0 0 85 85">
  <defs>
    <clipPath id="clip-path">
      <rect id="Rectángulo_35207" data-name="Rectángulo 35207" width="85" height="85" transform="translate(1020 1456)" fill="#fff"/>
    </clipPath>
  </defs>
  <g id="_9" data-name="9" transform="translate(-1006 -2165)">
    <circle id="Elipse_4790" data-name="Elipse 4790" cx="42.5" cy="42.5" r="42.5" transform="translate(1006 2165)" fill="#ffd947"/>
    <g id="Enmascarar_grupo_93" data-name="Enmascarar grupo 93" transform="translate(-14 709)" clip-path="url(#clip-path)">
      <g id="autobus" transform="translate(1020 1456)">
        <path id="Trazado_121621" data-name="Trazado 121621" d="M20.841,20.113H3.8a2.461,2.461,0,0,0-2.461,2.461V55.391A2.461,2.461,0,0,0,3.8,57.853h9.848c-.005-.116-.009-.232-.009-.349a7.384,7.384,0,1,1,14.767,0c0,.117,0,.233-.009.349H58.386c-.005-.116-.009-.232-.009-.349a7.384,7.384,0,1,1,14.767,0c0,.117,0,.233-.009.349H81.2a2.461,2.461,0,0,0,2.461-2.462V28.748a8.638,8.638,0,0,0-8.638-8.634h-49.7" fill="#ff5357"/>
        <path id="Trazado_121622" data-name="Trazado 121622" d="M6.185,55.391V22.575a2.461,2.461,0,0,1,2.461-2.461H5.127a2.461,2.461,0,0,0-2.461,2.461V55.391a2.461,2.461,0,0,0,2.461,2.462H8.646A2.462,2.462,0,0,1,6.185,55.391Z" fill="#ed3a47"/>
        <g id="Grupo_89355" data-name="Grupo 89355">
          <circle id="Elipse_4786" data-name="Elipse 4786" cx="7.383" cy="7.383" r="7.383" transform="translate(58.378 50.12)" fill="#5b5e5e"/>
          <circle id="Elipse_4787" data-name="Elipse 4787" cx="7.383" cy="7.383" r="7.383" transform="translate(13.643 50.12)" fill="#5b5e5e"/>
        </g>
        <g id="Grupo_89356" data-name="Grupo 89356">
          <circle id="Elipse_4788" data-name="Elipse 4788" cx="2.536" cy="2.536" r="2.536" transform="translate(63.225 54.967)" fill="#e6e9ed"/>
          <circle id="Elipse_4789" data-name="Elipse 4789" cx="2.536" cy="2.536" r="2.536" transform="translate(18.49 54.967)" fill="#e6e9ed"/>
        </g>
        <rect id="Rectángulo_35208" data-name="Rectángulo 35208" width="20.373" height="31.586" transform="translate(33.27 26.266)" fill="#97d3ee"/>
        <rect id="Rectángulo_35209" data-name="Rectángulo 35209" width="10.187" height="31.586" transform="translate(33.27 26.266)" fill="#52b2cc"/>
        <rect id="Rectángulo_35210" data-name="Rectángulo 35210" width="20.373" height="14.042" transform="translate(33.27 43.461)" fill="#ef4556"/>
        <rect id="Rectángulo_35211" data-name="Rectángulo 35211" width="10.187" height="14.042" transform="translate(33.27 43.461)" fill="#e23740"/>
        <path id="Trazado_121623" data-name="Trazado 121623" d="M73.989,43.461h9.669V28.132H65.76V43.461h3.755" fill="#97d3ee"/>
        <rect id="Rectángulo_35212" data-name="Rectángulo 35212" width="12.116" height="15.329" transform="translate(53.643 28.132)" fill="#52b2cc"/>
        <rect id="Rectángulo_35213" data-name="Rectángulo 35213" width="12.116" height="15.329" transform="translate(21.026 28.132)" fill="#97d3ee"/>
        <rect id="Rectángulo_35214" data-name="Rectángulo 35214" width="12.118" height="15.329" transform="translate(8.909 28.132)" fill="#52b2cc"/>
        <path id="Trazado_121624" data-name="Trazado 121624" d="M1.342,52.725V47.74h2.6a2.493,2.493,0,0,1,0,4.985h-2.6Z" fill="#f98b38"/>
        <path id="Trazado_121625" data-name="Trazado 121625" d="M83.658,52.725V47.74H79.826a2.493,2.493,0,0,0,0,4.985h3.831Z" fill="#97d3ee"/>
        <g id="Grupo_89357" data-name="Grupo 89357">
          <path id="Trazado_121626" data-name="Trazado 121626" d="M18.332,57.5a7.385,7.385,0,0,1,5.624-7.171,7.384,7.384,0,1,0,0,14.342A7.386,7.386,0,0,1,18.332,57.5Z" fill="#424444"/>
          <path id="Trazado_121627" data-name="Trazado 121627" d="M63.222,57.5a7.385,7.385,0,0,1,5.624-7.171,7.384,7.384,0,1,0,0,14.342A7.386,7.386,0,0,1,63.222,57.5Z" fill="#424444"/>
        </g>
        <path id="Trazado_121628" data-name="Trazado 121628" d="M81.188,50.12a2.493,2.493,0,0,1,2.493-2.493H80.161a2.493,2.493,0,1,0,0,4.985h3.519A2.493,2.493,0,0,1,81.188,50.12Z" fill="#6cc6e4"/>
        <g id="Grupo_89358" data-name="Grupo 89358">
          <path id="Trazado_121629" data-name="Trazado 121629" d="M84.952,27.781a9.994,9.994,0,0,0-9.932-9.01h-49.7a1.342,1.342,0,0,0,0,2.684h49.7a7.308,7.308,0,0,1,7.026,5.335H54.986v-.524a1.342,1.342,0,0,0-1.342-1.342H33.27a1.342,1.342,0,0,0-1.342,1.342v.524H8.908a1.342,1.342,0,0,0-1.342,1.342V43.461A1.342,1.342,0,0,0,8.908,44.8h23.02V56.51H29.7c-.007-.066-.018-.131-.027-.2s-.015-.114-.023-.171c-.014-.089-.031-.177-.047-.265-.009-.05-.018-.1-.028-.15-.022-.108-.048-.215-.074-.322-.007-.028-.013-.057-.02-.086q-.052-.2-.113-.4c-.013-.041-.027-.081-.041-.122-.03-.09-.059-.181-.092-.27-.019-.051-.039-.1-.059-.153-.03-.077-.059-.154-.091-.23-.023-.054-.047-.108-.071-.162-.032-.071-.063-.142-.1-.213-.026-.055-.054-.109-.081-.163s-.068-.135-.1-.2-.059-.108-.089-.162-.073-.129-.111-.193-.065-.106-.1-.159-.079-.125-.119-.186-.069-.1-.1-.154-.085-.121-.128-.18-.073-.1-.111-.149-.091-.117-.137-.174-.077-.1-.116-.143-.1-.113-.147-.169-.08-.091-.12-.135-.105-.112-.159-.167-.08-.084-.122-.125c-.057-.057-.117-.112-.175-.168-.04-.037-.078-.075-.118-.111-.068-.062-.139-.122-.209-.181-.033-.028-.064-.056-.1-.084q-.156-.128-.317-.25l-.077-.055c-.084-.061-.168-.122-.253-.18-.042-.028-.085-.055-.128-.083-.071-.046-.142-.093-.214-.137-.048-.03-.1-.057-.146-.086-.069-.04-.137-.081-.207-.119l-.157-.083c-.068-.036-.137-.072-.206-.106-.054-.027-.109-.052-.164-.078s-.138-.064-.209-.094l-.17-.071c-.071-.029-.141-.057-.213-.084l-.174-.064c-.072-.025-.144-.05-.217-.074l-.177-.056c-.074-.022-.148-.043-.223-.063l-.179-.047c-.076-.019-.153-.036-.23-.053-.06-.013-.119-.027-.18-.039-.079-.016-.159-.029-.239-.043-.059-.01-.118-.021-.177-.03-.084-.012-.169-.022-.253-.032-.056-.007-.112-.014-.169-.02-.095-.009-.19-.016-.286-.022-.047,0-.094-.008-.142-.01-.144-.007-.288-.011-.433-.011s-.29,0-.433.011c-.048,0-.095.007-.142.01-.1.006-.191.012-.286.022-.057.005-.113.013-.169.02-.085.01-.169.02-.253.032-.06.009-.119.02-.178.03-.08.013-.159.027-.238.043-.06.012-.12.026-.181.039-.076.017-.153.034-.228.053l-.181.048c-.074.02-.148.041-.221.063l-.179.056q-.108.035-.215.073l-.176.064c-.071.027-.141.055-.21.083l-.172.072c-.069.03-.138.062-.206.093l-.166.079c-.068.034-.136.069-.2.1s-.107.055-.159.085c-.068.038-.135.077-.2.117-.05.029-.1.058-.15.088-.07.043-.139.088-.208.133-.044.029-.09.057-.133.087-.082.056-.162.114-.241.172-.03.021-.06.042-.089.064q-.161.121-.316.248c-.036.029-.07.06-.1.09-.068.058-.136.115-.2.175-.042.038-.082.077-.123.115-.057.054-.115.108-.171.163s-.083.085-.125.128-.105.108-.156.164-.082.091-.123.137-.1.111-.145.167-.079.1-.118.145-.091.114-.135.172-.075.1-.112.151-.085.118-.127.178-.071.1-.105.156-.08.123-.119.184-.066.106-.1.161-.074.127-.11.191-.061.109-.09.164-.069.133-.1.2-.055.11-.082.165-.064.14-.1.211c-.024.054-.049.108-.072.163-.032.075-.061.152-.09.228-.02.052-.041.1-.06.156-.032.089-.062.178-.091.268-.013.041-.028.082-.041.123q-.061.2-.113.4c-.008.03-.014.06-.021.09-.026.105-.051.211-.074.318-.01.05-.019.1-.028.151-.017.088-.033.175-.047.264-.009.057-.016.114-.023.171s-.02.131-.027.2H3.8a1.121,1.121,0,0,1-1.119-1.119V54.068H3.943a3.835,3.835,0,1,0,0-7.67H2.684V22.575A1.121,1.121,0,0,1,3.8,21.455H20.842a1.342,1.342,0,0,0,0-2.684H3.8a3.808,3.808,0,0,0-3.8,3.8V55.391a3.808,3.808,0,0,0,3.8,3.8h8.663a8.725,8.725,0,0,0,17.119,0H57.2a8.725,8.725,0,0,0,17.119,0H81.2a3.808,3.808,0,0,0,3.8-3.8V28.132A1.352,1.352,0,0,0,84.952,27.781ZM3.943,49.082a1.151,1.151,0,1,1,0,2.3H2.684v-2.3H3.943ZM64.418,29.474V42.119H54.986V29.474ZM34.612,44.8H52.3V56.161H34.612ZM52.3,28.132V42.119H44.8V27.609h7.5v.524h0Zm-10.187-.524v14.51h-7.5V27.609ZM10.251,29.474h9.433V42.119H10.251ZM31.8,42.119H22.368V29.474H31.8ZM21.026,63.545a6.049,6.049,0,0,1-6.034-5.752h0c0-.1-.007-.192-.007-.289a6.041,6.041,0,1,1,12.083,0c0,.1,0,.193-.007.289h0A6.049,6.049,0,0,1,21.026,63.545Zm44.735,0A6.049,6.049,0,0,1,59.727,57.8s0-.007,0-.01c0-.095-.007-.189-.007-.285a6.041,6.041,0,1,1,6.041,6.041ZM81.2,56.51H74.43c-.007-.066-.018-.131-.027-.2s-.015-.114-.023-.171c-.014-.089-.031-.176-.047-.264-.009-.05-.018-.1-.028-.151-.022-.107-.047-.213-.074-.318-.007-.03-.013-.06-.021-.09q-.052-.2-.113-.4c-.013-.042-.028-.082-.041-.123-.029-.09-.059-.18-.091-.268-.019-.052-.04-.1-.06-.156-.029-.076-.058-.153-.09-.228-.023-.055-.048-.109-.072-.163-.031-.071-.062-.141-.1-.211s-.054-.11-.082-.165-.067-.134-.1-.2-.06-.11-.09-.164-.072-.128-.11-.191-.065-.108-.1-.161-.078-.123-.118-.184-.07-.1-.106-.156-.084-.119-.127-.178-.074-.1-.112-.151-.09-.115-.135-.172-.078-.1-.118-.145-.1-.112-.145-.167-.081-.092-.123-.138-.1-.109-.156-.163-.083-.086-.125-.128-.113-.109-.17-.163c-.041-.039-.082-.078-.124-.116-.066-.059-.133-.116-.2-.173-.036-.03-.07-.062-.106-.091q-.155-.128-.316-.248c-.029-.022-.06-.042-.089-.064-.08-.058-.16-.116-.241-.172-.044-.03-.089-.058-.133-.087-.069-.045-.138-.09-.208-.133-.049-.03-.1-.059-.15-.088-.067-.039-.134-.079-.2-.117-.053-.029-.106-.057-.16-.085s-.135-.071-.2-.1-.111-.053-.167-.079-.137-.063-.206-.093l-.172-.072c-.07-.028-.14-.056-.21-.083l-.176-.064q-.107-.038-.216-.073l-.179-.056c-.073-.022-.147-.043-.221-.063l-.18-.048c-.076-.019-.152-.036-.229-.053-.06-.013-.12-.027-.181-.039-.079-.016-.158-.029-.238-.043l-.178-.03c-.084-.012-.168-.022-.253-.032-.056-.007-.112-.014-.169-.02-.095-.009-.19-.016-.286-.022-.048,0-.095-.008-.142-.01-.144-.007-.288-.011-.433-.011s-.29,0-.433.011c-.048,0-.095.007-.142.01-.1.006-.191.012-.286.022-.057.005-.112.013-.169.02-.085.01-.17.02-.253.032-.059.009-.118.019-.177.03-.08.014-.16.027-.239.043l-.18.039c-.077.017-.154.034-.23.053l-.179.047c-.075.02-.149.041-.223.063l-.177.056q-.109.035-.217.074l-.174.064q-.107.041-.212.084l-.17.071c-.07.03-.14.062-.209.094s-.11.051-.164.078c-.069.034-.138.07-.206.106-.052.028-.1.054-.157.083-.07.039-.138.079-.207.119-.049.029-.1.056-.146.086-.072.044-.143.091-.214.137-.043.028-.086.055-.128.083-.085.058-.169.118-.252.179l-.079.056q-.162.121-.317.249c-.033.027-.065.056-.1.084-.07.06-.141.119-.209.181-.04.036-.079.074-.118.111-.059.055-.118.11-.175.168-.041.041-.081.083-.122.125s-.107.11-.159.167-.081.09-.121.135-.1.112-.147.169-.078.1-.117.143-.092.115-.137.174-.074.1-.111.149-.086.119-.128.18-.07.1-.1.155-.08.124-.119.186-.066.106-.1.159-.075.128-.111.193-.061.108-.09.163-.069.133-.1.2-.055.109-.081.165-.064.141-.1.211c-.024.054-.049.108-.072.163-.032.076-.061.152-.09.229-.02.051-.041.1-.06.154-.032.088-.061.178-.091.268-.014.042-.029.082-.042.124q-.061.2-.113.4c-.008.03-.014.06-.021.09-.026.105-.051.211-.074.318-.01.05-.019.1-.028.152-.016.087-.033.175-.047.263-.009.057-.016.115-.024.172s-.019.13-.027.2H54.988V44.8H69.517a1.342,1.342,0,0,0,0-2.684H67.105V29.474H82.316V42.119H73.989a1.342,1.342,0,0,0,0,2.684h8.327V46.4H79.827a3.835,3.835,0,0,0,0,7.67h2.489v1.323A1.122,1.122,0,0,1,81.2,56.51Zm1.119-5.127H79.827a1.151,1.151,0,1,1,0-2.3h2.489Z" fill="#231f20"/>
          <path id="Trazado_121630" data-name="Trazado 121630" d="M21.026,53.625A3.878,3.878,0,1,0,24.9,57.5,3.882,3.882,0,0,0,21.026,53.625Zm0,5.072A1.194,1.194,0,1,1,22.22,57.5,1.2,1.2,0,0,1,21.026,58.7Z" fill="#231f20"/>
          <path id="Trazado_121631" data-name="Trazado 121631" d="M65.761,53.625A3.878,3.878,0,1,0,69.639,57.5,3.882,3.882,0,0,0,65.761,53.625Zm0,5.072A1.194,1.194,0,1,1,66.955,57.5,1.2,1.2,0,0,1,65.761,58.7Z" fill="#231f20"/>
        </g>
      </g>
    </g>
  </g>
</svg>
