<svg xmlns="http://www.w3.org/2000/svg" xmlns:xlink="http://www.w3.org/1999/xlink" width="54" height="54" viewBox="0 0 54 54">
  <defs>
    <clipPath id="clip-path">
      <rect id="Rectángulo_35815" data-name="Rectángulo 35815" width="54" height="54" transform="translate(600 11507)" fill="#fff" stroke="#707070" stroke-width="1"/>
    </clipPath>
  </defs>
  <g id="_95" data-name="95" transform="translate(-600 -11507)" clip-path="url(#clip-path)">
    <g id="anciano" transform="translate(600 11507)">
      <path id="Trazado_127408" data-name="Trazado 127408" d="M40.828,53.209a3.886,3.886,0,0,0,3.826-4.6C42.849,39.192,35.63,32.067,27,32.067S11.151,39.192,9.346,48.607a3.886,3.886,0,0,0,3.826,4.6Z" fill="#fbf1cf"/>
      <path id="Trazado_127409" data-name="Trazado 127409" d="M25.615,41.856c-.709.681-4.15,2.163-6.367,3.033a2.158,2.158,0,0,1-2.888-1.513,16.3,16.3,0,0,1,0-6.883,2.158,2.158,0,0,1,2.888-1.513c2.218.87,5.659,2.352,6.367,3.033Z" fill="#e68a97"/>
      <path id="Trazado_127410" data-name="Trazado 127410" d="M16.359,36.492a14.144,14.144,0,0,0-.332,2.336,20.976,20.976,0,0,0,4.7,1.959,6.655,6.655,0,0,0,1.164,3.007,18.372,18.372,0,0,0,3.722-1.939V38.012c-.709-.681-4.15-2.163-6.367-3.033A2.158,2.158,0,0,0,16.359,36.492Z" fill="#e26e7e"/>
      <path id="Trazado_127411" data-name="Trazado 127411" d="M28.386,41.856c.709.681,4.15,2.163,6.367,3.033a2.158,2.158,0,0,0,2.888-1.513,16.306,16.306,0,0,0,0-6.883,2.158,2.158,0,0,0-2.888-1.513c-2.218.87-5.659,2.352-6.367,3.033Z" fill="#e68a97"/>
      <path id="Trazado_127412" data-name="Trazado 127412" d="M37.641,36.492a14.144,14.144,0,0,1,.332,2.336,20.974,20.974,0,0,1-4.7,1.959,6.656,6.656,0,0,1-1.164,3.007,18.371,18.371,0,0,1-3.722-1.939V38.012c.709-.681,4.15-2.163,6.367-3.033A2.158,2.158,0,0,1,37.641,36.492Z" fill="#e26e7e"/>
      <ellipse id="Elipse_4875" data-name="Elipse 4875" cx="3.162" cy="3.39" rx="3.162" ry="3.39" transform="translate(23.838 36.544)" fill="#e68a97"/>
      <path id="Trazado_127413" data-name="Trazado 127413" d="M43.722,11.058a.791.791,0,0,1-.571-.881,6.235,6.235,0,0,0-9.329-6.3.763.763,0,0,1-.994-.193,7.313,7.313,0,0,0-11.657,0,.763.763,0,0,1-.994.193,6.235,6.235,0,0,0-9.329,6.3.79.79,0,0,1-.57.88,5.6,5.6,0,1,0,7.014,4.422A6.22,6.22,0,0,0,21.8,13.247a7.31,7.31,0,0,0,10.4,0,6.22,6.22,0,0,0,4.507,2.232,5.6,5.6,0,1,0,7.015-4.422Z" fill="#abb6c4"/>
      <path id="Trazado_127414" data-name="Trazado 127414" d="M15.081,3.325a6.243,6.243,0,0,0-4.232,6.852.79.79,0,0,1-.57.88,5.6,5.6,0,1,0,7.014,4.422,6.2,6.2,0,0,0,3.354-1.161c-3.717-.366-7.065-6.862-5.565-10.994Z" fill="#999fb0"/>
      <ellipse id="Elipse_4876" data-name="Elipse 4876" cx="4.674" cy="4.117" rx="4.674" ry="4.117" transform="translate(4.756 18.998)" fill="#f2bb88"/>
      <ellipse id="Elipse_4877" data-name="Elipse 4877" cx="4.674" cy="4.117" rx="4.674" ry="4.117" transform="translate(39.896 18.998)" fill="#f2bb88"/>
      <path id="Trazado_127415" data-name="Trazado 127415" d="M9.917,23.093c0,9.043,7.648,15.387,17.083,15.387s17.083-6.345,17.083-15.387S36.435,9.028,27,9.028,9.917,14.051,9.917,23.093Z" fill="#f2d1a5"/>
      <g id="Grupo_93482" data-name="Grupo 93482">
        <g id="Grupo_93481" data-name="Grupo 93481">
          <ellipse id="Elipse_4878" data-name="Elipse 4878" cx="3.099" cy="2.468" rx="3.099" ry="2.468" transform="translate(15.501 22.696)" fill="#eda1ab"/>
          <ellipse id="Elipse_4879" data-name="Elipse 4879" cx="3.099" cy="2.468" rx="3.099" ry="2.468" transform="translate(32.301 22.696)" fill="#eda1ab"/>
        </g>
      </g>
      <path id="Trazado_127416" data-name="Trazado 127416" d="M27,28.791a3.149,3.149,0,0,0,2.231-.655.618.618,0,0,1,.645-.09,4.234,4.234,0,0,0,2.816.09.848.848,0,0,0,.519-1.054c-1.062-3.425-2.493-5.714-6.211-5.714s-5.149,2.29-6.211,5.714a.848.848,0,0,0,.519,1.054,4.235,4.235,0,0,0,2.816-.09.618.618,0,0,1,.645.09A3.149,3.149,0,0,0,27,28.791Z" fill="#abb6c4"/>
      <path id="Trazado_127417" data-name="Trazado 127417" d="M19.118,20.161a.791.791,0,0,0-.791.791v1.266a.791.791,0,0,0,1.582,0V20.952A.791.791,0,0,0,19.118,20.161ZM44.1,28c3.239.253,5.934-2.06,5.934-4.888a4.738,4.738,0,0,0-2.07-3.842A6.4,6.4,0,0,0,43.933,10.3a6.95,6.95,0,0,0-.048-2.38.791.791,0,0,0-1.553.3,5.371,5.371,0,0,1,.036,1.84,1.583,1.583,0,0,0,1.142,1.763,4.825,4.825,0,0,1,3.048,6.725,5.961,5.961,0,0,0-2.477-.317C41.679,11.343,34.373,8.237,27,8.237c-7.389,0-14.683,3.118-17.082,9.992a5.962,5.962,0,0,0-2.477.317,4.8,4.8,0,0,1,3.049-6.726,1.581,1.581,0,0,0,1.142-1.762,5.445,5.445,0,0,1,8.145-5.5,1.552,1.552,0,0,0,2.026-.4,6.522,6.522,0,0,1,10.4,0,1.552,1.552,0,0,0,2.026.4,5.441,5.441,0,0,1,6.5.74.791.791,0,1,0,1.09-1.147,7.022,7.022,0,0,0-8.376-.968,8.1,8.1,0,0,0-12.883,0A7.026,7.026,0,0,0,10.068,10.3a6.4,6.4,0,0,0-4.033,8.978,4.738,4.738,0,0,0-2.07,3.842c0,2.835,2.7,5.14,5.934,4.888a15.5,15.5,0,0,0,5.71,7.736,22.569,22.569,0,0,0-7.04,12.719A4.677,4.677,0,0,0,13.172,54h.91a.791.791,0,0,0,0-1.582h-.91a3.1,3.1,0,0,1-3.05-3.662,21.393,21.393,0,0,1,5.154-10.479,17.048,17.048,0,0,0,.312,5.281,2.951,2.951,0,0,0,3.947,2.067c1.569-.615,3.755-1.54,5.182-2.28a3.767,3.767,0,0,0,4.565,0c1.426.741,3.613,1.665,5.182,2.28a2.951,2.951,0,0,0,3.947-2.067,17.051,17.051,0,0,0,.312-5.281,21.392,21.392,0,0,1,5.154,10.479,3.1,3.1,0,0,1-3.05,3.662H17.841a.791.791,0,0,0,0,1.582H40.828a4.677,4.677,0,0,0,4.6-5.542,22.569,22.569,0,0,0-7.04-12.719A15.5,15.5,0,0,0,44.1,28Zm1.8-5.993a7.188,7.188,0,0,0-1.054.084,14.9,14.9,0,0,0-.318-2.3c2.093-.022,3.928,1.421,3.928,3.325s-1.819,3.348-3.93,3.325a15.845,15.845,0,0,0,.339-2.745,5.853,5.853,0,0,1,1.037-.1.791.791,0,0,0,0-1.582Zm-40.35,1.1A3.648,3.648,0,0,1,9.475,19.79a14.921,14.921,0,0,0-.318,2.3A6.969,6.969,0,0,0,8.1,22.011a.791.791,0,0,0,0,1.582,5.852,5.852,0,0,1,1.037.1,15.845,15.845,0,0,0,.339,2.745C7.356,26.463,5.547,25,5.547,23.115ZM18.958,44.152a1.368,1.368,0,0,1-1.83-.959,15.521,15.521,0,0,1-.01-6.474,18.949,18.949,0,0,0,6.046,2.2,4.367,4.367,0,0,0,.468,3.2C22.276,42.8,20.366,43.6,18.958,44.152ZM27,42.533a2.568,2.568,0,0,1-2.261-3.38,21.505,21.505,0,0,0,4.521,0A2.568,2.568,0,0,1,27,42.533Zm9.871.661a1.368,1.368,0,0,1-1.83.959c-1.407-.552-3.318-1.355-4.674-2.03a4.367,4.367,0,0,0,.468-3.2,18.944,18.944,0,0,0,6.046-2.2A15.519,15.519,0,0,1,36.871,43.193ZM27,37.69c-9.075,0-16.292-6.069-16.292-14.6,0-8.73,7.5-13.274,16.292-13.274s16.292,4.547,16.292,13.274C43.292,31.611,36.086,37.69,27,37.69Zm.794,10.244a.794.794,0,1,0-.794.794A.794.794,0,0,0,27.794,47.933ZM27,20.577c-4.413,0-5.956,3.014-6.966,6.271a1.632,1.632,0,0,0,1.013,2.035,5.035,5.035,0,0,0,3.3-.072A3.958,3.958,0,0,0,27,29.582a3.958,3.958,0,0,0,2.656-.771,5.036,5.036,0,0,0,3.3.072,1.632,1.632,0,0,0,1.013-2.035c-1.01-3.257-2.553-6.271-6.966-6.271Zm5.43,6.813a3.477,3.477,0,0,1-2.244-.071,1.4,1.4,0,0,0-1.47.217A2.36,2.36,0,0,1,27,28a2.36,2.36,0,0,1-1.716-.464,1.4,1.4,0,0,0-1.47-.217,3.478,3.478,0,0,1-2.244.072.06.06,0,0,1-.025-.073c1.013-3.267,2.23-5.158,5.455-5.158s4.442,1.891,5.455,5.158a.06.06,0,0,1-.025.073ZM40.716,21.2a.791.791,0,0,0-1.022-.455,6.429,6.429,0,0,1-1.441.328.791.791,0,1,0,.224,1.566,7.829,7.829,0,0,0,1.784-.417.791.791,0,0,0,.455-1.022ZM21.645,16.322A34.46,34.46,0,0,1,27,15.868a34.474,34.474,0,0,1,5.355.454.791.791,0,0,0,.283-1.557A35.761,35.761,0,0,0,27,14.286a35.758,35.758,0,0,0-5.638.479.791.791,0,0,0,.283,1.557Zm-5.9,4.748a6.407,6.407,0,0,1-1.441-.328.791.791,0,0,0-.567,1.477,7.856,7.856,0,0,0,1.784.417.791.791,0,0,0,.224-1.566Zm19.135-.909a.791.791,0,0,0-.791.791v1.266a.791.791,0,1,0,1.582,0V20.952A.791.791,0,0,0,34.882,20.161Z"/>
    </g>
  </g>
</svg>
