<svg xmlns="http://www.w3.org/2000/svg" xmlns:xlink="http://www.w3.org/1999/xlink" width="54" height="54" viewBox="0 0 54 54">
  <defs>
    <clipPath id="clip-path">
      <rect id="Rectángulo_35817" data-name="Rectángulo 35817" width="54" height="54" transform="translate(600 11635)" fill="#fff" stroke="#707070" stroke-width="1"/>
    </clipPath>
  </defs>
  <g id="_97" data-name="97" transform="translate(-600 -11635)" clip-path="url(#clip-path)">
    <g id="casa" transform="translate(600 11635)">
      <path id="Trazado_127442" data-name="Trazado 127442" d="M5.01,38.074H8.174v5.7H5.01Z" fill="#a35418"/>
      <circle id="Elipse_4885" data-name="Elipse 4885" cx="5.801" cy="5.801" r="5.801" transform="translate(0.791 28.266)" fill="#64cc56"/>
      <path id="Trazado_127443" data-name="Trazado 127443" d="M6.592,28.266a5.807,5.807,0,0,0-1.582.218,5.8,5.8,0,0,1,0,11.165A5.8,5.8,0,1,0,6.592,28.266Z" fill="#50a645"/>
      <path id="Trazado_127444" data-name="Trazado 127444" d="M45.826,38.074H48.99v5.7H45.826Z" fill="#a35418"/>
      <circle id="Elipse_4886" data-name="Elipse 4886" cx="5.801" cy="5.801" r="5.801" transform="translate(41.607 28.266)" fill="#64cc56"/>
      <path id="Trazado_127445" data-name="Trazado 127445" d="M47.408,28.266a5.807,5.807,0,0,0-1.582.218,5.8,5.8,0,0,1,0,11.165,5.8,5.8,0,1,0,1.582-11.383Z" fill="#50a645"/>
      <path id="Trazado_127446" data-name="Trazado 127446" d="M42.82,43.77H11.18V20.685L27,8.543,42.82,20.684Z" fill="#ffd180"/>
      <path id="Trazado_127447" data-name="Trazado 127447" d="M39.656,18.256V43.77H42.82V20.684Z" fill="#ffba63"/>
      <path id="Trazado_127448" data-name="Trazado 127448" d="M46.1,21.1,27.963,7.182a1.582,1.582,0,0,0-1.926,0L7.9,21.1a1.582,1.582,0,1,0,1.926,2.51L27,10.432,44.177,23.614A1.582,1.582,0,1,0,46.1,21.1Z" fill="#ff7043"/>
      <path id="Trazado_127449" data-name="Trazado 127449" d="M51.521,47.145H2.479a1.688,1.688,0,0,1,0-3.375H51.521a1.688,1.688,0,0,1,0,3.375Z" fill="#a35418"/>
      <path id="Trazado_127450" data-name="Trazado 127450" d="M51.521,43.77H48.357a1.688,1.688,0,0,1,0,3.375h3.164a1.688,1.688,0,0,0,0-3.375Z" fill="#8c4815"/>
      <path id="Trazado_127451" data-name="Trazado 127451" d="M15.715,28.582h9.492V43.77H15.715Z" fill="#bf6724"/>
      <path id="Trazado_127452" data-name="Trazado 127452" d="M22.043,28.582h3.164V43.77H22.043Z" fill="#a35418"/>
      <path id="Trazado_127453" data-name="Trazado 127453" d="M38.918,38.074H28.371a.422.422,0,0,1-.422-.422v-2.32a.422.422,0,0,1,.422-.422H38.918a.422.422,0,0,1,.422.422v2.32A.422.422,0,0,1,38.918,38.074Z" fill="#ff7043"/>
      <path id="Trazado_127454" data-name="Trazado 127454" d="M38.918,34.91H35.754a.422.422,0,0,1,.422.422v2.32a.422.422,0,0,1-.422.422h3.164a.422.422,0,0,0,.422-.422v-2.32A.422.422,0,0,0,38.918,34.91Z" fill="#ff5722"/>
      <path id="Trazado_127455" data-name="Trazado 127455" d="M29,28.582h9.281V34.91H29Z" fill="#b2ebf2"/>
      <path id="Trazado_127456" data-name="Trazado 127456" d="M35.121,28.582h3.164V34.91H35.121Z" fill="#80deea"/>
      <circle id="Elipse_4887" data-name="Elipse 4887" cx="3.691" cy="3.691" r="3.691" transform="translate(23.309 16.194)" fill="#b2ebf2"/>
      <g id="Grupo_93498" data-name="Grupo 93498">
        <path id="Trazado_127457" data-name="Trazado 127457" d="M51.521,42.978h-1.74V40.214a6.592,6.592,0,1,0-6.17-11.539v-4.5l.085.065a2.373,2.373,0,0,0,3.327-.438,2.376,2.376,0,0,0-.438-3.327l-6.384-4.9a.791.791,0,0,0-.963,1.255l6.384,4.9a.791.791,0,0,1-.483,1.419.783.783,0,0,1-.48-.164L27.482,9.8a.791.791,0,0,0-.963,0L9.341,22.986a.791.791,0,1,1-.963-1.255L26.518,7.809a.792.792,0,0,1,.963,0l9.08,6.968a.791.791,0,1,0,.963-1.255l-9.08-6.968a2.377,2.377,0,0,0-2.889,0L7.415,20.476a2.373,2.373,0,1,0,2.89,3.765l.084-.065v4.5a6.592,6.592,0,1,0-6.17,11.539v2.764H2.479a2.479,2.479,0,0,0,0,4.957H43.861a.791.791,0,0,0,0-1.582H2.479a.9.9,0,0,1,0-1.793H51.521a.9.9,0,0,1,0,1.793H47.28a.791.791,0,0,0,0,1.582h4.242a2.479,2.479,0,0,0,0-4.957ZM47.408,29.056a5.01,5.01,0,1,1-3.8,8.277V30.8a4.977,4.977,0,0,1,3.8-1.742Zm-3.8,10.4a6.507,6.507,0,0,0,1.424.761v2.761H43.611Zm-33.223,0v3.522H8.965V40.218a6.507,6.507,0,0,0,1.424-.761ZM1.582,34.066A5.009,5.009,0,0,1,10.389,30.8v6.535a5.009,5.009,0,0,1-8.807-3.267ZM5.8,42.978V40.609a6.616,6.616,0,0,0,.791.049,6.709,6.709,0,0,0,.791-.047v2.368H5.8Zm20.2,0v-14.4a.791.791,0,0,0-.791-.791H15.715a.791.791,0,0,0-.791.791v9.363a.791.791,0,0,0,1.582,0V29.373h7.91V42.978h-7.91V41.341a.791.791,0,0,0-1.582,0v1.638H11.971V22.962L27,11.428,42.029,22.962V42.978Zm20.619,0V40.611a6.709,6.709,0,0,0,.791.047,6.616,6.616,0,0,0,.791-.049v2.369H46.617Z"/>
        <path id="Trazado_127458" data-name="Trazado 127458" d="M39.076,34.13V28.582a.791.791,0,0,0-.791-.791H29a.791.791,0,0,0-.791.791V34.13a1.214,1.214,0,0,0-1.055,1.2v2.32a1.214,1.214,0,0,0,1.213,1.213H38.918a1.214,1.214,0,0,0,1.213-1.213v-2.32A1.214,1.214,0,0,0,39.076,34.13Zm-1.582-.011H34.436V29.373h3.059Zm-7.7-4.746h3.059v4.746H29.795Zm8.754,7.91H28.74V35.7h9.809Z"/>
        <path id="Trazado_127459" data-name="Trazado 127459" d="M31.482,19.884A4.482,4.482,0,1,0,27,24.367a4.488,4.488,0,0,0,4.482-4.483ZM29.8,19.142H27.791V17.094A2.911,2.911,0,0,1,29.8,19.142Zm-3.595-2.048v2.048H24.2A2.911,2.911,0,0,1,26.209,17.094Zm-1.985,3.63h1.985v1.95A2.911,2.911,0,0,1,24.224,20.724Zm3.567,1.95v-1.95h1.985A2.911,2.911,0,0,1,27.791,22.674Z"/>
      </g>
    </g>
  </g>
</svg>
