<svg xmlns="http://www.w3.org/2000/svg" xmlns:xlink="http://www.w3.org/1999/xlink" width="54" height="54" viewBox="0 0 54 54">
  <defs>
    <clipPath id="clip-path">
      <rect id="Rectángulo_35818" data-name="Rectángulo 35818" width="54" height="54" transform="translate(895 11635)" fill="#fff" stroke="#707070" stroke-width="1"/>
    </clipPath>
  </defs>
  <g id="_98" data-name="98" transform="translate(-895 -11635)" clip-path="url(#clip-path)">
    <g id="marido" transform="translate(896.742 11635)">
      <g id="Grupo_93513" data-name="Grupo 93513">
        <g id="Grupo_93499" data-name="Grupo 93499">
          <path id="Trazado_127460" data-name="Trazado 127460" d="M23.272,15.059,22.4,12.89a8.863,8.863,0,0,1-.584-2.352c-.026-.3-.044-.6-.044-.906A8.743,8.743,0,0,1,30.536.871H37.4A8.764,8.764,0,0,1,45.534,12.89l-.871,2.169a2.523,2.523,0,0,0-1.115-.253h-.871V12.194l-5.243-.479A9.8,9.8,0,0,1,32.5,9.842l-7.246,3.223v1.742h-.871a2.523,2.523,0,0,0-1.115.253Z" fill="#656d78"/>
        </g>
        <g id="Grupo_93500" data-name="Grupo 93500">
          <path id="Trazado_127461" data-name="Trazado 127461" d="M11.323,30.484v1.742l-1.176.584A7.336,7.336,0,0,0,6.1,39.368v.078a7.425,7.425,0,0,0,1.333,4.276c.723,1.054,1.672,2.421,2.613,3.78.505.732,1.01,1.463,1.481,2.143H9.581a5.234,5.234,0,0,1-5.226-5.226l-.1-.052a6.118,6.118,0,0,1-2.735-8.2l1.1-2.195L2.2,33.558A4.555,4.555,0,0,1,.871,30.336a4.5,4.5,0,0,1,1-2.839,11.277,11.277,0,0,0,2.352-5.409l.183.026a2.681,2.681,0,0,0-.052.531,2.617,2.617,0,0,0,2.613,2.613h.888A6.3,6.3,0,0,0,11.323,30.484Z" fill="#b27946"/>
        </g>
        <g id="Grupo_93501" data-name="Grupo 93501">
          <path id="Trazado_127462" data-name="Trazado 127462" d="M6.968,20.032a2.617,2.617,0,0,0-2.561,2.082l-.183-.026a10.845,10.845,0,0,0,.131-1.681V18.29a10.452,10.452,0,0,1,17.463-7.752A8.863,8.863,0,0,0,22.4,12.89l.871,2.169a2.6,2.6,0,0,0-1.5,2.36l-3.51-.392A9.937,9.937,0,0,1,13.247,15l-.009.009-3.5,1a2.61,2.61,0,0,0-1.9,2.508v1.515Z" fill="#b27946"/>
        </g>
        <g id="Grupo_93502" data-name="Grupo 93502">
          <path id="Trazado_127463" data-name="Trazado 127463" d="M16.026,42.268,10.042,47.5c-.941-1.359-1.89-2.726-2.613-3.78A7.425,7.425,0,0,1,6.1,39.446v-.078a7.336,7.336,0,0,1,4.05-6.558l1.176-.584,5.226,4.355,1.742-4.355h1.533a7.917,7.917,0,0,1,1.7.174,8.784,8.784,0,0,1,3.841,1.751,2.443,2.443,0,0,0-1.437,1.672l-.409,1.629-5.792,7.081Z" fill="#fcd770"/>
        </g>
        <g id="Grupo_93503" data-name="Grupo 93503">
          <path id="Trazado_127464" data-name="Trazado 127464" d="M31.355,45.926l-3.484.235-1.228-1.228a1.747,1.747,0,0,0-1.237-.514h-.148c1.228-2.456,2.4-4.8,3.022-6.045a4.38,4.38,0,0,0,.462-1.96,2.438,2.438,0,0,0-2.447-2.447,2.372,2.372,0,0,0-.932.183A8.784,8.784,0,0,0,21.522,32.4v-.009a11.6,11.6,0,0,1,8.44-3.649h.523l3.484,6.1,3.484-6.1,4.712.671a8.719,8.719,0,0,1,7.482,8.623v6.384a8.713,8.713,0,0,1-8.71,8.71H31.355Z" fill="#75b1f2"/>
        </g>
        <g id="Grupo_93504" data-name="Grupo 93504">
          <path id="Trazado_127465" data-name="Trazado 127465" d="M31.355,45.926v7.2H27.871V46.161Z" fill="#5d9cec"/>
        </g>
        <g id="Grupo_93505" data-name="Grupo 93505">
          <path id="Trazado_127466" data-name="Trazado 127466" d="M18.29,49.645A3.457,3.457,0,0,0,19.8,52.511v.009a6.212,6.212,0,0,1-2.683.61h-.087a5.906,5.906,0,0,1-4.851-2.543q-.314-.444-.653-.941c-.47-.679-.975-1.411-1.481-2.143l5.984-5.235,1.7,2.265,5.792-7.081.409-1.629a2.443,2.443,0,0,1,1.437-1.672,2.372,2.372,0,0,1,.932-.183,2.438,2.438,0,0,1,2.447,2.447,4.38,4.38,0,0,1-.462,1.96c-.618,1.245-1.794,3.588-3.022,6.045a1.755,1.755,0,0,0-1.742,1.742H21.774a3.479,3.479,0,0,0-3.484,3.484Z" fill="#f0d0b4"/>
        </g>
        <g id="Grupo_93506" data-name="Grupo 93506">
          <path id="Trazado_127467" data-name="Trazado 127467" d="M27.871,46.161v6.968h-6.1a3.49,3.49,0,0,1-3.484-3.484,3.479,3.479,0,0,1,3.484-3.484h1.742a1.755,1.755,0,0,1,1.742-1.742h.148a1.747,1.747,0,0,1,1.237.514Z" fill="#f0d0b4"/>
        </g>
        <g id="Grupo_93507" data-name="Grupo 93507">
          <path id="Trazado_127468" data-name="Trazado 127468" d="M7.839,24.849c0,.139.009.27.017.409H6.968a2.617,2.617,0,0,1-2.613-2.613,2.681,2.681,0,0,1,.052-.531,2.617,2.617,0,0,1,2.561-2.082h.871Z" fill="#f0d0b4"/>
        </g>
        <g id="Grupo_93508" data-name="Grupo 93508">
          <path id="Trazado_127469" data-name="Trazado 127469" d="M21.774,20.032v4.816c0,.139-.009.27-.017.409a6.3,6.3,0,0,1-3.466,5.226v1.742l-1.742,4.355-5.226-4.355V30.484a6.3,6.3,0,0,1-3.466-5.226c-.009-.139-.017-.27-.017-.409V18.517a2.61,2.61,0,0,1,1.9-2.508l3.5-1L13.247,15a9.937,9.937,0,0,0,5.017,2.029l3.51.392Z" fill="#f0d0b4"/>
        </g>
        <g id="Grupo_93509" data-name="Grupo 93509">
          <path id="Trazado_127470" data-name="Trazado 127470" d="M24.492,24.492a2.607,2.607,0,0,1-1.846.766h-.888c.009-.139.017-.27.017-.409V20.032h.871a2.611,2.611,0,0,1,1.846,4.459Z" fill="#f0d0b4"/>
        </g>
        <g id="Grupo_93510" data-name="Grupo 93510">
          <path id="Trazado_127471" data-name="Trazado 127471" d="M44.663,15.059a2.612,2.612,0,0,1-1.115,4.973h-.88c.009-.1.009-.183.009-.279V14.806h.871a2.523,2.523,0,0,1,1.115.253Z" fill="#f0d0b4"/>
        </g>
        <g id="Grupo_93511" data-name="Grupo 93511">
          <path id="Trazado_127472" data-name="Trazado 127472" d="M42.677,14.806v4.947c0,.1,0,.183-.009.279A7.638,7.638,0,0,1,37.452,27v1.742l-3.484,6.1-3.484-6.1V27a7.638,7.638,0,0,1-5.217-6.968c-.009-.1-.009-.183-.009-.279V13.065L32.5,9.842a9.8,9.8,0,0,0,4.93,1.873l5.243.479Z" fill="#f0d0b4"/>
        </g>
        <g id="Grupo_93512" data-name="Grupo 93512">
          <path id="Trazado_127473" data-name="Trazado 127473" d="M25.258,19.754c0,.1,0,.183.009.279h-.88a2.611,2.611,0,0,1-1.115-4.973,2.523,2.523,0,0,1,1.115-.253h.871Z" fill="#f0d0b4"/>
        </g>
      </g>
      <g id="Grupo_93514" data-name="Grupo 93514">
        <circle id="Elipse_4888" data-name="Elipse 4888" cx="0.871" cy="0.871" r="0.871" transform="translate(29.613 13.935)"/>
        <circle id="Elipse_4889" data-name="Elipse 4889" cx="0.871" cy="0.871" r="0.871" transform="translate(36.581 13.935)"/>
        <path id="Trazado_127474" data-name="Trazado 127474" d="M35.228,19.253l-.988-.493a8.3,8.3,0,0,0,.6-3.082H33.1a6.537,6.537,0,0,1-.687,2.911l-.482.962,2.521,1.26Z"/>
        <path id="Trazado_127475" data-name="Trazado 127475" d="M35.71,21.569a1.948,1.948,0,0,1-3.484,0l-.091-.184-1.558.78.091.184a3.69,3.69,0,0,0,6.6,0l.091-.184-1.558-.78Z"/>
        <path id="Trazado_127476" data-name="Trazado 127476" d="M42.291,28.553l-3.968-.566V27.6a8.5,8.5,0,0,0,5.14-6.7h.086a3.469,3.469,0,0,0,2.188-6.173l.607-1.517A9.635,9.635,0,0,0,37.4,0H30.539a9.645,9.645,0,0,0-9.592,8.785,11.313,11.313,0,0,0-17.463,9.5v2.117a10.513,10.513,0,0,1-2.3,6.544,5.426,5.426,0,0,0,.365,7.188L.737,35.77A7.044,7.044,0,0,0,0,38.9a6.947,6.947,0,0,0,3.507,6.061,6.1,6.1,0,0,0,6.073,5.559h1.486l.394.569A6.772,6.772,0,0,0,17.027,54h.089a7.068,7.068,0,0,0,2.634-.523A4.3,4.3,0,0,0,21.774,54H40.935a9.592,9.592,0,0,0,9.581-9.581V38.038A9.629,9.629,0,0,0,42.291,28.553Zm-5.114-2.379-.6.2V28.51l-2.613,4.573L31.355,28.51V26.372l-.6-.2a6.763,6.763,0,0,1-4.63-6.423V13.631l6.294-2.8a10.665,10.665,0,0,0,4.932,1.751l4.452.4V19.75a6.765,6.765,0,0,1-4.63,6.424ZM17.752,43.122,14.93,39.358a9.177,9.177,0,0,0-3.217-2.685l-.78,1.558a7.412,7.412,0,0,1,2.6,2.172l1.3,1.74L10.2,46.2,8.142,43.23a6.681,6.681,0,0,1-1.174-3.861,6.425,6.425,0,0,1,3.572-5.779l.663-.331,5.709,4.757L18.88,33.1h.942a8.082,8.082,0,0,1,4.023,1.085,3.307,3.307,0,0,0-.765,1.427l-.361,1.442Zm.415-25.227,2.736.3v6.649a5.4,5.4,0,0,1-3,4.857l-.482.24v2.112l-1.234,3.086-3.992-3.326V29.946l-.482-.24a5.4,5.4,0,0,1-3-4.858V18.519a1.749,1.749,0,0,1,1.263-1.675l3.1-.887a10.958,10.958,0,0,0,5.092,1.938Zm1.654,13.46h-.66V31a7.112,7.112,0,0,0,3.357-4.87h.127A3.471,3.471,0,0,0,25.7,24.277,8.478,8.478,0,0,0,29.613,27.6v.273a12.516,12.516,0,0,0-8.387,3.588,9.82,9.82,0,0,0-1.4-.109ZM22.645,20.9a1.742,1.742,0,0,1,0,3.484Zm1.742-1.742a1.742,1.742,0,0,1,0-3.484Zm19.161,0V15.677a1.742,1.742,0,1,1,0,3.484ZM30.539,1.742H37.4a7.893,7.893,0,0,1,7.328,10.824L44.154,14a3.47,3.47,0,0,0-.605-.061V12.194a4.488,4.488,0,0,0-3.072-4.264l-.134-.045-.555,1.651.136.045a2.755,2.755,0,0,1,1.708,1.644l-4.119-.375A8.943,8.943,0,0,1,31.18,7.316L29.787,8.361A10.571,10.571,0,0,0,30.9,9.6l-4.772,2.121v-.2a2.269,2.269,0,0,1,1.26-2.04L26.61,7.93a4.006,4.006,0,0,0-2.223,3.6v2.407a3.452,3.452,0,0,0-.6.061l-.572-1.43A7.891,7.891,0,0,1,30.539,1.742ZM14.806,8.71A9.552,9.552,0,0,1,21.011,11a9.6,9.6,0,0,0,.581,2.211L22.2,14.73a3.475,3.475,0,0,0-1.146,1.733l-2.693-.3a9.222,9.222,0,0,1-6.341-3.621l-1.394,1.044A10.852,10.852,0,0,0,11.5,14.6l-2,.572a3.5,3.5,0,0,0-2.527,3.35v.642a3.448,3.448,0,0,0-1.742.484V18.29A9.592,9.592,0,0,1,14.806,8.71ZM5.226,22.645A1.744,1.744,0,0,1,6.968,20.9v3.484A1.744,1.744,0,0,1,5.226,22.645ZM9.581,48.774a4.36,4.36,0,0,1-4.355-4.355v-.538l-.584-.292a5.218,5.218,0,0,1-2.9-4.694A5.275,5.275,0,0,1,2.3,36.549L3.673,33.8l-.853-.853a3.657,3.657,0,0,1-1.078-2.6,3.7,3.7,0,0,1,.807-2.3,12.227,12.227,0,0,0,1.8-3.121,3.459,3.459,0,0,0,2.619,1.212h.127A7.112,7.112,0,0,0,10.452,31v.688l-.692.345A8.191,8.191,0,0,0,5.226,39.45a8.351,8.351,0,0,0,1.483,4.772L9.86,48.774Zm7.447,3.484a5.028,5.028,0,0,1-4.134-2.164L11.2,47.645l4.692-4.1.726.969L15,46.481l1.349,1.1,7.962-9.731.455-1.821a1.574,1.574,0,0,1,3.1.382,3.488,3.488,0,0,1-.37,1.574l-2.817,5.633a2.619,2.619,0,0,0-1.89,1.671h-1.02a4.344,4.344,0,0,0-3.561,6.848,5.409,5.409,0,0,1-1.1.118Zm2.134-2.613a2.616,2.616,0,0,1,2.613-2.613h2.613v-.871a.871.871,0,0,1,.871-.871h.15a.874.874,0,0,1,.616.255l.976.977v5.735H21.774A2.616,2.616,0,0,1,19.161,49.645Zm9.581-2.669,1.742-.116v5.4H28.742Zm20.032-2.557a7.847,7.847,0,0,1-7.839,7.839h-8.71V46.744l8.473-.565,2.366,1.578.966-1.449-2.224-1.483V36.941a2.088,2.088,0,0,1,.616-1.487l-1.232-1.232a3.818,3.818,0,0,0-1.126,2.718v7.534l-11.856.79-.953-.952a2.609,2.609,0,0,0-.72-.5l2.524-5.048a5.208,5.208,0,0,0,.554-2.352A3.32,3.32,0,0,0,26.3,33.1a3.275,3.275,0,0,0-.771.1,9.8,9.8,0,0,0-2.271-1.212,10.768,10.768,0,0,1,6.709-2.374h.014l3.99,6.982,3.946-6.907,4.129.591a7.877,7.877,0,0,1,6.731,7.759Z"/>
        <circle id="Elipse_4890" data-name="Elipse 4890" cx="0.871" cy="0.871" r="0.871" transform="translate(10.452 19.161)"/>
        <circle id="Elipse_4891" data-name="Elipse 4891" cx="0.871" cy="0.871" r="0.871" transform="translate(17.419 19.161)"/>
        <path id="Trazado_127477" data-name="Trazado 127477" d="M13.065,25.053l-.091-.184-1.558.78.091.184a3.69,3.69,0,0,0,6.6,0l.091-.184-1.558-.78-.091.185a1.948,1.948,0,0,1-3.484,0Z"/>
        <path id="Trazado_127478" data-name="Trazado 127478" d="M16.067,22.737,15,22.2l.631-1.9-1.651-.55-1.11,3.33L15.288,24.3Z"/>
      </g>
    </g>
  </g>
</svg>
