<svg xmlns="http://www.w3.org/2000/svg" width="45" height="45" viewBox="0 0 45 45">
  <path id="Icon_ionic-ios-arrow-dropleft-circle" data-name="Icon ionic-ios-arrow-dropleft-circle" d="M25.875,3.375a22.5,22.5,0,1,0,22.5,22.5A22.5,22.5,0,0,0,25.875,3.375ZM30.57,34.648a2.1,2.1,0,0,1,0,2.953,2.062,2.062,0,0,1-1.471.606,2.1,2.1,0,0,1-1.482-.617l-10.168-10.2a2.085,2.085,0,0,1,.065-2.877L27.833,14.16a2.088,2.088,0,0,1,2.953,2.953l-8.859,8.762Z" transform="translate(48.375 48.375) rotate(180)" fill="#3c3fa7"/>
</svg>
