<svg xmlns="http://www.w3.org/2000/svg" xmlns:xlink="http://www.w3.org/1999/xlink" width="1240" height="622" viewBox="0 0 1240 622">
  <defs>
    <clipPath id="clip-path">
      <rect id="Rect치ngulo_35453" data-name="Rect치ngulo 35453" width="1240" height="622" rx="20" fill="#fff7da"/>
    </clipPath>
  </defs>
  <g id="Grupo_94078" data-name="Grupo 94078" transform="translate(-180 -6894)">
    <rect id="Rect치ngulo_35447" data-name="Rect치ngulo 35447" width="1240" height="622" transform="translate(180 6894)" fill="#fff7da"/>
    <g id="Enmascarar_grupo_161" data-name="Enmascarar grupo 161" transform="translate(180 6894)" clip-path="url(#clip-path)">
      <path id="Trazado_126151" data-name="Trazado 126151" d="M467.01,306.672c-4.457,48.466-26.615,100.512-69.978,124.064-35.065,19.038-76.562,15.878-113.725,29.457-42.384,15.482-76.6,51.737-119.645,64.659-54.8,16.446-114.811-12.025-139.57-61.244S8.423,349.463,41.725,301.437c22.914-33.046,56.606-59.971,69.689-97.644,14.138-40.7.876-85.132,13.649-126.221a107.184,107.184,0,0,1,14.143-28.856c13.45-17.178,31.022-31.1,51.1-38.264C217.835.646,249.9,5.067,269.622,24.64c32.646,32.4,23.827,92.36,53.624,127.48,31.122,36.677,93.2,33.535,124.367,70.179C466.373,244.338,469.784,276.533,467.01,306.672Z" transform="translate(752.672 449.738) rotate(-40)" fill="#fff0b5"/>
      <path id="Trazado_126152" data-name="Trazado 126152" d="M467.01,306.672c-4.457,48.466-26.615,100.512-69.978,124.064-35.065,19.038-76.562,15.878-113.725,29.457-42.384,15.482-76.6,51.737-119.645,64.659-54.8,16.446-114.811-12.025-139.57-61.244S8.423,349.463,41.725,301.437c22.914-33.046,56.606-59.971,69.689-97.644,14.138-40.7.876-85.132,13.649-126.221a107.184,107.184,0,0,1,14.143-28.856c13.45-17.178,31.022-31.1,51.1-38.264C217.835.646,249.9,5.067,269.622,24.64c32.646,32.4,23.827,92.36,53.624,127.48,31.122,36.677,93.2,33.535,124.367,70.179C466.373,244.338,469.784,276.533,467.01,306.672Z" transform="translate(-338.875 -36.68) rotate(-40)" fill="#fff0b5"/>
    </g>
  </g>
</svg>
