<svg xmlns="http://www.w3.org/2000/svg" width="505" height="494.372" viewBox="0 0 505 494.372">
  <g id="Grupo_94065" data-name="Grupo 94065" transform="translate(-915 -82.628)">
    <g id="Grupo_81064" data-name="Grupo 81064" transform="translate(1146.853 -71.946) rotate(32)">
      <g id="Grupo_81059" data-name="Grupo 81059" transform="translate(119.183 107.796)">
        <g id="Grupo_81053" data-name="Grupo 81053" transform="translate(1.599 1.599)" style="mix-blend-mode: overlay;isolation: isolate">
          <path id="Trazado_114995" data-name="Trazado 114995" d="M157.094,131.323l5.527,22.544-40.067,13.726Z" transform="translate(-121.881 -121.914)" fill="#3c384f"/>
          <path id="Trazado_114996" data-name="Trazado 114996" d="M122.229,167.941a.674.674,0,0,1-.488-1.139l34.539-36.271a.674.674,0,0,1,1.143.3l5.528,22.544a.674.674,0,0,1-.436.8L122.447,167.9A.666.666,0,0,1,122.229,167.941Zm34.178-35.587-31.789,33.382L161.494,153.1Z" transform="translate(-121.555 -121.588)" fill="#3c384f"/>
          <path id="Trazado_114997" data-name="Trazado 114997" d="M161.243,136.349l-38.688,32.882,53.6-21.956Z" transform="translate(-121.881 -123.552)" fill="#3c384f"/>
          <path id="Trazado_114998" data-name="Trazado 114998" d="M122.229,169.579a.674.674,0,0,1-.437-1.188l38.688-32.882a.675.675,0,0,1,.835-.03l14.915,10.926a.674.674,0,0,1-.143,1.168l-53.6,21.956A.669.669,0,0,1,122.229,169.579Zm38.719-32.7-35.056,29.794,48.571-19.894Z" transform="translate(-121.555 -123.226)" fill="#3c384f"/>
          <path id="Trazado_114999" data-name="Trazado 114999" d="M157.094,127.1l-34.539,36.27,22.734-45Z" transform="translate(-121.881 -117.692)" fill="#3c384f"/>
          <path id="Trazado_115000" data-name="Trazado 115000" d="M122.228,163.719a.674.674,0,0,1-.6-.978l22.734-45a.675.675,0,0,1,1-.238l11.805,8.734a.674.674,0,0,1,.087,1.006L122.717,163.51A.673.673,0,0,1,122.228,163.719ZM145.2,119.057l-20.315,40.216,30.864-32.411Z" transform="translate(-121.555 -117.366)" fill="#3c384f"/>
          <path id="Trazado_115001" data-name="Trazado 115001" d="M149.335,131.49q-2.838,5.875-5.987,11.591c-.419.76.745,1.441,1.164.68q3.148-5.714,5.987-11.59C150.875,131.393,149.713,130.709,149.335,131.49Z" transform="translate(-128.628 -121.856)" fill="#3c384f"/>
          <path id="Trazado_115002" data-name="Trazado 115002" d="M149.5,145.27a.686.686,0,0,0-.31-.4.679.679,0,0,0-.519-.068.665.665,0,0,0-.4.31l-.687,1.437a.721.721,0,0,0-.068.519.686.686,0,0,0,.31.4.679.679,0,0,0,.519.068.663.663,0,0,0,.4-.31l.687-1.437A.721.721,0,0,0,149.5,145.27Z" transform="translate(-130.006 -126.297)" fill="#3c384f"/>
          <path id="Trazado_115003" data-name="Trazado 115003" d="M180.418,152.878q-6.571,2.839-13.082,5.813c-.788.36-.1,1.522.68,1.164q6.511-2.974,13.082-5.813C181.893,153.7,181.207,152.537,180.418,152.878Z" transform="translate(-136.36 -128.919)" fill="#3c384f"/>
        </g>
        <g id="Grupo_81058" data-name="Grupo 81058">
          <g id="Grupo_81057" data-name="Grupo 81057">
            <g id="Grupo_81054" data-name="Grupo 81054" transform="translate(0 8.735)">
              <path id="Trazado_115004" data-name="Trazado 115004" d="M154.723,128.951,160.25,151.5l-40.067,13.727Z" transform="translate(-119.509 -128.277)" fill="#fff"/>
              <path id="Trazado_115005" data-name="Trazado 115005" d="M119.857,165.57a.675.675,0,0,1-.488-1.139l34.54-36.27a.674.674,0,0,1,1.143.3l5.528,22.544a.674.674,0,0,1-.436.8l-40.067,13.727A.685.685,0,0,1,119.857,165.57Zm34.178-35.588-31.789,33.383,36.877-12.634Z" transform="translate(-119.183 -127.952)"/>
            </g>
            <g id="Grupo_81055" data-name="Grupo 81055" transform="translate(0 12.123)">
              <path id="Trazado_115006" data-name="Trazado 115006" d="M158.872,133.978,120.183,166.86l53.6-21.956Z" transform="translate(-119.509 -133.304)" fill="#fff"/>
              <path id="Trazado_115007" data-name="Trazado 115007" d="M119.858,167.208a.674.674,0,0,1-.437-1.188l38.688-32.883a.675.675,0,0,1,.835-.03l14.915,10.925a.674.674,0,0,1-.143,1.168l-53.6,21.957A.666.666,0,0,1,119.858,167.208Zm38.718-32.7L123.521,164.3l48.571-19.9Z" transform="translate(-119.183 -132.978)"/>
            </g>
            <g id="Grupo_81056" data-name="Grupo 81056">
              <path id="Trazado_115008" data-name="Trazado 115008" d="M154.723,124.729,120.183,161l22.734-45Z" transform="translate(-119.509 -115.32)" fill="#fff"/>
              <path id="Trazado_115009" data-name="Trazado 115009" d="M119.857,161.348a.674.674,0,0,1-.6-.978l22.734-45a.673.673,0,0,1,1-.238l11.806,8.734a.675.675,0,0,1,.087,1.007l-34.539,36.27A.674.674,0,0,1,119.857,161.348Zm22.975-44.662L122.518,156.9l30.864-32.411Z" transform="translate(-119.183 -114.994)"/>
            </g>
            <path id="Trazado_115010" data-name="Trazado 115010" d="M146.963,129.119q-2.838,5.874-5.987,11.591c-.419.76.745,1.441,1.164.68q3.148-5.714,5.987-11.59C148.5,129.022,147.341,128.337,146.963,129.119Z" transform="translate(-126.256 -119.485)"/>
            <path id="Trazado_115011" data-name="Trazado 115011" d="M147.126,142.9a.688.688,0,0,0-.31-.4.681.681,0,0,0-.52-.068.663.663,0,0,0-.4.309q-.344.719-.687,1.437a.721.721,0,0,0-.068.519.688.688,0,0,0,.309.4.681.681,0,0,0,.52.068.666.666,0,0,0,.4-.31l.688-1.437A.726.726,0,0,0,147.126,142.9Z" transform="translate(-127.635 -123.926)"/>
            <path id="Trazado_115012" data-name="Trazado 115012" d="M178.047,150.507q-6.571,2.838-13.082,5.813c-.789.36-.1,1.522.68,1.164q6.511-2.973,13.082-5.813C179.521,151.327,178.836,150.166,178.047,150.507Z" transform="translate(-133.989 -126.547)"/>
          </g>
        </g>
      </g>
      <g id="Grupo_81063" data-name="Grupo 81063" transform="translate(158.486 92.907)">
        <g id="Grupo_81060" data-name="Grupo 81060" transform="translate(0)">
          <path id="Trazado_115013" data-name="Trazado 115013" d="M178.159,117.755a.675.675,0,0,1-.507-1.118,68.181,68.181,0,0,1,5.735-5.812.674.674,0,1,1,.9,1,66.776,66.776,0,0,0-5.621,5.7A.674.674,0,0,1,178.159,117.755Zm10.905-10.009a.674.674,0,0,1-.4-1.217c1.455-1.072,2.971-2.1,4.505-3.055a.674.674,0,1,1,.713,1.145c-1.5.937-2.992,1.945-4.419,3A.672.672,0,0,1,189.064,107.747Zm77.471-2.975a.668.668,0,0,1-.357-.1q-.613-.383-1.232-.754a.674.674,0,0,1,.692-1.157q.632.378,1.257.77a.674.674,0,0,1-.359,1.245Zm-65.912-3.924a.674.674,0,0,1-.289-1.283c2.047-.969,4.161-1.847,6.283-2.61a.674.674,0,1,1,.456,1.268c-2.082.75-4.156,1.611-6.163,2.56A.666.666,0,0,1,200.624,100.848Zm58.718,0a.675.675,0,0,1-.286-.064,68.662,68.662,0,0,0-7.435-2.97.674.674,0,0,1,.427-1.279,70.007,70.007,0,0,1,7.581,3.029.675.675,0,0,1-.287,1.285Zm-47.354-4.209a.674.674,0,0,1-.177-1.324,67.987,67.987,0,0,1,7.991-1.68.674.674,0,0,1,.2,1.334,66.747,66.747,0,0,0-7.833,1.646A.651.651,0,0,1,211.987,96.637Zm34.671-.3a.649.649,0,0,1-.164-.02c-2.152-.537-4.355-.976-6.545-1.3a.674.674,0,1,1,.2-1.333c2.233.334,4.477.781,6.672,1.329a.674.674,0,0,1-.162,1.328Zm-20.053-2.013a.674.674,0,0,1-.03-1.348c1.8-.083,3.633-.1,5.444-.036a.674.674,0,1,1-.044,1.348c-1.776-.058-3.571-.046-5.338.036Z" transform="translate(-177.486 -92.907)"/>
        </g>
      </g>
    </g>
    <g id="Grupo_88079" data-name="Grupo 88079" transform="translate(40.06 147.473)">
      <path id="Trazado_120188" data-name="Trazado 120188" d="M1122.819,166.167a10.515,10.515,0,0,1-8.337-4.165.347.347,0,0,0-.462-.08,8.644,8.644,0,0,1-4.669,1.285,12.375,12.375,0,0,1-6.521-1.965,10.447,10.447,0,0,1-4.283-5.016,9.917,9.917,0,0,1,1.255-9.1,9.431,9.431,0,0,1,7.656-4.189c.245,0,.493.01.739.031h.029a.347.347,0,0,0,.34-.416,7.823,7.823,0,0,1,1.815-6.549,9.469,9.469,0,0,1,7.073-3.541,7.427,7.427,0,0,1,5.521,2.5.347.347,0,0,0,.254.111h.026a.347.347,0,0,0,.261-.151,10.485,10.485,0,0,1,8.551-4.549,9.228,9.228,0,0,1,7.662,3.961c3.322,4.623,3.151,10.528-.407,14.041a.347.347,0,0,0,.015.508,6.873,6.873,0,0,1,1.943,7.841,7.113,7.113,0,0,1-6.48,4.761,7.32,7.32,0,0,1-2.928-.64.347.347,0,0,0-.443.151,9.834,9.834,0,0,1-3.672,3.9A10.266,10.266,0,0,1,1122.819,166.167Z" transform="translate(-2.52 -2.487)" fill="#fff"/>
      <path id="Trazado_120189" data-name="Trazado 120189" d="M1137.048,146.138c3.742-3.7,3.812-9.8.445-14.491-4.322-6.016-12.921-5.081-16.783.6-6.128-6.578-16.5.477-15,7.9-7.029-.588-12.508,7-10.005,13.723,2.161,5.806,10.669,9.262,15.986,5.867a10.748,10.748,0,0,0,13.717,2.989,10.179,10.179,0,0,0,3.811-4.038C1137.05,162.091,1143.289,151.625,1137.048,146.138Zm-7.195,11.184c1.148-2.908,1.066-6.18-1.462-8.126-3.913-3.012-10.021-.994-8.47,4.575,1.1,3.94,6.474,2.1,5.642-1.767-.2-.951-1.659-.548-1.454.4q.2,2.892-2.29,1.644A3.2,3.2,0,0,1,1121.9,150c1.121-1.34,3.444-.808,4.737-.188,3.856,1.851,2.194,6.461.511,9.171-3.409,5.489-11.414,4.155-14.64-.671a.815.815,0,0,0-.147-.163.6.6,0,0,0-.885-.107c-4.434,3.39-10.7.71-13.655-3.393-4.114-5.714,1.81-14.093,8.393-12.935a9.484,9.484,0,0,0,1.987,2.861c3.636,3.663,10.377.709,9.443-4.516-.784-4.387-6.641-3.28-6.989.732-.084.969,1.425.961,1.508,0,.24-2.771,3.21-2.58,4.026-.331,1.194,3.287-3.515,4.821-5.82,3.807-3.258-1.433-4.033-5.961-2.641-8.884,2.328-4.891,9.2-5.839,12.428-1.483a.8.8,0,0,0,.267.231.823.823,0,0,0,1.144-.4,8.772,8.772,0,0,1,15-.79c3.495,4.865,2.236,11.83-3.542,14.066-.9.347-.507,1.806.4,1.454a10.973,10.973,0,0,0,2.465-1.33C1141.246,151.407,1136.163,160.083,1129.854,157.322Z"/>
    </g>
    <g id="Grupo_88080" data-name="Grupo 88080" transform="translate(545.392 -715.004) rotate(34)">
      <path id="Trazado_120190" data-name="Trazado 120190" d="M1284.952,492.873l-.082,0-.06,0-.06,0-.082,0a.608.608,0,0,1-.378-.1.89.89,0,0,0-.22-.122c-7.422-2.813-13.862-10.522-11.324-18.071a6.855,6.855,0,0,1,6.122-4.655,6.255,6.255,0,0,1,5.239,2.659.883.883,0,0,0,.7.347h.007a.882.882,0,0,0,.7-.359,5.666,5.666,0,0,1,4.556-2.686,5.116,5.116,0,0,1,.573.033,7.034,7.034,0,0,1,6.229,4.661c2.533,7.551-3.907,15.26-11.326,18.071a.892.892,0,0,0-.22.122.609.609,0,0,1-.379.1Z" transform="translate(-1.989 -1.952)" fill="#fff"/>
      <path id="Trazado_120191" data-name="Trazado 120191" d="M1295.724,472.342a7.924,7.924,0,0,0-6.966-5.256c-2.564-.293-4.538,1.106-5.939,3.006a7.165,7.165,0,0,0-5.933-3.006,7.727,7.727,0,0,0-6.966,5.256c-2.83,8.42,4.437,16.369,11.848,19.177a2.128,2.128,0,0,0,2.107,0C1291.285,488.711,1298.548,480.762,1295.724,472.342Zm-12.883,15.495c-4.843-1.839-9.167-6.024-9.685-11.387-.544-5.637,5.6-7.411,7.71-2.054a1.754,1.754,0,0,0,1.678,1.515,2.108,2.108,0,0,0,.285.03,2.082,2.082,0,0,0,.247-.026,1.756,1.756,0,0,0,1.7-1.522c2.175-5.573,7.83-3.428,7.712,2.056C1292.372,481.716,1287.43,486.066,1282.842,487.837Z"/>
    </g>
    <g id="Grupo_83567" data-name="Grupo 83567" transform="translate(1405.756 -347.697) rotate(25)">
      <path id="Trazado_117335" data-name="Trazado 117335" d="M179.732,904.712a.17.17,0,0,1-.086-.025c-.013-.015-.166-.123-.181-.137q-3.4-3.449-6.808-6.881a2.823,2.823,0,0,0-2.064-.87,7.342,7.342,0,0,0-2.5.623,13.289,13.289,0,0,1-1.6.52c-.848.2-1.718.417-2.6.642a38.912,38.912,0,0,1-9.244,1.581h0q-.283,0-.564-.01c-8.242-.29-9.762-6.135-11.686-13.534l-.166-.638c-.343-1.316-.817-2.8-1.319-4.365-1.959-6.122-4.4-13.74-1.4-18.652,1.5-2.446,4.865-3.647,7.633-4.418,2.254-.629,4.5-1.3,6.738-1.973,2.388-.716,4.858-1.456,7.3-2.128.716-.2,1.5-.426,2.345-.672,3.981-1.161,9.433-2.752,14.107-2.752a11.371,11.371,0,0,1,6.858,1.839c4.162,3.079,5.376,8.943,6.447,14.117.2.963.394,1.9.6,2.8.126.543.257,1.094.39,1.648,1.388,5.807,2.822,11.813-.458,16.845-1.416,2.173-4.145,3.9-8.11,5.133a5.635,5.635,0,0,1-1.285.249c-1.3.12-1.352.717-1.484,2.314l-.023.277c-.212,2.53-.376,5.173-.5,8.078-.009.032-.017.062-.023.093a.251.251,0,0,1-.107.2A.385.385,0,0,1,179.732,904.712Z" transform="translate(-3.3 -3.312)" fill="#fff"/>
      <path id="Trazado_117336" data-name="Trazado 117336" d="M188.964,866.3c-1.35-5.836-2.148-13.513-7.329-17.344-6.029-4.459-17.7-.251-23.945,1.467-4.7,1.294-9.343,2.792-14.04,4.1-2.844.793-6.426,2.064-8.064,4.745-3.978,6.506.946,17.131,2.63,23.588,2.024,7.759,3.5,14.406,12.541,14.723,4.154.146,8.61-1.3,12.6-2.231,2.113-.49,3.982-1.968,5.473-.472q3.414,3.428,6.8,6.878a.907.907,0,0,0,.359.271.943.943,0,0,0,1.043-.105.967.967,0,0,0,.434-.681.924.924,0,0,0,.026-.108c0-.009.006-.015.006-.024.117-2.711.278-5.413.5-8.117.222-2.653.044-1.5,2.275-2.2,3.128-.973,6.651-2.583,8.509-5.434C192.578,879.558,190.4,872.526,188.964,866.3Zm-.609,15.355c-1.318,5.064-7.062,6.686-11.433,7.984a1.079,1.079,0,0,0-.765,1c-.293,2.606-.475,5.223-.611,7.842-2.534-3.088-5.4-6.968-9.157-6.016-5.783,1.465-16.631,5.721-21.858,1.115-2.8-2.463-3.4-7.9-4.3-11.28-1.089-4.08-2.086-8.187-3.087-12.289-.708-2.9-1.479-6.058-.227-8.919,1.686-3.855,7.468-4.588,11.027-5.633,6.832-2.007,13.623-4.192,20.64-5.475,3.433-.628,7.2-.94,10.582.059,3.328.982,4.714,4.807,5.553,7.8,1.412,5.044,2.6,10.186,3.622,15.323A18.7,18.7,0,0,1,188.355,881.655ZM173.423,858.6a6.923,6.923,0,0,1,1.449-2.088,7.793,7.793,0,0,1,2.024-1.932.189.189,0,0,1,.275.212,4.542,4.542,0,0,1-1.441,2.192,11.358,11.358,0,0,1-2.031,1.827A.189.189,0,0,1,173.423,858.6Zm3.649-.341c-.043.549-.423.782-.853,1.065a3.237,3.237,0,0,1-1.259.564.206.206,0,0,1-.229-.3,3.378,3.378,0,0,1,1.062-1.115,1.329,1.329,0,0,1,1.123-.419A.209.209,0,0,1,177.072,858.256ZM152.857,884.2a7.154,7.154,0,0,1-1.184,2.456c-.4.566-.758,1.358-1.515,1.434a.135.135,0,0,1-.133-.1c-.111-.757.566-1.287,1-1.836.545-.7,1.093-1.377,1.674-2.047C152.761,884.03,152.879,884.113,152.857,884.2Zm-2.665.3a2.24,2.24,0,0,1,1.342-1.185.215.215,0,0,1,.261.26,2.408,2.408,0,0,1-1.059,1.468A.4.4,0,0,1,150.193,884.506Zm4.376.126a1.617,1.617,0,0,1,.08,1.154,3.819,3.819,0,0,1-.348,1.254c-.157.256-.649.257-.7-.091a2.891,2.891,0,0,1,.24-1.385,2.012,2.012,0,0,1,.524-.958A.133.133,0,0,1,154.569,884.631Zm25.072-4.317a.326.326,0,0,1-.306.4c-.7.083-1.313-.725-1.768-1.165a19.844,19.844,0,0,1-1.551-1.564.09.09,0,0,1,.063-.153,3.547,3.547,0,0,1,2.087.94C178.666,879.158,179.543,879.645,179.641,880.314Zm-2.578-3.334c-.1-.042-.055-.18.027-.208.689-.241,1.84-.028,2.11.726a.13.13,0,0,1-.091.16,1.37,1.37,0,0,1-.911-.21C177.822,877.286,177.439,877.142,177.063,876.98Zm-.915,3.468a.373.373,0,0,1-.057.445c-.024.02-.049.039-.074.058a.372.372,0,0,1-.445-.058,3.309,3.309,0,0,1-.913-1.5.123.123,0,0,1,.15-.15A2.436,2.436,0,0,1,176.148,880.448Zm-27.51-16.833a2.453,2.453,0,0,1,.359.723.147.147,0,0,1-.141.186,1.707,1.707,0,0,1-.939-.263,9.522,9.522,0,0,1-.842-.659c-.518-.441-1.133-.805-1.289-1.512a.213.213,0,0,1,.148-.26c.76-.157,1.282.368,1.8.85A9.157,9.157,0,0,1,148.638,863.616Zm1.436-.1a1.22,1.22,0,0,1-.554-.256,2.23,2.23,0,0,1-.475-.638,2.63,2.63,0,0,1-.492-1.363.518.518,0,0,1,.769-.441,2.592,2.592,0,0,1,.931,1.291,3.3,3.3,0,0,1,.254.734,1.192,1.192,0,0,1-.032.367A.32.32,0,0,1,150.074,863.512Zm-3.688,9.8a2.415,2.415,0,0,1-2.731-.09.175.175,0,0,1,0-.242,2.494,2.494,0,0,1,2.731-.346A.4.4,0,0,1,146.385,873.315Zm14.156-15.873a2.938,2.938,0,0,1,.142-1.621.181.181,0,0,1,.245-.064c1.018.459,1.085,2.336.392,3.112a.129.129,0,0,1-.158.02A1.965,1.965,0,0,1,160.542,857.442Zm20.875,9.074c-.3.883-1.936,1.1-2.694.751a.18.18,0,0,1-.036-.281,3.538,3.538,0,0,1,1.158-.656,1.945,1.945,0,0,1,1.288-.315A.41.41,0,0,1,181.417,866.516Zm-11.559,20.229a.191.191,0,0,1-.256.067c-.515-.259-.578-.7-.819-1.183a5.7,5.7,0,0,1-.5-1.256.255.255,0,0,1,.37-.285C169.445,884.5,170.365,885.877,169.858,886.745Zm3.284-23.92c-4.237-4.371-10.224-.16-12.271,4.518-1.713-1.93-3.861-3.3-6.623-2.892-2.827.422-4.174,3.415-4.492,5.906-.991,7.769,8.4,12.837,14.778,13.57a.671.671,0,0,0,.68-.3C170.364,879.508,179.76,869.651,173.141,862.825Zm-21.592,10.326c-.314-.593-.541-1.841.257-2.165.094-.038.179.041.21.119a2.951,2.951,0,0,1,.122.957c.014.307.069.6.064.912A.352.352,0,0,1,151.549,873.151Zm10.592,8.094c-2.22.09-4.2-1.25-5.908-2.533a10.435,10.435,0,0,1-3.778-4.422.049.049,0,0,1,.072-.055c1.707,1.152,2.986,2.873,4.718,4.03,1.588,1.061,3.339,1.695,5,2.616A.2.2,0,0,1,162.141,881.246Zm7-17.723a.066.066,0,0,1,.016-.119c2.405-.754,6.047,3.431,4.324,5.541a.2.2,0,0,1-.307-.04c-.62-1-.6-2.221-1.33-3.2A10.237,10.237,0,0,0,169.142,863.523Zm4.279,8.152a.157.157,0,0,1-.211-.055c-.2-.3-.079-.556-.006-.882.064-.285.058-.542.3-.732a.152.152,0,0,1,.208,0A1.258,1.258,0,0,1,173.421,871.675Z" transform="translate(0 0)"/>
    </g>
    <g id="Grupo_89334" data-name="Grupo 89334" transform="translate(807.948 235.158)">
      <g id="Grupo_81065" data-name="Grupo 81065" style="mix-blend-mode: overlay;isolation: isolate">
        <path id="Trazado_115015" data-name="Trazado 115015" d="M201.459,222.3c-4.818,4.93-9.8,9.679-14.871,14.344,2.194-4.96,4.559-9.841,6.642-14.853,2.361-5.682,5.106-13.427,2.129-19.387-6.784-13.585-23.933-.255-30.244,6.583-.672.729-1.314,1.49-1.964,2.242,2.255-5.522,4.285-11.2,3.749-17.162-.737-8.2-8.257-10.171-14.731-6.359-6.952,4.092-12.536,11.173-17.2,17.6-3.96,5.462,5.1,10.662,9.03,5.278a71.032,71.032,0,0,1,7.059-8.257q-.562,1.03-1.137,2.057a153.28,153.28,0,0,0-7.1,13.831c-3.952,9.119-9.8,21.744-4.825,31.336,2.506,4.834,8.382,5.325,12.806,3.358,5.947-2.644,10.066-8.481,14.037-13.421,4.145-5.158,7.8-10.635,11.633-16.017a77.947,77.947,0,0,1,5.041-6.6c.042-.048.086-.092.128-.139l-.046.145c-1.019,3.168-2.329,6.208-3.656,9.256-2.468,5.671-5.652,11.64-6.556,17.81-.8,5.456,1.41,11.571,7.972,11.175,6.169-.372,11.113-6.314,15.237-10.282,4.994-4.806,9.9-9.707,14.8-14.6C214.523,225.134,206.52,217.128,201.459,222.3Z" fill="#3c384f"/>
        <path id="Trazado_115016" data-name="Trazado 115016" d="M178.771,256.149a7.839,7.839,0,0,1-5.971-2.478c-2.078-2.263-2.976-5.949-2.4-9.86.747-5.1,2.971-9.983,5.121-14.705.515-1.131,1.025-2.251,1.507-3.359.457-1.051.938-2.155,1.415-3.3q-.438.61-.867,1.214l-.284.4c-1,1.4-1.981,2.8-2.964,4.206-2.761,3.94-5.616,8.015-8.7,11.857-.451.561-.9,1.134-1.362,1.713-3.541,4.478-7.554,9.553-13.048,11.995-4.9,2.175-11.313,1.566-14.1-3.811-5.007-9.659.4-22.088,4.347-31.163l.448-1.032c1.161-2.681,2.463-5.3,3.844-7.9q-.48.625-.942,1.26a6.656,6.656,0,0,1-9.394,1.306,5.277,5.277,0,0,1-1.254-7.761c4.977-6.865,10.542-13.783,17.5-17.879,3.862-2.273,8.089-2.642,11.31-.987,2.836,1.457,4.585,4.34,4.924,8.119A30.627,30.627,0,0,1,165.95,206.7c5.135-5.017,14.632-12.132,22.251-11.054,3.5.5,6.209,2.621,8.052,6.312,3.032,6.07.64,13.627-2.1,20.218-1.3,3.138-2.738,6.268-4.125,9.3l-.491,1.071c4.127-3.87,7.819-7.475,11.207-10.941h0a6.009,6.009,0,0,1,5.986-1.778,7.368,7.368,0,0,1,5.1,5.061,6.063,6.063,0,0,1-1.722,6.064l-.558.556c-4.645,4.636-9.448,9.43-14.26,14.059-.593.571-1.2,1.182-1.83,1.812-3.736,3.745-8.385,8.407-14.04,8.748C179.2,256.143,178.984,256.149,178.771,256.149Zm2.869-40.361a.944.944,0,0,1,.484.129.973.973,0,0,1,.472,1.135l-.047.146c-1.068,3.322-2.461,6.523-3.69,9.347-.487,1.119-1,2.249-1.521,3.389-2.092,4.6-4.256,9.348-4.962,14.167-.479,3.272.248,6.421,1.9,8.217a6,6,0,0,0,5.024,1.815c4.9-.3,9.066-4.476,12.745-8.165.638-.639,1.257-1.26,1.859-1.84,4.8-4.617,9.6-9.4,14.235-14.034l.557-.556a4.067,4.067,0,0,0,1.205-4.124,5.383,5.383,0,0,0-3.671-3.649A4.007,4.007,0,0,0,202.175,223h0c-4.377,4.477-9.254,9.181-14.911,14.38a1,1,0,0,1-1.591-1.141c.829-1.875,1.683-3.738,2.537-5.6,1.379-3.012,2.806-6.126,4.1-9.231,2.567-6.174,4.83-13.207,2.158-18.556-1.553-3.112-3.694-4.821-6.545-5.225-7.1-1.006-17.092,6.646-22.069,12.04-.531.574-1.042,1.17-1.554,1.766l-.387.451a1,1,0,0,1-1.683-1.031c2.147-5.26,4.2-10.882,3.678-16.7-.28-3.115-1.61-5.369-3.846-6.518-2.608-1.34-6.115-.991-9.382.931-6.642,3.911-12.046,10.64-16.9,17.33a3.316,3.316,0,0,0,.811,4.97,4.627,4.627,0,0,0,6.6-.868,72.419,72.419,0,0,1,7.158-8.374,1,1,0,0,1,1.587,1.185q-.565,1.035-1.143,2.066a152.988,152.988,0,0,0-7.053,13.74l-.449,1.034c-3.788,8.707-8.974,20.632-4.406,29.445,2.219,4.281,7.471,4.7,11.512,2.9,5.043-2.241,8.728-6.9,12.291-11.408.461-.582.918-1.16,1.373-1.725,3.046-3.791,5.881-7.838,8.624-11.752q1.479-2.112,2.973-4.219l.284-.4a74.4,74.4,0,0,1,4.824-6.284l.089-.1A1.092,1.092,0,0,1,181.64,215.788Zm19.82,6.517h0Z" fill="#3c384f"/>
        <path id="Trazado_115017" data-name="Trazado 115017" d="M142.792,223.274c-3.684,7.4-5.763,16.084-2.526,24.042.478,1.177,2.413.662,1.928-.532-3.038-7.472-1.14-15.537,2.325-22.5C145.091,223.135,143.366,222.12,142.792,223.274Z" fill="#3c384f"/>
        <path id="Trazado_115018" data-name="Trazado 115018" d="M145.829,244.381c-.017,0-.033-.007-.049-.01-.028-.054-.053-.113-.062-.129l-.005-.006c0-.008,0,0,0-.014-.129-.447-.221-.9-.319-1.354q-.339-1.582-.679-3.165a1.007,1.007,0,0,0-1.23-.7,1.023,1.023,0,0,0-.7,1.23q.384,1.789.769,3.58c.213.993.554,2.3,1.744,2.495a1.024,1.024,0,0,0,1.23-.7A1.011,1.011,0,0,0,145.829,244.381Z" fill="#3c384f"/>
        <path id="Trazado_115019" data-name="Trazado 115019" d="M189.856,201.723c-1.135-.606-2.146,1.12-1.009,1.727,1.57.838,2.049,2.544,2.111,4.22a28.922,28.922,0,0,1-.451,5.733,38.049,38.049,0,0,1-3.471,10.742c-.571,1.149,1.153,2.163,1.727,1.009a40.021,40.021,0,0,0,3.882-12.651C193.116,208.9,193.68,203.764,189.856,201.723Z" fill="#3c384f"/>
      </g>
      <g id="Grupo_81068" data-name="Grupo 81068">
        <g id="Grupo_81067" data-name="Grupo 81067">
          <g id="Grupo_81066" data-name="Grupo 81066">
            <path id="Trazado_115020" data-name="Trazado 115020" d="M199.088,219.934c-4.818,4.93-9.8,9.679-14.872,14.343,2.194-4.959,4.56-9.841,6.643-14.852,2.361-5.682,5.105-13.427,2.129-19.387-6.784-13.585-23.933-.256-30.244,6.583-.673.728-1.314,1.489-1.964,2.242,2.254-5.522,4.284-11.2,3.749-17.162-.737-8.2-8.257-10.171-14.731-6.36-6.953,4.093-12.536,11.174-17.2,17.6-3.96,5.462,5.1,10.662,9.031,5.278a71.117,71.117,0,0,1,7.058-8.258q-.562,1.03-1.136,2.058a153.4,153.4,0,0,0-7.1,13.83c-3.953,9.12-9.8,21.744-4.825,31.337,2.506,4.834,8.381,5.325,12.806,3.358,5.947-2.644,10.066-8.481,14.037-13.421,4.145-5.158,7.8-10.635,11.632-16.017a78.554,78.554,0,0,1,5.041-6.6c.042-.047.087-.091.129-.139l-.046.146c-1.019,3.168-2.33,6.208-3.656,9.256-2.469,5.67-5.652,11.639-6.556,17.81-.8,5.456,1.41,11.571,7.972,11.175,6.168-.372,11.112-6.314,15.236-10.282,4.995-4.806,9.9-9.708,14.806-14.6C212.151,222.763,204.148,214.757,199.088,219.934Z" fill="#6b8dff"/>
            <path id="Trazado_115021" data-name="Trazado 115021" d="M176.4,253.777a7.836,7.836,0,0,1-5.97-2.477c-2.078-2.263-2.976-5.949-2.4-9.861.746-5.1,2.97-9.982,5.121-14.705.514-1.131,1.024-2.25,1.507-3.358.457-1.051.938-2.155,1.415-3.3-.292.406-.581.812-.867,1.214l-.284.4c-1,1.4-1.981,2.8-2.965,4.206-2.76,3.941-5.615,8.016-8.7,11.857q-.677.843-1.362,1.714c-3.541,4.477-7.554,9.552-13.048,11.995-4.9,2.175-11.313,1.565-14.1-3.812-5.007-9.658.4-22.087,4.346-31.163l.449-1.031c1.161-2.681,2.463-5.3,3.843-7.9q-.479.625-.942,1.259a6.654,6.654,0,0,1-9.393,1.307,5.277,5.277,0,0,1-1.254-7.761c4.977-6.865,10.542-13.783,17.5-17.88,3.863-2.272,8.089-2.641,11.311-.986,2.836,1.457,4.584,4.339,4.924,8.118a30.609,30.609,0,0,1-1.947,12.721c5.136-5.016,14.632-12.131,22.251-11.053,3.5.5,6.21,2.621,8.053,6.312,3.031,6.07.639,13.626-2.1,20.218-1.3,3.137-2.738,6.268-4.125,9.295l-.491,1.071c4.127-3.869,7.819-7.474,11.207-10.94h0a6.008,6.008,0,0,1,5.986-1.777,7.365,7.365,0,0,1,5.1,5.061,6.058,6.058,0,0,1-1.721,6.063l-.558.557c-4.645,4.636-9.448,9.429-14.26,14.059-.593.571-1.2,1.182-1.831,1.812-3.735,3.745-8.384,8.407-14.039,8.748C176.828,253.771,176.613,253.777,176.4,253.777Zm2.869-40.361a.943.943,0,0,1,.484.13.972.972,0,0,1,.473,1.135l-.047.146c-1.068,3.321-2.461,6.523-3.69,9.347-.487,1.118-1,2.248-1.521,3.389-2.093,4.6-4.257,9.348-4.963,14.166-.479,3.272.248,6.421,1.9,8.218a6.005,6.005,0,0,0,5.024,1.815c4.9-.3,9.066-4.476,12.744-8.165.638-.64,1.258-1.261,1.86-1.84,4.8-4.617,9.6-9.4,14.235-14.034l.557-.557a4.065,4.065,0,0,0,1.2-4.124,5.38,5.38,0,0,0-3.671-3.648,4.005,4.005,0,0,0-4.051,1.239h0c-4.377,4.477-9.254,9.181-14.911,14.381a1,1,0,0,1-1.591-1.141c.829-1.875,1.683-3.738,2.536-5.6,1.38-3.011,2.806-6.125,4.1-9.23,2.566-6.174,4.83-13.207,2.158-18.557-1.554-3.111-3.7-4.82-6.545-5.225-7.1-1.005-17.093,6.647-22.07,12.04-.53.575-1.041,1.171-1.553,1.766l-.388.452a1,1,0,0,1-1.683-1.032c2.148-5.259,4.2-10.882,3.679-16.7-.28-3.116-1.61-5.37-3.846-6.519-2.609-1.339-6.115-.99-9.382.932-6.643,3.91-12.046,10.64-16.9,17.33a3.314,3.314,0,0,0,.811,4.969,4.626,4.626,0,0,0,6.6-.867,72.237,72.237,0,0,1,7.158-8.374,1,1,0,0,1,1.586,1.184q-.565,1.036-1.142,2.067a153,153,0,0,0-7.054,13.74l-.449,1.034c-3.787,8.707-8.973,20.632-4.4,29.444,2.219,4.282,7.471,4.7,11.512,2.9,5.043-2.241,8.728-6.9,12.291-11.408q.691-.875,1.372-1.726c3.047-3.79,5.882-7.837,8.625-11.751.986-1.408,1.973-2.817,2.973-4.22l.284-.4a74.44,74.44,0,0,1,4.823-6.284l.09-.1A1.091,1.091,0,0,1,179.268,213.416Zm19.82,6.518h0Z"/>
          </g>
          <path id="Trazado_115022" data-name="Trazado 115022" d="M140.421,220.9c-3.685,7.4-5.763,16.083-2.527,24.042.479,1.176,2.414.662,1.929-.532-3.039-7.473-1.141-15.537,2.325-22.5C142.719,220.763,140.995,219.749,140.421,220.9Z"/>
          <path id="Trazado_115023" data-name="Trazado 115023" d="M143.458,242.01c-.017,0-.033-.007-.049-.01-.028-.055-.054-.113-.063-.129l0-.006c0-.008,0,0,0-.015-.129-.446-.222-.9-.319-1.353q-.34-1.582-.679-3.165a1.008,1.008,0,0,0-1.231-.7,1.023,1.023,0,0,0-.7,1.23l.768,3.579c.214.994.555,2.3,1.745,2.5a1.025,1.025,0,0,0,1.23-.7A1.012,1.012,0,0,0,143.458,242.01Z"/>
          <path id="Trazado_115024" data-name="Trazado 115024" d="M187.485,199.352c-1.135-.606-2.147,1.12-1.009,1.727,1.57.838,2.048,2.544,2.111,4.219a28.932,28.932,0,0,1-.451,5.734,38.049,38.049,0,0,1-3.471,10.742c-.572,1.149,1.153,2.163,1.727,1.009a40.062,40.062,0,0,0,3.882-12.651C190.745,206.527,191.309,201.392,187.485,199.352Z"/>
        </g>
      </g>
    </g>
    <g id="Grupo_89337" data-name="Grupo 89337" transform="translate(1832.438 57.384)">
      <path id="Trazado_121549" data-name="Trazado 121549" d="M-413.489,451.681c-7.988-.822-21.225.292-27.361-6.12-5.035-5.26,3.332-15.881,5.544-20.8a1.037,1.037,0,0,0-1.255-1.615c-6.584,3.376-12.893,7.265-19.605,10.389-3.385,1.574-7.156,3.089-10.945,3.06-5.7-.044-2.825-8.88-2.014-11.881,0,0,0-.009,0-.014a.775.775,0,0,0-.016-.557.937.937,0,0,0-.744-.636.9.9,0,0,0-.923.232c-2.545,2.666-5.6,5.847-9.625,4.855-3.315-.815-5.5-4.644-7.016-7.379-3.09-5.6-4.419-11.912-5.977-18.045a.97.97,0,0,0-.329-.512.992.992,0,0,0-1.932-.1c-1.587,6.488-3.462,14.688-10.692,16.931-10.366,3.215-22.5-9.079-29.73-14.418a.9.9,0,0,0-.468-.175.986.986,0,0,0-1.25,1.4c3.421,5.986,9.415,13.934,7.35,21.274-1.487,5.284-9.674,6.672-14.091,7.988a1.013,1.013,0,0,0,.492,1.961.881.881,0,0,0,.134.1c5.788,2.562,11.836,7.738,6.424,13.96-2.235,2.57-6.364,4.191-9.378,5.605-4.81,2.253-10.037,3.551-15.159,4.876-.017,0-.028.017-.044.022a.742.742,0,0,0-.229.114.7.7,0,0,0-.1.067.907.907,0,0,0-.1.119c-.5.62-.205,1.831.752,1.715l.021,0c7.233,1.317,17.649,2.415,22.161,9.006,3.9,5.69-1.909,12.928-4.438,17.824-.009.017-.008.035-.017.053a.814.814,0,0,0-.005.816.962.962,0,0,0,1.62.365l.013-.015c4.754-2.941,10.973-8.217,16.9-6.513,7.132,2.046,9.695,14.593,12.367,20.162.476.992,1.837.463,1.945-.453,2.216-4.419,5.113-15.034,10.787-15.52,4.421-.379,6.985,11.567,7.608,14.666a1,1,0,0,0,1.765.323c5.528-4.328,10.564-10.146,18.25-8.782,9.145,1.623,17.689,9.549,25.24,14.407a.913.913,0,0,0,.683.128.989.989,0,0,0,1.244-.952c-.77-7.855-6.969-14.87-4.711-23.169,1.772-6.513,11.612-5.115,16.559-5.073,1.24.01,1.556-1.95.3-2.2l-.043-.008c-3.634-2.032-12.175-5.226-11.282-10.468.67-3.939,6.465-6.367,9.6-7.825,6.893-3.2,14.336-4.536,21.466-7.007l.253-.006A1.088,1.088,0,0,0-413.489,451.681Z" transform="translate(0 0)" fill="#fff"/>
      <g id="Grupo_89336" data-name="Grupo 89336" transform="translate(-562.772 401.828)">
        <path id="Trazado_121550" data-name="Trazado 121550" d="M-457.57,484.236a1.935,1.935,0,0,0-2.308,1.15q-2.188,7.67-9.794,34.947c.027,1.192.465,1.9,1.309,2.131a1.938,1.938,0,0,0,2.308-1.15l9.795-34.949Q-456.3,484.578-457.57,484.236Z" transform="translate(506.199 -451.856)"/>
        <path id="Trazado_121551" data-name="Trazado 121551" d="M-430.806,506.988l.35-3.342a12.616,12.616,0,0,0-.531-3.36,5.508,5.508,0,0,0-.672-2.844q-.315-3.746-.833-3.887a8.756,8.756,0,0,0-3.48-2.715q-3.7-1.283-4.331-1.617l-.206-.057a2.022,2.022,0,0,0-2.241,1.723l-.028.1q-.467,4.588-.564,4.951l-3.441,12.71a21.2,21.2,0,0,1-.446,2.874l-.057.206q-.292,1.085-1,3.28-.594-.165-2.926,7.528l-.335,1.239q-.811,3,1.565,3.638l1.033.282q2.367.474,7.068-1.527a6.284,6.284,0,0,0,2.777-1.246q4.425-3.235,5.209-6.13l2.8-10.335A6.129,6.129,0,0,0-430.806,506.988Zm-4.016.909-2.463,9.094q-1.037,2.6-1.45,2.491a8.947,8.947,0,0,1-3.038,2.615,30.832,30.832,0,0,1-5.828,1.862l-.1-.029q.455-1.68,1.905-5.807a17.289,17.289,0,0,0,2.019-5l.084-.31a25.237,25.237,0,0,0,.725-3.908l3.47-12.814a19.8,19.8,0,0,0,.2-2.383l.931.251a8.1,8.1,0,0,1,2.491,1.449,11.859,11.859,0,0,1,.588,3.155A3.366,3.366,0,0,1-434.9,500,15.372,15.372,0,0,1-434.823,507.9Z" transform="translate(495.31 -454.895)"/>
        <path id="Trazado_121552" data-name="Trazado 121552" d="M-391.943,539.706a1.939,1.939,0,0,0-1.15-2.308q-.387-.1-2.978-.474l-5.374-1.451,3.862-14.263,1.135.309q1.525.412,4.106,1.221,1.343.364,2.233-1.28a1.778,1.778,0,0,0-.256-1.512q.167-.621-4.585-1.906l-1.653-.45,3.217-11.883.036-.542a23,23,0,0,1,2.846.547l3.411.923a9.241,9.241,0,0,1,1.672.785c1.306.095,2.083-.321,2.336-1.253a2.519,2.519,0,0,0,.019-.882,3.179,3.179,0,0,0-2.325-2.07l-5.374-1.454c-1.035-.135-1.571-.2-1.605-.214q-3.783-.775-4.28,1.059a40.308,40.308,0,0,1-1.024,4.6l-7.778,28.727a1.988,1.988,0,0,0,1.583,2.76l7.647,2.068c.1.031.672.107,1.709.242Q-392.351,541.2-391.943,539.706Z" transform="translate(467.252 -462.283)"/>
        <path id="Trazado_121553" data-name="Trazado 121553" d="M-345.477,524.253a11.026,11.026,0,0,0-.13-4.027q.341-3.011-1.387-3.482a2.248,2.248,0,0,0-2.413,1.122q-1.767,4.483-3.973,9.35a35.223,35.223,0,0,0-2.589,5.065,13.909,13.909,0,0,0-1.208,2q-1.588,4.23-1.9,4.144a38.28,38.28,0,0,1-3.2,6.9,13.56,13.56,0,0,0-2.162,4.293l-.029.1q-.326,2.129,1.2,2.541a2.14,2.14,0,0,0,2.065-.661q1.1-3.138,1.384-3.063a.835.835,0,0,1,.282.19q1.193.1,7.627,1.732a6.594,6.594,0,0,0,.986.045,13.034,13.034,0,0,0-.155,2.62q-.724,2.688,1.259,3.553c1.3.1,2.083-.322,2.333-1.252q.022-.076.173-2.283a19.529,19.529,0,0,0,.164-4.279q.309-3.912-.029-4a13.5,13.5,0,0,0-.035-3.557l.9-7.41a11.767,11.767,0,0,0,.4-3.111l.2-.721a3.075,3.075,0,0,0,.083-1.533A11.618,11.618,0,0,0-345.477,524.253Zm-5.106,12.7q-.079,1.948-.366,4.226a19.282,19.282,0,0,1,.025,2.778,20.215,20.215,0,0,1,.051,2.678,1.234,1.234,0,0,0-.676.038q-3.98-.964-5.4-1.35a5.306,5.306,0,0,0-.854-.123c.99-2.279,1.543-3.648,1.666-4.1a16.61,16.61,0,0,0,2.169-4.736,23.058,23.058,0,0,0,2.159-4.293,22.533,22.533,0,0,0,2.267-4.268l.206.058Q-349.595,531.262-350.583,536.956Z" transform="translate(442.305 -471.616)"/>
        <path id="Trazado_121554" data-name="Trazado 121554" d="M-298.123,527.462a1.939,1.939,0,0,0-2.307,1.151q-.712,3.249-.352,3.344-1.119,4.546-1.713,6.742l-2.772,10.234a21.347,21.347,0,0,1-1.587,4.227l-.085.312c-.219,1.42.18,2.263,1.2,2.542a3.435,3.435,0,0,0,1.353-.079q1.219-.721,2.545-5.3l2.8-10.334q.81-3,2.135-8.3a4.9,4.9,0,0,0-.19-.938l.2-.724A2.2,2.2,0,0,0-298.123,527.462Z" transform="translate(407.35 -478.124)"/>
        <path id="Trazado_121555" data-name="Trazado 121555" d="M-310.829,608.637l-.1-.029a2.294,2.294,0,0,0-2.637,1.951c-.464,1.72.092,2.8,1.68,3.226l.206.056a2.081,2.081,0,0,0,2.888-1.66Q-308.157,609.834-310.829,608.637Z" transform="translate(411.438 -527.469)"/>
        <path id="Trazado_121556" data-name="Trazado 121556" d="M-413.489,451.681c-7.987-.822-21.224.292-27.36-6.12-5.035-5.26,3.332-15.881,5.544-20.8a1.037,1.037,0,0,0-1.255-1.615c-6.584,3.376-12.893,7.265-19.605,10.389-3.385,1.574-7.156,3.089-10.945,3.06-5.7-.044-2.825-8.88-2.014-11.881,0,0,0-.009,0-.014a.775.775,0,0,0-.016-.557.937.937,0,0,0-.744-.636.9.9,0,0,0-.923.232c-2.545,2.666-5.6,5.847-9.625,4.855-3.315-.815-5.5-4.644-7.016-7.379-3.09-5.6-4.419-11.912-5.977-18.045a.97.97,0,0,0-.329-.512.992.992,0,0,0-1.932-.1c-1.587,6.488-3.462,14.688-10.692,16.931-10.366,3.215-22.5-9.079-29.73-14.418a.9.9,0,0,0-.468-.175.986.986,0,0,0-1.25,1.4c3.421,5.986,9.415,13.934,7.35,21.274-1.487,5.284-9.674,6.672-14.091,7.988a1.013,1.013,0,0,0,.492,1.961.881.881,0,0,0,.134.1c5.788,2.562,11.836,7.738,6.424,13.96-2.235,2.57-6.364,4.191-9.379,5.605-4.81,2.253-10.037,3.551-15.158,4.876-.017,0-.028.017-.044.022a.742.742,0,0,0-.229.114.7.7,0,0,0-.1.067.907.907,0,0,0-.1.119c-.5.62-.205,1.831.752,1.715l.021,0c7.233,1.317,17.649,2.415,22.161,9.006,3.9,5.69-1.909,12.928-4.438,17.824-.009.017-.008.035-.016.053a.814.814,0,0,0-.005.816.962.962,0,0,0,1.62.365l.013-.015c4.754-2.941,10.973-8.217,16.9-6.513,7.132,2.046,9.7,14.593,12.367,20.162.476.992,1.837.463,1.945-.453,2.216-4.419,5.113-15.034,10.787-15.52,4.421-.379,6.985,11.567,7.608,14.666a1,1,0,0,0,1.765.323c5.528-4.328,10.564-10.146,18.25-8.782,9.145,1.623,17.689,9.549,25.24,14.407a.915.915,0,0,0,.683.128.989.989,0,0,0,1.244-.952c-.77-7.855-6.969-14.87-4.711-23.169,1.772-6.513,11.612-5.115,16.559-5.073,1.24.01,1.556-1.95.3-2.2l-.043-.008c-3.634-2.032-12.175-5.226-11.282-10.468.67-3.939,6.465-6.367,9.6-7.825,6.893-3.2,14.336-4.536,21.466-7.007l.253-.006A1.088,1.088,0,0,0-413.489,451.681Zm-28.034,9.619c-2.99,1.853-6.548,5-5.908,8.928.574,3.526,3.584,6.245,6.95,8.2-4.524-.02-9.188,1.013-11.52,4.66-4.307,6.736-.661,15.925,2.673,23.1-6.941-5.752-15.575-12.473-24.306-13.277-7.113-.658-12.836,3.743-17.348,8.825-.635-5.518-3.291-12.875-8.421-14.484-5.912-1.853-10.65,8.044-12.754,14.26-2.106-7.105-5.957-15.735-12.668-18.405-4.334-1.725-9.418.738-13.664,3.616,2.422-4.266,3.864-9.366,1.909-13.6-3.067-6.647-11.214-9.151-18.606-10.3A64.1,64.1,0,0,0-544,458.64c3.759-1.791,7.851-3.938,9.93-7.7,3.5-6.333-.955-11.472-6.429-14.062,4.9-1.066,10.331-3.126,12.2-7.8,2.143-5.371-.076-11.486-3.112-16.778,7.321,6.132,16.775,11.708,25.7,9.6,5.88-1.388,9.046-7.237,10.719-12.991a40.059,40.059,0,0,0,7.881,17.752c4.7,5.618,10.258,5.47,14.871,1.556-1.23,5.917-.172,11.788,7.822,10.724,8.582-1.141,17-6.4,24.537-11.215-3.6,5.577-6.772,13.065-3.824,18.505,3.171,5.855,12.553,7.359,20.632,7.661A66.052,66.052,0,0,0-441.523,461.3Z" transform="translate(562.772 -401.828)"/>
        <path id="Trazado_121557" data-name="Trazado 121557" d="M-424.621,454.713a.191.191,0,0,0-.185-.317c-1.83.485-3.515,1.281-5.383,1.662-2.187.445-4.435.11-6.637.308-.09.008-.151.141-.052.189C-433.256,458.244-427.39,457.8-424.621,454.713Z" transform="translate(486.303 -433.767)"/>
        <path id="Trazado_121558" data-name="Trazado 121558" d="M-403.289,450.906a1.393,1.393,0,0,0,.981-1.118.18.18,0,0,0-.224-.171,2.01,2.01,0,0,0-1.137.908C-403.851,450.781-403.514,451-403.289,450.906Z" transform="translate(466.124 -430.865)"/>
        <path id="Trazado_121559" data-name="Trazado 121559" d="M-261.257,513.074c-2.553-1.083-4.752-1.214-6.577-3.635-1.811-2.4-1.761-5.415-1.946-8.266a.3.3,0,0,0-.6-.081c-1.294,3.142-.294,6.86,1.7,9.487,1.558,2.05,4.866,3.883,7.415,2.7A.12.12,0,0,0-261.257,513.074Z" transform="translate(385.45 -462.017)"/>
        <path id="Trazado_121560" data-name="Trazado 121560" d="M-360.076,628.528c-4.773-.957-12.341,1.317-14.22,6.3-.027.076.076.123.128.074a22.647,22.647,0,0,1,7.091-4.489c2.222-.9,4.69-.978,7-1.51A.2.2,0,0,0-360.076,628.528Z" transform="translate(448.247 -539.453)"/>
        <path id="Trazado_121561" data-name="Trazado 121561" d="M-502.371,565.9c-.119-.043-.18.133-.083.2a12.8,12.8,0,0,1,5.124,5.945c1.018,2.462.384,4.6-.16,7.043-.053.237.251.46.434.253C-493.074,574.776-497.652,567.624-502.371,565.9Z" transform="translate(526.148 -501.521)"/>
      </g>
    </g>
    <g id="Grupo_89341" data-name="Grupo 89341" transform="matrix(0.809, -0.588, 0.588, 0.809, 644.66, -767.477)">
      <path id="Trazado_121566" data-name="Trazado 121566" d="M-327.494,1265.18c-1.984-1.776-5.8-1.56-8.266-1.621-3.188-.079-7.285-.533-10.256.783-1.018.451-2.168,1.066-2.294,2.309-.135,1.338-.123,2.918,1.2,3.555a11.684,11.684,0,0,0,5.254,11.374c2.629,1.878-.082,3.845-1.616,5.059a11.859,11.859,0,0,0-2.169,2.38,9.7,9.7,0,0,0-1.552,7.314c-1.753,1.545-1.995,4.644.383,5.667,2.554,1.1,5.809,1.03,8.515,1.078,2.852.051,7.417.448,9.861-1.367,1.452-1.079.946-3.77-.255-4.952a11.92,11.92,0,0,0-1.05-7.35,10,10,0,0,0-2.041-2.725c-1.4-1.374-4.367-3.062-1.632-5.105,3.841-2.871,5.591-6.209,5.275-11.048C-326.2,1269.823-325.956,1266.557-327.494,1265.18Z" transform="translate(0 -0.444)" fill="#fff"/>
      <g id="Grupo_89340" data-name="Grupo 89340" transform="translate(-348.549 1262.914)">
        <path id="Trazado_121567" data-name="Trazado 121567" d="M-335.759,1263.559c-3.188-.079-7.285-.533-10.256.783-1.018.451-2.168,1.066-2.294,2.309-.135,1.338-.123,2.918,1.2,3.555a11.684,11.684,0,0,0,5.254,11.374c2.629,1.878-.082,3.845-1.616,5.059a11.863,11.863,0,0,0-2.169,2.38,9.7,9.7,0,0,0-1.552,7.314c-1.753,1.545-1.995,4.644.383,5.667,2.554,1.1,5.809,1.03,8.515,1.078,2.852.051,7.417.448,9.861-1.367,1.452-1.079.946-3.77-.255-4.952a11.92,11.92,0,0,0-1.05-7.35,10,10,0,0,0-2.041-2.725c-1.4-1.374-4.367-3.062-1.632-5.105,3.841-2.871,5.591-6.209,5.275-11.048,1.932-.71,2.178-3.976.64-5.353C-329.478,1263.4-333.292,1263.62-335.759,1263.559Zm6.382,37.528c-.755.56-2.392.612-3.271.714a48.385,48.385,0,0,1-6.262.208,36.83,36.83,0,0,1-4.925-.316c-.669-.1-1.337-.292-2-.439-1.1-.248-1.553-.832-1.645-1.538l.226.08a3.483,3.483,0,0,0,1.164.247.086.086,0,0,0,.043-.159,3.4,3.4,0,0,0-.956-.457c-.163-.055-.326-.123-.491-.187a3.557,3.557,0,0,1,.091-.567,6.257,6.257,0,0,0,3.743.927.1.1,0,0,0,.026-.19c-.688-.209-1.4-.3-2.1-.484-.543-.142-1.046-.431-1.574-.607.067-.208.146-.415.234-.617,1.839,1.434,5.1,1.667,7.225,1.428.087-.01.125-.152.022-.167-2.531-.373-4.8-.5-7.1-1.581q.08-.168.164-.327c5.16,2.235,11.845,1.535,17.253.385C-328.514,1298.222-328.321,1300.3-329.377,1301.087Zm-6.384-18.36c-.817,2.029,2.023,3.713,3.2,4.738,2.591,2.249,3.2,5.816,2.866,9.056-5.628.731-10.861,1.256-16.456-.032a9.734,9.734,0,0,1,3.116-8.775c1.547-1.447,3.72-2.4,3.549-4.84-.127-1.808-2.988-3.04-4.112-4.13-2.35-2.279-2.282-5.564-2.612-8.585,2.413-.1,4.84-.489,7.258-.584,3.005-.119,7.052-.524,9.866.827-.3,2.858-.319,5.7-2.278,8.014C-332.711,1280.008-334.955,1280.724-335.761,1282.727Zm7.268-13.184a.536.536,0,0,0-.081.053c-2.677-1.337-6.306-1.076-9.187-1.029-2.579.042-6.441-.224-8.923.935a2.871,2.871,0,0,1-.256-.3,12.94,12.94,0,0,1,3.061-1.08c1.266-.247,2.557-.2,3.833-.346.112-.012.16-.191.029-.214-2.038-.358-5.387-.144-7.1,1.374a2.123,2.123,0,0,1-.2-.505,5.206,5.206,0,0,1,2.015-1.136c.764-.226,1.562-.268,2.331-.455a.09.09,0,0,0,0-.172,5.517,5.517,0,0,0-4.413,1.186,2.318,2.318,0,0,1,.191-.829,11.449,11.449,0,0,1,4.787-1.3c.094-.01.134-.161.024-.179a7.129,7.129,0,0,0-4.515.949,3.859,3.859,0,0,1,1.887-1.409,13.561,13.561,0,0,1,3.875-.458c1.6-.046,3.212-.057,4.815-.041a35.135,35.135,0,0,1,5.664.466,7.429,7.429,0,0,1,2,.614C-327.569,1266.2-327.295,1269.06-328.493,1269.544Z" transform="translate(348.549 -1263.358)"/>
        <path id="Trazado_121568" data-name="Trazado 121568" d="M-309.218,1352.011a19.888,19.888,0,0,0-5.866-.515c-1.48.016-3.949-.087-5.177.942-1.919,1.608,1.729,3.873,3.4,5.07a4.146,4.146,0,0,1,1.54,2.07c.6,2.078-1.118,3.633-2.574,4.73a10.091,10.091,0,0,0-3.938,6.286,2.9,2.9,0,0,0,.477,2.194,4.12,4.12,0,0,0,2.812.883,50.294,50.294,0,0,0,7.86.03c1.742-.1,3.265-.122,3.586-2.187.411-2.646-1.468-5.365-3.434-6.876-1.745-1.342-3.116-3.108-2.065-5.412.578-1.267,2.174-2.061,3.149-3.005C-308.171,1354.986-306.742,1352.761-309.218,1352.011Zm-.385,3.623c-1.685,1.787-4.233,2.837-3.838,5.74a4.786,4.786,0,0,0,1.982,3.239,9.105,9.105,0,0,1,3.419,4.235c.455,1.24.984,3.777-.87,4.093a28.145,28.145,0,0,1-3.2.269,36.94,36.94,0,0,1-7.94-.193c-2.136-.354-1.211-3.259-.633-4.49a10.536,10.536,0,0,1,2.795-3.606c1.652-1.367,3.033-2.4,3.093-4.7a3.3,3.3,0,0,0-1.338-2.6c-1.1-1.285-2.771-1.991-3.787-3.4-1.564-2.165,4.465-2.153,5.5-2.169a25.578,25.578,0,0,1,3.937.225,8.768,8.768,0,0,1,1.306.287C-307.284,1353.145-308.964,1354.957-309.6,1355.634Z" transform="translate(325.141 -1340.614)"/>
        <path id="Trazado_121569" data-name="Trazado 121569" d="M-273.561,1552.766a.1.1,0,0,0,0,.167.472.472,0,0,0,.472-.015.081.081,0,0,0,0-.137A.473.473,0,0,0-273.561,1552.766Z" transform="translate(282.808 -1517.135)"/>
        <path id="Trazado_121570" data-name="Trazado 121570" d="M-304.865,1557.4a.123.123,0,0,0,0,.245.423.423,0,0,0,.266-.041.061.061,0,0,0,.021-.082C-304.649,1557.406-304.732,1557.4-304.865,1557.4Z" transform="translate(310.332 -1521.248)"/>
        <path id="Trazado_121571" data-name="Trazado 121571" d="M-274.348,1297.382a.112.112,0,0,0,0,.214.7.7,0,0,0,.489,0,.094.094,0,0,0,.019-.146A.5.5,0,0,0-274.348,1297.382Z" transform="translate(283.527 -1293.12)"/>
        <path id="Trazado_121572" data-name="Trazado 121572" d="M-174.215,1264.327c-.31-.724-1.193-1.859-2.077-1.23a.076.076,0,0,0,0,.13,7.385,7.385,0,0,1,.89.4,2.251,2.251,0,0,1,.753,1.247,14.973,14.973,0,0,1,.255,2.244.107.107,0,0,0,.178.047C-173.633,1266.453-173.887,1265.094-174.215,1264.327Z" transform="translate(197.471 -1262.914)"/>
        <path id="Trazado_121573" data-name="Trazado 121573" d="M-335.745,1442.5a12.208,12.208,0,0,1,1.419-2.362,19,19,0,0,1,1.974-1.549.1.1,0,0,0-.069-.166c-.876-.052-1.7.774-2.254,1.366a4.286,4.286,0,0,0-1.273,2.656A.109.109,0,0,0-335.745,1442.5Z" transform="translate(337.495 -1416.874)"/>
        <path id="Trazado_121574" data-name="Trazado 121574" d="M-192.694,1454.989a.157.157,0,0,0-.189.245,7.837,7.837,0,0,1,1.707,3.062,12.9,12.9,0,0,1,.206,3.6.1.1,0,0,0,.191.026C-190.068,1459.773-190.476,1456.176-192.694,1454.989Z" transform="translate(212.027 -1431.39)"/>
      </g>
    </g>
    <g id="Grupo_89343" data-name="Grupo 89343" transform="translate(645.542 -1664.941) rotate(60)">
      <path id="Trazado_121575" data-name="Trazado 121575" d="M2099.519,815.969c-.3-.581-.6-1.158-.9-1.735.3-.009.6-.012.9-.026.01,0,.017-.005.026-.006a.662.662,0,0,0,.656-.873,273.686,273.686,0,0,0-14.122-29.056,1.387,1.387,0,0,0-.121-.177.72.72,0,0,0-.291-.432,18.659,18.659,0,0,0-18.106-2,22.833,22.833,0,0,0-3.336,1.362c-3.467,1.755-7.906,6.678-7.716,10.979-11.054-1.773-23.661,3.936-26.411,15.431a.746.746,0,0,0,.348.792c.2.39.405.778.607,1.168a16.1,16.1,0,0,0-1.234,2.487.667.667,0,0,0-.164.809c5.12,10.593,11.531,20.541,16.645,31.13l0,0,.011.014a.534.534,0,0,0,.825.192.663.663,0,0,0,.323-.363c3.734-9.654,15.6-17.521,26.139-14.742a.771.771,0,0,0,.971-.894c3.2-10.276,15.275-13.8,24.775-11.474a.7.7,0,0,0,.776-1.057A5.909,5.909,0,0,0,2099.519,815.969Z" transform="translate(0)" fill="#fff"/>
      <g id="Grupo_89342" data-name="Grupo 89342" transform="translate(2029.58 780.191)">
        <path id="Trazado_121576" data-name="Trazado 121576" d="M2055.674,867.277c2.835-7.628,9.036-9.576,16.594-8.979.731.058.875-1.1.172-1.268-8.1-1.881-15.3,2.11-17.947,9.921C2054.237,867.707,2055.4,868.007,2055.674,867.277Z" transform="translate(-2048.026 -836.825)"/>
        <path id="Trazado_121577" data-name="Trazado 121577" d="M2068.513,884.987a.63.63,0,0,0,1.086.635c3.2-5.147,10.008-8.382,15.85-8.688.719-.037.957-1.177.178-1.317C2079.59,874.536,2071.213,879.594,2068.513,884.987Z" transform="translate(-2058.392 -850.841)"/>
        <path id="Trazado_121578" data-name="Trazado 121578" d="M2079.039,904.758c-.347.735.73,1.383,1.1.643,2.97-5.923,9.846-7.736,15.94-7.933.7-.022.917-1.148.172-1.268C2089.8,895.159,2081.893,898.715,2079.039,904.758Z" transform="translate(-2066.203 -866.078)"/>
        <path id="Trazado_121579" data-name="Trazado 121579" d="M2087.582,923.151a.675.675,0,0,0,1.165.681c3.364-5.79,8.9-7.512,15.178-8.313a.659.659,0,0,0,0-1.317A17.472,17.472,0,0,0,2087.582,923.151Z" transform="translate(-2072.521 -879.524)"/>
        <path id="Trazado_121580" data-name="Trazado 121580" d="M2119.123,935.461a34.337,34.337,0,0,1,8.656-4.426.638.638,0,0,0-.338-1.229c-3.323.461-6.347,2.582-8.954,4.569C2117.857,934.855,2118.457,935.94,2119.123,935.461Z" transform="translate(-2095.307 -891.124)"/>
        <path id="Trazado_121581" data-name="Trazado 121581" d="M2155.064,812.679c2.574-7.718,10.946-9.392,17.935-7.422a.665.665,0,0,0,.51-1.211c-6.972-4.472-17.607.932-19.729,8.279A.667.667,0,0,0,2155.064,812.679Z" transform="translate(-2121.651 -796.673)"/>
        <path id="Trazado_121582" data-name="Trazado 121582" d="M2165.507,831.823c-.451.736.669,1.366,1.144.668,3.6-5.294,9.638-6.714,15.672-6.144.814.077.913-1.151.186-1.374C2176.218,823.045,2168.854,826.352,2165.507,831.823Z" transform="translate(-2130.292 -812.987)"/>
        <path id="Trazado_121583" data-name="Trazado 121583" d="M2176.18,853.11c-.539.748.684,1.43,1.223.714,3.552-4.72,9.756-6.519,15.42-6.091.751.057.844-1.062.172-1.269C2187.047,844.636,2179.657,848.274,2176.18,853.11Z" transform="translate(-2138.184 -828.976)"/>
        <path id="Trazado_121584" data-name="Trazado 121584" d="M2185.513,872.234c-.54.681.4,1.659.972.971,4.008-4.8,10.37-6.185,16.284-6.838a.68.68,0,0,0,0-1.358C2196.712,864.445,2189.3,867.45,2185.513,872.234Z" transform="translate(-2145.084 -843.033)"/>
        <path id="Trazado_121585" data-name="Trazado 121585" d="M2193.571,890.064a.671.671,0,0,0,1.158.677c3.159-5.457,10.269-7.091,16.067-7.244.726-.019.93-1.145.176-1.3C2204.88,880.935,2196.54,884.494,2193.571,890.064Z" transform="translate(-2151.115 -855.639)"/>
        <path id="Trazado_121586" data-name="Trazado 121586" d="M2099.519,815.969c-.3-.581-.6-1.158-.9-1.735.3-.009.6-.012.9-.026.01,0,.017-.005.026-.006a.662.662,0,0,0,.656-.873,273.686,273.686,0,0,0-14.122-29.056,1.387,1.387,0,0,0-.121-.177.72.72,0,0,0-.291-.432,18.659,18.659,0,0,0-18.106-2,22.833,22.833,0,0,0-3.336,1.362c-3.467,1.755-7.906,6.678-7.716,10.979-11.054-1.773-23.661,3.936-26.411,15.431a.746.746,0,0,0,.348.792c.2.39.405.778.607,1.168a16.1,16.1,0,0,0-1.234,2.487.667.667,0,0,0-.164.809c5.119,10.593,11.531,20.541,16.645,31.13l0,0,.011.014a.534.534,0,0,0,.825.192.664.664,0,0,0,.323-.363c3.734-9.654,15.6-17.521,26.139-14.742a.771.771,0,0,0,.971-.894c3.2-10.276,15.275-13.8,24.774-11.474a.7.7,0,0,0,.776-1.057A5.909,5.909,0,0,0,2099.519,815.969ZM2065.3,784.864c5.633-3.583,12.671-2.287,18.407.245a1.35,1.35,0,0,0,.15.462c4.832,8.944,9.433,18.011,14.308,26.929-10.1-2.028-22.652,1.156-26.021,11.423-4.76-9.557-9.131-19.3-13.888-28.862,0-.009,0-.016,0-.025C2058.048,790.833,2062.03,786.941,2065.3,784.864Zm-8.865,11.438c4.519,9.776,9.075,19.555,13.925,29.173-9-2.547-20.061,2.812-23.436,11.539-4.86-9.368-9.652-18.781-14.777-28.007a.993.993,0,0,0-.145-.171C2036.692,799.2,2045.99,795.455,2056.432,796.3Zm16.885,32.856c-9.981-2.907-23.058,5.063-26.58,14.583-4.549-10.04-10.584-19.491-15.686-29.254a10.4,10.4,0,0,0,.891-1.371c4.556,8.794,9.155,17.565,13.727,26.351a.986.986,0,0,0,.607.522.627.627,0,0,0,1.1.007c5.675-9.823,13.28-13.85,24.562-11.947a1.07,1.07,0,0,0,1.2-1.118c2.479-5.171,5.184-9.2,10.9-11.266,4.153-1.5,8.5-1.352,12.825-1.393.372.784.747,1.563,1.151,2.331l.022.042C2088.874,814.354,2075.493,819.272,2073.318,829.157Z" transform="translate(-2029.579 -780.191)"/>
      </g>
    </g>
    <g id="Grupo_93339" data-name="Grupo 93339" transform="translate(-681.776 -268.392)">
      <path id="Trazado_126749" data-name="Trazado 126749" d="M1691.874,485.665c13.094-5.355,21.282-13.159,25.769-24.562,4.409-11.208,4.354-24.751-.15-37.158-8.97-24.7-34.613-33.5-55.619-33.5a76.991,76.991,0,0,0-10.145.67c-27.877,3.717-48.752,24.21-50.765,49.834a42.731,42.731,0,0,0,11.3,32.244c10.324,11.162,26.656,14.713,38.044,16.414a47.326,47.326,0,0,0,5.4.352c4.142.121,8.424.245,11.621,2.211,6.269,3.854,8.593,11.7,9.438,17.6a.889.889,0,0,1-1.12.981,43.012,43.012,0,0,0-11.5-1.555c-10.474,0-19.632,3.628-25.121,9.954a19.214,19.214,0,0,0-4.469,15.178,21.914,21.914,0,0,0,9.015,15.085,20.184,20.184,0,0,0,11.719,3.777c13.078,0,26.828-12.622,32.566-24.824a.364.364,0,0,0,.025-.217.889.889,0,0,1,1.369-.839c10.019,6.523,17.874,15.746,21.026,24.72a.276.276,0,0,0,.3.236.7.7,0,0,0,.212-.039.365.365,0,0,0,.225-.138.357.357,0,0,0-.03-.231c-4.1-14.2-10.661-25.16-19.5-32.569a.889.889,0,0,1-.3-.872c2.137-9.691,2.185-20.083.144-31.77A.889.889,0,0,1,1691.874,485.665Zm-15.437,36.38a1.15,1.15,0,0,1-.054.124c-2.788,12.149-9.789,19.178-19.212,19.282h-.117c-6.234,0-9.319-5.347-9.547-10.315-.372-8.059,7.85-11.454,15.669-11.943q.9-.057,1.813-.056a36.9,36.9,0,0,1,10.875,1.761.887.887,0,0,1,.573,1.147Z" transform="translate(-3.17 -3.161)" fill="#fff"/>
      <path id="Trazado_126750" data-name="Trazado 126750" d="M1715.3,458.266c4.683-11.9,4.178-25.889-.142-37.786-9.8-26.991-40.455-36.914-66.717-33.412-26.834,3.578-49.362,23.009-51.532,50.645a43.357,43.357,0,0,0,11.533,32.917c9.81,10.6,24.791,14.632,38.565,16.689,5.131.766,12.239-.3,16.69,2.441,5.677,3.49,8.112,10.6,9.024,16.967-12.623-3.557-28.847-1.34-37.533,8.672-8.361,9.636-5.34,24.571,4.709,31.574,17.415,12.137,38.493-6.291,45.6-21.4a1.251,1.251,0,0,0,.1-.688c9.507,6.19,17.483,15.19,20.657,24.221a1.2,1.2,0,0,0,1.593.81,1.09,1.09,0,0,0,.824-1.476c-3.665-12.7-9.906-24.725-19.783-33,2.354-10.673,2.022-21.4.152-32.115C1701.254,478.331,1710.379,470.773,1715.3,458.266Zm-14.116,77.382a68.386,68.386,0,0,0-20.279-15.78c-9.125-4.831-27.8-10.1-35.426.413-5.042,6.952-2.561,18.619,7.168,19.506,12.4,1.131,19.672-9.568,22.136-20.392h0a53.769,53.769,0,0,1,9.062,4.4,1.058,1.058,0,0,0-.514.521c-6.923,14.722-25.276,30.826-42.169,20.5-11.858-7.25-10.1-24.281.256-31.708,10.5-7.523,26.456-6.574,37.591-1.31C1689.275,516.644,1696.364,525.6,1701.184,535.648Zm-28.752-17.063a1.156,1.156,0,0,0-.065.143c-2.147,9.432-7.669,18.556-18.375,18.674-5.464.061-8.538-4.48-8.767-9.467-.367-7.939,8.574-10.624,14.837-11.016A34.749,34.749,0,0,1,1672.432,518.585Zm14.886-37.242a1.294,1.294,0,0,0-.875,1.542c1.9,10.3,2.318,20.564.238,30.82a45.389,45.389,0,0,0-10.325-5.777c-.329-.131-.676-.237-1.013-.359-1.135-8.853-5.837-21.723-16.337-21.792-16.038-.106-34.19-4.025-46.58-14.78-11.075-9.614-14.488-24.307-12.446-38.37,2.153-14.822,11.632-26.625,24.1-34.374,24.073-14.965,60.131-12.73,79.672,8.553,10.31,11.23,13.825,26.51,11.619,41.363C1712.936,464.54,1702.418,475.435,1687.318,481.343Zm-32.37.446c-12.482,1.256-25.628-3.4-35.925-10.229a.088.088,0,0,1,.088-.152c11.929,5.549,22.854,8.277,35.837,9.989A.2.2,0,0,1,1654.947,481.789Zm-3.44-88.928c8.731-1.271,18.253.271,26.653,2.809,5.915,1.787,12.169,3.72,16.986,7.733.148.122-.039.314-.19.246a117.862,117.862,0,0,0-43.418-10.557C1651.414,393.085,1651.371,392.882,1651.508,392.861Zm44.781,12.032a.179.179,0,0,1,.105-.259c.613-.17,1.229.305,1.682.663a3.284,3.284,0,0,1,1.359,1.821.2.2,0,0,1-.287.221,9.665,9.665,0,0,1-1.547-1.275C1697.184,405.708,1696.536,405.4,1696.289,404.893Zm-36.856,76.573a.15.15,0,0,1,0,.253,2.263,2.263,0,0,1-1.518.233,1.421,1.421,0,0,1-1.067-.255.147.147,0,0,1,0-.208c.366-.331.84-.253,1.307-.258A1.837,1.837,0,0,1,1659.432,481.467Zm-36.623-23.781,3.638-.338q6.326-2.187,6.664-9.281l.062-1.308a22.7,22.7,0,0,0-1.218-7.057q-2.049-4.543-5.159-5.935,4.311-3.26,4.528-7.828a20.221,20.221,0,0,0-.13-2.85q-2.161-6.859-6.928-7.086l-1.287-.062q-5.7-.272-6.2,10.348l-1.4,29.221q-.1,1.995,2.217,2.439l.264.013a2.948,2.948,0,0,0,1.856-.69A16.127,16.127,0,0,1,1622.809,457.686ZM1623,421.14q3.349.161,3.189,3.507l-.062,1.309q-.125,2.639-4.661,5.465Q1621.874,422.8,1623,421.14Zm-1.845,16.756a30.683,30.683,0,0,1,3.359.427q3.151.995,3.715,8.733-.272,5.7-4.153,5.513l-2.326-.111-1.274-.327Zm14.538,13.866q-.167-7.7.084-12.951.889-18.579,5.425-21.007,2.425-1.439,7.058-1.218,4.9.234,4.764,3.071l-.013.266a2.476,2.476,0,0,1-1.906,2.243q-2.824-.4-4.909-.5l-.266-.012q-2.794-.134-3.535,3.719a70.721,70.721,0,0,0-1.233,9.541l-.012.266q4.436-.321,5.967-.248l.266.013q2.572.122,2.689,3.24a2.636,2.636,0,0,1-2.693,1.96l-1.551-.074a44.286,44.286,0,0,0-5.191.263l.241.523-.16,3.37a43.942,43.942,0,0,0,.164,7.275q.6.029,7.311-.94,2.312.444,2.215,2.439l-.011.245q-.142,2.925-8.976,3.215c-.132-.006-.655.05-1.563.169Q1636.421,456.463,1635.692,451.762Zm38.266-26.388a2.547,2.547,0,0,1-.966,2.043,1.923,1.923,0,0,1-1.328.381,4.241,4.241,0,0,1-1.189-.256q-.643-.075-1.939-2.67a5.145,5.145,0,0,0-2.556-.9l-.512-.025q-4.5-.215-6.528,6.421.31,3.726,4.043,6.548a33.768,33.768,0,0,1,5.965,5.6q2.233,2.773,2,7.606-.25,5.234-6.349,8.274l-2.353.4q-4.522-.216-6.239-5.231l.063-1.286q.444-2.312,2.438-2.216a2.392,2.392,0,0,1,2.48,1.807,2.1,2.1,0,0,0,2.015,1.785q1.175.056,2.755-3.246l.038-.777q.248-5.209-6.3-9.122-5.732-5.141-5.48-10.373.354-7.449,8.836-10.977l1.564-.192,2.838.135Q1674.173,420.785,1673.957,425.373Zm17.565-.717-2.861-.136q-2.227,19.671-2.521,25.813l-.3,6.208q-.136,2.86-2.463,2.748l-1.044-.05q-.953-.045-1.672-2.679l.3-1.275q.035-.731,0-5.2l2.508-25.546-.266-.013a17.6,17.6,0,0,0-4.161.579l-.532-.025q-2.307-.532-2.215-2.44.162-3.369,8.453-2.973a27.1,27.1,0,0,1,6.741-.189l.266.012q3.092.414,2.98,2.742T1691.523,424.656Zm12.435-2.517-.024.532a118.967,118.967,0,0,0-3.694,22.89l-.087,1.819q-.475,2.554-2.716,2.448-2.3-.643-2.2-2.682l.185-3.88q2.446-23.748,5.282-23.613l1.042.05Q1704.055,420.145,1703.958,422.139Zm-2.66,33.85-.013.266q-.14,2.948-3.8,3.706l-.266-.012q-4.115-.84-3.948-4.344.119-2.483,4.028-2.919l.531.026Q1701.425,453.328,1701.3,455.989Zm-58.317,87.676c3.5,1.034,6.894,2.346,10.646,1.865,3.682-.472,6.873-1.966,10.28-3.323.147-.059.265.161.152.262-5.463,4.913-15.227,6.094-21.181,1.375C1642.79,543.777,1642.884,543.637,1642.981,543.666Zm22.4-2.169a5.154,5.154,0,0,1,1.225-1.561,3.013,3.013,0,0,1,1.522-.9.2.2,0,0,1,.248.189,1.84,1.84,0,0,1-.927,1.476,5.744,5.744,0,0,1-.979.662c-.282.132-.6.207-.874.348A.158.158,0,0,1,1665.379,541.5Zm19.213-50.911c2.857,4.325,2.715,12.724.085,17.11-.111.185-.468.125-.438-.119.34-2.818,1.022-5.608.973-8.461s-.791-5.631-.875-8.461A.138.138,0,0,1,1684.592,490.586Zm-67.62-82.389c-2.454,2.246-4.423,4.914-6.812,7.206-.1.1-.322,0-.261-.152,2.392-6.068,9.642-11.847,15.6-14.11a.216.216,0,0,1,.209.36C1622.862,403.816,1619.689,405.711,1616.972,408.2Zm10.216-8.357c1.039-1.212,2.818-2.657,4.537-2.286a.2.2,0,0,1,.086.327,9.18,9.18,0,0,1-2.37,1.364,9.319,9.319,0,0,1-2.119.823A.138.138,0,0,1,1627.188,399.84Z" transform="translate(0 0)"/>
    </g>
    <g id="Grupo_93341" data-name="Grupo 93341" transform="translate(1135.446 -962.715)">
      <path id="Trazado_126751" data-name="Trazado 126751" d="M186.227,1179.862a15.4,15.4,0,0,1-.736,5.913c-2.3,6.766-11.794,7.392-19.015,6.184-2.945-.492-5.874-1.109-8.781-1.741q-3.142-.684-6.267-1.462c-2.829,1.168-5.683,2.27-8.614,3.165a.505.505,0,0,1-.534-.81,25.659,25.659,0,0,0,2.487-4.165c-.3-.089-.611-.172-.914-.264-3.443-1.044-6.82-2.509-8.852-5.629-2.051-3.147-1.884-7.894-.191-11.146,1.969-3.782,6.508-5.051,10.439-5.36,6.157-.484,12.508.564,18.517,1.8a73.069,73.069,0,0,1,16.426,5.083C183.792,1173.177,185.963,1175.8,186.227,1179.862Zm-5.271-9.347a19.089,19.089,0,0,1,4.782,3.811.12.12,0,0,0,.2-.116c-.575-3.474-6.806-5.685-9.846-5.742a.03.03,0,0,0-.015.055C177.648,1169.293,179.374,1169.727,180.956,1170.515Zm5.453,4.736a.083.083,0,0,0-.138.08c.114.464.26.917.367,1.382a5.408,5.408,0,0,0,.4,1.378.063.063,0,0,0,.115-.015A3.157,3.157,0,0,0,186.409,1175.251Zm-52.161-6.775c3.24-3.893,7.451-4.7,12.3-5.119.094-.008.129-.156.024-.175-4.24-.781-10.835.573-12.425,5.237A.06.06,0,0,0,134.248,1168.476Zm32.3,24.765a47.794,47.794,0,0,0-6.214-1.223c-2.392-.472-4.767-1.325-7.175-1.651-.073-.01-.127.084-.053.127,2.075,1.223,4.723,1.665,7.054,2.157a21.6,21.6,0,0,0,6.361.8A.106.106,0,0,0,166.547,1193.241Zm1.321.067a1.61,1.61,0,0,0-.807.02.08.08,0,0,0-.016.125,1.278,1.278,0,0,0,.724.183c.257.028.547.1.752-.09a.063.063,0,0,0,0-.088C168.338,1193.281,168.1,1193.321,167.867,1193.308Z"/>
      <g id="Grupo_93340" data-name="Grupo 93340" transform="translate(136.091 1166.29)">
        <path id="Trazado_126752" data-name="Trazado 126752" d="M216.513,1256.292q.24-1.205.456-2.32c-.005-.061-.063-.122-.174-.184a2.947,2.947,0,0,0-.42-.182,3.884,3.884,0,0,0-.542-.15,5.427,5.427,0,0,0-.543-.085,1.733,1.733,0,0,0-.431,0c-.12.019-.182.062-.188.129q-.074.55-.2,1.1t-.235,1.085l-.918-.17q-.335-.062-.612-.119c-.185-.038-.387-.078-.606-.118l-.9-.165.435-2.188q.016-.074-.156-.18a2.527,2.527,0,0,0-.434-.2,5.893,5.893,0,0,0-.58-.183,4.15,4.15,0,0,0-.6-.117,1.6,1.6,0,0,0-.477.005c-.13.024-.2.083-.222.174q-.254,1.363-.487,2.564t-.464,2.324l-.456,2.224-.461,2.248a.3.3,0,0,0,.132.3,1.5,1.5,0,0,0,.428.237,3.93,3.93,0,0,0,.59.166,3.458,3.458,0,0,0,.609.073,2.14,2.14,0,0,0,.484-.036c.134-.029.209-.079.225-.154q.157-.766.267-1.335l.214-1.108q.1-.539.21-1.121t.266-1.362q.568.116.9.178l.614.113.614.113q.335.063.9.18l-1.005,4.967c-.014.066.033.133.138.2a2.032,2.032,0,0,0,.417.195,4.994,4.994,0,0,0,.559.16,3.149,3.149,0,0,0,.57.078,1.419,1.419,0,0,0,.46-.047c.128-.038.2-.1.22-.193q.2-1.08.432-2.266l.48-2.4Q216.272,1257.5,216.513,1256.292Z" transform="translate(-204.418 -1248.939)" fill="#fff"/>
        <path id="Trazado_126753" data-name="Trazado 126753" d="M329.956,1274.3a3.254,3.254,0,0,0-.7-.338,7.086,7.086,0,0,0-.939-.257,5.8,5.8,0,0,0-.966-.121,2.522,2.522,0,0,0-.789.083.546.546,0,0,0-.411.34l-4.236,8.3a.331.331,0,0,0,.024.353.964.964,0,0,0,.34.288,2.389,2.389,0,0,0,.525.2,2.939,2.939,0,0,0,.572.1,1.818,1.818,0,0,0,.488-.028.428.428,0,0,0,.293-.172c.1-.186.191-.369.28-.548s.172-.359.252-.54l3.594.737q0,.309.023.609t.063.6a.406.406,0,0,0,.219.282,2.1,2.1,0,0,0,.477.214,3.771,3.771,0,0,0,.6.137,2.953,2.953,0,0,0,.593.031,1.209,1.209,0,0,0,.445-.1.252.252,0,0,0,.172-.242l-.639-9.564Q330.233,1274.49,329.956,1274.3Zm-4.179,5.411,2.008-3.708.363,4.194Z" transform="translate(-310.514 -1268.714)" fill="#fff"/>
        <path id="Trazado_126754" data-name="Trazado 126754" d="M461.078,1309.146a5.278,5.278,0,0,0,.01-1.3,4.294,4.294,0,0,0-.316-1.191,2.732,2.732,0,0,0-.651-.938,3.262,3.262,0,0,0-1.292-.7,6,6,0,0,0-1.9-.19c0-.061-.065-.12-.182-.179a2.46,2.46,0,0,0-.437-.16,5.1,5.1,0,0,0-.567-.123c-.2-.033-.394-.055-.572-.066a2.348,2.348,0,0,0-.452.01c-.124.018-.191.052-.2.1l-1.885,9.446c-.015.073.035.142.151.2a2.13,2.13,0,0,0,.442.168,5.464,5.464,0,0,0,.579.125q.311.051.591.069a2.8,2.8,0,0,0,.464,0c.123-.014.189-.041.2-.081q.061-.425.16-.875t.175-.884a8.1,8.1,0,0,0,.988.138,7.723,7.723,0,0,0,1,.012,5.474,5.474,0,0,0,.961-.138,3.962,3.962,0,0,0,.884-.321,2.8,2.8,0,0,0,.907-.753,4.075,4.075,0,0,0,.624-1.095A5.5,5.5,0,0,0,461.078,1309.146Zm-2.271-.1a1.664,1.664,0,0,1-.409.836,1.894,1.894,0,0,1-.715.472,2.729,2.729,0,0,1-.9.164,3.813,3.813,0,0,1-.952-.1l.667-3.376a4.032,4.032,0,0,1,.867-.054,1.836,1.836,0,0,1,.835.223,1.3,1.3,0,0,1,.563.643A2,2,0,0,1,458.807,1309.047Z" transform="translate(-431.592 -1297.146)" fill="#fff"/>
        <path id="Trazado_126755" data-name="Trazado 126755" d="M568.972,1323.224a2.712,2.712,0,0,0-.651-.938,3.266,3.266,0,0,0-1.292-.7,6,6,0,0,0-1.9-.189c0-.061-.066-.121-.182-.179a2.563,2.563,0,0,0-.437-.161,5.373,5.373,0,0,0-.567-.122c-.2-.033-.394-.055-.572-.066a2.358,2.358,0,0,0-.453.01c-.124.018-.191.051-.2.1l-1.885,9.446c-.015.074.035.143.151.205a2.171,2.171,0,0,0,.442.167,5.432,5.432,0,0,0,.579.126c.208.033.4.057.591.069a2.733,2.733,0,0,0,.464,0c.123-.013.189-.041.2-.082q.061-.424.16-.875t.175-.884a8,8,0,0,0,.988.138,7.668,7.668,0,0,0,1,.012,5.5,5.5,0,0,0,.962-.138,3.959,3.959,0,0,0,.883-.321,2.783,2.783,0,0,0,.908-.753,4.1,4.1,0,0,0,.623-1.1,5.516,5.516,0,0,0,.32-1.279,5.273,5.273,0,0,0,.01-1.3A4.311,4.311,0,0,0,568.972,1323.224Zm-1.965,2.4a1.661,1.661,0,0,1-.409.836,1.9,1.9,0,0,1-.714.472,2.7,2.7,0,0,1-.9.163,3.775,3.775,0,0,1-.952-.1l.666-3.376a3.975,3.975,0,0,1,.867-.054,1.849,1.849,0,0,1,.836.223,1.306,1.306,0,0,1,.563.642A2,2,0,0,1,567.007,1325.621Z" transform="translate(-531.781 -1312.493)" fill="#fff"/>
        <path id="Trazado_126756" data-name="Trazado 126756" d="M685.332,1340.009a1.772,1.772,0,0,0-.229-.383,4.34,4.34,0,0,0-.373-.43q-.216-.221-.422-.4a2.3,2.3,0,0,0-.374-.266c-.112-.06-.188-.072-.231-.036q-.611.509-1.064.873l-.866.7-.848.683q-.434.351-1.012.847l-.4-4.885c0-.045-.06-.091-.182-.138a2.355,2.355,0,0,0-.451-.114,5.821,5.821,0,0,0-.589-.063,5.739,5.739,0,0,0-.594,0,1.8,1.8,0,0,0-.456.076c-.122.039-.184.1-.187.167q.029.943.113,1.8t.183,1.7q.1.84.187,1.706t.135,1.827l-1.065,2.6c-.031.052,0,.116.1.194a2.592,2.592,0,0,0,.4.25,5.744,5.744,0,0,0,.562.257q.311.123.587.212a2.433,2.433,0,0,0,.474.11c.131.015.2,0,.22-.038l1.1-2.683,5.262-4.328Q685.4,1340.181,685.332,1340.009Z" transform="translate(-638.979 -1326.865)" fill="#fff"/>
        <path id="Trazado_126757" data-name="Trazado 126757" d="M577.647,1263.664a2.316,2.316,0,0,0,.525-1.073c.1-.339.278-.829-.006-1.12a.073.073,0,0,0-.1,0c-.26.24-.234.679-.3,1.006a3.205,3.205,0,0,0-.174,1.17A.036.036,0,0,0,577.647,1263.664Z" transform="translate(-547.282 -1257.476)" fill="#fff"/>
        <path id="Trazado_126758" data-name="Trazado 126758" d="M589.7,1278a1.161,1.161,0,0,0,.507-.52.719.719,0,0,0,.035-.713.07.07,0,0,0-.109-.014,1.6,1.6,0,0,0-.351.479c-.092.189-.221.353-.3.546A.163.163,0,0,0,589.7,1278Z" transform="translate(-558.287 -1271.632)" fill="#fff"/>
        <path id="Trazado_126759" data-name="Trazado 126759" d="M561.21,1269.09a.086.086,0,0,0,.087,0,.8.8,0,0,0,.248-.66.881.881,0,0,0-.214-.761.112.112,0,0,0-.154,0,.881.881,0,0,0-.214.761A.8.8,0,0,0,561.21,1269.09Z" transform="translate(-531.901 -1263.205)" fill="#fff"/>
        <path id="Trazado_126760" data-name="Trazado 126760" d="M610.731,1481.326a.087.087,0,0,0-.157.021,2.324,2.324,0,0,0-.06.815,4.6,4.6,0,0,0,.065.933.215.215,0,0,0,.421-.057,8.686,8.686,0,0,0-.072-.876A1.857,1.857,0,0,0,610.731,1481.326Z" transform="translate(-577.778 -1461.034)" fill="#fff"/>
        <path id="Trazado_126761" data-name="Trazado 126761" d="M621.079,1482.891a.037.037,0,0,0-.041.017.838.838,0,0,0,.017.575.926.926,0,0,0,.33.634.074.074,0,0,0,.1-.026c.169-.235.069-.474-.021-.72A.755.755,0,0,0,621.079,1482.891Z" transform="translate(-587.486 -1462.519)" fill="#fff"/>
        <path id="Trazado_126762" data-name="Trazado 126762" d="M763.7,1451.944a2.115,2.115,0,0,0-.8-.158c-.065,0-.118.093-.058.141a2.728,2.728,0,0,0,.618.355,1.851,1.851,0,0,0,.775.282.171.171,0,0,0,.146-.255C764.238,1452.1,763.932,1452.031,763.7,1451.944Z" transform="translate(-718.809 -1433.718)" fill="#fff"/>
        <path id="Trazado_126763" data-name="Trazado 126763" d="M763.231,1460.28a1.913,1.913,0,0,0-.322-.182c-.11-.04-.23-.037-.336-.075-.036-.013-.059.036-.035.061.052.056.069.138.126.193a1.8,1.8,0,0,0,.287.226c.1.068.315.23.435.1C763.487,1460.487,763.316,1460.332,763.231,1460.28Z" transform="translate(-718.544 -1441.344)" fill="#fff"/>
        <path id="Trazado_126764" data-name="Trazado 126764" d="M286.372,1209.856a3.546,3.546,0,0,0-.087-1.922.246.246,0,0,0-.481.065,4.874,4.874,0,0,0,.435,1.874A.073.073,0,0,0,286.372,1209.856Z" transform="translate(-277.116 -1207.764)" fill="#fff"/>
        <path id="Trazado_126765" data-name="Trazado 126765" d="M301.583,1217.791a.107.107,0,0,0,.145.038.957.957,0,0,0,.007-1.28.088.088,0,0,0-.135.017.98.98,0,0,0-.1.6A1.184,1.184,0,0,0,301.583,1217.791Z" transform="translate(-291.642 -1215.876)" fill="#fff"/>
        <path id="Trazado_126766" data-name="Trazado 126766" d="M334.792,1423.483a1.526,1.526,0,0,0-.756.434c-.213.193-.521.448-.51.76a.185.185,0,0,0,.232.177c.277-.083.438-.388.617-.6a2.158,2.158,0,0,0,.477-.694A.063.063,0,0,0,334.792,1423.483Z" transform="translate(-321.305 -1407.511)" fill="#fff"/>
        <path id="Trazado_126767" data-name="Trazado 126767" d="M349.881,1427.326a1.481,1.481,0,0,0-.2.11,1.527,1.527,0,0,0-.2.229.821.821,0,0,0-.226.629.193.193,0,0,0,.236.134c.21-.081.266-.281.358-.471a1.573,1.573,0,0,0,.1-.3c.024-.1,0-.179.014-.267C349.977,1427.346,349.929,1427.294,349.881,1427.326Z" transform="translate(-335.86 -1411.06)" fill="#fff"/>
        <path id="Trazado_126768" data-name="Trazado 126768" d="M169,1313.093c-.118-.017-.53,0-.53.193,0,.521,1.081.5,1.357.293a.18.18,0,0,0,0-.3A1.719,1.719,0,0,0,169,1313.093Z" transform="translate(-168.466 -1305.29)" fill="#fff"/>
        <path id="Trazado_126769" data-name="Trazado 126769" d="M179.04,1297.242a.269.269,0,0,0-.044-.133,1.8,1.8,0,0,0-.216-.247.6.6,0,0,0-.514-.181c-.033,0-.048.039-.051.067a.532.532,0,0,0,.271.5,1.283,1.283,0,0,0,.3.141c.063.021.139-.014.187,0s.121-.051.082-.107C179.027,1297.292,179.023,1297.28,179.04,1297.242Z" transform="translate(-177.49 -1290.091)" fill="#fff"/>
      </g>
    </g>
  </g>
</svg>
