<svg xmlns="http://www.w3.org/2000/svg" width="210" height="27" viewBox="0 0 210 27">
  <g id="Grupo_82953" data-name="Grupo 82953" transform="translate(-285.333 -135.016)">
    <path id="Rectángulo_34213" data-name="Rectángulo 34213" d="M0,0H210a0,0,0,0,1,0,0V0a27,27,0,0,1-27,27H0a0,0,0,0,1,0,0V0A0,0,0,0,1,0,0Z" transform="translate(285.333 135.016)" fill="#3c3fa7"/>
    <path id="Trazado_129247" data-name="Trazado 129247" d="M2.673-1.846H6.727L6.405,0H.014L1.736-9.953H4.081ZM11.02.137A3.438,3.438,0,0,1,9.252-.332,2.95,2.95,0,0,1,8.08-1.617a3.453,3.453,0,0,1-.314-1.815l.021-.191A4.534,4.534,0,0,1,9.054-6.511,3.508,3.508,0,0,1,11.71-7.533a2.86,2.86,0,0,1,1.627.483,2.7,2.7,0,0,1,.991,1.294A3.963,3.963,0,0,1,14.533-3.9l-.13.938H10a1.442,1.442,0,0,0,.328.943,1.205,1.205,0,0,0,.916.383A2.328,2.328,0,0,0,13-2.393l.943,1.248a2.783,2.783,0,0,1-1.166.931,4.093,4.093,0,0,1-1.637.351Zm.547-5.893a1.157,1.157,0,0,0-.831.3,2.511,2.511,0,0,0-.612,1.047h2.249l.041-.2a1.5,1.5,0,0,0,.014-.449A.791.791,0,0,0,11.566-5.756Zm6.494,2.987L19.913-7.4H22.34L18.84,0H16.55L15.367-7.4h2.311ZM25.478.137A3.438,3.438,0,0,1,23.71-.332a2.95,2.95,0,0,1-1.172-1.285,3.453,3.453,0,0,1-.314-1.815l.021-.191a4.534,4.534,0,0,1,1.268-2.888,3.508,3.508,0,0,1,2.656-1.022,2.86,2.86,0,0,1,1.627.483,2.7,2.7,0,0,1,.991,1.294A3.963,3.963,0,0,1,28.991-3.9l-.13.938h-4.4a1.442,1.442,0,0,0,.328.943,1.205,1.205,0,0,0,.916.383,2.328,2.328,0,0,0,1.757-.752L28.4-1.145a2.783,2.783,0,0,1-1.166.931A4.093,4.093,0,0,1,25.6.137Zm.547-5.893a1.157,1.157,0,0,0-.831.3,2.511,2.511,0,0,0-.612,1.047h2.249l.041-.2a1.5,1.5,0,0,0,.014-.449A.791.791,0,0,0,26.024-5.756ZM31.637,0H29.381L31.2-10.5h2.256Zm5.8-4.895,1.381-5.059h5.674L44.2-8.162H40.394l-.608,1.989a2.576,2.576,0,0,1,1.374-.369,2.409,2.409,0,0,1,2.02.909,3.294,3.294,0,0,1,.584,2.379A3.583,3.583,0,0,1,42.581-.783a3.594,3.594,0,0,1-2.563.926,3.493,3.493,0,0,1-1.6-.41A2.824,2.824,0,0,1,37.3-1.33a2.867,2.867,0,0,1-.39-1.507h2.242a1.4,1.4,0,0,0,.267.854.889.889,0,0,0,.711.335,1.1,1.1,0,0,0,.93-.42,2.521,2.521,0,0,0,.472-1.343,1.732,1.732,0,0,0-.205-1.152.969.969,0,0,0-.854-.393,1.567,1.567,0,0,0-1.21.506Z" transform="translate(294.333 153.016)" fill="#fff"/>
    <path id="Trazado_129245" data-name="Trazado 129245" d="M6.747-4.225H3.09L2.673-1.846H7L6.679,0H.014L1.736-9.953H8.415L8.094-8.1H3.76L3.391-6H7.055ZM10.917-7.4l-.157.889A2.629,2.629,0,0,1,12.9-7.54a1.766,1.766,0,0,1,1.528.762,3.19,3.19,0,0,1,.366,2.123L14.014,0H11.758l.786-4.674a2.417,2.417,0,0,0,.014-.438q-.048-.65-.766-.65a1.406,1.406,0,0,0-1.087.527L9.782,0H7.533L8.818-7.4Zm4.771,3.691A5.62,5.62,0,0,1,16.3-5.729a3.55,3.55,0,0,1,1.207-1.364,2.905,2.905,0,0,1,1.641-.448,2.02,2.02,0,0,1,1.682.8l.239-.663,2.078.007L21.937-.287a3.475,3.475,0,0,1-1.319,2.372,4.2,4.2,0,0,1-2.775.827,3.963,3.963,0,0,1-1.429-.294,3.078,3.078,0,0,1-1.183-.848L16.3.444a1.936,1.936,0,0,0,1.545.772,1.808,1.808,0,0,0,1.9-1.593L19.8-.6a2.313,2.313,0,0,1-1.688.738,2.281,2.281,0,0,1-1.251-.359,2.36,2.36,0,0,1-.848-1.015,3.948,3.948,0,0,1-.349-1.477A6.419,6.419,0,0,1,15.688-3.712Zm2.222.731A1.794,1.794,0,0,0,18.136-2a.765.765,0,0,0,.656.362,1.5,1.5,0,0,0,1.155-.492l.581-3.138a1,1,0,0,0-.916-.492,1.309,1.309,0,0,0-1.1.557,3,3,0,0,0-.561,1.5Q17.91-3.274,17.91-2.98ZM25.56,0H23.3l1.818-10.5h2.256Zm3.8,0H27.1L28.39-7.4h2.256Zm-.772-9.263a1.043,1.043,0,0,1,.352-.834,1.264,1.264,0,0,1,.885-.335,1.305,1.305,0,0,1,.878.3,1.025,1.025,0,0,1,.366.786,1.045,1.045,0,0,1-.349.837,1.268,1.268,0,0,1-.889.332,1.321,1.321,0,0,1-.872-.3A1.013,1.013,0,0,1,28.588-9.263Zm6.371,7.144q.089-.451-.7-.677l-.485-.123A3.738,3.738,0,0,1,32.033-3.8a1.745,1.745,0,0,1-.52-1.347A2.145,2.145,0,0,1,32.46-6.88a3.6,3.6,0,0,1,2.225-.653A3.338,3.338,0,0,1,36.8-6.87a2.163,2.163,0,0,1,.824,1.75l-2.242-.007Q35.41-6,34.61-6a1.1,1.1,0,0,0-.636.2.783.783,0,0,0-.349.537q-.116.554.978.759a5.681,5.681,0,0,1,1.47.523,2.194,2.194,0,0,1,.793.735,1.828,1.828,0,0,1,.253,1.053A1.977,1.977,0,0,1,36.682-1a2.833,2.833,0,0,1-1.207.841,4.322,4.322,0,0,1-1.712.294A3.476,3.476,0,0,1,32.276-.2,2.651,2.651,0,0,1,31.2-1.09a2.317,2.317,0,0,1-.4-1.3l2.092.014a.864.864,0,0,0,.984.971,1.292,1.292,0,0,0,.711-.188A.813.813,0,0,0,34.959-2.119ZM41.07-6.59a2.417,2.417,0,0,1,1.907-.95,1.923,1.923,0,0,1,1.651.813,3.1,3.1,0,0,1,.386,2.133L44.249,0H42l.772-4.627a2.4,2.4,0,0,0,.014-.438.683.683,0,0,0-.752-.7,1.456,1.456,0,0,0-1.08.445L40.011,0H37.762l1.825-10.5h2.249ZM49.1,0l1.723-9.953,2.926.007a3.812,3.812,0,0,1,2.256.68A3.658,3.658,0,0,1,57.374-7.41a5.083,5.083,0,0,1,.212,2.229l-.048.417a5.881,5.881,0,0,1-.889,2.427A5.09,5.09,0,0,1,54.838-.632,4.937,4.937,0,0,1,52.445,0Zm3.746-8.107L51.762-1.853l.684.007a2.331,2.331,0,0,0,1.931-.93,5.207,5.207,0,0,0,.865-2.844l.014-.226a2.716,2.716,0,0,0-.342-1.661A1.388,1.388,0,0,0,53.744-8.1Zm9.311.574a3.106,3.106,0,0,1,1.716.5,2.792,2.792,0,0,1,1.063,1.343,4.145,4.145,0,0,1,.243,1.914l-.014.15A4.383,4.383,0,0,1,63.9-.882,3.558,3.558,0,0,1,61.25.137a3.093,3.093,0,0,1-1.7-.489,2.81,2.81,0,0,1-1.063-1.33,4.028,4.028,0,0,1-.25-1.9,4.56,4.56,0,0,1,1.248-2.9A3.536,3.536,0,0,1,62.159-7.533ZM60.484-3.579l-.021.4q-.1,1.522.93,1.549,1.326.041,1.538-2.15l.027-.621a1.676,1.676,0,0,0-.229-.979.834.834,0,0,0-.714-.379,1.176,1.176,0,0,0-1.022.508A3.327,3.327,0,0,0,60.484-3.579ZM69.221.137a3.438,3.438,0,0,1-1.767-.468,2.95,2.95,0,0,1-1.172-1.285,3.453,3.453,0,0,1-.314-1.815l.021-.191a4.534,4.534,0,0,1,1.268-2.888,3.508,3.508,0,0,1,2.656-1.022,2.86,2.86,0,0,1,1.627.483,2.7,2.7,0,0,1,.991,1.294A3.963,3.963,0,0,1,72.734-3.9l-.13.938H68.2a1.442,1.442,0,0,0,.328.943,1.205,1.205,0,0,0,.916.383A2.328,2.328,0,0,0,71.2-2.393l.943,1.248a2.783,2.783,0,0,1-1.166.931,4.093,4.093,0,0,1-1.637.351Zm.547-5.893a1.157,1.157,0,0,0-.831.3,2.511,2.511,0,0,0-.612,1.047h2.249l.041-.2a1.5,1.5,0,0,0,.014-.449A.791.791,0,0,0,69.768-5.756Zm7.41,3.637q.089-.451-.7-.677L76-2.919A3.738,3.738,0,0,1,74.252-3.8a1.745,1.745,0,0,1-.52-1.347,2.145,2.145,0,0,1,.947-1.733A3.6,3.6,0,0,1,76.9-7.533a3.338,3.338,0,0,1,2.116.663,2.163,2.163,0,0,1,.824,1.75L77.6-5.127Q77.629-6,76.829-6a1.1,1.1,0,0,0-.636.2.783.783,0,0,0-.349.537q-.116.554.978.759a5.681,5.681,0,0,1,1.47.523,2.194,2.194,0,0,1,.793.735,1.828,1.828,0,0,1,.253,1.053A1.977,1.977,0,0,1,78.9-1a2.833,2.833,0,0,1-1.207.841,4.322,4.322,0,0,1-1.712.294A3.476,3.476,0,0,1,74.495-.2a2.651,2.651,0,0,1-1.073-.892,2.317,2.317,0,0,1-.4-1.3l2.092.014A.864.864,0,0,0,76.1-1.4a1.292,1.292,0,0,0,.711-.188A.813.813,0,0,0,77.178-2.119ZM91.7-3.739l2.078-6.214h2.365L92.538,0h-2.42l-.4-5.64L87.568,0h-2.42l-.5-9.953h2.276l.137,6.187,2.283-6.187h1.989Zm7.759-3.794a3.106,3.106,0,0,1,1.716.5,2.792,2.792,0,0,1,1.063,1.343,4.145,4.145,0,0,1,.243,1.914l-.014.15a4.383,4.383,0,0,1-1.265,2.748A3.558,3.558,0,0,1,98.554.137a3.093,3.093,0,0,1-1.7-.489,2.81,2.81,0,0,1-1.063-1.33,4.028,4.028,0,0,1-.25-1.9,4.56,4.56,0,0,1,1.248-2.9A3.536,3.536,0,0,1,99.463-7.533ZM97.788-3.579l-.021.4q-.1,1.522.93,1.549,1.326.041,1.538-2.15l.027-.621a1.676,1.676,0,0,0-.229-.979.834.834,0,0,0-.714-.379,1.176,1.176,0,0,0-1.022.508A3.327,3.327,0,0,0,97.788-3.579Zm10.4-1.733a6.435,6.435,0,0,0-.7-.068,1.737,1.737,0,0,0-1.545.7L105.109,0H102.86l1.285-7.4,2.1-.007-.171.971a2.053,2.053,0,0,1,1.709-1.121,3.223,3.223,0,0,1,.7.1Zm3.309,2.584-.82.711L110.325,0h-2.249L109.9-10.507h2.249L111.111-4.9l.273-.328L113.429-7.4h2.851l-3.145,3.145L115.042,0h-2.468Z" transform="translate(357.333 153.016)" fill="#fff"/>
    <path id="Trazado_129246" data-name="Trazado 129246" d="M0,0V15.857" transform="translate(347.833 140.516)" fill="none" stroke="#fff" stroke-linecap="round" stroke-width="3"/>
  </g>
</svg>
