<svg xmlns="http://www.w3.org/2000/svg" xmlns:xlink="http://www.w3.org/1999/xlink" width="54" height="54" viewBox="0 0 54 54">
  <defs>
    <clipPath id="clip-path">
      <rect id="Rectángulo_35824" data-name="Rectángulo 35824" width="54" height="54" transform="translate(-2659 -1396)" fill="#fff" stroke="#707070" stroke-width="1"/>
    </clipPath>
  </defs>
  <g id="_102" data-name="102" transform="translate(2659 1396)" clip-path="url(#clip-path)">
    <g id="surface1" transform="translate(-2653.297 -1396)">
      <path id="Trazado_127553" data-name="Trazado 127553" d="M41.789,49.772A3.43,3.43,0,0,1,38.358,53.2H4.235A3.43,3.43,0,0,1,.8,49.772,15.661,15.661,0,0,1,16.48,34.1h9.632A15.661,15.661,0,0,1,41.789,49.772Zm0,0" fill="#0a66ea"/>
      <path id="Trazado_127554" data-name="Trazado 127554" d="M41.789,49.772A3.43,3.43,0,0,1,38.358,53.2H7.425a3.43,3.43,0,0,1-3.431-3.431A15.661,15.661,0,0,1,19.671,34.1h6.442A15.661,15.661,0,0,1,41.789,49.772Zm0,0" fill="#5596fb"/>
      <path id="Trazado_127555" data-name="Trazado 127555" d="M23.033,46.842H19.56a1.28,1.28,0,0,1-1.276-1.276V42.493a1.28,1.28,0,0,1,1.276-1.276h3.473a1.28,1.28,0,0,1,1.276,1.276v3.074A1.28,1.28,0,0,1,23.033,46.842Zm0,0" fill="#fb5858"/>
      <path id="Trazado_127556" data-name="Trazado 127556" d="M21.573,41.038l-.277.178-4.97,3.219a1.547,1.547,0,0,1-2.167-.491l-2.823-8.892.133-.138a15.62,15.62,0,0,1,5.012-.819h1L21.3,40.569Zm0,0" fill="#0956c6"/>
      <path id="Trazado_127557" data-name="Trazado 127557" d="M31.257,35.052l-2.823,8.892a1.547,1.547,0,0,1-2.167.491L21.3,41.217l-.277-.179.277-.469L25.111,34.1h1a15.627,15.627,0,0,1,5.012.819Zm0,0" fill="#0956c6"/>
      <path id="Trazado_127558" data-name="Trazado 127558" d="M23.249,46.68H19.415L17.4,53.2h7.94Zm0,0" fill="#d63030"/>
      <path id="Trazado_127559" data-name="Trazado 127559" d="M35.474,22.395a4.046,4.046,0,1,1-4.047-4.046A4.047,4.047,0,0,1,35.474,22.395Zm0,0" fill="#e3a76f"/>
      <path id="Trazado_127560" data-name="Trazado 127560" d="M17.482,28.057v6.011a.1.1,0,0,0,.014.051l3.715,6.306a.1.1,0,0,0,.171,0L25.1,34.119a.1.1,0,0,0,.014-.051V28.058A1.615,1.615,0,0,0,23.5,26.442H19.1A1.616,1.616,0,0,0,17.482,28.057Zm0,0" fill="#e3a76f"/>
      <path id="Trazado_127561" data-name="Trazado 127561" d="M15.212,22.4a4.046,4.046,0,1,1-4.046-4.046A4.046,4.046,0,0,1,15.212,22.4Zm0,0" fill="#e3a76f"/>
      <path id="Trazado_127562" data-name="Trazado 127562" d="M31.817,6.462V25.279a10.523,10.523,0,0,1-8.925,10.4,10.635,10.635,0,0,1-1.6.12,10.521,10.521,0,0,1-10.52-10.52V6.462a3.473,3.473,0,0,1,3.473-3.473H28.344A3.473,3.473,0,0,1,31.817,6.462Zm0,0" fill="#e3a76f"/>
      <path id="Trazado_127563" data-name="Trazado 127563" d="M31.817,6.462V25.279a10.523,10.523,0,0,1-8.925,10.4,10.523,10.523,0,0,1-8.925-10.4V6.462a3.473,3.473,0,0,1,3.473-3.473h10.9A3.473,3.473,0,0,1,31.817,6.462Zm0,0" fill="#f2bb88"/>
      <path id="Trazado_127564" data-name="Trazado 127564" d="M19.108,24.049c0-1.131-1.461-2.048-3.263-2.048s-3.263.917-3.263,2.048S14.042,26.1,15.845,26.1,19.108,25.18,19.108,24.049Zm0,0" fill="#e6e6e6"/>
      <path id="Trazado_127565" data-name="Trazado 127565" d="M30.012,24.049c0-1.131-1.461-2.048-3.263-2.048s-3.263.917-3.263,2.048S24.947,26.1,26.749,26.1,30.012,25.18,30.012,24.049Zm0,0" fill="#e6e6e6"/>
      <path id="Trazado_127566" data-name="Trazado 127566" d="M33.98,5.617v8.472a.594.594,0,0,1-.595.594h-3.3a3.2,3.2,0,0,1-3.2-3.2V5.617a3.2,3.2,0,0,1,3.1-3.2l.1,0h.694A3.2,3.2,0,0,1,33.98,5.617Zm0,0" fill="#9bb9c3"/>
      <path id="Trazado_127567" data-name="Trazado 127567" d="M32.03,1.387V2.466a4.514,4.514,0,0,1-.248,1.4c-1.5,4.566-9.615,11.517-20.02,11.449H9.771c-1.119,0-2.028-.626-2.028-1.4V5.181c0-1.739,1.469-3.24,3.6-3.95A8.826,8.826,0,0,1,14.109.8H31.176C31.648.8,32.03,1.061,32.03,1.387Zm0,0" fill="#9bb9c3"/>
      <path id="Trazado_127568" data-name="Trazado 127568" d="M32.03,1.387V2.466a4.514,4.514,0,0,1-.248,1.4,24.291,24.291,0,0,1-16.42,6.384H13.37c-1.12,0-2.028-.626-2.028-1.4V1.231A8.826,8.826,0,0,1,14.109.8H31.176C31.648.8,32.03,1.061,32.03,1.387Zm0,0" fill="#b4d2d7"/>
      <path id="Trazado_127569" data-name="Trazado 127569" d="M37.61,37.973A.8.8,0,0,0,36.5,39.115a14.768,14.768,0,0,1,4.5,10.657A2.636,2.636,0,0,1,38.358,52.4H34.177V46.464a.8.8,0,0,0-1.6,0V52.4H25.917l-1.654-5.171a2.236,2.236,0,0,0,.843-2.116v-.483l.726.471a2.326,2.326,0,0,0,3.362-.92l2.595-8.172a14.766,14.766,0,0,1,2.34,1.222.8.8,0,0,0,.862-1.343,16.4,16.4,0,0,0-5.975-2.338,10.57,10.57,0,0,0,.949-1,.8.8,0,0,0-1.244-1A9.737,9.737,0,0,1,11.765,27.2c-.274-1.352-.192-1.363-.192-11.093a25.188,25.188,0,0,0,14.509-4.464,4.007,4.007,0,0,0,4,3.837h.938c0,10.15.238,11.207-.759,13.572a.8.8,0,1,0,1.469.62,11.119,11.119,0,0,0,.734-2.547,4.844,4.844,0,0,0,.151-9.428V15.481h.771a1.393,1.393,0,0,0,1.392-1.392V5.617a4,4,0,0,0-1.95-3.435v-.8A1.52,1.52,0,0,0,31.175,0H14.109A8.791,8.791,0,0,0,9.156,1.425a4.591,4.591,0,0,0-2.21,3.756v8.732c0,1.232,1.241,2.2,2.825,2.2h.207V17.7a4.844,4.844,0,0,0,.152,9.428,11.259,11.259,0,0,0,2.5,5.421,11.4,11.4,0,0,0,.955,1,16.332,16.332,0,0,0-2.565.675A16.5,16.5,0,0,0,.007,49.772,4.233,4.233,0,0,0,4.235,54H38.358a4.233,4.233,0,0,0,4.228-4.228A16.355,16.355,0,0,0,37.61,37.973Zm-5-12.553c0-.074,0,.332,0-6.051A3.252,3.252,0,0,1,32.613,25.421ZM32.571,4.015a2.4,2.4,0,0,1,.612,1.6v8.269h-3.1a2.409,2.409,0,0,1-2.406-2.407V10.437a16.5,16.5,0,0,0,4.6-5.637A7.69,7.69,0,0,0,32.571,4.015ZM9.979,19.371c0,6.321,0,5.976,0,6.049A3.252,3.252,0,0,1,9.979,19.371Zm-.207-4.858c-.74,0-1.23-.362-1.23-.6V5.181c0-1.944,2.55-3.586,5.568-3.586,17.837,0,17.081,0,17.123,0v.042a5.171,5.171,0,0,1-.757,3.2c-2.638,4.76-10.172,9.727-18.707,9.669ZM27.2,34.932a14.928,14.928,0,0,1,3.077.553L27.7,43.612a.666.666,0,0,1-.384.249c-.677.17-2.52-1.335-5.251-3L24.911,36A11.156,11.156,0,0,0,27.2,34.932Zm-3.693,8.642v1.964a.485.485,0,0,1-.478.478H19.56a.485.485,0,0,1-.463-.368c-.007-.057-.012-.132-.015-.233V43.574L21.3,42.14ZM22.768,36.5,21.3,39l-1.472-2.5A11.359,11.359,0,0,0,22.768,36.5ZM15.4,34.932A11.255,11.255,0,0,0,17.682,36l2.844,4.846c-2.572,1.578-4.579,3.18-5.251,3.01a.665.665,0,0,1-.384-.249l-2.58-8.124A14.9,14.9,0,0,1,15.4,34.932ZM16.807,52.4h-6.8V46.464a.8.8,0,0,0-1.6,0V52.4H4.235A2.636,2.636,0,0,1,1.6,49.772a14.9,14.9,0,0,1,9.2-13.754c2.756,8.664,2.58,8.171,2.653,8.31a2.29,2.29,0,0,0,2.015,1.155,3.589,3.589,0,0,0,2.012-.847c-.012,1.069-.083,1.97.908,2.645Zm1.67,0,1.476-4.765h2.765L24.244,52.4Zm0,0"/>
      <path id="Trazado_127570" data-name="Trazado 127570" d="M22.64,27.607a1.343,1.343,0,0,1-2.686,0,.8.8,0,0,0-.8-.8c-1.622,0-.694,3.736,2.141,3.736s3.779-3.736,2.141-3.736A.8.8,0,0,0,22.64,27.607Zm0,0"/>
      <path id="Trazado_127571" data-name="Trazado 127571" d="M28.03,21.344h0a1.271,1.271,0,1,0-2.469-.02,4.524,4.524,0,0,0-1.98.927h0a3.013,3.013,0,0,0-4.566,0,4.33,4.33,0,0,0-1.979-.928h0a1.271,1.271,0,1,0-2.469.02c-4.379,1.042-3.29,5.551,1.28,5.551,1.927,0,4.061-1.055,4.061-2.753a1.392,1.392,0,0,1,2.782,0,.828.828,0,0,0,.011.131.3.3,0,0,0,0,.03c.177,1.473,1.891,2.591,4.045,2.591C31.424,26.895,32.319,22.292,28.03,21.344ZM13.606,24.537c-.861-.923.895-1.8,2.387-1.734,1.336.044,2.317.677,2.317,1.246C18.31,25.292,14.8,25.849,13.606,24.537Zm10.677-.488c0-.569.982-1.2,2.318-1.246,1.036-.045,2.613.433,2.613,1.246,0,.647-1.157,1.251-2.465,1.251C25.338,25.3,24.282,24.639,24.282,24.049Zm0,0"/>
      <path id="Trazado_127572" data-name="Trazado 127572" d="M25.246,18.642c.617-.129,2.6-.356,3.6.269a.8.8,0,0,0,.849-1.351c-1.712-1.076-4.462-.544-4.77-.48a.8.8,0,0,0,.325,1.562Zm0,0"/>
      <path id="Trazado_127573" data-name="Trazado 127573" d="M13.751,18.911c.992-.624,2.932-.405,3.6-.269a.8.8,0,0,0,.324-1.562c-.308-.064-3.058-.6-4.77.48a.8.8,0,1,0,.849,1.35Zm0,0"/>
    </g>
  </g>
</svg>
