<svg xmlns="http://www.w3.org/2000/svg" xmlns:xlink="http://www.w3.org/1999/xlink" width="54" height="54" viewBox="0 0 54 54">
  <defs>
    <clipPath id="clip-path">
      <rect id="Rectángulo_35825" data-name="Rectángulo 35825" width="54" height="54" transform="translate(-2659 -1267)" fill="#fff" stroke="#707070" stroke-width="1"/>
    </clipPath>
  </defs>
  <g id="_103" data-name="103" transform="translate(2659 1267)" clip-path="url(#clip-path)">
    <g id="pizarra" transform="translate(-2659 -1264.589)">
      <path id="Trazado_127574" data-name="Trazado 127574" d="M51.59,42.964H2.41A1.619,1.619,0,0,1,.791,41.345V10.79A1.619,1.619,0,0,1,2.41,9.171H51.59a1.619,1.619,0,0,1,1.619,1.619V41.345A1.619,1.619,0,0,1,51.59,42.964Zm0,0" fill="#85cdea"/>
      <path id="Trazado_127575" data-name="Trazado 127575" d="M50.045,12.335V39.8H3.955V12.335Zm0,0" fill="#596674"/>
      <path id="Trazado_127576" data-name="Trazado 127576" d="M3.955,12.335H7.119V39.8H3.955Zm0,0" fill="#565c62"/>
      <path id="Trazado_127577" data-name="Trazado 127577" d="M20.16,42.964H8.7a.811.811,0,0,1-.81-.81V37.4a.811.811,0,0,1,.81-.81H20.16a.811.811,0,0,1,.81.81v4.75A.811.811,0,0,1,20.16,42.964Zm0,0" fill="#fa9f6a"/>
      <path id="Trazado_127578" data-name="Trazado 127578" d="M11.057,42.153V37.4a.811.811,0,0,1,.81-.81H8.7a.811.811,0,0,0-.81.81v4.75a.811.811,0,0,0,.81.81h3.164A.811.811,0,0,1,11.057,42.153Zm0,0" fill="#eb8f59"/>
      <path id="Trazado_127579" data-name="Trazado 127579" d="M50.5,48.386H3.5a2.711,2.711,0,1,1,0-5.423h47a2.711,2.711,0,0,1,0,5.423Zm0,0" fill="#fa9f6a"/>
      <path id="Trazado_127580" data-name="Trazado 127580" d="M3.955,45.675a2.711,2.711,0,0,1,2.711-2.711H3.5a2.711,2.711,0,1,0,0,5.423H6.666A2.711,2.711,0,0,1,3.955,45.675Zm0,0" fill="#eb8f59"/>
      <path id="Trazado_127581" data-name="Trazado 127581" d="M7.892,39.778v2.375a.811.811,0,0,0,.81.81H20.16a.811.811,0,0,0,.81-.81V39.778Zm0,0" fill="#efedee"/>
      <path id="Trazado_127582" data-name="Trazado 127582" d="M11.057,42.153V39.778H7.892v2.375a.811.811,0,0,0,.81.81h3.164A.811.811,0,0,1,11.057,42.153Zm0,0" fill="#d9d7d8"/>
      <path id="Trazado_127583" data-name="Trazado 127583" d="M29.441,3.232A2.441,2.441,0,1,1,27,.791a2.44,2.44,0,0,1,2.441,2.441Zm0,0" fill="#fadc60"/>
      <path id="Trazado_127584" data-name="Trazado 127584" d="M54,41.345V10.79a2.413,2.413,0,0,0-2.41-2.41H43.315L30.23,3.327c0-.032,0-.063,0-.1a3.232,3.232,0,0,0-6.464,0c0,.032,0,.063,0,.1L10.685,8.38H2.41A2.413,2.413,0,0,0,0,10.79V41.345a2.409,2.409,0,0,0,.961,1.924A3.5,3.5,0,0,0,3.5,49.177h47a3.5,3.5,0,0,0,2.542-5.908A2.409,2.409,0,0,0,54,41.345ZM27,1.582a1.65,1.65,0,1,1-1.65,1.65A1.652,1.652,0,0,1,27,1.582ZM24.207,4.855a3.229,3.229,0,0,0,5.586,0l9.13,3.525H15.077Zm28.211,36.49a.829.829,0,0,1-.828.828h-9.3a.791.791,0,0,0,0,1.582H50.5a1.92,1.92,0,0,1,0,3.841H3.5a1.92,1.92,0,1,1,0-3.841H39.335a.791.791,0,0,0,0-1.582H21.761c0-.007,0-.013,0-.019V40.591H50.045a.791.791,0,0,0,.791-.791V12.335a.791.791,0,0,0-.791-.791H3.955a.791.791,0,0,0-.791.791V39.8a.791.791,0,0,0,.791.791H7.1v1.563c0,.006,0,.013,0,.019H2.41a.829.829,0,0,1-.828-.828V10.79a.829.829,0,0,1,.828-.828H51.59a.829.829,0,0,1,.828.828ZM20.16,35.8H8.7a1.6,1.6,0,0,0-1.6,1.6v1.605H4.746V13.126H49.254V39.009H21.761V37.4a1.6,1.6,0,0,0-1.6-1.6Zm-3.775,4.767h3.794v1.584a.019.019,0,0,1-.019.019H8.7a.019.019,0,0,1-.019-.019V40.569h4.749a.791.791,0,0,0,0-1.582H8.683V37.4a.019.019,0,0,1,.019-.019H20.16a.019.019,0,0,1,.019.019v1.584H16.385a.791.791,0,1,0,0,1.582Zm0,0"/>
      <g id="Grupo_93519" data-name="Grupo 93519">
        <path id="Trazado_127585" data-name="Trazado 127585" d="M12.419,31.457a1.179,1.179,0,0,1,.035-.187l3.383-11.013a.859.859,0,0,1,.517-.513,2.3,2.3,0,0,1,.937-.181,2.16,2.16,0,0,1,.946.2.911.911,0,0,1,.525.569l3.38,11.014a1.085,1.085,0,0,1,.035.175.793.793,0,0,1-.473.665,1.87,1.87,0,0,1-.963.28q-.648,0-.77-.455L19.3,29.683H15.553l-.653,2.33q-.138.454-.868.454a2.209,2.209,0,0,1-1.093-.29.839.839,0,0,1-.52-.721Zm3.633-3.56H19.08l-1.524-5.376Zm0,0" fill="#efedee"/>
        <path id="Trazado_127586" data-name="Trazado 127586" d="M23.651,31.767V20.385a.6.6,0,0,1,.3-.525,1.262,1.262,0,0,1,.7-.192h3.38q3.519,0,3.52,3.082a2.707,2.707,0,0,1-1.489,2.784,2.9,2.9,0,0,1,1.348.99,3.2,3.2,0,0,1,.455,1.865v.368a3.714,3.714,0,0,1-.946,2.828,3.594,3.594,0,0,1-2.557.884H24.649a1.164,1.164,0,0,1-.718-.21.606.606,0,0,1-.28-.49Zm2.259-7.127h1.961a1.323,1.323,0,0,0,1.042-.4,1.6,1.6,0,0,0,.359-1.1,1.493,1.493,0,0,0-.376-1.077,1.373,1.373,0,0,0-1.042-.394H25.909Zm0,5.831h1.979q1.7,0,1.7-1.909v-.28a1.974,1.974,0,0,0-.429-1.418,1.7,1.7,0,0,0-1.269-.438H25.909Zm0,0" fill="#efedee"/>
        <path id="Trazado_127587" data-name="Trazado 127587" d="M33.369,28.563V23.677a3.812,3.812,0,0,1,1.121-3.038,4.3,4.3,0,0,1,2.924-.972,4.733,4.733,0,0,1,3,.91,2.916,2.916,0,0,1,1.165,2.417,1.168,1.168,0,0,1-.263.884,1.3,1.3,0,0,1-.875.236q-1.121,0-1.138-.718-.017-.227-.044-.394a2.024,2.024,0,0,0-.14-.438,1.5,1.5,0,0,0-.289-.455,1.4,1.4,0,0,0-.525-.315,2.347,2.347,0,0,0-.823-.131q-1.838,0-1.839,2.014v4.885q0,2.014,1.874,2.014a2.215,2.215,0,0,0,.937-.175A1.109,1.109,0,0,0,39,29.9a2.688,2.688,0,0,0,.228-.578A3.374,3.374,0,0,0,39.3,28.7q.053-.717,1.121-.718a1.339,1.339,0,0,1,.885.236,1.146,1.146,0,0,1,.271.885,3.083,3.083,0,0,1-1.164,2.521,4.642,4.642,0,0,1-3.021.946A4.269,4.269,0,0,1,34.48,31.6a3.828,3.828,0,0,1-1.112-3.038Zm0,0" fill="#efedee"/>
      </g>
    </g>
  </g>
</svg>
