<svg xmlns="http://www.w3.org/2000/svg" xmlns:xlink="http://www.w3.org/1999/xlink" width="54" height="54" viewBox="0 0 54 54">
  <defs>
    <clipPath id="clip-path">
      <rect id="Rectángulo_35829" data-name="Rectángulo 35829" width="54" height="54" transform="translate(-2679 -597)" fill="#fff" stroke="#707070" stroke-width="1"/>
    </clipPath>
  </defs>
  <g id="_106" data-name="106" transform="translate(2679 597)" clip-path="url(#clip-path)">
    <g id="XMLID_2294_" transform="translate(-2679 -597)">
      <g id="XMLID_780_">
        <g id="XMLID_1464_">
          <path id="XMLID_30_" d="M45.345,19.716v4.525l.087.333a4.553,4.553,0,0,0,4.553-4.553V14.47a4.553,4.553,0,0,0-7.969-3.011h0A11.869,11.869,0,0,1,45.345,19.716Z" fill="#6d92ac"/>
        </g>
        <g id="XMLID_962_">
          <path id="XMLID_224_" d="M50.307,36.543a4.962,4.962,0,0,1-4.962-4.962V19.716A11.909,11.909,0,0,0,33.436,7.808a6.467,6.467,0,0,0-4.778,2.109H17.938A14.345,14.345,0,0,0,5.31,31.061a6.893,6.893,0,0,1,.817,3.276V45.164a1.028,1.028,0,0,0,1.028,1.028h4.693a1.028,1.028,0,0,0,1.028-1.028V37.68a14.306,14.306,0,0,0,5.062.92H24.6v6.564a1.028,1.028,0,0,0,1.028,1.028h4.693a1.028,1.028,0,0,0,1.028-1.028v-6.93a12.59,12.59,0,0,0,5.061-2.563h0a10.415,10.415,0,0,0,9.57,6.3h4.17a2.792,2.792,0,0,0,2.792-2.792v-.008A2.631,2.631,0,0,0,50.307,36.543Z" fill="#8aa8bd"/>
        </g>
        <g id="XMLID_1466_">
          <path id="XMLID_32_" d="M36.406,35.671h0a12.587,12.587,0,0,1-5.061,2.563v6.93a1.028,1.028,0,0,1-1.028,1.028h5.061a1.028,1.028,0,0,0,1.028-1.028V35.671h0Z" fill="#6d92ac"/>
        </g>
        <g id="XMLID_1615_">
          <path id="XMLID_33_" d="M17.938,38.6a14.306,14.306,0,0,1-5.062-.92v7.484a1.028,1.028,0,0,1-1.028,1.028H16.91a1.028,1.028,0,0,0,1.028-1.028Z" fill="#6d92ac"/>
        </g>
        <g id="XMLID_866_">
          <g id="XMLID_868_">
            <path id="XMLID_38_" d="M39.017,32.589a5.912,5.912,0,0,1-5.905-5.905,2.109,2.109,0,1,1,4.218,0,1.689,1.689,0,0,0,1.687,1.687,2.109,2.109,0,1,1,0,4.218Z" fill="#fff3da"/>
          </g>
        </g>
      </g>
      <g id="XMLID_263_">
        <path id="XMLID_956_" d="M50.307,35.489A3.912,3.912,0,0,1,46.4,31.581V25.544a5.616,5.616,0,0,0,4.64-5.522V14.47a5.605,5.605,0,0,0-9.013-4.453,12.91,12.91,0,0,0-8.59-3.264,7.539,7.539,0,0,0-5.22,2.109H17.938a15.243,15.243,0,0,0-6.82,1.59,1.055,1.055,0,1,0,.936,1.89,13.153,13.153,0,0,1,5.885-1.371h3.591a5.579,5.579,0,0,0-1.23,3.5v5.551a5.608,5.608,0,1,0,11.216,0,1.055,1.055,0,0,0-2.109,0,3.5,3.5,0,1,1-7,0V14.47a3.5,3.5,0,0,1,6.308-2.086,1.055,1.055,0,0,0,1.692-1.259,5.569,5.569,0,0,0-.7-.773,5.424,5.424,0,0,1,3.727-1.49A10.867,10.867,0,0,1,44.29,19.716V31.581A6.023,6.023,0,0,0,50.307,37.6a1.586,1.586,0,0,1,1.584,1.584,1.74,1.74,0,0,1-1.738,1.738H45.976a9.374,9.374,0,0,1-9.2-7.649,6.928,6.928,0,0,0,2.243.373,3.164,3.164,0,0,0,0-6.327.633.633,0,0,1-.633-.633,3.164,3.164,0,1,0-6.327,0,6.946,6.946,0,0,0,2.459,5.3,11.4,11.4,0,0,0,.625,3.334,11.612,11.612,0,0,1-4.049,1.89,1.054,1.054,0,0,0-.8,1.024v6.9h-4.64V38.6A1.055,1.055,0,0,0,24.6,37.545H12.876A1.055,1.055,0,0,0,11.822,38.6v6.538H7.182v-10.8a7.971,7.971,0,0,0-.944-3.777,13.3,13.3,0,0,1-1.587-6.3,13.163,13.163,0,0,1,1.3-5.748,1.055,1.055,0,0,0-1.9-.914,15.218,15.218,0,0,0-1.486,5.757A3.6,3.6,0,0,0,0,26.8V37.545a1.055,1.055,0,1,0,2.109,0V26.8a1.483,1.483,0,0,1,.5-1.109,15.4,15.4,0,0,0,1.773,5.871,5.855,5.855,0,0,1,.69,2.775V45.164a2.085,2.085,0,0,0,2.083,2.083H16.91a2.085,2.085,0,0,0,2.083-2.083v-5.51h4.549v5.51a2.085,2.085,0,0,0,2.083,2.083h9.753a2.085,2.085,0,0,0,2.083-2.083V39.233a11.441,11.441,0,0,0,8.515,3.8h4.177A3.851,3.851,0,0,0,54,39.182a3.7,3.7,0,0,0-3.693-3.693ZM43.5,11.554A3.5,3.5,0,0,1,48.93,14.47v5.551A3.5,3.5,0,0,1,46.4,23.383V19.716a12.9,12.9,0,0,0-2.9-8.162ZM35.221,25.629a1.056,1.056,0,0,1,1.055,1.055,2.745,2.745,0,0,0,2.742,2.742,1.055,1.055,0,1,1,0,2.109,4.856,4.856,0,0,1-4.851-4.851A1.056,1.056,0,0,1,35.221,25.629ZM16.883,45.138H13.931V39.654h2.953Zm15.516,0v-6.1a13.76,13.76,0,0,0,2.952-1.325v7.43H32.4Z"/>
        <path id="XMLID_998_" d="M37.746,19.942a1.054,1.054,0,1,0-.745.309A1.058,1.058,0,0,0,37.746,19.942Z"/>
        <path id="XMLID_1001_" d="M7.739,15.23a1.055,1.055,0,1,0-.746-.309A1.065,1.065,0,0,0,7.739,15.23Z"/>
      </g>
    </g>
  </g>
</svg>
