<svg xmlns="http://www.w3.org/2000/svg" xmlns:xlink="http://www.w3.org/1999/xlink" width="54" height="54" viewBox="0 0 54 54">
  <defs>
    <clipPath id="clip-path">
      <rect id="Rectángulo_35830" data-name="Rectángulo 35830" width="54" height="54" transform="translate(-2679 -465)" fill="#fff" stroke="#707070" stroke-width="1"/>
    </clipPath>
  </defs>
  <g id="_107" data-name="107" transform="translate(2679 465)" clip-path="url(#clip-path)">
    <g id="campo" transform="translate(-2679 -465.053)">
      <path id="Trazado_127592" data-name="Trazado 127592" d="M11.074,22.8H34.945V34.46H11.074Zm0,0" fill="#fea02c"/>
      <path id="Trazado_127593" data-name="Trazado 127593" d="M19.3,29.93V26.367H14.66v2.044Zm0,0" fill="#ff5d5d"/>
      <path id="Trazado_127594" data-name="Trazado 127594" d="M11.4,50.365A48.632,48.632,0,0,1,26.612,34.788l.234-.328A48.655,48.655,0,0,0,1.055,27.066V53H9.791Zm0,0" fill="#62cd4d"/>
      <path id="Trazado_127595" data-name="Trazado 127595" d="M9.791,53,11.4,50.365A48.674,48.674,0,0,1,52.945,27.048V53Zm0,0" fill="#a0e557"/>
      <path id="Trazado_127596" data-name="Trazado 127596" d="M11.074,22.8l5.906-5.941L22.887,22.8Zm0,0" fill="#fe8f8d"/>
      <path id="Trazado_127597" data-name="Trazado 127597" d="M34.945,22.8l-5.906-5.941H16.98L22.887,22.8Zm0,0" fill="#ff5d5d"/>
      <g id="Grupo_93520" data-name="Grupo 93520">
        <path id="Trazado_127598" data-name="Trazado 127598" d="M42.968,24.032c-7.873-6.331-7.873-16.594,0-22.925C50.841,7.438,50.841,17.7,42.968,24.032Zm0,0" fill="#a0e557"/>
        <path id="Trazado_127599" data-name="Trazado 127599" d="M6.75,22.218C.8,17.432.8,9.673,6.75,4.887,12.7,9.673,12.7,17.432,6.75,22.218Zm0,0" fill="#a0e557"/>
        <path id="Trazado_127600" data-name="Trazado 127600" d="M20.063,39.661A40.789,40.789,0,0,0,1.055,34.923v8.49a32.22,32.22,0,0,1,13.168,2.833" fill="#a0e557"/>
      </g>
      <path id="Trazado_127601" data-name="Trazado 127601" d="M19.042,53a41.083,41.083,0,0,1,33.9-18.092V43.4A32.545,32.545,0,0,0,29.974,53Zm0,0" fill="#62cd4d"/>
      <path id="Trazado_127602" data-name="Trazado 127602" d="M52.945,42.341a33.7,33.7,0,0,0-23.719,9.913,1.055,1.055,0,0,0,1.5,1.488A31.578,31.578,0,0,1,52.945,44.45a1.055,1.055,0,1,0,0-2.109Zm0,0"/>
      <path id="Trazado_127603" data-name="Trazado 127603" d="M30.952,41.364a1.054,1.054,0,0,0-1.464-.283A41.629,41.629,0,0,0,18.166,52.41a1.055,1.055,0,1,0,1.751,1.176A39.519,39.519,0,0,1,30.668,42.828a1.055,1.055,0,0,0,.283-1.464Zm0,0"/>
      <path id="Trazado_127604" data-name="Trazado 127604" d="M52.945,33.851a41.479,41.479,0,0,0-13.871,2.394,1.055,1.055,0,1,0,.7,1.988A39.377,39.377,0,0,1,52.945,35.96a1.055,1.055,0,1,0,0-2.109Zm0,0"/>
      <path id="Trazado_127605" data-name="Trazado 127605" d="M15.111,46.815A48.071,48.071,0,0,1,43.177,29.133h.006A47.007,47.007,0,0,1,52.945,28.1a1.054,1.054,0,1,0,0-2.109,49.631,49.631,0,0,0-8.923.811V24.528a15.62,15.62,0,0,0,5.9-11.959A15.733,15.733,0,0,0,43.628.285a1.055,1.055,0,0,0-1.322,0,15.735,15.735,0,0,0-6.3,12.284,15.622,15.622,0,0,0,5.9,11.959v2.708A49.938,49.938,0,0,0,36,28.974V22.8a1.051,1.051,0,0,0-.307-.743h0l-5.906-5.941a1.056,1.056,0,0,0-.748-.311H16.98a1.055,1.055,0,0,0-.748.311l-5.906,5.941h0a1.051,1.051,0,0,0-.307.744v4.028q-1.1-.2-2.215-.355v-3.76a12.037,12.037,0,0,0,4.464-9.159A12.148,12.148,0,0,0,7.411,4.065a1.055,1.055,0,0,0-1.322,0,12.148,12.148,0,0,0-4.858,9.488A12.037,12.037,0,0,0,5.7,22.712v3.518q-2.307-.216-4.641-.218a1.055,1.055,0,0,0,0,2.109,47.57,47.57,0,0,1,23.954,6.464,49.79,49.79,0,0,0-4.982,3.869A41.96,41.96,0,0,0,1.055,33.869a1.055,1.055,0,1,0,0,2.109A39.817,39.817,0,0,1,18.37,39.986a49.845,49.845,0,0,0-4.485,4.965,32.992,32.992,0,0,0-12.83-2.592,1.055,1.055,0,1,0,0,2.109A30.867,30.867,0,0,1,12.57,46.695q-1.093,1.519-2.073,3.121L8.891,52.448a1.055,1.055,0,1,0,1.8,1.1L12.3,50.914a46.822,46.822,0,0,1,2.709-3.963,1,1,0,0,0,.1-.136ZM38.118,12.57a13.458,13.458,0,0,1,4.85-10.082,13.458,13.458,0,0,1,4.85,10.082,13.13,13.13,0,0,1-3.8,9.06V13.553a1.055,1.055,0,0,0-2.109,0v8.077A13.128,13.128,0,0,1,38.118,12.57ZM3.34,13.553A9.869,9.869,0,0,1,6.75,6.277a9.869,9.869,0,0,1,3.41,7.276A9.535,9.535,0,0,1,7.8,19.727V12.709a1.055,1.055,0,1,0-2.109,0v7.018A9.535,9.535,0,0,1,3.34,13.553ZM32.41,21.744H23.325l-3.809-3.832H28.6ZM16.98,18.353l3.371,3.391H13.61Zm-4.852,5.5h9.7V30.56q-.734-.337-1.477-.651V26.367A1.055,1.055,0,0,0,19.3,25.312H14.66a1.055,1.055,0,0,0-1.055,1.055v1.254q-.735-.192-1.477-.362Zm6.117,5.224q-1.254-.462-2.531-.857v-.8h2.531Zm5.7,2.516V23.853h9.949v5.939a49.5,49.5,0,0,0-5.283,2.564q-.821.46-1.622.953-1.5-.913-3.044-1.717Zm0,0"/>
      <path id="Trazado_127606" data-name="Trazado 127606" d="M42.968,10.6a1.056,1.056,0,1,0-.745-.309A1.062,1.062,0,0,0,42.968,10.6Zm0,0"/>
      <path id="Trazado_127607" data-name="Trazado 127607" d="M33.813,38.577a1.053,1.053,0,1,0,.746-.309A1.064,1.064,0,0,0,33.813,38.577Zm0,0"/>
    </g>
  </g>
</svg>
