<svg xmlns="http://www.w3.org/2000/svg" xmlns:xlink="http://www.w3.org/1999/xlink" width="54" height="54" viewBox="0 0 54 54">
  <defs>
    <clipPath id="clip-path">
      <rect id="Rectángulo_35831" data-name="Rectángulo 35831" width="54" height="54" transform="translate(-2679 -333)" fill="#fff" stroke="#707070" stroke-width="1"/>
    </clipPath>
  </defs>
  <g id="_108" data-name="108" transform="translate(2679 333)" clip-path="url(#clip-path)">
    <g id="pelea-de-poder" transform="translate(-2679 -332.99)">
      <path id="Trazado_127608" data-name="Trazado 127608" d="M45,26.081l5.4-16.2L36,12.581,27,.881l-9,11.7L3.6,9.881l4.5,16.2H.9l9,23.4H43.2l9.9-23.4Zm0,0" fill="#bdd5ea"/>
      <path id="Trazado_127609" data-name="Trazado 127609" d="M39.6,29.681l4.5-14.4-9.9,1.8L27,7.181l-7.2,9.9-9.9-1.8,3.6,14.4H7.2l8.1,19.8H37.8l8.1-19.8Zm0,0" fill="#fe5f55"/>
      <path id="Trazado_127610" data-name="Trazado 127610" d="M33.75,21.581a2.25,2.25,0,0,0-2.25,2.25v-2.7a2.25,2.25,0,0,0-4.5,0,2.25,2.25,0,1,0-4.5,0v1.8a2.25,2.25,0,0,0-4.5,0v4.644l.018-.006a3.977,3.977,0,0,0-.918,2.526v5.616a3.022,3.022,0,0,0,.918,2.169l2.682,2.6v13.5H33.3v-13.5A3.949,3.949,0,0,0,36,36.737V23.831a2.25,2.25,0,0,0-2.25-2.25Zm0,0" fill="#ffe0bd"/>
      <path id="Trazado_127611" data-name="Trazado 127611" d="M36.9,28.781h-.046a3.1,3.1,0,0,0,.046-.45v-4.5a3.154,3.154,0,0,0-3.15-3.15A3.106,3.106,0,0,0,32.387,21,3.138,3.138,0,0,0,27,18.931c-.009-.009-.014-.02-.023-.029a3.139,3.139,0,0,0-5.216,1.279,3.132,3.132,0,0,0-4.663,2.75V27.27a4.88,4.88,0,0,0-.9,2.825V35.72a3.924,3.924,0,0,0,1.184,2.8L19.8,40.862V53.981h1.8v-13.5a.9.9,0,0,0-.273-.646l-2.689-2.607A2.11,2.11,0,0,1,18,35.72V30.095a3.118,3.118,0,0,1,3.114-3.114h3.492a1.562,1.562,0,0,1,1.131.491,1.259,1.259,0,0,1,.358.9c0,.026-.005.052-.007.078a1.382,1.382,0,0,1-.1.426c0,.01-.011.019-.015.029a1.32,1.32,0,0,1-.262.381,1.34,1.34,0,0,1-.957.393H21.6a.9.9,0,0,0-.9.9v1.8a.927.927,0,0,0,.272.645,4.7,4.7,0,0,0,2.435,1.247A4.514,4.514,0,0,1,27,38.681h1.8a6.321,6.321,0,0,0-5.032-6.171,3.152,3.152,0,0,1-1.268-.537v-.492h2.25a3.237,3.237,0,0,0,.621-.06,3.12,3.12,0,0,0,1.129-.466c.029-.019.052-.046.08-.065a3.156,3.156,0,0,0,.4-.329c.009-.009.015-.019.023-.028a3.136,3.136,0,0,0,4.5,0,3.1,3.1,0,0,0,3.6.636v5.572a3.049,3.049,0,0,1-2.086,2.891.9.9,0,0,0-.614.853v13.5h1.8v-12.9a4.844,4.844,0,0,0,2.7-4.344Zm-18-3.067V22.931a1.35,1.35,0,1,1,2.7,0v2.25h-.486a4.876,4.876,0,0,0-2.214.533Zm5.706-.533H23.4v-4.05a1.35,1.35,0,1,1,2.7,0V25.55a3.334,3.334,0,0,0-1.494-.369Zm4.644,4.5a1.352,1.352,0,0,1-1.35-1.35v-7.2a1.35,1.35,0,0,1,2.7,0v7.2A1.351,1.351,0,0,1,29.25,29.681Zm4.5,0a1.352,1.352,0,0,1-1.35-1.35v-4.5a1.35,1.35,0,1,1,2.7,0v4.5A1.351,1.351,0,0,1,33.75,29.681Zm0,0"/>
      <path id="Trazado_127612" data-name="Trazado 127612" d="M9.059,49.8l1.68-.646L2.21,26.981H8.1a.9.9,0,0,0,.867-1.141L4.854,11.031l12.98,2.434a.9.9,0,0,0,.879-.336L27,2.357,35.287,13.13a.9.9,0,0,0,.879.336l12.9-2.418L44.148,25.8A.9.9,0,0,0,45,26.981h6.742L42.371,49.13l1.658.7,9.9-23.4a.9.9,0,0,0-.829-1.25H46.248l5.006-15.015A.9.9,0,0,0,50.234,9l-13.857,2.6L27.713.332a.932.932,0,0,0-1.426,0L17.623,11.595,3.766,9a.9.9,0,0,0-1.033,1.126L6.917,25.181H.9A.9.9,0,0,0,.06,26.4Zm0,0"/>
      <path id="Trazado_127613" data-name="Trazado 127613" d="M6.455,29.176a.9.9,0,0,0-.091.839l7.2,18,1.671-.668L8.529,30.581H13.5a.9.9,0,0,0,.873-1.118L11.111,16.416l8.528,1.551a.9.9,0,0,0,.888-.356L27,8.711l6.472,8.9a.9.9,0,0,0,.889.356L42.8,16.433,38.74,29.413a.9.9,0,0,0,.86,1.168H44.57L37.864,47.346l1.671.668,7.2-18a.9.9,0,0,0-.835-1.234H40.824L44.958,15.55a.9.9,0,0,0-1.02-1.154l-9.344,1.7L27.728,6.652a.933.933,0,0,0-1.455,0L19.4,16.095l-9.344-1.7a.907.907,0,0,0-.818.27.9.9,0,0,0-.216.833l3.32,13.282H7.2a.9.9,0,0,0-.745.4Zm0,0"/>
      <path id="Trazado_127614" data-name="Trazado 127614" d="M0,52.181H1.8v1.8H0Zm0,0"/>
      <path id="Trazado_127615" data-name="Trazado 127615" d="M12.6,52.181h1.8v1.8H12.6Zm0,0"/>
      <path id="Trazado_127616" data-name="Trazado 127616" d="M52.2,52.181H54v1.8H52.2Zm0,0"/>
      <path id="Trazado_127617" data-name="Trazado 127617" d="M46.8,50.381h1.8v1.8H46.8Zm0,0"/>
      <path id="Trazado_127618" data-name="Trazado 127618" d="M5.4,50.381H7.2v1.8H5.4Zm0,0"/>
      <path id="Trazado_127619" data-name="Trazado 127619" d="M36.9,51.281h1.8v1.8H36.9Zm0,0"/>
    </g>
  </g>
</svg>
