<svg xmlns="http://www.w3.org/2000/svg" xmlns:xlink="http://www.w3.org/1999/xlink" width="400" height="420" viewBox="0 0 400 420">
  <defs>
    <clipPath id="clip-path">
      <rect id="Rectángulo_35216" data-name="Rectángulo 35216" width="400" height="420" rx="20" transform="translate(600 1906)" fill="#6b8dff"/>
    </clipPath>
  </defs>
  <g id="_11" data-name="11" transform="translate(-600 -1906)" clip-path="url(#clip-path)">
    <g id="Grupo_89443" data-name="Grupo 89443" transform="translate(350.393 1898.728)">
      <g id="Grupo_89396" data-name="Grupo 89396" transform="translate(0 -0.061)">
        <rect id="Rectángulo_35223" data-name="Rectángulo 35223" width="774.607" height="435.716" fill="#1e0126"/>
      </g>
      <g id="Grupo_89397" data-name="Grupo 89397" transform="translate(0 -0.061)" style="mix-blend-mode: screen;isolation: isolate">
        <path id="Trazado_122412" data-name="Trazado 122412" d="M580,126.45,508.628,41.376l-66-41.437H0V435.655H443.41l65.218-36,44.6-129.519Z" transform="translate(0 0.061)" fill="#0d0d0d"/>
      </g>
      <g id="Grupo_89398" data-name="Grupo 89398" transform="translate(339.085 232.392)">
        <path id="Trazado_122413" data-name="Trazado 122413" d="M602.32,409.287l-1.334,2.842s-3.532.659-4.616,3.155,1.366,6.641,6.829,5.323l2.167-2.119-1.328-4.474-.367-3.109.942-1.617-1.789-.691Z" transform="translate(-596.119 -408.596)" fill="#ffbae1"/>
      </g>
      <g id="Grupo_89399" data-name="Grupo 89399" transform="translate(294.75 239.951)">
        <path id="Trazado_122414" data-name="Trazado 122414" d="M534.245,421.884l-16.069,39.429L570.943,481.6l15.5-40.043Z" transform="translate(-518.177 -421.884)" fill="#640280"/>
      </g>
      <g id="Grupo_89400" data-name="Grupo 89400" transform="translate(326.8 237.53)">
        <path id="Trazado_122415" data-name="Trazado 122415" d="M594.961,437.641l-2.766-1.2c.027-.063,2.762-6.521.849-11.191a7.029,7.029,0,0,0-4.111-3.936,6.809,6.809,0,0,0-5.756-.065c-4,1.912-5.75,7.633-5.767,7.69l-2.888-.865c.086-.287,2.167-7.062,7.354-9.544a9.784,9.784,0,0,1,8.2-.008,10.028,10.028,0,0,1,5.767,5.6C598.227,429.974,595.1,437.33,594.961,437.641Z" transform="translate(-574.522 -417.629)" fill="#400252"/>
      </g>
      <g id="Grupo_89401" data-name="Grupo 89401" transform="translate(303.61 257.166)">
        <rect id="Rectángulo_35224" data-name="Rectángulo 35224" width="0.535" height="56.133" transform="translate(0 0.503) rotate(-70.342)" fill="#fff"/>
      </g>
      <g id="Grupo_89402" data-name="Grupo 89402" transform="translate(326.133 263.477)">
        <path id="Trazado_122416" data-name="Trazado 122416" d="M574.918,463.245l-1.57,4.333,6.782,2.324,2.06-4.082Z" transform="translate(-573.348 -463.245)" fill="#fff"/>
      </g>
      <g id="Grupo_89403" data-name="Grupo 89403" transform="translate(342.741 231.889)">
        <path id="Trazado_122417" data-name="Trazado 122417" d="M608.671,408.215l-.5,1.7s3.14,4.522,2.889,7.348-7.285,7.536-8.352,6.405,3.579-4.836,3.579-4.836-3.579-2.323-2.261-5.84a19.6,19.6,0,0,1,2.785-5.275Z" transform="translate(-602.546 -407.712)" fill="#ffdcf0"/>
      </g>
      <g id="Grupo_89404" data-name="Grupo 89404" transform="translate(336.126 239.575)">
        <path id="Trazado_122418" data-name="Trazado 122418" d="M595.088,421.246c-1.008-.4-5.107,4.377-3.974,5.59S597.885,422.342,595.088,421.246Z" transform="translate(-590.917 -421.223)" fill="#ffdcf0"/>
      </g>
      <g id="Grupo_89405" data-name="Grupo 89405" transform="translate(334.975 237.489)">
        <path id="Trazado_122419" data-name="Trazado 122419" d="M593.965,417.65c-.73-.635-5.611,2.148-5.023,3.509S595.989,419.412,593.965,417.65Z" transform="translate(-588.893 -417.557)" fill="#ffdcf0"/>
      </g>
      <g id="Grupo_89406" data-name="Grupo 89406" transform="translate(338.474 241.178)">
        <path id="Trazado_122420" data-name="Trazado 122420" d="M598.668,424.053c-1.045-.286-4.614,4.894-3.359,5.979S601.566,424.847,598.668,424.053Z" transform="translate(-595.045 -424.042)" fill="#ffdcf0"/>
      </g>
      <g id="Grupo_89407" data-name="Grupo 89407" transform="translate(341.008 242.587)">
        <path id="Trazado_122421" data-name="Trazado 122421" d="M602.535,426.523c-1.07-.169-4.051,5.37-2.685,6.312S605.5,426.994,602.535,426.523Z" transform="translate(-599.499 -426.519)" fill="#ffdcf0"/>
      </g>
      <g id="Grupo_89408" data-name="Grupo 89408" transform="translate(0 351.537)" style="mix-blend-mode: screen;isolation: isolate">
        <path id="Trazado_122422" data-name="Trazado 122422" d="M459.4,618.055,0,666.454v35.719H113.314Z" transform="translate(0 -618.055)" fill="#121212"/>
      </g>
      <g id="Grupo_89409" data-name="Grupo 89409" transform="translate(490.623 50.894)">
        <path id="Trazado_122423" data-name="Trazado 122423" d="M862.526,154.987s18.3-69.285,84.281-65.3,25.028,78.735,44.368,107.057,98.284-11.5,108.868,55.057-51.077,131.109-130.313,138.364L915.322,253.976l-3.782-69.81Z" transform="translate(-862.526 -89.518)" fill="#2a0136"/>
      </g>
      <g id="Grupo_89410" data-name="Grupo 89410" transform="translate(536.603 66.841)">
        <path id="Trazado_122424" data-name="Trazado 122424" d="M943.359,150.311c1.138-.758,30.716-43.989,56.882-29.958s-23.7,95.075-.948,111.381,106.37,38.676,94.993,89.112-134.3,16.49-134.3,16.49l-12.832-88.429Z" transform="translate(-943.359 -117.554)" fill="#320140"/>
      </g>
      <g id="Grupo_89412" data-name="Grupo 89412" transform="translate(113.314 331.531)" style="mix-blend-mode: screen;isolation: isolate">
        <g id="Grupo_89411" data-name="Grupo 89411">
          <path id="Trazado_122425" data-name="Trazado 122425" d="M545.3,602.89,199.209,687.009H529.3l65.218-36,34.791-36.951-22.948-31.171Z" transform="translate(-199.209 -582.884)" fill="#696969"/>
        </g>
      </g>
      <g id="Grupo_89416" data-name="Grupo 89416" transform="translate(459.402 41.376)">
        <g id="Grupo_89413" data-name="Grupo 89413" transform="translate(0 60.7)">
          <rect id="Rectángulo_35225" data-name="Rectángulo 35225" width="138.425" height="249.461" fill="#fff"/>
        </g>
        <g id="Grupo_89414" data-name="Grupo 89414" transform="translate(38.122)">
          <path id="Trazado_122426" data-name="Trazado 122426" d="M894.274,89.441l-8.513-16.655h-8.513l-2.591,358.277h11.1L907.6,394.05l12.954-181.544-14.8-91.6Z" transform="translate(-874.658 -72.785)" fill="#f56337"/>
        </g>
        <g id="Grupo_89415" data-name="Grupo 89415" transform="translate(49.226)">
          <path id="Trazado_122427" data-name="Trazado 122427" d="M983.377,382.947V133.485l-89.2-60.7V431.062Z" transform="translate(-894.178 -72.785)" fill="#f53737"/>
        </g>
      </g>
      <g id="Grupo_89417" data-name="Grupo 89417" transform="translate(401.554 247.84)">
        <path id="Trazado_122428" data-name="Trazado 122428" d="M705.941,436.7s2.826,25.811,16.2,44.65c0,0-13,15.449,17.333,78.185h3.957s-8.289-51.432-8.289-79.692c0,0-1.319-18.463-3.768-38.81l-15.637-5.275Z" transform="translate(-705.941 -435.754)" fill="#ffdcf0"/>
      </g>
      <g id="Grupo_89418" data-name="Grupo 89418" transform="translate(369.592 244.882)">
        <path id="Trazado_122429" data-name="Trazado 122429" d="M681.713,445.193s-2.638,21.1-5.841,33.723c0,0-18.274,61.606-22.042,78.373h-3.391s-4.522-60.475,9.608-78.75a160.9,160.9,0,0,1-1.884-38.622c1.7-19.781,11.722-2.072,11.722-2.072l7.683,3.768Z" transform="translate(-649.75 -430.555)" fill="#ffdcf0"/>
      </g>
      <g id="Grupo_89419" data-name="Grupo 89419" transform="translate(435.089 369.545)">
        <path id="Trazado_122430" data-name="Trazado 122430" d="M764.989,654.141l-.094-2.355,1.036-2.073,2.92,2.073s8.226,6.28,12.685,14.255V667.7l-3.36,1.225-4.239-2.355-3.768-5.746s-3.58-3.391-4.239-4.144A6.494,6.494,0,0,1,764.989,654.141Z" transform="translate(-764.895 -649.713)" fill="#ffdcf0"/>
      </g>
      <g id="Grupo_89420" data-name="Grupo 89420" transform="translate(370.281 369.545)">
        <path id="Trazado_122431" data-name="Trazado 122431" d="M651.055,654.141l-.094-2.355L652,649.713l2.92,2.073s8.227,6.28,12.685,14.255V667.7l-3.359,1.225L660,666.575l-3.768-5.746s-3.579-3.391-4.239-4.144A6.494,6.494,0,0,1,651.055,654.141Z" transform="translate(-650.961 -649.713)" fill="#ffdcf0"/>
      </g>
      <g id="Grupo_89421" data-name="Grupo 89421" transform="translate(432.493 371.617)">
        <path id="Trazado_122432" data-name="Trazado 122432" d="M762.928,653.357s-5.15,3.2-.942,20.535h1.821s-1.632-9.985,1.382-10.865,6.468,10.865,6.468,10.865h17.521s.628-4.71-9.608-6.28c0,0-3.117,2.762-5.041.035C766.884,656.811,762.928,653.357,762.928,653.357Z" transform="translate(-760.332 -653.357)" fill="#24022e"/>
      </g>
      <g id="Grupo_89422" data-name="Grupo 89422" transform="translate(367.685 371.617)">
        <path id="Trazado_122433" data-name="Trazado 122433" d="M648.994,653.357s-5.15,3.2-.942,20.535h1.821s-1.633-9.985,1.382-10.865,6.469,10.865,6.469,10.865h17.521s.628-4.71-9.609-6.28c0,0-3.117,2.762-5.041.035C652.95,656.811,648.994,653.357,648.994,653.357Z" transform="translate(-646.398 -653.357)" fill="#24022e"/>
      </g>
      <g id="Grupo_89423" data-name="Grupo 89423" transform="translate(378.354 275.104)">
        <path id="Trazado_122434" data-name="Trazado 122434" d="M686.014,484.133l-9.19-.448-8.259,4.745-3.411,1.56c.162,1.66.334,3.185.5,4.54,3.407-.852,11.159-2.078,18.09,1.93C684.58,492.492,685.351,488.175,686.014,484.133Z" transform="translate(-665.154 -483.685)" fill="#ffbae1"/>
      </g>
      <g id="Grupo_89424" data-name="Grupo 89424" transform="translate(409.354 277.109)">
        <path id="Trazado_122435" data-name="Trazado 122435" d="M740.636,496.66c-.186-2.277-.434-5.188-.741-8.558l-19.827-.892-.416.852a88.286,88.286,0,0,0,4.151,8.662C728.161,495.286,735.427,493.691,740.636,496.66Z" transform="translate(-719.653 -487.21)" fill="#ffbae1"/>
      </g>
      <g id="Grupo_89425" data-name="Grupo 89425" transform="translate(371.717 207.774)">
        <path id="Trazado_122436" data-name="Trazado 122436" d="M670.953,366.072l-9.923,8.038s-14.193,13.565-3.642,33.033c0,0,.126,24.24,1.256,33.66h55.138s-1.759-44.964-11.618-66.693l-26.313-8.792L671.5,367.7Z" transform="translate(-653.487 -365.318)" fill="#500266"/>
      </g>
      <g id="Grupo_89426" data-name="Grupo 89426" transform="translate(371.717 215.351)">
        <path id="Trazado_122437" data-name="Trazado 122437" d="M664.535,427.028c1.068-9.892,22.994-10.961,12.567-15.729s-17.779.357-21.12-10.523,7.085-22.138,7.085-22.138-.225.016-.584.038l-1.453,1.177s-14.193,13.565-3.642,33.033c0,0,.126,24.24,1.256,33.66h7.81A46,46,0,0,1,664.535,427.028Z" transform="translate(-653.487 -378.638)" fill="#440257"/>
      </g>
      <g id="Grupo_89427" data-name="Grupo 89427" transform="translate(490.623 153.767)">
        <path id="Trazado_122438" data-name="Trazado 122438" d="M862.526,277.775s3.8-4.968,8.622-7.4v2.874s9.644-2.143,13.3-1.7.877,2.143-.681,2.533c0,0,4.432-.779,4.529.828s-2.094,2.241-2.094,2.241,1.607,0,1.266,1.072-5.065,1.461-5.065,1.461,2.581.39,2.192,1.266-14.937,2.046-21.5,0l-.568-1.363Z" transform="translate(-862.526 -270.371)" fill="#ffdcf0"/>
      </g>
      <g id="Grupo_89428" data-name="Grupo 89428" transform="translate(344.47 145.541)">
        <path id="Trazado_122439" data-name="Trazado 122439" d="M638.555,255.91l-7.222,1.947-2.386.879s-9.608,36.549-11.3,43.331a358.282,358.282,0,0,0-12.057,42.389h4.71s16.391-22.8,19.97-39.94l8.29-21.666V266.837L641,257.982Z" transform="translate(-605.586 -255.91)" fill="#3c024d"/>
      </g>
      <g id="Grupo_89429" data-name="Grupo 89429" transform="translate(404.569 143.468)">
        <path id="Trazado_122440" data-name="Trazado 122440" d="M712.936,252.266H725.37s26.208,30.144,73.014,15.072l2.721,7.536s-12.057,10.551-46.157,8.289S712.936,272.8,712.936,272.8l-1.7-10.362,1.319-9.043Z" transform="translate(-711.24 -252.266)" fill="#3c024d"/>
      </g>
      <g id="Grupo_89430" data-name="Grupo 89430" transform="translate(372.195 145.477)">
        <path id="Trazado_122441" data-name="Trazado 122441" d="M654.484,264.528s-1.7,10.362,6.029,28.825,7.159,24.491,0,33.534h42.012a54.011,54.011,0,0,1-4.333-36.36s7.724-2.449,9.42-12.434-1.7-9.8-3.391-10.173-11.492-7.536-11.492-7.536-12.058-3.768-12.623-4.522-16.956,5.464-16.956,5.464Z" transform="translate(-654.327 -255.799)" fill="#3c024d"/>
      </g>
      <g id="Grupo_89431" data-name="Grupo 89431" transform="translate(370.275 143.033)">
        <path id="Trazado_122442" data-name="Trazado 122442" d="M693.313,251.936a10.107,10.107,0,0,1-3.491,6.249c-5.263,4.511-5.322,5.347-6,14.615s-15.652,12.209-15.83,4.278c0,0-2.45,3.713-8.148,1.415s-1.3-8.633-1.3-8.633l5.3-.446,1.561-3.743s-1.943-3.1-8.5-4.043-5.936-10.126-5.936-10.126l13.368,3.743,20.5-3.308Z" transform="translate(-650.951 -251.501)" fill="#30023d"/>
      </g>
      <g id="Grupo_89432" data-name="Grupo 89432" transform="translate(381.834 93.983)">
        <path id="Trazado_122443" data-name="Trazado 122443" d="M691.432,165.27s10.927,7.159,14.067,23.361l-3.894,1.131s5.9,14.067-9.671,19.342-21.352-13.69-20.6-14.821,6.531-18.714,6.531-18.714l7.912-6.406Z" transform="translate(-671.271 -165.27)" fill="#ffdcf0"/>
      </g>
      <g id="Grupo_89433" data-name="Grupo 89433" transform="translate(366.247 82.06)">
        <path id="Trazado_122444" data-name="Trazado 122444" d="M687.279,164.23s6.28-5.863,2.135-15.534-16.7-.5-20.723.628c0,0-16.579.423-22.734,14.906s3.391,23.024,2.135,28.3-3.14,12.56-.251,17.207,10.927,3.894,13.062,6.657-2.512,9.043-2.763,2.638c0,0-5.15,1.13-4.772,7.159s9.8,4.4,9.8,4.4.291,3.14,6.237,2.386,10.97-4.9,10.719-10.676-.377-8.917,5.9-12.937,2.637-9.8-2.512-12.434-10.048-6.028-8.164-13.439l.377-7.912a19.706,19.706,0,0,0,7.724-16.008A35.3,35.3,0,0,1,687.279,164.23Z" transform="translate(-643.871 -144.309)" fill="#6e038c"/>
      </g>
      <g id="Grupo_89434" data-name="Grupo 89434" transform="translate(391.778 111.151)">
        <path id="Trazado_122445" data-name="Trazado 122445" d="M695.076,197.626s-2.512-3.768-5.4-1.382,1.443,14.695,7,11.052l1.163-2.512a16.609,16.609,0,0,1-.753-3.076C697.086,200.891,695.076,197.626,695.076,197.626Z" transform="translate(-688.753 -195.453)" fill="#ffdcf0"/>
      </g>
      <g id="Grupo_89435" data-name="Grupo 89435" transform="translate(398.101 97.317)">
        <path id="Trazado_122446" data-name="Trazado 122446" d="M709.669,173.445s.587,8.449-9.8,13.694a20,20,0,0,0,7.724-16.008S708.852,172.4,709.669,173.445Z" transform="translate(-699.869 -171.132)" fill="#ffbae1"/>
      </g>
      <g id="Grupo_89436" data-name="Grupo 89436" transform="translate(366.371 114.036)">
        <path id="Trazado_122447" data-name="Trazado 122447" d="M686.117,233.6c6.28-4.019,2.638-9.8-2.512-12.434-4.555-2.333-8.909-5.258-8.552-11.029a10.548,10.548,0,0,0-2.271,8.558c.936,5.08,4.946,8.154,1.255,13.272s1.151,15.468-3.528,15.334-3.208-8.288-3.067-12.164-4.018-4.679-13.108-4.042-2.807-8.657-2.807-16.544-7.415-14-7.44-14.025c.773,7.509,4.956,12.64,4.1,16.244-1.256,5.275-3.14,12.56-.251,17.207s10.927,3.894,13.062,6.657-2.512,9.043-2.763,2.637c0,0-5.15,1.131-4.772,7.159s9.8,4.4,9.8,4.4.291,3.14,6.237,2.386,10.97-4.9,10.719-10.676S679.836,237.618,686.117,233.6Z" transform="translate(-644.088 -200.524)" fill="#5a0373"/>
      </g>
      <path id="Trazado_122448" data-name="Trazado 122448" d="M739.866,299.13a63.879,63.879,0,0,1-8.4-2.6l-.2.494a64.269,64.269,0,0,0,8.4,2.609C739.736,299.467,739.8,299.3,739.866,299.13Z" transform="translate(-315.305 -127.884)" fill="#fff"/>
      <path id="Trazado_122449" data-name="Trazado 122449" d="M653.982,271.058c-.016.084-1.477,8.332,3.508,23.138l.3-.789c-4.688-14.265-3.3-22.169-3.284-22.25Z" transform="translate(-281.892 -116.901)" fill="#fff"/>
      <g id="Grupo_89437" data-name="Grupo 89437" transform="translate(376.716 280.085)">
        <path id="Trazado_122450" data-name="Trazado 122450" d="M662.292,494.49l-.018-.535c.35-.011,35.228-1.171,55.146-1.514l.01.535C697.516,493.319,662.641,494.478,662.292,494.49Z" transform="translate(-662.274 -492.441)" fill="#fff"/>
      </g>
      <g id="Grupo_89438" data-name="Grupo 89438" transform="translate(508.628 96.618)">
        <path id="Trazado_122451" data-name="Trazado 122451" d="M894.178,452.672v20.264l89.2-48.116V175.36l-8.021-5.458C975.757,207.5,973.909,402.326,894.178,452.672Z" transform="translate(-894.178 -169.902)" fill="#e63434"/>
      </g>
      <g id="Grupo_89439" data-name="Grupo 89439" transform="translate(336.126 392.152)">
        <path id="Trazado_122452" data-name="Trazado 122452" d="M716.129,689.458H698.609s-6.692,6.458-12.508,7.5,4.659-7.5,4.659-7.5h-1.821s-18.475,8.353-19.272,16.316l-78.749,27.187h51.177l61.18-36.62S714.338,693.382,716.129,689.458Z" transform="translate(-590.917 -689.458)" fill="#1e0126"/>
      </g>
      <g id="Grupo_89440" data-name="Grupo 89440" transform="translate(204.411 392.152)">
        <path id="Trazado_122453" data-name="Trazado 122453" d="M551.479,689.458a34.406,34.406,0,0,1-18.549,6.315s-8.565,3.144-25.2,7.9L418.564,733.03H359.359s124.791-27.978,144.7-32.244c0,0,2.815-5.251,20.228-11.329h1.821s-6.862,4.608-5.724,4.892,13.574-4.892,13.574-4.892Z" transform="translate(-359.359 -689.458)" fill="#1e0126"/>
      </g>
      <g id="Grupo_89441" data-name="Grupo 89441" transform="translate(625.713 111.503)">
        <path id="Trazado_122454" data-name="Trazado 122454" d="M1109.618,200.071c-13.01,9.147-14.359,31.53,5.735,38.71s34.027-8.083,32.674-21.189C1146.092,198.862,1123.27,190.472,1109.618,200.071Z" transform="translate(-1100.017 -196.071)" fill="#2a0136"/>
      </g>
      <g id="Grupo_89442" data-name="Grupo 89442" transform="translate(628.107 80.635)">
        <path id="Trazado_122455" data-name="Trazado 122455" d="M1108.737,143.685c-6.115,4.3-6.75,14.821,2.7,18.2s16-3.8,15.359-9.96C1125.883,143.117,1115.155,139.174,1108.737,143.685Z" transform="translate(-1104.224 -141.805)" fill="#320140"/>
      </g>
    </g>
  </g>
</svg>
