<svg xmlns="http://www.w3.org/2000/svg" xmlns:xlink="http://www.w3.org/1999/xlink" width="54" height="54" viewBox="0 0 54 54">
  <defs>
    <clipPath id="clip-path">
      <rect id="Rectángulo_35833" data-name="Rectángulo 35833" width="54" height="54" transform="translate(-2679 313)" fill="#fff" stroke="#707070" stroke-width="1"/>
    </clipPath>
  </defs>
  <g id="_110" data-name="110" transform="translate(2679 -313)" clip-path="url(#clip-path)">
    <g id="ballena" transform="translate(-2679 313)">
      <g id="Grupo_93522" data-name="Grupo 93522">
        <path id="Trazado_127639" data-name="Trazado 127639" d="M2.2,30.563H34.469a9.014,9.014,0,0,0,7.357-10.825l-.677-3.091a.719.719,0,0,0-.99-.5c-2.063.89-5.224,1.791-7.161.117a4.172,4.172,0,0,1-1.5-4.446.44.44,0,0,1,.8-.125c.621.99,1.889,2.353,3.574.752,2.924-2.777,4.308-.6,4.308-.6s-1.321-2.214,2.475-3.577c2.182-.784,1.543-2.522.939-3.523a.443.443,0,0,1,.466-.663,4.172,4.172,0,0,1,3.295,3.343c.568,2.256-1.218,4.458-2.841,5.924a.717.717,0,0,0-.055,1.006l4.961,5.629a15.2,15.2,0,0,1,2.557,16.059A14.558,14.558,0,0,1,44,43.794l-3.729,1.491a27.41,27.41,0,0,1-20.325.014L6.075,39.771A8.39,8.39,0,0,1,.791,31.977,1.414,1.414,0,0,1,2.2,30.563Z" fill="#7a6d79"/>
        <path id="Trazado_127640" data-name="Trazado 127640" d="M49.412,19.976l-.888-1.008a15.2,15.2,0,0,1,.387,12.848,14.558,14.558,0,0,1-7.964,7.759l-3.729,1.491a27.41,27.41,0,0,1-20.325.014L6.36,36.884H2.38a8.373,8.373,0,0,0,3.7,2.887L19.951,45.3a27.41,27.41,0,0,0,20.325-.014L44,43.794a14.558,14.558,0,0,0,7.964-7.759A15.2,15.2,0,0,0,49.412,19.976Z" fill="#685e68"/>
        <path id="Trazado_127641" data-name="Trazado 127641" d="M2.353,36.85H19.864A17.577,17.577,0,0,1,27.9,38.793L40.42,45.228l-.144.057a27.41,27.41,0,0,1-20.325.014L6.075,39.771A8.379,8.379,0,0,1,2.353,36.85Z" fill="#e2dee2"/>
        <path id="Trazado_127642" data-name="Trazado 127642" d="M16.892,41.081,6.275,36.85H2.353a8.378,8.378,0,0,0,3.723,2.921L19.951,45.3a27.41,27.41,0,0,0,20.325-.014l.144-.057-6.167-3.169a27.41,27.41,0,0,1-17.361-.979Z" fill="#cbc4cc"/>
        <path id="Trazado_127643" data-name="Trazado 127643" d="M36.363,35.917,46.25,48.065a1.145,1.145,0,0,1-1.044,1.857,13.42,13.42,0,0,1-5.977-2.2c-3.547-2.587-6.878-9.175-6.878-9.175Z" fill="#7a6d79"/>
      </g>
      <g id="Grupo_93523" data-name="Grupo 93523">
        <path id="Trazado_127644" data-name="Trazado 127644" d="M47.695,40.611a13.732,13.732,0,0,1-3.984,2.449l-.389.155-6.346-7.8a.791.791,0,0,0-1.227,1l9.887,12.148a.354.354,0,0,1-.322.574,12.724,12.724,0,0,1-5.62-2.057c-3.35-2.443-6.606-8.829-6.638-8.893a.791.791,0,0,0-1.412.714c.036.071.283.556.692,1.282l-4.078-2.1a18.451,18.451,0,0,0-8.395-2.031H2.763a7.59,7.59,0,0,1-1.181-4.082.623.623,0,0,1,.623-.623H8.2a.791.791,0,0,0,0-1.582H2.2a2.207,2.207,0,0,0-2.2,2.2,9.135,9.135,0,0,0,5.783,8.529l13.875,5.528A28.358,28.358,0,0,0,37.31,47.1a12.453,12.453,0,0,0,1.452,1.262A14.29,14.29,0,0,0,45.1,50.706a1.977,1.977,0,0,0,.271.019,1.936,1.936,0,0,0,1.5-3.158l-2.5-3.066a15.311,15.311,0,0,0,4.372-2.7.791.791,0,0,0-1.045-1.188ZM20.244,44.565,6.368,39.036a7.64,7.64,0,0,1-2.26-1.395H19.864A16.86,16.86,0,0,1,27.535,39.5l6.373,3.275a32.827,32.827,0,0,0,2.2,3A26.793,26.793,0,0,1,20.244,44.565Z"/>
        <path id="Trazado_127645" data-name="Trazado 127645" d="M53.8,27.511a15.964,15.964,0,0,0-3.795-8.057l-4.914-5.575c2.5-2.278,3.545-4.577,3.023-6.654A4.955,4.955,0,0,0,44.21,3.3a1.234,1.234,0,0,0-1.3,1.847,2.11,2.11,0,0,1,.415,1.634,1.42,1.42,0,0,1-.944.736,4.609,4.609,0,0,0-3.062,2.505,2.751,2.751,0,0,0-.086.289,2.756,2.756,0,0,0-.3-.053,4.609,4.609,0,0,0-3.614,1.609,1.419,1.419,0,0,1-1.082.513,2.147,2.147,0,0,1-1.277-1.112,1.228,1.228,0,0,0-1.512-.481,1.273,1.273,0,0,0-.732.868,4.955,4.955,0,0,0,1.764,5.2c1.21,1.046,3.564,1.9,7.914.044l.658,3.005a8.223,8.223,0,0,1-6.65,9.865H12.361a.791.791,0,1,0,0,1.582H34.469a.77.77,0,0,0,.125-.01A9.8,9.8,0,0,0,42.6,19.569l-.677-3.091a1.508,1.508,0,0,0-1.091-1.137,1.554,1.554,0,0,0-1.014.088c-1.654.71-4.643,1.667-6.3.233a3.5,3.5,0,0,1-1.381-2.851,3.065,3.065,0,0,0,1.906,1.14,2.886,2.886,0,0,0,2.37-.935,3.3,3.3,0,0,1,2.31-1.188,1.156,1.156,0,0,1,.793.449l-.007-.011.667-.425.679-.405.007.012a1.156,1.156,0,0,1-.044-.91,3.3,3.3,0,0,1,2.1-1.529,2.886,2.886,0,0,0,1.9-1.695A3.065,3.065,0,0,0,44.654,5.1,3.5,3.5,0,0,1,46.58,7.611c.261,1.038.021,2.772-2.6,5.144a1.514,1.514,0,0,0-.118,2.116L48.819,20.5a14.405,14.405,0,0,1,2.424,15.223,13.8,13.8,0,0,1-1.229,2.251.806.806,0,0,0,.143,1.073.791.791,0,0,0,1.156-.169A15.376,15.376,0,0,0,52.7,36.348a15.967,15.967,0,0,0,1.1-8.838Z"/>
        <path id="Trazado_127646" data-name="Trazado 127646" d="M29.106,35.081V34.6a.791.791,0,0,0-1.582,0v.481a.791.791,0,0,0,1.582,0Z"/>
      </g>
    </g>
  </g>
</svg>
