<svg xmlns="http://www.w3.org/2000/svg" xmlns:xlink="http://www.w3.org/1999/xlink" width="54" height="54" viewBox="0 0 54 54">
  <defs>
    <clipPath id="clip-path">
      <rect id="Rectángulo_35836" data-name="Rectángulo 35836" width="54" height="54" transform="translate(-2679 720)" fill="#fff" stroke="#707070" stroke-width="1"/>
    </clipPath>
  </defs>
  <g id="_113" data-name="113" transform="translate(2679 -720)" clip-path="url(#clip-path)">
    <g id="roca" transform="translate(-2679 720)">
      <path id="Trazado_127703" data-name="Trazado 127703" d="M41,47.329l-7.966,4.692a8.58,8.58,0,0,1-4.355,1.188H25.322a8.581,8.581,0,0,1-4.355-1.188L13,47.329a8.637,8.637,0,0,1-4.23-7.976L10.1,17.921A8.643,8.643,0,0,1,12.363,12.6l8.32-9.035a8.583,8.583,0,0,1,12.637,0L41.638,12.6a8.643,8.643,0,0,1,2.267,5.322L45.23,39.354A8.636,8.636,0,0,1,41,47.329Z" fill="#78909c"/>
      <path id="Trazado_127704" data-name="Trazado 127704" d="M45.23,39.354,43.905,17.922A8.643,8.643,0,0,0,41.639,12.6L33.319,3.565a8.553,8.553,0,0,0-7.9-2.624,8.592,8.592,0,0,1,4.735,2.624L38.471,12.6a8.643,8.643,0,0,1,2.267,5.322l1.324,21.432a8.636,8.636,0,0,1-4.23,7.975l-7.966,4.692a8.58,8.58,0,0,1-4.355,1.188h3.168a8.581,8.581,0,0,0,4.355-1.188L41,47.329a8.636,8.636,0,0,0,4.23-7.975Z" fill="#607d8b"/>
      <path id="Trazado_127705" data-name="Trazado 127705" d="M32.6,43.211l-4.876,3.075a4.99,4.99,0,0,1-2.666.779H23.007a4.99,4.99,0,0,1-2.666-.778l-4.876-3.075a5.774,5.774,0,0,1-2.589-5.228l.811-14.048a5.873,5.873,0,0,1,1.387-3.488l5.092-5.922a5.022,5.022,0,0,1,7.735,0l5.092,5.922a5.873,5.873,0,0,1,1.387,3.488l.811,14.048A5.774,5.774,0,0,1,32.6,43.211Z" fill="#90a4ae"/>
      <path id="Trazado_127706" data-name="Trazado 127706" d="M46.019,39.3,44.695,17.871a9.486,9.486,0,0,0-2.474-5.809L37.486,6.92a.791.791,0,0,0-1.164,1.072l4.734,5.142a7.844,7.844,0,0,1,1.436,2.22l-8.1,5.751a6.431,6.431,0,0,0-.8-1.175L28.5,14.007A5.972,5.972,0,0,0,25.024,12l2.588-10.4A7.823,7.823,0,0,1,32.737,4.1l1.3,1.411A.791.791,0,0,0,35.2,4.438L33.9,3.026a9.38,9.38,0,0,0-13.8,0l-8.319,9.036A9.494,9.494,0,0,0,9.306,17.87L7.981,39.3A9.384,9.384,0,0,0,12.6,48.011l7.972,4.7.013.007A9.378,9.378,0,0,0,25.322,54h3.356a9.413,9.413,0,0,0,4.757-1.3l2.321-1.367a.791.791,0,0,0-.8-1.363l-2.321,1.367a7.78,7.78,0,0,1-1.2.573L28.157,46.95l4.868-3.071a6.271,6.271,0,0,0,2.2-2.4l8.119,2.444A7.821,7.821,0,0,1,40.6,46.647L37.86,48.26a.791.791,0,0,0,.8,1.363L41.4,48.01A9.384,9.384,0,0,0,46.019,39.3ZM12.945,13.134,21.264,4.1a7.825,7.825,0,0,1,4.706-2.447l-2.564,10.3a5.948,5.948,0,0,0-3.84,2.058L14.475,19.93c-.091.106-.177.215-.261.327L11.579,15.2a7.838,7.838,0,0,1,1.366-2.066ZM10.624,43.872l2.6-1.761a6.221,6.221,0,0,0,1.824,1.768l4.876,3.076a5.909,5.909,0,0,0,.786.416l-.386,3.351L13.4,46.647a7.82,7.82,0,0,1-2.779-2.775Zm18.055,8.546H25.322a7.8,7.8,0,0,1-3.508-.835l.435-3.779a5.683,5.683,0,0,0,.758.051h2.054a5.715,5.715,0,0,0,1.638-.241l3.118,4.718A7.763,7.763,0,0,1,28.679,52.418Zm3.5-9.877-4.875,3.075a4.2,4.2,0,0,1-2.244.657H23.007a4.2,4.2,0,0,1-2.243-.657l-4.876-3.076a4.7,4.7,0,0,1-1.675-1.855.785.785,0,0,0-.053-.106,5.214,5.214,0,0,1-.494-2.553l.572-9.9a.791.791,0,1,0-1.579-.091l-.572,9.9a6.834,6.834,0,0,0,.405,2.756l-2.535,1.72a7.886,7.886,0,0,1-.4-3.011l1.325-21.433c.012-.19.032-.378.057-.565l2.363,4.532a6.8,6.8,0,0,0-.407,1.954l-.045.772a.791.791,0,1,0,1.579.091l.045-.772a5.1,5.1,0,0,1,1.2-3.018l5.092-5.923A4.272,4.272,0,0,1,24.033,13.5h0A4.271,4.271,0,0,1,27.3,15.039l5.092,5.922a5.1,5.1,0,0,1,1.2,3.018l.81,14.049a5.249,5.249,0,0,1-.331,2.167.787.787,0,0,0-.039.1l0,.008a4.738,4.738,0,0,1-1.85,2.237ZM35.79,40a6.882,6.882,0,0,0,.192-2.062l-.81-14.049a6.8,6.8,0,0,0-.193-1.259l8.006-5.685a7.81,7.81,0,0,1,.132,1.023L44.44,39.4a7.883,7.883,0,0,1-.419,3.075Z"/>
    </g>
  </g>
</svg>
