<svg xmlns="http://www.w3.org/2000/svg" xmlns:xlink="http://www.w3.org/1999/xlink" width="54" height="54" viewBox="0 0 54 54">
  <defs>
    <clipPath id="clip-path">
      <rect id="Rectángulo_35849" data-name="Rectángulo 35849" width="54" height="54" transform="translate(-2659 1290)" fill="#fff" stroke="#707070" stroke-width="1"/>
    </clipPath>
  </defs>
  <g id="_115" data-name="115" transform="translate(2659 -1290)" clip-path="url(#clip-path)">
    <g id="agua-caliente" transform="translate(-2659 1290)">
      <g id="Grupo_93530" data-name="Grupo 93530">
        <path id="Trazado_127879" data-name="Trazado 127879" d="M20.133,6.942a1.807,1.807,0,0,0-2.521,0C-7.519,31.382-.758,53.209,18.872,53.209S45.263,31.382,20.133,6.942Z" fill="#59c2e8"/>
        <path id="Trazado_127880" data-name="Trazado 127880" d="M22.036,51.1c-19.195,0-26.084-20.87-2.884-44.646a1.8,1.8,0,0,0-1.541.489C-7.519,31.382-.758,53.209,18.872,53.209c5.121,0,9.366-1.486,12.4-4.117A20.45,20.45,0,0,1,22.036,51.1Z" fill="#0097d1"/>
        <path id="Trazado_127881" data-name="Trazado 127881" d="M45.089,28.5V6.134A5.343,5.343,0,0,0,39.746.791h0a5.344,5.344,0,0,0-5.284,4.552l.43.791-.489.791V9.141l.419.791-.419.791v2.216l.489.791-.489.791v2.216l.384.791-.384.791v2.216l.384.791-.384.791V28.5a12.93,12.93,0,1,0,10.685,0Z" fill="#d5ebf6"/>
        <path id="Trazado_127882" data-name="Trazado 127882" d="M39.746,49.554a9.278,9.278,0,0,1-3.831-17.727l2.143-.973V6.134a1.688,1.688,0,0,1,3.376,0V30.854l2.143.974a9.278,9.278,0,0,1-3.831,17.727Z" fill="#ff6e80"/>
      </g>
      <g id="Grupo_93531" data-name="Grupo 93531">
        <path id="Trazado_127883" data-name="Trazado 127883" d="M12.122,30.3V28.931a.791.791,0,0,0-1.582,0V30.3a.791.791,0,0,0,1.582,0Z"/>
        <path id="Trazado_127884" data-name="Trazado 127884" d="M27.2,30.3V28.931a.791.791,0,0,0-1.582,0V30.3a.791.791,0,0,0,1.582,0Z"/>
        <path id="Trazado_127885" data-name="Trazado 127885" d="M18.871,31.815a3.252,3.252,0,0,0,2.456-1.094.791.791,0,1,0-1.191-1.041,1.724,1.724,0,0,1-2.531,0,.791.791,0,0,0-1.191,1.041A3.253,3.253,0,0,0,18.871,31.815Z"/>
        <path id="Trazado_127886" data-name="Trazado 127886" d="M45.878,28V6.134a6.134,6.134,0,1,0-12.267,0V23.315A63.969,63.969,0,0,0,20.683,6.375a2.586,2.586,0,0,0-3.624,0,78.823,78.823,0,0,0-6.875,7.57.791.791,0,0,0,1.241.981A77.242,77.242,0,0,1,18.162,7.51a1.012,1.012,0,0,1,1.418,0C26.351,14.094,31.07,20.718,33.611,27.2V28A13.724,13.724,0,0,0,29.53,49.44a18.6,18.6,0,0,1-10.659,2.978,19.334,19.334,0,0,1-9.278-2.131,13.642,13.642,0,0,1-5.767-5.821A18.177,18.177,0,0,1,2.509,32.773c.9-4.878,3.262-10.033,7.02-15.321a.791.791,0,1,0-1.29-.916C4.347,22.013,1.9,27.379.953,32.486A19.733,19.733,0,0,0,2.419,45.192C5.309,50.789,11.3,54,18.871,54a20.01,20.01,0,0,0,11.805-3.433A13.719,13.719,0,1,0,45.878,28ZM37.265,16.738H35.192V14.521h2.073Zm0-3.8H35.192V10.723h2.073Zm-2.073,5.38h2.073v2.216H35.192Zm2.073-9.179H35.192V6.925h2.073Zm2.479,43.277a12.144,12.144,0,0,1-5.015-23.2.8.8,0,0,0,.464-.72V22.118h2.073v8.227l-1.679.763a10.069,10.069,0,0,0,4.158,19.238A9.994,9.994,0,0,0,46.9,47.355a.791.791,0,0,0-1.125-1.113,8.48,8.48,0,0,1-14.513-5.963,8.51,8.51,0,0,1,4.981-7.731l2.143-.973a.791.791,0,0,0,.464-.72V6.134a.9.9,0,0,1,1.794,0V30.854a.791.791,0,0,0,.464.72l2.143.973a8.51,8.51,0,0,1,4.981,7.731,8.394,8.394,0,0,1-.772,3.535.791.791,0,1,0,1.437.662,9.966,9.966,0,0,0,.917-4.2A10.1,10.1,0,0,0,43.9,31.108l-1.679-.763V6.134A2.479,2.479,0,0,0,37.4,5.343H35.263a4.551,4.551,0,0,1,9.033.791V28.5a.791.791,0,0,0,.464.72,12.141,12.141,0,0,1-5.015,23.2Z"/>
      </g>
    </g>
  </g>
</svg>
