<svg xmlns="http://www.w3.org/2000/svg" xmlns:xlink="http://www.w3.org/1999/xlink" width="54" height="54" viewBox="0 0 54 54">
  <defs>
    <clipPath id="clip-path">
      <rect id="Rectángulo_35839" data-name="Rectángulo 35839" width="54" height="54" transform="translate(-2659 1418)" fill="#fff" stroke="#707070" stroke-width="1"/>
    </clipPath>
  </defs>
  <g id="_116" data-name="116" transform="translate(2659 -1418)" clip-path="url(#clip-path)">
    <g id="_20-Sad" data-name="20-Sad" transform="translate(-2659 1418)">
      <path id="Trazado_127751" data-name="Trazado 127751" d="M43.031,48.693v2.776a15.925,15.925,0,0,1-7.147,1.688H18.115a15.925,15.925,0,0,1-7.147-1.687V48.693a3.379,3.379,0,0,1,.869-2.27,3.619,3.619,0,0,1,1.249-.869l9.475-3.788A1.7,1.7,0,0,0,23.6,40.492l.025.008c0,1.4,1.35,2.531,3.375,2.531S30.375,41.9,30.375,40.5l.025-.008a1.7,1.7,0,0,0,1.038,1.274l9.475,3.788a3.619,3.619,0,0,1,1.249.869,3.379,3.379,0,0,1,.869,2.27Z" fill="#fdadc8"/>
      <path id="Trazado_127752" data-name="Trazado 127752" d="M42.188,23.625v.844c0,2.329-1.89,5.063-4.219,5.063h-.844l-.025-.017a18.8,18.8,0,0,0,2.472-7.585l.084.008H40.5a1.693,1.693,0,0,1,1.688,1.688Z" fill="#faa68e"/>
      <path id="Trazado_127753" data-name="Trazado 127753" d="M42.188,24.469V46.406l-.025.017a3.619,3.619,0,0,0-1.249-.869l-9.475-3.788A1.7,1.7,0,0,1,30.4,40.492a1.578,1.578,0,0,1-.025-.287V35.632A13.916,13.916,0,0,0,37.1,29.514l.025.017h.844C40.3,29.531,42.188,26.8,42.188,24.469Z" fill="#a65d4e"/>
      <path id="Trazado_127754" data-name="Trazado 127754" d="M42.188,15.188v8.438A1.693,1.693,0,0,0,40.5,21.938h-.844l-.084-.008a15.981,15.981,0,0,0,.084-1.679c0-5.594-5.062-5.062-6.75-10.125,0,4.666-9.7,7.594-18.562,7.594V20.25a15.982,15.982,0,0,0,.084,1.679l-.084.008H13.5a1.693,1.693,0,0,0-1.687,1.688V15.188C11.813,7.265,18.613.844,27,.844a15.6,15.6,0,0,1,10.741,4.2,13.929,13.929,0,0,1,4.447,10.142Z" fill="#a65d4e"/>
      <path id="Trazado_127755" data-name="Trazado 127755" d="M30.4,40.492l-.025.008c0,1.4-1.35,2.531-3.375,2.531S23.625,41.9,23.625,40.5l-.025-.008a1.578,1.578,0,0,0,.025-.287V35.632a9.091,9.091,0,0,0,6.75,0V40.2A1.578,1.578,0,0,0,30.4,40.492Z" fill="#ffcdbe"/>
      <path id="Trazado_127756" data-name="Trazado 127756" d="M23.625,35.632V40.2a1.578,1.578,0,0,1-.025.287,1.7,1.7,0,0,1-1.038,1.274l-9.475,3.788a3.619,3.619,0,0,0-1.249.869l-.025-.017V24.469c0,2.329,1.89,5.063,4.219,5.063h.844l.025-.017A13.916,13.916,0,0,0,23.625,35.632Z" fill="#a65d4e"/>
      <path id="Trazado_127757" data-name="Trazado 127757" d="M32.906,10.125c0,4.666-9.7,7.594-18.562,7.594V20.25a15.982,15.982,0,0,0,.084,1.679A18.8,18.8,0,0,0,16.9,29.514a13.916,13.916,0,0,0,6.725,6.117,9.091,9.091,0,0,0,6.75,0A13.916,13.916,0,0,0,37.1,29.514a18.8,18.8,0,0,0,2.472-7.585,15.982,15.982,0,0,0,.084-1.679C39.656,14.656,34.594,15.188,32.906,10.125Z" fill="#ffcebf"/>
      <path id="Trazado_127758" data-name="Trazado 127758" d="M16.9,29.514l-.025.017h-.844c-2.329,0-4.219-2.734-4.219-5.062v-.844A1.693,1.693,0,0,1,13.5,21.938h.844l.084-.008A18.8,18.8,0,0,0,16.9,29.514Z" fill="#faa68e"/>
      <path id="Trazado_127759" data-name="Trazado 127759" d="M32.906,10.125c0,4.666-9.7,7.594-18.562,7.594V20.25c8.859,0,18.563-2.928,18.563-7.594,1.574,4.725,6.081,4.582,6.68,9.08.046-.494.07-.994.07-1.487C39.656,14.656,34.594,15.188,32.906,10.125Z" fill="#faa68e"/>
      <path id="Trazado_127760" data-name="Trazado 127760" d="M26.156,41.344V39.656a1.688,1.688,0,0,1,1.688-1.687h2.531V35.632a9.091,9.091,0,0,1-6.75,0V40.2a1.578,1.578,0,0,1-.025.287l.025.008c0,1.4,1.35,2.531,3.375,2.531A5.005,5.005,0,0,0,27.5,43,1.687,1.687,0,0,1,26.156,41.344Z" fill="#faa68e"/>
      <path id="Trazado_127761" data-name="Trazado 127761" d="M16.9,29.514l-.025.017h-.844a3.276,3.276,0,0,1-1.687-.494V45.051l8.218-3.286A1.7,1.7,0,0,0,23.6,40.492a1.578,1.578,0,0,0,.025-.287V35.632A13.916,13.916,0,0,1,16.9,29.514Z" fill="#784132"/>
      <path id="Trazado_127762" data-name="Trazado 127762" d="M37.1,29.514l.025.017h.844a3.276,3.276,0,0,0,1.687-.494V45.051l-8.218-3.286A1.7,1.7,0,0,1,30.4,40.492a1.578,1.578,0,0,1-.025-.287V35.632A13.916,13.916,0,0,0,37.1,29.514Z" fill="#784132"/>
      <path id="Trazado_127763" data-name="Trazado 127763" d="M40.96,50.51a3.873,3.873,0,0,1-.934.115H20.5A3.628,3.628,0,0,1,16.875,47V44.044l-3.788,1.519a3.388,3.388,0,0,0-2.118,3.13v2.776a15.925,15.925,0,0,0,7.147,1.688H35.885a15.925,15.925,0,0,0,7.147-1.687V49.175A3.84,3.84,0,0,1,40.96,50.51Z" fill="#d88caa"/>
      <path id="Trazado_127764" data-name="Trazado 127764" d="M23.968,7.429a18.076,18.076,0,0,0,2.863,1.852H27c5.906,0,9.854-1.06,12.084-2.755a14.765,14.765,0,0,0-1.343-1.481c-.1-.092-.206-.173-.306-.262C35.1,6.5,31.91,7.594,27,7.594a27.326,27.326,0,0,1-3.032-.165Z" fill="#c38778"/>
      <path id="Trazado_127765" data-name="Trazado 127765" d="M23.968,7.429A27.327,27.327,0,0,0,27,7.594c4.91,0,8.1-1.1,10.435-2.811A15.6,15.6,0,0,0,27,.844a15.836,15.836,0,0,0-6.581,1.434A9.442,9.442,0,0,0,23.968,7.429Z" fill="#b46e5a"/>
      <path id="Trazado_127766" data-name="Trazado 127766" d="M23.968,7.429a14.885,14.885,0,0,1-7.4-2.646,14.628,14.628,0,0,0-1.65,1.742c2.207,1.679,6.1,2.732,11.916,2.756a18.076,18.076,0,0,1-2.863-1.852Z" fill="#b46e5a"/>
      <path id="Trazado_127767" data-name="Trazado 127767" d="M41.934,12.656c-.051-.267-.111-.531-.176-.791-.017-.068-.036-.134-.054-.2a13.753,13.753,0,0,0-.445-1.37c-.024-.062-.047-.124-.072-.185A13.922,13.922,0,0,0,40.07,7.915l-.006-.009a14.512,14.512,0,0,0-.979-1.375h0C36.854,8.222,32.906,9.281,27,9.281h-.169a27.231,27.231,0,0,0,5.8,2.184,3.407,3.407,0,0,0,.278-1.341,7.757,7.757,0,0,0,.743,1.6,38.611,38.611,0,0,0,8.285.928Z" fill="#b46e5a"/>
      <path id="Trazado_127768" data-name="Trazado 127768" d="M43.031,46.169V15.188C43.031,6.813,35.84,0,27,0S10.969,6.813,10.969,15.188V46.169a4.2,4.2,0,0,0-.844,2.522v2.778a.844.844,0,0,0,.467.759A16.926,16.926,0,0,0,18.117,54H35.883a16.926,16.926,0,0,0,7.525-1.772.844.844,0,0,0,.467-.759V48.691a4.2,4.2,0,0,0-.844-2.522Zm-1.687-1.337c-.041-.018-.078-.042-.121-.059l-9.474-3.789a.839.839,0,0,1-.531-.783v-4a14.843,14.843,0,0,0,6.314-5.826h.436A4.586,4.586,0,0,0,41.344,28.7ZM29.553,40.5h-.022c0,.978-1.065,1.688-2.531,1.688s-2.531-.71-2.531-1.687h-.022a2.69,2.69,0,0,0,.022-.3V36.794a9.852,9.852,0,0,0,5.063,0V40.2a2.69,2.69,0,0,0,.022.3Zm-16.9-16.875a.844.844,0,0,1,.844-.844h.191A19.991,19.991,0,0,0,15.5,28.616c-1.577-.392-2.843-2.437-2.843-4.147Zm2.531-3.375v-1.7a41.74,41.74,0,0,0,8.171-.953,2.852,2.852,0,0,1-2.265.961H18.563V20.25h2.531c2.225,0,4.034-1.389,4.189-3.139,3.644-1.051,6.549-2.645,7.8-4.7a12.431,12.431,0,0,0,2.85,2.869c1.61,1.279,2.881,2.29,2.881,4.966,0,8.691-6.236,15.188-11.812,15.188S15.188,28.941,15.188,20.25Zm25.122,2.531H40.5a.844.844,0,0,1,.844.844v.844c0,1.71-1.266,3.756-2.843,4.147a19.991,19.991,0,0,0,1.808-5.835ZM27,1.688c7.909,0,14.344,6.056,14.344,13.5v6.062a2.5,2.5,0,0,0-.844-.155h-.023c.014-.282.023-.564.023-.844,0-3.49-1.788-4.912-3.517-6.288a8.391,8.391,0,0,1-3.276-4.1.844.844,0,0,0-1.644.267c0,3.6-8.28,6.75-17.719,6.75a.844.844,0,0,0-.844.844V20.25c0,.28.009.562.023.844H13.5a2.5,2.5,0,0,0-.844.155V15.188C12.656,7.744,19.091,1.688,27,1.688ZM16.031,30.375h.436A14.843,14.843,0,0,0,22.781,36.2v4a.839.839,0,0,1-.531.783l-9.473,3.789c-.043.018-.084.041-.122.06V28.7A4.586,4.586,0,0,0,16.031,30.375ZM42.188,50.937a15.221,15.221,0,0,1-6.3,1.375H18.117a15.221,15.221,0,0,1-6.3-1.375V48.691a2.518,2.518,0,0,1,1.591-2.35l9.474-3.789a2.576,2.576,0,0,0,.506-.283A4.423,4.423,0,0,0,27,43.875a4.423,4.423,0,0,0,3.613-1.6,2.576,2.576,0,0,0,.506.283l9.474,3.789a2.518,2.518,0,0,1,1.595,2.347Z"/>
      <path id="Trazado_127769" data-name="Trazado 127769" d="M21.938,32.063h1.688c0-.8,1.443-1.687,3.375-1.687s3.375.891,3.375,1.688h1.688c0-1.893-2.224-3.375-5.062-3.375S21.938,30.17,21.938,32.063Z"/>
      <path id="Trazado_127770" data-name="Trazado 127770" d="M24.469,21.938H22.781a1.687,1.687,0,0,1-1.687,1.688c-1.167,0-1.687-.521-1.687-1.687H17.719a3.1,3.1,0,0,0,3.375,3.375,3.375,3.375,0,0,0,3.375-3.375Z"/>
      <path id="Trazado_127771" data-name="Trazado 127771" d="M32.906,23.625a1.688,1.688,0,0,1-1.687-1.687H29.531a3.375,3.375,0,0,0,3.375,3.375,3.1,3.1,0,0,0,3.375-3.375H34.594C34.594,23.1,34.073,23.625,32.906,23.625Z"/>
      <path id="Trazado_127772" data-name="Trazado 127772" d="M32.906,20.25h2.531V18.563H32.906c-1.372,0-2.531-.773-2.531-1.687H28.688C28.688,18.736,30.58,20.25,32.906,20.25Z"/>
    </g>
  </g>
</svg>
