<svg xmlns="http://www.w3.org/2000/svg" xmlns:xlink="http://www.w3.org/1999/xlink" width="54" height="54" viewBox="0 0 54 54">
  <defs>
    <clipPath id="clip-path">
      <rect id="Rectángulo_35841" data-name="Rectángulo 35841" width="54" height="54" transform="translate(-2659 1692)" fill="#fff" stroke="#707070" stroke-width="1"/>
    </clipPath>
  </defs>
  <g id="_118" data-name="118" transform="translate(2659 -1692)" clip-path="url(#clip-path)">
    <g id="mojado" transform="translate(-2658.948 1692.009)">
      <g id="Icons">
        <path id="Trazado_127816" data-name="Trazado 127816" d="M12.6,2.915V6.533C4.8,5.7,2.061,4.391,1.9,4.31A1.8,1.8,0,0,1,3.491,1.08C3.581,1.125,5.975,2.187,12.6,2.915Z" fill="#008a00"/>
        <path id="Trazado_127817" data-name="Trazado 127817" d="M3.491,1.08a1.8,1.8,0,0,0-1.98.27A43.056,43.056,0,0,0,9.9,2.915V6.2c.823.116,1.721.228,2.7.331V2.915C5.975,2.187,3.581,1.125,3.491,1.08Z" fill="#007900"/>
        <path id="Trazado_127818" data-name="Trazado 127818" d="M52.1,4.31c-.162.081-2.906,1.395-10.708,2.223V2.915C48.1,2.178,50.48,1.1,50.516,1.08A1.8,1.8,0,0,1,52.1,4.31Z" fill="#008a00"/>
        <path id="Trazado_127819" data-name="Trazado 127819" d="M52.91,1.917a1.809,1.809,0,0,0-2.394-.837,7.511,7.511,0,0,1-.741.27A1.792,1.792,0,0,1,49.4,4.31c-.141.071-2.259,1.084-8.008,1.89v.333C49.193,5.7,51.938,4.391,52.1,4.31a1.793,1.793,0,0,0,.81-2.394Z" fill="#007900"/>
        <path id="Trazado_127820" data-name="Trazado 127820" d="M37.793,3.248v3.6c-3.005.216-6.578.351-10.8.351S19.2,7.064,16.2,6.848V3.239c2.951.216,6.524.36,10.8.36s7.846-.144,10.8-.351Z" fill="#008a00"/>
        <path id="Trazado_127821" data-name="Trazado 127821" d="M35.093,3.408v3.44c-2.679.193-5.811.32-9.448.346.444.005.891.005,1.35.005,4.22,0,7.792-.135,10.8-.351v-3.6C36.947,3.308,36.043,3.361,35.093,3.408Z" fill="#007900"/>
        <path id="Trazado_127822" data-name="Trazado 127822" d="M47.574,28.048,43.6,30.324a2.016,2.016,0,0,1-2.583-.495l-2.322-3.9v10.06c-3.9,0-3.9,2.7-7.8,2.7s-3.9-2.7-7.8-2.7-3.9,2.7-7.792,2.7V25.933l-2.322,3.9a2.016,2.016,0,0,1-2.582.495L6.416,28.048a2.021,2.021,0,0,1-.774-2.717l5.5-10.663a2.6,2.6,0,0,1,1.251-1.134l.207-.072V14.4a1.8,1.8,0,1,0,3.6,0V12.13L19.8,10.8s1.026,6.3,7.2,6.3,7.2-6.3,7.2-6.3l3.6,1.332V14.4a1.8,1.8,0,0,0,3.6,0v-.936l.207.072a2.6,2.6,0,0,1,1.251,1.134l5.5,10.663a2.021,2.021,0,0,1-.774,2.717Z" fill="#f5f5f5"/>
        <path id="Trazado_127823" data-name="Trazado 127823" d="M48.348,25.33l-5.5-10.663A2.6,2.6,0,0,0,41.6,13.533l-.207-.072V14.4a1.79,1.79,0,0,1-.667,1.385l4.923,9.548a2.021,2.021,0,0,1-.774,2.717L41.28,30.1a2.017,2.017,0,0,0,2.316.22l3.977-2.277a2.021,2.021,0,0,0,.774-2.717Z" fill="#cfd8dc"/>
        <path id="Trazado_127824" data-name="Trazado 127824" d="M38.315,29.829l-2.322-3.9v10.06c-3.384,0-3.832,2.035-6.45,2.57a6.651,6.651,0,0,0,1.35.13c3.905,0,3.905-2.7,7.8-2.7V30.186A2.018,2.018,0,0,1,38.315,29.829Z" fill="#cfd8dc"/>
        <path id="Trazado_127825" data-name="Trazado 127825" d="M34.193,10.8s-1.026,6.3-7.2,6.3-7.2-6.3-7.2-6.3,2.061.9,7.2.9S34.193,10.8,34.193,10.8Z" fill="#9e9e9e"/>
        <path id="Trazado_127826" data-name="Trazado 127826" d="M31.341,11.438c-.408,1.44-1.788,4.876-5.7,5.538a8.032,8.032,0,0,0,1.35.121c6.173,0,7.2-6.3,7.2-6.3a12.049,12.049,0,0,1-2.852.64Z" fill="#707070"/>
        <g id="Grupo_93528" data-name="Grupo 93528">
          <path id="Trazado_127827" data-name="Trazado 127827" d="M16.2,2.7V14.4a1.8,1.8,0,0,1-3.6,0V2.7A1.805,1.805,0,0,1,14.4.9a1.759,1.759,0,0,1,1.269.531A1.759,1.759,0,0,1,16.2,2.7Z" fill="#ef314c"/>
          <path id="Trazado_127828" data-name="Trazado 127828" d="M41.392,2.7V14.4a1.8,1.8,0,0,1-3.6,0V2.7a1.805,1.805,0,0,1,1.8-1.8,1.759,1.759,0,0,1,1.269.531A1.759,1.759,0,0,1,41.392,2.7Z" fill="#ef314c"/>
          <path id="Trazado_127829" data-name="Trazado 127829" d="M41.392,2.7V14.4a1.8,1.8,0,0,1-3.6,0V2.7a1.805,1.805,0,0,1,1.8-1.8,1.759,1.759,0,0,1,1.269.531A1.759,1.759,0,0,1,41.392,2.7Z" fill="#ef314c"/>
        </g>
        <path id="Trazado_127830" data-name="Trazado 127830" d="M36.893,44.091v7.1a1.867,1.867,0,0,1-1.5,1.872,1.8,1.8,0,0,1-2.1-1.775v-5.4a1.8,1.8,0,0,0-3.6,0v4.5a1.8,1.8,0,0,1-2.1,1.775,1.867,1.867,0,0,1-1.5-1.872v-.8a1.8,1.8,0,0,0-2.1-1.775,1.867,1.867,0,0,0-1.5,1.872v1.607A1.867,1.867,0,0,1,21,53.065a1.8,1.8,0,0,1-2.1-1.775v-5.4a1.8,1.8,0,0,0-1.8-1.8Z" fill="#02a9f4"/>
        <path id="Trazado_127831" data-name="Trazado 127831" d="M34.193,44.091v7.1a1.986,1.986,0,0,1-.459,1.26,1.792,1.792,0,0,0,1.661.608,1.867,1.867,0,0,0,1.5-1.868v-7.1Z" fill="#0377bc"/>
        <path id="Trazado_127832" data-name="Trazado 127832" d="M38.693,35.993v6.3a1.805,1.805,0,0,1-1.8,1.8H17.1a1.805,1.805,0,0,1-1.8-1.8v-3.6c3.9,0,3.9-2.7,7.792-2.7s3.905,2.7,7.8,2.7S34.8,35.993,38.693,35.993Z" fill="#02a9f4"/>
        <path id="Trazado_127833" data-name="Trazado 127833" d="M35.993,36.6v5.7a1.805,1.805,0,0,1-1.8,1.8h2.7a1.805,1.805,0,0,0,1.8-1.8v-6.3a5.669,5.669,0,0,0-2.7.6Z" fill="#0377bc"/>
      </g>
      <g id="Icons_copy" data-name="Icons copy">
        <path id="Trazado_127834" data-name="Trazado 127834" d="M52.5,5.116A2.7,2.7,0,0,0,50.132.27c-.022.009-2.153.948-7.968,1.654a2.683,2.683,0,0,0-5.241.479c-3.09.193-6.414.3-9.929.3-3.568,0-6.894-.107-9.93-.308a2.683,2.683,0,0,0-5.24-.472C5.99,1.213,3.9.28,3.883.27A2.7,2.7,0,0,0,1.5,5.116c.287.143,2.95,1.383,10.2,2.219v5.55a3.544,3.544,0,0,0-1.357,1.37L4.852,24.9a2.929,2.929,0,0,0,1.118,3.927l3.977,2.277a2.9,2.9,0,0,0,3.734-.72.922.922,0,0,0,.068-.1L14.4,29.2v13.09a2.7,2.7,0,0,0,2.7,2.7.9.9,0,0,1,.9.9v5.4a2.7,2.7,0,0,0,3.149,2.663,2.775,2.775,0,0,0,2.25-2.76V49.587a.975.975,0,0,1,.742-.983.9.9,0,0,1,1.057.886v.8a2.775,2.775,0,0,0,2.25,2.76,2.7,2.7,0,0,0,3.149-2.663v-4.5a.9.9,0,0,1,1.8,0v5.4a2.7,2.7,0,0,0,2.7,2.7,2.844,2.844,0,0,0,.444-.036,2.775,2.775,0,0,0,2.256-2.76V44.825a2.694,2.694,0,0,0,1.8-2.533V29.2l.648,1.089a.922.922,0,0,0,.068.1,2.9,2.9,0,0,0,3.734.72l3.973-2.275a2.924,2.924,0,0,0,1.13-3.912l-5.51-10.691a3.493,3.493,0,0,0-1.344-1.341V7.335C49.549,6.5,52.211,5.259,52.5,5.116ZM50.9,1.894a.908.908,0,0,1,1.2.417.889.889,0,0,1-.4,1.2c-.025.009-2.481,1.2-9.4,2.016V3.718C48.681,2.951,50.9,1.894,50.9,1.894ZM38.693,2.7a.9.9,0,0,1,1.8,0V14.4a.9.9,0,0,1-1.8,0ZM34.506,9.954a.924.924,0,0,0-.668.017c-.02.008-2.02.827-6.843.827s-6.823-.819-6.839-.824a.894.894,0,0,0-.673-.02l-2.386.885V7.8c3.023.192,6.336.294,9.9.294s6.876-.1,9.9-.294v3.034Zm-1.625,2.135a6.265,6.265,0,0,1-11.763,0,29.2,29.2,0,0,0,5.878.508,29.293,29.293,0,0,0,5.886-.508ZM36.893,4.2V6c-3.014.193-6.329.3-9.9.3s-6.884-.1-9.9-.3V4.2c3.035.2,6.349.3,9.9.3C30.493,4.5,33.809,4.4,36.893,4.2ZM13.5,2.7a.9.9,0,1,1,1.8,0V14.4a.9.9,0,1,1-1.8,0ZM2.3,3.509a.9.9,0,0,1,.78-1.62C3.105,1.9,5.345,2.952,11.7,3.717V5.524c-6.918-.817-9.373-2-9.394-2.015ZM16.2,42.292V39.54a7.019,7.019,0,0,0,3.509-1.458,5.415,5.415,0,0,1,6.773,0,7.2,7.2,0,0,0,8.825,0,5.457,5.457,0,0,1,2.489-1.121v5.331a.9.9,0,0,1-.9.9H17.1a.9.9,0,0,1-.9-.9Zm12.6,3.6v4.5a.9.9,0,0,1-1.057.886.975.975,0,0,1-.742-.983v-.8a2.7,2.7,0,0,0-3.149-2.663,2.775,2.775,0,0,0-2.25,2.76v1.607a.975.975,0,0,1-.742.983A.9.9,0,0,1,19.8,51.29v-5.4a2.669,2.669,0,0,0-.166-.9H28.96a2.669,2.669,0,0,0-.166.9Zm6.456,6.285a.9.9,0,0,1-1.057-.886v-5.4a2.669,2.669,0,0,0-.166-.9h1.965v6.2a.975.975,0,0,1-.742.983ZM47.556,25.759a1.123,1.123,0,0,1-.43,1.507l-3.977,2.277a1.107,1.107,0,0,1-1.4-.233l-2.286-3.837a.9.9,0,0,0-1.672.46v9.212A7.029,7.029,0,0,0,34.283,36.6a5.419,5.419,0,0,1-6.776,0,7.2,7.2,0,0,0-8.818,0A5.449,5.449,0,0,1,16.2,37.724V25.933a.9.9,0,0,0-1.672-.46L12.238,29.31a1.107,1.107,0,0,1-1.4.233L6.86,27.265a1.127,1.127,0,0,1-.418-1.523L11.85,15.253A2.692,2.692,0,0,0,17.1,14.4v-1.64l2.064-.764a8.113,8.113,0,0,0,15.668,0l2.064.764V14.4a2.692,2.692,0,0,0,5.247.857Z"/>
      </g>
    </g>
  </g>
</svg>
