<svg xmlns="http://www.w3.org/2000/svg" xmlns:xlink="http://www.w3.org/1999/xlink" width="400" height="420" viewBox="0 0 400 420">
  <defs>
    <clipPath id="clip-path">
      <rect id="Rectángulo_35217" data-name="Rectángulo 35217" width="400" height="420" rx="20" transform="translate(1020 1906)" fill="#6b8dff"/>
    </clipPath>
    <clipPath id="clip-path-2">
      <circle id="Elipse_4798" data-name="Elipse 4798" cx="43.42" cy="43.42" r="43.42" fill="none"/>
    </clipPath>
  </defs>
  <g id="_12" data-name="12" transform="translate(-1020 -1906)" clip-path="url(#clip-path)">
    <g id="Grupo_89570" data-name="Grupo 89570" transform="translate(949.665 1932.165)">
      <g id="BACKGROUND" transform="translate(0.001 -41.333)">
        <rect id="Rectángulo_35226" data-name="Rectángulo 35226" width="541" height="444" transform="translate(0.334 0.169)" fill="#f1e0df"/>
      </g>
      <g id="OBJECTS" transform="translate(38.917 29.224)">
        <g id="Grupo_89457" data-name="Grupo 89457" transform="translate(16.805)">
          <path id="Trazado_122456" data-name="Trazado 122456" d="M142.624,370.334a51.419,51.419,0,0,1,10.513,2.315l0-.005c.047.017.092.031.139.048.126.043.251.087.377.131,19.08,6.808,27.842,5.531,35.344,3.226,20.259-6.222,32.271-33.009,65.083-27.824,13.917,2.2,25.115,5.189,33.841,11.273l-.012-.027c.061.051.121.094.183.145,1.252.878,2.471,1.771,3.625,2.691,17.066,11.14,34.067-3.381,38.948-6.67.358-.26.732-2.325,1.1-2.583.2-.145.3-.23.3-.23v.017c21.383-15.071,55.4-30.338,88.183-26.589,56.337,6.44,79.009,70.333,79.009,70.333H78.274C84.85,381.475,111.154,366.737,142.624,370.334Z" transform="translate(-77.435 -119.568)" fill="#e3cdc9"/>
          <g id="Grupo_89456" data-name="Grupo 89456">
            <g id="Grupo_89448" data-name="Grupo 89448" transform="translate(21.069 76.27)">
              <g id="Grupo_89447" data-name="Grupo 89447" transform="translate(0 0)">
                <path id="Rectángulo_35227" data-name="Rectángulo 35227" d="M1.936,0H34.054a1.935,1.935,0,0,1,1.935,1.935v8.154a1.935,1.935,0,0,1-1.935,1.935H1.935A1.935,1.935,0,0,1,0,10.089V1.936A1.936,1.936,0,0,1,1.936,0Z" transform="translate(35.989 12.025) rotate(180)" fill="#8155ff"/>
                <g id="Grupo_89446" data-name="Grupo 89446" transform="translate(7.048 4.444)">
                  <g id="Grupo_89444" data-name="Grupo 89444">
                    <rect id="Rectángulo_35228" data-name="Rectángulo 35228" width="23.575" height="0.451" fill="#fff"/>
                  </g>
                  <g id="Grupo_89445" data-name="Grupo 89445" transform="translate(0 2.686)">
                    <rect id="Rectángulo_35229" data-name="Rectángulo 35229" width="6.939" height="0.451" fill="#fff"/>
                  </g>
                </g>
              </g>
              <path id="Trazado_122457" data-name="Trazado 122457" d="M147.485,160.419v5.438l-6.932-5.438Z" transform="translate(-115.781 -149.994)" fill="#8155ff"/>
            </g>
            <g id="Grupo_89452" data-name="Grupo 89452" transform="translate(0 42.671)">
              <g id="Grupo_89449" data-name="Grupo 89449" transform="translate(407.303 94.045)">
                <path id="Trazado_122458" data-name="Trazado 122458" d="M645.2,238.608a4.482,4.482,0,1,1,4.425-4.482A4.458,4.458,0,0,1,645.2,238.608Zm0-8.177a3.7,3.7,0,1,0,3.639,3.7A3.671,3.671,0,0,0,645.2,230.431Z" transform="translate(-640.778 -229.644)" fill="#fff"/>
              </g>
              <g id="Grupo_89450" data-name="Grupo 89450" transform="translate(0 118.07)">
                <path id="Trazado_122459" data-name="Trazado 122459" d="M83.266,275.359a6.234,6.234,0,1,1,6.154-6.233A6.2,6.2,0,0,1,83.266,275.359Zm0-11.681a5.448,5.448,0,1,0,5.367,5.448A5.414,5.414,0,0,0,83.266,263.677Z" transform="translate(-77.113 -262.892)" fill="#fff"/>
              </g>
              <g id="Grupo_89451" data-name="Grupo 89451" transform="translate(220.571)">
                <path id="Trazado_122460" data-name="Trazado 122460" d="M384.946,104.731a2.618,2.618,0,1,1,2.588-2.618A2.605,2.605,0,0,1,384.946,104.731Zm0-4.449a1.831,1.831,0,1,0,1.8,1.831A1.818,1.818,0,0,0,384.946,100.282Z" transform="translate(-382.36 -99.495)" fill="#fff"/>
              </g>
            </g>
            <g id="Grupo_89455" data-name="Grupo 89455" transform="translate(36.085)">
              <g id="Grupo_89453" data-name="Grupo 89453" transform="translate(0 17.512)">
                <path id="Trazado_122461" data-name="Trazado 122461" d="M221.447,80.911h-94a.4.4,0,0,1-.362-.565c.049-.108,5.12-10.834,20.343-14.57,11.657-2.861,18.174.354,25.72,4.076,2.432,1.2,4.948,2.441,7.8,3.569,6.266,2.476,11.353,1.41,16.272.378,4.2-.881,8.535-1.791,13.433-.39,10.577,3.024,11.165,6.891,11.184,7.055a.4.4,0,0,1-.4.447Zm-93.334-.8h92.766c-.525-1.038-2.592-3.694-10.44-5.938-4.707-1.346-8.76-.5-13.051.4-5.034,1.056-10.24,2.148-16.729-.416-2.883-1.14-5.414-2.388-7.861-3.595-7.407-3.653-13.8-6.808-25.177-4.018C134.8,69.7,129.376,77.887,128.113,80.113Z" transform="translate(-127.052 -64.678)" fill="#fafafa"/>
              </g>
              <g id="Grupo_89454" data-name="Grupo 89454" transform="translate(297.96 56.196)">
                <path id="Trazado_122462" data-name="Trazado 122462" d="M588.406,128.722H539.8a.4.4,0,0,1-.372-.539,16.643,16.643,0,0,1,10.64-9.267c6.124-1.829,9.533.217,13.479,2.585,1.255.752,2.552,1.53,4.018,2.236,3.167,1.523,5.641.891,8.262.223,2.2-.561,4.48-1.142,7.078-.24,5.576,1.94,5.891,4.457,5.9,4.564a.4.4,0,0,1-.4.438Zm-47.993-.8H587.84c-.376-.716-1.559-2.184-5.2-3.452-2.369-.824-4.432-.3-6.618.259-2.643.674-5.375,1.371-8.8-.277-1.5-.721-2.813-1.509-4.083-2.27-3.941-2.365-7.058-4.232-12.841-2.505A16.275,16.275,0,0,0,540.413,127.925Z" transform="translate(-539.398 -118.213)" fill="#fafafa"/>
              </g>
              <circle id="Elipse_4791" data-name="Elipse 4791" cx="15.933" cy="15.933" r="15.933" transform="matrix(0.159, -0.987, 0.987, 0.159, 238.602, 31.46)" fill="#fdb9b9"/>
            </g>
          </g>
        </g>
        <g id="Grupo_89494" data-name="Grupo 89494" transform="translate(135.5 64.814)">
          <g id="Grupo_89478" data-name="Grupo 89478">
            <g id="Grupo_89462" data-name="Grupo 89462">
              <rect id="Rectángulo_35230" data-name="Rectángulo 35230" width="165.405" height="165.933" transform="translate(0 45.424)" fill="#fff"/>
              <path id="Trazado_122463" data-name="Trazado 122463" d="M406.78,153.274v26.1H241.375v-26.1a9.39,9.39,0,0,1,9.389-9.389H397.392A9.389,9.389,0,0,1,406.78,153.274Z" transform="translate(-241.375 -133.952)" fill="#8155ff"/>
              <g id="Grupo_89461" data-name="Grupo 89461" transform="translate(22.157)">
                <g id="Grupo_89458" data-name="Grupo 89458" transform="translate(109.833)">
                  <circle id="Elipse_4792" data-name="Elipse 4792" cx="7.781" cy="7.781" r="7.781" transform="translate(0 18.36)" fill="#2b4183"/>
                  <path id="Trazado_122464" data-name="Trazado 122464" d="M433.09,159.2h0a4.459,4.459,0,0,0,4.459-4.459V134.6a4.459,4.459,0,0,0-4.459-4.459h0a4.459,4.459,0,0,0-4.459,4.459v20.144A4.459,4.459,0,0,0,433.09,159.2Z" transform="translate(-425.31 -130.139)" fill="#ffcb2d"/>
                </g>
                <g id="Grupo_89459" data-name="Grupo 89459" transform="translate(54.916)">
                  <circle id="Elipse_4793" data-name="Elipse 4793" cx="7.78" cy="7.78" r="7.78" transform="translate(0 18.36)" fill="#2b4183"/>
                  <path id="Trazado_122465" data-name="Trazado 122465" d="M357.092,159.2h0a4.459,4.459,0,0,0,4.459-4.459V134.6a4.459,4.459,0,0,0-4.459-4.459h0a4.459,4.459,0,0,0-4.46,4.459v20.144A4.459,4.459,0,0,0,357.092,159.2Z" transform="translate(-349.311 -130.139)" fill="#ffcb2d"/>
                </g>
                <g id="Grupo_89460" data-name="Grupo 89460">
                  <circle id="Elipse_4794" data-name="Elipse 4794" cx="7.78" cy="7.78" r="7.78" transform="translate(0 18.36)" fill="#2b4183"/>
                  <path id="Trazado_122466" data-name="Trazado 122466" d="M281.093,159.2h0a4.459,4.459,0,0,0,4.459-4.459V134.6a4.459,4.459,0,0,0-4.459-4.459h0a4.459,4.459,0,0,0-4.459,4.459v20.144A4.459,4.459,0,0,0,281.093,159.2Z" transform="translate(-273.313 -130.139)" fill="#ffcb2d"/>
                </g>
              </g>
            </g>
            <g id="Grupo_89477" data-name="Grupo 89477" transform="translate(25.028 71.29)">
              <g id="Grupo_89466" data-name="Grupo 89466">
                <g id="Grupo_89463" data-name="Grupo 89463" transform="translate(83.685)">
                  <path id="Trazado_122467" data-name="Trazado 122467" d="M424.872,261.846H391.823V228.8h33.049Zm-31.45-1.6h29.851V230.4H393.422Z" transform="translate(-391.823 -228.797)" fill="#f0e0df"/>
                </g>
                <g id="Grupo_89464" data-name="Grupo 89464" transform="translate(41.843)">
                  <path id="Trazado_122468" data-name="Trazado 122468" d="M366.966,261.846H333.917V228.8h33.049Zm-31.45-1.6h29.85V230.4h-29.85Z" transform="translate(-333.917 -228.797)" fill="#f0e0df"/>
                </g>
                <g id="Grupo_89465" data-name="Grupo 89465">
                  <path id="Trazado_122469" data-name="Trazado 122469" d="M309.06,261.846H276.011V228.8H309.06Zm-31.45-1.6h29.851V230.4H277.61Z" transform="translate(-276.011 -228.797)" fill="#f0e0df"/>
                </g>
              </g>
              <g id="Grupo_89472" data-name="Grupo 89472" transform="translate(0.799 39.921)">
                <g id="Grupo_89467" data-name="Grupo 89467" transform="translate(82.886)">
                  <path id="Trazado_122470" data-name="Trazado 122470" d="M424.872,317.093H391.823V284.044h33.049Zm-31.45-1.6h29.851v-29.85H393.422Z" transform="translate(-391.823 -284.044)" fill="#f0e0df"/>
                </g>
                <g id="Grupo_89468" data-name="Grupo 89468" transform="translate(41.043)">
                  <path id="Trazado_122471" data-name="Trazado 122471" d="M366.966,317.093H333.917V284.044h33.049Zm-31.45-1.6h29.85v-29.85h-29.85Z" transform="translate(-333.917 -284.044)" fill="#f0e0df"/>
                </g>
                <rect id="Rectángulo_35231" data-name="Rectángulo 35231" width="31.45" height="31.45" transform="translate(31.45 32.249) rotate(180)" fill="#f88aa0"/>
                <g id="Grupo_89471" data-name="Grupo 89471" transform="translate(10.842 11.522)">
                  <g id="Grupo_89469" data-name="Grupo 89469" transform="translate(0 0.001)">
                    <rect id="Rectángulo_35232" data-name="Rectángulo 35232" width="1.458" height="12.522" transform="matrix(0.718, -0.696, 0.696, 0.718, 0, 1.015)" fill="#fff"/>
                  </g>
                  <g id="Grupo_89470" data-name="Grupo 89470" transform="translate(0.001 0)">
                    <rect id="Rectángulo_35233" data-name="Rectángulo 35233" width="12.522" height="1.458" transform="matrix(0.696, -0.718, 0.718, 0.696, 0, 8.99)" fill="#fff"/>
                  </g>
                </g>
              </g>
              <g id="Grupo_89476" data-name="Grupo 89476" transform="translate(0 79.843)">
                <g id="Grupo_89473" data-name="Grupo 89473" transform="translate(83.685)">
                  <path id="Trazado_122472" data-name="Trazado 122472" d="M424.872,372.34H391.823V339.291h33.049Zm-31.45-1.6h29.851V340.89H393.422Z" transform="translate(-391.823 -339.291)" fill="#f0e0df"/>
                </g>
                <g id="Grupo_89474" data-name="Grupo 89474" transform="translate(41.843)">
                  <path id="Trazado_122473" data-name="Trazado 122473" d="M366.966,372.34H333.917V339.291h33.049Zm-31.45-1.6h29.85V340.89h-29.85Z" transform="translate(-333.917 -339.291)" fill="#f0e0df"/>
                </g>
                <g id="Grupo_89475" data-name="Grupo 89475">
                  <path id="Trazado_122474" data-name="Trazado 122474" d="M309.06,372.34H276.011V339.291H309.06Zm-31.45-1.6h29.851V340.89H277.61Z" transform="translate(-276.011 -339.291)" fill="#f0e0df"/>
                </g>
              </g>
            </g>
          </g>
          <g id="Grupo_89493" data-name="Grupo 89493" transform="translate(103.004 96.376)">
            <g id="Grupo_89481" data-name="Grupo 89481" transform="translate(0.156)">
              <g id="Grupo_89479" data-name="Grupo 89479" transform="translate(37.617)">
                <rect id="Rectángulo_35234" data-name="Rectángulo 35234" width="15.305" height="10.079" transform="translate(6.485 5.641)" fill="#ffa80a"/>
                <path id="Trazado_122475" data-name="Trazado 122475" d="M460.344,271.769h-20.02a4.128,4.128,0,0,1-4.127-4.128h0a4.127,4.127,0,0,1,4.127-4.128h20.02a4.128,4.128,0,0,1,4.127,4.128h0A4.128,4.128,0,0,1,460.344,271.769Z" transform="translate(-436.196 -263.513)" fill="#ffcb2d"/>
              </g>
              <g id="Grupo_89480" data-name="Grupo 89480" transform="translate(0 15.266)">
                <rect id="Rectángulo_35235" data-name="Rectángulo 35235" width="12.203" height="8.607" transform="translate(6.015 14.296) rotate(-45)" fill="#ffa80a"/>
                <path id="Trazado_122476" data-name="Trazado 122476" d="M401.5,289.95l-12.054,12.055a3.111,3.111,0,0,1-4.4,0h0a3.11,3.11,0,0,1,0-4.4L397.1,285.551a3.111,3.111,0,0,1,4.4,0h0A3.111,3.111,0,0,1,401.5,289.95Z" transform="translate(-384.139 -284.64)" fill="#ffcb2d"/>
              </g>
            </g>
            <g id="Grupo_89492" data-name="Grupo 89492" transform="translate(0 11.378)">
              <g id="Grupo_89482" data-name="Grupo 89482">
                <circle id="Elipse_4795" data-name="Elipse 4795" cx="51.73" cy="51.73" r="51.73" fill="#f67b91"/>
                <circle id="Elipse_4796" data-name="Elipse 4796" cx="48.947" cy="48.947" r="48.947" transform="translate(2.783 2.783)" fill="#f88aa0"/>
                <circle id="Elipse_4797" data-name="Elipse 4797" cx="43.42" cy="43.42" r="43.42" transform="translate(8.31 8.31)" fill="#f6f6f6"/>
              </g>
              <g id="Grupo_89484" data-name="Grupo 89484" transform="translate(8.31 8.31)" opacity="0.71">
                <g id="Grupo_89483" data-name="Grupo 89483" clip-path="url(#clip-path-2)">
                  <path id="Trazado_122477" data-name="Trazado 122477" d="M389.772,297.6l65.812,101.981,29.732-25.57L420.2,282.735Z" transform="translate(-393.855 -288.533)" fill="#fff"/>
                  <path id="Trazado_122478" data-name="Trazado 122478" d="M438.309,268.512l65.812,101.981,3.825-12.785-65.114-91.278Z" transform="translate(-407.32 -284.01)" fill="#fff"/>
                </g>
              </g>
              <g id="Grupo_89491" data-name="Grupo 89491" transform="translate(13.299 13.345)">
                <g id="Grupo_89489" data-name="Grupo 89489">
                  <g id="Grupo_89485" data-name="Grupo 89485" transform="translate(37.555)">
                    <path id="Trazado_122479" data-name="Trazado 122479" d="M455.392,302.476a1.093,1.093,0,0,1-1.093-1.093V298.82a1.092,1.092,0,1,1,2.184,0v2.564A1.092,1.092,0,0,1,455.392,302.476Z" transform="translate(-454.299 -297.727)" fill="#8054ff"/>
                    <path id="Trazado_122480" data-name="Trazado 122480" d="M455.392,402.872a1.092,1.092,0,0,1-1.093-1.092v-2.564a1.092,1.092,0,1,1,2.184,0v2.564A1.091,1.091,0,0,1,455.392,402.872Z" transform="translate(-454.299 -325.577)" fill="#8054ff"/>
                  </g>
                  <g id="Grupo_89486" data-name="Grupo 89486" transform="translate(10.999 10.999)">
                    <path id="Trazado_122481" data-name="Trazado 122481" d="M420.454,316.947a1.09,1.09,0,0,1-.772-.319l-1.814-1.814a1.092,1.092,0,0,1,1.545-1.545l1.814,1.814a1.092,1.092,0,0,1-.772,1.864Z" transform="translate(-417.549 -312.949)" fill="#8054ff"/>
                    <path id="Trazado_122482" data-name="Trazado 122482" d="M491.445,387.938a1.09,1.09,0,0,1-.772-.319L488.86,385.8a1.092,1.092,0,1,1,1.544-1.545l1.814,1.814a1.092,1.092,0,0,1-.772,1.864Z" transform="translate(-437.242 -332.642)" fill="#8054ff"/>
                  </g>
                  <g id="Grupo_89487" data-name="Grupo 89487" transform="translate(10.999 10.999)">
                    <path id="Trazado_122483" data-name="Trazado 122483" d="M418.641,387.938a1.092,1.092,0,0,1-.772-1.864l1.814-1.814a1.092,1.092,0,0,1,1.545,1.545l-1.814,1.814A1.089,1.089,0,0,1,418.641,387.938Z" transform="translate(-417.549 -332.642)" fill="#8054ff"/>
                    <path id="Trazado_122484" data-name="Trazado 122484" d="M489.632,316.947a1.092,1.092,0,0,1-.772-1.864l1.813-1.814a1.092,1.092,0,0,1,1.545,1.545l-1.814,1.814A1.089,1.089,0,0,1,489.632,316.947Z" transform="translate(-437.242 -312.949)" fill="#8054ff"/>
                  </g>
                  <g id="Grupo_89488" data-name="Grupo 89488" transform="translate(0 37.556)">
                    <path id="Trazado_122485" data-name="Trazado 122485" d="M405.983,351.884h-2.564a1.092,1.092,0,0,1,0-2.184h2.564a1.092,1.092,0,0,1,0,2.184Z" transform="translate(-402.327 -349.7)" fill="#8054ff"/>
                    <path id="Trazado_122486" data-name="Trazado 122486" d="M506.379,351.884h-2.564a1.092,1.092,0,1,1,0-2.184h2.564a1.092,1.092,0,1,1,0,2.184Z" transform="translate(-430.177 -349.7)" fill="#8054ff"/>
                  </g>
                </g>
                <g id="Grupo_89490" data-name="Grupo 89490" transform="translate(32.661 12.999)">
                  <path id="Trazado_122487" data-name="Trazado 122487" d="M457.418,340.952H452.2V318.325a2.61,2.61,0,0,1,2.61-2.609h0a2.61,2.61,0,0,1,2.609,2.609Z" transform="translate(-448.823 -315.716)" fill="#8054ff"/>
                  <circle id="Elipse_4799" data-name="Elipse 4799" cx="5.986" cy="5.986" r="5.986" transform="translate(0 19.25)" fill="#2b4183"/>
                </g>
              </g>
            </g>
          </g>
        </g>
        <g id="Grupo_89532" data-name="Grupo 89532" transform="translate(52.434 90.263)">
          <g id="Grupo_89511" data-name="Grupo 89511" transform="translate(9.284 78.95)">
            <g id="Grupo_89501" data-name="Grupo 89501" transform="translate(0)">
              <g id="Grupo_89495" data-name="Grupo 89495" transform="translate(27.382)">
                <path id="Trazado_122488" data-name="Trazado 122488" d="M199.928,275.764l9.454,41.692a11.251,11.251,0,0,1-4,10.4l-28.225,22.072.522-20.324,14.1-11.5-14.62-43.478Z" transform="translate(-177.161 -274.616)" fill="#7041fd"/>
              </g>
              <g id="Grupo_89500" data-name="Grupo 89500" transform="translate(0 60.793)">
                <path id="Trazado_122489" data-name="Trazado 122489" d="M155.613,373.431l13.591-7.11-5.367-7.574-14.76,8.026,4.71,5.973Z" transform="translate(-141.989 -358.748)" fill="#fa849b"/>
                <g id="Grupo_89499" data-name="Grupo 89499" transform="translate(0 4.84)">
                  <path id="Trazado_122490" data-name="Trazado 122490" d="M150.555,365.446s2.3,8.418,8.909,7.947l2.549,20.055L142.5,368.706Z" transform="translate(-140.165 -365.446)" fill="#181f42"/>
                  <rect id="Rectángulo_35236" data-name="Rectángulo 35236" width="31.509" height="2.976" transform="matrix(0.619, 0.785, -0.785, 0.619, 2.337, 3.26)" fill="#fff"/>
                  <g id="Grupo_89496" data-name="Grupo 89496" transform="translate(15.287 9.627)">
                    <path id="Trazado_122491" data-name="Trazado 122491" d="M164.767,380.255a.564.564,0,0,1-.164-.025,11.488,11.488,0,0,0-3.611-.358.532.532,0,0,1-.569-.517.544.544,0,0,1,.518-.568,12.089,12.089,0,0,1,3.992.408.543.543,0,0,1-.167,1.061Z" transform="translate(-160.423 -378.769)" fill="#fff"/>
                  </g>
                  <g id="Grupo_89497" data-name="Grupo 89497" transform="translate(15.853 12.563)">
                    <path id="Trazado_122492" data-name="Trazado 122492" d="M165.55,384.318a.563.563,0,0,1-.164-.025,11.554,11.554,0,0,0-3.611-.359.533.533,0,0,1-.568-.517.543.543,0,0,1,.517-.569,12.309,12.309,0,0,1,3.992.409.544.544,0,0,1-.167,1.061Z" transform="translate(-161.206 -382.832)" fill="#fff"/>
                  </g>
                  <g id="Grupo_89498" data-name="Grupo 89498" transform="translate(16.418 15.499)">
                    <path id="Trazado_122493" data-name="Trazado 122493" d="M166.332,388.38a.567.567,0,0,1-.165-.025,11.587,11.587,0,0,0-3.611-.359.537.537,0,0,1-.568-.517.544.544,0,0,1,.518-.568,12.357,12.357,0,0,1,3.992.409.543.543,0,0,1-.166,1.061Z" transform="translate(-161.988 -386.895)" fill="#fff"/>
                  </g>
                </g>
              </g>
            </g>
            <g id="Grupo_89510" data-name="Grupo 89510" transform="translate(12.868 0.126)">
              <g id="Grupo_89506" data-name="Grupo 89506" transform="translate(0 84.363)">
                <path id="Trazado_122494" data-name="Trazado 122494" d="M171.349,407.09l1.375-15.074-9.271-.475-1.38,16.56h7.607Z" transform="translate(-158.462 -391.54)" fill="#fa849b"/>
                <g id="Grupo_89505" data-name="Grupo 89505" transform="translate(0 9.92)">
                  <path id="Trazado_122495" data-name="Trazado 122495" d="M159.5,407.343s8.032,3.409,11.757-2.074l17.326,10.415h-31.51Z" transform="translate(-157.075 -405.269)" fill="#181f42"/>
                  <rect id="Rectángulo_35237" data-name="Rectángulo 35237" width="31.509" height="2.976" transform="translate(0 10.416)" fill="#fff"/>
                  <g id="Grupo_89502" data-name="Grupo 89502" transform="translate(13.251 0.819)">
                    <path id="Trazado_122496" data-name="Trazado 122496" d="M175.956,410.236a.544.544,0,0,1-.442-.859,12.313,12.313,0,0,1,2.793-2.882.544.544,0,0,1,.608.9,11.452,11.452,0,0,0-2.518,2.614A.543.543,0,0,1,175.956,410.236Z" transform="translate(-175.413 -406.402)" fill="#fff"/>
                  </g>
                  <g id="Grupo_89503" data-name="Grupo 89503" transform="translate(15.906 2.192)">
                    <path id="Trazado_122497" data-name="Trazado 122497" d="M179.63,412.137a.542.542,0,0,1-.442-.859,12.293,12.293,0,0,1,2.793-2.882.544.544,0,0,1,.608.9,11.433,11.433,0,0,0-2.518,2.614A.543.543,0,0,1,179.63,412.137Z" transform="translate(-179.087 -408.303)" fill="#fff"/>
                  </g>
                  <g id="Grupo_89504" data-name="Grupo 89504" transform="translate(18.561 3.566)">
                    <path id="Trazado_122498" data-name="Trazado 122498" d="M183.3,414.038a.543.543,0,0,1-.442-.86,12.316,12.316,0,0,1,2.793-2.882.543.543,0,0,1,.608.9,11.48,11.48,0,0,0-2.517,2.613A.544.544,0,0,1,183.3,414.038Z" transform="translate(-182.761 -410.204)" fill="#fff"/>
                  </g>
                </g>
              </g>
              <g id="Grupo_89509" data-name="Grupo 89509" transform="translate(1.816)">
                <g id="Grupo_89508" data-name="Grupo 89508">
                  <g id="Grupo_89507" data-name="Grupo 89507">
                    <path id="Trazado_122499" data-name="Trazado 122499" d="M163.84,274.791l-4.253,87.929h16.13l11.748-87.641Z" transform="translate(-159.588 -274.791)" fill="#8155ff"/>
                  </g>
                </g>
                <path id="Trazado_122500" data-name="Trazado 122500" d="M204.131,276.056h0l-9.776,15.326-2.043-15.712Z" transform="translate(-168.666 -275.034)" fill="#8155ff"/>
              </g>
            </g>
          </g>
          <g id="Grupo_89525" data-name="Grupo 89525" transform="translate(0 33.739)">
            <g id="Grupo_89518" data-name="Grupo 89518" transform="translate(50.363 1.624)">
              <path id="Trazado_122501" data-name="Trazado 122501" d="M262.983,252.163l-9.633.754,1.723-9.678,10.062.847Z" transform="translate(-211.994 -222.325)" fill="#fa849b"/>
              <g id="Grupo_89515" data-name="Grupo 89515" transform="translate(47.5 15.451)">
                <g id="Grupo_89514" data-name="Grupo 89514" transform="translate(0 0.545)">
                  <g id="Grupo_89513" data-name="Grupo 89513">
                    <g id="Grupo_89512" data-name="Grupo 89512">
                      <path id="Trazado_122502" data-name="Trazado 122502" d="M273.622,250.379a6.754,6.754,0,1,1,.734-9.523A6.754,6.754,0,0,1,273.622,250.379Z" transform="translate(-262.025 -237.005)" fill="#fa849b"/>
                      <path id="Trazado_122503" data-name="Trazado 122503" d="M269.4,237.937s-1.226-2.825-4.086-.733-5.4,6.377-1.392,11.867Z" transform="translate(-261.853 -236.433)" fill="#fa849b"/>
                    </g>
                  </g>
                </g>
                <path id="Trazado_122504" data-name="Trazado 122504" d="M272.3,237.69l7.759-1.952a1.272,1.272,0,0,1,1.58.767h0a1.1,1.1,0,0,1-.582,1.371l-7.881,3.525Z" transform="translate(-264.752 -235.678)" fill="#fa849b"/>
              </g>
              <g id="Grupo_89516" data-name="Grupo 89516">
                <path id="Trazado_122505" data-name="Trazado 122505" d="M210.731,218.3l12.726,20.135a7.039,7.039,0,0,1-2.3,9.321h0a7.038,7.038,0,0,1-9.726-2.018l-14.029-19.344a7.8,7.8,0,0,1,1-9.81h0A7.8,7.8,0,0,1,210.731,218.3Z" transform="translate(-196.118 -214.296)" fill="#ffcd2e"/>
                <path id="Trazado_122506" data-name="Trazado 122506" d="M210.83,244.752l.751-11.023,2.734,15.834Z" transform="translate(-200.199 -219.686)" fill="#f2bb19"/>
              </g>
              <g id="Grupo_89517" data-name="Grupo 89517" transform="translate(14.862 18.83)">
                <path id="Trazado_122507" data-name="Trazado 122507" d="M222.556,243.645l28.017-3.291-.088,12.8-26.057,3.358a6.506,6.506,0,0,1-7.739-6.625h0A6.506,6.506,0,0,1,222.556,243.645Z" transform="translate(-216.685 -240.354)" fill="#ffcd2e"/>
              </g>
            </g>
            <g id="Grupo_89522" data-name="Grupo 89522">
              <g id="Grupo_89520" data-name="Grupo 89520" transform="translate(0 18.78)">
                <g id="Grupo_89519" data-name="Grupo 89519" transform="translate(0 32.48)">
                  <path id="Trazado_122508" data-name="Trazado 122508" d="M154.875,293.418s3.125.251,2.614-3.32-3.145-7.9-10-6.934Z" transform="translate(-132.266 -282.999)" fill="#fa849b"/>
                  <rect id="Rectángulo_35238" data-name="Rectángulo 35238" width="31.45" height="31.45" transform="translate(31.45 39.055) rotate(180)" fill="#ffcd2e"/>
                  <rect id="Rectángulo_35239" data-name="Rectángulo 35239" width="31.45" height="31.45" transform="translate(32.904 39.055) rotate(180)" fill="#ffcd2e"/>
                  <path id="Trazado_122509" data-name="Trazado 122509" d="M140.2,291.359a6.877,6.877,0,1,1,8.205,5.221A6.876,6.876,0,0,1,140.2,291.359Z" transform="translate(-130.198 -282.988)" fill="#fa849b"/>
                </g>
                <path id="Trazado_122510" data-name="Trazado 122510" d="M153.854,244.743l-.309,28.208-12.357-.581-.329-27.41a6.506,6.506,0,0,1,7.558-6.831h0A6.5,6.5,0,0,1,153.854,244.743Z" transform="translate(-130.422 -238.039)" fill="#ffcd2e"/>
              </g>
              <g id="Grupo_89521" data-name="Grupo 89521" transform="translate(10.586)">
                <path id="Trazado_122511" data-name="Trazado 122511" d="M169.787,225.722l-17.046,16.637a7.038,7.038,0,0,1-9.595-.306h0a7.039,7.039,0,0,1-.05-9.934l16-17.746a7.8,7.8,0,0,1,9.8-1.066h0A7.8,7.8,0,0,1,169.787,225.722Z" transform="translate(-141.07 -212.049)" fill="#ffcd2e"/>
              </g>
            </g>
            <g id="Grupo_89524" data-name="Grupo 89524" transform="translate(28.22 0)">
              <g id="Grupo_89523" data-name="Grupo 89523" transform="translate(0)">
                <path id="Trazado_122512" data-name="Trazado 122512" d="M195.579,213.647l-24.24-1.594c-2.185-.144-6.083,3.825-5.853,6l-.014,39.33,31.213,1.021,3.17-39.922A4.584,4.584,0,0,0,195.579,213.647Z" transform="translate(-165.473 -212.049)" fill="#ffcd2e"/>
              </g>
              <path id="Trazado_122513" data-name="Trazado 122513" d="M165.473,243.3l7.04-6.871-7.036,18.608Z" transform="translate(-165.473 -218.813)" fill="#f2bb19"/>
            </g>
          </g>
          <g id="Grupo_89531" data-name="Grupo 89531" transform="translate(36.657)">
            <path id="Trazado_122514" data-name="Trazado 122514" d="M201.665,190.576a3.283,3.283,0,0,0,2.916,3.591,3.247,3.247,0,0,0,3.48-3.016,3.281,3.281,0,0,0-2.916-3.59A3.246,3.246,0,0,0,201.665,190.576Z" transform="translate(-183.947 -171.513)" fill="#e6728c"/>
            <path id="Trazado_122515" data-name="Trazado 122515" d="M195.59,200.959l-.148,7.918c-.046,2.781-1.731,4.234-4.382,4.157h0c-2.262-.066-4.728-1.21-4.583-3.659l.814-12.448Z" transform="translate(-179.736 -174.115)" fill="#fa849b"/>
            <path id="Trazado_122516" data-name="Trazado 122516" d="M195.772,206.828s-6.461.423-8.327-6.877c-.588-2.3,8.438.8,8.438.8Z" transform="translate(-179.998 -174.719)" fill="#312725"/>
            <path id="Trazado_122517" data-name="Trazado 122517" d="M192.181,196.176h0c4.522.095,8.322-3.516,8.525-7.326l.382-7.974a8.767,8.767,0,0,0-7.819-9.31h0c-4.724-.424-9.718,3.112-10.134,7.99l-.223,6.217A9.949,9.949,0,0,0,192.181,196.176Z" transform="translate(-178.746 -167.07)" fill="#f8879d"/>
            <g id="Grupo_89528" data-name="Grupo 89528" transform="translate(10.398 12.997)">
              <g id="Grupo_89526" data-name="Grupo 89526" transform="translate(5.735 5.071)">
                <path id="Trazado_122518" data-name="Trazado 122518" d="M199.692,193.424a.216.216,0,0,1,0-.432l.89-.017-.193-2.378a.217.217,0,0,1,.2-.233.222.222,0,0,1,.233.2l.211,2.607a.215.215,0,0,1-.211.233l-1.119.022Z" transform="translate(-199.476 -190.363)" fill="#312725"/>
              </g>
              <path id="Trazado_122519" data-name="Trazado 122519" d="M193.494,183.352s1.855-.124,1.86.655c0,0-.011.527-1.629.6s-2.036-.054-2.174-.552S192.625,183.342,193.494,183.352Z" transform="translate(-191.539 -183.345)" fill="#312725"/>
              <path id="Trazado_122520" data-name="Trazado 122520" d="M204.316,185.877s-1.526-.19-1.664.539c0,0-.082.494,1.255.629s1.775-.033,1.909-.43C205.967,186.166,205.042,185.9,204.316,185.877Z" transform="translate(-194.621 -184.041)" fill="#312725"/>
              <path id="Trazado_122521" data-name="Trazado 122521" d="M203.34,189.694a.778.778,0,1,0,.817-.762A.794.794,0,0,0,203.34,189.694Z" transform="translate(-194.812 -184.895)" fill="#312725"/>
              <path id="Trazado_122522" data-name="Trazado 122522" d="M193.919,189.2a.778.778,0,1,0,.817-.762A.793.793,0,0,0,193.919,189.2Z" transform="translate(-192.199 -184.758)" fill="#312725"/>
              <g id="Grupo_89527" data-name="Grupo 89527" transform="translate(3.378 8.827)">
                <path id="Trazado_122523" data-name="Trazado 122523" d="M198.395,196.924a2.7,2.7,0,0,1-2.17-1.08.216.216,0,0,1,.4-.157,2.392,2.392,0,0,0,2.347.731.216.216,0,1,1,.107.418A2.74,2.74,0,0,1,198.395,196.924Z" transform="translate(-196.213 -195.56)" fill="#312725"/>
              </g>
            </g>
            <path id="Trazado_122524" data-name="Trazado 122524" d="M198.043,165.981c-1.733-.745-6.153-1.564-7.128,2.344-4.4-.336-11.4-.254-12.1,3.56-1.033,5.6,2.944,11.155,2.944,11.155l1.119.57s2.841-1.481,2.107-8.185c0,0,10.167,2.452,14.936-.128S203.245,168.218,198.043,165.981Z" transform="translate(-177.563 -165.358)" fill="#312725"/>
            <g id="Grupo_89530" data-name="Grupo 89530" transform="translate(0 15.468)">
              <path id="Trazado_122525" data-name="Trazado 122525" d="M177.162,189.763a3.25,3.25,0,0,0,2.888,3.555,3.215,3.215,0,0,0,3.446-2.986,3.249,3.249,0,0,0-2.888-3.554A3.215,3.215,0,0,0,177.162,189.763Z" transform="translate(-177.15 -186.765)" fill="#f8879d"/>
              <g id="Grupo_89529" data-name="Grupo 89529" transform="translate(1.953 1.745)">
                <path id="Trazado_122526" data-name="Trazado 122526" d="M182.094,191.815h-.018a.216.216,0,0,1-.2-.233,2.262,2.262,0,0,0-.488-1.576,1.583,1.583,0,0,0-1.306-.386.224.224,0,0,1-.232-.2.216.216,0,0,1,.2-.232,2,2,0,0,1,1.648.514,2.66,2.66,0,0,1,.61,1.915A.215.215,0,0,1,182.094,191.815Z" transform="translate(-179.852 -189.18)" fill="#312725"/>
              </g>
            </g>
            <path id="Trazado_122527" data-name="Trazado 122527" d="M182.241,212.623l14.508.954s.46,5-5.993,4.656C183.495,217.844,182.241,212.623,182.241,212.623Z" transform="translate(-178.562 -178.469)" fill="#fa849b"/>
          </g>
        </g>
        <g id="Grupo_89568" data-name="Grupo 89568" transform="translate(283.463 92.423)">
          <g id="Grupo_89545" data-name="Grupo 89545" transform="translate(66.904 65.866)">
            <g id="Grupo_89538" data-name="Grupo 89538">
              <g id="Grupo_89537" data-name="Grupo 89537" transform="translate(31.489 72.371)">
                <path id="Trazado_122528" data-name="Trazado 122528" d="M596.61,374.358l-14.3-6.668,5.16-8.037,15.549,7.555-4.56,6.361Z" transform="translate(-582.306 -359.653)" fill="#fa849b"/>
                <g id="Grupo_89536" data-name="Grupo 89536" transform="translate(6.706 4.436)">
                  <path id="Trazado_122529" data-name="Trazado 122529" d="M602.046,365.792s-1.965,8.76-8.783,8.588l-1.676,20.732,18.89-26.348Z" transform="translate(-591.586 -365.792)" fill="#181f42"/>
                  <rect id="Rectángulo_35240" data-name="Rectángulo 35240" width="32.42" height="3.062" transform="translate(21.378 4.756) rotate(125.637)" fill="#fff"/>
                  <g id="Grupo_89533" data-name="Grupo 89533" transform="translate(0.898 10.167)">
                    <path id="Trazado_122530" data-name="Trazado 122530" d="M593.389,381.553a.559.559,0,0,1-.2-1.083,12.682,12.682,0,0,1,4.076-.607.568.568,0,0,1,.567.559.559.559,0,0,1-.559.559h-.008a11.809,11.809,0,0,0-3.687.538A.553.553,0,0,1,593.389,381.553Z" transform="translate(-592.829 -379.862)" fill="#fff"/>
                  </g>
                  <g id="Grupo_89534" data-name="Grupo 89534" transform="translate(0.456 13.211)">
                    <path id="Trazado_122531" data-name="Trazado 122531" d="M592.776,385.765a.559.559,0,0,1-.2-1.083,12.674,12.674,0,0,1,4.079-.608h0a.559.559,0,1,1,0,1.118h0a11.8,11.8,0,0,0-3.69.538A.567.567,0,0,1,592.776,385.765Z" transform="translate(-592.217 -384.074)" fill="#fff"/>
                  </g>
                  <g id="Grupo_89535" data-name="Grupo 89535" transform="translate(0.013 16.254)">
                    <path id="Trazado_122532" data-name="Trazado 122532" d="M592.164,389.977a.559.559,0,0,1-.2-1.083,12.685,12.685,0,0,1,4.08-.608.576.576,0,0,1,.563.559.559.559,0,0,1-.559.559h0a11.819,11.819,0,0,0-3.691.538A.562.562,0,0,1,592.164,389.977Z" transform="translate(-591.604 -388.286)" fill="#fff"/>
                  </g>
                </g>
              </g>
              <path id="Trazado_122533" data-name="Trazado 122533" d="M551.322,259.5s-9.346,34.878-10.722,41.755-4.126,20.631,1.65,25.582,27.967,16.826,27.967,16.826l8.163-14.656-13.221-7.947Z" transform="translate(-538.728 -259.499)" fill="#243b77"/>
            </g>
            <g id="Grupo_89544" data-name="Grupo 89544" transform="translate(5.287)">
              <g id="Grupo_89543" data-name="Grupo 89543" transform="translate(0 94.916)">
                <path id="Trazado_122534" data-name="Trazado 122534" d="M572.479,406.852l-2.915-15.51,9.538-.489,2.919,17.039H574.2Z" transform="translate(-552.569 -390.853)" fill="#fa849b"/>
                <g id="Grupo_89542" data-name="Grupo 89542" transform="translate(0 10.207)">
                  <path id="Trazado_122535" data-name="Trazado 122535" d="M575.968,407.112s-8.264,3.508-12.1-2.134l-17.827,10.717h32.42Z" transform="translate(-546.045 -404.978)" fill="#181f42"/>
                  <rect id="Rectángulo_35241" data-name="Rectángulo 35241" width="32.42" height="3.062" transform="translate(32.42 13.779) rotate(180)" fill="#fff"/>
                  <g id="Grupo_89539" data-name="Grupo 89539" transform="translate(14.936 0.842)">
                    <path id="Trazado_122536" data-name="Trazado 122536" d="M570.006,410.089a.557.557,0,0,1-.455-.234,11.826,11.826,0,0,0-2.591-2.689.559.559,0,0,1,.626-.927,12.66,12.66,0,0,1,2.873,2.966.559.559,0,0,1-.453.884Z" transform="translate(-566.715 -406.143)" fill="#fff"/>
                  </g>
                  <g id="Grupo_89540" data-name="Grupo 89540" transform="translate(12.205 2.255)">
                    <path id="Trazado_122537" data-name="Trazado 122537" d="M566.226,412.045a.559.559,0,0,1-.455-.234,11.788,11.788,0,0,0-2.591-2.689.559.559,0,0,1,.627-.927,12.657,12.657,0,0,1,2.873,2.966.558.558,0,0,1-.129.78A.551.551,0,0,1,566.226,412.045Z" transform="translate(-562.934 -408.099)" fill="#fff"/>
                  </g>
                  <g id="Grupo_89541" data-name="Grupo 89541" transform="translate(9.474 3.669)">
                    <path id="Trazado_122538" data-name="Trazado 122538" d="M562.446,414a.558.558,0,0,1-.455-.234,11.8,11.8,0,0,0-2.59-2.689.559.559,0,0,1,.626-.927,12.659,12.659,0,0,1,2.873,2.966.559.559,0,0,1-.454.884Z" transform="translate(-559.155 -410.056)" fill="#fff"/>
                  </g>
                </g>
              </g>
              <path id="Trazado_122539" data-name="Trazado 122539" d="M555.8,259.5l-.928,52.617a29.111,29.111,0,0,0,.449,5.63l7.817,40.579H579.5l-4.564-45.764c.194-8.418,2.986-17.844,4.031-28.108,0,0,3.207-19.041-5.585-24.857Z" transform="translate(-548.492 -259.499)" fill="#2b4183"/>
            </g>
          </g>
          <g id="Grupo_89558" data-name="Grupo 89558" transform="translate(0 20.642)">
            <g id="Grupo_89551" data-name="Grupo 89551" transform="translate(0 0)">
              <g id="Grupo_89549" data-name="Grupo 89549">
                <g id="Grupo_89546" data-name="Grupo 89546" transform="translate(39.174 28.218)">
                  <path id="Trazado_122540" data-name="Trazado 122540" d="M530.208,245.749l-26.745-9.785-3.109,5.207,26.073,13.819a5.964,5.964,0,0,0,7.991-6.641h0C534.036,246.249,532.219,246.465,530.208,245.749Z" transform="translate(-500.354 -235.964)" fill="#fa849b"/>
                </g>
                <g id="Grupo_89548" data-name="Grupo 89548">
                  <g id="Grupo_89547" data-name="Grupo 89547" transform="translate(26.089 22.765)">
                    <path id="Trazado_122541" data-name="Trazado 122541" d="M495.153,229.9a1.989,1.989,0,0,0-1.869-.583,1.183,1.183,0,0,0-.752,1.845l.384.634c-.859.329-2.63.412-5.873-2.863a1.635,1.635,0,0,0-2-.29,1.006,1.006,0,0,0-.3,1.317c.011.022.027.043.039.066a1.486,1.486,0,0,0-1.3.137,1.006,1.006,0,0,0-.3,1.318,1.311,1.311,0,0,0,.112.186,1.285,1.285,0,0,0-.611.211,1.007,1.007,0,0,0-.306,1.318,1.477,1.477,0,0,0,.278.385c.043.043.085.082.128.124-.019.012-.041.02-.06.033a1,1,0,0,0-.3,1.317,1.463,1.463,0,0,0,.278.386,18.951,18.951,0,0,0,2.652,2.258h0l.041.027a12.55,12.55,0,0,0,1.222.746c1.874,1.088,5.883.176,9.331.731l2.691-5.078Z" transform="translate(-482.245 -228.418)" fill="#fa849b"/>
                  </g>
                  <rect id="Rectángulo_35242" data-name="Rectángulo 35242" width="32.243" height="32.243" transform="translate(42.465 12.928) rotate(113.638)" fill="#ffcd2e"/>
                  <path id="Trazado_122542" data-name="Trazado 122542" d="M498.992,229.9l-2.621-3.054a1.067,1.067,0,0,0-1.618,0h0a1.068,1.068,0,0,0-.144,1.18l1.321,2.6a7.252,7.252,0,0,0,1.56,6.61Z" transform="translate(-459.554 -205.112)" fill="#fa849b"/>
                </g>
              </g>
              <g id="Grupo_89550" data-name="Grupo 89550" transform="translate(60.67 19.589)">
                <path id="Trazado_122543" data-name="Trazado 122543" d="M550.314,246.818l-9.736,7.776a5.955,5.955,0,0,1-6.844.414h0c-3.013-1.859-4.854-3.575-2.685-6.373l10.7-10.845Z" transform="translate(-530.102 -227.841)" fill="#fa849b"/>
                <path id="Trazado_122544" data-name="Trazado 122544" d="M560.518,233.69s-1.294,6.39-8.974,12.188L539.705,234.7l9.58-10.676Z" transform="translate(-532.766 -224.022)" fill="#7041fd"/>
              </g>
            </g>
            <g id="Grupo_89556" data-name="Grupo 89556" transform="translate(87.942 15.959)">
              <g id="Grupo_89554" data-name="Grupo 89554" transform="translate(16.469 13.447)">
                <g id="Grupo_89552" data-name="Grupo 89552">
                  <path id="Trazado_122545" data-name="Trazado 122545" d="M593.127,245.9l20.587,25.969,4.66-3.086s-11.814-21.994-17.3-28.931a5.959,5.959,0,0,0-10.255,1.673h0C590.08,243.53,591.756,244.266,593.127,245.9Z" transform="translate(-590.636 -237.608)" fill="#fa849b"/>
                </g>
                <g id="Grupo_89553" data-name="Grupo 89553" transform="translate(23.078 31.177)">
                  <path id="Trazado_122546" data-name="Trazado 122546" d="M623.57,289.064a1.935,1.935,0,0,0,1.325,1.367,1.151,1.151,0,0,0,1.5-1.226l-.033-.721c.886.119,2.437.872,3.685,5.177a1.591,1.591,0,0,0,1.575,1.18.98.98,0,0,0,.874-.984c0-.024,0-.05,0-.074a1.447,1.447,0,0,0,1.174.487.979.979,0,0,0,.874-.983,1.319,1.319,0,0,0-.009-.212,1.254,1.254,0,0,0,.62.1.98.98,0,0,0,.874-.984,1.414,1.414,0,0,0-.059-.459c-.016-.056-.035-.109-.051-.165.022,0,.044,0,.067,0a.98.98,0,0,0,.874-.984,1.451,1.451,0,0,0-.059-.458,18.448,18.448,0,0,0-1.215-3.163h0l-.023-.043a12.332,12.332,0,0,0-.7-1.2c-1.094-1.8-4.943-2.887-7.631-4.965l-4.66,3.086Z" transform="translate(-622.573 -280.754)" fill="#fa849b"/>
                </g>
              </g>
              <g id="Grupo_89555" data-name="Grupo 89555">
                <path id="Trazado_122547" data-name="Trazado 122547" d="M587,226.931l9.366,8.218a5.955,5.955,0,0,1,1.611,6.665h0c-1.3,3.293-2.666,5.407-5.8,3.763l-12.557-8.621Z" transform="translate(-571.11 -221.199)" fill="#fa849b"/>
                <path id="Trazado_122548" data-name="Trazado 122548" d="M571.675,219a24.958,24.958,0,0,1,15.09,6.662l-6.379,11.864-12.542-4.351Z" transform="translate(-567.844 -218.999)" fill="#8155ff"/>
              </g>
            </g>
            <g id="Grupo_89557" data-name="Grupo 89557" transform="translate(73.808 15.959)">
              <path id="Trazado_122549" data-name="Trazado 122549" d="M556.1,219.706s-7.786,2.151-7.812,12.591c-.014,5.7,5.689,15.967,5.689,15.967l17.578.1s2.581-7.16,4.127-13.632-3.4-12.623-9.428-15.729Z" transform="translate(-548.284 -218.999)" fill="#8155ff"/>
              <path id="Trazado_122550" data-name="Trazado 122550" d="M582.553,242.737l-6.9-4.947,5.321,10.3Z" transform="translate(-555.877 -224.212)" fill="#7041fd"/>
            </g>
          </g>
          <g id="Grupo_89567" data-name="Grupo 89567" transform="translate(69.705)">
            <g id="Grupo_89562" data-name="Grupo 89562" transform="translate(1.356 9.869)">
              <g id="Grupo_89560" data-name="Grupo 89560" transform="translate(7.866 12.374)">
                <g id="Grupo_89559" data-name="Grupo 89559">
                  <path id="Trazado_122551" data-name="Trazado 122551" d="M562.492,217.538h0c2.439-.363,3.3-2,2.94-4.435l-2.71-13.974-7.355,1.177,2.052,13.476A4.463,4.463,0,0,0,562.492,217.538Z" transform="translate(-555.367 -199.128)" fill="#f8879d"/>
                </g>
                <path id="Trazado_122552" data-name="Trazado 122552" d="M561.482,202.954s2.385,7.45-3.938,9.983l-.585-4.448,6.5-4.914" transform="translate(-555.808 -200.189)" fill="#32292a"/>
              </g>
              <g id="Grupo_89561" data-name="Grupo 89561">
                <path id="Trazado_122553" data-name="Trazado 122553" d="M552.622,203.636h0c4.593-.435,8-4.111,7.613-8.21L558.964,182l-7.743.022c-2.854.27-6.78,4.055-6.539,6.6l1.351,8.334C546.315,199.941,548.761,204,552.622,203.636Z" transform="translate(-544.534 -182.004)" fill="#f8879d"/>
                <path id="Trazado_122554" data-name="Trazado 122554" d="M546.337,195.965l-1.76,4.5a.655.655,0,0,0,.677.971l3.028-.283Z" transform="translate(-544.481 -185.877)" fill="#f8879d"/>
              </g>
            </g>
            <g id="Grupo_89564" data-name="Grupo 89564" transform="translate(3.161 17.842)">
              <path id="Trazado_122555" data-name="Trazado 122555" d="M548.571,193.065s-1.651.046-1.59.735c0,0,.054.465,1.491.4s1.8-.218,1.877-.671S549.339,192.982,548.571,193.065Z" transform="translate(-546.98 -193.037)" fill="#312725"/>
              <path id="Trazado_122556" data-name="Trazado 122556" d="M548.775,197.344a.691.691,0,1,1-.785-.606A.7.7,0,0,1,548.775,197.344Z" transform="translate(-547.096 -194.062)" fill="#312725"/>
              <g id="Grupo_89563" data-name="Grupo 89563" transform="translate(0.935 6.95)">
                <path id="Trazado_122557" data-name="Trazado 122557" d="M548.49,204.435a.216.216,0,1,1,0-.431,1.726,1.726,0,0,0,1.487-1.212.216.216,0,1,1,.4.159A2.142,2.142,0,0,1,548.49,204.435Z" transform="translate(-548.274 -202.655)" fill="#312725"/>
              </g>
            </g>
            <path id="Trazado_122558" data-name="Trazado 122558" d="M563.325,217.9l4.982.8s-5.234,8.48-10.386,6.446c-5.941-2.346,1.936-6.8,1.936-6.8Z" transform="translate(-546.238 -182.092)" fill="#f8879d"/>
            <path id="Trazado_122559" data-name="Trazado 122559" d="M557.6,191.057a6.411,6.411,0,0,1-4.63-4.641l-10.3,2.033s-1.595-10.258,10.731-12.192a11.951,11.951,0,0,1,12.211,5.005,10.052,10.052,0,0,1,.792,9.751,15.787,15.787,0,0,1-6.273,6.853l-.952-5.135S558.292,191.234,557.6,191.057Z" transform="translate(-542.605 -170.489)" fill="#32292a"/>
            <g id="Grupo_89566" data-name="Grupo 89566" transform="translate(13.52 16.501)">
              <path id="Trazado_122560" data-name="Trazado 122560" d="M567.729,194.509a3.278,3.278,0,0,1-3.238,3.3,3.243,3.243,0,0,1-3.176-3.326,3.278,3.278,0,0,1,3.238-3.3A3.243,3.243,0,0,1,567.729,194.509Z" transform="translate(-561.315 -191.182)" fill="#f8879d"/>
              <g id="Grupo_89565" data-name="Grupo 89565" transform="translate(1.888 1.828)">
                <path id="Trazado_122561" data-name="Trazado 122561" d="M564.145,196.2h0a.218.218,0,0,1-.216-.22,2.689,2.689,0,0,1,.795-1.865,2.009,2.009,0,0,1,1.7-.359.218.218,0,1,1-.075.429,1.588,1.588,0,0,0-1.349.265,2.269,2.269,0,0,0-.637,1.534A.218.218,0,0,1,564.145,196.2Z" transform="translate(-563.927 -193.712)" fill="#312725"/>
              </g>
            </g>
            <path id="Trazado_122562" data-name="Trazado 122562" d="M586.774,175.022a8.008,8.008,0,1,1-9.229-6.563A8.008,8.008,0,0,1,586.774,175.022Z" transform="translate(-550.445 -168.347)" fill="#32292a"/>
          </g>
        </g>
        <g id="Grupo_89569" data-name="Grupo 89569" transform="translate(0 277.17)">
          <rect id="Rectángulo_35243" data-name="Rectángulo 35243" width="459.741" height="0.546" fill="#281f27"/>
        </g>
      </g>
    </g>
  </g>
</svg>
