<svg xmlns="http://www.w3.org/2000/svg" xmlns:xlink="http://www.w3.org/1999/xlink" width="54" height="54" viewBox="0 0 54 54">
  <defs>
    <clipPath id="clip-path">
      <rect id="Rectángulo_35846" data-name="Rectángulo 35846" width="54" height="54" transform="translate(-2659 2688)" fill="#fff" stroke="#707070" stroke-width="1"/>
    </clipPath>
  </defs>
  <g id="_122" data-name="122" transform="translate(2659 -2688)" clip-path="url(#clip-path)">
    <g id="layer2" transform="translate(-2660.8 2686.2)">
      <path id="path5012" d="M15.3,41.4h9A5.388,5.388,0,0,0,29.7,36V8.1a5.388,5.388,0,0,0-5.4-5.4H11.7A5.388,5.388,0,0,0,6.3,8.1V41.4Z" fill="#38668c"/>
      <path id="path5014" d="M9.773,27.281A1.5,1.5,0,0,0,8.1,28.8V41.4h8.942c-.448-3.72-3.542-4.628-3.542-6.3V31.5a4.061,4.061,0,0,0-3.727-4.219Z" fill="#2c5170"/>
      <path id="path5016" d="M24.3,37.8A1.8,1.8,0,0,0,26.1,36V8.1a1.8,1.8,0,0,0-1.8-1.8H21.6l-.945.9H15.235L14.4,6.3H11.7A1.8,1.8,0,0,0,9.9,8.1V37.8Z" fill="#e4eff8"/>
      <path id="path5018" d="M11.7,6.3A1.8,1.8,0,0,0,9.9,8.1V37.8h1.8V9.9a1.8,1.8,0,0,1,1.8-1.8h.946l.835.9H20.7l.946-.9H26.1a1.8,1.8,0,0,0-1.8-1.8H21.6l-.946.9H15.235L14.4,6.3Z" fill="#c4dcf0"/>
      <path id="path5020" d="M11.7,2.7A5.388,5.388,0,0,0,6.3,8.1V28.8c0-1.057.81-1.555,1.8-1.508V8.1a5.388,5.388,0,0,1,5.4-5.4Z" fill="#f8f8f8"/>
      <path id="path5022" d="M22.5,2.7a5.388,5.388,0,0,1,5.4,5.4V36a5.388,5.388,0,0,1-5.4,5.4h1.8A5.388,5.388,0,0,0,29.7,36V8.1a5.388,5.388,0,0,0-5.4-5.4Z" fill="#2c5170"/>
      <path id="rect5024" d="M5.4,49.5H18.9a1.8,1.8,0,0,1,1.8,1.8v1.8a1.8,1.8,0,0,1-1.8,1.8H5.4a1.8,1.8,0,0,1-1.8-1.8V51.3a1.8,1.8,0,0,1,1.8-1.8Z" fill="#38668c"/>
      <path id="path5026" d="M16.2,49.5A1.8,1.8,0,0,1,18,51.3v1.8a1.8,1.8,0,0,1-1.8,1.8h2.7a1.8,1.8,0,0,0,1.8-1.8V51.3a1.8,1.8,0,0,0-1.8-1.8Z" fill="#2c5170"/>
      <path id="path5028" d="M15.3,42.3c-.01-4.491-3.6-5.4-3.6-7.2V31.5c-.136-4.5-5.4-5.4-5.4-2.7V42.3Z" fill="#ffc6a0"/>
      <path id="path5030" d="M20.7,41.4h-9A5.388,5.388,0,0,1,6.3,36V23.79H6.265A4.509,4.509,0,0,0,2.7,28.49v7.657C2.7,38.7,5.4,44.1,5.4,45.9v3.6H19.06c0-1.8,1.93-4.5,1.93-8.128Z" fill="#ffc6a0"/>
      <path id="path5032" d="M2.7,28.491v7.657C2.7,38.7,5.4,44.1,5.4,45.9v3.6H7.2V45.9c0-1.8-2.7-7.2-2.7-9.752V28.491a4.88,4.88,0,0,1,1.8-3.943l-.017-.758a4.508,4.508,0,0,0-3.582,4.7Z" fill="#f8f8f8"/>
      <path id="path5036" d="M20.99,41.372l-.29.027H18.288c-.01,3.613-1.928,6.3-1.928,8.1h2.7c0-1.8,1.93-4.5,1.93-8.128Z" fill="#ffaf7a"/>
      <path id="circle5038" d="M54.9,4.5a1.8,1.8,0,1,1-1.8-1.8,1.8,1.8,0,0,1,1.8,1.8Z" fill="#ff5151"/>
      <path id="path5041" d="M45,6.3a3.592,3.592,0,0,0-3.6,3.6V31.575a7.2,7.2,0,1,0,7.2,0V9.9A3.592,3.592,0,0,0,45,6.3Z" fill="#e4eff8"/>
      <path id="path5044" d="M45,6.3a3.592,3.592,0,0,0-3.6,3.6V31.575A7.193,7.193,0,0,0,45,45a7.079,7.079,0,0,0,.9-.062,7.189,7.189,0,0,1-2.7-13.363V9.9a3.583,3.583,0,0,1,2.7-3.475A3.6,3.6,0,0,0,45,6.3Z" fill="#f8f8f8"/>
      <path id="path5046" d="M45,6.3a3.6,3.6,0,0,0-1.35.264A3.589,3.589,0,0,1,45.9,9.9V31.572a7.193,7.193,0,0,1-2.25,13.3,7.195,7.195,0,0,0,4.95-13.3V9.9A3.592,3.592,0,0,0,45,6.3Z" fill="#c4dcf0"/>
      <path id="path5048" d="M47.7,37.8A2.7,2.7,0,1,1,45,35.1,2.7,2.7,0,0,1,47.7,37.8Z" fill="#ff5151"/>
      <path id="path5050" d="M45,35.1a2.68,2.68,0,0,1,.9.165,2.685,2.685,0,0,0,0,5.07A2.7,2.7,0,1,1,45,35.1Z" fill="#f8f8f8"/>
      <path id="path5053" d="M5.4,49.5a1.8,1.8,0,0,0-1.8,1.8v1.8a1.8,1.8,0,0,0,1.8,1.8H7.2a1.8,1.8,0,0,1-1.8-1.8V51.3a1.8,1.8,0,0,1,1.8-1.8Z" fill="#f8f8f8"/>
      <path id="path5055" d="M9.9,27.292V37.8h5.483c-.927-1.07-1.883-1.771-1.883-2.7V31.5A4.076,4.076,0,0,0,9.9,27.292Z" fill="#c4dcf0"/>
      <path id="path5058" d="M15.3,41.354a.831.831,0,0,0-.135-.434C14.521,37.6,11.7,36.7,11.7,35.1V31.5a4.061,4.061,0,0,0-3.727-4.219,1.812,1.812,0,0,0-1.2.4A4.3,4.3,0,0,1,9,31.5v3.6c.952,4.92,3.447,2.97,3.6,7.246a.852.852,0,0,0,.854.854H15.3Z" fill="#ffaf7a"/>
      <path id="path5060" d="M45,35.1a2.68,2.68,0,0,0-.9.165,2.685,2.685,0,0,1,0,5.07A2.7,2.7,0,1,0,45,35.1Z" fill="#ff2929"/>
      <path id="path6715" d="M11.7,1.8A6.291,6.291,0,0,0,5.4,8.1l0,14.989A4.959,4.959,0,0,0,2.67,25.246a6.265,6.265,0,0,0-.87,3.243v7.659a19.458,19.458,0,0,0,1.4,5.462c.339.951.672,1.869.916,2.638A6.6,6.6,0,0,1,4.5,45.9v2.851A2.7,2.7,0,0,0,2.7,51.3v1.8a2.694,2.694,0,0,0,2.7,2.7H18.9a2.7,2.7,0,0,0,2.7-2.7V51.3a2.687,2.687,0,0,0-1.552-2.449c.156-.652.491-1.494.826-2.429A16.08,16.08,0,0,0,21.85,42.3H24.3A6.291,6.291,0,0,0,30.6,36c0-9.11,0-19.455,0-27.9a6.291,6.291,0,0,0-6.3-6.3Zm41.4,0a2.7,2.7,0,1,0,2.7,2.7,2.7,2.7,0,0,0-2.7-2.7Zm0,1.8a.9.9,0,1,1-.9.9A.9.9,0,0,1,53.1,3.6Zm-28.8,0a4.481,4.481,0,0,1,4.5,4.5c0,9.8,0,18.453,0,27.9a4.481,4.481,0,0,1-4.5,4.5H16a7.022,7.022,0,0,0-.68-1.8H24.3A2.694,2.694,0,0,0,27,36c0-9.11,0-19.455,0-27.9a2.694,2.694,0,0,0-2.7-2.7H21.6a.9.9,0,0,0-.664.286l-.564.612h-4.75l-.564-.612A.9.9,0,0,0,14.4,5.4H11.7A2.694,2.694,0,0,0,9,8.1L9,26.524a3.913,3.913,0,0,0-1.028-.143,3.162,3.162,0,0,0-.768.093L7.2,8.1a4.481,4.481,0,0,1,4.5-4.5ZM40.5,9.9V31.069a8.1,8.1,0,1,0,9,0V9.9a4.5,4.5,0,0,0-9,0ZM14,7.2l.571.613a.9.9,0,0,0,.657.285h5.534a.9.9,0,0,0,.657-.285L22,7.2h2.3a.891.891,0,0,1,.9.9c0,9.084,0,19.3,0,27.9a.891.891,0,0,1-.9.9H13.994c-.4-.435-.8-.825-1.039-1.116A1.16,1.16,0,0,1,12.6,35.1V31.5a5.327,5.327,0,0,0-1.8-4l0-19.4a.891.891,0,0,1,.9-.9Zm31,0a2.691,2.691,0,0,1,2.7,2.7V31.57a.9.9,0,0,0,.445.779,6.3,6.3,0,1,1-6.286,0,.9.9,0,0,0,.445-.779V9.9A2.691,2.691,0,0,1,45,7.2ZM34.2,9.9a.9.9,0,1,0,0,1.8h3.6a.9.9,0,1,0,0-1.8Zm-13.5.9a.865.865,0,0,0-.9.9v.9H13.5a.9.9,0,1,0,0,1.8h6.3v.9a.9.9,0,0,0,1.8,0v-.9h.9a.9.9,0,1,0,0-1.8h-.9v-.9a.864.864,0,0,0-.9-.9Zm24.3.9a.865.865,0,0,0-.9.9V34.325a3.6,3.6,0,1,0,1.8,0V12.6a.864.864,0,0,0-.9-.9Zm-9.051,2.7a.9.9,0,0,0,0,1.8H37.8a.9.9,0,1,0,0-1.8ZM15.3,17.1a.865.865,0,0,0-.9.9v.9h-.9a.9.9,0,1,0,0,1.8h.9v.9a.9.9,0,1,0,1.8,0v-.9h6.3a.9.9,0,1,0,0-1.8H16.2V18a.864.864,0,0,0-.9-.9Zm18.9,1.8a.9.9,0,1,0,0,1.8h3.6a.9.9,0,1,0,0-1.8ZM20.7,23.4a.864.864,0,0,0-.9.9v.9H13.5a.9.9,0,1,0,0,1.8h6.3v.9a.9.9,0,0,0,1.8,0V27h.9a.9.9,0,1,0,0-1.8h-.9v-.9a.864.864,0,0,0-.9-.9Zm15.249,0a.9.9,0,1,0,0,1.8H37.8a.9.9,0,1,0,0-1.8ZM5.4,29.7V36a.9.9,0,1,0,1.8,0V28.8a.5.5,0,0,1,.292-.531,1.666,1.666,0,0,1,1.171.034A3.329,3.329,0,0,1,10.8,31.525V35.1a2.885,2.885,0,0,0,.766,1.828c.393.476.838.891,1.255,1.361A5.648,5.648,0,0,1,14.4,42.3a.9.9,0,1,0,1.8,0h3.846a14.687,14.687,0,0,1-.868,3.521A25.079,25.079,0,0,0,18.26,48.6H6.3V45.9a7.642,7.642,0,0,0-.468-2.2c-.262-.829-.6-1.756-.935-2.7a18.614,18.614,0,0,1-1.3-4.857V28.489a4.6,4.6,0,0,1,.6-2.306,3.106,3.106,0,0,1,1.2-1.145Zm28.8-1.8a.9.9,0,1,0,0,1.8h3.6a.9.9,0,1,0,0-1.8ZM45,36a1.8,1.8,0,1,1-1.8,1.8A1.8,1.8,0,0,1,45,36ZM5.4,50.4H18.9a.9.9,0,0,1,.9.905v1.8a.894.894,0,0,1-.9.9H5.4a.894.894,0,0,1-.9-.9V51.3a.9.9,0,0,1,.9-.905Z"/>
    </g>
  </g>
</svg>
