<svg xmlns="http://www.w3.org/2000/svg" xmlns:xlink="http://www.w3.org/1999/xlink" width="54" height="54" viewBox="0 0 54 54">
  <defs>
    <clipPath id="clip-path">
      <rect id="Rectángulo_35855" data-name="Rectángulo 35855" width="54" height="54" transform="translate(-2659 4251)" fill="#fff" stroke="#707070" stroke-width="1"/>
    </clipPath>
  </defs>
  <g id="_129" data-name="129" transform="translate(2659 -4251)" clip-path="url(#clip-path)">
    <g id="actriz" transform="translate(-2659 4251)">
      <g id="Grupo_93573" data-name="Grupo 93573">
        <path id="Trazado_128049" data-name="Trazado 128049" d="M34.686,35.6H19.314a6.709,6.709,0,0,1-6.709-6.709v-13.7a14.395,14.395,0,0,1,28.789,0v13.7A6.709,6.709,0,0,1,34.686,35.6Z" fill="#685e68"/>
        <path id="Trazado_128050" data-name="Trazado 128050" d="M27,.791a14.541,14.541,0,0,0-1.582.087A14.4,14.4,0,0,1,38.231,15.186v13.7A6.709,6.709,0,0,1,31.521,35.6h3.164a6.709,6.709,0,0,0,6.709-6.709v-13.7A14.4,14.4,0,0,0,27,.791Z" fill="#554e56"/>
        <path id="Trazado_128051" data-name="Trazado 128051" d="M39.046,20.262h-.832v-4.7h.832a2.349,2.349,0,0,1,0,4.7Z" fill="#ffcebf"/>
        <path id="Trazado_128052" data-name="Trazado 128052" d="M14.954,20.262h.832v-4.7h-.832a2.349,2.349,0,1,0,0,4.7Z" fill="#ffb09e"/>
        <g id="Grupo_93568" data-name="Grupo 93568">
          <path id="Trazado_128053" data-name="Trazado 128053" d="M48.18,52.945v-8.3A8.437,8.437,0,0,0,42.2,36.57L33.189,33.83a2.109,2.109,0,0,1-1.5-2.018V28.424H22.307v3.388a2.109,2.109,0,0,1-1.5,2.018L11.8,36.57A8.437,8.437,0,0,0,5.82,44.642v8.3A1.055,1.055,0,0,0,6.875,54H47.125a1.055,1.055,0,0,0,1.055-1.055Z" fill="#ffcebf"/>
        </g>
        <g id="Grupo_93569" data-name="Grupo 93569">
          <path id="Trazado_128054" data-name="Trazado 128054" d="M42.2,36.57l-9.009-2.74a2.109,2.109,0,0,1-1.5-2.018V28.424l-3.164,1.582v3.388a2.109,2.109,0,0,0,1.5,2.018l9.009,2.741a8.437,8.437,0,0,1,5.982,8.072V54h2.109a1.055,1.055,0,0,0,1.055-1.055v-8.3A8.437,8.437,0,0,0,42.2,36.57Z" fill="#ffb09e"/>
        </g>
        <g id="Grupo_93571" data-name="Grupo 93571">
          <g id="Grupo_93570" data-name="Grupo 93570">
            <path id="Trazado_128055" data-name="Trazado 128055" d="M38.214,15.565v4.519a11.214,11.214,0,1,1-22.428-.122v-4.4a20.585,20.585,0,0,0,7.3-1.934,20.347,20.347,0,0,0,3.568-2.179.632.632,0,0,1,.721-.033,29.589,29.589,0,0,0,4.44,2.3,29.615,29.615,0,0,0,6.4,1.845Z" fill="#ffcebf"/>
          </g>
          <path id="Trazado_128056" data-name="Trazado 128056" d="M35.05,20.084a11.269,11.269,0,0,1-2.773,7.382c-3.41,3.709-9.2,2.909-9.971,2.791a11.245,11.245,0,0,0,3.878,1.011s.405.029.776.03A11.214,11.214,0,0,0,38.214,20.084V15.565a29.68,29.68,0,0,1-3.145-.711c-.138,1.975-.019,3.231-.019,5.23Z" fill="#ffb09e"/>
        </g>
        <circle id="Elipse_4944" data-name="Elipse 4944" cx="1.846" cy="1.846" r="1.846" transform="translate(25.154 40.869)" fill="#f58a97"/>
        <path id="Trazado_128057" data-name="Trazado 128057" d="M27,40.869a1.835,1.835,0,0,0-.923.249,1.843,1.843,0,0,1,0,3.194A1.845,1.845,0,1,0,27,40.869Z" fill="#f07281"/>
        <path id="Trazado_128058" data-name="Trazado 128058" d="M40.711,54V52.706a7.518,7.518,0,0,0-1.779-4.837,1.174,1.174,0,0,1-.28-.755V35.491l-3.164-.963v10.6a.317.317,0,0,1-.4.305,7.123,7.123,0,0,0-1.763-.221,7.368,7.368,0,0,0-5.751,2.756.74.74,0,0,1-1.151,0,7.367,7.367,0,0,0-5.751-2.756,7.123,7.123,0,0,0-1.763.221.317.317,0,0,1-.4-.305v-10.6l-3.164.963V47.114a1.173,1.173,0,0,1-.28.755,7.518,7.518,0,0,0-1.779,4.837V54Z" fill="#f58a97"/>
        <g id="Grupo_93572" data-name="Grupo 93572">
          <path id="Trazado_128059" data-name="Trazado 128059" d="M38.932,47.869a1.174,1.174,0,0,1-.28-.755V35.491l-3.164-.963v.626l1.106.336V47.114a1.174,1.174,0,0,0,.28.755,7.518,7.518,0,0,1,1.779,4.837V54h2.058V52.706A7.519,7.519,0,0,0,38.932,47.869Z" fill="#f07281"/>
        </g>
        <path id="Trazado_128060" data-name="Trazado 128060" d="M35.488,37.073l3.164.963V35.491l-1.645-.5-1.519-.462Z" fill="#f07281"/>
      </g>
      <path id="Trazado_128061" data-name="Trazado 128061" d="M15.348,43.585a.791.791,0,0,0-.791.791v2.738a.385.385,0,0,1-.094.246A8.327,8.327,0,0,0,12.5,52.706v.5a.791.791,0,1,0,1.582,0v-.5a6.743,6.743,0,0,1,1.593-4.328,1.969,1.969,0,0,0,.465-1.264V44.376a.791.791,0,0,0-.791-.791Zm31.809-4.437a9.165,9.165,0,0,0-4.729-3.334l-3.184-.969a7.484,7.484,0,0,0,2.941-5.958V17.926s0-.008,0-.012,0-.008,0-.012V15.185A15.174,15.174,0,0,0,40.1,7.5a.791.791,0,1,0-1.364.8,13.591,13.591,0,0,1,1.866,6.88v0a3.12,3.12,0,0,0-1.558-.415h-.76a28.871,28.871,0,0,1-6.17-1.784,28.869,28.869,0,0,1-4.321-2.239,1.43,1.43,0,0,0-1.622.073,19.6,19.6,0,0,1-3.43,2.094,19.707,19.707,0,0,1-6.99,1.857h-.8a3.12,3.12,0,0,0-1.558.415v0A13.6,13.6,0,0,1,36.619,5.567a.791.791,0,0,0,1.119-1.119A15.185,15.185,0,0,0,11.815,15.185V17.9s0,.008,0,.012,0,.008,0,.012V28.887a7.484,7.484,0,0,0,2.941,5.958l-3.184.969a9.229,9.229,0,0,0-6.543,8.829v8.566a.791.791,0,0,0,1.582,0V44.643a7.6,7.6,0,0,1,5.421-7.316l2.525-.768v4.126a.791.791,0,0,0,1.582,0V36.078c.309-.157,1.245-.351,1.582-.481v9.532A1.108,1.108,0,0,0,19.106,46.2a6.348,6.348,0,0,1,1.566-.2h0a6.566,6.566,0,0,1,5.135,2.461,1.531,1.531,0,0,0,2.383,0A6.566,6.566,0,0,1,33.327,46h0a6.349,6.349,0,0,1,1.566.2,1.108,1.108,0,0,0,1.385-1.072V35.6c.149-.019,1.372.451,1.582.481V47.114a1.969,1.969,0,0,0,.465,1.264,6.743,6.743,0,0,1,1.593,4.328v.5a.791.791,0,0,0,1.582,0v-.5a8.327,8.327,0,0,0-1.964-5.347.385.385,0,0,1-.094-.246V36.559l2.525.768a7.6,7.6,0,0,1,5.421,7.316v8.566a.791.791,0,1,0,1.582,0V44.643a9.164,9.164,0,0,0-1.814-5.495ZM39.005,16.356a1.562,1.562,0,0,1,1.6,1.552v.012a1.562,1.562,0,0,1-1.6,1.552Zm-22.428-.07a21.238,21.238,0,0,0,6.846-1.941,21.191,21.191,0,0,0,3.621-2.2,30.464,30.464,0,0,0,4.465,2.3,30.44,30.44,0,0,0,5.914,1.775v3.859A10.423,10.423,0,0,1,27,30.507h-.037A10.5,10.5,0,0,1,16.577,19.962V16.286ZM27,37.6a7.266,7.266,0,0,1-5.91-3.031A2.882,2.882,0,0,0,23.1,31.811V31.43a11.824,11.824,0,0,0,3.86.659H27a12.021,12.021,0,0,0,3.9-.646v.369a2.882,2.882,0,0,0,2.007,2.757A7.266,7.266,0,0,1,27,37.6Zm1.055,5.115A1.055,1.055,0,1,1,27,41.66,1.056,1.056,0,0,1,28.055,42.715ZM13.4,17.907a1.562,1.562,0,0,1,1.6-1.552v3.116a1.562,1.562,0,0,1-1.6-1.552Zm3.375,16.324A5.906,5.906,0,0,1,13.4,28.887V20.638a3.12,3.12,0,0,0,1.558.415h.09a12.164,12.164,0,0,0,6.471,9.692v1.066a1.311,1.311,0,0,1-.935,1.261ZM34.7,44.541a7.928,7.928,0,0,0-1.369-.119h0a8.14,8.14,0,0,0-6.326,3,8.14,8.14,0,0,0-6.326-3h0a7.929,7.929,0,0,0-1.369.119V35.115l.207-.063a8.844,8.844,0,0,0,6.7,4.093V40.2a2.637,2.637,0,1,0,1.582,0V39.145a8.844,8.844,0,0,0,6.7-4.093l.207.063Zm2.532-10.31-3.81-1.159a1.311,1.311,0,0,1-.935-1.261V30.769a12.037,12.037,0,0,0,2.99-2.181,11.913,11.913,0,0,0,3.492-7.534,3.2,3.2,0,0,0,1.637-.415v8.249a5.907,5.907,0,0,1-3.375,5.345ZM21.885,20.393a.791.791,0,0,0,.791-.791v-1.81a.791.791,0,0,0-1.582,0V19.6A.791.791,0,0,0,21.885,20.393Zm3.076,5.414A3.563,3.563,0,0,0,27,26.459a3.783,3.783,0,0,0,2.039-.653.791.791,0,1,0-.916-1.29,1.93,1.93,0,0,1-2.247,0,.791.791,0,1,0-.915,1.291Zm7.153-5.414a.791.791,0,0,0,.791-.791v-1.81a.791.791,0,1,0-1.582,0V19.6A.791.791,0,0,0,32.115,20.393Z"/>
    </g>
  </g>
</svg>
