<svg xmlns="http://www.w3.org/2000/svg" xmlns:xlink="http://www.w3.org/1999/xlink" width="68" height="68" viewBox="0 0 68 68">
  <defs>
    <clipPath id="clip-path">
      <rect id="Rectángulo_35363" data-name="Rectángulo 35363" width="68" height="68" transform="translate(-6564 -9661)" fill="#fff"/>
    </clipPath>
  </defs>
  <g id="Enmascarar_grupo_105" data-name="Enmascarar grupo 105" transform="translate(6564 9661)" clip-path="url(#clip-path)">
    <g id="beach_chair" data-name="beach chair" transform="translate(-6568.856 -9665.988)">
      <path id="Trazado_125376" data-name="Trazado 125376" d="M71.629,70.415H67.987a4.856,4.856,0,0,0,2.428-9.069l-3.29-1.858A1.218,1.218,0,1,0,65.911,61.6l3.205,1.833a2.436,2.436,0,1,1-2.428,4.225c-13.755-7.94-11.57-6.957-13.27-6.957-29.829,0-29.234.413-32.525-1.469a11.084,11.084,0,0,1-2.768-2.173A1.217,1.217,0,1,0,16.3,58.675a13.44,13.44,0,0,0,7.976,4.261v7.479H6.07a1.214,1.214,0,0,0,0,2.428H71.629a1.214,1.214,0,0,0,0-2.428Zm-3.776,0H54.632V63.507C66.263,70.221,66.142,70.415,67.854,70.415ZM38.024,63.131l1.955,7.284H31.565V63.131ZM42.492,70.2l-1.955-7.066h6.811v7.284C41.727,70.415,42.492,70.512,42.492,70.2Zm-15.783.219V63.131h2.428v7.284Zm23.067,0V63.131H52.2v7.284Z" fill="#fff"/>
      <path id="Trazado_125377" data-name="Trazado 125377" d="M6,31.723c.68.51-.7.668,22.144-5.451l7.284,27.146H27a4.856,4.856,0,0,1-4.2-2.428l-7.673-13.27a4.857,4.857,0,1,0-8.413,4.856l6.8,11.776a1.218,1.218,0,0,0,2.112-1.214c-7.43-12.869-7.394-12.3-7.042-13.61a2.428,2.428,0,0,1,4.443-.595L20.639,52.2a7.284,7.284,0,0,0,6.313,3.642c33.1,0,26.928-1.214,34.722,3.339a1.218,1.218,0,1,0,1.214-2.112c-7.976-4.589-3.788-3.642-25-3.642l-7.406-27.79L41.739,22.63a1.219,1.219,0,1,0-.631-2.355l-3.144.85c-2.173-5.621-5.245-10.926-8.5-13.5A22.351,22.351,0,0,1,49.5,18.041l-3.642.983a1.224,1.224,0,0,0,.316,2.428,49.777,49.777,0,0,0,5.512-1.433,1.214,1.214,0,0,0,.68-1.809,24.912,24.912,0,0,0-38.607-6.665,1.216,1.216,0,1,0,1.627,1.809,22.084,22.084,0,0,1,4.686-3.242c-1.542,3.934-1.566,10-.643,15.965L7.952,29.137A22.387,22.387,0,0,1,9.81,21.064a1.214,1.214,0,0,0-1.032-1.857H8.535a1.214,1.214,0,0,0-.874.692A24.912,24.912,0,0,0,5.512,30.74,1.214,1.214,0,0,0,6,31.723Zm29.611-9.967L21.78,25.5c-1.505-9.858.194-16.39,2.829-17.094a1.955,1.955,0,0,1,.534-.073C27.85,8.292,32.221,13.063,35.608,21.756Z" fill="#fff"/>
      <path id="Trazado_125378" data-name="Trazado 125378" d="M12.2,16.912a2.149,2.149,0,0,1,.146-.206c.935-1.214-.971-3.047-2.21-1.081A1.216,1.216,0,1,0,12.2,16.912Z" fill="#fff"/>
    </g>
  </g>
</svg>
