<svg xmlns="http://www.w3.org/2000/svg" xmlns:xlink="http://www.w3.org/1999/xlink" width="54" height="54" viewBox="0 0 54 54">
  <defs>
    <clipPath id="clip-path">
      <rect id="Rectángulo_35856" data-name="Rectángulo 35856" width="54" height="54" transform="translate(-2659 4383)" fill="#fff" stroke="#707070" stroke-width="1"/>
    </clipPath>
  </defs>
  <g id="_130" data-name="130" transform="translate(2659 -4383)" clip-path="url(#clip-path)">
    <g id="gatito" transform="translate(-2659 4383)">
      <path id="Trazado_128062" data-name="Trazado 128062" d="M14.006,29.991c.731-2.009.525-4.554-3.182-6.353a8.845,8.845,0,0,0-9.354.8,1.692,1.692,0,0,0-.634,1.743,8.845,8.845,0,0,0,6.649,6.628C11.48,33.817,13.274,32,14.006,29.991Z" fill="#eda751"/>
      <path id="Trazado_128063" data-name="Trazado 128063" d="M.942,26.585a8.836,8.836,0,0,0,6.543,6.228c3.463.871,5.272-.379,6.168-2.035C8.951,24.84,3.781,25.53.942,26.585Z" fill="#ff91ab"/>
      <path id="Trazado_128064" data-name="Trazado 128064" d="M22.829,24.9c-2.106-.371-4.206-1.823-3.911-5.932a8.845,8.845,0,0,1,5.373-7.7,1.693,1.693,0,0,1,1.826.322,8.845,8.845,0,0,1,2.416,9.072C27.405,24.623,24.935,25.268,22.829,24.9Z" fill="#eda751"/>
      <path id="Trazado_128065" data-name="Trazado 128065" d="M26.411,11.88a8.836,8.836,0,0,1,2.122,8.78c-.977,3.434-2.964,4.376-4.847,4.324C20.9,17.943,24.078,13.811,26.411,11.88Z" fill="#ff91ab"/>
      <path id="Trazado_128066" data-name="Trazado 128066" d="M31.8,22.115c3.258,5.643-.841,11.3-7.657,15.24s-13.769,4.654-17.027-.989-.374-13.408,6.443-17.343S28.539,16.472,31.8,22.115Z" fill="#ffdc9c"/>
      <path id="Trazado_128067" data-name="Trazado 128067" d="M7.876,24.405c-2.411,3.806-2.863,8.324-.764,11.961,2.8,4.851,8.332,5,14.159,2.447C10.7,38.657,8.078,31.749,7.876,24.405Z" fill="#c17a00" opacity="0.15"/>
      <g id="Grupo_93574" data-name="Grupo 93574">
        <ellipse id="Elipse_4945" data-name="Elipse 4945" cx="2.055" cy="2.58" rx="2.055" ry="2.58" transform="translate(12.328 36.045) rotate(-120.001)" fill="#ff91ab"/>
        <ellipse id="Elipse_4946" data-name="Elipse 4946" cx="2.055" cy="2.58" rx="2.055" ry="2.58" transform="translate(26.856 22.912) rotate(59.999)" fill="#ff91ab"/>
      </g>
      <path id="Trazado_128068" data-name="Trazado 128068" d="M39.448,26.6c15.917,1.089,15.334,9.316,11.489,13.447a7.308,7.308,0,0,1-3.858,2.15c-7.6,1.595-20.835-.024-24.382-.964,0,0-.29-3.975,4.681-8.8C32.853,27.11,35.983,26.53,39.448,26.6Z" fill="#7694e4"/>
      <path id="Trazado_128069" data-name="Trazado 128069" d="M17.112,39.675C19.859,36.09,28.035,26.28,34.835,24.6a4.481,4.481,0,0,1,2.075-.032,5.484,5.484,0,0,1,2.007.871,1.149,1.149,0,0,1-.01,1.879A124.877,124.877,0,0,0,23.672,40.793a2,2,0,0,1-.992.636,9.817,9.817,0,0,1-4.959.072A1.16,1.16,0,0,1,17.112,39.675Z" fill="#82c7e6"/>
      <path id="Trazado_128070" data-name="Trazado 128070" d="M43.42,14.535h2.814L43.18,16.945a1.133,1.133,0,0,0,.7,2.022h4.107a.791.791,0,0,0,0-1.582H45.175l3.054-2.411a1.133,1.133,0,0,0-.7-2.022H43.42a.791.791,0,0,0,0,1.582Zm-7.754,3.339H38.48l-3.054,2.411a1.133,1.133,0,0,0,.7,2.022h4.107a.791.791,0,0,0,0-1.582H37.422l3.054-2.411a1.133,1.133,0,0,0-.7-2.022H35.666a.791.791,0,0,0,0,1.582ZM14.69,28.75a.791.791,0,0,0-1.06.359.995.995,0,0,1-.886.511.791.791,0,1,0-.1,1.579q.075,0,.15,0a2.581,2.581,0,0,0,2.256-1.394A.791.791,0,0,0,14.69,28.75ZM22.3,25.715a2.581,2.581,0,0,0,2.256-1.394.791.791,0,0,0-1.418-.7,1,1,0,0,1-.886.511.791.791,0,1,0-.1,1.579Q22.226,25.715,22.3,25.715Zm-2.654,3.859a.773.773,0,1,0-1.056-.283A.773.773,0,0,0,19.647,29.574ZM25.978,26.1a.788.788,0,0,0,.481-.164A10.911,10.911,0,0,1,28.9,24.716a.791.791,0,1,0-.435-1.521A12.251,12.251,0,0,0,25.5,24.677a.791.791,0,0,0,.482,1.418ZM13.641,33.764a12.251,12.251,0,0,0-1.861,2.744.791.791,0,1,0,1.45.632,10.909,10.909,0,0,1,1.527-2.255.791.791,0,0,0-1.116-1.121ZM51.773,29.8a.791.791,0,0,0-1.086,1.15,5.056,5.056,0,0,1,1.7,4.362,7.519,7.519,0,0,1-2.03,4.2,6.479,6.479,0,0,1-3.441,1.914c-6.6,1.384-17.409.288-22.236-.578A127.861,127.861,0,0,1,39.359,27.968a1.937,1.937,0,0,0,.521-.54A25.5,25.5,0,0,1,47.8,29.134a.791.791,0,0,0,.625-1.453,26.878,26.878,0,0,0-8.3-1.822,1.951,1.951,0,0,0-.741-1.062,6.238,6.238,0,0,0-2.292-1,5.3,5.3,0,0,0-2.441.035,11.735,11.735,0,0,0-1.159.353,9.421,9.421,0,0,0-1.005-2.467,10.782,10.782,0,0,0-2.792-3.176,9.576,9.576,0,0,0-3.03-7.53,2.479,2.479,0,0,0-2.681-.473,9.6,9.6,0,0,0-5.326,5.736A17.857,17.857,0,0,0,8.634,22.065,9.6,9.6,0,0,0,1,23.808a2.479,2.479,0,0,0-.931,2.558,9.577,9.577,0,0,0,5.01,6.391,10.868,10.868,0,0,0,.7,2.66.791.791,0,1,0,1.467-.592,9.37,9.37,0,0,1-.632-2.586.787.787,0,0,0-.014-.153,11.257,11.257,0,0,1,1.018-5.537.789.789,0,0,0,.082-.18A14.118,14.118,0,0,1,9.5,23.487a.8.8,0,0,0,.073-.09,16.266,16.266,0,0,1,9.746-5.633.785.785,0,0,0,.137-.022,13.8,13.8,0,0,1,4.419.015,11.047,11.047,0,0,1,4.48,1.775.78.78,0,0,0,.1.07,9.228,9.228,0,0,1,2.654,2.908,7.722,7.722,0,0,1,.894,2.305,21.652,21.652,0,0,0-2.449,1.41,12.292,12.292,0,0,0-3.277.242.791.791,0,1,0,.413,1.527,4.774,4.774,0,0,1,.582-.107q-1.627,1.293-3.369,2.965a78.006,78.006,0,0,0-7.422,8.341h0a1.963,1.963,0,0,0-.2.317c-3.079.48-5.519-.161-7.256-1.91a.791.791,0,0,0-1.122,1.115,8.88,8.88,0,0,0,6.522,2.526,13.518,13.518,0,0,0,1.793-.125,1.933,1.933,0,0,0,1.292,1.147,9.6,9.6,0,0,0,2.48.311,11.146,11.146,0,0,0,2.892-.383c.06-.016.12-.035.179-.056A77.952,77.952,0,0,0,33.69,43.481c1.576.1,3.418.182,5.33.182a41.741,41.741,0,0,0,8.221-.69,8.052,8.052,0,0,0,4.275-2.385,9,9,0,0,0,2.446-5.115A6.648,6.648,0,0,0,51.773,29.8ZM4.986,30.881a7.984,7.984,0,0,1-3.04-3.8,9.7,9.7,0,0,1,3.883-.345A13.011,13.011,0,0,0,4.986,30.881Zm1.506-5.644a11.139,11.139,0,0,0-4.868.294.894.894,0,0,1,.319-.455A8.14,8.14,0,0,1,7.53,23.5,15.579,15.579,0,0,0,6.493,25.237Zm15.978-9.225a15.472,15.472,0,0,0-2.026.025A8.142,8.142,0,0,1,24.6,11.993a.9.9,0,0,1,.554-.049A11.142,11.142,0,0,0,22.471,16.012Zm1.672.185-.041-.006A9.694,9.694,0,0,1,26.342,13a7.985,7.985,0,0,1,1.767,4.527A13.035,13.035,0,0,0,24.143,16.2Zm-1.478,24.4-.027.013a1.117,1.117,0,0,1-.166.059,9,9,0,0,1-4.547.072.348.348,0,0,1-.243-.231.373.373,0,0,1,.057-.35A76.334,76.334,0,0,1,25,31.994a30.252,30.252,0,0,1,8.158-5.973.771.771,0,0,0,.077-.033,11.271,11.271,0,0,1,1.789-.618,3.71,3.71,0,0,1,1.708-.029,4.692,4.692,0,0,1,1.723.742.356.356,0,0,1,.153.3.382.382,0,0,1,0,.043c0,.012,0,.025-.007.038a.341.341,0,0,1-.143.208C34.817,29.2,25.931,36.94,23.071,40.279A1.24,1.24,0,0,1,22.665,40.593ZM9.7,35.137a.791.791,0,0,0,1.118.019,10.912,10.912,0,0,1,2.271-1.5.791.791,0,1,0-.6-1.462,12.249,12.249,0,0,0-2.766,1.828A.791.791,0,0,0,9.7,35.137Z"/>
    </g>
  </g>
</svg>
