<svg xmlns="http://www.w3.org/2000/svg" xmlns:xlink="http://www.w3.org/1999/xlink" width="54" height="54" viewBox="0 0 54 54">
  <defs>
    <clipPath id="clip-path">
      <rect id="Rect치ngulo_35857" data-name="Rect치ngulo 35857" width="54" height="54" transform="translate(-2659 4515)" fill="#fff" stroke="#707070" stroke-width="1"/>
    </clipPath>
  </defs>
  <g id="_131" data-name="131" transform="translate(2659 -4515)" clip-path="url(#clip-path)">
    <g id="comida" transform="translate(-2659 4515)">
      <path id="Trazado_128071" data-name="Trazado 128071" d="M33.272,42.3l10.3-7.356a2.61,2.61,0,0,1,3.641.6c.041.058.08.117.116.177h0A2.61,2.61,0,0,1,46.6,39.2L35.671,48.258A5.4,5.4,0,0,1,32.225,49.5H9.872V38.7l4.4-3.666a3.6,3.6,0,0,1,2.3-.834H28.322a2.25,2.25,0,0,1,2.25,2.25h0a2.25,2.25,0,0,1-2.25,2.25h-5.85a1.8,1.8,0,0,0-1.8,1.8h0a1.8,1.8,0,0,0,1.8,1.8h10.8Z" fill="#fec9a3"/>
      <rect id="Rect치ngulo_35865" data-name="Rect치ngulo 35865" width="9.872" height="15.3" transform="translate(0 37.8)" fill="#4398d1"/>
      <circle id="Elipse_4947" data-name="Elipse 4947" cx="1.8" cy="1.8" r="1.8" transform="translate(2.7 45.9)" fill="#e5e5e5"/>
      <path id="Trazado_128072" data-name="Trazado 128072" d="M.9,28.8H53.1a5.4,5.4,0,0,1-5.4,5.4H6.3A5.4,5.4,0,0,1,.9,28.8Z" fill="#d1d1d1"/>
      <path id="Trazado_128073" data-name="Trazado 128073" d="M49.5,28.8H4.5v-.9A22.5,22.5,0,0,1,27,5.4h0A22.5,22.5,0,0,1,49.5,27.9Z" fill="#e5e5e5"/>
      <g id="Grupo_93575" data-name="Grupo 93575">
        <path id="Trazado_128074" data-name="Trazado 128074" d="M11.97,18.007l-1.5-.99a19.956,19.956,0,0,1,1.732-2.25l1.345,1.2A18.247,18.247,0,0,0,11.97,18.007Z" fill="#fff"/>
        <path id="Trazado_128075" data-name="Trazado 128075" d="M14.686,14.783l-1.232-1.311A19.717,19.717,0,0,1,27,8.1V9.9A17.925,17.925,0,0,0,14.686,14.783Z" fill="#fff"/>
      </g>
      <path id="Trazado_128076" data-name="Trazado 128076" d="M29.7,0H24.3V1.8h1.8V5.4h1.8V1.8h1.8Z" fill="#d1d1d1"/>
      <path id="Trazado_128077" data-name="Trazado 128077" d="M40.1,28.8A58.917,58.917,0,0,1,24.21,34.2H47.7a5.4,5.4,0,0,0,5.4-5.4Z" fill="#c9c9c9"/>
      <path id="Trazado_128078" data-name="Trazado 128078" d="M49.5,27.9a22.433,22.433,0,0,0-7.059-16.357C36.129,20.553,24.7,25.935,16.57,28.8H49.5Z" fill="#dedede"/>
      <g id="Grupo_93576" data-name="Grupo 93576">
        <path id="Trazado_128079" data-name="Trazado 128079" d="M47.458,36a2.5,2.5,0,0,0-.13-.27,2.61,2.61,0,0,0-3.58-.9c-.06.036-.12.075-.177.116L42.092,36h5.366Z" fill="#f7bb8f"/>
        <path id="Trazado_128080" data-name="Trazado 128080" d="M30.526,36a2.25,2.25,0,0,0-2.2-1.8H16.575a3.6,3.6,0,0,0-2.3.834L13.112,36H30.526Z" fill="#f7bb8f"/>
      </g>
      <path id="Trazado_128081" data-name="Trazado 128081" d="M7.2,47.7a2.7,2.7,0,1,0-2.7,2.7,2.7,2.7,0,0,0,2.7-2.7Zm-3.6,0a.9.9,0,1,1,.9.9A.9.9,0,0,1,3.6,47.7Z"/>
      <path id="Trazado_128082" data-name="Trazado 128082" d="M53.1,27.9H50.4A23.424,23.424,0,0,0,27.9,4.523V1.8h1.8V0H24.3V1.8h1.8V4.523A23.424,23.424,0,0,0,3.6,27.9H.9a.9.9,0,0,0-.9.9,6.307,6.307,0,0,0,6.3,6.3h6.485L10.4,37.089a.881.881,0,0,0-.526-.189H0v1.8H8.972V52.2H0V54H9.872a.9.9,0,0,0,.9-.9V50.4H32.225a6.309,6.309,0,0,0,4.019-1.45L47.12,39.934a3.528,3.528,0,0,0,.978-4.671c-.038-.064-.09-.116-.132-.18A6.3,6.3,0,0,0,54,28.8.9.9,0,0,0,53.1,27.9ZM27,6.3A21.625,21.625,0,0,1,48.6,27.9H5.4A21.625,21.625,0,0,1,27,6.3ZM46.025,38.507,35.1,47.565A4.511,4.511,0,0,1,32.225,48.6H10.772V39.122L14.85,35.73a2.709,2.709,0,0,1,1.728-.63H28.322a1.35,1.35,0,1,1,0,2.7h-5.85a2.7,2.7,0,0,0,0,5.4h10.8a.9.9,0,0,0,.523-.168l10.3-7.355a1.71,1.71,0,0,1,2.386.394c.027.038.053.077.077.118A1.743,1.743,0,0,1,46.025,38.507ZM31.156,35.1H41.8l-8.82,6.3H22.472a.9.9,0,1,1,0-1.8h5.85a3.13,3.13,0,0,0,2.834-4.5ZM47.7,33.3H6.3a4.507,4.507,0,0,1-4.41-3.6H52.11A4.507,4.507,0,0,1,47.7,33.3Z"/>
      <path id="Trazado_128083" data-name="Trazado 128083" d="M10.467,17.015l1.5.99a18.3,18.3,0,0,1,1.575-2.05L12.2,14.76A19.928,19.928,0,0,0,10.467,17.015Z"/>
      <path id="Trazado_128084" data-name="Trazado 128084" d="M14.686,14.783A17.925,17.925,0,0,1,27,9.9V8.1a19.717,19.717,0,0,0-13.546,5.371Z"/>
    </g>
  </g>
</svg>
