<svg xmlns="http://www.w3.org/2000/svg" xmlns:xlink="http://www.w3.org/1999/xlink" width="54" height="54" viewBox="0 0 54 54">
  <defs>
    <clipPath id="clip-path">
      <rect id="Rectángulo_35859" data-name="Rectángulo 35859" width="54" height="54" transform="translate(-2659 5085)" fill="#fff" stroke="#707070" stroke-width="1"/>
    </clipPath>
  </defs>
  <g id="Enmascarar_grupo_229" data-name="Enmascarar grupo 229" transform="translate(2659 -5085)" clip-path="url(#clip-path)">
    <g id="hombre_1_" data-name="hombre (1)" transform="translate(-2659 5085)">
      <path id="Trazado_128085" data-name="Trazado 128085" d="M43.71,41.962l-5.62-1.729a2.536,2.536,0,0,1-1.79-2.424V33.764a.845.845,0,0,0-.845-.845H18.545a.845.845,0,0,0-.845.845v4.045a2.536,2.536,0,0,1-1.79,2.424L10.29,41.962A5.073,5.073,0,0,0,6.709,46.81v6.4H47.291v-6.4A5.073,5.073,0,0,0,43.71,41.962Z" fill="#f5dcb4"/>
      <path id="Trazado_128086" data-name="Trazado 128086" d="M15.993,40.2c1.313,3.6,5.736,6.246,11.006,6.246S36.693,43.8,38.006,40.2A2.533,2.533,0,0,1,36.3,37.809V33.764a.845.845,0,0,0-.845-.845H18.545a.845.845,0,0,0-.845.845v4.045A2.533,2.533,0,0,1,15.993,40.2Z" fill="#ebc9a0"/>
      <path id="Trazado_128087" data-name="Trazado 128087" d="M35.454,32.918H18.545a.845.845,0,0,0-.845.845v.543a11.811,11.811,0,0,0,18.6,0v-.543A.845.845,0,0,0,35.454,32.918Z" fill="#d2b496"/>
      <path id="Trazado_128088" data-name="Trazado 128088" d="M39.259,18.546H37.991V10.091H16.009v8.454H14.741a2.114,2.114,0,0,0,0,4.227h1.311a10.98,10.98,0,0,0,21.9,0h1.311a2.114,2.114,0,1,0,0-4.227Z" fill="#f5b97d"/>
      <path id="Trazado_128089" data-name="Trazado 128089" d="M33.763,10.937v-.845H16.009v8.454H14.815a2.162,2.162,0,0,0-2.111,1.54,2.12,2.12,0,0,0,2.037,2.688h1.311a10.913,10.913,0,0,0,12.644,10,10.984,10.984,0,0,1-9.305-10.848V17.7a4.227,4.227,0,0,1,4.227-4.227h7.609A2.536,2.536,0,0,0,33.763,10.937Z" fill="#e3aa75"/>
      <path id="Trazado_128090" data-name="Trazado 128090" d="M21.082,2.662A8.453,8.453,0,0,0,14.4,11.822l.714,6.774.872-.017a1.691,1.691,0,0,0,1.658-1.691V13.473a2.536,2.536,0,0,1,2.536-2.536h9.356Z" fill="#5a4650"/>
      <path id="Trazado_128091" data-name="Trazado 128091" d="M33.763,23.618H20.236A2.536,2.536,0,0,0,17.7,26.155V27A9.3,9.3,0,0,0,27,36.3h0A9.3,9.3,0,0,0,36.3,27v-.845A2.536,2.536,0,0,0,33.763,23.618Z" fill="#84737b"/>
      <g id="Grupo_93577" data-name="Grupo 93577">
        <path id="Trazado_128092" data-name="Trazado 128092" d="M21.927,27v-.845a2.536,2.536,0,0,1,2.536-2.536H20.236A2.536,2.536,0,0,0,17.7,26.155V27A9.273,9.273,0,0,0,29.113,36.05,9.3,9.3,0,0,1,21.927,27Z" fill="#6e5a64"/>
        <path id="Trazado_128093" data-name="Trazado 128093" d="M38.829,18.6l.714-6.774a8.453,8.453,0,0,0-8.406-9.34H22.773c-2.536,0-5.5-.423-6.764-1.691,0,0-1.691,10.145,13.527,10.145h4.227A2.536,2.536,0,0,1,36.3,13.473v3.415a1.691,1.691,0,0,0,1.658,1.691Z" fill="#6e5a64"/>
      </g>
      <path id="Trazado_128094" data-name="Trazado 128094" d="M21.927,18.6a.791.791,0,0,0-.791.791v.846a.791.791,0,1,0,1.582,0v-.846A.791.791,0,0,0,21.927,18.6Z"/>
      <path id="Trazado_128095" data-name="Trazado 128095" d="M32.073,18.6a.791.791,0,0,0-.791.791v.846a.791.791,0,1,0,1.582,0v-.846A.791.791,0,0,0,32.073,18.6Z"/>
      <path id="Trazado_128096" data-name="Trazado 128096" d="M28.981,26.437A2.93,2.93,0,0,1,27,27.055a2.93,2.93,0,0,1-1.981-.618.791.791,0,0,0-1.111,1.126A4.471,4.471,0,0,0,27,28.637a4.471,4.471,0,0,0,3.092-1.073.791.791,0,0,0-1.111-1.126Z"/>
      <path id="Trazado_128097" data-name="Trazado 128097" d="M21.082,17.646h1.691a.791.791,0,0,0,0-1.582H21.082a.791.791,0,1,0,0,1.582Z"/>
      <path id="Trazado_128098" data-name="Trazado 128098" d="M31.227,17.646h1.691a.791.791,0,0,0,0-1.582H31.227a.791.791,0,1,0,0,1.582Z"/>
      <path id="Trazado_128099" data-name="Trazado 128099" d="M43.942,41.206l-5.619-1.729a1.737,1.737,0,0,1-1.232-1.668V33.764a1.638,1.638,0,0,0-1.413-1.619,10.019,10.019,0,0,0,1.352-4.034,11.728,11.728,0,0,0,1.638-4.546h.471a3,3,0,0,0,3.01-2.608,2.9,2.9,0,0,0-2.438-3.166l.62-5.886A9.245,9.245,0,0,0,31.136,1.691H22.773c-2.927,0-5.3-.559-6.2-1.459a.791.791,0,0,0-1.34.429A8.986,8.986,0,0,0,15.776,5a9.247,9.247,0,0,0-2.107,6.9l.621,5.9a2.969,2.969,0,0,0-2.439,2.555,2.905,2.905,0,0,0,2.89,3.2h.59A11.722,11.722,0,0,0,16.97,28.11a10.019,10.019,0,0,0,1.352,4.034,1.638,1.638,0,0,0-1.413,1.619v4.045a1.737,1.737,0,0,1-1.232,1.668l-5.62,1.729a5.834,5.834,0,0,0-4.139,5.6v6.4a.791.791,0,1,0,1.582,0v-6.4a4.26,4.26,0,0,1,3.023-4.092l5.139-1.581c1.412,3.578,6.015,6.1,11.338,6.1a15.69,15.69,0,0,0,5.341-.9.791.791,0,1,0-.537-1.488,14.315,14.315,0,0,1-4.8.81,13.424,13.424,0,0,1-6.7-1.691,7.156,7.156,0,0,1-3.187-3.457,3.309,3.309,0,0,0,1.376-2.7V33.764a.055.055,0,0,1,.055-.054h.924a10.075,10.075,0,0,0,15.061,0h.924a.055.055,0,0,1,.055.054v4.045a3.309,3.309,0,0,0,1.377,2.7,6.545,6.545,0,0,1-2.178,2.777.791.791,0,0,0,.968,1.251,8.138,8.138,0,0,0,2.661-3.4l5.14,1.581A4.26,4.26,0,0,1,46.5,46.81v6.4a.791.791,0,1,0,1.582,0v-6.4A5.835,5.835,0,0,0,43.942,41.206ZM18.747,2.885a19.665,19.665,0,0,0,4.025.388h8.363a7.663,7.663,0,0,1,7.621,8.466l-.633,6.016h-.133a.9.9,0,0,1-.9-.9V13.473a3.331,3.331,0,0,0-3.327-3.327H29.536c-5.27,0-8.988-1.226-11.051-3.644a7.4,7.4,0,0,1-1.716-4.259A9.281,9.281,0,0,0,18.747,2.885Zm-1.541,21.9a10.2,10.2,0,0,1-.407-2.854.791.791,0,1,0-1.582,0v.054h-.477a1.323,1.323,0,0,1-1.316-1.462,1.4,1.4,0,0,1,1.436-1.183h1.147a2.485,2.485,0,0,0,2.482-2.482V12.628a.9.9,0,0,1,.45-.78.791.791,0,0,0-.792-1.369,2.491,2.491,0,0,0-1.24,2.149v4.227a.9.9,0,0,1-.9.9h-.133l-.633-6.016a7.664,7.664,0,0,1,1.328-5.17,8.759,8.759,0,0,0,.691.936c2.374,2.8,6.5,4.223,12.275,4.223h4.227a1.747,1.747,0,0,1,1.745,1.745v3.382a2.485,2.485,0,0,0,2.482,2.482h1.268A1.323,1.323,0,0,1,40.574,20.8a1.4,1.4,0,0,1-1.436,1.183h-.357v-.046a.791.791,0,0,0-.791-.791h0a.791.791,0,0,0-.791.79,10.2,10.2,0,0,1-.407,2.845,3.331,3.331,0,0,0-3.029-1.953H20.236A3.331,3.331,0,0,0,17.207,24.781ZM35.509,27a8.509,8.509,0,1,1-17.018,0v-.846a1.747,1.747,0,0,1,1.745-1.745H33.763a1.747,1.747,0,0,1,1.745,1.745Z"/>
    </g>
  </g>
</svg>
