<svg xmlns="http://www.w3.org/2000/svg" xmlns:xlink="http://www.w3.org/1999/xlink" width="54" height="54" viewBox="0 0 54 54">
  <defs>
    <clipPath id="clip-path">
      <rect id="Rectángulo_35870" data-name="Rectángulo 35870" width="54" height="54" transform="translate(-2659 6906)" fill="#fff" stroke="#707070" stroke-width="1"/>
    </clipPath>
  </defs>
  <g id="Enmascarar_grupo_237" data-name="Enmascarar grupo 237" transform="translate(2659 -6906)" clip-path="url(#clip-path)">
    <g id="saludo" transform="translate(-2659 6906)">
      <path id="Trazado_128445" data-name="Trazado 128445" d="M17.9,6.128l2.527,7.838H17.9V15.4a5.043,5.043,0,0,1-5.043,5.043h-.168a5.211,5.211,0,0,1-5.211-5.211v-9.1l6.092-2.909Z" fill="#ffdc8d"/>
      <path id="Trazado_128446" data-name="Trazado 128446" d="M13.937,20.323a5.018,5.018,0,0,1-1.083.118h-.168a5.212,5.212,0,0,1-5.212-5.212v-9.1L9.826,5V15.229A5.212,5.212,0,0,0,13.937,20.323Z" fill="#e8c57e"/>
      <path id="Trazado_128447" data-name="Trazado 128447" d="M20.387,28.142a46.764,46.764,0,0,1-.637,5.914C18.564,41.7,15.847,53.2,12.685,53.2S6.806,41.7,5.62,34.056a46.782,46.782,0,0,1-.637-5.914,7.7,7.7,0,0,1,15.4,0Z" fill="#5c5e70"/>
      <path id="Trazado_128448" data-name="Trazado 128448" d="M12.685,53.2C9.523,53.2,6.806,41.7,5.62,34.056a46.782,46.782,0,0,1-.637-5.914,7.7,7.7,0,0,1,7.7-7.7c-2.295,0-4.155,3.447-4.155,7.7,0,1.092.122,3.274.343,5.914C9.514,41.7,10.98,53.2,12.685,53.2Z" fill="#494b5b"/>
      <path id="Trazado_128449" data-name="Trazado 128449" d="M12.326.838a5.29,5.29,0,0,0-5.29,5.29v4.14h0a4.14,4.14,0,0,0,4.14-4.14h6.707a5.29,5.29,0,0,0,5.29-5.29Z" fill="#f4a14e"/>
      <path id="Trazado_128450" data-name="Trazado 128450" d="M10.03,6.128A5.29,5.29,0,0,1,15.32.838H12.326a5.29,5.29,0,0,0-5.29,5.29v4.14A4.127,4.127,0,0,0,10.03,8.985Z" fill="#e28d40"/>
      <path id="Trazado_128451" data-name="Trazado 128451" d="M8.638,10.788a1.858,1.858,0,1,0,0,2.627" fill="#e8c57e"/>
      <path id="Trazado_128452" data-name="Trazado 128452" d="M20.387,28.142a46.764,46.764,0,0,1-.637,5.914H5.62a46.782,46.782,0,0,1-.637-5.914,7.7,7.7,0,0,1,15.4,0Z" fill="#4bc999"/>
      <path id="Trazado_128453" data-name="Trazado 128453" d="M8.53,28.142c0,1.092.122,3.274.343,5.914H5.62a46.782,46.782,0,0,1-.637-5.914,7.7,7.7,0,0,1,7.7-7.7C10.39,20.441,8.53,23.888,8.53,28.142Z" fill="#41b787"/>
      <g id="Grupo_93581" data-name="Grupo 93581">
        <path id="Trazado_128454" data-name="Trazado 128454" d="M8.058,21.985a7.666,7.666,0,0,1,4.627-1.544l-2.393,4.692Z" fill="#5bd3a2"/>
        <path id="Trazado_128455" data-name="Trazado 128455" d="M17.313,21.985h0l-2.235,3.147-2.393-4.692A7.669,7.669,0,0,1,17.313,21.985Z" fill="#5bd3a2"/>
      </g>
      <path id="Trazado_128456" data-name="Trazado 128456" d="M30.044,3.2V6.6l-4.919,4.919h4.919v2.624a2.4,2.4,0,0,0,2.4,2.4H48.28a2.4,2.4,0,0,0,2.4-2.4V3.2A2.4,2.4,0,0,0,48.28.8H32.446A2.4,2.4,0,0,0,30.044,3.2Z" fill="#ffd15c"/>
      <path id="Trazado_128457" data-name="Trazado 128457" d="M15.4,17.11a.8.8,0,1,0,0-1.6,1.49,1.49,0,0,1-1.488-1.488.8.8,0,1,0-1.6,0A3.1,3.1,0,0,0,15.4,17.11Z"/>
      <path id="Trazado_128458" data-name="Trazado 128458" d="M16.123,11.4a.8.8,0,0,0,.8-.8V9.544a.8.8,0,1,0-1.6,0V10.6A.8.8,0,0,0,16.123,11.4Z"/>
      <path id="Trazado_128459" data-name="Trazado 128459" d="M13.354,25.565a.8.8,0,1,0-.346,1A.809.809,0,0,0,13.354,25.565Z"/>
      <path id="Trazado_128460" data-name="Trazado 128460" d="M27.935,19.792a.8.8,0,0,0-.8.8v3.877a25.342,25.342,0,0,1-.511,3.509c-.459,2.035-1.137,3.348-1.813,3.512-1.146.278-2.95-2.471-3.626-3.582a8.517,8.517,0,0,0-5.176-7.6A5.844,5.844,0,0,0,18.7,15.4v-.629h1.725a.8.8,0,0,0,.763-1.048L18.966,6.831A6.1,6.1,0,0,0,23.975.838a.8.8,0,0,0-.8-.8H12.326A6.1,6.1,0,0,0,6.234,6.128V9.676a2.658,2.658,0,0,0,.437,5v.551a6.012,6.012,0,0,0,2.764,5.056,8.516,8.516,0,0,0-5.249,7.638,14.627,14.627,0,0,0-1.4,4.339,21.689,21.689,0,0,0,1.472,11.78.8.8,0,0,0,1.489-.6A20.134,20.134,0,0,1,4.349,32.617c.045-.268.095-.523.148-.767.092.717.2,1.491.328,2.3,0,.022.006.045.01.067.4,2.569.963,5.513,1.624,8.234a44.907,44.907,0,0,0,2.5,7.76A12.417,12.417,0,0,0,10.192,52.4H8.781a.8.8,0,1,0,0,1.6h7.808a.8.8,0,1,0,0-1.6h-1.4a20.863,20.863,0,0,0,2.594-5.838.8.8,0,1,0-1.53-.482c-1.149,3.649-2.119,5.2-2.763,5.849V36.819a.8.8,0,1,0-1.6,0V51.927a8.386,8.386,0,0,1-1.467-2.379,43.376,43.376,0,0,1-2.4-7.472c-.6-2.483-1.094-4.994-1.46-7.217H18.813c-.461,2.792-1.11,5.994-1.9,8.92a.8.8,0,0,0,1.549.416,98.247,98.247,0,0,0,2.069-9.974.826.826,0,0,0,.013-.085c.206-1.334.367-2.553.475-3.579,1.3,1.727,2.473,2.56,3.607,2.56a2.353,2.353,0,0,0,.557-.067c1.377-.334,2.359-1.877,3-4.717a26.58,26.58,0,0,0,.549-3.787c0-.016,0-.032,0-.049v-3.9A.8.8,0,0,0,27.935,19.792ZM16.179,22.2l-.988,1.393-1.126-2.208A6.848,6.848,0,0,1,16.179,22.2ZM7.838,6.128A4.493,4.493,0,0,1,12.326,1.64H22.3a4.5,4.5,0,0,1-4.41,3.686H11.176a.8.8,0,0,0-.8.8,3.343,3.343,0,0,1-2.536,3.24V6.128Zm.437,9.1v-.645a2.645,2.645,0,0,0,.93-.6.8.8,0,0,0-1.134-1.134,1.056,1.056,0,1,1-.957-1.78q.162,0,.322-.015a1.05,1.05,0,0,1,.635.3.8.8,0,0,0,1.307-.877A4.955,4.955,0,0,0,11.913,6.93h5.4l2.01,6.234H17.9a.8.8,0,0,0-.8.8V15.4a4.246,4.246,0,0,1-4.241,4.241h-.168A4.414,4.414,0,0,1,8.276,15.229Zm3.029,6.152-1.126,2.208L9.191,22.2A6.856,6.856,0,0,1,11.305,21.381Zm-5,11.874a42.573,42.573,0,0,1-.523-5.112,6.879,6.879,0,0,1,2.128-4.976L9.638,25.6a.8.8,0,0,0,.654.338l.059,0a.8.8,0,0,0,.656-.435l1.679-3.292L14.364,25.5a.8.8,0,0,0,1.368.1l1.725-2.431a6.879,6.879,0,0,1,2.128,4.976,41.718,41.718,0,0,1-.521,5.112H6.308Z"/>
      <path id="Trazado_128461" data-name="Trazado 128461" d="M50.681,5.375a.8.8,0,0,0,.8-.8V3.2A3.207,3.207,0,0,0,48.28,0H32.446a3.207,3.207,0,0,0-3.2,3.2V6.273l-4.684,4.684a.8.8,0,0,0,.567,1.369h4.117v1.822a3.207,3.207,0,0,0,3.2,3.2H48.28a3.207,3.207,0,0,0,3.2-3.2v-6.9a.8.8,0,0,0-1.6,0v6.9a1.6,1.6,0,0,1-1.6,1.6H32.446a1.6,1.6,0,0,1-1.6-1.6V11.524a.8.8,0,0,0-.8-.8H27.061l3.55-3.55a.8.8,0,0,0,.235-.567V3.2a1.6,1.6,0,0,1,1.6-1.6H48.279a1.6,1.6,0,0,1,1.6,1.6v1.37A.8.8,0,0,0,50.681,5.375Z"/>
      <path id="Trazado_128462" data-name="Trazado 128462" d="M39.8,13.4c.415,0,.842-.182.842-.531V4.444c0-.363-.428-.518-.842-.518s-.842.156-.842.518V7.827H36.04V4.444c0-.363-.428-.518-.842-.518s-.842.156-.842.518v8.424c0,.35.415.531.842.531s.842-.182.842-.531V9.149h2.916v3.72C38.956,13.218,39.371,13.4,39.8,13.4Z"/>
      <path id="Trazado_128463" data-name="Trazado 128463" d="M42.2,4.444v8.424c0,.35.415.531.842.531s.842-.182.842-.531V4.444c0-.363-.428-.518-.842-.518S42.2,4.081,42.2,4.444Z"/>
      <path id="Trazado_128464" data-name="Trazado 128464" d="M46.084,13.477a.881.881,0,0,0,0-1.762.881.881,0,0,0,0,1.762Z"/>
      <path id="Trazado_128465" data-name="Trazado 128465" d="M46.071,10.782c.259,0,.635-.142.635-.492,0-1.711.182-3.992.182-5.7a.738.738,0,0,0-.817-.713.72.72,0,0,0-.8.713c0,1.711.169,3.992.169,5.7C45.437,10.639,45.735,10.782,46.071,10.782Z"/>
    </g>
  </g>
</svg>
