<svg xmlns="http://www.w3.org/2000/svg" xmlns:xlink="http://www.w3.org/1999/xlink" width="68" height="68" viewBox="0 0 68 68">
  <defs>
    <clipPath id="clip-path">
      <rect id="_14" data-name="14" width="68" height="68" transform="translate(-6141 -9661)" fill="#12263f"/>
    </clipPath>
  </defs>
  <g id="Enmascarar_grupo_106" data-name="Enmascarar grupo 106" transform="translate(6141 9661)" clip-path="url(#clip-path)">
    <g id="puerta-abierta" transform="translate(-6142.94 -9662.938)">
      <path id="Trazado_125379" data-name="Trazado 125379" d="M58.68,42.2a.971.971,0,0,1-.971-.971V38.34a.971.971,0,1,1,1.943,0v2.885A.971.971,0,0,1,58.68,42.2Z" fill="#12263f"/>
      <path id="Trazado_125380" data-name="Trazado 125380" d="M27.664,69.938a.971.971,0,0,1-.971-.971V2.914a.971.971,0,0,1,1.068-.971L58.777,5.08a.971.971,0,0,1,.874.971V21.914a.971.971,0,0,1-1.943,0V6.93L28.636,3.988V67.854l29.073-3.939V48.024a.971.971,0,0,1,1.943,0V64.76a.971.971,0,0,1-.84.963L27.8,69.929a.992.992,0,0,1-.131.009Z" fill="#12263f"/>
      <path id="Trazado_125381" data-name="Trazado 125381" d="M58.68,32.511a.971.971,0,0,1-.971-.971V28.713a.971.971,0,0,1,1.943,0V31.54A.971.971,0,0,1,58.68,32.511Z" fill="#12263f"/>
      <path id="Trazado_125382" data-name="Trazado 125382" d="M13.268,66.35a.971.971,0,0,1-.971-.971V6.022a.971.971,0,0,1,.971-.971h14.4a.971.971,0,1,1,0,1.943H14.239V65.378A.971.971,0,0,1,13.268,66.35Z" fill="#12263f"/>
      <path id="Trazado_125383" data-name="Trazado 125383" d="M18.754,66.35a.971.971,0,0,1-.971-.971V11.7a.971.971,0,0,1,.971-.971h8.9a.971.971,0,1,1,0,1.943H19.725V65.378A.971.971,0,0,1,18.754,66.35Z" fill="#12263f"/>
      <path id="Trazado_125384" data-name="Trazado 125384" d="M27.657,66.35H2.962a.971.971,0,0,1,0-1.943H27.657a.971.971,0,1,1,0,1.943Z" fill="#12263f"/>
      <path id="Trazado_125385" data-name="Trazado 125385" d="M68.919,66.35H54.049a.971.971,0,1,1,0-1.943h14.87a.971.971,0,0,1,0,1.943Z" fill="#12263f"/>
      <path id="Trazado_125386" data-name="Trazado 125386" d="M34.406,39.451a3.51,3.51,0,1,1,3.51-3.51,3.51,3.51,0,0,1-3.51,3.51Zm0-5.078a1.568,1.568,0,1,0,1.568,1.568,1.568,1.568,0,0,0-1.568-1.568Z" fill="#12263f"/>
    </g>
  </g>
</svg>
