<svg xmlns="http://www.w3.org/2000/svg" xmlns:xlink="http://www.w3.org/1999/xlink" width="98" height="98" viewBox="0 0 98 98">
  <defs>
    <clipPath id="clip-path">
      <rect id="Rectángulo_35271" data-name="Rectángulo 35271" width="98" height="98" transform="translate(331 14132)" fill="#fff" stroke="#707070" stroke-width="1"/>
    </clipPath>
  </defs>
  <g id="Enmascarar_grupo_98" data-name="Enmascarar grupo 98" transform="translate(-331 -14132)" clip-path="url(#clip-path)">
    <g id="amigos" transform="translate(331 14138.461)">
      <path id="Trazado_122565" data-name="Trazado 122565" d="M47.885,83.642l-9.934-20.5a28.8,28.8,0,0,1,22.1,0H81.529c2.408,2.052,9.934,9.357,9.934,20.5Zm0,0" fill="#fadc60"/>
      <path id="Trazado_122566" data-name="Trazado 122566" d="M79.051,9.7A8.261,8.261,0,1,1,70.79,1.436,8.261,8.261,0,0,1,79.051,9.7Zm0,0" fill="#323e40"/>
      <path id="Trazado_122567" data-name="Trazado 122567" d="M77.169,65.522a6.379,6.379,0,1,1-6.379-6.379A6.379,6.379,0,0,1,77.169,65.522Zm0,0" fill="#e3b098"/>
      <path id="Trazado_122568" data-name="Trazado 122568" d="M82.777,61.046s-4.562,5.282,0,8.509a4.445,4.445,0,0,0,5.606-.164,6.057,6.057,0,0,0,1.987-7.46,5.614,5.614,0,0,0-3.9-3.045Zm0,0" fill="#e3b098"/>
      <path id="Trazado_122569" data-name="Trazado 122569" d="M96.564,39.237a25.78,25.78,0,1,1-51.551,0l2.872-6.467L66.163,17.958H70.79l9.282,1.031L93.853,32Zm0,0" fill="#fbc4ac"/>
      <path id="Trazado_122570" data-name="Trazado 122570" d="M96.564,39.237a51.876,51.876,0,0,0-13.948-9.4A31.7,31.7,0,0,1,70.79,21.286a31.7,31.7,0,0,1-11.827,8.548,51.876,51.876,0,0,0-13.948,9.4h0v0a25.78,25.78,0,1,1,51.551,0Zm0,0" fill="#3a484a"/>
      <path id="Trazado_122571" data-name="Trazado 122571" d="M86.348,48.519H82.709a1.436,1.436,0,0,1,0-2.871h3.639a1.436,1.436,0,0,1,0,2.871Zm0,0" fill="#f98084"/>
      <path id="Trazado_122572" data-name="Trazado 122572" d="M58.868,48.519H55.229a1.436,1.436,0,0,1,0-2.871h3.639a1.436,1.436,0,0,1,0,2.871Zm0,0" fill="#f98084"/>
      <path id="Trazado_122573" data-name="Trazado 122573" d="M47.885,83.642c0-11.147-7.525-18.452-9.934-20.5H16.473c-2.408,2.052-9.934,9.357-9.934,20.5Zm0,0" fill="#58b78c"/>
      <path id="Trazado_122574" data-name="Trazado 122574" d="M33.591,65.522a6.379,6.379,0,1,1-6.378-6.379A6.378,6.378,0,0,1,33.591,65.522Zm0,0" fill="#d9a891"/>
      <path id="Trazado_122575" data-name="Trazado 122575" d="M15.225,61.046s4.562,5.282,0,8.509a4.446,4.446,0,0,1-5.607-.164,6.058,6.058,0,0,1-1.987-7.46,5.615,5.615,0,0,1,3.9-3.045Zm0,0" fill="#fbc4ac"/>
      <path id="Trazado_122576" data-name="Trazado 122576" d="M52.985,39v.055a.711.711,0,0,1,0,.09v.09A26.033,26.033,0,0,1,27.213,65.522,26.034,26.034,0,0,1,1.436,39.237h0L7.063,28.559l10.189-8.8,20.7,1.532,13.41,11.356Zm0,0" fill="#e3b098"/>
      <path id="Trazado_122577" data-name="Trazado 122577" d="M42.771,48.519H39.132a1.436,1.436,0,0,1,0-2.871h3.639a1.436,1.436,0,0,1,0,2.871Zm0,0" fill="#f98084"/>
      <path id="Trazado_122578" data-name="Trazado 122578" d="M15.291,48.519H11.652a1.436,1.436,0,0,1,0-2.871h3.639a1.436,1.436,0,0,1,0,2.871Zm0,0" fill="#f98084"/>
      <path id="Trazado_122579" data-name="Trazado 122579" d="M52.985,39c-.369-9.819-23.972-5.325-33.62-13.671a1.581,1.581,0,0,0-2.515.686c-1.579,4.469-5.886,13.22-15.412,13.22h0A26.034,26.034,0,0,1,27.213,12.951,26.027,26.027,0,0,1,52.985,39Zm0,0" fill="#fadc60"/>
      <path id="Trazado_122580" data-name="Trazado 122580" d="M84.529,44.592a1.435,1.435,0,0,0,1.436-1.436V40.485a1.436,1.436,0,0,0-2.871,0v2.671A1.435,1.435,0,0,0,84.529,44.592Zm0,0"/>
      <path id="Trazado_122581" data-name="Trazado 122581" d="M57.049,44.592a1.435,1.435,0,0,0,1.436-1.436V40.485a1.436,1.436,0,0,0-2.871,0v2.671A1.435,1.435,0,0,0,57.049,44.592Zm0,0"/>
      <path id="Trazado_122582" data-name="Trazado 122582" d="M69.413,44.9a1.436,1.436,0,1,0-2.162,1.889,4.757,4.757,0,0,0,7.077,0A1.435,1.435,0,1,0,72.166,44.9a1.888,1.888,0,0,1-2.753,0Zm0,0"/>
      <path id="Trazado_122583" data-name="Trazado 122583" d="M40.951,44.592a1.435,1.435,0,0,0,1.436-1.436V40.485a1.436,1.436,0,0,0-2.871,0v2.671A1.436,1.436,0,0,0,40.951,44.592Zm0,0"/>
      <path id="Trazado_122584" data-name="Trazado 122584" d="M13.471,44.592a1.435,1.435,0,0,0,1.436-1.436V40.485a1.436,1.436,0,0,0-2.871,0v2.671A1.436,1.436,0,0,0,13.471,44.592Zm0,0"/>
      <path id="Trazado_122585" data-name="Trazado 122585" d="M27.211,48.368a4.688,4.688,0,0,0,3.539-1.578A1.436,1.436,0,1,0,28.588,44.9a1.888,1.888,0,0,1-2.753,0,1.435,1.435,0,1,0-2.162,1.889,4.685,4.685,0,0,0,3.538,1.578Zm0,0"/>
      <path id="Trazado_122586" data-name="Trazado 122586" d="M8.143,58.992a6.779,6.779,0,0,0-1.806,2.316,7.49,7.49,0,0,0,2.315,9.15A26.547,26.547,0,0,0,5.1,83.642a1.435,1.435,0,0,0,1.436,1.436H91.463A1.435,1.435,0,0,0,92.9,83.642,26.545,26.545,0,0,0,89.35,70.458a7.49,7.49,0,0,0,2.314-9.15,6.765,6.765,0,0,0-1.806-2.316A28.1,28.1,0,0,0,94.39,25.43a1.436,1.436,0,0,0-2.5,1.412A25.126,25.126,0,0,1,94.9,35.851l-.1-.079a54.052,54.052,0,0,0-8.272-5.612c-1.09-.594-2.206-1.146-3.344-1.642a30.686,30.686,0,0,1-11.259-8.1,1.434,1.434,0,0,0-2.252-.033l-.026.031A30.694,30.694,0,0,1,58.39,28.518a39.884,39.884,0,0,0-5.116,2.66l-.013.008a27.618,27.618,0,0,0-2.568-5.975,24.262,24.262,0,0,1,13.347-9.86,24.035,24.035,0,0,1,24.727,7.133,1.436,1.436,0,1,0,2.14-1.915,27.231,27.231,0,0,0-11.041-7.46,9.7,9.7,0,1,0-18.159-.017A27.107,27.107,0,0,0,49,22.627a27.953,27.953,0,0,0-2.621-3.064,26.85,26.85,0,0,0-37.721-.606,1.435,1.435,0,1,0,1.977,2.082,23.979,23.979,0,0,1,33.7.544A24.966,24.966,0,0,1,47.758,25.9c.008.014.013.028.022.043a24.908,24.908,0,0,1,3.057,7.32,24.068,24.068,0,0,0-7.717-2.51c-1.717-.33-3.444-.594-5.17-.865-5.955-.928-12.883-1.527-17.646-5.646A3.048,3.048,0,0,0,15.5,25.538a24.257,24.257,0,0,1-3.5,6.718,14.513,14.513,0,0,1-5.157,4.316,12.461,12.461,0,0,1-3.92,1.141A25.021,25.021,0,0,1,7.125,25.2a1.436,1.436,0,0,0-2.384-1.6,28.087,28.087,0,0,0,3.4,35.392ZM63.964,9.7a6.826,6.826,0,1,1,13.149,2.572,26.4,26.4,0,0,0-2.755-.512,26.789,26.789,0,0,0-9.893.511,6.829,6.829,0,0,1-.5-2.571ZM48.994,55.833A27.688,27.688,0,0,0,52.422,59.7a31.016,31.016,0,0,0-3.344-.181,30.684,30.684,0,0,0-3.558.208,27.8,27.8,0,0,0,3.474-3.895ZM66.449,66.609a27.066,27.066,0,0,0,5.792.31,26.629,26.629,0,0,0,3.39-.4,4.944,4.944,0,0,1-9.683,0c.167.031.333.061.5.089Zm-40.687.31q1.1.058,2.2.028a26.789,26.789,0,0,0,4.093-.425,4.944,4.944,0,0,1-9.683,0,26.656,26.656,0,0,0,3.391.4ZM8.925,62.552a3.887,3.887,0,0,1,1.377-1.6,27.137,27.137,0,0,0,5.166,3.294c0,.006.005.012.007.019a4.369,4.369,0,0,1,.334,1.874,3.452,3.452,0,0,1-3.243,2.9,3.628,3.628,0,0,1-2.1-.805,4.624,4.624,0,0,1-1.546-5.683Zm2.294,9.191q.167.041.334.072A5.791,5.791,0,0,0,15.629,71a6.36,6.36,0,0,0,2.637-2.95,5.768,5.768,0,0,0,.41-2.44c0-.016,0-.032,0-.048.242.081.487.159.73.233a7.813,7.813,0,0,0,15.615,0,26.623,26.623,0,0,0,2.671-.973l.039.036a28.618,28.618,0,0,1,4.849,5.846,25.641,25.641,0,0,1,3.064,6.906,23.417,23.417,0,0,1,.758,4.592H40.475V76.656a1.436,1.436,0,0,0-2.871,0v5.551H16.821V76.656a1.436,1.436,0,0,0-2.871,0v5.551H8.019a23.924,23.924,0,0,1,3.2-10.463ZM84.051,82.207V76.656a1.436,1.436,0,0,0-2.871,0v5.551h-31.9c0-.022,0-.045,0-.067a26.5,26.5,0,0,0-1.862-8.254,29.882,29.882,0,0,0-3.775-6.7,32.761,32.761,0,0,0-2.958-3.46l-.035-.036a27.96,27.96,0,0,1,8.431-1.3,26.684,26.684,0,0,1,9.991,1.881A26.636,26.636,0,0,0,62.983,65.8a7.812,7.812,0,0,0,15.615,0c.244-.075.488-.152.73-.234,0,.015,0,.029,0,.044a5.731,5.731,0,0,0,.36,2.32,6.219,6.219,0,0,0,2.262,2.8,5.877,5.877,0,0,0,4.835,1.017,23.927,23.927,0,0,1,3.2,10.464H84.052Zm3.48-13.971a3.172,3.172,0,0,1-3.65.326,3.12,3.12,0,0,1-1.356-4.289l.009-.022A27.156,27.156,0,0,0,87.7,60.955a3.891,3.891,0,0,1,1.378,1.6,4.624,4.624,0,0,1-1.546,5.683ZM82.044,31.151a41.8,41.8,0,0,1,5.713,3.068,51.945,51.945,0,0,1,7.335,5.6l.03.027A24.778,24.778,0,0,1,76.3,63.444,24.081,24.081,0,0,1,50.69,53.256a27.806,27.806,0,0,0,2.073-4.482l.016-.043A28.08,28.08,0,0,0,54.3,36.587c0-.021,0-.042-.006-.063q-.116-1.21-.33-2.4a41.768,41.768,0,0,1,5.574-2.976,35.052,35.052,0,0,0,11.254-7.7A35.049,35.049,0,0,0,82.044,31.15ZM3.025,40.6a15.116,15.116,0,0,0,4.4-1.108,16.483,16.483,0,0,0,5.768-4.227A26.63,26.63,0,0,0,18.2,26.493a.163.163,0,0,1,.039-.061s.008,0,.012-.007a.147.147,0,0,1,.052-.027l.016,0a.193.193,0,0,1,.032,0,.1.1,0,0,1,.038.007l.007,0a.113.113,0,0,1,.026.017c4.707,4.072,12.343,5.262,19.08,6.313,3.525.55,7.3.963,10.611,2.374,1.711.73,3.435,2,3.435,4.085v.048A25.254,25.254,0,0,1,50.27,47.2,24.632,24.632,0,0,1,32.816,63.421a24.016,24.016,0,0,1-10.583.141A24.747,24.747,0,0,1,2.908,40.607l.117-.01Zm0,0"/>
    </g>
  </g>
</svg>
