<svg xmlns="http://www.w3.org/2000/svg" xmlns:xlink="http://www.w3.org/1999/xlink" width="86" height="85" viewBox="0 0 86 85">
  <defs>
    <clipPath id="clip-path">
      <rect id="Rectángulo_35382" data-name="Rectángulo 35382" width="85" height="85" transform="translate(390 1115)" fill="#fff" stroke="#707070" stroke-width="1"/>
    </clipPath>
  </defs>
  <g id="_35" data-name="35" transform="translate(-390 -1115)">
    <circle id="Elipse_4834" data-name="Elipse 4834" cx="42.5" cy="42.5" r="42.5" transform="translate(391 1115)" fill="#ffd947"/>
    <g id="Enmascarar_grupo_110" data-name="Enmascarar grupo 110" clip-path="url(#clip-path)">
      <g id="trabajando" transform="translate(387.167 1112.874)">
        <path id="Trazado_125437" data-name="Trazado 125437" d="M35.416,19.833H63.75V76.5H35.416Z" fill="#e4e9f2"/>
        <path id="Trazado_125438" data-name="Trazado 125438" d="M52.416,36.832v-17H63.75V76.5H52.416Z" fill="#cad8ed"/>
        <path id="Trazado_125439" data-name="Trazado 125439" d="M31.166,73.666H42.5V76.5H31.166Z" fill="#445496"/>
        <path id="Trazado_125440" data-name="Trazado 125440" d="M46.75,60.918l-2.833,8.5L32.583,58.083V76.5H7.083V67.394l-.613-.788A10.548,10.548,0,0,1,14.8,49.583H33.068a5.667,5.667,0,0,1,4.008,1.66l4.715,4.717Z" fill="#ffceb6"/>
        <path id="Trazado_125441" data-name="Trazado 125441" d="M41.791,55.96l-5.665,5.667-3.543-3.543V76.5H7.083V67.394l-.613-.788A10.548,10.548,0,0,1,14.8,49.583H33.068a5.667,5.667,0,0,1,4.008,1.66Z" fill="#ed6445"/>
        <path id="Trazado_125442" data-name="Trazado 125442" d="M24.083,55.25,25.5,69.416H19.833L21.249,55.25Z" fill="#f7c04a"/>
        <path id="Trazado_125443" data-name="Trazado 125443" d="M21.249,55.25l-1.417-2.833L22.666,51,25.5,52.416,24.083,55.25Z" fill="#f5a431"/>
        <path id="Trazado_125444" data-name="Trazado 125444" d="M43.916,73.666H36.832l-1.589,1.589A4.25,4.25,0,0,1,32.239,76.5h-15.3a5.667,5.667,0,0,1-4.473-2.188L9.208,70.125l6.048-6.048,4.576,5.339h12.75l2.679-1.785a2.833,2.833,0,0,1,3.143,0L43.916,71.3Z" fill="#ffceb6"/>
        <path id="Trazado_125445" data-name="Trazado 125445" d="M58.083,42.5H86.416v34H58.083Z" fill="#e4e9f2"/>
        <path id="Trazado_125446" data-name="Trazado 125446" d="M75.083,59.5v-17H86.416v34H75.083Z" fill="#cad8ed"/>
        <path id="Trazado_125447" data-name="Trazado 125447" d="M55.25,19.834a5.667,5.667,0,0,0,5.667-5.667V12.751H49.583v1.417a5.667,5.667,0,0,1-5.667,5.667Z" fill="#cad8ed"/>
        <path id="Trazado_125448" data-name="Trazado 125448" d="M18.417,39.666v7.084A4.25,4.25,0,0,0,22.666,51h0a4.25,4.25,0,0,0,4.25-4.25V39.666Z" fill="#ffceb6"/>
        <path id="Trazado_125449" data-name="Trazado 125449" d="M21.25,41.084l.415.415a3.42,3.42,0,0,0,2.418,1,4.25,4.25,0,0,0,4.25-4.25V36.834H21.261a3.947,3.947,0,0,0-3.53,5.712l.685,1.371Z" fill="#b36f42"/>
        <path id="Trazado_125450" data-name="Trazado 125450" d="M59.5,76.5l8.5-17H46.749l-8.5,17Z" fill="#56679c"/>
        <path id="Trazado_125451" data-name="Trazado 125451" d="M2.833,60.131a12.022,12.022,0,0,0,2.52,7.345l.314.4V77.916H8.5V71.522l2.846,3.659a7.038,7.038,0,0,0,5.591,2.735H59.5a1.417,1.417,0,0,0,1.267-.783l8.5-17A1.417,1.417,0,0,0,68,58.084H46.749a1.412,1.412,0,0,0-.661.168l-8.01-8.01a7.036,7.036,0,0,0-5.009-2.075H28.154a5.658,5.658,0,0,0,.179-1.416V41.993a5.642,5.642,0,0,0,1.417-3.743V36.834a1.417,1.417,0,0,0-1.417-1.417H21.262a5.364,5.364,0,0,0-4.8,7.762L17,44.25v2.5a5.658,5.658,0,0,0,.179,1.416H14.8A11.978,11.978,0,0,0,2.833,60.131ZM14.8,51h4.126c.057.051.115.1.175.149l-4.516,4.516,2,2,2.86-2.86.354.709L18.753,65.979l-6.344-7.4-2.151,1.844L13.327,64,9.341,67.989,7.589,65.736A9.131,9.131,0,0,1,14.8,51ZM19.833,44.5,21.3,43.038a4.8,4.8,0,0,0,2.784.88,5.658,5.658,0,0,0,1.416-.179v3.012a2.833,2.833,0,0,1-5.667,0Zm2.7,12.162H22.8L23.934,68H21.4Zm.676-2.833H22.125L21.556,52.7l.333-.333a5.555,5.555,0,0,0,1.553,0l.333.333ZM13.583,73.442l-2.488-3.2,4.082-4.082,3.581,4.177a1.417,1.417,0,0,0,1.076.495h12.75a1.417,1.417,0,0,0,.786-.238l2.679-1.785a1.413,1.413,0,0,1,1.571,0l2.169,1.446-1,1.994H36.832a1.416,1.416,0,0,0-1,.415l-1.589,1.589a2.815,2.815,0,0,1-2,.83h-15.3a4.223,4.223,0,0,1-3.355-1.641ZM34,61.5l4.636,4.636a4.238,4.238,0,0,0-4.16.312L34,66.769Zm8.111,4.1-3.982-3.983,3.663-3.663,2.762,2.762Zm16.513,9.474H40.541l7.083-14.166H65.707ZM36.074,52.244l3.714,3.714-3.663,3.663-2.541-2.541a1.417,1.417,0,0,0-2.418,1V68H26.781L25.533,55.516l.354-.709,2.86,2.86,2-2-4.516-4.516c.059-.048.117-.1.175-.149h6.66a4.222,4.222,0,0,1,3.005,1.245ZM18.861,39.981a2.527,2.527,0,0,1,2.4-1.73h5.655a2.837,2.837,0,0,1-2.833,2.833,1.99,1.99,0,0,1-1.417-.587l-.415-.415a1.417,1.417,0,0,0-2,0L18.834,41.5a2.512,2.512,0,0,1,.027-1.516Z"/>
        <path id="Trazado_125452" data-name="Trazado 125452" d="M53.125,70.834A2.125,2.125,0,1,0,51,68.709a2.125,2.125,0,0,0,2.125,2.125Z"/>
        <path id="Trazado_125453" data-name="Trazado 125453" d="M86.416,41.084H58.083A1.417,1.417,0,0,0,56.666,42.5V55.25H59.5V43.917H73.666v2.833H62.333v2.833H73.666v2.833H62.333V55.25H73.666v2.833H70.833v2.833h2.833V63.75h-4.25v2.833h4.25v2.833H66.583V72.25h7.083v2.833h-8.5v2.833h21.25A1.417,1.417,0,0,0,87.833,76.5v-34a1.417,1.417,0,0,0-1.417-1.417ZM76.5,43.917H85v2.833H76.5Zm0,5.667H85v2.833H76.5Zm0,5.667H85v2.833H76.5Zm0,5.667H85V63.75H76.5Zm0,5.667H85v2.833H76.5Zm0,8.5V72.25H85v2.833Z"/>
        <path id="Trazado_125454" data-name="Trazado 125454" d="M62.333,12.751a1.417,1.417,0,0,0-1.417-1.417H49.583a1.417,1.417,0,0,0-1.417,1.417v1.417a4.255,4.255,0,0,1-4.25,4.25h-8.5A1.417,1.417,0,0,0,34,19.834v25.5h2.833V21.251H51v2.833H39.666v2.833H51v2.833H39.666v2.833H51v2.833H39.666v2.833H51v2.833H39.666v2.833H51v2.833H39.666v2.833H51v2.833H45.333V55.25h8.5v-17H65.166V19.834a1.417,1.417,0,0,0-1.417-1.417H60.912a7.046,7.046,0,0,0,1.421-4.25Zm-8.5,14.167h8.5v2.833h-8.5Zm0,8.5V32.584h8.5v2.833Zm8.5-11.333h-8.5V21.251h8.5ZM49.579,18.417A7.046,7.046,0,0,0,51,14.168h8.5a4.255,4.255,0,0,1-4.25,4.25Z"/>
      </g>
    </g>
  </g>
</svg>
