<svg xmlns="http://www.w3.org/2000/svg" xmlns:xlink="http://www.w3.org/1999/xlink" width="63" height="63" viewBox="0 0 63 63">
  <defs>
    <clipPath id="clip-path">
      <rect id="Rectángulo_35387" data-name="Rectángulo 35387" width="63" height="63" transform="translate(273 1504)" fill="#8284d2" stroke="#707070" stroke-width="1"/>
    </clipPath>
  </defs>
  <g id="Enmascarar_grupo_115" data-name="Enmascarar grupo 115" transform="translate(-273 -1504)" clip-path="url(#clip-path)">
    <g id="experiencia" transform="translate(273 1504)">
      <g id="Grupo_90713" data-name="Grupo 90713">
        <path id="Trazado_125496" data-name="Trazado 125496" d="M11.863,28.671H7.946v2.368a1.769,1.769,0,0,0,1.769,1.769h.378a1.769,1.769,0,0,0,1.769-1.769V28.671Z" fill="#a59ca6"/>
        <path id="Trazado_125497" data-name="Trazado 125497" d="M37.679,45.213l.24.037A6.676,6.676,0,0,0,45.057,36l-2-4.618a5.589,5.589,0,0,1-.4-1.428,11.269,11.269,0,0,0-22.309,0,5.589,5.589,0,0,1-.4,1.428l-2,4.618a6.676,6.676,0,0,0,7.138,9.255l.24-.037,3.849-.924h5.19Z" fill="#a59ca6"/>
        <path id="Trazado_125498" data-name="Trazado 125498" d="M34.349,50.508l5.3,2.125a7.746,7.746,0,0,1,4.862,7.189v1.145A1.109,1.109,0,0,1,43.4,62.077H19.345a1.109,1.109,0,0,1-1.109-1.109V59.823A7.746,7.746,0,0,1,23.1,52.633l5.3-2.125,1.624-.653h2.776Z" fill="#e79098"/>
        <path id="Trazado_125499" data-name="Trazado 125499" d="M34.349,50.508l-.026-.011-.345.042-4.972,1.735V50.262l-.613.246-5.3,2.125a7.746,7.746,0,0,0-4.862,7.189v1.146a1.109,1.109,0,0,0,1.109,1.109h1.868v-.9a7.746,7.746,0,0,1,4.862-7.189l.449-.18a1.543,1.543,0,0,1,1.611.274,4.819,4.819,0,0,0,8.006-2.852Z" fill="#e17983"/>
        <path id="Trazado_125500" data-name="Trazado 125500" d="M34.349,50.508a2.978,2.978,0,0,1-5.955,0V43.38h5.955Z" fill="#ffd1c2"/>
        <g id="Grupo_90712" data-name="Grupo 90712">
          <path id="Trazado_125501" data-name="Trazado 125501" d="M38.858,32.373v8.49a7.364,7.364,0,0,1-14.727,0v-6.39a8.654,8.654,0,0,1,1.9-5.408.616.616,0,0,1,.869-.093l.344.28a9.029,9.029,0,0,0,5.46,2.022l5.22.138a.962.962,0,0,1,.936.961Z" fill="#ffe0d1"/>
          <path id="Trazado_125502" data-name="Trazado 125502" d="M25.192,30.824l.462.34a12.944,12.944,0,0,0,7.341,2.455l5.864.14V32.373a.962.962,0,0,0-.936-.961l-5.22-.138a9.029,9.029,0,0,1-5.46-2.022l-.344-.28a.616.616,0,0,0-.869.093,8.661,8.661,0,0,0-1.038,1.65.846.846,0,0,1,.2.109Z" fill="#ffd1c2"/>
          <path id="Trazado_125503" data-name="Trazado 125503" d="M16.347,19.9a6.478,6.478,0,0,0-9.01-5.945A5.943,5.943,0,0,0,3.975,17.3a6.57,6.57,0,0,0,.661,6.313l3.1,4.826v.932a.411.411,0,0,0,.411.411h3.516a.411.411,0,0,0,.411-.411v-.932l3.1-4.826A6.414,6.414,0,0,0,16.347,19.9Z" fill="#fbe88c"/>
          <path id="Trazado_125504" data-name="Trazado 125504" d="M10.483,29.367v-.932l-3.1-4.826A6.57,6.57,0,0,1,6.722,17.3a5.944,5.944,0,0,1,3.362-3.34,7.4,7.4,0,0,1,1.182-.354,6.793,6.793,0,0,0-3.93.354A5.944,5.944,0,0,0,3.975,17.3a6.57,6.57,0,0,0,.661,6.313l3.1,4.826v.932a.411.411,0,0,0,.411.411h2.747A.411.411,0,0,1,10.483,29.367Z" fill="#f9de58"/>
          <path id="Trazado_125505" data-name="Trazado 125505" d="M10.661,23.322H9.148A.917.917,0,0,1,8.23,22.4V20.891a.917.917,0,0,1,.917-.917h1.514a.917.917,0,0,1,.917.917V22.4A.917.917,0,0,1,10.661,23.322Z" fill="#f9de58"/>
          <circle id="Elipse_4841" data-name="Elipse 4841" cx="7.268" cy="7.268" r="7.268" transform="translate(24.103 0.922)" fill="#b3e5ee"/>
          <path id="Trazado_125506" data-name="Trazado 125506" d="M27.277,7.749a7.274,7.274,0,0,1,4.7-6.8c-.2-.016-.4-.025-.607-.025a7.268,7.268,0,1,0,2.569,14.07,7.269,7.269,0,0,1-6.663-7.243Z" fill="#86d7e5"/>
          <path id="Trazado_125507" data-name="Trazado 125507" d="M52.85,13.747l1.809,3.666a.517.517,0,0,0,.389.283l4.045.588a.517.517,0,0,1,.286.881l-2.927,2.853a.517.517,0,0,0-.149.457L57,26.505a.517.517,0,0,1-.75.545l-3.618-1.9a.517.517,0,0,0-.481,0l-3.618,1.9a.517.517,0,0,1-.75-.545l.691-4.029a.517.517,0,0,0-.149-.457l-2.927-2.853a.517.517,0,0,1,.286-.881l4.045-.588a.517.517,0,0,0,.389-.283l1.809-3.666a.517.517,0,0,1,.927,0Z" fill="#fbe88c"/>
          <path id="Trazado_125508" data-name="Trazado 125508" d="M57,26.505l-.075-.436-4.25-2.235a.609.609,0,0,0-.567,0L50.09,24.893a.371.371,0,0,1-.539-.392l.424-2.469a.626.626,0,0,0-.18-.554l-1.651-1.609a.527.527,0,0,1,.292-.9l2.278-.331a.587.587,0,0,0,.442-.321l1.975-4-.28-.568a.517.517,0,0,0-.927,0l-1.809,3.666a.517.517,0,0,1-.389.283l-4.046.588a.517.517,0,0,0-.286.882l2.927,2.853a.517.517,0,0,1,.149.457l-.691,4.029a.517.517,0,0,0,.75.545l3.618-1.9a.517.517,0,0,1,.481,0l3.618,1.9a.516.516,0,0,0,.75-.545Z" fill="#f9de58"/>
        </g>
      </g>
      <g id="Grupo_90714" data-name="Grupo 90714">
        <path id="Trazado_125509" data-name="Trazado 125509" d="M43.9,31.01a4.658,4.658,0,0,1-.338-1.192,12.207,12.207,0,0,0-.877-3.1.923.923,0,0,0-1.694.732,10.36,10.36,0,0,1,.744,2.632,6.517,6.517,0,0,0,.471,1.663l2,4.618A5.753,5.753,0,0,1,38.985,44.4a8.236,8.236,0,0,0,.8-3.541v-8.49a1.874,1.874,0,0,0-1.835-1.884l-5.22-.138a8.149,8.149,0,0,1-4.9-1.815l-.344-.28a1.539,1.539,0,0,0-2.172.232,9.612,9.612,0,0,0-2.1,5.985v6.39A8.236,8.236,0,0,0,24,44.4a5.753,5.753,0,0,1-5.226-8.042l2-4.618a6.519,6.519,0,0,0,.471-1.664A10.346,10.346,0,0,1,38.9,24.333a.923.923,0,1,0,1.321-1.288,12.192,12.192,0,0,0-20.8,6.773,4.658,4.658,0,0,1-.338,1.192l-2,4.618a7.6,7.6,0,0,0,6.929,10.626,7.875,7.875,0,0,0,1.122-.082A8.345,8.345,0,0,0,27.471,48.1v1.781l-4.717,1.892a8.629,8.629,0,0,0-5.441,8.046v2.255a.923.923,0,0,0,1.845,0V59.823a6.792,6.792,0,0,1,4.283-6.333l4.246-1.7a3.9,3.9,0,0,0,7.369,0l4.247,1.7c.111.045.229.1.371.163a.923.923,0,1,0,.785-1.67c-.175-.082-.324-.148-.469-.206l-4.717-1.893v-1.65a8.338,8.338,0,0,0,2.579-2.063,7.856,7.856,0,0,0,1.122.082A7.6,7.6,0,0,0,45.9,35.628Zm-10.474,19.5a2.055,2.055,0,0,1-4.11,0V48.857a8.247,8.247,0,0,0,4.11.063Zm-1.932-3.2a6.448,6.448,0,0,1-6.441-6.441v-6.39a7.763,7.763,0,0,1,1.507-4.586l.1.081A10,10,0,0,0,32.678,32.2l5.22.138a.039.039,0,0,1,.038.039v8.49A6.449,6.449,0,0,1,31.495,47.3Z"/>
        <path id="Trazado_125510" data-name="Trazado 125510" d="M42.549,54.594a.922.922,0,0,0-.22,1.286,6.788,6.788,0,0,1,1.255,3.942v2.255a.923.923,0,0,0,1.845,0V59.823a8.622,8.622,0,0,0-1.595-5.008.922.922,0,0,0-1.286-.22Z"/>
        <path id="Trazado_125511" data-name="Trazado 125511" d="M14.055,13.817A7.494,7.494,0,0,0,7,13.1a6.878,6.878,0,0,0-3.885,3.859,7.855,7.855,0,0,0-.557,3.486.923.923,0,1,0,1.84-.134,6.024,6.024,0,0,1,.432-2.672,5.027,5.027,0,0,1,2.84-2.82,5.675,5.675,0,0,1,5.342.525,5.521,5.521,0,0,1,1.405,7.737l-.022.033-3.1,4.826a.924.924,0,0,0-.146.5v.42h-.324V24.236A1.842,1.842,0,0,0,12.5,22.4V20.891a1.842,1.842,0,0,0-1.84-1.84H9.148a1.842,1.842,0,0,0-1.84,1.84V22.4a1.842,1.842,0,0,0,1.674,1.832v4.619H8.658v-.42a.924.924,0,0,0-.146-.5L5.691,23.545a.923.923,0,0,0-1.553,1l2.675,4.164v.661a1.325,1.325,0,0,0,.211.717v.955a2.7,2.7,0,0,0,2.692,2.692h.378a2.7,2.7,0,0,0,2.692-2.692v-.955A1.325,1.325,0,0,0,13,29.367v-.661l2.943-4.582a7.366,7.366,0,0,0-1.884-10.307Zm-3.4,7.074.006,1.509-.708,0-.049,0-.056,0-.7,0L9.147,20.9Zm.284,10.148a.848.848,0,0,1-.847.847H9.716a.848.848,0,0,1-.847-.847V30.7H10.94Z"/>
        <path id="Trazado_125512" data-name="Trazado 125512" d="M31.372,16.382a8.191,8.191,0,1,0-8.191-8.191,8.2,8.2,0,0,0,8.191,8.191Zm0-14.536a6.346,6.346,0,1,1-6.346,6.346,6.353,6.353,0,0,1,6.346-6.346Z"/>
        <path id="Trazado_125513" data-name="Trazado 125513" d="M29.749,11.27a.923.923,0,0,0,1.3,0l4.31-4.31a.923.923,0,1,0-1.3-1.3L30.4,9.312l-.621-.621a.923.923,0,1,0-1.3,1.3Z"/>
        <path id="Trazado_125514" data-name="Trazado 125514" d="M60.389,18.351a1.431,1.431,0,0,0-1.162-.98l-3.834-.557-1.715-3.475a1.439,1.439,0,0,0-2.581,0l-1.715,3.475-3.834.557a1.439,1.439,0,0,0-.8,2.455l2.775,2.7-.655,3.819a1.44,1.44,0,0,0,2.089,1.517l3.43-1.8,3.43,1.8A1.439,1.439,0,0,0,57.9,26.349l-.655-3.819,2.774-2.7a1.431,1.431,0,0,0,.364-1.475Zm-4.58,3.007a1.439,1.439,0,0,0-.414,1.274l.552,3.219-2.89-1.52a1.439,1.439,0,0,0-1.34,0l-2.89,1.52.552-3.219a1.439,1.439,0,0,0-.414-1.274l-2.339-2.279,3.232-.47a1.439,1.439,0,0,0,1.083-.787l1.445-2.929,1.445,2.928a1.439,1.439,0,0,0,1.084.788l3.232.47Z"/>
        <path id="Trazado_125515" data-name="Trazado 125515" d="M41.155,11.835a26.859,26.859,0,0,1,4.071,2,.922.922,0,0,0,.656,1.718l1.748-.521a.922.922,0,0,0,.659-.884V12.26a.923.923,0,0,0-1.845,0v.159a28.719,28.719,0,0,0-4.619-2.3.923.923,0,1,0-.671,1.719Z"/>
        <path id="Trazado_125516" data-name="Trazado 125516" d="M16.813,14.107a.918.918,0,0,0,.482-.137,26.981,26.981,0,0,1,2.675-1.441l-.048.18a.923.923,0,1,0,1.783.477l.563-2.108a.922.922,0,0,0-.594-1.112L19.983,9.39a.922.922,0,0,0-.939,1.535A28.832,28.832,0,0,0,16.329,12.4a.923.923,0,0,0,.484,1.709Z"/>
      </g>
    </g>
  </g>
</svg>
