<svg xmlns="http://www.w3.org/2000/svg" xmlns:xlink="http://www.w3.org/1999/xlink" width="63" height="63" viewBox="0 0 63 63">
  <defs>
    <clipPath id="clip-path">
      <rect id="Rectángulo_35405" data-name="Rectángulo 35405" width="63" height="63" transform="translate(-2742 -10196)" fill="#8284d2" stroke="#707070" stroke-width="1"/>
    </clipPath>
  </defs>
  <g id="Enmascarar_grupo_120" data-name="Enmascarar grupo 120" transform="translate(2742 10196)" clip-path="url(#clip-path)">
    <g id="estado-animico" transform="translate(-2742 -10196)">
      <g id="Grupo_90719" data-name="Grupo 90719">
        <path id="Trazado_125529" data-name="Trazado 125529" d="M43.336,59.611H22.623L19.664,47.775H43.336Z" fill="#dad8db"/>
        <path id="Trazado_125530" data-name="Trazado 125530" d="M43.336,47.775H19.664V59.611h2.959V58.224a1.178,1.178,0,0,1,1.653-1.073,18.524,18.524,0,0,0,19.06-2.788V47.775Z" fill="#c8c5c9"/>
        <path id="Trazado_125531" data-name="Trazado 125531" d="M49.254,33.325V28.048A15.782,15.782,0,0,0,33.473,12.266H31.008A15.86,15.86,0,0,0,15.135,28.048l-1.389,5.277a3.445,3.445,0,0,0,1.48,6.56h.493a15.782,15.782,0,1,0,31.563,0h.493a3.445,3.445,0,0,0,1.48-6.56Z" fill="#eceaec"/>
        <path id="Trazado_125532" data-name="Trazado 125532" d="M16.819,39.884h-1.1A15.782,15.782,0,0,0,31.5,55.666c.5,0,.992-.029,1.48-.075a15.784,15.784,0,0,1-14.2-13.921A1.983,1.983,0,0,0,16.819,39.884Z" fill="#dad8db"/>
        <path id="Trazado_125533" data-name="Trazado 125533" d="M29.527,15.225a2.959,2.959,0,0,0,2.959-2.959H29.527A15.782,15.782,0,0,0,13.746,28.048V32.98h.986A1.973,1.973,0,0,0,16.7,31.007V28.048A12.823,12.823,0,0,1,29.527,15.225Z" fill="#dad8db"/>
        <circle id="Elipse_4842" data-name="Elipse 4842" cx="12.823" cy="12.823" r="12.823" transform="translate(0.923 3.389)" fill="#ffc269"/>
        <circle id="Elipse_4843" data-name="Elipse 4843" cx="12.823" cy="12.823" r="12.823" transform="translate(36.432 3.389)" fill="#a4ccff"/>
        <path id="Trazado_125534" data-name="Trazado 125534" d="M16.211,26.568A12.806,12.806,0,0,1,6.005,6.005,12.811,12.811,0,1,0,23.952,23.952a12.75,12.75,0,0,1-7.74,2.617Z" fill="#ffa95f"/>
        <path id="Trazado_125535" data-name="Trazado 125535" d="M51.72,26.568A12.806,12.806,0,0,1,41.514,6.005,12.811,12.811,0,1,0,59.46,23.952a12.75,12.75,0,0,1-7.74,2.617Z" fill="#8bb3ea"/>
      </g>
      <g id="Grupo_90720" data-name="Grupo 90720">
        <path id="Trazado_125536" data-name="Trazado 125536" d="M47.775,32.057a.923.923,0,0,0,0,1.846,2.529,2.529,0,1,1,0,5.059h-.493a.923.923,0,0,0-.923.923,14.859,14.859,0,0,1-29.718,0,.923.923,0,0,0-.923-.923h-.493a2.529,2.529,0,1,1,0-5.059.923.923,0,0,0,0-1.846,4.375,4.375,0,0,0-.406,8.732,16.631,16.631,0,0,0,3.921,9.865v8.958a.923.923,0,0,0,1.846,0V52.52a16.672,16.672,0,0,0,21.827,0v7.091a.923.923,0,0,0,1.846,0V50.653a16.63,16.63,0,0,0,3.921-9.865,4.375,4.375,0,0,0-.406-8.732Z"/>
        <path id="Trazado_125537" data-name="Trazado 125537" d="M30.514,13.189h1.973a.923.923,0,0,0,0-1.846H30.514a.923.923,0,0,0,0,1.846Z"/>
        <path id="Trazado_125538" data-name="Trazado 125538" d="M27.491,16.211A13.746,13.746,0,1,0,13.745,29.957,13.761,13.761,0,0,0,27.491,16.211Zm-25.645,0a11.9,11.9,0,1,1,11.9,11.9,11.913,11.913,0,0,1-11.9-11.9Z"/>
        <path id="Trazado_125539" data-name="Trazado 125539" d="M9.943,14.613a.923.923,0,0,0,1.687-.749A2.982,2.982,0,0,0,8.814,12.33,2.982,2.982,0,0,0,6,13.864a.923.923,0,1,0,1.687.749,1.321,1.321,0,0,1,1.129-.438A1.321,1.321,0,0,1,9.943,14.613Z"/>
        <path id="Trazado_125540" data-name="Trazado 125540" d="M16.33,15.082a.922.922,0,0,0,1.218-.469,1.321,1.321,0,0,1,1.129-.438,1.321,1.321,0,0,1,1.129.438.923.923,0,0,0,1.687-.749,2.982,2.982,0,0,0-2.816-1.535,2.982,2.982,0,0,0-2.816,1.535A.923.923,0,0,0,16.33,15.082Z"/>
        <path id="Trazado_125541" data-name="Trazado 125541" d="M19.543,19.491a.923.923,0,0,0-1.731-.641,4.238,4.238,0,0,1-4.066,2.356A4.238,4.238,0,0,1,9.679,18.85a.923.923,0,1,0-1.731.641,6.014,6.014,0,0,0,5.8,3.562,6.014,6.014,0,0,0,5.8-3.562Z"/>
        <path id="Trazado_125542" data-name="Trazado 125542" d="M49.255,2.466A13.745,13.745,0,1,0,63,16.211,13.761,13.761,0,0,0,49.255,2.466Zm0,25.645a11.9,11.9,0,1,1,11.9-11.9,11.913,11.913,0,0,1-11.9,11.9Z"/>
        <path id="Trazado_125543" data-name="Trazado 125543" d="M56.534,13.4a.923.923,0,0,0-1.218.469,1.674,1.674,0,0,1-2.259,0,.923.923,0,0,0-1.687.749,3.351,3.351,0,0,0,5.632,0,.923.923,0,0,0-.469-1.218Z"/>
        <path id="Trazado_125544" data-name="Trazado 125544" d="M47.139,14.613a.923.923,0,1,0-1.687-.749,1.674,1.674,0,0,1-2.259,0,.923.923,0,0,0-1.687.749,3.351,3.351,0,0,0,5.632,0Z"/>
        <path id="Trazado_125545" data-name="Trazado 125545" d="M49.254,19.234c-2.661,0-4.913.961-5.739,2.448a.923.923,0,1,0,1.614.9c.4-.726,1.986-1.5,4.125-1.5s3.722.772,4.125,1.5a.923.923,0,1,0,1.614-.9c-.825-1.487-3.078-2.448-5.739-2.448Z"/>
      </g>
    </g>
  </g>
</svg>
