<svg xmlns="http://www.w3.org/2000/svg" xmlns:xlink="http://www.w3.org/1999/xlink" width="63" height="63" viewBox="0 0 63 63">
  <defs>
    <clipPath id="clip-path">
      <rect id="Rect치ngulo_35425" data-name="Rect치ngulo 35425" width="63" height="63" transform="translate(-2238 -9089)" fill="#b0c0d2" stroke="#707070" stroke-width="1"/>
    </clipPath>
  </defs>
  <g id="Enmascarar_grupo_151" data-name="Enmascarar grupo 151" transform="translate(2238 9089)" clip-path="url(#clip-path)">
    <g id="FILLED_OUTLINE" data-name="FILLED OUTLINE" transform="translate(-2240.024 -9091.058)">
      <path id="Trazado_125807" data-name="Trazado 125807" d="M30.341,26.617,27.457,15.862a2.1,2.1,0,0,0-1.539-1.5l-11.6-2.771a2.1,2.1,0,0,0-1.93.518l-8.659,8.2a2.1,2.1,0,0,0-.583,2.066L6.029,33.136a2.1,2.1,0,0,0,1.539,1.5l11.6,2.771a2.1,2.1,0,0,0,1.93-.518l8.659-8.2a2.1,2.1,0,0,0,.583-2.066Z" fill="#57b584"/>
      <path id="Trazado_125808" data-name="Trazado 125808" d="M30.341,26.617,27.457,15.862a2.1,2.1,0,0,0-.617-1.009l-9.269,8.856a2.1,2.1,0,0,1-.942.517L20.163,37.4a2.1,2.1,0,0,0,.936-.512l8.659-8.2a2.1,2.1,0,0,0,.583-2.066Z" fill="#4aa071"/>
      <path id="Trazado_125809" data-name="Trazado 125809" d="M25.918,14.365l-11.6-2.771a2.1,2.1,0,0,0-1.93.518l-8.659,8.2a2.1,2.1,0,0,0-.56.9l12.462,3.013a2.1,2.1,0,0,0,1.94-.52l9.269-8.856a2.094,2.094,0,0,0-.922-.488Z" fill="#5dc691"/>
      <path id="Trazado_125810" data-name="Trazado 125810" d="M63.087,13.963,54.549,3.883a2.1,2.1,0,0,0-1.913-.718L39.574,5.132a2.1,2.1,0,0,0-1.651,1.337L33.443,18.4a2.1,2.1,0,0,0,.363,2.093l8.538,10.079a2.1,2.1,0,0,0,1.913.718l13.062-1.967a2.1,2.1,0,0,0,1.651-1.337l4.481-11.93a2.1,2.1,0,0,0-.363-2.093Z" fill="#1f3f66"/>
      <path id="Trazado_125811" data-name="Trazado 125811" d="M47.783,16.089,38.76,5.438a2.1,2.1,0,0,0-.837,1.031L33.443,18.4a2.1,2.1,0,0,0,.363,2.093l8.538,10.079a2.1,2.1,0,0,0,.891.617L48.666,16.7a2.1,2.1,0,0,1-.883-.615Z" fill="#234575"/>
      <path id="Trazado_125812" data-name="Trazado 125812" d="M63.087,13.963,54.549,3.883a2.1,2.1,0,0,0-1.913-.718L39.574,5.132a2.1,2.1,0,0,0-.814.306l9.023,10.651a2.1,2.1,0,0,0,1.913.718l13.8-2.079a2.094,2.094,0,0,0-.412-.766Z" fill="#27498c"/>
      <rect id="Rect치ngulo_35435" data-name="Rect치ngulo 35435" width="11.537" height="17.829" rx="2.098" transform="translate(52.439 46.146)" fill="#234575"/>
      <path id="Trazado_125813" data-name="Trazado 125813" d="M56.634,46.146h2.1v9.439h-2.1Z" fill="#1c3b54"/>
      <path id="Trazado_125814" data-name="Trazado 125814" d="M56.634,57.683h2.1v3.146h-2.1Z" fill="#1c3b54"/>
      <path id="Trazado_125815" data-name="Trazado 125815" d="M2.1,51.39H4.2v7.341H2.1Z" fill="#e5e1dc"/>
      <path id="Trazado_125816" data-name="Trazado 125816" d="M6.293,56.634h2.1v5.244h-2.1Z" fill="#e5e1dc"/>
      <path id="Trazado_125817" data-name="Trazado 125817" d="M10.488,60.829h2.1v4.2h-2.1Z" fill="#e5e1dc"/>
      <path id="Trazado_125818" data-name="Trazado 125818" d="M28.756,43.579a4.2,4.2,0,0,0-4.49-2.076l-2.243.393a4.186,4.186,0,0,1,1.471,1.455l4.442,7.4,4.4-.733Z" fill="#b59191"/>
      <path id="Trazado_125819" data-name="Trazado 125819" d="M23.494,43.352a4.2,4.2,0,0,0-4.287-1.98l-3.254.542A4.189,4.189,0,0,1,17.3,43.148l5.865,8.4,4.767-.795Z" fill="#c69e9e"/>
      <path id="Trazado_125820" data-name="Trazado 125820" d="M16.3,50.4a4.2,4.2,0,0,0,4.046,1.621l2.824-.471-.1-.159L17.3,43.148a4.2,4.2,0,0,0-4.26-1.708l-3.016.6c.014.018.029.033.042.051Z" fill="#e2b5b3"/>
      <path id="Trazado_125821" data-name="Trazado 125821" d="M52.439,49.293l-8.39-3.146-3.244-7.3a3.6,3.6,0,0,0-6.712,2.6l2.614,7.842L20.345,52.02A4.2,4.2,0,0,1,16.3,50.4l-6.228-8.3a3.11,3.11,0,0,0-5.037,3.647c2.278,3.277,5.931,8.552,7.145,10.305a2.1,2.1,0,0,0,1.089.8L35.22,63.836a2.1,2.1,0,0,0,.9.083l16.323-2.04Z" fill="#f2c1bd"/>
      <path id="Trazado_125822" data-name="Trazado 125822" d="M51.163,6.154h2.1v2.1h-2.1Z" transform="matrix(0.352, -0.936, 0.936, 0.352, 27.113, 53.549)" fill="#336baf"/>
      <path id="Trazado_125823" data-name="Trazado 125823" d="M48.95,12.045h2.1v2.1h-2.1Z" transform="matrix(0.352, -0.936, 0.936, 0.352, 20.161, 55.296)" fill="#336baf"/>
      <path id="Trazado_125824" data-name="Trazado 125824" d="M39.5,16.336h2.1v2.1H39.5Z" transform="matrix(0.352, -0.936, 0.936, 0.352, 10.014, 49.228)" fill="#2b6299"/>
      <path id="Trazado_125825" data-name="Trazado 125825" d="M48.452,25.3h2.1v2.1h-2.1Z" transform="matrix(0.352, -0.936, 0.936, 0.352, 7.43, 63.428)" fill="#205682"/>
      <path id="Trazado_125826" data-name="Trazado 125826" d="M51.891,22.112h2.1v2.1h-2.1Z" transform="matrix(0.352, -0.936, 0.936, 0.352, 12.646, 64.578)" fill="#205682"/>
      <path id="Trazado_125827" data-name="Trazado 125827" d="M56.311,19.291h2.1v2.1h-2.1Z" transform="matrix(0.352, -0.936, 0.936, 0.352, 18.151, 66.885)" fill="#205682"/>
      <path id="Trazado_125828" data-name="Trazado 125828" d="M13.523,15.347h2.1v2.1h-2.1Z" transform="translate(-3.75 4.334) rotate(-15.009)" fill="#66d9a3"/>
      <path id="Trazado_125829" data-name="Trazado 125829" d="M14.609,19.4h2.1v2.1h-2.1Z" transform="translate(-4.762 4.754) rotate(-15.009)" fill="#66d9a3"/>
      <path id="Trazado_125830" data-name="Trazado 125830" d="M46.129,7.624h2.1v2.1h-2.1Z" transform="matrix(0.352, -0.936, 0.936, 0.352, 22.47, 49.789)" fill="#336baf"/>
      <path id="Trazado_125831" data-name="Trazado 125831" d="M53.984,10.574h2.1v2.1h-2.1Z" transform="matrix(0.352, -0.936, 0.936, 0.352, 24.801, 59.054)" fill="#336baf"/>
      <path id="Trazado_125832" data-name="Trazado 125832" d="M50.056,9.1h2.1v2.1h-2.1Z" transform="matrix(0.352, -0.936, 0.936, 0.352, 23.635, 54.422)" fill="#336baf"/>
      <g id="Grupo_90782" data-name="Grupo 90782">
        <path id="Trazado_125833" data-name="Trazado 125833" d="M10.433,28.122h2.1v2.1h-2.1Z" transform="translate(-7.163 3.969) rotate(-15.009)" fill="#5dc691"/>
        <path id="Trazado_125834" data-name="Trazado 125834" d="M20.564,25.405h2.1v2.1h-2.1Z" transform="translate(-6.114 6.501) rotate(-15.009)" fill="#5dc691"/>
        <path id="Trazado_125835" data-name="Trazado 125835" d="M23.8,21.279h2.1v2.1H23.8Z" transform="translate(-4.935 7.198) rotate(-15.009)" fill="#5dc691"/>
        <path id="Trazado_125836" data-name="Trazado 125836" d="M21.65,29.457h2.1v2.1h-2.1Z" transform="translate(-7.127 6.921) rotate(-15.009)" fill="#5dc691"/>
        <path id="Trazado_125837" data-name="Trazado 125837" d="M24.888,25.331h2.1v2.1h-2.1Z" transform="translate(-5.947 7.617) rotate(-15.009)" fill="#5dc691"/>
      </g>
      <path id="Trazado_125838" data-name="Trazado 125838" d="M61.878,45.1H54.537a3.151,3.151,0,0,0-3.113,2.694l-6.595-2.473-3.065-6.9A4.652,4.652,0,0,0,33.1,41.782l2.226,6.678-2.432.405-3.22-5.8a5.226,5.226,0,0,0-5.612-2.6l-1.782.356a5.233,5.233,0,0,0-3.243-.494l-2.91.485a5.239,5.239,0,0,0-3.287-.411L10.4,40.9a4.16,4.16,0,0,0-6.227,5.44c2.3,3.3,6.049,8.722,7.144,10.3a3.161,3.161,0,0,0,1.633,1.207L34.9,64.835a3.165,3.165,0,0,0,.957.148,3.123,3.123,0,0,0,.387-.024l15.367-1.921a3.151,3.151,0,0,0,2.924,1.986h7.341a3.15,3.15,0,0,0,3.146-3.146V48.244A3.15,3.15,0,0,0,61.878,45.1ZM24.471,42.532a3.136,3.136,0,0,1,3.367,1.557L30.7,49.231l-2.228.371-4.074-6.791c-.048-.08-.1-.158-.15-.235Zm-5.092-.125a3.128,3.128,0,0,1,3.215,1.485l3.649,6.082-2.581.43L18.2,42.6Zm-6.13.062a3.146,3.146,0,0,1,3.195,1.281l4.925,7.036-1.2.2a3.134,3.134,0,0,1-3.034-1.216l-5.269-7.025ZM51.39,60.952l-15.4,1.926a1.041,1.041,0,0,1-.448-.041L13.585,55.852a1.053,1.053,0,0,1-.544-.4c-1.1-1.582-4.849-7-7.146-10.306a2.061,2.061,0,1,1,3.337-2.419l6.228,8.3a5.226,5.226,0,0,0,5.057,2.026L27.4,51.907l.014.023.059-.035,8.734-1.456,3.819,5.728L41.775,55l-4.117-6.176-2.57-7.709a2.555,2.555,0,0,1,4.758-1.846l3.423,7.7L51.39,50.02Zm11.537.926a1.05,1.05,0,0,1-1.049,1.049H54.537a1.05,1.05,0,0,1-1.049-1.049V48.244A1.05,1.05,0,0,1,54.537,47.2h2.1v8.39h2.1V47.2h3.146a1.05,1.05,0,0,1,1.049,1.049Z"/>
      <path id="Trazado_125839" data-name="Trazado 125839" d="M56.634,57.683h2.1v3.146h-2.1Z"/>
      <path id="Trazado_125840" data-name="Trazado 125840" d="M2.1,51.39H4.2v7.341H2.1Z"/>
      <path id="Trazado_125841" data-name="Trazado 125841" d="M6.293,56.634h2.1v5.244h-2.1Z"/>
      <path id="Trazado_125842" data-name="Trazado 125842" d="M10.488,60.829h2.1v4.2h-2.1Z"/>
      <path id="Trazado_125843" data-name="Trazado 125843" d="M41.543,31.249a3.123,3.123,0,0,0,2.393,1.113,3.212,3.212,0,0,0,.477-.036l13.062-1.967a3.149,3.149,0,0,0,2.477-2.005l4.48-11.93a3.149,3.149,0,0,0-.545-3.14L55.35,3.205A3.128,3.128,0,0,0,52.48,2.128L39.418,4.095A3.148,3.148,0,0,0,36.941,6.1L32.461,18.03a3.149,3.149,0,0,0,.545,3.14Zm16.445-3.632a1.049,1.049,0,0,1-.826.668L44.709,30.16l4.613-12.282h.053a3.216,3.216,0,0,0,.477-.036L62.366,15.96ZM52.793,4.2a1.058,1.058,0,0,1,.159-.012,1.041,1.041,0,0,1,.8.371l7.945,9.379L49.539,15.77a1.04,1.04,0,0,1-.956-.359L40.638,6.032ZM34.424,18.767,38.8,7.11l8.18,9.657a3.2,3.2,0,0,0,.376.375L42.746,29.423l-8.14-9.609a1.05,1.05,0,0,1-.182-1.047Z"/>
      <path id="Trazado_125844" data-name="Trazado 125844" d="M51.163,6.154h2.1v2.1h-2.1Z" transform="matrix(0.352, -0.936, 0.936, 0.352, 27.113, 53.549)"/>
      <path id="Trazado_125845" data-name="Trazado 125845" d="M48.95,12.045h2.1v2.1h-2.1Z" transform="matrix(0.352, -0.936, 0.936, 0.352, 20.161, 55.296)"/>
      <path id="Trazado_125846" data-name="Trazado 125846" d="M39.5,16.336h2.1v2.1H39.5Z" transform="matrix(0.352, -0.936, 0.936, 0.352, 10.014, 49.228)"/>
      <path id="Trazado_125847" data-name="Trazado 125847" d="M48.452,25.3h2.1v2.1h-2.1Z" transform="matrix(0.352, -0.936, 0.936, 0.352, 7.43, 63.428)"/>
      <path id="Trazado_125848" data-name="Trazado 125848" d="M51.891,22.112h2.1v2.1h-2.1Z" transform="matrix(0.352, -0.936, 0.936, 0.352, 12.646, 64.578)"/>
      <path id="Trazado_125849" data-name="Trazado 125849" d="M56.311,19.291h2.1v2.1h-2.1Z" transform="matrix(0.352, -0.936, 0.936, 0.352, 18.151, 66.885)"/>
      <path id="Trazado_125850" data-name="Trazado 125850" d="M5.017,33.408a3.143,3.143,0,0,0,2.308,2.245l11.6,2.771a3.139,3.139,0,0,0,2.895-.776l8.658-8.2a3.144,3.144,0,0,0,.875-3.1L28.47,15.59a3.143,3.143,0,0,0-2.308-2.245l-11.6-2.771a3.135,3.135,0,0,0-2.895.776l-8.659,8.2a3.143,3.143,0,0,0-.875,3.1ZM26.566,16.586l2.763,10.3a1.048,1.048,0,0,1-.292,1.033L20.832,35.7,17.9,24.781a3.167,3.167,0,0,0,.39-.313ZM13.109,12.873a1.046,1.046,0,0,1,.965-.259l10.891,2.6L16.848,22.95a1.044,1.044,0,0,1-.97.26L4.98,20.574Zm2.276,12.376a3.178,3.178,0,0,0,.5.078l2.926,10.912L7.812,33.613a1.048,1.048,0,0,1-.769-.748L4.28,22.562Z"/>
      <path id="Trazado_125851" data-name="Trazado 125851" d="M13.523,15.347h2.1v2.1h-2.1Z" transform="translate(-3.749 4.334) rotate(-15.009)"/>
      <path id="Trazado_125852" data-name="Trazado 125852" d="M14.609,19.4h2.1v2.1h-2.1Z" transform="translate(-4.762 4.753) rotate(-15.009)"/>
      <path id="Trazado_125853" data-name="Trazado 125853" d="M46.129,7.624h2.1v2.1h-2.1Z" transform="matrix(0.352, -0.936, 0.936, 0.352, 22.47, 49.789)"/>
      <path id="Trazado_125854" data-name="Trazado 125854" d="M53.984,10.574h2.1v2.1h-2.1Z" transform="matrix(0.352, -0.936, 0.936, 0.352, 24.801, 59.054)"/>
      <path id="Trazado_125855" data-name="Trazado 125855" d="M50.056,9.1h2.1v2.1h-2.1Z" transform="matrix(0.352, -0.936, 0.936, 0.352, 23.635, 54.422)"/>
      <path id="Trazado_125856" data-name="Trazado 125856" d="M10.433,28.122h2.1v2.1h-2.1Z" transform="translate(-7.163 3.969) rotate(-15.009)"/>
      <path id="Trazado_125857" data-name="Trazado 125857" d="M20.564,25.405h2.1v2.1h-2.1Z" transform="translate(-6.114 6.501) rotate(-15.009)"/>
      <path id="Trazado_125858" data-name="Trazado 125858" d="M23.8,21.279h2.1v2.1H23.8Z" transform="translate(-4.935 7.198) rotate(-15.009)"/>
      <path id="Trazado_125859" data-name="Trazado 125859" d="M21.65,29.457h2.1v2.1h-2.1Z" transform="translate(-7.126 6.92) rotate(-15.009)"/>
      <path id="Trazado_125860" data-name="Trazado 125860" d="M24.888,25.331h2.1v2.1h-2.1Z" transform="translate(-5.946 7.616) rotate(-15.009)"/>
    </g>
  </g>
</svg>
