<svg xmlns="http://www.w3.org/2000/svg" xmlns:xlink="http://www.w3.org/1999/xlink" width="85" height="85" viewBox="0 0 85 85">
  <defs>
    <clipPath id="clip-path">
      <rect id="Rectángulo_35205" data-name="Rectángulo 35205" width="85" height="85" transform="translate(180 1456)" fill="#fff" stroke="#707070" stroke-width="1"/>
    </clipPath>
  </defs>
  <g id="Grupo_94068" data-name="Grupo 94068" transform="translate(-170 -2165)">
    <circle id="Elipse_4782" data-name="Elipse 4782" cx="42.5" cy="42.5" r="42.5" transform="translate(170 2165)" fill="#ffd947"/>
    <g id="Enmascarar_grupo_91" data-name="Enmascarar grupo 91" transform="translate(-10 709)" clip-path="url(#clip-path)">
      <g id="patio-de-recreo" transform="translate(180 1457.938)">
        <path id="Trazado_121587" data-name="Trazado 121587" d="M29.632,26.263l-4.321.023a4.2,4.2,0,0,0-6.284-2.839,5.2,5.2,0,0,0-6.7-2.069A6.1,6.1,0,0,0,1.5,25.262q0,.125.006.251a5.412,5.412,0,0,0,5.469,5.1l11.452-.061,5.717-.03,5.576-.03a2.117,2.117,0,0,0,2.105-2.168,2.163,2.163,0,0,0-2.2-2.066Z" fill="#26a6fe"/>
        <path id="Trazado_121588" data-name="Trazado 121588" d="M83.648,55.459A22.412,22.412,0,0,0,56.377,65.977a11.193,11.193,0,0,0-15.6,9.935l42.98-.228Z" fill="#00c27a"/>
        <path id="Trazado_121589" data-name="Trazado 121589" d="M61.161,59.833a11.745,11.745,0,1,0-3.207-5.165" fill="#46cc8d"/>
        <path id="Trazado_121590" data-name="Trazado 121590" d="M57.954,54.669a11.779,11.779,0,0,0,3.207,5.164" fill="#46cc8d"/>
        <path id="Trazado_121591" data-name="Trazado 121591" d="M69.171,39.468a11.831,11.831,0,0,0-2.431.266,11.783,11.783,0,0,1,.008,23.034,11.782,11.782,0,1,0,2.423-23.3Z" fill="#00c27a"/>
        <path id="Trazado_121592" data-name="Trazado 121592" d="M79.914,74.673l-13.671.073a6.437,6.437,0,0,1-5.608-3.018L49,52.123a5.355,5.355,0,0,0-4.632-2.507l-6.946,0,0-6.06,10.293-.007a6.438,6.438,0,0,1,5.575,3.018l11.629,19.59a5.358,5.358,0,0,0,4.658,2.507l10.3-.055Z" fill="#60b7ff"/>
        <path id="Trazado_121593" data-name="Trazado 121593" d="M24.694,15.555l-9.1,11.613,21.726-.115L28.092,15.537a2.168,2.168,0,0,0-3.4.018l-9.1,11.613,21.726-.115L28.092,15.537a2.168,2.168,0,0,0-3.4.018Z" fill="#fd4755"/>
        <path id="Trazado_121594" data-name="Trazado 121594" d="M15.7,44.432H37.423v4.745H15.7Z" transform="translate(-0.248 0.142) rotate(-0.286)" fill="#593636"/>
        <path id="Trazado_121595" data-name="Trazado 121595" d="M15.637,27.111H37.364V44.432H15.637Z" transform="translate(-0.19 0.141) rotate(-0.286)" fill="#ae6c6c"/>
        <path id="Trazado_121596" data-name="Trazado 121596" d="M37.317,27.053l-4.98.026.092,17.295-16.746.089v.026l21.726-.115Z" fill="#9b5e5e"/>
        <circle id="Elipse_4780" data-name="Elipse 4780" cx="4.304" cy="4.304" r="4.304" transform="matrix(0.237, -0.972, 0.972, 0.237, 21.324, 38.677)" fill="#0172fb"/>
        <circle id="Elipse_4781" data-name="Elipse 4781" cx="4.304" cy="4.304" r="4.304" transform="matrix(0.237, -0.972, 0.972, 0.237, 21.324, 38.677)" fill="#593636"/>
        <path id="Trazado_121597" data-name="Trazado 121597" d="M82.514,79.454l-80,.425a1.248,1.248,0,0,1-1.254-1.241l-.012-2.172a1.248,1.248,0,0,1,1.241-1.254l80-.425a1.248,1.248,0,0,1,1.254,1.241l.011,2.172A1.247,1.247,0,0,1,82.514,79.454Z" fill="#d9e7ec"/>
        <path id="Trazado_121598" data-name="Trazado 121598" d="M7.5,68.428c.028,5.295,2.36,5.359,5.236,5.344s5.207-.1,5.179-5.4-2.4-13.655-5.28-13.64S7.47,63.134,7.5,68.428Z" fill="#08b865"/>
        <path id="Trazado_121599" data-name="Trazado 121599" d="M18.682,69.077a3.639,3.639,0,0,0-1.352.267,4.275,4.275,0,0,0-5.008-1.117,5.566,5.566,0,1,0-8.336,7.02l17.441-.093a3.65,3.65,0,0,0-2.745-6.078Z" fill="#6ed5a1"/>
        <path id="Trazado_121600" data-name="Trazado 121600" d="M74.062,13.577l-3.414.018a4.376,4.376,0,0,0-4.4-2.128,7.595,7.595,0,0,0-14.99.044,4.42,4.42,0,0,0-4.306,4.441c0,.01,0,.02,0,.031a2.732,2.732,0,0,0,2.763,2.667l11.187-.059,9.439-.05,3.743-.02a2.471,2.471,0,1,0-.026-4.943Z" fill="#8ac9fe"/>
        <path id="Trazado_121601" data-name="Trazado 121601" d="M73.992,13.577l-3.344.018a4.376,4.376,0,0,0-4.4-2.128,7.593,7.593,0,0,0-12.975-4c.153-.01.307-.017.463-.018a7.6,7.6,0,0,1,7.411,5.76.742.742,0,0,0,.688.543,4.406,4.406,0,0,1,3.171,1.317,2.789,2.789,0,0,0,2,.846l2.074-.011a2.471,2.471,0,0,1,2.485,2.458c0,.059,0,.116-.008.174l2.529-.013a2.472,2.472,0,0,0,2.455-2.6,2.517,2.517,0,0,0-2.551-2.339Z" fill="#60b7ff"/>
        <path id="Trazado_121602" data-name="Trazado 121602" fill="none" stroke="#000" stroke-linecap="round" stroke-linejoin="round" stroke-miterlimit="10" stroke-width="2.49"/>
        <path id="Trazado_121603" data-name="Trazado 121603" d="M26.529,41.053A5.547,5.547,0,0,0,26.5,29.959h-.03A5.547,5.547,0,0,0,26.5,41.053h.031Zm-3.087-5.531a3.057,3.057,0,0,1,3.041-3.073H26.5a3.057,3.057,0,0,1,.016,6.114H26.5a3.057,3.057,0,0,1-3.057-3.041Z"/>
        <path id="Trazado_121604" data-name="Trazado 121604" d="M84.893,55.452a1.245,1.245,0,0,0-.826-1.165c-.664-.237-1.344-.445-2.029-.622a13.038,13.038,0,0,0-12.8-15.442h-.07A13.03,13.03,0,0,0,56.353,49.291l-1.992-3.356a7.687,7.687,0,0,0-6.641-3.628h-.346l-.03-5.668,2.06-.011a1.245,1.245,0,0,0-.013-2.49L38.6,34.2s-.057-7.354-.059-7.364a1.249,1.249,0,0,0-.046-.18l-.008-.021a1.238,1.238,0,0,0-.191-.346l-.007-.011L29.063,14.758a3.385,3.385,0,0,0-2.681-1.279c-.056,0-.113,0-.168,0a3.392,3.392,0,0,0-2.479,1.277l-.02.025h0l-5,6.382a6.428,6.428,0,0,0-4.17-1.531h-.035a6.4,6.4,0,0,0-1.844.278A7.3,7.3,0,0,0,7.6,17.889h-.04a7.35,7.35,0,0,0-7.3,7.381q0,.149.007.3a6.623,6.623,0,0,0,6.682,6.294h.037l7.4-.039.025,2.821a1.245,1.245,0,0,0,2.49-.022l-.055-6.216,19.232-.1.079,14.832-19.236.1L16.9,39.607a1.245,1.245,0,0,0-1.245-1.238h-.007a1.245,1.245,0,0,0-1.238,1.252l.026,4.876.025,4.745s0,0,0,.007,0,0,0,.006l.077,4.921a3.081,3.081,0,0,0-1.9-.686h-.016c-3.968.021-5.6,8.155-6.01,10.621A6.814,6.814,0,0,0,1.471,74.186,2.488,2.488,0,0,0,0,76.472l.011,2.172A2.5,2.5,0,0,0,2.5,81.123h.013l80-.425A2.5,2.5,0,0,0,85,78.193Zm-2.485.9L82.5,73.542h-.019l-1.329.007-.026-4.941a1.245,1.245,0,0,0-1.252-1.238l-9.443.05-.017-3.2A13.043,13.043,0,0,0,81.346,56.06c.356.091.711.188,1.062.3ZM36.171,45.626l.005.967V47.88l-5.3.028h-.008l-9.167.049h0l-4.75.025-.012-2.255ZM29.678,58.445l-6.667.035-.018-2.775,6.67-.035ZM23.027,60.97l6.664-.035.015,2.775-6.661.035Zm6.623-7.79-6.673.035-.018-2.775,6.676-.035Zm-10.5,14.673a31.018,31.018,0,0,0-1.632-8.7c-.138-.4-.28-.772-.426-1.128l-.118-7.553,3.5-.019.115,17.755a4.852,4.852,0,0,0-1.436-.356Zm3.936,2.7c0-.032,0-.064,0-.1l-.027-4.219,6.658-.035.041,7.622-6.295.034a4.882,4.882,0,0,0-.38-3.3Zm9.165,3.258-.124-23.416L36.2,50.37l.124,23.416Zm6.561-.035-.122-22.909,5.678,0h0a4.1,4.1,0,0,1,3.557,1.9l6.748,11.368a12.612,12.612,0,0,0-2.779-.3,12.444,12.444,0,0,0-12.118,9.943Zm13.1-7.458a9.949,9.949,0,0,1,3.975.806,1.238,1.238,0,0,0,.624.093l3.057,5.149a7.019,7.019,0,0,0,.995,1.294l-18.224.1A9.955,9.955,0,0,1,51.91,66.315Zm16.031.815a3.848,3.848,0,0,1-1.951-1.6l-1.2-2.03a12.965,12.965,0,0,0,3.14.716Zm2.5,2.779,8.2-.044.019,3.57-8.2.043ZM58.7,51.306A10.538,10.538,0,0,1,69.177,40.713h.057A10.538,10.538,0,0,1,70.4,61.723l-.038-7.083,3.2-3.229a1.245,1.245,0,0,0-1.77-1.751l-1.444,1.459-.009-1.789a1.245,1.245,0,1,0-2.49.013l.027,5.036-1.347-1.333a1.245,1.245,0,1,0-1.751,1.77L67.891,57.9l.02,3.8a10.478,10.478,0,0,1-5.772-2.664l-3.148-5.3a10.586,10.586,0,0,1-.3-2.43ZM47.716,44.8h0a5.19,5.19,0,0,1,4.5,2.409l7.844,13.214c.015.028.031.055.048.082L63.848,66.8a6.44,6.44,0,0,0,4.105,2.931l.02,3.764-1.737.009h-.031a5.186,5.186,0,0,1-4.5-2.409L50.068,51.487a6.6,6.6,0,0,0-5.7-3.117h0l-5.689,0-.009-1.787V44.8ZM44.884,42.31H43.016l-.03-5.648,1.868-.01ZM40.5,36.677l.03,5.636H38.643l-.03-5.628ZM25.674,16.323a.908.908,0,0,1,.721-.353.921.921,0,0,1,.725.346l7.616,9.506-16.576.088Zm-18.7,13.05a4.187,4.187,0,0,1-4.219-3.914c0-.068,0-.136-.005-.2a4.857,4.857,0,0,1,4.825-4.877H7.6a4.834,4.834,0,0,1,3.76,1.787,1.245,1.245,0,0,0,1.5.339,3.953,3.953,0,0,1,4.318.627L14.612,26.4l-.008.013a1.237,1.237,0,0,0-.1.15l-.011.018a1.227,1.227,0,0,0-.073.166l-.012.034c-.018.056-.043,2.552-.043,2.552ZM10.731,58.5c.811-1.846,1.586-2.518,1.908-2.52h0c.439,0,1.511,1.083,2.524,3.993a29.192,29.192,0,0,1,1.459,7.253,5.51,5.51,0,0,0-2.542-.621h-.03a5.5,5.5,0,0,0-1.211.14,6.8,6.8,0,0,0-3.731-2.47A25.238,25.238,0,0,1,10.731,58.5ZM7.4,66.551h.023a4.318,4.318,0,0,1,3.8,2.269,1.245,1.245,0,0,0,1.608.542,3.03,3.03,0,0,1,3.55.792A1.246,1.246,0,0,0,17.8,70.5a2.391,2.391,0,0,1,.891-.176H18.7a2.4,2.4,0,0,1,2.116,3.547L4.4,73.956a4.319,4.319,0,0,1,3-7.405ZM82.507,78.209,2.5,78.631l-.009-2.175L3.68,76.45a1.24,1.24,0,0,0,.306.043h.007L82.5,76.034l.011,2.175h0Z"/>
        <path id="Trazado_121605" data-name="Trazado 121605" d="M49.7,19.895h.022l6.867-.036a1.245,1.245,0,0,0-.006-2.49h-.007l-6.867.036H49.7a1.485,1.485,0,0,1-1.5-1.442v-.017a3.192,3.192,0,0,1,3.094-3.189,1.245,1.245,0,0,0,1.2-1.048,6.323,6.323,0,0,1,6.235-5.341h.035a6.317,6.317,0,0,1,6.262,5.3A1.245,1.245,0,0,0,66.417,12.7a3.208,3.208,0,0,1,.408-.032h.017a3.193,3.193,0,0,1,2.735,1.561,1.245,1.245,0,0,0,1.071.61h.007l3.414-.018h.007a1.227,1.227,0,0,1,.006,2.453l-13.182.07a1.245,1.245,0,0,0-.037,2.489l.66.023a1.253,1.253,0,0,0,.306-.027l12.266-.065a3.716,3.716,0,0,0-.019-7.433h-.02l-2.757.015a5.7,5.7,0,0,0-4.063-2.154,8.792,8.792,0,0,0-8.473-6.316h-.049a8.8,8.8,0,0,0-8.481,6.506,5.7,5.7,0,0,0-4.522,5.579V16a3.979,3.979,0,0,0,3.992,3.9Z"/>
      </g>
    </g>
  </g>
</svg>
