<svg xmlns="http://www.w3.org/2000/svg" xmlns:xlink="http://www.w3.org/1999/xlink" width="56" height="56" viewBox="0 0 56 56">
  <defs>
    <clipPath id="clip-path">
      <rect id="Rectángulo_35800" data-name="Rectángulo 35800" width="56" height="56" transform="translate(810 5880)" fill="#fff" stroke="#707070" stroke-width="1"/>
    </clipPath>
  </defs>
  <g id="_70" data-name="70" transform="translate(-810 -5880)" clip-path="url(#clip-path)">
    <g id="cubos-de-azucar" transform="translate(810 5880)">
      <path id="Trazado_127293" data-name="Trazado 127293" d="M51.652,23H4.348a1.366,1.366,0,0,0-1.366,1.366v2.863a1.366,1.366,0,0,0,1.366,1.366h47.3a1.366,1.366,0,0,0,1.366-1.366V24.363A1.366,1.366,0,0,0,51.652,23Z" fill="#75cef9"/>
      <path id="Trazado_127294" data-name="Trazado 127294" d="M50.582,28.593H5.418A22.589,22.589,0,0,0,19.347,49.457a.91.91,0,0,1,.535,1.07L18.871,54.4a.62.62,0,0,0,.6.777H36.529a.62.62,0,0,0,.6-.777l-1.01-3.876a.91.91,0,0,1,.535-1.07A22.589,22.589,0,0,0,50.582,28.593Z" fill="#75cef9"/>
      <path id="Trazado_127295" data-name="Trazado 127295" d="M51.652,23H48.644v.076a3.332,3.332,0,0,1-3.333,3.333H2.981v.821a1.366,1.366,0,0,0,1.366,1.366h47.3a1.366,1.366,0,0,0,1.366-1.366V24.363A1.367,1.367,0,0,0,51.652,23Z" fill="#6bbef6"/>
      <path id="Trazado_127296" data-name="Trazado 127296" d="M36.653,49.457A22.589,22.589,0,0,0,50.582,28.593H46.1A22.6,22.6,0,0,1,33.594,46.673a2.778,2.778,0,0,0-1.452,3.194,2.5,2.5,0,0,1-2.416,3.125H19.239L18.871,54.4a.62.62,0,0,0,.6.777H36.528a.62.62,0,0,0,.6-.777l-1.01-3.876a.91.91,0,0,1,.534-1.07Z" fill="#6bbef6"/>
      <g id="Grupo_93471" data-name="Grupo 93471">
        <path id="Trazado_127297" data-name="Trazado 127297" d="M14.421,10.952l6.111,3.528a1.4,1.4,0,0,1,.7,1.216V13.662a1.4,1.4,0,0,1,1.4-1.4h6.148l-.009-.036L26,1.859A1.4,1.4,0,0,0,24.279.868L13.914,3.646a1.4,1.4,0,0,0-.991,1.716Z" fill="#f4fbff"/>
        <path id="Trazado_127298" data-name="Trazado 127298" d="M28.773,12.225l.009.036h4.583a1.4,1.4,0,0,1,1.4,1.4V15.7a1.4,1.4,0,0,1,.7-1.216l6.111-3.528,1.5-5.59a1.4,1.4,0,0,0-.991-1.716L31.721.868A1.4,1.4,0,0,0,30,1.859l-2,7.48Z" fill="#f4fbff"/>
        <path id="Trazado_127299" data-name="Trazado 127299" d="M4.472,20.835,8.215,23h9.018l3.812-6.6a1.4,1.4,0,0,0-.513-1.914L11.239,9.115a1.4,1.4,0,0,0-1.914.513L3.959,18.921a1.4,1.4,0,0,0,.513,1.914Z" fill="#f4fbff"/>
        <path id="Trazado_127300" data-name="Trazado 127300" d="M34.767,23V13.662a1.4,1.4,0,0,0-1.4-1.4H22.634a1.4,1.4,0,0,0-1.4,1.4V23Z" fill="#f4fbff"/>
        <path id="Trazado_127301" data-name="Trazado 127301" d="M38.767,23h9.018l3.743-2.161a1.4,1.4,0,0,0,.513-1.914L46.676,9.628a1.4,1.4,0,0,0-1.914-.513L35.468,14.48a1.4,1.4,0,0,0-.513,1.914Z" fill="#f4fbff"/>
      </g>
      <path id="Trazado_127302" data-name="Trazado 127302" d="M28.773,12.225,26,1.859A1.4,1.4,0,0,0,24.279.868L22.1,1.453l1.1,4.112a3.406,3.406,0,0,1-3.459,4.508H18.259a1.4,1.4,0,0,0-1.4,1.4v.884l3.674,2.121a1.4,1.4,0,0,1,.7,1.216V13.662a1.4,1.4,0,0,1,1.4-1.4h6.148C28.779,12.249,28.776,12.237,28.773,12.225Z" fill="#e4f6ff"/>
      <path id="Trazado_127303" data-name="Trazado 127303" d="M42.086,3.646l-3.337-.894a1.4,1.4,0,0,1-.047.423L38.053,5.6A7.914,7.914,0,0,1,34.366,10.4l-3.217,1.857h2.217a1.4,1.4,0,0,1,1.4,1.4V15.7a1.4,1.4,0,0,1,.7-1.216l6.111-3.528,1.5-5.59a1.4,1.4,0,0,0-.991-1.717Z" fill="#e4f6ff"/>
      <path id="Trazado_127304" data-name="Trazado 127304" d="M20.532,14.48,11.239,9.115a1.4,1.4,0,0,0-.889-.175l5.808,3.353a1.4,1.4,0,0,1,.513,1.914l-2.076,3.6a6.014,6.014,0,0,1-5.208,3.007H4.428l.044.026L8.215,23h9.018l3.812-6.6a1.4,1.4,0,0,0-.513-1.914Z" fill="#e4f6ff"/>
      <path id="Trazado_127305" data-name="Trazado 127305" d="M33.366,12.261H30.392v5.57a2.978,2.978,0,0,1-2.978,2.978H21.233V23H34.767V13.662a1.4,1.4,0,0,0-1.4-1.4Z" fill="#e4f6ff"/>
      <path id="Trazado_127306" data-name="Trazado 127306" d="M52.041,18.921,46.676,9.628a1.4,1.4,0,0,0-1.914-.513l-1.12.647,4.025,6.972a1.4,1.4,0,0,1-.513,1.914l-1.1.633a11.4,11.4,0,0,1-5.7,1.528H37.5L38.767,23h9.018l3.743-2.161A1.4,1.4,0,0,0,52.041,18.921Z" fill="#e4f6ff"/>
      <path id="Trazado_127307" data-name="Trazado 127307" d="M49.854,34.361a.82.82,0,0,0,.98-.621,23.5,23.5,0,0,0,.554-4.327h.264a2.189,2.189,0,0,0,2.187-2.187V24.363a2.189,2.189,0,0,0-2.187-2.187h-.806l1.092-.631a2.224,2.224,0,0,0,.813-3.035L47.386,9.217A2.22,2.22,0,0,0,44.351,8.4l-1.467.847.985-3.677A2.22,2.22,0,0,0,42.3,2.853L31.933.076a2.225,2.225,0,0,0-2.721,1.571l-.3,1.118A.82.82,0,1,0,30.5,3.19l.3-1.118a.582.582,0,0,1,.712-.411L41.874,4.438a.581.581,0,0,1,.411.712l-1.41,5.261-5.3,3.058a2.225,2.225,0,0,0-2.213-2.029H29.412l-.563-2.1.673-2.511a.82.82,0,0,0-1.509-.611L26.788,1.647A2.224,2.224,0,0,0,24.067.076L13.7,2.853a2.22,2.22,0,0,0-1.571,2.721l.985,3.677L11.649,8.4a2.22,2.22,0,0,0-3.035.813L3.248,18.511a2.224,2.224,0,0,0,.813,3.035l1.092.631H4.348a2.189,2.189,0,0,0-2.187,2.187v2.863a2.189,2.189,0,0,0,2.187,2.187h.264a23.41,23.41,0,0,0,14.42,20.8.09.09,0,0,1,.055.105L18.078,54.2A1.44,1.44,0,0,0,19.472,56H36.528a1.44,1.44,0,0,0,1.394-1.8l-1.01-3.876a.09.09,0,0,1,.055-.105A23.593,23.593,0,0,0,49.636,37.528.82.82,0,1,0,48.12,36.9,21.941,21.941,0,0,1,36.339,48.7a1.739,1.739,0,0,0-1.014,2.034l.944,3.626H19.73l.944-3.626A1.739,1.739,0,0,0,19.661,48.7,21.706,21.706,0,0,1,6.253,29.413h4.719a.82.82,0,0,0,0-1.641H4.348a.547.547,0,0,1-.546-.546V24.363a.547.547,0,0,1,.546-.546h47.3a.547.547,0,0,1,.546.546v2.863a.547.547,0,0,1-.546.546H14.8a.82.82,0,0,0,0,1.641H49.747a21.846,21.846,0,0,1-.513,3.968.82.82,0,0,0,.621.98ZM35.878,15.191l9.294-5.366a.581.581,0,0,1,.794.213l5.366,9.293a.582.582,0,0,1-.213.794l-3.553,2.051H39.24l-3.575-6.192A.581.581,0,0,1,35.878,15.191Zm-.291,3.94,1.759,3.046H35.587Zm-1.641-5.468v8.514H22.053V13.662a.582.582,0,0,1,.581-.581H33.365a.582.582,0,0,1,.581.581ZM20.413,22.176H18.654l1.759-3.046ZM13.715,5.15a.581.581,0,0,1,.411-.712L24.492,1.661a.582.582,0,0,1,.712.411l2,7.465.008.031.5,1.873H22.635a2.225,2.225,0,0,0-2.213,2.029l-5.3-3.058ZM4.882,20.125a.582.582,0,0,1-.213-.794l5.366-9.294a.581.581,0,0,1,.794-.213l9.294,5.366a.581.581,0,0,1,.213.794L16.76,22.176H8.435Z"/>
      <path id="Trazado_127308" data-name="Trazado 127308" d="M24.073,48.927a.82.82,0,1,0,0,1.641h7.853a.82.82,0,0,0,0-1.641Z"/>
    </g>
  </g>
</svg>
