<svg xmlns="http://www.w3.org/2000/svg" xmlns:xlink="http://www.w3.org/1999/xlink" width="69" height="69" viewBox="0 0 69 69">
  <defs>
    <clipPath id="clip-path">
      <rect id="Rectángulo_35805" data-name="Rectángulo 35805" width="69" height="69" transform="translate(953 6285)" fill="#fff" stroke="#707070" stroke-width="1"/>
    </clipPath>
  </defs>
  <g id="_75" data-name="75" transform="translate(-953 -6285)" clip-path="url(#clip-path)">
    <g id="conversacion" transform="translate(953 6285)">
      <path id="Trazado_127328" data-name="Trazado 127328" d="M24.258,41.622V54.3A10.528,10.528,0,0,1,9.372,63.877v0a10.528,10.528,0,0,1-6.061-8.133,3.394,3.394,0,1,1,3.52-5.6l.884-5.067.6-3.45h15.94Z" fill="#fcd2be"/>
      <path id="Trazado_127329" data-name="Trazado 127329" d="M9.372,63.876a10.528,10.528,0,0,1-6.061-8.133,3.394,3.394,0,1,1,3.52-5.6l.884-5.067,2.77.562C9.32,47.648,4.4,55,9.372,63.876Z" fill="#fab998"/>
      <path id="Trazado_127330" data-name="Trazado 127330" d="M29.177,36.492a9.143,9.143,0,0,1-9.143,9.143H10.485v.849A3.655,3.655,0,0,1,6.83,50.137a3.4,3.4,0,0,0-3.617-.768V45.634a9.144,9.144,0,0,1,9.143-9.143H29.177Z" fill="#f9ce55"/>
      <path id="Trazado_127331" data-name="Trazado 127331" d="M19.817,36.492H12.355a9.144,9.144,0,0,0-9.143,9.143v3.734a3.4,3.4,0,0,1,3.617.768,3.655,3.655,0,0,0,3.656-3.654v-.849h.189A9.144,9.144,0,0,1,19.817,36.492Z" fill="#e2a11e"/>
      <path id="Trazado_127332" data-name="Trazado 127332" d="M35.311,8.661H9.353a2.98,2.98,0,0,0-2.98,2.98V24.749a2.98,2.98,0,0,0,2.98,2.98H23.99v5.389L28.8,27.729h6.515a2.98,2.98,0,0,0,2.98-2.98V11.641A2.98,2.98,0,0,0,35.311,8.661Z" fill="#3facc9"/>
      <path id="Trazado_127333" data-name="Trazado 127333" d="M35.685,2.028H61.644a2.98,2.98,0,0,1,2.98,2.98V18.116a2.98,2.98,0,0,1-2.98,2.98H47.006v5.389L42.2,21.1H35.685a2.98,2.98,0,0,1-2.98-2.98V5.008A2.98,2.98,0,0,1,35.685,2.028Z" fill="#00c7a9"/>
      <path id="Trazado_127334" data-name="Trazado 127334" d="M63.473,66.971l-.053-.022a9.5,9.5,0,0,1-5.388-8.714L42.107,42.5c-.746-2.761-.517-7.611,6.339-8.17q.64-.054,1.36-.054c8.182,0,16.211.658,17.909,12.7C68.85,55.038,65.9,62.866,63.473,66.971Z" fill="#6b4b3d"/>
      <path id="Trazado_127335" data-name="Trazado 127335" d="M63.473,66.971l-.053-.022a.018.018,0,0,0,0-.008c2.764-23.492-7.877-32.608-14.977-32.608q.64-.054,1.36-.054c8.182,0,16.211.658,17.909,12.7C68.85,55.038,65.9,62.866,63.473,66.971Z" fill="#5b3d2d"/>
      <path id="Trazado_127336" data-name="Trazado 127336" d="M62.607,51.283a3.136,3.136,0,0,1-1.181.744A9.706,9.706,0,0,1,42.106,50.7V42.5s4.3.154,6-1.544A8.765,8.765,0,0,0,55.9,44.467h0a9.211,9.211,0,0,0,2.279-.418v2.811h0a3.13,3.13,0,0,1,4.426,4.426Z" fill="#fcd2be"/>
      <path id="Trazado_127337" data-name="Trazado 127337" d="M62.607,51.283a3.136,3.136,0,0,1-1.181.744,9.709,9.709,0,0,1-7.315,8.1c5.041-2.765,1.833-15.488,1.789-15.659h0a9.211,9.211,0,0,0,2.279-.418v2.811h0a3.13,3.13,0,0,1,4.426,4.426Z" fill="#fab998"/>
      <path id="Trazado_127338" data-name="Trazado 127338" d="M16.313,51.841V50.1a1.036,1.036,0,1,0-2.073,0v1.741a1.036,1.036,0,1,0,2.073,0Z"/>
      <path id="Trazado_127339" data-name="Trazado 127339" d="M18.765,50.1v1.741a1.036,1.036,0,1,0,2.073,0V50.1a1.036,1.036,0,1,0-2.073,0Z"/>
      <path id="Trazado_127340" data-name="Trazado 127340" d="M12.348,56.743a1.036,1.036,0,1,0-1.8,1.028A5.967,5.967,0,0,0,15.7,60.737h.056a1.036,1.036,0,0,0,.054-2.071A3.94,3.94,0,0,1,12.348,56.743Z"/>
      <path id="Trazado_127341" data-name="Trazado 127341" d="M29.176,35.456H12.355A10.19,10.19,0,0,0,2.177,45.634a1.036,1.036,0,1,0,2.073,0,8.115,8.115,0,0,1,8.106-8.106H28.074a8.118,8.118,0,0,1-8.04,7.069h-9.55a1.036,1.036,0,0,0-1.036,1.036v.848A2.622,2.622,0,0,1,7.2,49.075,4.435,4.435,0,0,0,2.843,48.4a4.434,4.434,0,0,0-.464,8.065A11.56,11.56,0,0,0,25.294,54.3V48.383a1.036,1.036,0,0,0-2.073,0V54.3A9.487,9.487,0,0,1,4.338,55.6a1.037,1.037,0,0,0-.683-.837,2.357,2.357,0,0,1-.891-3.893,2.327,2.327,0,0,1,.82-.535,2.361,2.361,0,0,1,2.508.529,1.037,1.037,0,0,0,.789.309,4.7,4.7,0,0,0,4.637-4.5h8.517A10.19,10.19,0,0,0,30.213,36.492,1.037,1.037,0,0,0,29.176,35.456Z"/>
      <path id="Trazado_127342" data-name="Trazado 127342" d="M38.292,23.713a1.036,1.036,0,0,0-1.036,1.036,1.946,1.946,0,0,1-1.944,1.944H28.8a1.036,1.036,0,0,0-.773.347l-3,3.36v-2.67a1.036,1.036,0,0,0-1.036-1.036H9.353a1.946,1.946,0,0,1-1.944-1.944V11.641A1.946,1.946,0,0,1,9.353,9.7H29.172a1.036,1.036,0,0,0,0-2.073H9.353a4.021,4.021,0,0,0-4.017,4.017V24.749a4.021,4.021,0,0,0,4.017,4.017h13.6v4.353a1.036,1.036,0,0,0,1.81.69l4.5-5.042h6.05a4.021,4.021,0,0,0,4.017-4.017A1.037,1.037,0,0,0,38.292,23.713Z"/>
      <path id="Trazado_127343" data-name="Trazado 127343" d="M35.685,22.133h6.05l4.5,5.042a1.036,1.036,0,0,0,1.81-.69V22.133h13.6a4.021,4.021,0,0,0,4.017-4.017V5.008A4.021,4.021,0,0,0,61.644.992H59.287a1.036,1.036,0,0,0,0,2.073h2.357a1.946,1.946,0,0,1,1.944,1.944V18.116a1.946,1.946,0,0,1-1.944,1.944H47.006A1.036,1.036,0,0,0,45.97,21.1v2.67l-3-3.36a1.037,1.037,0,0,0-.774-.347H35.685a1.946,1.946,0,0,1-1.944-1.944V5.008a1.946,1.946,0,0,1,1.944-1.944H55.971a1.036,1.036,0,1,0,0-2.073H35.685a4.021,4.021,0,0,0-4.017,4.017V18.117A4.021,4.021,0,0,0,35.685,22.133Z"/>
      <path id="Trazado_127344" data-name="Trazado 127344" d="M59.235,6.242H47.55a1.036,1.036,0,0,0,0,2.073H59.235a1.036,1.036,0,0,0,0-2.073Z"/>
      <path id="Trazado_127345" data-name="Trazado 127345" d="M38.094,8.315h6a1.036,1.036,0,1,0,0-2.073h-6a1.036,1.036,0,1,0,0,2.073Z"/>
      <path id="Trazado_127346" data-name="Trazado 127346" d="M59.235,10.491h-3.6a1.036,1.036,0,0,0,0,2.073h3.6a1.036,1.036,0,0,0,0-2.073Z"/>
      <path id="Trazado_127347" data-name="Trazado 127347" d="M38.094,12.564H52.179a1.036,1.036,0,1,0,0-2.073H38.094a1.036,1.036,0,1,0,0,2.073Z"/>
      <path id="Trazado_127348" data-name="Trazado 127348" d="M38.094,16.813H52.8a1.036,1.036,0,1,0,0-2.073H38.094a1.036,1.036,0,1,0,0,2.073Z"/>
      <path id="Trazado_127349" data-name="Trazado 127349" d="M11.425,14.533h6a1.036,1.036,0,0,0,0-2.073h-6a1.036,1.036,0,0,0,0,2.073Z"/>
      <path id="Trazado_127350" data-name="Trazado 127350" d="M27.583,14.533a1.036,1.036,0,0,0,0-2.073h-6a1.036,1.036,0,0,0,0,2.073Z"/>
      <path id="Trazado_127351" data-name="Trazado 127351" d="M11.425,16.709a1.036,1.036,0,1,0,0,2.073H29.586a1.036,1.036,0,0,0,0-2.073H11.425Z"/>
      <path id="Trazado_127352" data-name="Trazado 127352" d="M17.841,20.958a1.036,1.036,0,1,0,0,2.073h8.291a1.036,1.036,0,1,0,0-2.073Z"/>
      <path id="Trazado_127353" data-name="Trazado 127353" d="M11.425,20.958a1.036,1.036,0,1,0,0,2.073h2.961a1.036,1.036,0,1,0,0-2.073Z"/>
      <path id="Trazado_127354" data-name="Trazado 127354" d="M51.426,48.428V46.823a1.036,1.036,0,0,0-2.073,0v1.605a1.036,1.036,0,0,0,2.073,0Z"/>
      <path id="Trazado_127355" data-name="Trazado 127355" d="M47.253,48.428V46.823a1.036,1.036,0,1,0-2.073,0v1.605a1.036,1.036,0,0,0,2.073,0Z"/>
      <path id="Trazado_127356" data-name="Trazado 127356" d="M48.914,55.734a1.036,1.036,0,0,0,1.034.981H50a5.581,5.581,0,0,0,4.817-2.775,1.036,1.036,0,1,0-1.8-1.028,3.558,3.558,0,0,1-3.128,1.734A1.036,1.036,0,0,0,48.914,55.734Z"/>
      <path id="Trazado_127357" data-name="Trazado 127357" d="M68.74,46.835c-.657-4.657-2.256-7.993-4.89-10.2a1.036,1.036,0,0,0-1.33,1.589c2.223,1.861,3.586,4.772,4.168,8.9A31.387,31.387,0,0,1,63.069,65.58,8.468,8.468,0,0,1,59.476,61a1.036,1.036,0,1,0-1.977.624,10.552,10.552,0,0,0,5.578,6.309,1.036,1.036,0,0,0,1.287-.432C67.209,62.681,69.852,54.722,68.74,46.835Z"/>
      <path id="Trazado_127358" data-name="Trazado 127358" d="M62.357,52.746a4.167,4.167,0,0,0-3.142-7.672V44.046a1.037,1.037,0,0,0-1.386-.976,8.153,8.153,0,0,1-8.9-2.744,1.036,1.036,0,0,0-1.554-.1c-.841.841-2.912,1.181-4.436,1.238a5.111,5.111,0,0,1,.8-4.032c1.075-1.4,3.115-2.117,6.062-2.117,3.378,0,6.92.1,9.845,1.24a1.036,1.036,0,0,0,.755-1.931c-3.261-1.275-7.024-1.382-10.6-1.382-3.626,0-6.219.986-7.707,2.929a7.732,7.732,0,0,0-.991,6.6,1.037,1.037,0,0,0,.963.765,12.549,12.549,0,0,0,5.875-1.167A9.654,9.654,0,0,0,54.6,45.505a11.383,11.383,0,0,0,2.544-.145v1.5a1.037,1.037,0,0,0,1.772.73,2.1,2.1,0,0,1,2.233-.472,2.093,2.093,0,0,1,.726,3.434,2.091,2.091,0,0,1-.792.5,1.036,1.036,0,0,0-.683.837A8.669,8.669,0,0,1,43.143,50.7V46.01a1.036,1.036,0,1,0-2.073,0V50.7a10.743,10.743,0,0,0,21.287,2.05Z"/>
    </g>
  </g>
</svg>
