<svg xmlns="http://www.w3.org/2000/svg" xmlns:xlink="http://www.w3.org/1999/xlink" width="69" height="69" viewBox="0 0 69 69">
  <defs>
    <clipPath id="clip-path">
      <rect id="Rectángulo_35806" data-name="Rectángulo 35806" width="69" height="69" transform="translate(600 6394)" fill="#fff" stroke="#707070" stroke-width="1"/>
    </clipPath>
  </defs>
  <g id="_76" data-name="76" transform="translate(-600 -6394)" clip-path="url(#clip-path)">
    <g id="XMLID_1_" transform="translate(600.007 6394.009)">
      <g id="XMLID_3866_">
        <path id="XMLID_1685_" d="M68.312,30.451,56.051,38.535V68.312H12.935V38.535L.674,30.451,12.935,8.758,25.061,4.716,27.756.674H41.23l2.695,4.042L56.051,8.758Z" fill="#d84861"/>
        <g id="XMLID_1680_">
          <path id="XMLID_2534_" d="M33.819,10.105h1.347V68.312H33.819Z" fill="#c22945"/>
        </g>
        <path id="XMLID_2781_" d="M43.925,4.716H25.061l9.432,14.821Z" fill="#c22945"/>
        <path id="XMLID_2520_" d="M12.935,38.535V19.4l-6.9,14.579Z" fill="#c22945"/>
        <path id="XMLID_1683_" d="M56.051,38.535V19.4l6.9,14.579Z" fill="#c22945"/>
        <path id="XMLID_1678_" d="M40.556,33.55l4.716,2.695,4.716-2.695V25.466H40.556Z" fill="#e17084"/>
        <g id="Grupo_93473" data-name="Grupo 93473">
          <g id="XMLID_1675_">
            <path id="XMLID_1677_" d="M12.935,50.015c1.779,3.368,3.584,7.438,2.425,8.3-.539.4-1.428.067-2.425-.633v6.643A.409.409,0,0,1,13,64.23c.728-.808,4.527,1.293,6.764,2.641A24.245,24.245,0,0,0,23.3,60.74c-1.684-2.654-4.15-6.8-3.449-7.2.66-.364,3.234.849,5.107,1.873a46.4,46.4,0,0,0,1.159-11.493,24.919,24.919,0,0,0-5.093.5c.445,2.493.93,5.767.4,5.982-.552.216-2.061-2.91-3.086-5.228a17.725,17.725,0,0,0-5.4,3.072Z" fill="#ffc96f"/>
            <path id="XMLID_1676_" d="M12.935,64.917v3.4H15.36A11.959,11.959,0,0,1,12.935,64.917Z" fill="#ffc96f"/>
          </g>
          <path id="XMLID_1674_" d="M57.358,19.429a17.416,17.416,0,0,0,3.611-1.967l-4.918-8.7-1.145-.377a15.435,15.435,0,0,0-2.439,1.145c1.684,1.469,3.907,3.678,3.247,4.568s-4.056-.768-6.44-2.075A11.758,11.758,0,0,0,46.795,16.1c1.576.7,3.705,1.711,3.557,2.088s-2.371.027-4.069-.269a16.976,16.976,0,0,0-.337,3.436,32.073,32.073,0,0,0,7.8-.781c-.7-1.267-1.523-3-1.267-3.449C52.737,16.627,55.553,18.3,57.358,19.429Z" fill="#ffc96f"/>
          <path id="XMLID_1672_" d="M36.379,39.451s4.029,4.163,1.482,5.592-3.368-4.19-3.368-4.19-.822,5.619-3.368,4.19,1.482-5.592,1.482-5.592-5.78.121-4.716-2.533,5.578.472,5.578.472S30.653,31.8,34.493,31.8,35.53,37.39,35.53,37.39s4.5-3.126,5.578-.472S36.379,39.451,36.379,39.451Z" fill="#ffc96f"/>
          <path id="XMLID_2535_" d="M50.271,68.312h5.78V53.72c-.849-1.94-2.223-3.355-4.433-2.735-5.632,1.576,1.159,10.685,1.159,10.685s-9.095-6.791-10.685-1.159,10,5.821,10,5.821-.835.808-1.819,1.981Z" fill="#ffc96f"/>
          <path id="XMLID_2536_" d="M15.428,20.036s-4.2,8.394,1.549,8.394,1.549-8.394,1.549-8.394,6.75,4.689,8.354.714-7.074-3.786-7.074-3.786,6.05-6.238,2.223-8.394-5.053,6.279-5.053,6.279S16.2,9.526,13.959,8.421l-1.024.337-1.967,3.476a16.77,16.77,0,0,0,3.18,4.729S9,16.856,7.37,18.621l-.431.768a2.192,2.192,0,0,0,.135,1.374C8.677,24.724,15.428,20.036,15.428,20.036Z" fill="#ffc96f"/>
        </g>
        <path id="XMLID_1682_" d="M27.756.674,25.061,4.716l-4.042,6.872h6.737v2.937l6.737,5.012Z" fill="#e17084"/>
        <path id="XMLID_1681_" d="M41.23.674l2.695,4.042,4.042,6.872H41.23v2.937l-6.737,5.012Z" fill="#e17084"/>
      </g>
      <g id="XMLID_3738_">
        <g id="XMLID_2241_">
          <path id="XMLID_3389_" d="M56.051,68.986H12.935a.667.667,0,0,1-.674-.674V38.9L.3,31.017a.665.665,0,0,1-.216-.889L12.342,8.435a.663.663,0,0,1,.377-.31L24.63,4.15,27.19.3a.667.667,0,0,1,.566-.3H41.23A.685.685,0,0,1,41.8.3l2.56,3.854L56.267,8.125a.663.663,0,0,1,.377.31L68.905,30.127a.665.665,0,0,1-.216.889l-9.566,6.306L58.382,36.2l9.041-5.955L55.593,9.31,43.709,5.349a.639.639,0,0,1-.35-.269L40.866,1.347H28.12L25.627,5.093a.707.707,0,0,1-.35.269L13.393,9.31,1.576,30.235l11.736,7.734a.667.667,0,0,1,.3.566v29.1H55.377V19.4h1.347v48.91a.667.667,0,0,1-.674.674Z" fill="#4d2419"/>
        </g>
        <g id="XMLID_1733_">
          <path id="XMLID_3388_" d="M12.261,19.4h1.347V38.535H12.261Z" fill="#4d2419"/>
        </g>
        <g id="XMLID_70_">
          <path id="XMLID_3385_" d="M34.493,20.211a.636.636,0,0,1-.4-.135l-6.737-5.012a.646.646,0,0,1-.269-.539V12.261H21.019a.674.674,0,0,1-.579-1.011l4.042-6.872a.047.047,0,0,1,.013-.027L27.19.31a.673.673,0,0,1,.647-.3.656.656,0,0,1,.552.445l6.737,18.863a.692.692,0,0,1-.229.768.745.745,0,0,1-.4.121ZM28.43,14.188l4.675,3.49L27.567,2.169l-1.94,2.91-3.436,5.834h5.565a.667.667,0,0,1,.674.674Z" fill="#4d2419"/>
        </g>
        <g id="XMLID_67_">
          <path id="XMLID_3382_" d="M34.493,20.211a.663.663,0,0,1-.4-.135.653.653,0,0,1-.229-.768L40.6.445A.677.677,0,0,1,41.149,0,.685.685,0,0,1,41.8.3l2.695,4.042a.042.042,0,0,1,.013.027l4.042,6.872a.669.669,0,0,1,0,.674.652.652,0,0,1-.579.337H41.9v2.264a.646.646,0,0,1-.269.539L34.9,20.076a.663.663,0,0,1-.4.135ZM41.419,2.169,35.881,17.678l4.675-3.49v-2.6a.667.667,0,0,1,.674-.674h5.565L43.359,5.08Z" fill="#4d2419"/>
        </g>
        <g id="XMLID_69_">
          <path id="XMLID_3381_" d="M33.819,40.826h1.347V68.312H33.819Z" fill="#4d2419"/>
        </g>
        <g id="XMLID_2079_">
          <path id="XMLID_3380_" d="M33.819,19.537h1.347v12.8H33.819Z" fill="#4d2419"/>
        </g>
        <g id="XMLID_12_">
          <path id="XMLID_3379_" d="M32.068,4.042h7.545V5.39H32.068Z" fill="#4d2419"/>
        </g>
        <g id="XMLID_68_">
          <path id="XMLID_3376_" d="M45.272,36.918a.608.608,0,0,1-.337-.094l-4.716-2.695a.652.652,0,0,1-.337-.579V25.466a.667.667,0,0,1,.674-.674h9.432a.667.667,0,0,1,.674.674V33.55a.663.663,0,0,1-.337.579l-4.716,2.695A.608.608,0,0,1,45.272,36.918ZM41.23,33.159l4.042,2.3,4.042-2.3v-7.02H41.23Z" fill="#4d2419"/>
        </g>
        <g id="XMLID_79_">
          <g id="XMLID_92_">
            <path id="XMLID_3373_" d="M19.766,67.544a.653.653,0,0,1-.35-.094c-3.813-2.291-5.511-2.789-5.942-2.722a.669.669,0,0,1-.7.256.679.679,0,0,1-.512-.66V57.681a.642.642,0,0,1,.364-.593.688.688,0,0,1,.7.04c1.011.714,1.509.728,1.644.633.013-.013.849-.876-2.627-7.438a.626.626,0,0,1-.081-.31V48.263a.666.666,0,0,1,.243-.512,18.306,18.306,0,0,1,5.605-3.193.679.679,0,0,1,.849.364,38.941,38.941,0,0,0,2.021,4.069,37.16,37.16,0,0,0-.606-4.433.681.681,0,0,1,.525-.781,25.867,25.867,0,0,1,5.228-.512.668.668,0,0,1,.674.633A46.732,46.732,0,0,1,25.627,55.58a.682.682,0,0,1-.377.458.656.656,0,0,1-.593-.027,18.349,18.349,0,0,0-4.163-1.832c.189.62.889,2.237,3.4,6.2a.675.675,0,0,1,.054.62,25.163,25.163,0,0,1-3.624,6.292.809.809,0,0,1-.552.256Zm-6.158-4.177a7.2,7.2,0,0,1,2.479.755,37.229,37.229,0,0,1,3.5,1.859,23.982,23.982,0,0,0,2.937-5.187c-3.773-6.009-3.557-6.858-3.449-7.276a.909.909,0,0,1,.431-.579c.3-.162,1.064-.593,4.972,1.455a47.193,47.193,0,0,0,.97-9.8,24.327,24.327,0,0,0-3.665.35c.229,1.293.377,2.385.458,3.247.148,1.617.108,2.547-.593,2.83-.849.35-1.523-.728-2.21-1.967-.431-.781-.93-1.805-1.5-3.045a16.629,16.629,0,0,0-4.366,2.547v1.267c3.557,6.764,3.018,8.367,2.156,9a2.1,2.1,0,0,1-2.156.013v4.527Z" fill="#4d2419"/>
          </g>
          <g id="XMLID_94_">
            <path id="XMLID_3370_" d="M15.36,68.986H12.935a.667.667,0,0,1-.674-.674v-3.4a.675.675,0,0,1,1.32-.189,10.276,10.276,0,0,0,2.277,3.139.664.664,0,0,1-.5,1.118Zm-1.752-1.347h.269c-.094-.121-.189-.229-.269-.337Z" fill="#4d2419"/>
          </g>
        </g>
        <g id="XMLID_77_">
          <path id="XMLID_3367_" d="M46.727,22.03c-.485,0-.768-.013-.808-.013a.659.659,0,0,1-.633-.674,17.731,17.731,0,0,1,.35-3.571.681.681,0,0,1,.781-.525c.795.148,1.428.243,1.913.31-.445-.229-1.037-.5-1.792-.835a.679.679,0,0,1-.364-.849,12.393,12.393,0,0,1,2.614-4.312.678.678,0,0,1,.822-.135c3.53,1.94,5.12,2.317,5.551,2.237-.027-.229-.35-1.2-3.139-3.638a.725.725,0,0,1-.229-.579.648.648,0,0,1,.337-.512,17.518,17.518,0,0,1,2.533-1.186.76.76,0,0,1,.458-.013l1.145.377a.663.663,0,0,1,.377.31l4.918,8.7a.674.674,0,0,1-.189.876,17.535,17.535,0,0,1-3.759,2.048A.644.644,0,0,1,57.008,20a29.475,29.475,0,0,0-3.773-2.115,16.245,16.245,0,0,0,1.1,2.358.658.658,0,0,1,.027.593.649.649,0,0,1-.458.377,32.325,32.325,0,0,1-7.182.822Zm-.094-1.415h.04a31.257,31.257,0,0,0,6.063-.566c-1.28-2.52-1-3.032-.849-3.288a.783.783,0,0,1,.525-.391c.337-.081.943-.229,5.012,2.3a17.8,17.8,0,0,0,2.668-1.415L55.606,9.31l-.674-.229q-.667.263-1.293.566c2.533,2.344,3.342,3.84,2.627,4.824-.539.728-1.779,1.091-6.831-1.63a11.049,11.049,0,0,0-1.765,2.883c.768.35,1.4.66,1.886.93.741.4,1.752.957,1.428,1.765-.269.647-1.132.62-2.142.525-.539-.054-1.213-.175-2.008-.31A13.7,13.7,0,0,0,46.633,20.615Z" fill="#4d2419"/>
        </g>
        <g id="XMLID_93_">
          <path id="XMLID_2555_" d="M31.919,45.946a2.245,2.245,0,0,1-1.132-.323,2.154,2.154,0,0,1-1.159-1.63c-.189-1.32.768-2.9,1.563-3.921-1.307-.108-3.072-.458-3.786-1.5a1.937,1.937,0,0,1-.148-1.913,2.255,2.255,0,0,1,1.469-1.374,5.12,5.12,0,0,1,3.409.579,4.715,4.715,0,0,1,.054-3.638,2.5,2.5,0,0,1,2.3-1.1,2.471,2.471,0,0,1,2.3,1.1,4.718,4.718,0,0,1,.054,3.638,5.133,5.133,0,0,1,3.409-.579,2.255,2.255,0,0,1,1.469,1.374,1.909,1.909,0,0,1-.148,1.913c-.714,1.037-2.479,1.388-3.786,1.5.795,1.037,1.752,2.6,1.563,3.921a2.187,2.187,0,0,1-1.159,1.63,2.022,2.022,0,0,1-1.981.121,4.083,4.083,0,0,1-1.711-2.264A4.083,4.083,0,0,1,32.8,45.744a2.1,2.1,0,0,1-.876.2Zm2.574-5.767a.657.657,0,0,1,.66.579c.2,1.334.835,3.382,1.644,3.773a.737.737,0,0,0,.728-.081.835.835,0,0,0,.485-.647c.162-1.064-1.226-2.951-2.129-3.88a.684.684,0,0,1-.135-.741.646.646,0,0,1,.633-.4c1.388.027,3.584-.256,4.069-.97.054-.067.162-.243,0-.633a.917.917,0,0,0-.606-.593c-1.011-.3-2.964.674-3.961,1.361a.668.668,0,0,1-.822-.04.682.682,0,0,1-.162-.808c.566-1.132,1.267-3.274.728-4.163-.067-.108-.283-.458-1.159-.458s-1.078.35-1.159.458c-.566.916.243,3.193.728,4.163a.682.682,0,0,1-.162.808.669.669,0,0,1-.822.04c-1-.687-2.951-1.671-3.961-1.361a.915.915,0,0,0-.606.593c-.162.4-.04.566,0,.633.5.714,2.681,1,4.069.97a.658.658,0,0,1,.633.4.684.684,0,0,1-.135.741c-.9.93-2.277,2.816-2.129,3.88a.835.835,0,0,0,.485.647.7.7,0,0,0,.728.081c.889-.431,1.5-2.735,1.644-3.773A.758.758,0,0,1,34.493,40.179Z" fill="#4d2419"/>
        </g>
        <g id="XMLID_74_">
          <path id="XMLID_2552_" d="M56.051,68.986h-5.78a.673.673,0,0,1-.512-1.1c.3-.364.593-.687.849-.97-2.358-.2-6.872-.9-8.6-3.22a3.661,3.661,0,0,1-.552-3.368,3.436,3.436,0,0,1,2.21-2.52c2.035-.687,4.837.472,6.885,1.617-1.145-2.048-2.318-4.851-1.617-6.885a3.436,3.436,0,0,1,2.52-2.21c1.576-.445,3.759-.256,5.228,3.112a.6.6,0,0,1,.054.269V68.312A.687.687,0,0,1,56.051,68.986Zm-4.3-1.347h3.624V53.855c-1.307-2.87-3.018-2.385-3.584-2.223a2.134,2.134,0,0,0-1.6,1.347c-.781,2.3,1.981,6.764,3.112,8.286a.66.66,0,0,1-.067.876.676.676,0,0,1-.876.067c-1.523-1.132-5.982-3.907-8.286-3.112a2.16,2.16,0,0,0-1.347,1.6,2.358,2.358,0,0,0,.337,2.2c1.617,2.169,7.06,2.735,9.027,2.762a.685.685,0,0,1,.62.431.666.666,0,0,1-.162.728S52.225,67.127,51.753,67.639Z" fill="#4d2419"/>
        </g>
        <g id="XMLID_2080_">
          <path id="XMLID_2550_" d="M16.977,29.1a3.412,3.412,0,0,1-3.166-1.5c-1.011-1.63-.418-4.177.2-5.942-1.563.822-3.84,1.725-5.592,1.2A3.01,3.01,0,0,1,6.44,20.992,2.8,2.8,0,0,1,6.279,19.2a.824.824,0,0,1,.067-.162l.431-.768a.74.74,0,0,1,.094-.121c1.253-1.361,4.069-1.738,5.821-1.846a14.618,14.618,0,0,1-2.358-3.854l1.267-.458a15.867,15.867,0,0,0,3.032,4.487.686.686,0,0,1-.485,1.159h-.013c-1.334,0-5,.162-6.225,1.374l-.337.606a1.582,1.582,0,0,0,.135.862,1.681,1.681,0,0,0,1.118,1.078c1.846.552,5.12-1.32,6.225-2.088a.668.668,0,0,1,.822.04.682.682,0,0,1,.162.808c-.633,1.28-2.075,4.945-1.064,6.562a2.174,2.174,0,0,0,2.021.849,2.189,2.189,0,0,0,2.021-.849c1.011-1.63-.431-5.3-1.064-6.562a.682.682,0,0,1,.162-.808.668.668,0,0,1,.822-.04c1.1.768,4.392,2.641,6.225,2.088a1.681,1.681,0,0,0,1.118-1.078,1.208,1.208,0,0,0-.04-1.267c-.862-1.24-4.379-1.63-6.4-1.59a.658.658,0,0,1-.633-.4.684.684,0,0,1,.135-.741c.027-.027,2.695-2.8,3.22-5.12l1.32.3A12.744,12.744,0,0,1,21.289,16.3c1.873.108,4.958.539,6.063,2.142a2.553,2.553,0,0,1,.175,2.547,3.073,3.073,0,0,1-1.981,1.873c-1.752.525-4.015-.377-5.592-1.2.62,1.765,1.213,4.312.2,5.942A3.45,3.45,0,0,1,16.977,29.1Z" fill="#4d2419"/>
        </g>
        <g id="XMLID_73_">
          <path id="XMLID_2549_" d="M16.977,15.522a.657.657,0,0,1-.66-.579c-.2-1.388-1.078-5.147-2.654-5.915l.593-1.213c1.347.66,2.21,2.479,2.722,4.083.512-1.617,1.374-3.422,2.722-4.083a2.732,2.732,0,0,1,2.668.175,4.037,4.037,0,0,1,.755.552l-.943.957a2.017,2.017,0,0,0-.458-.337,1.382,1.382,0,0,0-1.4-.135c-1.576.768-2.452,4.541-2.654,5.915a.705.705,0,0,1-.687.579Z" fill="#4d2419"/>
        </g>
      </g>
    </g>
  </g>
</svg>
