<svg xmlns="http://www.w3.org/2000/svg" xmlns:xlink="http://www.w3.org/1999/xlink" width="335" height="221" viewBox="0 0 335 221">
  <defs>
    <clipPath id="clip-path">
      <rect id="Rectángulo_35897" data-name="Rectángulo 35897" width="335" height="221" transform="translate(895 7056)" fill="#fff" stroke="#707070" stroke-width="1"/>
    </clipPath>
  </defs>
  <g id="Enmascarar_grupo_242" data-name="Enmascarar grupo 242" transform="translate(-895 -7056)" clip-path="url(#clip-path)">
    <g id="Grupo_90843" data-name="Grupo 90843" transform="translate(0 525)">
      <path id="Trazado_125956" data-name="Trazado 125956" d="M359.777,252.266c-1.368,23.329-11.329,48.091-32.13,58.738-16.821,8.607-37.156,6.387-55.094,12.323-20.458,6.767-36.576,23.7-57.4,29.222-26.509,7.025-56.318-7.726-69.243-31.907s-9.567-55.38,5.908-78.015c10.648-15.574,26.665-28.012,32.43-45.986,6.23-19.419-1-41.094,4.561-60.722a47.5,47.5,0,0,1,6.43-13.7c6.287-8.07,14.643-14.5,24.339-17.623,13.29-4.275,29.036-1.6,39,8.178,16.5,16.19,13.19,45,28.342,62.455,15.825,18.231,46.114,17.752,61.961,35.968C358.423,222.156,360.629,237.759,359.777,252.266Z" transform="matrix(-0.438, -0.899, 0.899, -0.438, 955.486, 6978.159)" fill="#e1e8ff"/>
      <g id="DONE" transform="translate(310.045 5879.154)">
        <rect id="Rectángulo_35450" data-name="Rectángulo 35450" width="227.19" height="0.642" transform="translate(869.05 862.456) rotate(180)" fill="#a3a3a3"/>
        <g id="Grupo_90810" data-name="Grupo 90810" transform="translate(754.903 652.852)">
          <rect id="Rectángulo_35451" data-name="Rectángulo 35451" width="19.876" height="208.95" transform="translate(0.703 0)" fill="#e0e0e0"/>
          <g id="Grupo_90809" data-name="Grupo 90809" transform="translate(5.119 3.75)">
            <path id="Trazado_125957" data-name="Trazado 125957" d="M2054.9,2841.652h3.966a.394.394,0,0,0,0-.76H2054.9a.394.394,0,0,0,0,.76Z" transform="translate(-2054.609 -2661.635)" fill="#8e8e8e"/>
            <path id="Trazado_125958" data-name="Trazado 125958" d="M2054.9,2805.322h3.966a.394.394,0,0,0,0-.76H2054.9a.394.394,0,0,0,0,.76Z" transform="translate(-2054.609 -2628.343)" fill="#8e8e8e"/>
            <path id="Trazado_125959" data-name="Trazado 125959" d="M2054.9,2768.992h3.966a.394.394,0,0,0,0-.76H2054.9a.393.393,0,0,0,0,.76Z" transform="translate(-2054.609 -2595.053)" fill="#8e8e8e"/>
            <path id="Trazado_125960" data-name="Trazado 125960" d="M2054.9,2950.643h3.966a.393.393,0,0,0,0-.759H2054.9a.393.393,0,0,0,0,.759Z" transform="translate(-2054.609 -2761.51)" fill="#8e8e8e"/>
            <path id="Trazado_125961" data-name="Trazado 125961" d="M2054.9,2914.313h8.111a.394.394,0,0,0,0-.76H2054.9a.393.393,0,0,0,0,.76Z" transform="translate(-2054.609 -2728.219)" fill="#8e8e8e"/>
            <path id="Trazado_125962" data-name="Trazado 125962" d="M2054.9,2877.984h3.966a.393.393,0,0,0,0-.759H2054.9a.393.393,0,0,0,0,.759Z" transform="translate(-2054.609 -2694.929)" fill="#8e8e8e"/>
            <path id="Trazado_125963" data-name="Trazado 125963" d="M2054.9,3096.054h8.111a.394.394,0,0,0,0-.76H2054.9a.393.393,0,0,0,0,.76Z" transform="translate(-2054.609 -2894.759)" fill="#8e8e8e"/>
            <path id="Trazado_125964" data-name="Trazado 125964" d="M2054.9,3023.3h3.966a.394.394,0,0,0,0-.76H2054.9a.394.394,0,0,0,0,.76Z" transform="translate(-2054.609 -2828.091)" fill="#8e8e8e"/>
            <path id="Trazado_125965" data-name="Trazado 125965" d="M2054.9,2986.972h3.966a.394.394,0,0,0,0-.76H2054.9a.393.393,0,0,0,0,.76Z" transform="translate(-2054.609 -2794.801)" fill="#8e8e8e"/>
            <path id="Trazado_125966" data-name="Trazado 125966" d="M2054.9,3059.635h3.966a.394.394,0,0,0,0-.76H2054.9a.393.393,0,0,0,0,.76Z" transform="translate(-2054.609 -2861.386)" fill="#8e8e8e"/>
            <path id="Trazado_125967" data-name="Trazado 125967" d="M2054.9,2478.351h3.966a.394.394,0,0,0,0-.76H2054.9a.394.394,0,0,0,0,.76Z" transform="translate(-2054.609 -2328.72)" fill="#8e8e8e"/>
            <path id="Trazado_125968" data-name="Trazado 125968" d="M2054.9,2442.021h3.966a.394.394,0,0,0,0-.76H2054.9a.394.394,0,0,0,0,.76Z" transform="translate(-2054.609 -2295.428)" fill="#8e8e8e"/>
            <path id="Trazado_125969" data-name="Trazado 125969" d="M2054.9,2405.688h3.966a.394.394,0,0,0,0-.76H2054.9a.394.394,0,0,0,0,.76Z" transform="translate(-2054.609 -2262.134)" fill="#8e8e8e"/>
            <path id="Trazado_125970" data-name="Trazado 125970" d="M2054.9,2587.343h3.966a.394.394,0,0,0,0-.76H2054.9a.393.393,0,0,0,0,.76Z" transform="translate(-2054.609 -2428.596)" fill="#8e8e8e"/>
            <path id="Trazado_125971" data-name="Trazado 125971" d="M2054.9,2551.009h8.111a.394.394,0,0,0,0-.76H2054.9a.394.394,0,0,0,0,.76Z" transform="translate(-2054.609 -2395.301)" fill="#8e8e8e"/>
            <path id="Trazado_125972" data-name="Trazado 125972" d="M2054.9,2514.68h3.966a.394.394,0,0,0,0-.76H2054.9a.394.394,0,0,0,0,.76Z" transform="translate(-2054.609 -2362.01)" fill="#8e8e8e"/>
            <path id="Trazado_125973" data-name="Trazado 125973" d="M2054.9,2660h3.966a.394.394,0,0,0,0-.76H2054.9a.394.394,0,0,0,0,.76Z" transform="translate(-2054.609 -2495.176)" fill="#8e8e8e"/>
            <path id="Trazado_125974" data-name="Trazado 125974" d="M2054.9,2623.672h3.966a.394.394,0,0,0,0-.76H2054.9a.393.393,0,0,0,0,.76Z" transform="translate(-2054.609 -2461.886)" fill="#8e8e8e"/>
            <path id="Trazado_125975" data-name="Trazado 125975" d="M2054.9,2732.66h8.111a.394.394,0,0,0,0-.76H2054.9a.394.394,0,0,0,0,.76Z" transform="translate(-2054.609 -2561.759)" fill="#8e8e8e"/>
            <path id="Trazado_125976" data-name="Trazado 125976" d="M2054.9,2696.33h3.966a.394.394,0,0,0,0-.76H2054.9a.394.394,0,0,0,0,.76Z" transform="translate(-2054.609 -2528.467)" fill="#8e8e8e"/>
            <path id="Trazado_125977" data-name="Trazado 125977" d="M2054.9,2115.045h3.966a.394.394,0,0,0,0-.76H2054.9a.394.394,0,0,0,0,.76Z" transform="translate(-2054.609 -1995.801)" fill="#8e8e8e"/>
            <path id="Trazado_125978" data-name="Trazado 125978" d="M2054.9,2078.716h3.966a.394.394,0,0,0,0-.76H2054.9a.393.393,0,0,0,0,.76Z" transform="translate(-2054.609 -1962.511)" fill="#8e8e8e"/>
            <path id="Trazado_125979" data-name="Trazado 125979" d="M2054.9,2042.386h3.966a.394.394,0,0,0,0-.76H2054.9a.393.393,0,0,0,0,.76Z" transform="translate(-2054.609 -1929.22)" fill="#8e8e8e"/>
            <path id="Trazado_125980" data-name="Trazado 125980" d="M2054.9,2224.037h3.966a.394.394,0,0,0,0-.76H2054.9a.394.394,0,0,0,0,.76Z" transform="translate(-2054.609 -2095.677)" fill="#8e8e8e"/>
            <path id="Trazado_125981" data-name="Trazado 125981" d="M2054.9,2187.708h8.111a.394.394,0,0,0,0-.76H2054.9a.394.394,0,0,0,0,.76Z" transform="translate(-2054.609 -2062.386)" fill="#8e8e8e"/>
            <path id="Trazado_125982" data-name="Trazado 125982" d="M2054.9,2151.378h3.966a.394.394,0,0,0,0-.76H2054.9a.393.393,0,0,0,0,.76Z" transform="translate(-2054.609 -2029.096)" fill="#8e8e8e"/>
            <path id="Trazado_125983" data-name="Trazado 125983" d="M2054.9,2296.7h3.966a.394.394,0,0,0,0-.76H2054.9a.393.393,0,0,0,0,.76Z" transform="translate(-2054.609 -2162.262)" fill="#8e8e8e"/>
            <path id="Trazado_125984" data-name="Trazado 125984" d="M2054.9,2260.367h3.966a.394.394,0,0,0,0-.76H2054.9a.394.394,0,0,0,0,.76Z" transform="translate(-2054.609 -2128.968)" fill="#8e8e8e"/>
            <path id="Trazado_125985" data-name="Trazado 125985" d="M2054.9,2369.359h8.111a.394.394,0,0,0,0-.76H2054.9a.394.394,0,0,0,0,.76Z" transform="translate(-2054.609 -2228.844)" fill="#8e8e8e"/>
            <path id="Trazado_125986" data-name="Trazado 125986" d="M2054.9,2333.029h3.966a.394.394,0,0,0,0-.76H2054.9a.393.393,0,0,0,0,.76Z" transform="translate(-2054.609 -2195.553)" fill="#8e8e8e"/>
            <path id="Trazado_125987" data-name="Trazado 125987" d="M2054.9,1751.744h3.966a.394.394,0,0,0,0-.76H2054.9a.394.394,0,0,0,0,.76Z" transform="translate(-2054.609 -1662.887)" fill="#8e8e8e"/>
            <path id="Trazado_125988" data-name="Trazado 125988" d="M2054.9,1715.415h3.966a.394.394,0,0,0,0-.76H2054.9a.393.393,0,0,0,0,.76Z" transform="translate(-2054.609 -1629.596)" fill="#8e8e8e"/>
            <path id="Trazado_125989" data-name="Trazado 125989" d="M2054.9,1679.085h3.966a.393.393,0,0,0,0-.759H2054.9a.393.393,0,0,0,0,.759Z" transform="translate(-2054.609 -1596.306)" fill="#8e8e8e"/>
            <path id="Trazado_125990" data-name="Trazado 125990" d="M2054.9,1860.735h3.966a.393.393,0,0,0,0-.759H2054.9a.393.393,0,0,0,0,.759Z" transform="translate(-2054.609 -1762.762)" fill="#8e8e8e"/>
            <path id="Trazado_125991" data-name="Trazado 125991" d="M2054.9,1824.4h8.111a.394.394,0,0,0,0-.76H2054.9a.394.394,0,0,0,0,.76Z" transform="translate(-2054.609 -1729.468)" fill="#8e8e8e"/>
            <path id="Trazado_125992" data-name="Trazado 125992" d="M2054.9,1788.073h3.966a.394.394,0,0,0,0-.76H2054.9a.394.394,0,0,0,0,.76Z" transform="translate(-2054.609 -1696.177)" fill="#8e8e8e"/>
            <path id="Trazado_125993" data-name="Trazado 125993" d="M2054.9,1933.395h3.966a.394.394,0,0,0,0-.76H2054.9a.394.394,0,0,0,0,.76Z" transform="translate(-2054.609 -1829.344)" fill="#8e8e8e"/>
            <path id="Trazado_125994" data-name="Trazado 125994" d="M2054.9,1897.066h3.966a.394.394,0,0,0,0-.76H2054.9a.394.394,0,0,0,0,.76Z" transform="translate(-2054.609 -1796.054)" fill="#8e8e8e"/>
            <path id="Trazado_125995" data-name="Trazado 125995" d="M2054.9,2006.057h8.111a.394.394,0,0,0,0-.76H2054.9a.393.393,0,0,0,0,.76Z" transform="translate(-2054.609 -1895.93)" fill="#8e8e8e"/>
            <path id="Trazado_125996" data-name="Trazado 125996" d="M2054.9,1969.727h3.966a.393.393,0,0,0,0-.759H2054.9a.393.393,0,0,0,0,.759Z" transform="translate(-2054.609 -1862.638)" fill="#8e8e8e"/>
            <path id="Trazado_125997" data-name="Trazado 125997" d="M2054.9,1534.047h3.966a.394.394,0,0,0,0-.76H2054.9a.394.394,0,0,0,0,.76Z" transform="translate(-2054.609 -1463.398)" fill="#8e8e8e"/>
            <path id="Trazado_125998" data-name="Trazado 125998" d="M2054.9,1497.718h3.966a.394.394,0,0,0,0-.76H2054.9a.394.394,0,0,0,0,.76Z" transform="translate(-2054.609 -1430.107)" fill="#8e8e8e"/>
            <path id="Trazado_125999" data-name="Trazado 125999" d="M2054.9,1461.387h3.966a.393.393,0,0,0,0-.759H2054.9a.393.393,0,0,0,0,.759Z" transform="translate(-2054.609 -1396.816)" fill="#8e8e8e"/>
            <path id="Trazado_126000" data-name="Trazado 126000" d="M2054.9,1643.038h3.966a.393.393,0,0,0,0-.759H2054.9a.393.393,0,0,0,0,.759Z" transform="translate(-2054.609 -1563.274)" fill="#8e8e8e"/>
            <path id="Trazado_126001" data-name="Trazado 126001" d="M2054.9,1606.709h8.111a.394.394,0,0,0,0-.76H2054.9a.393.393,0,0,0,0,.76Z" transform="translate(-2054.609 -1529.983)" fill="#8e8e8e"/>
            <path id="Trazado_126002" data-name="Trazado 126002" d="M2054.9,1570.38h3.966a.394.394,0,0,0,0-.76H2054.9a.394.394,0,0,0,0,.76Z" transform="translate(-2054.609 -1496.692)" fill="#8e8e8e"/>
            <path id="Trazado_126003" data-name="Trazado 126003" d="M2054.9,1170.745h3.966a.393.393,0,0,0,0-.759H2054.9a.393.393,0,0,0,0,.759Z" transform="translate(-2054.609 -1130.483)" fill="#8e8e8e"/>
            <path id="Trazado_126004" data-name="Trazado 126004" d="M2054.9,1134.416h3.966a.393.393,0,0,0,0-.759H2054.9a.393.393,0,0,0,0,.759Z" transform="translate(-2054.609 -1097.193)" fill="#8e8e8e"/>
            <path id="Trazado_126005" data-name="Trazado 126005" d="M2054.9,1098.083h3.966a.394.394,0,0,0,0-.76H2054.9a.394.394,0,0,0,0,.76Z" transform="translate(-2054.609 -1063.898)" fill="#8e8e8e"/>
            <path id="Trazado_126006" data-name="Trazado 126006" d="M2054.9,1279.737h3.966a.393.393,0,0,0,0-.759H2054.9a.393.393,0,0,0,0,.759Z" transform="translate(-2054.609 -1230.359)" fill="#8e8e8e"/>
            <path id="Trazado_126007" data-name="Trazado 126007" d="M2054.9,1243.4h8.111a.394.394,0,0,0,0-.76H2054.9a.394.394,0,0,0,0,.76Z" transform="translate(-2054.609 -1197.064)" fill="#8e8e8e"/>
            <path id="Trazado_126008" data-name="Trazado 126008" d="M2054.9,1207.075h3.966a.394.394,0,0,0,0-.76H2054.9a.394.394,0,0,0,0,.76Z" transform="translate(-2054.609 -1163.774)" fill="#8e8e8e"/>
            <path id="Trazado_126009" data-name="Trazado 126009" d="M2054.9,1352.4h3.966a.394.394,0,0,0,0-.76H2054.9a.394.394,0,0,0,0,.76Z" transform="translate(-2054.609 -1296.94)" fill="#8e8e8e"/>
            <path id="Trazado_126010" data-name="Trazado 126010" d="M2054.9,1316.066h3.966a.394.394,0,0,0,0-.76H2054.9a.393.393,0,0,0,0,.76Z" transform="translate(-2054.609 -1263.65)" fill="#8e8e8e"/>
            <path id="Trazado_126011" data-name="Trazado 126011" d="M2054.9,1425.055h8.111a.394.394,0,0,0,0-.76H2054.9a.394.394,0,0,0,0,.76Z" transform="translate(-2054.609 -1363.522)" fill="#8e8e8e"/>
            <path id="Trazado_126012" data-name="Trazado 126012" d="M2054.9,1388.726h3.966a.394.394,0,0,0,0-.76H2054.9a.394.394,0,0,0,0,.76Z" transform="translate(-2054.609 -1330.231)" fill="#8e8e8e"/>
            <path id="Trazado_126013" data-name="Trazado 126013" d="M2054.9,807.441h3.966a.394.394,0,0,0,0-.76H2054.9a.394.394,0,0,0,0,.76Z" transform="translate(-2054.609 -797.565)" fill="#8e8e8e"/>
            <path id="Trazado_126014" data-name="Trazado 126014" d="M2054.9,771.111h3.966a.394.394,0,0,0,0-.76H2054.9a.394.394,0,0,0,0,.76Z" transform="translate(-2054.609 -764.274)" fill="#8e8e8e"/>
            <path id="Trazado_126015" data-name="Trazado 126015" d="M2054.9,734.781h3.966a.393.393,0,0,0,0-.759H2054.9a.393.393,0,0,0,0,.759Z" transform="translate(-2054.609 -730.983)" fill="#8e8e8e"/>
            <path id="Trazado_126016" data-name="Trazado 126016" d="M2054.9,916.432h3.966a.394.394,0,0,0,0-.76H2054.9a.394.394,0,0,0,0,.76Z" transform="translate(-2054.609 -897.44)" fill="#8e8e8e"/>
            <path id="Trazado_126017" data-name="Trazado 126017" d="M2054.9,880.1h8.111a.394.394,0,0,0,0-.76H2054.9a.394.394,0,0,0,0,.76Z" transform="translate(-2054.609 -864.15)" fill="#8e8e8e"/>
            <path id="Trazado_126018" data-name="Trazado 126018" d="M2054.9,843.773h3.966a.394.394,0,0,0,0-.76H2054.9a.393.393,0,0,0,0,.76Z" transform="translate(-2054.609 -830.859)" fill="#8e8e8e"/>
            <path id="Trazado_126019" data-name="Trazado 126019" d="M2054.9,989.094h3.966a.394.394,0,0,0,0-.76H2054.9a.393.393,0,0,0,0,.76Z" transform="translate(-2054.609 -964.026)" fill="#8e8e8e"/>
            <path id="Trazado_126020" data-name="Trazado 126020" d="M2054.9,952.762h3.966a.394.394,0,0,0,0-.76H2054.9a.394.394,0,0,0,0,.76Z" transform="translate(-2054.609 -930.732)" fill="#8e8e8e"/>
            <path id="Trazado_126021" data-name="Trazado 126021" d="M2054.9,1061.754h8.111a.394.394,0,0,0,0-.76H2054.9a.394.394,0,0,0,0,.76Z" transform="translate(-2054.609 -1030.607)" fill="#8e8e8e"/>
            <path id="Trazado_126022" data-name="Trazado 126022" d="M2054.9,1025.424h3.966a.394.394,0,0,0,0-.76H2054.9a.394.394,0,0,0,0,.76Z" transform="translate(-2054.609 -997.316)" fill="#8e8e8e"/>
            <path id="Trazado_126023" data-name="Trazado 126023" d="M2054.9,698.452h8.111a.393.393,0,0,0,0-.759H2054.9a.393.393,0,0,0,0,.759Z" transform="translate(-2054.609 -697.693)" fill="#8e8e8e"/>
          </g>
          <rect id="Rectángulo_35452" data-name="Rectángulo 35452" width="3.024" height="208.95" transform="translate(0 0)" fill="#b7b7b7"/>
        </g>
        <g id="Grupo_90827" data-name="Grupo 90827" transform="translate(776.457 728.58)">
          <ellipse id="Elipse_4850" data-name="Elipse 4850" cx="27.321" cy="1.79" rx="27.321" ry="1.79" transform="translate(14.931 137.751)" opacity="0.08"/>
          <path id="Trazado_126024" data-name="Trazado 126024" d="M2953.635,2290.171a10.635,10.635,0,0,1-6.474-.341c-1.484-.787-2.821-3.539-3.97-6.839,7.08-.529,13.448-1.774,17.636-4.125.135.985,2.542,4.342,2.148,5.7C2961.134,2286.181,2957.007,2289.236,2953.635,2290.171Z" transform="translate(-2885.304 -2218.594)" fill="#ffc19f"/>
          <path id="Trazado_126025" data-name="Trazado 126025" d="M2788.858,2303.086c2.824.149,11.032.616,14.033.867a64.968,64.968,0,0,1,.011,10.732c-5.372.633-11,1.389-13.29.888-.879-.192-6.771-3.5-6.157-5.748C2784.421,2306.29,2785.726,2302.92,2788.858,2303.086Z" transform="translate(-2738.888 -2240.782)" fill="#f95006"/>
          <g id="Grupo_90813" data-name="Grupo 90813" transform="translate(73.664 53.127)">
            <g id="Grupo_90811" data-name="Grupo 90811" transform="translate(0 1.106)">
              <path id="Trazado_126026" data-name="Trazado 126026" d="M3132.294,2209.208c-.565,2.286-.656,4.647-.077,5.9.94,2.03,2.42,3.457,4.681,3.243,1.655-.156,4.03-1.475,6.511-4.395-1.107-1.305-4.369-5.717-6.725-7.3C3136.256,2208.208,3133.229,2208.942,3132.294,2209.208Z" transform="translate(-3131.824 -2206.657)" fill="#ffc19f"/>
              <path id="Trazado_126027" data-name="Trazado 126027" d="M3167.675,2228.614c1.78,1.9,5.372,1.406,7-.6-.531-.353-2.472-5.276-4.467-6.284-2.239-.39-2.628,2.524-3.318,2.176C3167.511,2224.892,3168.693,2226.929,3167.675,2228.614Z" transform="translate(-3163.959 -2220.434)" fill="#6d261d" opacity="0.2"/>
            </g>
            <g id="Grupo_90812" data-name="Grupo 90812" transform="translate(0.299)">
              <path id="Trazado_126028" data-name="Trazado 126028" d="M3194.216,2216.152c-1.019,1.317-1.352,2.742-.745,3.184s1.925-.269,2.944-1.586,1.352-2.743.745-3.184S3195.235,2214.835,3194.216,2216.152Z" transform="translate(-3188.336 -2212.678)" fill="#ffc19f"/>
              <path id="Trazado_126029" data-name="Trazado 126029" d="M3172.522,2195.475c-.839,1.427-.971,2.858-.294,3.2s1.9-.545,2.744-1.972.97-2.858.294-3.2S3173.361,2194.048,3172.522,2195.475Z" transform="translate(-3168.751 -2193.432)" fill="#ffc19f"/>
              <path id="Trazado_126030" data-name="Trazado 126030" d="M3214.694,2237.5c-1.259,1.1-1.856,2.484-1.333,3.082s1.967.187,3.226-.917,1.856-2.484,1.333-3.082S3215.953,2236.4,3214.694,2237.5Z" transform="translate(-3206.667 -2232.724)" fill="#ffc19f"/>
              <path id="Trazado_126031" data-name="Trazado 126031" d="M3225.915,2266.773c-1.26.809-1.981,2-1.61,2.656s1.694.535,2.954-.274,1.981-2,1.61-2.657S3227.176,2265.963,3225.915,2266.773Z" transform="translate(-3216.78 -2260)" fill="#ffc19f"/>
              <path id="Trazado_126032" data-name="Trazado 126032" d="M3150.371,2205.226c.38.836.315,1.741-1.811,2.69-1.356.605-3.047.486-3.391-.366s1.81-2.217,3.272-2.892S3150.126,2204.688,3150.371,2205.226Z" transform="translate(-3144.319 -2203.465)" fill="#541000" opacity="0.21"/>
              <path id="Trazado_126033" data-name="Trazado 126033" d="M3140.783,2205.023c1.281,1.777-1.216,3.087-2.76,3.8s-2.769.373-2.611-.505c.189-1.048.293-2.068,1.906-2.607C3138.91,2205.18,3140.436,2204.54,3140.783,2205.023Z" transform="translate(-3135.399 -2203.897)" fill="#ffc19f"/>
            </g>
          </g>
          <path id="Trazado_126034" data-name="Trazado 126034" d="M2322.141,2346.166c1.852.9,4.206,1.577,5.792,1.23,1.642-.359,3.912-2.146,5.906-5.015-6.677-2.415-12.474-5.327-15.876-8.717-.395.913-4.085,3.813-4.068,5.223A24.839,24.839,0,0,0,2322.141,2346.166Z" transform="translate(-2308.642 -2268.808)" fill="#ffc19f"/>
          <path id="Trazado_126035" data-name="Trazado 126035" d="M2796.875,2717.123c2.577-1.49,6.89-1.353,7.013,2.509.159,5.023.433,10.4.462,14.492-.933,1.373-9.17,1.625-10.3,2.6a29.533,29.533,0,0,1-2.631-8.563C2790.865,2725.178,2793.628,2719,2796.875,2717.123Z" transform="translate(-2746.165 -2619.389)" fill="#ffc19f"/>
          <path id="Trazado_126036" data-name="Trazado 126036" d="M2831.23,2882.589c.436,6.987.82,13.883,1.06,17.278a82.514,82.514,0,0,1-8.531.917,141.637,141.637,0,0,1-3.008-14.577,8.316,8.316,0,0,1,2.243-6.624C2824.689,2878.03,2828.866,2881.455,2831.23,2882.589Z" transform="translate(-2773.056 -2768.702)" fill="#ffc19f"/>
          <path id="Trazado_126037" data-name="Trazado 126037" d="M2840.393,3091.526c.036.263,9.965-.365,9.957-.687-.059-2.594-.054-6.186-.1-7.822l-10.576.828C2840.054,3086.774,2840.163,3089.842,2840.393,3091.526Z" transform="translate(-2790.448 -2955.486)" fill="#fff"/>
          <g id="Grupo_90814" data-name="Grupo 90814" transform="translate(49.057 128.751)">
            <path id="Trazado_126038" data-name="Trazado 126038" d="M2849.863,3099.358c-.191-.475-.379-1.128-.465-1.42-.162-.552-5.216-.529-5.235.8-.005.34,0,.641.023.913-.685,0-1.427-.018-2.211-.065a28.342,28.342,0,0,1-4.3-.551c-.022,2.215.031,5.744-.046,8.081,0,0,16.61,3.559,19.445.088C2857.738,3103.773,2855.56,3102.179,2849.863,3099.358Z" transform="translate(-2837.627 -3097.598)" fill="#2d8f91"/>
            <path id="Trazado_126039" data-name="Trazado 126039" d="M2837.651,3193.88c0,.52-.01,1.021-.024,1.466,0,0,15.969,3.741,19.385.508a.781.781,0,0,0,.119-.713C2852.2,3196.53,2842.083,3194.94,2837.651,3193.88Z" transform="translate(-2837.627 -3185.827)" fill="#19555b"/>
            <path id="Trazado_126040" data-name="Trazado 126040" d="M2959.853,3121.67a.284.284,0,1,1-.451-.346,3.443,3.443,0,0,1,3.355-1.308.284.284,0,0,1-.127.554A2.843,2.843,0,0,0,2959.853,3121.67Zm1.431.706a.284.284,0,1,1-.41-.395,3.982,3.982,0,0,1,3.382-1.244.284.284,0,0,1,.248.317.278.278,0,0,1-.317.247A3.376,3.376,0,0,0,2961.284,3122.377Z" transform="translate(-2949.163 -3118.079)" fill="#d2dae5"/>
          </g>
          <path id="Trazado_126041" data-name="Trazado 126041" d="M2572.975,2717.123c-2.577-1.49-6.89-1.353-7.013,2.509-.16,5.023-.434,10.4-.462,14.492.933,1.373,9.17,1.625,10.3,2.6a29.544,29.544,0,0,0,2.631-8.563C2578.985,2725.178,2576.221,2719,2572.975,2717.123Z" transform="translate(-2539.204 -2619.389)" fill="#ffc19f"/>
          <path id="Trazado_126042" data-name="Trazado 126042" d="M2554.6,2881.267c-.436,6.986-.82,13.883-1.06,17.277a82.294,82.294,0,0,0,8.531.917,141.566,141.566,0,0,0,3.008-14.577,8.316,8.316,0,0,0-2.243-6.624C2561.14,2876.708,2556.963,2880.133,2554.6,2881.267Z" transform="translate(-2528.244 -2767.491)" fill="#ffc19f"/>
          <path id="Trazado_126043" data-name="Trazado 126043" d="M2556.6,2651.963c1.561.781,11.916,1.8,14.357,1.408.591-2.649.869-4.246,1.671-7.963.226-1.048,1.007-1.123,1.29-.034.177.679.816,3.809,1.571,7.969,3.2.571,12.027-.48,14.788-1.47,0,0-1.693-15.133-2.188-19.353-5.4-.4-23.849-.3-29.664.192C2557.816,2636.655,2557.11,2645.869,2556.6,2651.963Z" transform="translate(-2531.052 -2542.443)" fill="#1b6168"/>
          <path id="Trazado_126044" data-name="Trazado 126044" d="M2575.581,2632.712c-.086.548-.173,1.216-.261,1.945a69.692,69.692,0,0,0,15.4,1.741c5.408.027,11.043-.926,14.661-2.691l-.137-1.187C2599.843,2632.125,2581.4,2632.22,2575.581,2632.712Z" transform="translate(-2548.203 -2542.443)" opacity="0.37"/>
          <path id="Trazado_126045" data-name="Trazado 126045" d="M2600.1,2299.756c-3.71-1.366-19.434-1.119-23.306.622-1.09,11.867-2.973,23.039-2.759,27.138.769.579,7.44,2.737,15.466,2.865,5.673.09,13.149-1.472,14.965-3.272C2604.274,2321.079,2601.479,2303.982,2600.1,2299.756Z" transform="translate(-2547.006 -2236.933)" fill="#f95006"/>
          <g id="Grupo_90817" data-name="Grupo 90817" transform="translate(0 57.908)">
            <g id="Grupo_90815" data-name="Grupo 90815" transform="translate(0.506 1.534)">
              <path id="Trazado_126046" data-name="Trazado 126046" d="M2269.136,2272.573c-.071,2.354-.618,4.652-1.512,5.7-1.452,1.7-3.262,2.678-5.381,1.864-1.552-.6-3.485-2.505-5.088-5.985,1.417-.959,5.746-4.33,8.44-5.217C2265.59,2270.544,2268.307,2272.066,2269.136,2272.573Z" transform="translate(-2257.155 -2268.935)" fill="#ffc19f"/>
              <path id="Trazado_126047" data-name="Trazado 126047" d="M2272.808,2286.668c-2.225,1.35-5.552-.092-6.582-2.463.607-.2,3.8-4.417,5.993-4.851,2.261.227,1.853,3.138,2.61,2.989C2273.967,2283.127,2272.28,2284.772,2272.808,2286.668Z" transform="translate(-2265.468 -2278.482)" fill="#6d261d" opacity="0.2"/>
            </g>
            <g id="Grupo_90816" data-name="Grupo 90816">
              <path id="Trazado_126048" data-name="Trazado 126048" d="M2302.606,2266.1c.627,1.543.565,3.005-.138,3.267s-1.782-.777-2.409-2.32-.564-3.006.139-3.267S2301.979,2264.554,2302.606,2266.1Z" transform="translate(-2295.568 -2262.638)" fill="#ffc19f"/>
              <path id="Trazado_126049" data-name="Trazado 126049" d="M2332.448,2253.247c.424,1.6.166,3.014-.576,3.158s-1.688-1.037-2.112-2.637-.166-3.014.576-3.158S2332.024,2251.647,2332.448,2253.247Z" transform="translate(-2322.994 -2250.598)" fill="#ffc19f"/>
              <path id="Trazado_126050" data-name="Trazado 126050" d="M2270.72,2279.566c.915,1.4,1.119,2.891.455,3.327s-1.945-.349-2.86-1.751-1.119-2.891-.455-3.326S2269.8,2278.164,2270.72,2279.566Z" transform="translate(-2266.101 -2275.429)" fill="#ffc19f"/>
              <path id="Trazado_126051" data-name="Trazado 126051" d="M2254.119,2305.471c1,1.118,1.37,2.457.835,2.991s-1.775.06-2.771-1.059-1.37-2.458-.836-2.992S2253.123,2304.353,2254.119,2305.471Z" transform="translate(-2251.104 -2299.71)" fill="#ffc19f"/>
              <path id="Trazado_126052" data-name="Trazado 126052" d="M2334.267,2265.108c-.591.7-.771,1.592,1.02,3.078,1.143.948,2.8,1.288,3.364.559s-1.146-2.622-2.373-3.665S2334.647,2264.655,2334.267,2265.108Z" transform="translate(-2326.934 -2263.344)" fill="#541000" opacity="0.21"/>
              <path id="Trazado_126053" data-name="Trazado 126053" d="M2341.362,2265.659c-1.711,1.367.34,3.3,1.636,4.4s2.566,1.1,2.65.216c.1-1.06.274-2.071-1.135-3.023C2343.125,2266.315,2341.827,2265.288,2341.362,2265.659Z" transform="translate(-2333.215 -2264.328)" fill="#ffc19f"/>
            </g>
          </g>
          <path id="Trazado_126054" data-name="Trazado 126054" d="M2470.985,2310.053a81.423,81.423,0,0,0-11.619,6.18,70.363,70.363,0,0,0,5.321,9.828c5.022-2.01,10.329-4.029,12.088-5.592.675-.6,4.269-7.744,3.543-10.036C2479.768,2308.7,2473.9,2308.889,2470.985,2310.053Z" transform="translate(-2441.947 -2246.349)" fill="#f95006"/>
          <g id="Grupo_90819" data-name="Grupo 90819" transform="translate(33.83 53.984)">
            <g id="Grupo_90818" data-name="Grupo 90818" transform="translate(2.378 18.029)" opacity="0.34">
              <path id="Trazado_126055" data-name="Trazado 126055" d="M2690.916,2419.676l1.355,2.641a.8.8,0,0,0,.611.43l2.944.38a.8.8,0,0,1,.466,1.362l-2.093,2.1a.8.8,0,0,0-.219.714l.548,2.917a.8.8,0,0,1-1.151.864l-2.648-1.34a.8.8,0,0,0-.747.012l-2.605,1.422a.8.8,0,0,1-1.177-.827l.456-2.933a.8.8,0,0,0-.242-.706l-2.158-2.039a.8.8,0,0,1,.423-1.375l2.93-.473a.8.8,0,0,0,.6-.448l1.272-2.682A.8.8,0,0,1,2690.916,2419.676Z" transform="translate(-2684.003 -2419.24)" fill="#fff"/>
            </g>
            <path id="Trazado_126056" data-name="Trazado 126056" d="M2655.577,2301.627a3.694,3.694,0,0,1,.151-1.19c4.629-.386,11.691-.757,16.531-.167a3.478,3.478,0,0,1,.1.54c.212,3.488-3.336,6.34-7.985,6.622S2655.789,2305.115,2655.577,2301.627Z" transform="translate(-2655.572 -2291.91)" fill="#a02e07"/>
            <path id="Trazado_126057" data-name="Trazado 126057" d="M2682.682,2203.988l.245,9.809c.036,2.12,2.721,3.793,6.044,3.737s6.027-1.823,5.991-3.942l-.247-9.9Z" transform="translate(-2680.414 -2203.688)" fill="#ffc19f"/>
            <path id="Trazado_126058" data-name="Trazado 126058" d="M2695.384,2233.841a12.13,12.13,0,0,1-12.09-2.092l-.159-6.363s9.724,1,12.078,1.634Z" transform="translate(-2680.829 -2223.572)" fill="#7f1703" opacity="0.19"/>
          </g>
          <g id="Grupo_90825" data-name="Grupo 90825" transform="translate(10.568)">
            <g id="Grupo_90820" data-name="Grupo 90820" transform="translate(50.862 34.142)">
              <path id="Trazado_126059" data-name="Trazado 126059" d="M2997.617,1974.942c-1.431,6.228-7.113,8.856-10.116,7.818-2.608-.9-2.126-5.75-1.266-9.092.834-3.244,2.147-6.483,5.459-7.129C2995.582,1965.782,2998.736,1970.072,2997.617,1974.942Z" transform="translate(-2985.55 -1966.452)" fill="#ffc19f"/>
              <path id="Trazado_126060" data-name="Trazado 126060" d="M3017.3,2027.193c-.508,2.854-3.36,4.707-5.122,4.238-.912-.243-.64-1.771-.336-3.918.341-2.412.932-4.315,2.6-4.628C3016.261,2022.548,3017.729,2024.8,3017.3,2027.193Z" transform="translate(-3009.381 -2018.135)" fill="#e0956c"/>
            </g>
            <g id="Grupo_90821" data-name="Grupo 90821" transform="translate(0 34.142)">
              <path id="Trazado_126061" data-name="Trazado 126061" d="M2377.678,1974.942c1.431,6.228,7.113,8.856,10.116,7.818,2.608-.9,2.126-5.75,1.266-9.092-.834-3.244-2.147-6.483-5.459-7.129C2379.712,1965.782,2376.559,1970.072,2377.678,1974.942Z" transform="translate(-2377.449 -1966.452)" fill="#ffc19f"/>
              <path id="Trazado_126062" data-name="Trazado 126062" d="M2428.931,2027.193c.509,2.854,3.36,4.707,5.122,4.238.912-.243.64-1.771.336-3.918-.342-2.412-.932-4.315-2.605-4.628C2429.973,2022.548,2428.5,2024.8,2428.931,2027.193Z" transform="translate(-2424.557 -2018.135)" fill="#e0956c"/>
            </g>
            <path id="Trazado_126063" data-name="Trazado 126063" d="M2508.043,1635.385c-2.473-8.338-14.34-13.216-23.882-13.174-9.973.044-21.428,4.883-23.883,13.174-2.026,6.845-.582,25.819,3.23,32.445,2.74,4.763,9.593,11.042,20.618,11.052h.069c11.025-.011,17.878-6.289,20.618-11.052C2508.625,1661.2,2510.072,1642.229,2508.043,1635.385Z" transform="translate(-2452.51 -1616.861)" fill="#ffc19f"/>
            <path id="Trazado_126064" data-name="Trazado 126064" d="M2729.925,2042.5a.244.244,0,0,0,.236-.21,1.7,1.7,0,0,1,3.365-.02.243.243,0,0,0,.273.211.249.249,0,0,0,.2-.284,2.183,2.183,0,0,0-4.315.012.249.249,0,0,0,.2.287Z" transform="translate(-2700.223 -2000.032)" fill="#c4735b"/>
            <path id="Trazado_126065" data-name="Trazado 126065" d="M2875.338,1820.2a.673.673,0,0,1-.407-.274c-1.309-1.861-5.522-3.233-8.523-2.793a.687.687,0,0,1-.773-.6.726.726,0,0,1,.575-.806c3.313-.745,8.21,1.063,9.821,3.356a.727.727,0,0,1-.149.99A.659.659,0,0,1,2875.338,1820.2Z" transform="translate(-2824.796 -1794.039)" fill="#772400"/>
            <path id="Trazado_126066" data-name="Trazado 126066" d="M2518.274,1820.2a.675.675,0,0,0,.408-.274c1.308-1.861,5.521-3.233,8.523-2.793a.687.687,0,0,0,.773-.6.726.726,0,0,0-.575-.806c-3.313-.745-8.21,1.063-9.821,3.356a.728.728,0,0,0,.149.99A.658.658,0,0,0,2518.274,1820.2Z" transform="translate(-2505.741 -1794.039)" fill="#772400"/>
            <path id="Trazado_126067" data-name="Trazado 126067" d="M2909.695,2078.593c.076.993,1.682,1.679,3.588,1.534s3.388-1.069,3.313-2.061-1.682-1.68-3.587-1.534S2909.618,2077.6,2909.695,2078.593Z" transform="translate(-2865.175 -2033.164)" fill="#ff8a8a"/>
            <g id="Grupo_90822" data-name="Grupo 90822" transform="translate(13.397 30.449)">
              <path id="Trazado_126068" data-name="Trazado 126068" d="M2552.333,1931.038c1.845,2.741,1.581,5.741-.07,6.867-2.487,1.7-8.332,2.138-10.484-.365-2.084-2.425-1.018-6.8,2.442-8.659A6.107,6.107,0,0,1,2552.333,1931.038Z" transform="translate(-2540.456 -1927.639)" fill="#f9feff"/>
              <path id="Trazado_126069" data-name="Trazado 126069" d="M2538.628,1924.844c2.724-4.2,9.153-2.715,10.931.948a6.175,6.175,0,0,0-8.092-2.1,6.5,6.5,0,0,0-3.319,4.467,5.209,5.209,0,0,0,.915,4.172C2538.061,1931.672,2536.625,1927.933,2538.628,1924.844Z" transform="translate(-2537.621 -1922.3)" fill="#723c27"/>
              <path id="Trazado_126070" data-name="Trazado 126070" d="M2588.869,1959.01a3.687,3.687,0,1,1-4.784-2.076A3.687,3.687,0,0,1,2588.869,1959.01Z" transform="translate(-2578.06 -1953.8)" fill="#752912"/>
              <path id="Trazado_126071" data-name="Trazado 126071" d="M2589.266,1973.574a1.023,1.023,0,1,1-1.327-.576A1.023,1.023,0,0,1,2589.266,1973.574Z" transform="translate(-2583.136 -1968.692)" fill="#fefffe"/>
            </g>
            <g id="Grupo_90823" data-name="Grupo 90823" transform="translate(37.157 30.449)">
              <path id="Trazado_126072" data-name="Trazado 126072" d="M2822.971,1931.038c-1.844,2.741-1.58,5.741.07,6.867,2.487,1.7,8.332,2.138,10.484-.365,2.084-2.425,1.018-6.8-2.442-8.659A6.107,6.107,0,0,0,2822.971,1931.038Z" transform="translate(-2821.692 -1927.639)" fill="#f9feff"/>
              <path id="Trazado_126073" data-name="Trazado 126073" d="M2847.171,1924.844c-2.724-4.2-9.152-2.715-10.931.948a6.175,6.175,0,0,1,8.092-2.1,6.5,6.5,0,0,1,3.319,4.467,5.209,5.209,0,0,1-.915,4.172C2847.738,1931.672,2849.174,1927.933,2847.171,1924.844Z" transform="translate(-2835.023 -1922.3)" fill="#723c27"/>
              <path id="Trazado_126074" data-name="Trazado 126074" d="M2846.909,1959.01a3.687,3.687,0,1,0,4.784-2.076A3.688,3.688,0,0,0,2846.909,1959.01Z" transform="translate(-2844.563 -1953.8)" fill="#752912"/>
              <path id="Trazado_126075" data-name="Trazado 126075" d="M2852.512,1973.574a1.023,1.023,0,1,0,1.328-.576A1.023,1.023,0,0,0,2852.512,1973.574Z" transform="translate(-2849.868 -1968.692)" fill="#fefffe"/>
            </g>
            <path id="Trazado_126076" data-name="Trazado 126076" d="M2527.178,2078.593c-.076.993-1.682,1.679-3.588,1.534s-3.388-1.069-3.313-2.061,1.682-1.68,3.588-1.534S2527.254,2077.6,2527.178,2078.593Z" transform="translate(-2508.329 -2033.164)" fill="#ff8a8a"/>
            <g id="Grupo_90824" data-name="Grupo 90824" transform="translate(4.148 3.354)">
              <path id="Trazado_126077" data-name="Trazado 126077" d="M2761.506,1598.347h.038c16.718.455,23.174,7.232,25.519,13.331,1.895,4.93,1.575,9.927.443,17.491a1.912,1.912,0,0,0-1.7.769c-.7.814-1.278,2.149-1.682,2.577.03-1.171.086-2.414.135-3.679.058-4.093.318-10.546-2.426-15.484-3.148-5.664-8.131-8.752-20.33-8.752Z" transform="translate(-2733.531 -1598.346)" fill="#772400"/>
              <path id="Trazado_126078" data-name="Trazado 126078" d="M2453.955,1598.347h-.038c-16.718.455-23.175,7.232-25.519,13.331-1.895,4.93-1.575,9.927-.442,17.491a1.913,1.913,0,0,1,1.7.769c.7.814,1.278,2.149,1.681,2.577-.03-1.171-.086-2.414-.135-3.679-.058-4.093-.318-10.546,2.426-15.484,3.148-5.664,8.13-8.752,20.33-8.752Z" transform="translate(-2427.041 -1598.346)" fill="#772400"/>
            </g>
            <path id="Trazado_126079" data-name="Trazado 126079" d="M2598.037,1561.98c-.378,1.229-1.15,1.423-2.223,1.306.858-2.535-.117-4.835-5.016-5.036.932,2.774-1.6,3.627-8.084,2.845-5.2-.627-11.508.446-14.335,3.688,1.079-.075,4.643,2.792,5.519,3.372.81.536,7.4,6.969,16.847,5.313-2.063-.327-8.245-.7-13.747-4.987a40.374,40.374,0,0,0,5.868,2C2592.489,1573.081,2600.2,1569.046,2598.037,1561.98Z" transform="translate(-2552.41 -1558.251)" fill="#772400"/>
            <path id="Trazado_126080" data-name="Trazado 126080" d="M2688.806,2173.6c-1.392-1.14-6.673-1.975-6.673-1.975s-5.281.835-6.673,1.975a10.178,10.178,0,0,0,6.537,2.141c.047,0,.09-.008.136-.01s.089.009.136.01A10.179,10.179,0,0,0,2688.806,2173.6Z" transform="translate(-2650.533 -2120.318)" fill="#ea7063"/>
            <path id="Trazado_126081" data-name="Trazado 126081" d="M2654.8,2101.558a.242.242,0,0,1-.075,0c-5.017-.2-8.917-1.149-9.084,2.282-.2,4.195,4,7.429,9.023,7.349h.276c5.02.08,9.227-3.155,9.023-7.349C2663.8,2100.409,2659.818,2101.358,2654.8,2101.558Z" transform="translate(-2623.203 -2055.867)" fill="#701608"/>
            <path id="Trazado_126082" data-name="Trazado 126082" d="M2694.783,2170.237c-.989-1.539-3.336-2.622-6.08-2.622s-5.1,1.088-6.085,2.632a10.249,10.249,0,0,0,5.937,1.723h.276A10.248,10.248,0,0,0,2694.783,2170.237Z" transform="translate(-2657.094 -2116.648)" fill="#ea7063"/>
          </g>
          <path id="Trazado_126083" data-name="Trazado 126083" d="M2555.5,3090.2c-.036.263-9.965-.365-9.958-.687.059-2.594.054-6.186.1-7.822l10.577.828C2555.842,3085.452,2555.733,3088.52,2555.5,3090.2Z" transform="translate(-2520.918 -2954.275)" fill="#fff"/>
          <g id="Grupo_90826" data-name="Grupo 90826" transform="translate(15.912 128.641)">
            <path id="Trazado_126084" data-name="Trazado 126084" d="M2448.675,3098.036c.191-.475.379-1.128.465-1.42.162-.552,5.217-.529,5.235.8.005.34,0,.641-.022.914.684,0,1.427-.018,2.21-.065a28.381,28.381,0,0,0,4.3-.551c.022,2.215-.031,5.744.046,8.081,0,0-16.61,3.559-19.444.088C2440.8,3102.451,2442.978,3100.857,2448.675,3098.036Z" transform="translate(-2441.35 -3096.276)" fill="#2d8f91"/>
            <path id="Trazado_126085" data-name="Trazado 126085" d="M2461.1,3192.562c0,.52.01,1.021.024,1.465,0,0-15.969,3.742-19.385.508a.783.783,0,0,1-.12-.714C2446.558,3195.213,2456.673,3193.622,2461.1,3192.562Z" transform="translate(-2441.568 -3184.509)" fill="#19555b"/>
            <path id="Trazado_126086" data-name="Trazado 126086" d="M2496.432,3120.349a.282.282,0,0,0,.238.111.278.278,0,0,0,.16-.058.284.284,0,0,0,.053-.4,3.444,3.444,0,0,0-3.355-1.308.285.285,0,0,0,.127.555A2.842,2.842,0,0,1,2496.432,3120.349Zm-1.43.706a.284.284,0,1,0,.41-.395,3.982,3.982,0,0,0-3.382-1.244.284.284,0,0,0-.247.317.277.277,0,0,0,.317.247A3.376,3.376,0,0,1,2495,3121.055Z" transform="translate(-2487.562 -3116.757)" fill="#d2dae5"/>
          </g>
        </g>
        <g id="Grupo_90841" data-name="Grupo 90841" transform="translate(650.564 688.259)">
          <path id="Trazado_126087" data-name="Trazado 126087" d="M924.9,1251.2c-1.1-.708-4.4-3.177-3.267-9.2.419-2.229-1.107-3.042-2.453-3.76-1.836-.98-3.422-1.827-1.572-5.756,2.315-4.912,1.177-9.221-2.966-11.245a27.452,27.452,0,0,1-9.373-8.458c-1.051-2.179-1.887-4.271-2.464-5.818-17.991-3.714-48.317,3.913-57.568,7.474l-1.144-1.477c-.6,4.455-4.5,7.69-6.908,10.635-2.919,3.567-4.207,7.343-2.378,11.36.724,1.594,1.283,3.011.781,4.218-.425,1.022-1.63,1.89-3.685,2.654-2.034.756-3.28,1.737-3.8,3-.742,1.781.121,3.679.881,5.351a6.04,6.04,0,0,1,.126,3.874c-1.19,3.371-2.38,4.6-1.787,6.984-.158-2.526,1.274-3.841,2.354-6.654a6.325,6.325,0,0,0-.4-4.95c-.71-1.551-1.2-2.836-.573-4.354.452-1.086,1.572-1.948,3.429-2.637,2.264-.842,3.555-1.8,4.062-3.017a3.278,3.278,0,0,0,.2-1.432c1.066,2.384,1.047,4.331-3.258,6.232-7.913,3.495-.22,8.874-1.392,11.213-2.011,4.016-2.59,4.794-2.273,7.932a7.394,7.394,0,0,0,5.451,6.451c.034-.565-2.525-3.868-.345-9.323.471,3.007,3.391,10.078,4.213,10.261,13.117,2.923,52.308,6.478,66.545-.11,2.72-1.259,2.211-7.35,2.962-9.021.544-1.21,3.018,9.3,3.942,8.331,12.5-13.144,9.737-17.256,8.235-17.422-2.09-.231-3.423-.065-1.131-9.569,1.112-4.609-7.463-2.238-4-9.594,2.077-4.41,1.169-8.17-2.814-10.81a15.858,15.858,0,0,1-3.832-3.938,33.1,33.1,0,0,0,5.5,3.471c3.844,1.876,4.99,5.489,2.813,10.109-2.117,4.495.085,5.67,1.854,6.614,1.368.73,2.463,1.309,2.12,3.061C919.673,1248.592,924.258,1250.99,924.9,1251.2Zm-89.83-17.408c-1.136-3.3-.185-6.343,2.366-9.459,1.434-1.752,3.656-3.2,5.4-5.009C840.5,1225.226,835.153,1229.281,835.07,1233.787Z" transform="translate(-820.367 -1195.11)" fill="#752912"/>
          <ellipse id="Elipse_4851" data-name="Elipse 4851" cx="36.309" cy="2.926" rx="36.309" ry="2.926" transform="translate(18.623 176.735)" opacity="0.11"/>
          <g id="Grupo_90829" data-name="Grupo 90829" transform="translate(56.97 123.837)">
            <path id="Trazado_126088" data-name="Trazado 126088" d="M1431.295,2605.53c.029.309,10.07-.072,10.084-.448.12-3.265-.021-46.418.014-48.312l-14.33,4.474C1427.455,2564.475,1431.085,2603.3,1431.295,2605.53Z" transform="translate(-1427.063 -2556.77)" fill="#ffc19f"/>
            <path id="Trazado_126089" data-name="Trazado 126089" d="M1461.453,3055.652c.021.24,12.777.256,12.813-.046.272-2.233.077-7.592.2-8.887h-13.5C1461.167,3049.14,1461.317,3054.118,1461.453,3055.652Z" transform="translate(-1458.123 -3005.74)" fill="#fcf6b4"/>
            <g id="Grupo_90828" data-name="Grupo 90828" transform="translate(2.414 43.776)">
              <path id="Trazado_126090" data-name="Trazado 126090" d="M1472.1,3082.874c-.172-.681-.539-1.546-.82-2.337-.209-.586-5.906-.6-5.949.794a8.352,8.352,0,0,0,.021.962c-.975-.009-2.031-.042-3.146-.1a53.847,53.847,0,0,1-6.117-.648c-.142,2.21-.024,6.045-.161,8.5,0,0,25.314,5.252,29.39,1.645C1486.464,3090.672,1480.176,3085.934,1472.1,3082.874Z" transform="translate(-1455.926 -3080.16)" fill="#f44d19"/>
              <path id="Trazado_126091" data-name="Trazado 126091" d="M1455.978,3179.892c-.011.547-.026,1.074-.052,1.542,0,0,25.314,5.252,29.39,1.645.162-.143.173-.362.055-.638C1478.332,3183.826,1462.274,3181.078,1455.978,3179.892Z" transform="translate(-1455.926 -3171.551)" fill="#b22909"/>
              <path id="Trazado_126092" data-name="Trazado 126092" d="M1625.2,3112.961a.356.356,0,0,0,.167-.692,4.306,4.306,0,0,0-4.214,1.589.355.355,0,1,0,.559.439A3.555,3.555,0,0,1,1625.2,3112.961Zm1.936.937a.347.347,0,0,0,.4-.3.355.355,0,0,0-.3-.4,4.981,4.981,0,0,0-4.247,1.508.356.356,0,1,0,.507.5A4.224,4.224,0,0,1,1627.139,3113.9Zm2.139.326a5.451,5.451,0,0,0-4.423,1.476.356.356,0,0,0,.487.519,4.665,4.665,0,0,1,3.8-1.3.35.35,0,0,0,.416-.282A.355.355,0,0,0,1629.278,3114.224Z" transform="translate(-1607.266 -3109.498)" fill="#d3dae5"/>
            </g>
          </g>
          <g id="Grupo_90831" data-name="Grupo 90831" transform="translate(21.258 123.837)">
            <path id="Trazado_126093" data-name="Trazado 126093" d="M1220.345,2605.53c-.029.309-10.071-.072-10.084-.448-.12-3.265.021-46.418-.014-48.312l14.33,4.474C1224.186,2564.475,1220.555,2603.3,1220.345,2605.53Z" transform="translate(-1192.638 -2556.77)" fill="#ffc19f"/>
            <path id="Trazado_126094" data-name="Trazado 126094" d="M1199.635,3055.652c-.021.24-12.776.256-12.813-.046-.271-2.233-.076-7.592-.2-8.887h13.5C1199.921,3049.14,1199.771,3054.118,1199.635,3055.652Z" transform="translate(-1171.025 -3005.74)" fill="#fcf6b4"/>
            <g id="Grupo_90830" data-name="Grupo 90830" transform="translate(0 43.776)">
              <path id="Trazado_126095" data-name="Trazado 126095" d="M1013.451,3082.874c.172-.681.538-1.546.82-2.337.209-.586,5.906-.6,5.949.794a8.412,8.412,0,0,1-.021.962c.975-.009,2.031-.042,3.146-.1a53.871,53.871,0,0,0,6.117-.648c.142,2.21.024,6.045.161,8.5,0,0-25.314,5.252-29.39,1.645C999.084,3090.672,1005.373,3085.934,1013.451,3082.874Z" transform="translate(-1000.097 -3080.16)" fill="#f44d19"/>
              <path id="Trazado_126096" data-name="Trazado 126096" d="M1029.586,3179.892c.011.547.027,1.074.053,1.542,0,0-25.314,5.252-29.39,1.645-.162-.143-.174-.362-.056-.638C1007.233,3183.826,1023.29,3181.078,1029.586,3179.892Z" transform="translate(-1000.113 -3171.551)" fill="#b22909"/>
              <path id="Trazado_126097" data-name="Trazado 126097" d="M1094.324,3114.3a.356.356,0,1,0,.559-.439,4.306,4.306,0,0,0-4.214-1.589.356.356,0,0,0,.167.692A3.555,3.555,0,0,1,1094.324,3114.3Zm-1.779.9a.356.356,0,1,0,.507-.5,4.981,4.981,0,0,0-4.247-1.508.355.355,0,0,0-.305.4.347.347,0,0,0,.4.3A4.223,4.223,0,0,1,1092.545,3115.2Zm-6.067-.56a.35.35,0,0,0,.417.282,4.666,4.666,0,0,1,3.8,1.3.356.356,0,0,0,.487-.519,5.45,5.45,0,0,0-4.423-1.476A.355.355,0,0,0,1086.478,3114.64Z" transform="translate(-1079.247 -3109.498)" fill="#d3dae5"/>
            </g>
          </g>
          <g id="Grupo_90832" data-name="Grupo 90832" transform="translate(26.184 110.095)">
            <path id="Trazado_126098" data-name="Trazado 126098" d="M1058.987,2415.479c11.626,8.911,43.673,9.458,56.555,0,0,0-6.12-14.279-8.983-22.348-7.38-.78-31.581-.95-39.52-.061C1064.7,2400.777,1061.85,2406.844,1058.987,2415.479Z" transform="translate(-1058.987 -2392.471)" fill="#2a535e"/>
            <path id="Trazado_126099" data-name="Trazado 126099" d="M1138.18,2397.762c12.115,2.952,27.863,3.429,42.261-.928-.315-.866-1.039-2.933-1.313-3.7-7.38-.781-31.581-.95-39.52-.061Z" transform="translate(-1131.556 -2392.47)" opacity="0.35"/>
          </g>
          <path id="Trazado_126100" data-name="Trazado 126100" d="M1508.379,1916.047c-2.464-3.545-10.528-14.947-11.815-16.333-.483-.52-6.925-1.793-12.25-2.27,1.278,2.79,7.382,22.78,9.831,26.622C1496.26,1923.771,1505.83,1918.182,1508.379,1916.047Z" transform="translate(-1422.555 -1828.753)" fill="#28afc6"/>
          <path id="Trazado_126101" data-name="Trazado 126101" d="M924.9,1976.469c-.7.8-6.809-3.835-6.2-4.714,9.074-13.13,18.591-30.169,20.5-33.836l9.655,6.823C943.532,1953.5,934.541,1965.457,924.9,1976.469Z" transform="translate(-904.211 -1865.843)" fill="#ffc19f"/>
          <g id="Grupo_90833" data-name="Grupo 90833" transform="translate(0 103.528)">
            <path id="Trazado_126102" data-name="Trazado 126102" d="M817.19,2406.894c1.724-1.558,4.044-4.167,9.089-8.444.576-.489,3.507,1,2.857,1.41C825.358,2402.226,819.793,2408.926,817.19,2406.894Z" transform="translate(-811.23 -2391.294)" fill="#ea976e"/>
            <path id="Trazado_126103" data-name="Trazado 126103" d="M778.888,2388.278c1.724-1.557,5.1-6.113,10.895-8.761.714-.327,3.357,1.407,2.706,1.814C788.711,2383.7,781.07,2389.9,778.888,2388.278Z" transform="translate(-776.132 -2373.996)" fill="#ea976e"/>
            <path id="Trazado_126104" data-name="Trazado 126104" d="M745.935,2325.208a124.482,124.482,0,0,1,18.229-11.238c.714-.327,3.624,4.414,3.119,5.56.322,2.948-3.831,5.506-5.792,11.319-.339,1-1.488-.17-1.665-.63-.457-1.185-.151-1.586-.268-4.716-.072-1.907-2.13-2.559-3.394-2.4C750.9,2324.666,747.612,2326.676,745.935,2325.208Z" transform="translate(-745.935 -2313.954)" fill="#ffc19f"/>
          </g>
          <path id="Trazado_126105" data-name="Trazado 126105" d="M1018.883,1915.867c2.464-3.545,10.528-14.947,11.815-16.333.482-.52,6.925-1.793,12.25-2.27-1.278,2.79-7.382,22.78-9.831,26.623C1031,1923.59,1021.432,1918,1018.883,1915.867Z" transform="translate(-996.054 -1828.588)" fill="#28afc6"/>
          <path id="Trazado_126106" data-name="Trazado 126106" d="M1130.7,1936.45c12.039,3.947,33.088,4.744,43.932-.638,0,0-3.158-34.939-4.822-43.034a63.391,63.391,0,0,0-15.232-2.01c-6.987-.067-14.421,1.313-18.958,2.067C1134.427,1903.164,1132.109,1921.2,1130.7,1936.45Z" transform="translate(-1098.522 -1822.634)" fill="#28afc6"/>
          <path id="Trazado_126107" data-name="Trazado 126107" d="M1296.555,1893.863a4.683,4.683,0,0,0-.215-1.455c-6.179-.917-13.782-.393-19.672.163a4.683,4.683,0,0,0-.144.69c-.125,4.149,4.258,7.647,9.79,7.813S1296.43,1898.012,1296.555,1893.863Z" transform="translate(-1232.143 -1823.681)" fill="#ffc19f"/>
          <path id="Trazado_126108" data-name="Trazado 126108" d="M1325.449,1775.834l-.127,11.713c-.028,2.519-3.25,4.526-7.2,4.483s-7.128-2.12-7.1-4.638l.127-11.713Z" transform="translate(-1263.758 -1717.172)" fill="#ffc19f"/>
          <path id="Trazado_126109" data-name="Trazado 126109" d="M1279.6,1705.142c-3.747,3.747-10.89,2.678-15.955-2.387s-6.133-12.208-2.386-15.955,10.89-2.678,15.955,2.386S1283.349,1701.4,1279.6,1705.142Z" transform="translate(-1216.109 -1633.678)" fill="#820303" opacity="0.19"/>
          <g id="Grupo_90834" data-name="Grupo 90834" transform="translate(45.021 82.483)">
            <path id="Trazado_126110" data-name="Trazado 126110" d="M1458.241,2065.1a4.719,4.719,0,0,1-.407,3.947c-1.029,1.6-3.024,1.782-4.035.352C1453.347,2068.754,1456.695,2066.647,1458.241,2065.1Z" transform="translate(-1439.577 -2064.867)" fill="#ffb8b6"/>
            <path id="Trazado_126111" data-name="Trazado 126111" d="M1461.234,2090.72a2.892,2.892,0,0,1-.885,2.143c-.874.873-2.1.98-2.467.208C1457.717,2092.725,1460.059,2091.568,1461.234,2090.72Z" transform="translate(-1443.349 -2088.347)" fill="#e08686"/>
            <path id="Trazado_126112" data-name="Trazado 126112" d="M1284.5,2062.346a4.716,4.716,0,0,0,.351,3.951c1.006,1.613,3,1.819,4.029.4C1289.34,2066.063,1286.022,2063.915,1284.5,2062.346Z" transform="translate(-1284.205 -2062.346)" fill="#ffb8b6"/>
            <path id="Trazado_126113" data-name="Trazado 126113" d="M1296.356,2088.08a2.885,2.885,0,0,0,.854,2.154c.862.883,2.082,1.005,2.464.238C1299.846,2090.128,1297.52,2088.942,1296.356,2088.08Z" transform="translate(-1295.314 -2085.928)" fill="#e08686"/>
            <path id="Trazado_126114" data-name="Trazado 126114" d="M1299.44,2100.147c2.376,2.637,8.712,3.32,12.319,1.031,2.876-1.826,3.183-5.221,1.042-8.945-1.935-3.365-5.764-5.569-9.834-3.477C1299.874,2090.344,1295.775,2096.081,1299.44,2100.147Z" transform="translate(-1296.842 -2085.798)" fill="#ffb8b6"/>
            <path id="Trazado_126115" data-name="Trazado 126115" d="M1352.193,2184.845a.744.744,0,0,0,.9.561.757.757,0,0,0,.554-.91.743.743,0,0,0-.9-.56A.757.757,0,0,0,1352.193,2184.845Z" transform="translate(-1346.488 -2173.747)" fill="#773733"/>
            <path id="Trazado_126116" data-name="Trazado 126116" d="M1421.934,2184.212a.744.744,0,0,0,.9.56.757.757,0,0,0,.553-.91.744.744,0,0,0-.9-.56A.757.757,0,0,0,1421.934,2184.212Z" transform="translate(-1410.395 -2173.167)" fill="#773733"/>
            <path id="Trazado_126117" data-name="Trazado 126117" d="M1344.668,2130.513c.08.193.394.243.7.112s.493-.394.413-.586-.394-.243-.7-.111S1344.588,2130.32,1344.668,2130.513Z" transform="translate(-1339.594 -2124.207)" fill="#8e4d4c"/>
            <path id="Trazado_126118" data-name="Trazado 126118" d="M1431.2,2131.392c-.048.2.176.432.5.509s.626-.023.674-.227-.176-.432-.5-.51S1431.247,2131.189,1431.2,2131.392Z" transform="translate(-1418.899 -2125.385)" fill="#8e4d4c"/>
            <path id="Trazado_126119" data-name="Trazado 126119" d="M1359.83,2203.613c-.2,1.419,1.122,2.907,3.192,2.918,1.742.01,3.566-1.77,2.858-3.256C1365.1,2201.641,1360.127,2201.482,1359.83,2203.613Z" transform="translate(-1353.486 -2190.348)" fill="#fff0f0"/>
            <path id="Trazado_126120" data-name="Trazado 126120" d="M1377.854,2213.424a.93.93,0,0,0,.363-.006,1.131,1.131,0,0,0,.74-.539,1.263,1.263,0,0,0,.608.616.786.786,0,0,0,.981-.292.119.119,0,0,0-.02-.166.116.116,0,0,0-.164.02.553.553,0,0,1-.705.22,1.01,1.01,0,0,1-.57-.8,1.148,1.148,0,0,0,.006-.117.117.117,0,0,0-.233-.017.731.731,0,0,0-.007.123.853.853,0,0,1-.682.723.553.553,0,0,1-.66-.309.117.117,0,0,0-.153-.063.12.12,0,0,0-.062.155A.743.743,0,0,0,1377.854,2213.424Z" transform="translate(-1369.501 -2199.701)" fill="#8e4d4c"/>
            <path id="Trazado_126121" data-name="Trazado 126121" d="M1386.007,2202.411c-.017.411.753.774.961.747.254-.033.96-.345.977-.756S1386.024,2202,1386.007,2202.411Z" transform="translate(-1377.492 -2190.41)" fill="#773733"/>
          </g>
          <g id="Grupo_90839" data-name="Grupo 90839" transform="translate(16.047 0)">
            <path id="Trazado_126122" data-name="Trazado 126122" d="M1638.012,1510.172c-1.853,6.7-8.456,10.818-13.361,10.084s-5.763-6.266-4.8-12.73,5.73-11.127,10.632-10.377C1637.187,1498.174,1639.753,1503.878,1638.012,1510.172Z" transform="translate(-1562.485 -1461.866)" fill="#ffc19f"/>
            <path id="Trazado_126123" data-name="Trazado 126123" d="M1669.937,1605.9c-.425,2.834-2.8,4.829-5.3,4.456s-4.182-2.975-3.757-5.81,2.794-4.829,5.293-4.456S1670.36,1603.062,1669.937,1605.9Z" transform="translate(-1600.345 -1556.226)" fill="#e0956c"/>
            <path id="Trazado_126124" data-name="Trazado 126124" d="M964.327,1503.414c1.719,6.732,8.24,10.983,13.158,10.347s5.886-6.15,5.049-12.633-5.508-11.238-10.425-10.586C965.389,1491.435,962.711,1497.087,964.327,1503.414Z" transform="translate(-961.688 -1455.83)" fill="#ffc19f"/>
            <path id="Trazado_126125" data-name="Trazado 126125" d="M1043.742,1599.662c.368,2.843,2.7,4.884,5.2,4.56s4.241-2.892,3.873-5.734-2.7-4.883-5.2-4.56S1043.374,1596.82,1043.742,1599.662Z" transform="translate(-1034.835 -1550.593)" fill="#e0956c"/>
            <path id="Trazado_126126" data-name="Trazado 126126" d="M1019.549,1097.747c-2.67,21.884,13.149,36.564,31.587,36.747s33.783-15.628,32.125-36.98c-.92-11.855-13.247-21.275-30.863-21.336C1033.958,1076.115,1021.448,1082.183,1019.549,1097.747Z" transform="translate(-1012.44 -1076.178)" fill="#752912"/>
            <path id="Trazado_126127" data-name="Trazado 126127" d="M1081.335,1175.1c-1.705,3.68-.922,36.3,2.8,40.878,3.948,4.861,20.135,9.636,23.546,9.67,3.655.036,19.6-3.944,22.739-9.212,3.718-6.234,5.632-35.223,4.5-38.687-3.828-11.7-13.969-12.194-27.238-12.325C1095.268,1165.3,1085.759,1165.548,1081.335,1175.1Z" transform="translate(-1068.541 -1157.941)" fill="#ffc19f"/>
            <path id="Trazado_126128" data-name="Trazado 126128" d="M1129.325,1645.364c-.117,1.319,1.621,2.552,3.883,2.752s4.19-.706,4.307-2.025-1.622-2.552-3.883-2.752S1129.442,1644.045,1129.325,1645.364Z" transform="translate(-1113.3 -1595.876)" fill="#ff9797"/>
            <path id="Trazado_126129" data-name="Trazado 126129" d="M1580.631,1656.845c.068,1.323,1.962,2.3,4.23,2.184s4.05-1.284,3.982-2.607-1.962-2.3-4.229-2.184S1580.563,1655.522,1580.631,1656.845Z" transform="translate(-1526.863 -1605.881)" fill="#ff9797"/>
            <g id="Grupo_90835" data-name="Grupo 90835" transform="translate(29.606 49.703)">
              <path id="Trazado_126130" data-name="Trazado 126130" d="M1311.281,1672.231c-.4-2.1-3.633-1.557-8.909-1.592-.276,0-1.349,0-1.625,0-5.276.036-8.505-.509-8.908,1.592-.776,4.048,4.317,8.469,9.674,8.486h.093C1306.964,1680.7,1312.057,1676.279,1311.281,1672.231Z" transform="translate(-1291.76 -1670.586)" fill="#701608"/>
              <path id="Trazado_126131" data-name="Trazado 126131" d="M1350.179,1754.344h-.093a10.99,10.99,0,0,1-5.216-1.421l-.1-.054.087-.077a8.168,8.168,0,0,1,10.561,0l.086.077-.1.054A11.023,11.023,0,0,1,1350.179,1754.344Z" transform="translate(-1340.334 -1744.129)" fill="#dd6b5b"/>
              <path id="Trazado_126132" data-name="Trazado 126132" d="M1330.467,1673.183c-3.686,0-6.755-1.143-7.139-2.659l-.022-.093h14.324l-.022.093C1337.22,1672.041,1334.151,1673.183,1330.467,1673.183Z" transform="translate(-1320.667 -1670.431)" fill="#fff"/>
            </g>
            <path id="Trazado_126133" data-name="Trazado 126133" d="M1375.833,1608.02a.3.3,0,0,0,.3-.252,2.175,2.175,0,0,1,4.261.035.3.3,0,1,0,.6-.08,2.783,2.783,0,0,0-5.465-.061.3.3,0,0,0,.247.353Z" transform="translate(-1338.918 -1561.17)" fill="#c4735b"/>
            <path id="Trazado_126134" data-name="Trazado 126134" d="M1145.127,1367.772a.856.856,0,0,0,.565-.243c2.02-1.957,5.978-2.64,9.216-1.582a.863.863,0,0,0,.536-1.64c-3.863-1.259-8.47-.425-10.952,1.986a.862.862,0,0,0,.636,1.48Z" transform="translate(-1126.963 -1339.673)" fill="#8c2f22"/>
            <path id="Trazado_126135" data-name="Trazado 126135" d="M1535.14,1375.365a.862.862,0,0,0,.633-1.481c-2.488-2.407-7.1-3.234-10.955-1.969a.863.863,0,1,0,.538,1.639c3.235-1.064,7.2-.39,9.218,1.569A.857.857,0,0,0,1535.14,1375.365Z" transform="translate(-1475.175 -1346.64)" fill="#8c2f22"/>
            <path id="Trazado_126136" data-name="Trazado 126136" d="M1114.969,1149.641c-4.774-2.668-13.753-4.191-21.83-4.416-8.781-.245-17.859.726-22.749,3.723-3.234,1.982-7.391,17.325-5.827,16.1a24.518,24.518,0,0,1,8.014-3.607,31.924,31.924,0,0,1,3.355-6.426c-.19.895-.533,4.052-.7,5.734a76.482,76.482,0,0,1,13.777-1.837,14.088,14.088,0,0,1,.871-4.23,23.065,23.065,0,0,1,2.035,4.159q1.062,0,2.1.025a79.56,79.56,0,0,1,14.767,1.526c-.109-5.544-.106-7.275-.148-6.9a19.591,19.591,0,0,1,1.479,7.213,34.634,34.634,0,0,1,3.809,1.2c.147-1.609.557-4.208.616-4.649.489.31,1.358,3.893,1.653,5.621a43.349,43.349,0,0,1,5.4,3.142C1123.523,1167.294,1118.817,1151.792,1114.969,1149.641Z" transform="translate(-1053.648 -1139.416)" fill="#752912"/>
            <g id="Grupo_90836" data-name="Grupo 90836" transform="translate(45.804 33.53)">
              <path id="Trazado_126137" data-name="Trazado 126137" d="M1485.609,1492.988s9.137,3.213,12.792-1.542c4.453-5.794-1.966-10.658-6.243-9.868C1488.2,1482.309,1484.531,1485.614,1485.609,1492.988Z" transform="translate(-1485.419 -1481.123)" fill="#f9feff"/>
              <path id="Trazado_126138" data-name="Trazado 126138" d="M1515.749,1479.854a6.943,6.943,0,0,0-6.424-2.765c-2.555.181-5.187,1.913-5.97,3.756a8.094,8.094,0,0,1,5.294-3.032,6.883,6.883,0,0,1,6.716,2.859,6.218,6.218,0,0,1-.647,6.865C1516.616,1486.115,1517.465,1482.146,1515.749,1479.854Z" transform="translate(-1501.855 -1477.065)" fill="#773220"/>
              <path id="Trazado_126139" data-name="Trazado 126139" d="M1511.2,1518.125a4.147,4.147,0,1,0,5.451-2.162A4.147,4.147,0,0,0,1511.2,1518.125Z" transform="translate(-1508.733 -1512.397)" fill="#63190d"/>
              <path id="Trazado_126140" data-name="Trazado 126140" d="M1518.142,1530.178a1.15,1.15,0,1,0,1.512-.6A1.15,1.15,0,0,0,1518.142,1530.178Z" transform="translate(-1515.318 -1525.099)" fill="#fefffe"/>
            </g>
            <g id="Grupo_90837" data-name="Grupo 90837" transform="translate(17.793 32.708)">
              <path id="Trazado_126141" data-name="Trazado 126141" d="M1168.139,1483.968s-9.308,2.678-12.681-2.281c-4.109-6.042,2.581-10.526,6.8-9.49C1166.17,1473.156,1169.643,1476.669,1168.139,1483.968Z" transform="translate(-1153.868 -1471.645)" fill="#f9feff"/>
              <path id="Trazado_126142" data-name="Trazado 126142" d="M1151.647,1469.7a6.941,6.941,0,0,1,6.573-2.388c2.541.328,5.068,2.21,5.743,4.1a8.093,8.093,0,0,0-5.109-3.334,6.882,6.882,0,0,0-6.87,2.465,6.217,6.217,0,0,0,.248,6.891C1150.418,1475.9,1149.8,1471.891,1151.647,1469.7Z" transform="translate(-1150.531 -1467.235)" fill="#773220"/>
              <path id="Trazado_126143" data-name="Trazado 126143" d="M1204.769,1510.278a4.147,4.147,0,1,0,5.451-2.162A4.147,4.147,0,0,0,1204.769,1510.278Z" transform="translate(-1199.92 -1504.384)" fill="#63190d"/>
              <path id="Trazado_126144" data-name="Trazado 126144" d="M1211.706,1522.332a1.15,1.15,0,1,0,1.512-.6A1.151,1.151,0,0,0,1211.706,1522.332Z" transform="translate(-1206.502 -1517.087)" fill="#fefffe"/>
            </g>
            <g id="Grupo_90838" data-name="Grupo 90838" transform="translate(0 15.877)">
              <path id="Trazado_126145" data-name="Trazado 126145" d="M938.806,1270.549s-2.487,4.4.331,4.774a4.71,4.71,0,1,0,1.237-9.3C937.555,1265.652,938.806,1270.549,938.806,1270.549Z" transform="translate(-937.792 -1266.007)" fill="#f9951e"/>
              <path id="Trazado_126146" data-name="Trazado 126146" d="M1064.129,1291.54s1.25,4.9-1.568,4.522a4.71,4.71,0,1,1,1.237-9.3C1066.616,1287.141,1064.129,1291.54,1064.129,1291.54Z" transform="translate(-1047.98 -1284.984)" fill="#f9951e"/>
              <path id="Trazado_126147" data-name="Trazado 126147" d="M1019.783,1308.908a1.977,1.977,0,1,1-1.65-2.467A2.108,2.108,0,0,1,1019.783,1308.908Z" transform="translate(-1009.342 -1303.045)" fill="#f9951e"/>
            </g>
          </g>
          <g id="Grupo_90840" data-name="Grupo 90840" transform="translate(69.327 63.797)">
            <path id="Trazado_126148" data-name="Trazado 126148" d="M1575.11,1918.369c-.346.751.274,1.775,1.385,2.289s2.294.321,2.641-.43-.274-1.775-1.385-2.288S1575.457,1917.618,1575.11,1918.369Z" transform="translate(-1574.997 -1911.067)" fill="#e4a78e"/>
            <path id="Trazado_126149" data-name="Trazado 126149" d="M1578.223,1842.521a12.057,12.057,0,0,1,3.2,1.71c-2.183-2.872-4.405-1.5-4.3-2.18a2.429,2.429,0,0,1,2.28-1.628,14.983,14.983,0,0,1,4.045,2.121c-1.469-2.389-3.972-2.125-3.683-2.726a2.219,2.219,0,0,1,2.4-.816c1.278.352,4.464,3.4,4.519,4.348.063,1.087-1.237,5.616-2.733,8.534-1.739,3.394-4.277,6.54-6.437,5.543-4.328-2-.625-5.918,1.147-8.345-2.027-3.4-3.444-2.408-3.847-2.393a2.288,2.288,0,0,1,2.621-1.842,9.756,9.756,0,0,1,2.38,1.168c-1.887-2.467-3.791-1.186-3.688-1.838A2.328,2.328,0,0,1,1578.223,1842.521Z" transform="translate(-1574.81 -1838.928)" fill="#ffc19f"/>
          </g>
          <path id="Trazado_126150" data-name="Trazado 126150" d="M1593.814,1987.951c-.115-.537,6.189-2.087,6.385-1.575,2.931,7.657,8.72,15.145,8.9,17.264a5.3,5.3,0,0,1-9.763,2.95C1597.184,2003.76,1595.246,1994.662,1593.814,1987.951Z" transform="translate(-1522.896 -1910.153)" fill="#ffc19f"/>
        </g>
      </g>
    </g>
  </g>
</svg>
