<svg xmlns="http://www.w3.org/2000/svg" xmlns:xlink="http://www.w3.org/1999/xlink" width="85" height="85" viewBox="0 0 85 85">
  <defs>
    <clipPath id="clip-path">
      <rect id="Rectángulo_35206" data-name="Rectángulo 35206" width="85" height="85" transform="translate(600 1456)" fill="#fff"/>
    </clipPath>
  </defs>
  <g id="_8" data-name="8" transform="translate(-589 -2165)">
    <circle id="Elipse_4783" data-name="Elipse 4783" cx="42.5" cy="42.5" r="42.5" transform="translate(589 2165)" fill="#ffd947"/>
    <g id="Enmascarar_grupo_92" data-name="Enmascarar grupo 92" transform="translate(-11 709)" clip-path="url(#clip-path)">
      <g id="_x34_7_Plane" transform="translate(600 1456.001)">
        <g id="Grupo_89354" data-name="Grupo 89354">
          <g id="Grupo_89352" data-name="Grupo 89352">
            <g id="Grupo_89350" data-name="Grupo 89350">
              <path id="Trazado_121606" data-name="Trazado 121606" d="M71.923,22.247A11.407,11.407,0,0,0,49.857,26.31c0,.228.007.455.021.68a6.995,6.995,0,0,0,1.5,13.828H70.892a9.314,9.314,0,0,0,1.031-18.572Z" fill="#fff"/>
              <path id="Trazado_121607" data-name="Trazado 121607" d="M71.923,22.247a11.419,11.419,0,0,0-12.635-7.172,11.421,11.421,0,0,1,8.695,7.172,9.314,9.314,0,0,1-1.031,18.571h3.94a9.314,9.314,0,0,0,1.031-18.571Z" fill="#d1d3d4"/>
            </g>
            <g id="Grupo_89351" data-name="Grupo 89351">
              <path id="Trazado_121608" data-name="Trazado 121608" d="M75.51,60.67H35.165A43.938,43.938,0,0,1,4.705,48.4L1.969,45.767a2.338,2.338,0,0,1-.717-1.685V37.519A2.338,2.338,0,0,1,3.59,35.181H62.838A21.642,21.642,0,0,1,83.29,49.745,8.232,8.232,0,0,1,75.51,60.67Z" fill="#5cc8f7"/>
              <path id="Trazado_121609" data-name="Trazado 121609" d="M83.29,49.745A21.642,21.642,0,0,0,62.838,35.181H56.051A21.642,21.642,0,0,1,76.5,49.745a8.233,8.233,0,0,1-7.78,10.925H75.51a8.232,8.232,0,0,0,7.78-10.924Z" fill="#29a7d3"/>
              <path id="Trazado_121610" data-name="Trazado 121610" d="M23.75,35.181H8.722L4.533,20.542h7.729a5.539,5.539,0,0,1,4.825,2.819Z" fill="#ffc73b"/>
              <path id="Trazado_121611" data-name="Trazado 121611" d="M23.75,35.181H8.722L4.533,20.542h7.729a5.539,5.539,0,0,1,4.825,2.819Z" fill="#ffc73b"/>
              <path id="Trazado_121612" data-name="Trazado 121612" d="M17.087,23.361a5.538,5.538,0,0,0-4.825-2.818H6.515a5.539,5.539,0,0,1,4.825,2.818L18,35.181H23.75Z" fill="#f7941d"/>
              <path id="Trazado_121613" data-name="Trazado 121613" d="M54.535,52.307H41.223a3.157,3.157,0,0,0-2.093.794l-19.182,17h9.393c2.429,0,5.773-1.309,8.749-3.425L55.23,54.482A1.2,1.2,0,0,0,54.535,52.307Z" fill="#5cc8f7"/>
              <path id="Trazado_121614" data-name="Trazado 121614" d="M54.535,52.307H47.08a1.2,1.2,0,0,1,.695,2.176L30.635,66.671c-2.976,2.116-6.32,3.425-8.749,3.425h7.454c2.429,0,5.773-1.309,8.749-3.425l17.14-12.189a1.2,1.2,0,0,0-.695-2.176Z" fill="#29a7d3"/>
              <path id="Trazado_121615" data-name="Trazado 121615" d="M60.108,50.737H83.567a8.46,8.46,0,0,0-.277-.992,21.6,21.6,0,0,0-4.163-7.172H60.108a4.082,4.082,0,1,0,0,8.163Z" fill="#54edb5"/>
              <path id="Trazado_121616" data-name="Trazado 121616" d="M83.29,49.745a21.6,21.6,0,0,0-4.164-7.172H72.34A21.6,21.6,0,0,1,76.5,49.745a8.451,8.451,0,0,1,.277.992h6.787A8.393,8.393,0,0,0,83.29,49.745Z" fill="#20bc79"/>
              <circle id="Elipse_4784" data-name="Elipse 4784" cx="4.082" cy="4.082" r="4.082" transform="translate(19.254 42.574)" fill="#54edb5"/>
              <circle id="Elipse_4785" data-name="Elipse 4785" cx="4.082" cy="4.082" r="4.082" transform="translate(30.951 42.574)" fill="#54edb5"/>
              <path id="Trazado_121617" data-name="Trazado 121617" d="M13.632,45.076H4.062a2.81,2.81,0,1,1,0-5.62h9.569a2.81,2.81,0,1,1,0,5.62Z" fill="#29a7d3"/>
            </g>
          </g>
          <g id="Grupo_89353" data-name="Grupo 89353">
            <path id="Trazado_121618" data-name="Trazado 121618" d="M84.472,49.335A22.838,22.838,0,0,0,77.793,39.5a10.562,10.562,0,0,0,3.146-11.265,1.251,1.251,0,1,0-2.379.777,8.068,8.068,0,0,1-2.8,8.921,22.859,22.859,0,0,0-12.917-4h-17.2c0-.035,0-.069,0-.1A5.777,5.777,0,0,1,49.9,28.273l.027-.006a5.752,5.752,0,0,1,5.393,1.38,1.251,1.251,0,1,0,1.718-1.82,8.21,8.21,0,0,0-5.661-2.25c-.079,0-.158,0-.237.005a10.152,10.152,0,0,1,18.77-4.6,10.488,10.488,0,0,0-2.679.607,1.252,1.252,0,1,0,.868,2.348,8.035,8.035,0,0,1,2.8-.5,8.225,8.225,0,0,1,.876.047l.02,0q.258.028.512.073l.025,0a8.021,8.021,0,0,1,3.339,1.436,1.252,1.252,0,0,0,1.484-2.017,10.54,10.54,0,0,0-3.8-1.761.391.391,0,0,0-.049-.017c-.162-.038-.325-.069-.489-.1a12.659,12.659,0,0,0-24.2,4.943,8.3,8.3,0,0,0-5.48,7.77c0,.035,0,.07,0,.1H41.947a1.251,1.251,0,1,0,0,2.5H62.839a20.375,20.375,0,0,1,13.239,4.891H60.108a5.333,5.333,0,0,0,0,10.667H82.48c.01.153.017.306.017.459a6.986,6.986,0,0,1-6.986,6.969H50.45L55.956,55.5a2.451,2.451,0,0,0-1.42-4.447H41.224A4.4,4.4,0,0,0,38.3,52.164l-7.89,6.99A42.457,42.457,0,0,1,5.573,47.5L4.359,46.328h9.273a4.062,4.062,0,0,0,0-8.124H4.062a4.038,4.038,0,0,0-1.559.311v-1a1.088,1.088,0,0,1,1.086-1.087H31.933a1.251,1.251,0,1,0,0-2.5H24.481l-6.3-11.183a6.8,6.8,0,0,0-5.915-3.456H4.534a1.252,1.252,0,0,0-1.2,1.6L7.063,33.929H3.589A3.594,3.594,0,0,0,0,37.518v6.563a3.6,3.6,0,0,0,1.1,2.587L3.837,49.3a44.961,44.961,0,0,0,24.1,12.045l-8.818,7.813a1.252,1.252,0,0,0,.83,2.188h9.393a13.716,13.716,0,0,0,5.282-1.277,1.252,1.252,0,1,0-1-2.3,11.416,11.416,0,0,1-4.284,1.069H23.249L39.96,54.037a1.9,1.9,0,0,1,1.264-.479H54.37L41.822,62.482a1.252,1.252,0,1,0,1.451,2.04l3.657-2.6h28.58a9.468,9.468,0,0,0,8.962-12.586ZM12.263,21.794A4.293,4.293,0,0,1,16,23.975l5.611,9.953H9.666L6.194,21.794Zm-8.2,18.914h9.569a1.558,1.558,0,1,1,0,3.117H4.062a1.558,1.558,0,1,1,0-3.117Zm53.215,5.948a2.833,2.833,0,0,1,2.83-2.83H78.545l.051.06c.08.1.157.2.235.3.09.114.182.228.27.344.052.069.1.14.153.209A20.311,20.311,0,0,1,81.5,48.616l.016.036c.088.2.171.405.252.61.02.05.042.1.061.15.009.024.018.049.027.074H60.108a2.833,2.833,0,0,1-2.83-2.83Z" fill="#231f20"/>
            <path id="Trazado_121619" data-name="Trazado 121619" d="M18,46.655a5.333,5.333,0,1,0,5.333-5.334A5.34,5.34,0,0,0,18,46.655Zm8.163,0a2.83,2.83,0,1,1-2.83-2.83A2.833,2.833,0,0,1,26.166,46.655Z" fill="#231f20"/>
            <path id="Trazado_121620" data-name="Trazado 121620" d="M29.7,46.655a5.333,5.333,0,1,0,5.333-5.334A5.34,5.34,0,0,0,29.7,46.655Zm5.334-2.83a2.83,2.83,0,1,1-2.83,2.83A2.833,2.833,0,0,1,35.033,43.825Z" fill="#231f20"/>
          </g>
        </g>
      </g>
    </g>
  </g>
</svg>
