<?xml version="1.0" encoding="UTF-8" standalone="no"?><!DOCTYPE svg PUBLIC "-//W3C//DTD SVG 1.1//EN" "http://www.w3.org/Graphics/SVG/1.1/DTD/svg11.dtd"><svg width="100%" height="100%" viewBox="0 0 4292 259" version="1.1" xmlns="http://www.w3.org/2000/svg" xmlns:xlink="http://www.w3.org/1999/xlink" xml:space="preserve" xmlns:serif="http://www.serif.com/" style="fill-rule:evenodd;clip-rule:evenodd;stroke-linejoin:round;stroke-miterlimit:2;"><g id="Grupo_90844"><path id="Trazado_129304" d="M732.729,133.058l13.875,0l0,11.759l-13.875,-0l0,15.908l-12.817,0l0,-15.908l-13.916,-0l-0,-11.759l13.917,0l-0,-15.462l12.816,-0l0,15.462Z" style="fill:#12263f;fill-rule:nonzero;"/><path id="Trazado_129306" d="M1695.23,133.058l13.875,0l0,11.759l-13.875,-0l0,15.908l-12.816,0l-0,-15.908l-13.917,-0l-0,-11.759l13.917,0l-0,-15.462l12.816,-0l0,15.462Z" style="fill:#12263f;fill-rule:nonzero;"/><path id="Trazado_129310" d="M3170.23,133.058l13.875,0l0,11.759l-13.875,-0l0,15.908l-12.816,0l-0.001,-15.908l-13.916,-0l-0,-11.759l13.917,0l-0,-15.462l12.816,-0l0,15.462Z" style="fill:#12263f;fill-rule:nonzero;"/><path id="Trazado_129308" d="M2016.06,133.058l13.875,0l-0,11.759l-13.875,-0l-0,15.908l-12.817,0l-0,-15.908l-13.917,-0l0,-11.759l13.917,0l-0,-15.462l12.817,-0l-0,15.462Z" style="fill:#12263f;fill-rule:nonzero;"/><path id="Trazado_129312" d="M3491.06,133.058l13.875,0l-0,11.759l-13.875,-0l-0,15.908l-12.817,0l-0,-15.908l-13.917,-0l0,-11.759l13.917,0l-0,-15.462l12.817,-0l-0,15.462Z" style="fill:#12263f;fill-rule:nonzero;"/><path id="Rectángulo_35437" d="M679.167,41.667c-0,-22.997 -18.671,-41.667 -41.667,-41.667l-595.833,0c-22.997,0 -41.667,18.67 -41.667,41.667l-0,175c-0,22.996 18.67,41.666 41.667,41.666l595.833,0c22.996,0 41.667,-18.67 41.667,-41.666l-0,-175Z" style="fill:#6b8dff;"/><path id="Rectángulo_35438" d="M1645.83,41.667c0,-22.997 -18.67,-41.667 -41.666,-41.667l-795.834,0c-22.996,0 -41.666,18.67 -41.666,41.667l-0,175c-0,22.996 18.67,41.666 41.666,41.666l795.834,0c22.996,0 41.666,-18.67 41.666,-41.666l0,-175Z" style="fill:#6b8dff;"/><path id="Rectángulo_35439" d="M1966.67,41.667c-0,-22.997 -18.671,-41.667 -41.667,-41.667l-154.167,0c-22.996,0 -41.666,18.67 -41.666,41.667l-0,175c-0,22.996 18.67,41.666 41.666,41.666l154.167,0c22.996,0 41.667,-18.67 41.667,-41.666l-0,-175Z" style="fill:#ff5f65;"/><path id="Rectángulo_35443" d="M3441.67,41.667c-0,-22.997 -18.671,-41.667 -41.667,-41.667l-154.167,0c-22.996,0 -41.666,18.67 -41.666,41.667l-0,175c-0,22.996 18.67,41.666 41.666,41.666l154.167,0c22.996,0 41.667,-18.67 41.667,-41.666l-0,-175Z" style="fill:#ff5f65;"/><path id="Rectángulo_35440" d="M3120.83,41.667c0,-22.997 -18.67,-41.667 -41.666,-41.667l-987.5,0c-22.997,0 -41.667,18.67 -41.667,41.667l0,175c0,22.996 18.67,41.666 41.667,41.666l987.5,0c22.996,0 41.666,-18.67 41.666,-41.666l0,-175Z" style="fill:#6b8dff;"/><path id="Rectángulo_35442" d="M4291.67,41.667c-0,-22.997 -18.671,-41.667 -41.667,-41.667l-666.667,0c-22.996,0 -41.666,18.67 -41.666,41.667l-0,175c-0,22.996 18.67,41.666 41.666,41.666l666.667,0c22.996,0 41.667,-18.67 41.667,-41.666l-0,-175Z" style="fill:#6b8dff;"/><path id="Trazado_129303" d="M297.671,112.5l-9.246,0l-13.183,-31.608l-5.5,31.608l-9.538,0l8.238,-47.396l9.212,0l13.217,31.667l5.5,-31.667l9.504,0l-8.204,47.396Zm28.091,-35.871c2.855,-0.032 5.654,0.802 8.026,2.392c2.27,1.573 4.003,3.806 4.962,6.396c1.072,2.9 1.452,6.01 1.108,9.083c-0.269,5.078 -2.338,9.898 -5.833,13.592c-3.275,3.411 -7.863,5.254 -12.587,5.058c-2.825,0.029 -5.595,-0.793 -7.946,-2.358c-2.261,-1.564 -3.988,-3.786 -4.946,-6.363c-1.082,-2.863 -1.472,-5.941 -1.138,-8.983c0.286,-5.175 2.384,-10.087 5.925,-13.871c3.234,-3.366 7.772,-5.171 12.434,-4.946l-0.005,0Zm-9.274,22.146c-0.057,1.757 0.458,3.485 1.466,4.925c0.944,1.209 2.405,1.903 3.938,1.871c2.781,0.108 5.383,-1.421 6.641,-3.904c1.732,-3.232 2.511,-6.89 2.246,-10.546c0.011,-1.781 -0.516,-3.524 -1.512,-5c-0.926,-1.247 -2.402,-1.969 -3.954,-1.933c-2.747,-0.08 -5.306,1.431 -6.563,3.875c-1.78,3.274 -2.566,6.998 -2.262,10.712Zm47.82,10.079c-2.405,2.84 -5.985,4.425 -9.704,4.296c-3.004,0.137 -5.886,-1.231 -7.679,-3.646c-1.828,-2.784 -2.547,-6.154 -2.017,-9.441l3.809,-22.788l9.166,0l-3.875,22.917c-0.086,0.67 -0.097,1.348 -0.033,2.021c-0,0.012 -0,0.024 -0,0.036c-0,1.829 1.505,3.334 3.333,3.334c0.093,-0 0.187,-0.004 0.279,-0.012c2.757,0.135 5.41,-1.098 7.084,-3.292l4.396,-25l9.237,0l-6.121,35.221l-8.558,0l0.683,-3.646Zm29.234,-31.608l-0.78,4.167c2.476,-3.114 6.278,-4.888 10.255,-4.784c2.915,-0.138 5.702,1.243 7.358,3.646c1.698,2.976 2.303,6.455 1.708,9.829l-3.7,22.396l-9.166,0l3.775,-22.5c0.107,-0.766 0.129,-1.542 0.066,-2.312c-0.159,-1.935 -1.796,-3.442 -3.737,-3.442c-0.143,0 -0.287,0.008 -0.429,0.025c-2.571,-0.008 -4.991,1.237 -6.48,3.333l-4.408,24.896l-9.167,0l6.121,-35.221l8.584,-0.033Zm-193.217,97.462c-4.277,-0.995 -8.276,-2.935 -11.704,-5.679c-2.384,-2.104 -3.725,-5.154 -3.663,-8.333c-0.054,-3.618 1.607,-7.057 4.475,-9.263c3.326,-2.554 7.449,-3.851 11.638,-3.662c3.01,-0.055 5.991,0.592 8.708,1.887c2.424,1.147 4.477,2.952 5.925,5.209c1.379,2.168 2.103,4.689 2.083,7.258l-6.283,0c0.133,-2.551 -0.868,-5.034 -2.733,-6.779c-2.17,-1.744 -4.918,-2.612 -7.696,-2.429c-2.563,-0.154 -5.105,0.565 -7.208,2.037c-1.724,1.357 -2.689,3.467 -2.588,5.659c-0.002,1.931 0.911,3.753 2.458,4.908c2.53,1.744 5.37,2.989 8.367,3.667c3.227,0.82 6.334,2.053 9.246,3.666c2.002,1.121 3.699,2.717 4.942,4.646c1.108,1.905 1.666,4.08 1.612,6.283c0.105,3.624 -1.576,7.076 -4.492,9.23c-3.503,2.465 -7.734,3.686 -12.012,3.466c-3.135,0.025 -6.241,-0.613 -9.113,-1.871c-2.604,-1.076 -4.862,-2.85 -6.525,-5.125c-1.526,-2.157 -2.33,-4.744 -2.295,-7.387l6.283,-0c-0.104,2.641 1.081,5.174 3.175,6.787c2.46,1.771 5.452,2.653 8.479,2.5c2.68,0.175 5.345,-0.533 7.583,-2.016c1.73,-1.287 2.717,-3.347 2.638,-5.5c0.108,-2.084 -0.803,-4.095 -2.442,-5.388c-2.714,-1.756 -5.711,-3.032 -8.858,-3.771Zm46.387,17.642c-2.628,2.877 -6.432,4.401 -10.32,4.133c-3.199,0.219 -6.338,-0.977 -8.58,-3.27c-2.152,-2.75 -3.213,-6.2 -2.979,-9.684l0,-22.916l6.021,-0l0,22.754c0,5.339 2.171,8.008 6.513,8.008c3.832,0.428 7.534,-1.648 9.166,-5.142l0,-25.62l6.021,-0l0,35.22l-5.729,0l-0.113,-3.483Zm35.513,-5.858c0.066,-1.492 -0.626,-2.919 -1.838,-3.792c-1.966,-1.185 -4.144,-1.976 -6.412,-2.329c-2.508,-0.472 -4.947,-1.259 -7.258,-2.342c-1.577,-0.733 -2.943,-1.852 -3.971,-3.254c-0.879,-1.33 -1.328,-2.898 -1.288,-4.492c-0.003,-2.88 1.357,-5.599 3.663,-7.325c2.667,-2.072 5.984,-3.134 9.358,-2.995c3.503,-0.161 6.951,0.936 9.717,3.091c2.413,1.907 3.795,4.842 3.729,7.917l-6.054,-0c-0.002,-1.665 -0.772,-3.238 -2.084,-4.263c-1.484,-1.224 -3.368,-1.862 -5.291,-1.791c-1.825,-0.107 -3.635,0.398 -5.142,1.433c-1.194,0.869 -1.888,2.273 -1.854,3.75c-0.066,1.326 0.596,2.588 1.725,3.288c1.96,1.026 4.069,1.74 6.25,2.116c2.523,0.511 4.976,1.319 7.308,2.409c1.654,0.75 3.088,1.91 4.167,3.37c0.932,1.424 1.404,3.1 1.35,4.8c0.076,2.99 -1.34,5.83 -3.775,7.567c-2.862,2.005 -6.309,3.008 -9.8,2.85c-2.579,0.053 -5.139,-0.458 -7.5,-1.496c-2.049,-0.894 -3.812,-2.336 -5.096,-4.166c-1.197,-1.702 -1.839,-3.733 -1.837,-5.813l6.02,0c0.044,1.883 0.936,3.648 2.425,4.8c1.732,1.253 3.84,1.879 5.975,1.775c1.925,0.093 3.834,-0.389 5.484,-1.383c1.29,-0.791 2.065,-2.213 2.029,-3.725Zm22.037,-34.409l0,8.53l6.571,-0l0,4.654l-6.571,-0l0,21.871c-0.084,1.129 0.227,2.253 0.88,3.179c0.788,0.785 1.889,1.174 2.995,1.058c0.967,-0.035 1.927,-0.166 2.867,-0.392l0,4.85c-1.505,0.42 -3.059,0.637 -4.621,0.646c-2.295,0.166 -4.544,-0.734 -6.091,-2.437c-1.484,-1.995 -2.21,-4.453 -2.05,-6.934l-0,-21.841l-6.413,-0l0,-4.654l6.413,-0l-0,-8.53l6.02,0Zm35.355,43.75c-0.464,-1.188 -0.745,-2.44 -0.834,-3.712c-2.573,2.81 -6.223,4.397 -10.033,4.362c-3.116,0.125 -6.168,-0.927 -8.546,-2.945c-2.176,-1.862 -3.402,-4.608 -3.333,-7.471c-0.148,-3.367 1.422,-6.589 4.166,-8.546c3.504,-2.227 7.623,-3.292 11.767,-3.042l5.867,0l-0,-2.766c0.097,-1.87 -0.587,-3.699 -1.888,-5.046c-1.528,-1.345 -3.536,-2.02 -5.566,-1.871c-1.936,-0.07 -3.841,0.503 -5.417,1.629c-1.334,0.868 -2.152,2.346 -2.179,3.938l-6.042,-0c0.038,-1.86 0.696,-3.654 1.871,-5.096c1.335,-1.707 3.084,-3.047 5.079,-3.892c2.22,-0.972 4.622,-1.461 7.046,-1.433c3.445,-0.204 6.846,0.881 9.537,3.041c2.351,2.143 3.658,5.204 3.58,8.384l-0,16.212c-0.1,2.63 0.325,5.253 1.25,7.717l-0,0.537l-6.325,0Zm-10,-4.583c1.893,0 3.753,-0.508 5.383,-1.471c1.586,-0.865 2.87,-2.194 3.679,-3.808l0,-7.221l-4.729,0c-7.378,0 -11.067,2.16 -11.067,6.479c-0.087,1.687 0.61,3.324 1.888,4.429c1.37,1.1 3.094,1.666 4.85,1.592l-0.004,0Zm30.208,-30.633l0.196,4.429c2.491,-3.288 6.421,-5.181 10.546,-5.079c7.444,-0 11.194,4.198 11.25,12.596l-0,23.27l-5.984,0l0,-23.308c0.147,-2.029 -0.475,-4.041 -1.741,-5.633c-1.444,-1.332 -3.385,-1.993 -5.342,-1.821c-1.836,-0.036 -3.636,0.512 -5.142,1.562c-1.481,1.049 -2.67,2.461 -3.45,4.1l0,25.1l-6.025,0l0,-35.22l5.692,0.004Zm39.262,-8.534l0,8.53l6.575,-0l0,4.654l-6.575,-0l0,21.871c-0.084,1.129 0.227,2.253 0.88,3.179c0.788,0.785 1.889,1.174 2.995,1.058c0.967,-0.035 1.927,-0.166 2.867,-0.392l0,4.85c-1.505,0.42 -3.059,0.637 -4.621,0.646c-2.294,0.164 -4.541,-0.738 -6.087,-2.441c-1.483,-1.995 -2.21,-4.453 -2.05,-6.934l-0,-21.837l-6.404,-0l-0,-4.654l6.412,-0l0,-8.53l6.008,0Zm20.15,43.75l-6.02,0l-0,-35.22l6.02,-0l0,35.22Zm-6.508,-44.583c-0.025,-0.908 0.296,-1.793 0.896,-2.475c0.692,-0.711 1.665,-1.081 2.654,-1.008c0.994,-0.071 1.971,0.298 2.671,1.008c0.61,0.677 0.937,1.564 0.912,2.475c0.028,0.902 -0.3,1.779 -0.912,2.442c-0.71,0.69 -1.683,1.045 -2.671,0.975c-0.983,0.073 -1.952,-0.283 -2.654,-0.975c-0.603,-0.667 -0.925,-1.543 -0.896,-2.442Zm27.767,36.392l8.725,-27.05l6.154,-0l-12.633,35.241l-4.584,0l-12.758,-35.22l6.142,-0l8.954,27.029Zm18.587,-9.725c-0.051,-3.218 0.645,-6.405 2.034,-9.309c1.239,-2.623 3.204,-4.838 5.662,-6.379c2.493,-1.517 5.366,-2.296 8.283,-2.246c4.429,-0.153 8.701,1.682 11.638,5c3.094,3.699 4.681,8.434 4.442,13.25l-0,0.417c0.052,3.186 -0.622,6.342 -1.971,9.229c-1.223,2.621 -3.18,4.831 -5.634,6.363c-2.531,1.544 -5.451,2.335 -8.416,2.279c-4.418,0.149 -8.678,-1.687 -11.604,-5c-3.086,-3.679 -4.67,-8.392 -4.434,-13.188l0,-0.416Zm6.054,0.716c-0.167,3.351 0.79,6.663 2.717,9.409c1.744,2.242 4.431,3.557 7.273,3.557c2.863,-0 5.568,-1.335 7.31,-3.607c1.963,-2.979 2.906,-6.515 2.688,-10.075c0.156,-3.349 -0.813,-6.656 -2.75,-9.392c-1.694,-2.326 -4.431,-3.673 -7.308,-3.596c-2.834,-0.069 -5.527,1.26 -7.196,3.55c-1.999,2.985 -2.96,6.548 -2.734,10.133l0,0.021Z" style="fill:#12263f;fill-rule:nonzero;"/><path id="Trazado_129305" d="M861.392,100.65l15.95,-35.546l10.937,0l-23.404,47.396l-9.958,0l-8.53,-47.396l10.255,0l4.75,35.546Zm39.712,12.5c-2.887,0.033 -5.726,-0.752 -8.187,-2.262c-2.35,-1.458 -4.205,-3.592 -5.321,-6.121c-1.181,-2.695 -1.644,-5.649 -1.346,-8.575l0.096,-1.3c0.294,-3.329 1.316,-6.553 2.996,-9.442c1.538,-2.729 3.76,-5.012 6.445,-6.625c2.637,-1.554 5.667,-2.317 8.725,-2.196c4.05,-0.152 7.919,1.725 10.305,5c2.42,3.626 3.37,8.042 2.654,12.342l-0.521,4.008l-21.583,0c-0.183,1.971 0.416,3.937 1.666,5.471c1.238,1.387 3.025,2.162 4.884,2.117c3.354,0.072 6.571,-1.36 8.762,-3.9l4.2,5.208c-1.416,2.072 -3.4,3.692 -5.712,4.667c-2.534,1.125 -5.287,1.674 -8.059,1.608l-0.004,0Zm2.917,-28.938c-1.65,-0.058 -3.262,0.513 -4.509,1.596c-1.63,1.604 -2.843,3.583 -3.533,5.763l12.646,-0l0.196,-0.834c0.13,-0.819 0.141,-1.652 0.033,-2.475c-0.154,-1.143 -0.722,-2.191 -1.596,-2.945c-0.911,-0.734 -2.051,-1.125 -3.221,-1.105l-0.016,0Zm39.746,1.888c-1.02,-0.193 -2.054,-0.302 -3.092,-0.325c-3.05,-0.192 -5.993,1.2 -7.779,3.679l-4.054,23.046l-9.167,-0l6.121,-35.221l8.625,-0.033l-0.834,4.296c1.656,-2.998 4.782,-4.903 8.205,-5c1.078,0.022 2.15,0.174 3.191,0.454l-1.216,9.104Zm33.675,8.9c-0.377,4.84 -2.14,9.47 -5.08,13.333c-2.532,3.248 -6.499,5.061 -10.612,4.85c-3.406,0.074 -6.615,-1.63 -8.463,-4.491l-1.333,3.808l-8.367,-0l8.659,-50l9.212,-0l-3.541,18c2.134,-2.518 5.295,-3.943 8.595,-3.875c3.098,-0.098 6.07,1.258 8.025,3.662c2.103,2.883 3.196,6.38 3.109,9.946c0.032,1.592 -0.037,3.184 -0.204,4.767Zm-9.109,-0.7c0.176,-1.426 0.239,-2.864 0.188,-4.3c-0.239,-3.789 -1.802,-5.715 -4.688,-5.779c-2.748,-0.075 -5.332,1.34 -6.75,3.696l-2.537,14.041c0.716,2.272 2.896,3.784 5.275,3.659c4.514,0.13 7.28,-3.157 8.3,-9.863l0.212,-1.454Zm42.5,-32.917l4.363,2.671c-0.977,1.439 -1.869,2.933 -2.671,4.475c-0.798,1.558 -1.367,3.222 -1.692,4.942l-0.833,4.916l-7.292,0l0.625,-4.3c0.783,-5.034 3.469,-9.58 7.5,-12.695l0,-0.009Zm10.809,0l4.362,2.671c-0.977,1.439 -1.868,2.933 -2.671,4.475c-0.789,1.559 -1.35,3.223 -1.666,4.942l-0.834,4.916l-7.291,0l0.625,-4.3c0.783,-5.034 3.468,-9.58 7.5,-12.695l-0.025,-0.009Zm20.279,7.225l-1.504,8.671l5.833,0l-1.196,6.888l-5.862,-0l-2.996,17.641c-0.16,0.854 -0.069,1.735 0.262,2.538c0.303,0.586 1.041,0.901 2.213,0.946c0.347,0.022 1.28,-0.032 2.8,-0.163l-0.638,7.208c-1.701,0.554 -3.486,0.808 -5.275,0.75c-2.562,0.153 -5.054,-0.895 -6.737,-2.833c-1.562,-2.166 -2.216,-4.859 -1.821,-7.5l3,-18.587l-5,-0l1.25,-6.888l5,0l1.496,-8.658l9.175,-0.013Zm22.721,8.009c2.855,-0.033 5.653,0.801 8.025,2.391c2.269,1.578 3.999,3.815 4.954,6.409c1.079,2.898 1.466,6.009 1.129,9.083c-0.27,5.078 -2.338,9.898 -5.833,13.592c-3.277,3.413 -7.869,5.257 -12.596,5.058c-2.825,0.029 -5.594,-0.793 -7.946,-2.358c-2.261,-1.564 -3.988,-3.786 -4.946,-6.363c-1.082,-2.863 -1.472,-5.941 -1.137,-8.983c0.286,-5.173 2.385,-10.084 5.925,-13.867c3.232,-3.367 7.77,-5.174 12.433,-4.95l-0.008,-0.012Zm-9.271,22.158c-0.057,1.757 0.458,3.485 1.466,4.925c0.944,1.209 2.405,1.903 3.938,1.871c2.782,0.108 5.384,-1.421 6.642,-3.904c1.732,-3.232 2.51,-6.89 2.245,-10.546c0.011,-1.781 -0.516,-3.524 -1.512,-5c-0.925,-1.247 -2.402,-1.969 -3.954,-1.934c-2.74,-0.082 -5.296,1.418 -6.559,3.851c-1.785,3.281 -2.573,7.014 -2.266,10.737Zm76.296,-3.775c-0.374,4.839 -2.135,9.469 -5.071,13.333c-2.533,3.248 -6.499,5.061 -10.613,4.85c-3.413,0.081 -6.631,-1.623 -8.483,-4.491l-1.317,3.808l-8.362,0l8.658,-50l9.213,0l-3.55,18c2.134,-2.518 5.295,-3.943 8.595,-3.875c3.095,-0.093 6.061,1.264 8.013,3.667c2.102,2.882 3.195,6.379 3.108,9.946c0.036,1.589 -0.028,3.18 -0.191,4.762Zm-9.113,-0.687c0.181,-1.43 0.247,-2.872 0.2,-4.313c-0.239,-3.789 -1.801,-5.715 -4.687,-5.779c-2.742,-0.072 -5.32,1.339 -6.738,3.687l-2.537,14.042c0.716,2.272 2.896,3.784 5.275,3.658c4.511,0.125 7.276,-3.165 8.295,-9.87l0.192,-1.425Zm28.696,18.837c-2.881,0.029 -5.712,-0.756 -8.167,-2.262c-2.349,-1.458 -4.205,-3.592 -5.321,-6.121c-1.188,-2.694 -1.659,-5.65 -1.366,-8.579l0.096,-1.3c0.293,-3.329 1.316,-6.553 2.995,-9.442c1.539,-2.729 3.76,-5.012 6.446,-6.625c2.637,-1.554 5.667,-2.317 8.725,-2.196c4.049,-0.152 7.918,1.725 10.304,5c2.421,3.626 3.371,8.041 2.655,12.342l-0.521,4.008l-21.584,0c-0.182,1.971 0.417,3.936 1.667,5.471c1.238,1.387 3.025,2.162 4.883,2.116c3.357,0.077 6.577,-1.354 8.771,-3.895l4.2,5.208c-1.419,2.074 -3.407,3.694 -5.725,4.667c-2.534,1.125 -5.286,1.674 -8.058,1.608Zm2.917,-28.938c-1.65,-0.058 -3.263,0.513 -4.509,1.596c-1.63,1.604 -2.843,3.583 -3.533,5.763l12.629,-0l0.196,-0.834c0.13,-0.819 0.141,-1.652 0.033,-2.475c-0.154,-1.143 -0.722,-2.191 -1.595,-2.945c-0.903,-0.726 -2.03,-1.117 -3.188,-1.105l-0.033,0Zm24.804,-4.491l-4.654,-2.734c1.909,-2.537 3.333,-5.406 4.2,-8.462l1.104,-6.025l7.325,-0l-0.75,4.817c-0.784,4.879 -3.347,9.299 -7.192,12.404l-0.033,-0Zm10.937,-0l-4.654,-2.734c1.91,-2.537 3.334,-5.406 4.2,-8.462l1.104,-6.025l7.325,-0l-0.75,4.817c-0.783,4.879 -3.346,9.299 -7.191,12.404l-0.034,-0Zm38.054,25.879c1.536,0.096 3.051,-0.399 4.234,-1.383c1.149,-1.002 1.928,-2.361 2.212,-3.859l8.625,-0.033c-0.128,2.398 -0.936,4.711 -2.329,6.667c-1.421,1.999 -3.338,3.594 -5.562,4.629c-2.299,1.1 -4.828,1.635 -7.375,1.562c-3.874,0.109 -7.601,-1.518 -10.155,-4.433c-2.614,-3.247 -3.905,-7.366 -3.612,-11.525l0.096,-1.792l0.033,-0.358c0.301,-5.073 2.35,-9.889 5.796,-13.625c3.155,-3.3 7.599,-5.063 12.158,-4.821c3.558,-0.086 6.992,1.327 9.459,3.892c2.396,2.718 3.624,6.278 3.412,9.896l-8.562,-0c0.085,-1.583 -0.355,-3.151 -1.25,-4.459c-0.902,-1.123 -2.272,-1.772 -3.713,-1.758c-4.383,-0.131 -7.042,3.064 -7.975,9.583c-0.304,1.982 -0.424,3.988 -0.358,5.992c0.228,3.817 1.861,5.758 4.9,5.825l-0.034,-0Zm38.75,-28.971c2.855,-0.032 5.654,0.802 8.025,2.392c2.285,1.567 4.031,3.801 5,6.396c1.076,2.893 1.461,5.998 1.125,9.066c-0.274,5.087 -2.354,9.912 -5.862,13.604c-3.273,3.412 -7.86,5.257 -12.583,5.063c-2.818,0.025 -5.579,-0.797 -7.925,-2.358c-2.261,-1.564 -3.988,-3.786 -4.946,-6.363c-1.082,-2.863 -1.472,-5.941 -1.138,-8.983c0.287,-5.173 2.385,-10.084 5.925,-13.867c3.232,-3.366 7.768,-5.173 12.429,-4.95l-0.05,0Zm-9.212,22.146c-0.057,1.757 0.458,3.485 1.467,4.925c0.943,1.209 2.404,1.903 3.937,1.871c2.777,0.112 5.378,-1.408 6.642,-3.884c1.732,-3.231 2.511,-6.889 2.246,-10.545c0.011,-1.781 -0.517,-3.524 -1.513,-5c-0.925,-1.247 -2.402,-1.969 -3.954,-1.934c-2.74,-0.083 -5.295,1.418 -6.558,3.85c-1.782,3.276 -2.57,7.001 -2.267,10.717Zm40.529,-21.529l-0.779,4.166c2.474,-3.112 6.275,-4.886 10.25,-4.783c2.915,-0.138 5.703,1.243 7.358,3.646c1.704,2.974 2.315,6.453 1.725,9.829l-3.725,22.396l-9.166,0l3.775,-22.5c0.107,-0.766 0.129,-1.542 0.066,-2.313c-0.159,-1.934 -1.796,-3.441 -3.737,-3.441c-0.143,0 -0.287,0.008 -0.429,0.025c-2.571,-0.008 -4.991,1.237 -6.48,3.333l-4.387,24.896l-9.167,0l6.121,-35.221l8.575,-0.033Zm37.892,0.033l-6.338,37.142c-0.284,3.462 -1.791,6.712 -4.25,9.166c-2.458,2.238 -5.714,3.399 -9.033,3.221c-1.643,-0.063 -3.277,-0.27 -4.883,-0.616l0.75,-7.5c0.932,0.214 1.879,0.353 2.833,0.416c2.721,0.159 5.095,-1.935 5.279,-4.654l6.388,-37.175l9.254,0Zm-8.384,-8.946c-0.083,-1.329 0.416,-2.63 1.367,-3.562c0.985,-0.956 2.307,-1.488 3.679,-1.479c1.358,-0.052 2.684,0.427 3.696,1.333c0.955,0.868 1.504,2.097 1.513,3.387c0.086,1.34 -0.413,2.653 -1.367,3.596c-0.985,0.956 -2.307,1.488 -3.679,1.479c-1.314,0.059 -2.602,-0.389 -3.596,-1.25c-1.03,-0.87 -1.622,-2.155 -1.613,-3.504Zm31.446,40.529c-2.405,2.836 -5.983,4.418 -9.7,4.288c-3.005,0.139 -5.89,-1.23 -7.683,-3.646c-1.828,-2.784 -2.547,-6.154 -2.017,-9.442l3.809,-22.787l9.166,0l-3.875,22.917c-0.086,0.67 -0.097,1.348 -0.033,2.02c-0,0.013 -0,0.025 -0,0.037c-0,1.829 1.505,3.334 3.333,3.334c0.093,-0 0.187,-0.004 0.279,-0.012c2.757,0.135 5.41,-1.098 7.084,-3.292l4.396,-25l9.245,0l-6.125,35.221l-8.562,0l0.683,-3.638Zm16.471,-13.995c0.408,-4.854 2.262,-9.476 5.321,-13.267c2.664,-3.289 6.724,-5.143 10.954,-5c3.302,-0.135 6.461,1.395 8.4,4.071l1.204,-3.417l8.429,0.034l-5.758,34.008c-0.449,4.354 -2.602,8.358 -5.987,11.133c-3.547,2.794 -7.991,4.206 -12.5,3.971c-2.407,-0.038 -4.779,-0.576 -6.967,-1.579c-2.122,-0.944 -3.994,-2.371 -5.467,-4.167l4.554,-5.583c1.798,2.455 4.641,3.937 7.684,4.004c2.2,0.145 4.378,-0.521 6.121,-1.871c1.757,-1.435 2.974,-3.427 3.45,-5.646l0.52,-2.116c-2.211,2.412 -5.353,3.764 -8.625,3.712c-3.17,0.077 -6.199,-1.341 -8.17,-3.825c-2.134,-2.818 -3.303,-6.249 -3.334,-9.783c-0.054,-1.565 0.003,-3.131 0.171,-4.688l0,0.009Zm9.017,3.862c-0.086,1.73 0.364,3.444 1.287,4.908c0.845,1.223 2.243,1.951 3.729,1.942c2.593,0.043 5.058,-1.143 6.642,-3.196l2.733,-14.929c-0.905,-2.02 -2.962,-3.291 -5.175,-3.196c-2.326,-0.073 -4.549,0.985 -5.958,2.838c-1.746,2.249 -2.808,4.955 -3.058,7.791c-0.138,1.274 -0.205,2.553 -0.2,3.834l-0,0.008Zm46.846,13.771c-0.3,-1.036 -0.421,-2.115 -0.359,-3.192c-2.307,2.503 -5.579,3.903 -8.983,3.842c-2.852,0.047 -5.61,-1.036 -7.667,-3.013c-1.993,-1.872 -3.041,-4.546 -2.85,-7.275c0.006,-3.571 1.83,-6.905 4.834,-8.837c3.723,-2.223 8.023,-3.293 12.354,-3.075l4.296,0.067l0.454,-2.117c0.127,-0.675 0.16,-1.366 0.096,-2.05c-0.059,-0.917 -0.473,-1.776 -1.155,-2.392c-0.737,-0.602 -1.668,-0.92 -2.62,-0.895c-1.301,-0.083 -2.591,0.292 -3.646,1.058c-1.027,0.796 -1.714,1.954 -1.921,3.237l-9.213,0.034c0.128,-3.319 1.863,-6.376 4.646,-8.188c3.203,-2.17 7.023,-3.249 10.888,-3.075c3.474,-0.115 6.854,1.169 9.375,3.563c2.275,2.337 3.325,5.613 2.833,8.837l-2.7,16.863l-0.162,2.083c-0.076,1.327 0.113,2.655 0.554,3.908l-0.038,0.617l-9.016,0Zm-7.084,-6.479c2.733,0.047 5.323,-1.242 6.934,-3.45l1.137,-6.088l-3.192,-0.033c-2.789,-0.176 -5.505,0.97 -7.325,3.092c-0.564,0.773 -0.912,1.684 -1.008,2.637c-0.222,0.991 0.051,2.031 0.733,2.783c0.729,0.714 1.719,1.097 2.738,1.059l-0.017,-0Zm40.3,-37.404l-1.529,8.658l5.858,-0l-1.187,6.892l-5.858,-0l-2.996,17.641c-0.16,0.854 -0.069,1.735 0.262,2.538c0.303,0.586 1.041,0.901 2.213,0.946c0.347,0.022 1.28,-0.032 2.8,-0.163l-0.65,7.196c-1.702,0.554 -3.487,0.808 -5.275,0.75c-2.562,0.153 -5.055,-0.895 -6.738,-2.833c-1.562,-2.166 -2.216,-4.859 -1.821,-7.5l3.03,-18.588l-5,0l1.204,-6.9l5,0l1.496,-8.658l9.191,0.021Zm20.296,44.533c-2.887,0.033 -5.726,-0.752 -8.187,-2.263c-2.35,-1.457 -4.205,-3.591 -5.321,-6.12c-1.189,-2.694 -1.659,-5.65 -1.367,-8.579l0.096,-1.3c0.294,-3.329 1.317,-6.553 2.996,-9.442c1.538,-2.729 3.76,-5.012 6.446,-6.625c2.637,-1.554 5.666,-2.317 8.725,-2.196c4.049,-0.152 7.918,1.725 10.304,5c2.42,3.626 3.37,8.041 2.654,12.342l-0.521,4.008l-21.583,0c-0.183,1.971 0.416,3.936 1.666,5.471c1.238,1.387 3.025,2.162 4.884,2.116c3.364,0.08 6.591,-1.355 8.787,-3.904l4.2,5.209c-1.421,2.078 -3.414,3.702 -5.737,4.675c-2.529,1.123 -5.276,1.672 -8.042,1.608Zm2.917,-28.938c-1.65,-0.058 -3.262,0.513 -4.509,1.596c-1.63,1.604 -2.843,3.583 -3.533,5.763l12.629,-0l0.196,-0.834c0.13,-0.819 0.141,-1.652 0.033,-2.475c-0.154,-1.143 -0.722,-2.191 -1.595,-2.945c-0.907,-0.73 -2.041,-1.121 -3.205,-1.105l-0.016,0Zm33.104,-7.616c3.114,0.003 6.054,1.461 7.942,3.937l3.466,-18.033l9.213,-0l-8.659,50l-8.204,-0l0.521,-3.775c-2.182,2.843 -5.582,4.497 -9.167,4.458c-2.05,0.022 -4.06,-0.58 -5.762,-1.725c-1.72,-1.216 -3.049,-2.908 -3.825,-4.866c-0.929,-2.249 -1.43,-4.651 -1.479,-7.084c-0.067,-1.324 -0.035,-2.651 0.096,-3.971l0.195,-1.466c0.432,-3.322 1.452,-6.54 3.013,-9.504c1.253,-2.478 3.141,-4.578 5.471,-6.088c2.161,-1.321 4.664,-1.976 7.196,-1.883l-0.017,-0Zm-6.667,18.946c-0.164,1.382 -0.218,2.775 -0.162,4.166c0.216,3.82 1.757,5.764 4.621,5.834c2.723,0.036 5.278,-1.346 6.737,-3.646l2.5,-13.996c-0.69,-2.205 -2.77,-3.698 -5.079,-3.646c-2.169,-0.095 -4.254,0.871 -5.583,2.588c-1.772,2.575 -2.817,5.581 -3.025,8.7l-0.009,-0Zm-651.325,91.991l13.542,-39.096l6.837,0l-17.579,47.396l-5.533,0l-17.546,-47.396l6.804,0l13.475,39.096Zm40.417,8.95c-4.379,0.166 -8.627,-1.547 -11.667,-4.704c-3.105,-3.431 -4.722,-7.961 -4.491,-12.583l-0,-1.108c-0.058,-3.232 0.626,-6.433 2,-9.359c1.231,-2.627 3.171,-4.859 5.6,-6.446c2.312,-1.526 5.025,-2.337 7.795,-2.329c4.065,-0.221 8.011,1.451 10.68,4.525c2.764,3.729 4.114,8.322 3.808,12.954l0,2.5l-23.867,0c-0.059,3.084 1.025,6.084 3.042,8.417c1.874,2.106 4.586,3.281 7.404,3.208c1.89,0.063 3.762,-0.386 5.417,-1.3c1.501,-0.89 2.817,-2.061 3.875,-3.45l3.679,2.867c-2.873,4.499 -7.966,7.107 -13.296,6.808l0.021,0Zm-0.75,-31.575c-2.327,-0.044 -4.563,0.925 -6.121,2.655c-1.789,2.088 -2.865,4.695 -3.071,7.437l17.642,0l0,-0.454c-0.001,-2.581 -0.873,-5.088 -2.475,-7.113c-1.516,-1.702 -3.723,-2.631 -6,-2.525l0.025,0Zm38.475,1.109c-0.98,-0.158 -1.97,-0.235 -2.962,-0.229c-3.492,-0.288 -6.779,1.775 -8.038,5.045l0,25l-6.042,0l0,-35.22l5.859,-0l0.096,4.07c1.716,-3.004 4.962,-4.823 8.42,-4.72c0.913,-0.049 1.826,0.106 2.671,0.454l-0.004,5.6Zm35.35,12.596c0.227,4.613 -1.078,9.175 -3.713,12.97c-2.301,3.18 -6.038,5.018 -9.962,4.9c-4.001,0.206 -7.86,-1.559 -10.321,-4.72l-0.292,4.07l-5.545,0l-0,-50l6.02,0l0,18.655c2.44,-3.021 6.18,-4.704 10.059,-4.525c3.951,-0.155 7.731,1.665 10.075,4.85c2.64,3.907 3.927,8.575 3.662,13.283l0.017,0.517Zm-6.038,-0.696c0.204,-3.337 -0.626,-6.656 -2.375,-9.504c-1.553,-2.211 -4.139,-3.472 -6.837,-3.334c-3.728,-0.152 -7.169,2.072 -8.563,5.534l0,15.22c1.459,3.437 4.894,5.64 8.625,5.534c2.665,0.111 5.209,-1.148 6.738,-3.334c1.822,-3.044 2.665,-6.577 2.412,-10.116Zm12.013,-0.034c-0.051,-3.218 0.645,-6.404 2.033,-9.308c1.239,-2.624 3.205,-4.838 5.663,-6.379c2.492,-1.518 5.365,-2.297 8.283,-2.246c4.428,-0.154 8.701,1.682 11.638,5c3.094,3.699 4.681,8.433 4.441,13.25l0,0.417c0.053,3.186 -0.621,6.342 -1.971,9.229c-1.222,2.621 -3.18,4.831 -5.633,6.362c-2.531,1.545 -5.452,2.335 -8.417,2.28c-4.417,0.148 -8.678,-1.687 -11.604,-5c-3.077,-3.671 -4.661,-8.37 -4.433,-13.155l-0,-0.45Zm6.054,0.717c-0.167,3.35 0.789,6.663 2.717,9.408c1.744,2.243 4.431,3.557 7.272,3.557c2.863,0 5.569,-1.334 7.311,-3.607c1.967,-2.977 2.915,-6.513 2.7,-10.075c0.156,-3.349 -0.812,-6.655 -2.75,-9.391c-1.694,-2.327 -4.431,-3.674 -7.308,-3.596c-2.833,-0.069 -5.526,1.26 -7.196,3.55c-2.011,2.993 -2.976,6.568 -2.746,10.167l0,-0.013Zm62.871,-33.383l2.879,2.346c-2.58,2.57 -4.435,5.693 -5.299,8.92l-1.079,4.43l-5.97,-0l0.919,-3.775c0.573,-2.284 1.661,-4.533 3.181,-6.575c1.456,-2.054 3.287,-3.877 5.369,-5.346Zm10.254,-0l2.879,2.346c-2.58,2.57 -4.434,5.693 -5.298,8.92l-1.079,4.43l-5.971,-0l0.919,-3.775c0.573,-2.284 1.662,-4.533 3.181,-6.575c1.463,-2.056 3.301,-3.879 5.39,-5.346l-0.021,-0Zm15.34,6.866l-2.078,8.53l6.575,-0l-1.134,4.654l-6.575,-0l-5.327,21.871c-0.36,1.129 -0.323,2.253 0.104,3.179c0.597,0.785 1.604,1.174 2.738,1.058c0.975,-0.035 1.967,-0.166 2.962,-0.392l-1.181,4.85c-1.607,0.42 -3.214,0.637 -4.778,0.646c-2.335,0.164 -4.362,-0.738 -5.493,-2.441c-0.997,-1.995 -1.125,-4.453 -0.361,-6.934l5.32,-21.837l-6.421,-0l1.134,-4.654l6.42,-0l2.078,-8.53l6.017,0Zm5.069,25.834c0.733,-3.218 2.205,-6.405 4.301,-9.309c1.878,-2.623 4.383,-4.838 7.217,-6.379c2.862,-1.517 5.925,-2.296 8.83,-2.246c4.466,-0.153 8.291,1.682 10.42,5c2.193,3.699 2.626,8.434 1.213,13.25l-0.101,0.417c-0.724,3.186 -2.167,6.342 -4.219,9.229c-1.861,2.621 -4.357,4.831 -7.183,6.363c-2.908,1.544 -6.021,2.335 -8.972,2.279c-4.454,0.149 -8.267,-1.687 -10.386,-5c-2.191,-3.679 -2.629,-8.391 -1.225,-13.188l0.105,-0.416Zm5.88,0.716c-0.984,3.351 -0.834,6.663 0.425,9.409c1.197,2.242 3.564,3.557 6.405,3.557c2.864,-0 5.894,-1.335 8.19,-3.607c2.687,-2.979 4.49,-6.516 5.138,-10.075c0.971,-3.349 0.809,-6.656 -0.462,-9.392c-1.128,-2.326 -3.537,-3.673 -6.433,-3.596c-2.816,-0.069 -5.833,1.26 -8.06,3.55c-2.727,2.985 -4.556,6.548 -5.202,10.133l-0.001,0.021Zm79.883,0c-0.906,4.61 -3.328,9.164 -6.888,12.95c-3.076,3.18 -7.261,5.018 -11.156,4.9c-4.051,0.206 -7.48,-1.559 -9.171,-4.72l-1.283,4.07l-5.513,0l12.181,-50l6.02,0l-4.544,18.655c3.178,-3.024 7.332,-4.706 11.169,-4.525c3.989,-0.155 7.326,1.665 8.894,4.85c1.688,3.907 1.837,8.575 0.426,13.283l-0.135,0.537Zm-5.85,-0.716c1.016,-3.337 0.995,-6.656 -0.06,-9.504c-1.015,-2.211 -3.294,-3.472 -6.025,-3.334c-3.692,-0.152 -7.675,2.072 -9.911,5.534l-3.708,15.22c0.622,3.437 3.519,5.64 7.277,5.534c2.638,0.111 5.489,-1.148 7.55,-3.334c2.564,-3.044 4.267,-6.577 4.877,-10.116Zm23.701,18.554c-4.42,0.166 -8.251,-1.547 -10.521,-4.704c-2.269,-3.432 -2.783,-7.961 -1.426,-12.584l0.27,-1.108c0.729,-3.231 2.194,-6.433 4.279,-9.358c1.872,-2.627 4.355,-4.86 7.171,-6.446c2.684,-1.527 5.594,-2.337 8.363,-2.329c4.118,-0.222 7.657,1.451 9.577,4.525c1.856,3.729 2.087,8.322 0.652,12.954l-0.609,2.5l-23.845,-0c-0.811,3.084 -0.458,6.083 0.991,8.417c1.361,2.105 3.787,3.28 6.622,3.208c1.875,0.063 3.856,-0.387 5.734,-1.3c1.718,-0.89 3.319,-2.062 4.715,-3.45l2.981,2.867c-3.967,4.503 -9.697,7.117 -14.957,6.82l0.003,-0.012Zm6.942,-31.575c-2.317,-0.045 -4.788,0.925 -6.768,2.654c-2.296,2.094 -4.002,4.705 -4.869,7.45l17.642,0l0.11,-0.454c0.628,-2.581 0.367,-5.088 -0.742,-7.113c-1.099,-1.699 -3.075,-2.627 -5.372,-2.525l-0.001,-0.012Zm22.569,-3.125l-2.846,-2.342c2.563,-2.581 4.414,-5.697 5.298,-8.921l1.139,-4.675l5.958,0l-1.031,4.234c-0.593,2.258 -1.686,4.479 -3.195,6.496c-1.437,2.019 -3.255,3.803 -5.322,5.22l-0.001,-0.012Zm10,-0l-2.846,-2.342c2.563,-2.581 4.414,-5.697 5.298,-8.921l1.139,-4.675l5.958,0l-1.031,4.234c-0.593,2.258 -1.686,4.479 -3.195,6.496c-1.438,2.02 -3.258,3.803 -5.326,5.22l0.003,-0.012Zm39.32,29.783c2.05,0.035 4.046,-0.658 5.634,-1.954c1.538,-1.178 2.509,-2.953 2.67,-4.883l5.671,-0c-0.13,2.08 -0.853,4.08 -2.083,5.762c-1.32,1.857 -3.081,3.357 -5.125,4.363c-2.1,1.076 -4.428,1.635 -6.788,1.629c-4.331,0.186 -8.525,-1.578 -11.42,-4.804c-3.002,-3.695 -4.518,-8.381 -4.25,-13.134l-0,-1.008c-0.062,-3.158 0.583,-6.29 1.887,-9.167c1.16,-2.556 3.043,-4.717 5.417,-6.216c2.51,-1.515 5.402,-2.283 8.333,-2.213c3.614,-0.121 7.141,1.151 9.846,3.55c2.605,2.359 4.115,5.699 4.167,9.213l-5.696,-0c-0.107,-2.135 -1.034,-4.148 -2.588,-5.617c-1.548,-1.463 -3.616,-2.253 -5.746,-2.196c-2.767,-0.135 -5.431,1.102 -7.112,3.304c-1.859,2.825 -2.744,6.181 -2.521,9.555l0,1.137c-0.212,3.314 0.666,6.607 2.5,9.375c1.7,2.229 4.401,3.475 7.2,3.321l0.004,-0.017Zm19.167,-13.671c-0.051,-3.218 0.645,-6.404 2.033,-9.308c1.239,-2.624 3.205,-4.838 5.663,-6.379c2.492,-1.518 5.365,-2.297 8.283,-2.246c4.428,-0.154 8.701,1.682 11.638,5c3.094,3.699 4.681,8.433 4.441,13.25l0,0.417c0.053,3.186 -0.621,6.342 -1.971,9.229c-1.222,2.621 -3.18,4.831 -5.633,6.362c-2.531,1.545 -5.452,2.335 -8.417,2.28c-4.417,0.148 -8.678,-1.687 -11.604,-5c-3.087,-3.677 -4.674,-8.388 -4.441,-13.184l0.008,-0.421Zm6.054,0.717c-0.167,3.35 0.789,6.663 2.717,9.408c1.744,2.243 4.431,3.557 7.272,3.557c2.863,0 5.569,-1.334 7.311,-3.607c1.961,-2.967 2.91,-6.491 2.704,-10.041c0.156,-3.349 -0.812,-6.656 -2.75,-9.392c-1.694,-2.326 -4.431,-3.673 -7.308,-3.596c-2.833,-0.069 -5.526,1.26 -7.196,3.55c-2.004,2.984 -2.969,6.546 -2.746,10.134l-0.004,-0.013Zm39.258,-18l0.196,4.429c2.492,-3.288 6.422,-5.181 10.546,-5.079c7.445,0 11.195,4.199 11.25,12.596l0,23.287l-6.021,0l0,-23.308c0.147,-2.029 -0.475,-4.041 -1.741,-5.633c-1.439,-1.326 -3.372,-1.987 -5.321,-1.821c-1.836,-0.036 -3.636,0.512 -5.142,1.562c-1.482,1.049 -2.67,2.461 -3.45,4.1l0,25.1l-6.021,0l0,-35.22l5.704,-0.013Zm37.305,0l-0,39.292c-0,6.772 -3.071,10.158 -9.213,10.158c-1.25,0.011 -2.494,-0.186 -3.679,-0.583l-0,-4.779c0.898,0.195 1.815,0.283 2.733,0.262c1.132,0.078 2.246,-0.317 3.075,-1.092c0.817,-1.087 1.195,-2.443 1.059,-3.795l-0,-39.45l6.025,-0.013Zm-6.638,-9.35c-0.019,-0.902 0.301,-1.78 0.896,-2.458c0.676,-0.717 1.638,-1.093 2.621,-1.025c0.994,-0.071 1.971,0.298 2.671,1.008c0.609,0.677 0.936,1.564 0.912,2.475c0.028,0.902 -0.3,1.779 -0.912,2.442c-0.71,0.69 -1.683,1.045 -2.671,0.975c-0.979,0.075 -1.943,-0.282 -2.638,-0.975c-0.593,-0.672 -0.908,-1.546 -0.879,-2.442Zm38.088,41.079c-2.629,2.877 -6.433,4.401 -10.321,4.134c-3.199,0.219 -6.338,-0.978 -8.579,-3.271c-2.152,-2.75 -3.214,-6.2 -2.98,-9.684l0,-22.916l6.021,-0l0,22.754c0,5.339 2.171,8.008 6.513,8.008c3.832,0.429 7.534,-1.648 9.166,-5.141l0,-25.6l6.021,-0l0,35.22l-5.729,0l-0.112,-3.504Zm13.575,-14.412c-0.249,-4.672 1.094,-9.293 3.808,-13.104c2.491,-3.077 6.245,-4.868 10.204,-4.868c3.819,0 7.453,1.666 9.946,4.559l0.292,-3.904l5.5,0l-0,34.4c0.214,3.999 -1.258,7.909 -4.055,10.775c-2.952,2.72 -6.878,4.14 -10.887,3.938c-2.572,-0.008 -5.113,-0.564 -7.454,-1.63c-2.239,-0.93 -4.17,-2.476 -5.567,-4.458l3.125,-3.613c2.217,3.005 5.737,4.783 9.471,4.784c2.526,0.15 5.007,-0.745 6.854,-2.475c1.73,-1.892 2.618,-4.408 2.458,-6.967l0,-3.029c-2.484,2.81 -6.115,4.345 -9.862,4.167c-3.949,0.077 -7.693,-1.795 -10,-5c-2.749,-3.974 -4.098,-8.751 -3.833,-13.575Zm6.054,0.683c-0.185,3.298 0.669,6.571 2.441,9.358c1.545,2.228 4.13,3.514 6.838,3.4c3.574,0.135 6.891,-1.917 8.367,-5.175l-0,-16.066c-1.527,-3.167 -4.787,-5.149 -8.3,-5.046c-2.719,-0.103 -5.31,1.186 -6.867,3.417c-1.854,3.036 -2.72,6.575 -2.479,10.125l-0,-0.013Zm54.525,17.233c-0.464,-1.188 -0.744,-2.44 -0.834,-3.712c-2.571,2.808 -6.217,4.395 -10.025,4.362c-3.116,0.125 -6.168,-0.927 -8.545,-2.945c-2.177,-1.862 -3.402,-4.608 -3.334,-7.471c-0.148,-3.367 1.423,-6.589 4.167,-8.546c3.504,-2.227 7.623,-3.292 11.767,-3.042l5.858,0l0,-2.766c0.097,-1.87 -0.587,-3.699 -1.888,-5.046c-1.528,-1.345 -3.536,-2.02 -5.566,-1.871c-1.936,-0.07 -3.841,0.503 -5.417,1.629c-1.334,0.868 -2.152,2.346 -2.179,3.938l-6.042,-0c0.038,-1.86 0.697,-3.654 1.871,-5.096c1.336,-1.707 3.084,-3.047 5.079,-3.892c2.221,-0.972 4.623,-1.461 7.046,-1.433c3.445,-0.204 6.846,0.881 9.538,3.041c2.35,2.143 3.657,5.204 3.579,8.384l-0,16.212c-0.1,2.63 0.325,5.253 1.25,7.717l-0,0.537l-6.325,0Zm-10,-4.583c1.889,-0.001 3.744,-0.507 5.371,-1.467c1.585,-0.864 2.869,-2.193 3.679,-3.808l-0,-7.225l-4.721,-0c-7.378,-0 -11.067,2.16 -11.067,6.479c-0.087,1.687 0.61,3.324 1.888,4.429c1.371,1.101 3.097,1.667 4.854,1.592l-0.004,-0Zm23.046,-13.333c-0.229,-4.654 1.126,-9.251 3.841,-13.038c2.479,-3.115 6.248,-4.933 10.229,-4.933c3.659,0 7.155,1.537 9.63,4.233l-0,-18.346l6.02,0l0,50l-5.533,0l-0.292,-3.775c-2.464,2.978 -6.197,4.622 -10.058,4.429c-3.941,0.071 -7.676,-1.8 -9.979,-5c-2.716,-3.806 -4.075,-8.416 -3.858,-13.087l-0,-0.483Zm6.02,0.683c-0.19,3.308 0.677,6.592 2.475,9.375c1.558,2.212 4.135,3.489 6.838,3.387c3.569,0.151 6.889,-1.889 8.367,-5.141l-0,-16.167c-1.526,-3.161 -4.793,-5.129 -8.3,-5c-2.729,-0.108 -5.333,1.181 -6.9,3.417c-1.85,3.044 -2.709,6.588 -2.459,10.141l-0.021,-0.012Zm31.446,-0.717c-0.051,-3.218 0.645,-6.404 2.034,-9.308c1.238,-2.624 3.204,-4.838 5.662,-6.379c2.493,-1.518 5.366,-2.297 8.283,-2.246c4.429,-0.154 8.701,1.682 11.638,5c3.094,3.699 4.681,8.433 4.442,13.25l-0,0.417c0.052,3.186 -0.622,6.342 -1.971,9.229c-1.223,2.621 -3.18,4.831 -5.634,6.362c-2.531,1.545 -5.451,2.335 -8.416,2.279c-4.418,0.149 -8.678,-1.686 -11.604,-5c-3.088,-3.676 -4.675,-8.387 -4.442,-13.183l0.008,-0.421Zm6.054,0.717c-0.167,3.35 0.79,6.663 2.717,9.408c1.744,2.243 4.431,3.557 7.273,3.557c2.863,0 5.568,-1.334 7.31,-3.607c1.968,-2.976 2.915,-6.513 2.7,-10.075c0.156,-3.349 -0.812,-6.655 -2.75,-9.391c-1.694,-2.327 -4.431,-3.674 -7.308,-3.596c-2.833,-0.069 -5.526,1.26 -7.196,3.55c-2.003,2.995 -2.961,6.571 -2.725,10.166l-0.021,-0.012Z" style="fill:#12263f;fill-rule:nonzero;"/><path id="Trazado_129309" d="M2150.91,76.596c3.361,-0.064 6.527,1.611 8.366,4.425l1.496,-3.775l8.204,0.033l-8.466,48.763l-9.263,-0l3.308,-16.634c-2.156,2.456 -5.295,3.831 -8.562,3.75c-2.052,0.019 -4.062,-0.585 -5.763,-1.733c-1.726,-1.224 -3.056,-2.928 -3.825,-4.9c-0.921,-2.238 -1.422,-4.626 -1.479,-7.046c-0.066,-1.335 -0.034,-2.673 0.096,-4.004l0.196,-1.433c0.423,-3.349 1.444,-6.595 3.012,-9.584c1.246,-2.464 3.135,-4.546 5.467,-6.025c2.176,-1.295 4.682,-1.933 7.212,-1.837Zm-6.804,23.071c0.217,3.869 1.764,5.836 4.642,5.9c2.648,0.055 5.151,-1.236 6.642,-3.425l2.65,-14.671c-0.807,-2.092 -2.887,-3.433 -5.125,-3.304c-2.231,-0.098 -4.37,0.924 -5.696,2.721c-1.671,2.31 -2.679,5.033 -2.917,7.875c-0.182,1.627 -0.248,3.266 -0.196,4.904Zm47.975,9.187c-2.403,2.838 -5.979,4.423 -9.696,4.296c-3.003,0.137 -5.886,-1.231 -7.679,-3.646c-1.827,-2.784 -2.547,-6.154 -2.016,-9.441l3.808,-22.788l9.167,0l-3.875,22.917c-0.087,0.67 -0.098,1.348 -0.034,2.021c0,0.012 0,0.024 0,0.036c0,1.829 1.505,3.334 3.333,3.334c0.094,-0 0.187,-0.004 0.28,-0.012c2.756,0.135 5.409,-1.098 7.083,-3.292l4.396,-25l9.246,0l-6.129,35.221l-8.559,0l0.675,-3.646Zm35.096,3.646c-0.299,-1.036 -0.421,-2.115 -0.358,-3.192c-2.308,2.503 -5.58,3.903 -8.984,3.842c-2.851,0.047 -5.609,-1.036 -7.666,-3.012c-1.994,-1.873 -3.041,-4.547 -2.85,-7.275c0.006,-3.572 1.829,-6.906 4.833,-8.838c3.723,-2.223 8.023,-3.293 12.354,-3.075l4.296,0.067l0.454,-2.117c0.128,-0.675 0.16,-1.366 0.096,-2.05c-0.058,-0.917 -0.472,-1.776 -1.154,-2.392c-0.738,-0.602 -1.668,-0.92 -2.621,-0.895c-1.301,-0.083 -2.591,0.292 -3.646,1.058c-1.027,0.796 -1.714,1.954 -1.921,3.237l-9.212,0.034c0.126,-3.317 1.857,-6.374 4.637,-8.188c3.203,-2.17 7.023,-3.249 10.888,-3.075c3.475,-0.115 6.854,1.169 9.375,3.563c2.275,2.337 3.325,5.613 2.833,8.837l-2.7,16.863l-0.162,2.083c-0.076,1.327 0.113,2.655 0.554,3.908l-0.025,0.617l-9.021,0Zm-7.083,-6.479c2.732,0.047 5.323,-1.242 6.933,-3.45l1.138,-6.088l-3.167,-0.033c-2.789,-0.176 -5.505,0.97 -7.325,3.092c-0.565,0.773 -0.913,1.684 -1.008,2.637c-0.223,0.991 0.051,2.031 0.733,2.784c0.723,0.708 1.705,1.09 2.717,1.058l-0.021,-0Zm31.4,6.479l-9.242,0l8.692,-50l9.212,0l-8.662,50Zm17.5,0l-9.263,0l6.1,-35.221l9.246,0l-6.083,35.221Zm-2.05,-44.167c-0.082,-1.356 0.444,-2.681 1.433,-3.612c0.964,-0.942 2.266,-1.458 3.613,-1.433c1.32,-0.072 2.618,0.377 3.612,1.25c1.006,0.864 1.588,2.123 1.596,3.45c0.058,1.308 -0.432,2.583 -1.35,3.516c-0.964,1.007 -2.302,1.573 -3.696,1.563c-1.314,0.058 -2.601,-0.39 -3.596,-1.25c-1.031,-0.863 -1.628,-2.14 -1.629,-3.484l0.017,0Zm12.287,44.167l4.934,-28.333l-5.096,-0l1.204,-6.867l5.079,-0.033l0.454,-3.517c0.383,-3.41 2.017,-6.56 4.584,-8.837c2.675,-2.2 6.079,-3.321 9.537,-3.142c1.683,0.088 3.355,0.315 5,0.679l-0.833,7.296c-0.881,-0.238 -1.788,-0.37 -2.7,-0.392c-1.489,-0.056 -2.955,0.384 -4.167,1.25c-1.209,0.93 -1.991,2.31 -2.167,3.825l-0.487,2.875l6.804,0l-1.217,6.863l-6.77,-0l-4.917,28.333l-9.242,0Zm35.971,-13.412l10.058,-21.809l10.221,0l-20.608,40.525c-1.141,2.672 -2.924,5.021 -5.192,6.838c-1.995,1.456 -4.413,2.221 -6.883,2.179c-1.495,-0.069 -2.979,-0.299 -4.425,-0.683l0.683,-7.163l1.25,0.067c2.644,0.271 5.218,-1.013 6.592,-3.288l2.017,-3.75l-5.759,-34.725l9.504,0l2.542,21.809Zm27.538,13.412l-9.246,0l6.121,-35.221l9.245,0l-6.12,35.221Zm-2.05,-44.167c-0.082,-1.356 0.444,-2.681 1.433,-3.612c0.964,-0.942 2.266,-1.458 3.612,-1.433c1.321,-0.072 2.619,0.377 3.613,1.25c1.006,0.864 1.588,2.123 1.596,3.45c0.058,1.308 -0.432,2.583 -1.35,3.516c-0.964,1.007 -2.302,1.573 -3.696,1.563c-1.314,0.058 -2.601,-0.39 -3.596,-1.25c-1.025,-0.866 -1.615,-2.142 -1.612,-3.484Zm24.35,8.921l-0.78,4.167c2.476,-3.114 6.278,-4.888 10.255,-4.784c2.915,-0.138 5.702,1.243 7.358,3.646c1.704,2.974 2.314,6.453 1.725,9.829l-3.717,22.388l-9.166,-0l3.775,-22.5c0.107,-0.766 0.129,-1.542 0.066,-2.313c-0.159,-1.934 -1.796,-3.441 -3.737,-3.441c-0.143,0 -0.287,0.008 -0.429,0.025c-2.571,-0.008 -4.991,1.237 -6.48,3.333l-4.408,24.896l-9.167,-0l6.121,-35.221l8.584,-0.025Zm23.791,17.604c0.412,-4.855 2.27,-9.477 5.334,-13.266c2.663,-3.29 6.724,-5.143 10.954,-5c3.302,-0.136 6.46,1.395 8.4,4.071l1.204,-3.417l8.429,0.033l-5.771,34.017c-0.448,4.354 -2.602,8.358 -5.987,11.133c-3.547,2.794 -7.991,4.206 -12.5,3.971c-2.407,-0.038 -4.779,-0.576 -6.967,-1.579c-2.122,-0.944 -3.994,-2.371 -5.467,-4.167l4.555,-5.583c1.797,2.455 4.641,3.937 7.683,4.004c2.2,0.145 4.378,-0.521 6.121,-1.871c1.757,-1.435 2.974,-3.427 3.45,-5.646l0.521,-2.116c-2.212,2.412 -5.354,3.764 -8.625,3.712c-3.171,0.077 -6.2,-1.341 -8.171,-3.825c-2.133,-2.818 -3.303,-6.249 -3.334,-9.783c-0.054,-1.565 0.003,-3.131 0.171,-4.688Zm9.017,3.863c-0.086,1.729 0.364,3.444 1.287,4.908c0.845,1.223 2.243,1.951 3.73,1.942c2.592,0.043 5.057,-1.143 6.641,-3.196l2.734,-14.929c-0.903,-2.016 -2.952,-3.287 -5.159,-3.2c-2.326,-0.074 -4.549,0.985 -5.958,2.837c-1.746,2.25 -2.808,4.955 -3.058,7.792c-0.145,1.277 -0.217,2.561 -0.217,3.846Zm63.283,13.779c-0.299,-1.036 -0.42,-2.115 -0.358,-3.192c-2.307,2.503 -5.58,3.903 -8.983,3.842c-2.852,0.047 -5.61,-1.036 -7.667,-3.013c-1.993,-1.872 -3.041,-4.546 -2.85,-7.275c0.006,-3.571 1.829,-6.905 4.833,-8.837c3.724,-2.223 8.024,-3.293 12.354,-3.075l4.296,0.067l0.455,-2.117c0.127,-0.675 0.159,-1.366 0.095,-2.05c-0.058,-0.917 -0.472,-1.776 -1.154,-2.392c-0.738,-0.602 -1.668,-0.92 -2.621,-0.895c-1.301,-0.083 -2.591,0.292 -3.645,1.058c-1.028,0.796 -1.715,1.954 -1.921,3.237l-9.213,0.034c0.126,-3.317 1.857,-6.374 4.638,-8.188c3.202,-2.17 7.022,-3.249 10.887,-3.075c3.475,-0.115 6.854,1.169 9.375,3.563c2.276,2.337 3.326,5.613 2.834,8.837l-2.696,16.863l-0.163,2.083c-0.075,1.327 0.113,2.655 0.554,3.908l-0.033,0.617l-9.017,0Zm-7.083,-6.479c2.732,0.047 5.323,-1.242 6.933,-3.45l1.138,-6.088l-3.192,-0.033c-2.789,-0.176 -5.505,0.97 -7.325,3.092c-0.565,0.773 -0.913,1.684 -1.008,2.637c-0.223,0.991 0.051,2.031 0.733,2.783c0.729,0.715 1.722,1.098 2.742,1.059l-0.021,-0Zm39.167,-29.425c3.114,0.003 6.054,1.461 7.941,3.937l3.463,-18.033l9.212,0l-8.658,50l-8.204,0l0.529,-3.775c-2.182,2.843 -5.583,4.497 -9.167,4.458c-2.056,0.025 -4.072,-0.577 -5.779,-1.725c-1.72,-1.216 -3.049,-2.908 -3.825,-4.866c-0.929,-2.249 -1.43,-4.651 -1.479,-7.084c-0.067,-1.324 -0.035,-2.651 0.096,-3.97l0.196,-1.467c0.432,-3.316 1.451,-6.529 3.008,-9.488c1.253,-2.477 3.141,-4.578 5.471,-6.087c2.163,-1.329 4.671,-1.99 7.208,-1.9l-0.012,-0Zm-6.667,18.946c-0.164,1.382 -0.218,2.775 -0.162,4.166c0.216,3.82 1.756,5.764 4.62,5.834c2.724,0.036 5.279,-1.346 6.738,-3.646l2.5,-13.996c-0.69,-2.205 -2.77,-3.698 -5.079,-3.646c-2.169,-0.095 -4.254,0.871 -5.584,2.588c-1.773,2.575 -2.819,5.58 -3.029,8.7l-0.004,-0Zm40.754,5.337l10.025,-23.6l9.896,0l-17.017,35.221l-8.787,0l-6.004,-35.221l9.291,0l2.596,23.6Zm34.938,12.271c-2.888,0.033 -5.727,-0.752 -8.188,-2.262c-2.343,-1.459 -4.192,-3.591 -5.304,-6.117c-1.188,-2.694 -1.659,-5.65 -1.367,-8.579l0.096,-1.3c0.294,-3.329 1.317,-6.553 2.996,-9.442c1.538,-2.729 3.76,-5.012 6.446,-6.625c2.637,-1.554 5.666,-2.317 8.725,-2.196c4.049,-0.152 7.918,1.725 10.304,5c2.421,3.626 3.37,8.042 2.654,12.342l-0.521,4.008l-21.583,0c-0.182,1.971 0.416,3.937 1.667,5.471c1.237,1.387 3.025,2.162 4.883,2.117c3.364,0.079 6.591,-1.355 8.787,-3.904l4.2,5.208c-1.427,2.08 -3.428,3.703 -5.758,4.671c-2.527,1.122 -5.272,1.671 -8.037,1.608Zm2.916,-28.938c-1.65,-0.058 -3.262,0.513 -4.508,1.596c-1.63,1.604 -2.843,3.583 -3.533,5.763l12.629,-0l0.196,-0.834c0.13,-0.819 0.141,-1.652 0.033,-2.475c-0.154,-1.143 -0.722,-2.191 -1.596,-2.945c-0.908,-0.731 -2.043,-1.122 -3.208,-1.105l-0.013,0Zm39.746,1.888c-1.02,-0.193 -2.054,-0.302 -3.092,-0.325c-3.049,-0.192 -5.992,1.2 -7.779,3.679l-4.058,23.046l-9.167,-0l6.121,-35.221l8.625,-0.033l-0.833,4.296c1.655,-2.998 4.781,-4.903 8.204,-5c1.078,0.022 2.15,0.174 3.192,0.454l-1.213,9.104Zm33.671,8.9c-0.376,4.84 -2.14,9.47 -5.079,13.333c-2.533,3.248 -6.499,5.061 -10.613,4.85c-3.405,0.074 -6.615,-1.63 -8.462,-4.491l-1.334,3.808l-8.366,-0l8.658,-50l9.213,-0l-3.55,18c2.134,-2.518 5.295,-3.943 8.595,-3.875c3.098,-0.098 6.07,1.258 8.026,3.662c2.102,2.883 3.195,6.38 3.108,9.946c0.034,1.592 -0.031,3.184 -0.196,4.767Zm-9.113,-0.688c0.179,-1.428 0.245,-2.869 0.196,-4.308c-0.239,-3.789 -1.801,-5.715 -4.687,-5.779c-2.742,-0.072 -5.32,1.339 -6.738,3.688l-2.537,14.041c0.716,2.272 2.896,3.784 5.275,3.658c4.514,0.131 7.28,-3.156 8.3,-9.862l0.191,-1.438Zm48.567,-17.675c2.855,-0.032 5.654,0.802 8.025,2.392c2.263,1.573 3.99,3.803 4.946,6.388c1.075,2.893 1.461,5.998 1.125,9.066c-0.27,5.078 -2.338,9.898 -5.833,13.592c-3.274,3.411 -7.86,5.257 -12.584,5.062c-2.823,0.028 -5.591,-0.793 -7.941,-2.358c-2.261,-1.564 -3.988,-3.785 -4.946,-6.362c-1.082,-2.863 -1.472,-5.942 -1.138,-8.984c0.287,-5.173 2.385,-10.083 5.925,-13.866c3.232,-3.36 7.765,-5.162 12.421,-4.938l0,0.008Zm-9.279,22.138c-0.056,1.757 0.458,3.485 1.467,4.925c0.943,1.209 2.404,1.903 3.937,1.871c2.777,0.112 5.378,-1.408 6.642,-3.884c1.732,-3.231 2.511,-6.889 2.246,-10.545c0.011,-1.781 -0.517,-3.524 -1.513,-5c-0.925,-1.247 -2.402,-1.969 -3.954,-1.934c-2.74,-0.083 -5.295,1.418 -6.558,3.85c-1.782,3.276 -2.57,7.001 -2.267,10.717Zm50.129,-12.675c-1.02,-0.193 -2.054,-0.302 -3.092,-0.325c-3.049,-0.192 -5.992,1.2 -7.779,3.679l-4.071,23.046l-9.166,-0l6.121,-35.221l8.625,-0.033l-0.834,4.296c1.656,-2.998 4.782,-4.903 8.204,-5c1.079,0.022 2.15,0.174 3.192,0.454l-1.2,9.104Zm36.621,26.4c-0.3,-1.036 -0.421,-2.115 -0.358,-3.192c-2.308,2.503 -5.58,3.903 -8.984,3.842c-2.852,0.047 -5.609,-1.036 -7.666,-3.013c-1.994,-1.872 -3.041,-4.546 -2.85,-7.275c0.006,-3.571 1.829,-6.905 4.833,-8.837c3.723,-2.223 8.023,-3.293 12.354,-3.075l4.296,0.067l0.454,-2.117c0.128,-0.675 0.16,-1.366 0.096,-2.05c-0.058,-0.917 -0.473,-1.776 -1.154,-2.392c-0.738,-0.602 -1.669,-0.92 -2.621,-0.895c-1.301,-0.083 -2.591,0.292 -3.646,1.058c-1.027,0.796 -1.714,1.954 -1.921,3.237l-9.212,0.034c0.124,-3.316 1.852,-6.373 4.629,-8.188c3.203,-2.17 7.023,-3.249 10.887,-3.075c3.475,-0.115 6.855,1.169 9.375,3.563c2.276,2.337 3.326,5.613 2.834,8.837l-2.679,16.863l-0.163,2.083c-0.075,1.327 0.113,2.655 0.554,3.908l-0.041,0.617l-9.017,0Zm-7.083,-6.479c2.732,0.047 5.322,-1.242 6.933,-3.45l1.137,-6.088l-3.191,-0.033c-2.79,-0.176 -5.505,0.97 -7.325,3.092c-0.565,0.773 -0.913,1.684 -1.009,2.637c-0.222,0.991 0.052,2.031 0.734,2.784c0.729,0.714 1.721,1.097 2.741,1.058l-0.02,-0Zm39.166,-29.425c3.114,0.003 6.054,1.461 7.942,3.937l3.467,-18.033l9.212,-0l-8.658,50l-8.204,-0l0.52,-3.775c-2.182,2.843 -5.582,4.497 -9.166,4.458c-2.051,0.022 -4.061,-0.58 -5.763,-1.725c-1.719,-1.216 -3.049,-2.908 -3.825,-4.866c-0.928,-2.249 -1.43,-4.651 -1.479,-7.084c-0.067,-1.324 -0.035,-2.651 0.096,-3.971l0.196,-1.466c0.428,-3.315 1.443,-6.528 2.996,-9.488c1.253,-2.477 3.141,-4.578 5.47,-6.087c2.163,-1.329 4.672,-1.99 7.209,-1.9l-0.013,-0Zm-6.666,18.946c-0.164,1.382 -0.219,2.775 -0.163,4.166c0.217,3.82 1.757,5.764 4.621,5.834c2.723,0.036 5.278,-1.346 6.737,-3.646l2.5,-13.996c-0.689,-2.205 -2.769,-3.698 -5.079,-3.646c-2.169,-0.095 -4.254,0.871 -5.583,2.588c-1.771,2.575 -2.817,5.581 -3.025,8.7l-0.008,-0Zm41.795,-18.263l-6.304,37.142c-0.284,3.462 -1.791,6.712 -4.25,9.166c-2.458,2.238 -5.714,3.399 -9.033,3.221c-1.643,-0.063 -3.277,-0.27 -4.883,-0.616l0.75,-7.5c0.932,0.214 1.879,0.353 2.833,0.416c2.713,0.147 5.074,-1.943 5.258,-4.654l6.379,-37.175l9.25,0Zm-8.358,-8.946c-0.084,-1.329 0.416,-2.63 1.367,-3.562c0.985,-0.956 2.307,-1.488 3.679,-1.479c1.358,-0.052 2.684,0.427 3.696,1.333c0.955,0.868 1.504,2.097 1.512,3.387c0.087,1.34 -0.412,2.653 -1.366,3.596c-0.985,0.956 -2.307,1.488 -3.68,1.479c-1.313,0.059 -2.601,-0.389 -3.595,-1.25c-1.031,-0.87 -1.622,-2.155 -1.613,-3.504Zm26.367,44.817c-2.888,0.033 -5.727,-0.752 -8.188,-2.263c-2.349,-1.457 -4.205,-3.591 -5.321,-6.12c-1.188,-2.694 -1.659,-5.65 -1.366,-8.58l0.096,-1.3c0.293,-3.328 1.316,-6.552 2.995,-9.441c1.539,-2.729 3.76,-5.012 6.446,-6.625c2.637,-1.554 5.667,-2.317 8.725,-2.196c4.049,-0.152 7.918,1.725 10.304,5c2.421,3.626 3.371,8.041 2.655,12.342l-0.521,4.008l-21.584,0c-0.182,1.971 0.417,3.936 1.667,5.471c1.238,1.387 3.025,2.162 4.883,2.116c3.36,0.079 6.584,-1.352 8.78,-3.895l4.2,5.208c-1.424,2.076 -3.419,3.697 -5.742,4.667c-2.525,1.121 -5.267,1.67 -8.029,1.608Zm2.916,-28.938c-1.65,-0.058 -3.262,0.513 -4.508,1.596c-1.63,1.604 -2.843,3.583 -3.533,5.763l12.629,-0l0.196,-0.834c0.13,-0.819 0.141,-1.652 0.033,-2.475c-0.154,-1.143 -0.722,-2.191 -1.596,-2.945c-0.906,-0.73 -2.04,-1.121 -3.204,-1.105l-0.017,0Zm31.055,21.388c1.535,0.096 3.051,-0.399 4.233,-1.383c1.149,-1.002 1.928,-2.361 2.212,-3.859l8.625,-0.033c-0.127,2.398 -0.935,4.711 -2.329,6.667c-1.432,2.001 -3.363,3.594 -5.6,4.62c-2.299,1.1 -4.827,1.636 -7.375,1.563c-3.865,0.105 -7.583,-1.519 -10.133,-4.425c-2.615,-3.247 -3.906,-7.366 -3.613,-11.525l0.096,-1.792l0.034,-0.358c0.301,-5.073 2.349,-9.889 5.795,-13.625c3.149,-3.3 7.587,-5.067 12.142,-4.833c3.557,-0.087 6.992,1.327 9.458,3.891c2.406,2.72 3.64,6.284 3.43,9.909l-8.563,-0c0.085,-1.583 -0.354,-3.151 -1.25,-4.459c-0.902,-1.123 -2.272,-1.772 -3.712,-1.758c-4.384,-0.131 -7.042,3.064 -7.975,9.583c-0.305,1.982 -0.425,3.988 -0.359,5.992c0.228,3.817 1.861,5.758 4.9,5.825l-0.016,-0Zm37.241,-36.979l-1.516,8.658l5.858,0l-1.204,6.888l-5.859,-0l-2.995,17.641c-0.16,0.854 -0.069,1.735 0.262,2.538c0.303,0.586 1.04,0.901 2.213,0.946c0.347,0.022 1.28,-0.032 2.8,-0.163l-0.659,7.208c-1.701,0.554 -3.486,0.808 -5.275,0.75c-2.562,0.153 -5.054,-0.895 -6.737,-2.833c-1.562,-2.166 -2.216,-4.859 -1.821,-7.5l3.029,-18.587l-5,-0l1.204,-6.9l5,-0l1.496,-8.659l9.204,0.013Zm13.263,43.879l-9.246,-0l6.133,-35.221l9.246,0l-6.133,35.221Zm-2.05,-44.167c-0.082,-1.356 0.444,-2.681 1.433,-3.612c0.964,-0.942 2.266,-1.458 3.613,-1.434c1.32,-0.071 2.618,0.378 3.612,1.25c1.006,0.865 1.588,2.124 1.596,3.45c0.058,1.309 -0.432,2.584 -1.35,3.517c-0.964,1.007 -2.302,1.573 -3.696,1.563c-1.314,0.058 -2.601,-0.39 -3.596,-1.25c-1.024,-0.866 -1.615,-2.142 -1.612,-3.484Zm24.641,32.554l10.025,-23.6l9.896,0l-17.025,35.213l-8.787,-0l-6.021,-35.221l9.308,0l2.604,23.608Zm34.93,12.263c-2.888,0.033 -5.727,-0.752 -8.188,-2.263c-2.35,-1.457 -4.205,-3.591 -5.321,-6.12c-1.188,-2.694 -1.659,-5.65 -1.366,-8.58l0.095,-1.3c0.294,-3.328 1.317,-6.552 2.996,-9.441c1.539,-2.729 3.76,-5.012 6.446,-6.625c2.637,-1.554 5.667,-2.317 8.725,-2.196c4.049,-0.152 7.918,1.725 10.304,5c2.421,3.626 3.37,8.041 2.654,12.342l-0.52,4.008l-21.584,-0c-0.182,1.971 0.417,3.936 1.667,5.471c1.238,1.387 3.025,2.162 4.883,2.116c3.364,0.08 6.592,-1.355 8.788,-3.904l4.2,5.209c-1.423,2.079 -3.417,3.703 -5.742,4.675c-2.527,1.122 -5.272,1.671 -8.037,1.608Zm2.916,-28.938c-1.65,-0.058 -3.262,0.513 -4.508,1.596c-1.63,1.604 -2.843,3.583 -3.533,5.763l12.629,-0l0.196,-0.834c0.13,-0.819 0.141,-1.652 0.033,-2.475c-0.154,-1.143 -0.722,-2.191 -1.596,-2.945c-0.908,-0.731 -2.043,-1.122 -3.208,-1.105l-0.013,0Zm-825.996,111.621c-0.463,-1.188 -0.744,-2.44 -0.833,-3.712c-2.578,2.815 -6.237,4.403 -10.054,4.362c-3.116,0.125 -6.168,-0.927 -8.546,-2.946c-2.176,-1.861 -3.402,-4.607 -3.333,-7.47c-0.148,-3.367 1.422,-6.589 4.166,-8.546c3.504,-2.227 7.623,-3.292 11.767,-3.042l5.888,0l-0,-2.767c0.096,-1.869 -0.588,-3.698 -1.888,-5.045c-1.528,-1.336 -3.53,-2.004 -5.554,-1.855c-1.935,-0.069 -3.841,0.504 -5.417,1.63c-1.334,0.868 -2.152,2.346 -2.179,3.937l-6.058,0c0.037,-1.859 0.696,-3.654 1.871,-5.096c1.335,-1.707 3.083,-3.046 5.079,-3.891c2.22,-0.973 4.622,-1.461 7.046,-1.434c3.445,-0.203 6.846,0.882 9.537,3.042c2.35,2.143 3.657,5.204 3.579,8.383l0,16.213c-0.099,2.629 0.326,5.253 1.25,7.716l0,0.521l-6.321,0Zm-10,-4.583c1.887,-0.004 3.739,-0.511 5.363,-1.471c1.586,-0.865 2.87,-2.194 3.679,-3.808l0,-7.221l-4.708,-0c-7.37,-0 -11.054,2.157 -11.054,6.471c-0.088,1.687 0.61,3.323 1.887,4.429c1.366,1.1 3.085,1.669 4.838,1.6l-0.005,-0Zm23.046,-13.333c-0.228,-4.654 1.126,-9.251 3.842,-13.038c2.347,-3.182 6.105,-5.025 10.058,-4.933c3.741,-0.166 7.357,1.396 9.8,4.233l0,-18.346l6.021,0l0,50l-5.529,0l-0.292,-3.775c-2.464,2.978 -6.197,4.622 -10.058,4.429c-3.942,0.071 -7.676,-1.8 -9.979,-5c-2.716,-3.806 -4.075,-8.416 -3.859,-13.087l-0.004,-0.483Zm6.021,0.683c-0.19,3.308 0.677,6.592 2.475,9.375c1.558,2.211 4.135,3.488 6.838,3.387c3.563,0.158 6.883,-1.87 8.37,-5.112l0,-16.196c-1.525,-3.161 -4.792,-5.129 -8.3,-5c-2.728,-0.108 -5.332,1.181 -6.9,3.417c-1.855,3.042 -2.72,6.587 -2.475,10.141l-0.008,-0.012Zm44.663,9.05l8.716,-27.038l6.167,0l-12.633,35.221l-4.584,0l-12.758,-35.221l6.154,0l8.938,27.038Zm35.287,8.821c-4.379,0.166 -8.627,-1.547 -11.667,-4.704c-3.105,-3.432 -4.722,-7.961 -4.491,-12.584l-0,-1.108c-0.058,-3.231 0.627,-6.433 2,-9.358c1.231,-2.627 3.171,-4.86 5.6,-6.446c2.312,-1.527 5.025,-2.337 7.796,-2.329c4.064,-0.222 8.011,1.451 10.679,4.525c2.764,3.729 4.114,8.322 3.808,12.954l0,2.5l-23.846,-0c-0.059,3.084 1.025,6.083 3.042,8.416c1.874,2.106 4.586,3.281 7.404,3.209c1.89,0.063 3.762,-0.387 5.417,-1.3c1.501,-0.89 2.817,-2.062 3.875,-3.45l3.679,2.866c-2.869,4.503 -7.961,7.116 -13.292,6.821l-0.004,-0.012Zm-0.75,-31.575c-2.327,-0.045 -4.562,0.925 -6.121,2.654c-1.778,2.097 -2.841,4.708 -3.033,7.45l17.625,-0l-0,-0.454c-0.001,-2.581 -0.873,-5.088 -2.475,-7.113c-1.512,-1.697 -3.712,-2.626 -5.983,-2.525l-0.013,-0.012Zm38.475,1.108c-0.979,-0.158 -1.97,-0.234 -2.962,-0.229c-3.494,-0.284 -6.78,1.785 -8.034,5.058l0,25l-6.021,0l0,-35.221l5.859,0l0.096,4.071c1.713,-2.997 4.948,-4.815 8.4,-4.721c0.913,-0.048 1.825,0.107 2.67,0.455l-0.008,5.587Zm35.35,12.596c0.227,4.614 -1.078,9.176 -3.712,12.971c-2.302,3.18 -6.039,5.018 -9.963,4.9c-4.001,0.206 -7.86,-1.559 -10.321,-4.721l-0.291,4.071l-5.521,-0l-0,-49.988l6.021,0l-0,18.654c2.439,-3.02 6.179,-4.703 10.058,-4.525c3.951,-0.154 7.731,1.666 10.075,4.85c2.64,3.908 3.927,8.576 3.662,13.284l-0.008,0.504Zm-6.012,-0.683c0.203,-3.337 -0.627,-6.656 -2.375,-9.505c-1.553,-2.21 -4.14,-3.471 -6.838,-3.333c-3.728,-0.152 -7.169,2.072 -8.562,5.533l-0,15.221c1.458,3.437 4.893,5.64 8.625,5.534c2.664,0.111 5.209,-1.148 6.737,-3.334c1.822,-3.044 2.665,-6.577 2.413,-10.116Zm20.15,17.916l-6.021,0l-0,-35.221l6.021,0l-0,35.221Zm-6.513,-44.583c-0.025,-0.908 0.296,-1.793 0.896,-2.475c0.692,-0.711 1.665,-1.081 2.654,-1.008c0.994,-0.071 1.971,0.298 2.671,1.008c0.61,0.677 0.937,1.564 0.912,2.475c0.028,0.902 -0.3,1.779 -0.912,2.442c-0.71,0.69 -1.683,1.045 -2.671,0.975c-0.983,0.073 -1.952,-0.283 -2.654,-0.975c-0.603,-0.667 -0.925,-1.543 -0.896,-2.442Zm14.554,26.667c-0.051,-3.218 0.645,-6.405 2.034,-9.309c1.239,-2.623 3.204,-4.838 5.662,-6.379c2.493,-1.517 5.366,-2.296 8.283,-2.246c4.429,-0.153 8.701,1.682 11.638,5c3.094,3.699 4.681,8.434 4.442,13.25l-0,0.417c0.052,3.186 -0.622,6.342 -1.971,9.229c-1.223,2.621 -3.18,4.831 -5.634,6.363c-2.531,1.544 -5.451,2.335 -8.416,2.279c-4.423,0.147 -8.688,-1.695 -11.613,-5.017c-3.078,-3.676 -4.659,-8.382 -4.425,-13.171l0,-0.416Zm6.054,0.716c-0.167,3.351 0.79,6.663 2.717,9.409c1.744,2.242 4.431,3.557 7.273,3.557c2.863,-0 5.568,-1.335 7.31,-3.607c1.967,-2.977 2.915,-6.514 2.7,-10.075c0.156,-3.349 -0.812,-6.656 -2.75,-9.392c-1.694,-2.326 -4.431,-3.673 -7.308,-3.596c-2.833,-0.069 -5.526,1.26 -7.196,3.55c-2.003,2.984 -2.969,6.546 -2.746,10.133l0,0.021Zm48.467,-0.716c-0.051,-3.218 0.645,-6.405 2.033,-9.309c1.239,-2.623 3.205,-4.838 5.663,-6.379c2.493,-1.517 5.366,-2.296 8.283,-2.246c4.429,-0.153 8.701,1.682 11.638,5c3.094,3.699 4.681,8.434 4.441,13.25l0,0.417c0.053,3.186 -0.621,6.342 -1.97,9.229c-1.223,2.621 -3.18,4.831 -5.634,6.363c-2.531,1.544 -5.451,2.335 -8.416,2.279c-4.418,0.149 -8.678,-1.687 -11.605,-5c-3.085,-3.679 -4.669,-8.392 -4.433,-13.188l0,-0.416Zm6.054,0.716c-0.167,3.351 0.789,6.663 2.717,9.409c1.744,2.242 4.431,3.557 7.272,3.557c2.864,-0 5.569,-1.335 7.311,-3.607c1.967,-2.977 2.915,-6.514 2.7,-10.075c0.156,-3.349 -0.812,-6.656 -2.75,-9.392c-1.694,-2.326 -4.431,-3.673 -7.308,-3.596c-2.833,-0.069 -5.526,1.26 -7.196,3.55c-2.002,2.984 -2.966,6.547 -2.742,10.133l-0.004,0.021Zm71.813,17.2c-0.464,-1.188 -0.744,-2.44 -0.834,-3.712c-2.575,2.813 -6.231,4.401 -10.045,4.362c-3.117,0.125 -6.169,-0.927 -8.546,-2.946c-2.176,-1.861 -3.402,-4.607 -3.334,-7.47c-0.148,-3.367 1.423,-6.589 4.167,-8.546c3.504,-2.227 7.623,-3.292 11.767,-3.042l5.858,0l0,-2.767c0.103,-1.866 -0.574,-3.695 -1.867,-5.045c-1.528,-1.345 -3.536,-2.02 -5.566,-1.871c-1.936,-0.069 -3.841,0.504 -5.417,1.629c-1.334,0.868 -2.152,2.346 -2.179,3.937l-6.042,0c0.038,-1.859 0.697,-3.653 1.871,-5.095c1.336,-1.707 3.084,-3.047 5.079,-3.892c2.221,-0.972 4.623,-1.461 7.046,-1.433c3.445,-0.204 6.846,0.881 9.538,3.041c2.35,2.143 3.657,5.204 3.579,8.384l-0,16.212c-0.1,2.63 0.325,5.253 1.25,7.717l-0,0.537l-6.325,0Zm-10,-4.583c1.889,-0.001 3.744,-0.507 5.371,-1.467c1.585,-0.864 2.869,-2.193 3.679,-3.808l-0,-7.225l-4.713,-0c-7.377,-0 -11.066,2.16 -11.066,6.479c-0.088,1.687 0.61,3.324 1.887,4.429c1.37,1.1 3.095,1.666 4.85,1.592l-0.008,-0Zm23.046,-13.333c-0.229,-4.654 1.126,-9.251 3.841,-13.038c2.479,-3.115 6.248,-4.933 10.229,-4.933c3.659,0 7.155,1.537 9.63,4.233l-0,-18.346l6.02,0l0,50l-5.529,0l-0.291,-3.775c-2.465,2.978 -6.198,4.622 -10.059,4.429c-3.941,0.071 -7.676,-1.8 -9.979,-5c-2.716,-3.806 -4.075,-8.416 -3.858,-13.087l-0.004,-0.483Zm6.02,0.683c-0.19,3.308 0.677,6.592 2.475,9.375c1.558,2.211 4.135,3.488 6.838,3.387c3.563,0.157 6.883,-1.871 8.371,-5.112l-0,-16.196c-1.526,-3.161 -4.793,-5.129 -8.3,-5c-2.729,-0.108 -5.332,1.181 -6.9,3.417c-1.856,3.042 -2.721,6.587 -2.475,10.141l-0.009,-0.012Zm39.259,-18l-0,39.292c-0,6.772 -3.071,10.158 -9.213,10.158c-1.25,0.011 -2.493,-0.186 -3.679,-0.583l0,-4.78c0.898,0.196 1.815,0.284 2.733,0.263c1.132,0.078 2.247,-0.317 3.075,-1.092c0.817,-1.087 1.195,-2.443 1.059,-3.796l-0,-39.45l6.025,-0.012Zm-6.634,-9.35c-0.019,-0.902 0.301,-1.78 0.896,-2.458c0.676,-0.717 1.639,-1.093 2.621,-1.025c0.994,-0.071 1.971,0.298 2.671,1.008c0.61,0.677 0.937,1.564 0.912,2.475c0.028,0.902 -0.3,1.779 -0.912,2.442c-0.71,0.69 -1.683,1.045 -2.671,0.975c-0.979,0.075 -1.943,-0.282 -2.637,-0.975c-0.594,-0.672 -0.909,-1.546 -0.88,-2.442Zm30.959,45.217c-4.379,0.165 -8.627,-1.547 -11.667,-4.705c-3.105,-3.431 -4.722,-7.961 -4.492,-12.583l0,-1.108c-0.057,-3.231 0.627,-6.433 2,-9.359c1.232,-2.626 3.172,-4.859 5.6,-6.445c2.313,-1.527 5.025,-2.338 7.796,-2.33c4.065,-0.221 8.011,1.451 10.679,4.525c2.765,3.73 4.115,8.323 3.809,12.955l-0,2.5l-23.863,-0c-0.059,3.084 1.025,6.083 3.042,8.416c1.874,2.106 4.586,3.281 7.404,3.209c1.89,0.063 3.762,-0.387 5.417,-1.3c1.501,-0.891 2.817,-2.062 3.875,-3.45l3.679,2.866c-2.866,4.5 -7.952,7.115 -13.279,6.825l-0,-0.016Zm-0.75,-31.575c-2.327,-0.045 -4.563,0.925 -6.121,2.654c-1.788,2.095 -2.86,4.707 -3.058,7.454l17.65,-0l-0,-0.454c-0.001,-2.581 -0.874,-5.088 -2.475,-7.113c-1.515,-1.701 -3.721,-2.63 -5.996,-2.525l-0,-0.016Zm29.625,-12.809l-0,8.529l6.575,0l-0,4.655l-6.575,-0l-0,21.87c-0.084,1.13 0.227,2.254 0.879,3.18c0.788,0.785 1.89,1.174 2.996,1.058c0.966,-0.035 1.926,-0.166 2.866,-0.392l0,4.85c-1.504,0.42 -3.058,0.637 -4.62,0.646c-2.295,0.164 -4.542,-0.738 -6.088,-2.442c-1.483,-1.994 -2.21,-4.452 -2.05,-6.933l0,-21.837l-6.412,-0l-0,-4.655l6.412,0l0,-8.529l6.017,0Zm20.15,43.75l-6.021,0l-0,-35.221l6.021,0l-0,35.221Zm-6.513,-44.583c-0.025,-0.908 0.296,-1.793 0.896,-2.475c0.692,-0.711 1.665,-1.081 2.654,-1.008c0.995,-0.071 1.971,0.298 2.671,1.008c0.61,0.677 0.937,1.564 0.913,2.475c0.027,0.902 -0.301,1.779 -0.913,2.442c-0.71,0.69 -1.683,1.045 -2.671,0.975c-0.983,0.073 -1.951,-0.283 -2.654,-0.975c-0.603,-0.667 -0.924,-1.543 -0.896,-2.442Zm27.767,36.392l8.725,-27.05l6.154,-0l-12.633,35.241l-4.584,0l-12.758,-35.221l6.154,0l8.942,27.03Zm18.587,-9.767c-0.051,-3.218 0.645,-6.405 2.034,-9.308c1.239,-2.624 3.204,-4.838 5.662,-6.38c2.493,-1.517 5.366,-2.296 8.284,-2.245c4.428,-0.154 8.7,1.682 11.637,5c3.094,3.699 4.681,8.433 4.442,13.25l-0,0.416c0.052,3.186 -0.622,6.343 -1.971,9.229c-1.223,2.621 -3.18,4.832 -5.633,6.363c-2.532,1.544 -5.452,2.335 -8.417,2.279c-4.418,0.149 -8.678,-1.687 -11.604,-5c-3.088,-3.677 -4.675,-8.388 -4.442,-13.183l0.008,-0.421Zm6.055,0.717c-0.168,3.35 0.789,6.662 2.716,9.408c1.744,2.243 4.432,3.557 7.273,3.557c2.863,0 5.569,-1.335 7.311,-3.607c1.967,-2.977 2.915,-6.513 2.7,-10.075c0.155,-3.349 -0.813,-6.656 -2.75,-9.392c-1.695,-2.326 -4.432,-3.673 -7.309,-3.596c-2.833,-0.068 -5.526,1.26 -7.196,3.55c-2.012,2.996 -2.978,6.574 -2.745,10.175l-0,-0.02Zm64.191,12.954c2.05,0.035 4.046,-0.658 5.634,-1.954c1.538,-1.178 2.509,-2.953 2.67,-4.884l5.696,0c-0.13,2.08 -0.853,4.08 -2.083,5.763c-1.32,1.857 -3.081,3.356 -5.125,4.362c-2.1,1.077 -4.428,1.636 -6.788,1.629c-4.338,0.197 -8.543,-1.565 -11.445,-4.795c-3.002,-3.695 -4.518,-8.381 -4.25,-13.134l-0,-1.008c-0.062,-3.158 0.583,-6.29 1.887,-9.167c1.16,-2.556 3.043,-4.717 5.417,-6.216c2.51,-1.515 5.402,-2.283 8.333,-2.213c3.614,-0.121 7.141,1.151 9.846,3.55c2.605,2.359 4.115,5.699 4.167,9.213l-5.696,-0c-0.107,-2.135 -1.034,-4.148 -2.588,-5.617c-1.548,-1.463 -3.616,-2.253 -5.746,-2.196c-2.767,-0.135 -5.431,1.102 -7.112,3.304c-1.859,2.825 -2.744,6.181 -2.521,9.554l0,1.138c-0.212,3.314 0.666,6.607 2.5,9.375c1.701,2.23 4.404,3.476 7.204,3.321l0,-0.025Zm42.517,4.287c-0.463,-1.188 -0.744,-2.44 -0.833,-3.712c-2.571,2.808 -6.218,4.395 -10.025,4.362c-3.117,0.125 -6.169,-0.927 -8.546,-2.946c-2.177,-1.861 -3.402,-4.607 -3.334,-7.47c-0.148,-3.367 1.423,-6.589 4.167,-8.546c3.504,-2.227 7.623,-3.292 11.767,-3.042l5.858,0l0,-2.767c0.097,-1.869 -0.587,-3.698 -1.887,-5.045c-1.529,-1.345 -3.536,-2.02 -5.567,-1.871c-1.935,-0.07 -3.841,0.503 -5.417,1.629c-1.334,0.868 -2.152,2.346 -2.179,3.937l-6.054,0c0.037,-1.859 0.696,-3.653 1.871,-5.095c1.335,-1.707 3.083,-3.047 5.079,-3.892c2.22,-0.972 4.622,-1.461 7.046,-1.433c3.445,-0.204 6.846,0.881 9.537,3.041c2.351,2.143 3.658,5.204 3.579,8.384l0,16.212c-0.099,2.63 0.326,5.253 1.25,7.717l0,0.537l-6.312,0Zm-10,-4.583c1.889,-0.001 3.744,-0.507 5.371,-1.467c1.585,-0.864 2.869,-2.193 3.679,-3.808l-0,-7.225l-4.721,-0c-7.378,-0 -11.067,2.16 -11.067,6.479c-0.087,1.687 0.611,3.324 1.888,4.429c1.371,1.101 3.097,1.667 4.854,1.592l-0.004,-0Zm31.054,4.583l-6.021,0l0,-50l6.021,0l0,50Zm16.179,0l-6.016,0l-0,-35.221l6.02,0l-0.004,35.221Zm-6.504,-44.583c-0.025,-0.908 0.296,-1.793 0.896,-2.475c0.692,-0.711 1.665,-1.081 2.654,-1.008c0.994,-0.071 1.971,0.298 2.671,1.008c0.61,0.677 0.937,1.564 0.912,2.475c0.028,0.902 -0.3,1.779 -0.912,2.442c-0.71,0.69 -1.683,1.045 -2.671,0.975c-0.983,0.073 -1.952,-0.283 -2.654,-0.975c-0.603,-0.667 -0.925,-1.543 -0.896,-2.442Zm18.163,44.583l-0,-30.566l-5.567,-0l-0,-4.655l5.567,0l-0,-2.995c-0.197,-3.39 1.024,-6.713 3.37,-9.167c2.606,-2.323 6.037,-3.508 9.521,-3.288c3.16,0.15 6.273,0.822 9.213,1.988l-1.009,5.079c-2.454,-1.032 -5.083,-1.585 -7.745,-1.629c-2.019,-0.19 -4.031,0.438 -5.584,1.742c-1.239,1.445 -1.854,3.326 -1.708,5.225l-0,3.058l7.196,-0l-0,4.654l-7.196,0l-0,30.554l-6.058,0Zm25.095,0l-6.054,0l0,-35.221l6.075,0l-0.021,35.221Zm23.925,-4.262c2.05,0.035 4.046,-0.658 5.634,-1.954c1.538,-1.178 2.509,-2.953 2.671,-4.884l5.708,0c-0.13,2.08 -0.853,4.08 -2.083,5.763c-1.32,1.857 -3.081,3.356 -5.125,4.362c-2.1,1.077 -4.428,1.636 -6.788,1.629c-4.346,0.194 -8.557,-1.578 -11.458,-4.82c-3.002,-3.695 -4.518,-8.381 -4.25,-13.134l-0,-1.008c-0.062,-3.158 0.583,-6.29 1.887,-9.167c1.16,-2.556 3.044,-4.717 5.417,-6.216c2.511,-1.515 5.402,-2.283 8.333,-2.213c3.615,-0.121 7.141,1.151 9.846,3.55c2.605,2.359 4.115,5.699 4.167,9.213l-5.654,-0c-0.107,-2.135 -1.035,-4.148 -2.588,-5.617c-1.548,-1.463 -3.616,-2.253 -5.746,-2.196c-2.767,-0.135 -5.431,1.102 -7.112,3.304c-1.859,2.825 -2.744,6.181 -2.521,9.554l-0,1.138c-0.213,3.314 0.666,6.607 2.5,9.375c1.693,2.219 4.379,3.463 7.167,3.321l-0.005,-0Zm42.517,4.262c-0.463,-1.188 -0.744,-2.44 -0.833,-3.712c-2.571,2.808 -6.218,4.395 -10.025,4.362c-3.117,0.125 -6.169,-0.927 -8.546,-2.946c-2.177,-1.861 -3.402,-4.607 -3.333,-7.47c-0.149,-3.367 1.422,-6.589 4.166,-8.546c3.504,-2.227 7.623,-3.292 11.767,-3.042l5.858,0l0,-2.767c0.097,-1.869 -0.587,-3.698 -1.887,-5.045c-1.529,-1.345 -3.536,-2.02 -5.567,-1.871c-1.935,-0.07 -3.84,0.503 -5.417,1.629c-1.334,0.868 -2.151,2.346 -2.179,3.937l-6.054,0c0.038,-1.859 0.696,-3.653 1.871,-5.095c1.335,-1.707 3.084,-3.047 5.079,-3.892c2.22,-0.972 4.622,-1.461 7.046,-1.433c3.445,-0.204 6.846,0.881 9.537,3.041c2.351,2.143 3.658,5.204 3.58,8.384l-0,16.212c-0.1,2.63 0.325,5.253 1.25,7.717l-0,0.537l-6.313,0Zm-10,-4.583c1.889,-0.001 3.744,-0.507 5.371,-1.467c1.586,-0.864 2.87,-2.193 3.679,-3.808l0,-7.225l-4.721,-0c-7.377,-0 -11.066,2.16 -11.066,6.479c-0.088,1.687 0.61,3.324 1.887,4.429c1.372,1.101 3.097,1.667 4.854,1.592l-0.004,-0Zm32.683,-39.167l0,8.529l6.575,0l0,4.655l-6.575,-0l0,21.87c-0.084,1.13 0.227,2.254 0.88,3.18c0.788,0.785 1.889,1.174 2.995,1.058c0.967,-0.035 1.927,-0.166 2.867,-0.392l0,4.85c-1.505,0.42 -3.059,0.637 -4.621,0.646c-2.294,0.164 -4.541,-0.738 -6.087,-2.442c-1.483,-1.994 -2.21,-4.452 -2.05,-6.933l-0,-21.837l-6.421,-0l-0,-4.655l6.412,0l0,-8.529l6.025,0Zm20.155,43.75l-6.021,0l-0,-35.221l6.021,0l-0,35.221Zm-6.513,-44.583c-0.025,-0.908 0.296,-1.793 0.896,-2.475c0.692,-0.711 1.665,-1.081 2.654,-1.008c0.994,-0.071 1.971,0.298 2.671,1.008c0.61,0.677 0.937,1.564 0.912,2.475c0.028,0.902 -0.3,1.779 -0.912,2.442c-0.71,0.69 -1.683,1.045 -2.671,0.975c-0.983,0.073 -1.952,-0.283 -2.654,-0.975c-0.603,-0.667 -0.925,-1.543 -0.896,-2.442Zm27.767,36.392l8.725,-27.05l6.154,-0l-12.629,35.241l-4.584,0l-12.762,-35.221l6.154,0l8.942,27.03Zm18.587,-9.767c-0.051,-3.218 0.645,-6.405 2.034,-9.308c1.238,-2.624 3.204,-4.838 5.662,-6.38c2.493,-1.517 5.366,-2.296 8.283,-2.245c4.429,-0.154 8.701,1.682 11.638,5c3.094,3.699 4.681,8.433 4.442,13.25l-0,0.416c0.052,3.186 -0.622,6.343 -1.971,9.229c-1.223,2.621 -3.18,4.832 -5.634,6.363c-2.531,1.544 -5.451,2.335 -8.416,2.279c-4.418,0.149 -8.678,-1.687 -11.604,-5c-3.088,-3.677 -4.675,-8.388 -4.442,-13.183l0.008,-0.421Zm6.054,0.717c-0.167,3.35 0.79,6.662 2.717,9.408c1.744,2.243 4.431,3.557 7.273,3.557c2.863,0 5.568,-1.335 7.31,-3.607c1.968,-2.977 2.915,-6.513 2.7,-10.075c0.156,-3.349 -0.812,-6.656 -2.75,-9.392c-1.694,-2.326 -4.431,-3.673 -7.308,-3.596c-2.833,-0.068 -5.526,1.26 -7.196,3.55c-2.011,2.996 -2.975,6.575 -2.741,10.175l-0.005,-0.02Z" style="fill:#12263f;fill-rule:nonzero;"/><path id="Trazado_129313" d="M3752.83,105.6c1.541,0.1 3.064,-0.395 4.25,-1.383c1.149,-1.002 1.929,-2.361 2.213,-3.859l8.625,-0.033c-0.128,2.398 -0.936,4.711 -2.329,6.667c-1.435,2.006 -3.37,3.602 -5.613,4.629c-2.299,1.1 -4.827,1.635 -7.375,1.562c-3.874,0.109 -7.6,-1.518 -10.154,-4.433c-2.615,-3.247 -3.906,-7.366 -3.613,-11.525l0.096,-1.792l0.034,-0.358c0.301,-5.073 2.349,-9.889 5.795,-13.625c3.149,-3.3 7.587,-5.067 12.142,-4.833c3.557,-0.087 6.992,1.327 9.458,3.891c2.406,2.72 3.64,6.284 3.43,9.909l-8.542,-0c0.085,-1.583 -0.355,-3.151 -1.25,-4.459c-0.902,-1.123 -2.272,-1.772 -3.713,-1.758c-4.383,-0.131 -7.041,3.064 -7.975,9.583c-0.304,1.982 -0.424,3.988 -0.358,5.992c0.214,3.817 1.84,5.758 4.879,5.825Zm38.75,-28.971c2.855,-0.032 5.654,0.802 8.025,2.392c2.275,1.571 4.013,3.804 4.975,6.396c1.075,2.893 1.461,5.998 1.125,9.066c-0.269,5.078 -2.338,9.898 -5.833,13.592c-3.276,3.422 -7.871,5.272 -12.604,5.075c-2.824,0.028 -5.591,-0.794 -7.942,-2.358c-2.261,-1.564 -3.988,-3.786 -4.946,-6.363c-1.082,-2.863 -1.472,-5.941 -1.137,-8.983c0.284,-5.174 2.381,-10.086 5.921,-13.871c3.233,-3.366 7.771,-5.171 12.433,-4.946l-0.017,0Zm-9.279,22.146c-0.057,1.757 0.458,3.485 1.467,4.925c0.943,1.209 2.404,1.903 3.937,1.871c2.788,0.115 5.398,-1.415 6.659,-3.904c1.732,-3.232 2.51,-6.89 2.245,-10.546c0.011,-1.781 -0.516,-3.524 -1.512,-5c-0.925,-1.247 -2.402,-1.969 -3.954,-1.934c-2.74,-0.082 -5.296,1.418 -6.558,3.85c-1.785,3.282 -2.571,7.015 -2.263,10.738l-0.021,-0Zm40.659,-21.529l-0.75,4.004c2.55,-3.036 6.357,-4.741 10.32,-4.621c1.912,-0.034 3.794,0.485 5.417,1.496c1.403,0.902 2.438,2.277 2.917,3.875c2.586,-3.413 6.642,-5.407 10.925,-5.371c2.826,-0.12 5.546,1.12 7.308,3.333c1.793,2.75 2.533,6.057 2.083,9.309l-0.066,0.833l-3.759,22.396l-9.212,-0l3.75,-22.5c0.084,-0.747 0.116,-1.499 0.096,-2.25c-0,-0.019 0,-0.039 0,-0.058c0,-1.914 -1.574,-3.488 -3.487,-3.488c-0.14,0 -0.279,0.008 -0.418,0.025c-2.716,0.116 -5.18,1.653 -6.479,4.042l-0.095,0.75l-4.109,23.479l-9.167,-0l3.75,-22.429c0.084,-0.746 0.116,-1.496 0.096,-2.246c0.001,-0.03 0.001,-0.059 0.001,-0.089c0,-1.911 -1.572,-3.483 -3.483,-3.483c-0.131,-0 -0.262,0.007 -0.393,0.022c-2.499,0.022 -4.84,1.247 -6.283,3.287l-4.425,24.938l-9.167,-0l6.088,-35.221l8.541,-0.033Zm75.509,17.754c-0.383,3.423 -1.37,6.751 -2.917,9.829c-1.225,2.576 -3.119,4.776 -5.483,6.371c-2.174,1.384 -4.717,2.078 -7.292,1.987c-3.132,0.042 -6.113,-1.367 -8.071,-3.812l-3.221,16.667l-9.166,-0l8.429,-48.75l8.462,-0.034l-0.616,3.55c2.188,-2.701 5.508,-4.241 8.983,-4.166c3.117,-0.073 6.094,1.316 8.042,3.75c2.049,2.866 3.118,6.319 3.046,9.841c0.034,1.592 -0.031,3.184 -0.196,4.767Zm-9.113,-0.667l0.196,-3.129c0.133,-1.757 -0.271,-3.514 -1.158,-5.037c-0.774,-1.213 -2.124,-1.943 -3.563,-1.925c-2.641,-0.101 -5.15,1.187 -6.608,3.391l-2.638,14.542c0.761,2.166 2.885,3.571 5.175,3.425c2.152,0.093 4.219,-0.869 5.534,-2.575c1.774,-2.58 2.83,-5.586 3.058,-8.708l0.004,0.016Zm21.709,18.167l-9.242,-0l8.692,-50l9.208,-0l-8.658,50Zm24.512,0.65c-2.887,0.033 -5.726,-0.752 -8.187,-2.263c-2.345,-1.457 -4.195,-3.59 -5.309,-6.116c-1.192,-2.693 -1.668,-5.649 -1.379,-8.579l0.096,-1.3c0.294,-3.329 1.317,-6.553 2.996,-9.442c1.538,-2.729 3.76,-5.012 6.446,-6.625c2.637,-1.554 5.666,-2.317 8.725,-2.196c4.049,-0.152 7.918,1.725 10.304,5c2.42,3.626 3.37,8.042 2.654,12.342l-0.521,4.008l-21.587,0c-0.183,1.971 0.416,3.937 1.666,5.471c1.238,1.387 3.025,2.162 4.884,2.117c3.361,0.078 6.587,-1.354 8.783,-3.9l4.2,5.208c-1.421,2.074 -3.41,3.695 -5.729,4.667c-2.529,1.123 -5.276,1.672 -8.042,1.608Zm2.917,-28.938c-1.65,-0.058 -3.262,0.513 -4.509,1.596c-1.63,1.604 -2.843,3.583 -3.533,5.763l12.646,-0l0.196,-0.834c0.132,-0.822 0.145,-1.66 0.037,-2.487c-0.154,-1.144 -0.722,-2.192 -1.596,-2.946c-0.915,-0.731 -2.058,-1.117 -3.229,-1.092l-0.012,0Zm30.275,-6.966l-0.75,4.004c2.548,-3.034 6.352,-4.738 10.312,-4.621c1.912,-0.034 3.794,0.485 5.417,1.496c1.403,0.902 2.438,2.277 2.917,3.875c2.589,-3.417 6.65,-5.411 10.937,-5.371c2.827,-0.12 5.547,1.12 7.308,3.333c1.793,2.75 2.533,6.057 2.084,9.309l-0.067,0.833l-3.771,22.396l-9.212,-0l3.75,-22.5c0.084,-0.747 0.116,-1.499 0.096,-2.25c-0,-0.019 0,-0.039 0,-0.058c0,-1.914 -1.574,-3.488 -3.487,-3.488c-0.14,0 -0.279,0.008 -0.418,0.025c-2.716,0.116 -5.18,1.653 -6.479,4.042l-0.096,0.75l-4.108,23.479l-9.166,-0l3.75,-22.429c0.083,-0.746 0.115,-1.496 0.095,-2.246c0.001,-0.03 0.001,-0.059 0.001,-0.089c0,-1.911 -1.572,-3.483 -3.483,-3.483c-0.131,-0 -0.262,0.007 -0.393,0.022c-2.499,0.022 -4.84,1.247 -6.283,3.287l-4.392,24.938l-9.166,-0l6.054,-35.221l8.55,-0.033Zm58.408,35.904c-2.887,0.033 -5.726,-0.752 -8.187,-2.263c-2.35,-1.457 -4.205,-3.591 -5.321,-6.12c-1.189,-2.694 -1.659,-5.65 -1.367,-8.58l0.096,-1.3c0.301,-3.328 1.331,-6.551 3.017,-9.437c1.538,-2.729 3.76,-5.012 6.446,-6.625c2.636,-1.554 5.666,-2.317 8.725,-2.196c4.049,-0.152 7.918,1.725 10.304,5c2.42,3.626 3.37,8.042 2.654,12.342l-0.521,4.008l-21.583,0c-0.183,1.971 0.416,3.937 1.666,5.471c1.238,1.387 3.025,2.162 4.884,2.117c3.353,0.071 6.568,-1.361 8.758,-3.9l4.2,5.208c-1.421,2.074 -3.41,3.695 -5.729,4.667c-2.529,1.123 -5.276,1.672 -8.042,1.608Zm2.917,-28.938c-1.65,-0.058 -3.262,0.513 -4.508,1.596c-1.62,1.607 -2.823,3.585 -3.505,5.763l12.63,-0l0.195,-0.834c0.13,-0.819 0.142,-1.652 0.034,-2.475c-0.155,-1.149 -0.728,-2.203 -1.609,-2.958c-0.913,-0.729 -2.053,-1.115 -3.22,-1.092l-0.017,0Zm30.141,-6.966l-0.779,4.166c2.476,-3.113 6.278,-4.887 10.254,-4.783c2.915,-0.138 5.703,1.243 7.359,3.646c1.704,2.974 2.314,6.453 1.725,9.829l-3.7,22.396l-9.167,-0l3.775,-22.5c0.107,-0.766 0.13,-1.542 0.067,-2.313c-0.16,-1.934 -1.796,-3.441 -3.737,-3.441c-0.144,0 -0.287,0.008 -0.43,0.025c-2.571,-0.008 -4.991,1.237 -6.479,3.333l-4.404,24.896l-9.167,-0l6.113,-35.221l8.57,-0.033Zm40.659,-8.625l-1.529,8.658l5.858,0l-1.188,6.888l-5.858,-0l-2.996,17.641c-0.159,0.854 -0.068,1.735 0.263,2.538c0.303,0.586 1.04,0.901 2.212,0.946c0.348,0.022 1.281,-0.032 2.8,-0.163l-0.654,7.208c-1.701,0.554 -3.486,0.808 -5.275,0.75c-2.562,0.153 -5.054,-0.895 -6.737,-2.833c-1.562,-2.166 -2.216,-4.859 -1.821,-7.5l3.025,-18.587l-5,-0l1.204,-6.9l5,-0l1.496,-8.659l9.2,0.013Zm-366.342,122.95c2.049,0.035 4.046,-0.658 5.633,-1.954c1.539,-1.178 2.51,-2.953 2.671,-4.884l5.696,0c-0.13,2.08 -0.853,4.08 -2.083,5.763c-1.32,1.857 -3.081,3.356 -5.125,4.362c-2.1,1.077 -4.428,1.636 -6.788,1.629c-4.342,0.19 -8.547,-1.581 -11.445,-4.82c-3.002,-3.695 -4.518,-8.381 -4.25,-13.134l-0,-1.008c-0.062,-3.158 0.583,-6.29 1.887,-9.167c1.16,-2.556 3.043,-4.717 5.417,-6.216c2.51,-1.515 5.402,-2.283 8.333,-2.213c3.614,-0.121 7.14,1.151 9.846,3.55c2.605,2.359 4.115,5.699 4.167,9.213l-5.696,-0c-0.107,-2.135 -1.035,-4.148 -2.588,-5.617c-1.548,-1.463 -3.616,-2.253 -5.746,-2.196c-2.767,-0.135 -5.431,1.102 -7.112,3.304c-1.859,2.825 -2.744,6.181 -2.521,9.554l0,1.138c-0.213,3.314 0.666,6.607 2.5,9.375c1.701,2.23 4.403,3.476 7.204,3.321Zm19.167,-13.671c-0.052,-3.218 0.645,-6.405 2.033,-9.308c1.239,-2.624 3.204,-4.838 5.663,-6.38c2.492,-1.517 5.365,-2.296 8.283,-2.245c4.428,-0.154 8.701,1.682 11.638,5c3.094,3.699 4.681,8.433 4.441,13.25l0,0.416c0.053,3.186 -0.622,6.343 -1.971,9.229c-1.223,2.621 -3.18,4.832 -5.633,6.363c-2.532,1.544 -5.452,2.335 -8.417,2.279c-4.417,0.149 -8.678,-1.687 -11.604,-5c-3.078,-3.676 -4.659,-8.382 -4.425,-13.171l-0.008,-0.433Zm6.054,0.717c-0.164,3.35 0.795,6.66 2.725,9.404c1.692,2.306 4.416,3.635 7.275,3.55c2.875,0.09 5.613,-1.26 7.292,-3.596c1.966,-2.977 2.914,-6.514 2.7,-10.075c0.155,-3.349 -0.813,-6.656 -2.75,-9.392c-1.695,-2.326 -4.432,-3.673 -7.309,-3.596c-2.836,-0.073 -5.535,1.254 -7.208,3.546c-1.998,2.993 -2.953,6.564 -2.717,10.154l-0.008,0.005Zm39.225,-18l0.163,3.908c2.594,-3.044 6.453,-4.727 10.45,-4.558c4.199,-0.411 8.231,1.859 10.058,5.662c1.187,-1.705 2.757,-3.109 4.583,-4.1c2.051,-1.085 4.347,-1.623 6.667,-1.562c7.725,-0 11.653,4.09 11.783,12.27l0,23.596l-6.037,0l-0,-23.241c0.157,-2.032 -0.46,-4.049 -1.725,-5.646c-1.58,-1.4 -3.674,-2.08 -5.775,-1.875c-2.043,-0.071 -4.036,0.645 -5.567,2c-1.509,1.404 -2.429,3.331 -2.571,5.387l0,23.375l-6.071,0l0,-23.079c0.052,-0.336 0.078,-0.677 0.078,-1.017c-0,-3.687 -3.034,-6.721 -6.721,-6.721c-0.286,0 -0.573,0.018 -0.857,0.055c-3.504,-0.271 -6.8,1.781 -8.104,5.046l0,25.716l-6.021,0l0,-35.221l5.667,0.005Zm82.5,18c0.222,4.603 -1.071,9.154 -3.679,12.954c-2.29,3.196 -6.033,5.043 -9.963,4.916c-3.797,0.196 -7.493,-1.295 -10.091,-4.07l-0,16.958l-6.021,-0l-0,-48.75l5.5,-0l0.292,3.908c2.487,-3.055 6.286,-4.749 10.22,-4.558c3.925,-0.145 7.682,1.644 10.042,4.783c2.679,3.91 3.98,8.603 3.696,13.334l0.004,0.525Zm-6.021,-0.684c0.183,-3.326 -0.706,-6.625 -2.537,-9.408c-1.591,-2.248 -4.214,-3.548 -6.967,-3.45c-3.44,-0.118 -6.65,1.779 -8.204,4.85l-0,16.825c1.576,3.076 4.813,4.962 8.267,4.817c2.721,0.079 5.309,-1.211 6.883,-3.434c1.922,-3.045 2.827,-6.624 2.583,-10.216l-0.025,0.016Zm20.242,17.9l-6.025,0l-0,-50l6.021,0l0.004,50Zm24.25,0.65c-4.369,0.158 -8.605,-1.555 -11.638,-4.704c-3.105,-3.431 -4.722,-7.961 -4.491,-12.583l-0,-1.109c-0.057,-3.223 0.624,-6.417 1.991,-9.337c1.232,-2.627 3.171,-4.859 5.6,-6.446c2.313,-1.527 5.025,-2.337 7.796,-2.329c4.065,-0.221 8.011,1.451 10.679,4.525c2.765,3.729 4.115,8.322 3.809,12.954l-0,2.5l-23.871,0c-0.06,3.084 1.024,6.083 3.042,8.417c1.874,2.106 4.585,3.281 7.404,3.208c1.889,0.063 3.761,-0.386 5.416,-1.3c1.502,-0.89 2.817,-2.062 3.875,-3.45l3.68,2.867c-2.878,4.49 -7.968,7.089 -13.292,6.787Zm-0.75,-31.575c-2.327,-0.044 -4.563,0.925 -6.121,2.654c-1.785,2.091 -2.856,4.697 -3.058,7.438l17.646,-0l-0,-0.454c-0.002,-2.581 -0.874,-5.088 -2.475,-7.113c-1.515,-1.7 -3.718,-2.628 -5.992,-2.525Zm27.117,-4.296l0.162,3.909c2.595,-3.044 6.454,-4.728 10.45,-4.559c4.199,-0.41 8.231,1.86 10.058,5.663c1.188,-1.705 2.757,-3.109 4.584,-4.1c2.051,-1.085 4.347,-1.623 6.666,-1.563c7.725,0 11.653,4.091 11.784,12.271l-0,23.6l-6.042,0l0,-23.241c0.157,-2.032 -0.46,-4.049 -1.725,-5.646c-1.586,-1.404 -3.688,-2.083 -5.796,-1.871c-2.042,-0.071 -4.036,0.646 -5.566,2c-1.51,1.404 -2.429,3.331 -2.571,5.387l-0,23.371l-6.054,0l-0,-23.079c0.051,-0.336 0.077,-0.677 0.077,-1.017c-0,-3.687 -3.034,-6.721 -6.721,-6.721c-0.286,0 -0.572,0.018 -0.856,0.055c-3.511,-0.278 -6.816,1.775 -8.121,5.046l-0,25.716l-6.025,0l-0,-35.221l5.696,0Zm67.383,35.871c-4.379,0.166 -8.627,-1.547 -11.667,-4.704c-3.105,-3.431 -4.722,-7.961 -4.491,-12.583l-0,-1.109c-0.048,-3.225 0.643,-6.42 2.02,-9.337c1.232,-2.627 3.171,-4.859 5.6,-6.446c2.313,-1.527 5.025,-2.337 7.796,-2.329c4.065,-0.221 8.011,1.451 10.679,4.525c2.765,3.729 4.115,8.322 3.809,12.954l-0,2.5l-23.871,0c-0.06,3.084 1.024,6.083 3.042,8.417c1.874,2.106 4.585,3.281 7.404,3.208c1.889,0.063 3.761,-0.386 5.416,-1.3c1.502,-0.89 2.817,-2.062 3.875,-3.45l3.68,2.867c-2.878,4.49 -7.968,7.089 -13.292,6.787Zm-0.75,-31.575c-2.327,-0.044 -4.563,0.925 -6.121,2.654c-1.785,2.091 -2.856,4.697 -3.058,7.438l17.641,-0l0,-0.454c-0.001,-2.581 -0.873,-5.088 -2.475,-7.113c-1.513,-1.699 -3.714,-2.627 -5.987,-2.525Zm27.15,-4.296l0.196,4.43c2.491,-3.289 6.421,-5.181 10.546,-5.08c7.444,0 11.194,4.199 11.25,12.596l-0,23.275l-6.009,0l0,-23.308c0.147,-2.029 -0.475,-4.041 -1.741,-5.633c-1.44,-1.326 -3.372,-1.987 -5.321,-1.821c-1.836,-0.036 -3.636,0.512 -5.142,1.562c-1.482,1.049 -2.67,2.461 -3.45,4.1l0,25.1l-6.025,0l0,-35.221l5.696,0Zm39.258,-8.529l0,8.529l6.575,0l0,4.655l-6.575,-0l0,21.87c-0.084,1.13 0.227,2.254 0.879,3.18c0.788,0.785 1.89,1.174 2.996,1.058c0.966,-0.035 1.927,-0.166 2.867,-0.392l-0,4.85c-1.505,0.42 -3.059,0.637 -4.621,0.646c-2.293,0.163 -4.538,-0.736 -6.083,-2.437c-1.484,-1.995 -2.21,-4.453 -2.05,-6.934l-0,-21.841l-6.425,-0l-0,-4.655l6.412,0l0,-8.529l6.025,0Zm11.363,25.834c-0.052,-3.218 0.644,-6.405 2.033,-9.309c1.239,-2.623 3.204,-4.838 5.663,-6.379c2.492,-1.517 5.365,-2.296 8.283,-2.246c4.428,-0.153 8.701,1.682 11.637,5c3.095,3.699 4.682,8.434 4.442,13.25l0,0.417c0.048,3.173 -0.625,6.316 -1.967,9.192c-1.223,2.62 -3.18,4.831 -5.633,6.362c-2.532,1.545 -5.452,2.335 -8.417,2.279c-4.417,0.149 -8.678,-1.687 -11.604,-5c-3.079,-3.668 -4.666,-8.365 -4.441,-13.15l0.004,-0.416Zm6.054,0.716c-0.167,3.351 0.789,6.663 2.717,9.409c1.744,2.242 4.431,3.557 7.272,3.557c2.863,-0 5.569,-1.335 7.311,-3.607c1.967,-2.977 2.914,-6.514 2.7,-10.075c0.156,-3.349 -0.813,-6.656 -2.75,-9.392c-1.694,-2.326 -4.432,-3.673 -7.308,-3.596c-2.834,-0.069 -5.527,1.26 -7.196,3.55c-2.006,2.983 -2.972,6.546 -2.75,10.133l0.004,0.021Z" style="fill:#12263f;fill-rule:nonzero;"/><path id="Trazado_129307" d="M1788.54,118.913l-0.75,4.004c2.55,-3.037 6.357,-4.741 10.321,-4.621c1.911,-0.034 3.793,0.485 5.416,1.496c1.403,0.902 2.438,2.277 2.917,3.875c2.582,-3.408 6.629,-5.401 10.904,-5.371c2.827,-0.121 5.546,1.12 7.308,3.333c1.793,2.75 2.533,6.057 2.084,9.308l-0.067,0.834l-3.758,22.396l-9.213,-0l3.75,-22.5c0.084,-0.747 0.116,-1.499 0.096,-2.25c0,-0.02 0,-0.039 0,-0.059c0,-1.913 -1.574,-3.487 -3.487,-3.487c-0.139,-0 -0.279,0.008 -0.417,0.025c-2.717,0.116 -5.181,1.653 -6.479,4.041l-0.096,0.75l-4.108,23.48l-9.167,-0l3.75,-22.43c0.084,-0.745 0.116,-1.495 0.096,-2.245c0,-0.03 0.001,-0.06 0.001,-0.089c-0,-1.911 -1.573,-3.484 -3.484,-3.484c-0.131,0 -0.262,0.008 -0.392,0.023c-2.499,0.022 -4.841,1.247 -6.284,3.287l-4.408,24.938l-9.167,-0l6.092,-35.221l8.542,-0.033Zm61.816,-0.617c2.855,-0.032 5.654,0.802 8.025,2.392c2.266,1.574 3.994,3.807 4.95,6.395c1.075,2.894 1.461,5.999 1.125,9.067c-0.269,5.078 -2.338,9.898 -5.833,13.592c-3.274,3.419 -7.866,5.269 -12.596,5.075c-2.823,0.028 -5.591,-0.794 -7.941,-2.359c-2.263,-1.563 -3.991,-3.785 -4.95,-6.362c-1.083,-2.864 -1.473,-5.944 -1.138,-8.988c0.284,-5.172 2.38,-10.082 5.917,-13.866c3.235,-3.369 7.777,-5.174 12.441,-4.946Zm-9.279,22.146c-0.057,1.756 0.458,3.485 1.467,4.925c0.943,1.208 2.404,1.902 3.937,1.871c2.782,0.108 5.384,-1.421 6.642,-3.905c1.732,-3.231 2.511,-6.889 2.246,-10.545c0.011,-1.781 -0.517,-3.524 -1.513,-5c-0.925,-1.247 -2.401,-1.969 -3.954,-1.934c-2.749,-0.083 -5.313,1.429 -6.571,3.875c-1.776,3.276 -2.56,6.999 -2.254,10.713Zm50.133,-12.675c-1.019,-0.193 -2.053,-0.302 -3.091,-0.325c-3.05,-0.192 -5.993,1.2 -7.779,3.679l-4.092,23.046l-9.167,-0l6.125,-35.221l8.625,-0.033l-0.833,4.295c1.655,-2.997 4.781,-4.902 8.204,-5c1.078,0.023 2.15,0.175 3.192,0.455l-1.184,9.104Zm16.534,27.05c-2.888,0.032 -5.727,-0.752 -8.188,-2.263c-2.349,-1.457 -4.205,-3.591 -5.321,-6.121c-1.188,-2.693 -1.659,-5.649 -1.366,-8.579l0.096,-1.3c0.293,-3.329 1.316,-6.552 2.995,-9.441c1.539,-2.73 3.76,-5.013 6.446,-6.625c2.637,-1.555 5.667,-2.317 8.725,-2.196c4.049,-0.152 7.918,1.725 10.304,5c2.421,3.625 3.371,8.041 2.655,12.341l-0.521,4.009l-21.584,-0c-0.182,1.97 0.417,3.936 1.667,5.471c1.238,1.387 3.025,2.161 4.883,2.116c3.36,0.079 6.584,-1.352 8.78,-3.896l4.2,5.209c-1.421,2.074 -3.411,3.695 -5.73,4.666c-2.528,1.123 -5.275,1.673 -8.041,1.609Zm2.916,-28.938c-1.65,-0.058 -3.262,0.513 -4.508,1.596c-1.63,1.604 -2.843,3.582 -3.533,5.762l12.629,0l0.196,-0.833c0.13,-0.819 0.141,-1.653 0.033,-2.475c-0.154,-1.143 -0.722,-2.192 -1.596,-2.946c-0.906,-0.729 -2.04,-1.12 -3.204,-1.104l-0.017,0Z" style="fill:#fff;fill-rule:nonzero;"/><path id="Trazado_129311" d="M3277.05,110.288l-1.529,8.658l5.858,-0l-1.204,6.887l-5.858,0l-2.996,17.659c-0.16,0.853 -0.069,1.735 0.262,2.537c0.303,0.586 1.041,0.902 2.213,0.946c0.347,0.022 1.28,-0.032 2.8,-0.162l-0.65,7.191c-1.702,0.554 -3.487,0.808 -5.275,0.75c-2.562,0.153 -5.055,-0.895 -6.738,-2.833c-1.562,-2.166 -2.216,-4.859 -1.821,-7.5l3.025,-18.588l-4.979,0l1.204,-6.887l5,-0l1.496,-8.658l9.192,-0Zm17.533,12.562c2.327,-2.879 5.836,-4.556 9.538,-4.558c3.034,-0.143 5.941,1.273 7.7,3.75c1.754,2.986 2.405,6.496 1.837,9.912l-3.696,22.213l-9.166,-0l3.75,-22.325c0.107,-0.778 0.129,-1.564 0.066,-2.346c-0.025,-2.005 -1.682,-3.64 -3.687,-3.64c-0.138,-0 -0.275,0.008 -0.413,0.023c-2.555,-0.05 -4.983,1.141 -6.508,3.192l-4.454,25.096l-9.167,-0l8.646,-50l9.213,-0l-3.659,18.683Zm42.917,31.317c-0.3,-1.036 -0.421,-2.116 -0.358,-3.192c-2.308,2.503 -5.58,3.902 -8.984,3.842c-2.852,0.047 -5.609,-1.037 -7.666,-3.013c-1.994,-1.872 -3.041,-4.547 -2.85,-7.275c0.006,-3.572 1.829,-6.905 4.833,-8.837c3.723,-2.223 8.023,-3.294 12.354,-3.075l4.296,0.066l0.454,-2.116c0.128,-0.676 0.16,-1.366 0.096,-2.05c-0.058,-0.917 -0.473,-1.776 -1.154,-2.392c-0.738,-0.603 -1.669,-0.921 -2.621,-0.896c-1.301,-0.082 -2.591,0.292 -3.646,1.059c-1.027,0.796 -1.714,1.954 -1.921,3.237l-9.212,0.033c0.125,-3.317 1.857,-6.374 4.637,-8.187c3.209,-2.175 7.037,-3.254 10.909,-3.075c3.474,-0.116 6.854,1.168 9.375,3.562c2.275,2.338 3.325,5.613 2.833,8.838l-2.7,16.862l-0.163,2.084c-0.075,1.326 0.113,2.655 0.555,3.908l-0.05,0.617l-9.017,-0Zm-7.083,-6.479c2.732,0.046 5.322,-1.243 6.933,-3.45l1.137,-6.088l-3.191,-0.033c-2.79,-0.176 -5.505,0.97 -7.325,3.091c-0.565,0.774 -0.913,1.685 -1.009,2.638c-0.222,0.991 0.052,2.031 0.734,2.783c0.724,0.709 1.708,1.092 2.721,1.059Zm36.2,-28.775l-0.78,4.166c2.476,-3.114 6.278,-4.887 10.255,-4.783c2.915,-0.138 5.702,1.243 7.358,3.646c1.704,2.974 2.314,6.452 1.725,9.829l-3.696,22.396l-9.167,-0l3.775,-22.5c0.108,-0.766 0.13,-1.542 0.067,-2.313c-0.16,-1.934 -1.796,-3.441 -3.737,-3.441c-0.144,-0 -0.287,0.008 -0.43,0.025c-2.57,-0.008 -4.99,1.237 -6.479,3.333l-4.408,24.896l-9.167,-0l6.109,-35.221l8.575,-0.033Z" style="fill:#fff;fill-rule:nonzero;"/></g></svg>