<svg xmlns="http://www.w3.org/2000/svg" width="276.458" height="163.006" viewBox="0 0 276.458 163.006">
  <g id="Grupo_93262" data-name="Grupo 93262" transform="translate(-390 -6571)">
    <g id="Grupo_90808" data-name="Grupo 90808" transform="translate(576.43 6539.23)">
      <path id="Trazado_126582" data-name="Trazado 126582" d="M42,0H73c9.357,0,38.333,5,38.333,5S116,28.609,116,43v98H0V42C0,26.714,2.067,14.09,6.833,5.833,12.9,2.184,34.09,0,42,0Z" transform="translate(-168.43 37.096)" fill="#fff"/>
      <g id="Grupo_90805" data-name="Grupo 90805" transform="translate(-26.074 36.77)">
        <path id="Trazado_126583" data-name="Trazado 126583" d="M41.2,1,71.867,0C81.079,0,109.8,4.066,112.4,5.833S114.2,28.609,114.2,43v98H0V42C0,26.714,2.035,14.09,6.727,5.833,12.7,2.184,33.413,1,41.2,1Z" transform="translate(0.644 0.325)" fill="#fff"/>
        <path id="Trazado_125909" data-name="Trazado 125909" d="M53.966,50.1V174.548s8.538,11.588,53.671,11.588,53.66-11.588,53.66-11.588V50.33a27.594,27.594,0,0,0,4.379-1.71v136.2s-9.232,12.532-58.04,12.532-58.047-12.532-58.047-12.532V48.62S51.046,49.234,53.966,50.1Z" transform="translate(-49.576 -40.882)" fill="#99cef1"/>
        <path id="Trazado_125910" data-name="Trazado 125910" d="M109.929,233.162c38.146,0,50.561-5.868,53.66-8.615l.009,12.669s-8.543,9.964-53.67,9.964-53.735-9.5-53.735-9.5l.063-13.13C59.362,227.294,71.778,233.162,109.929,233.162Z" transform="translate(-51.867 -101.925)" fill="#73b4df"/>
        <path id="Trazado_125911" data-name="Trazado 125911" d="M56.252,220.823c0,4.392,24.047,8.4,53.707,8.4s53.7-4.009,53.7-8.4-24.043-7.628-53.7-7.628S56.252,216.439,56.252,220.823Z" transform="translate(-51.887 -97.986)" fill="#5fa0ca"/>
        <path id="Trazado_125912" data-name="Trazado 125912" d="M185.392,234.01v5.133L171.055,240.9v-5.183C176.709,235.281,181.437,234.688,185.392,234.01Z" transform="translate(-91.722 -105.209)" fill="#99cef1"/>
        <path id="Trazado_125913" data-name="Trazado 125913" d="M107.638,236.415c52.856,0,58.04-11.763,58.04-11.763V245.9c0,5.5-19.145,14.073-58.04,14.073-38.719,0-58.047-9.019-58.047-14.073V224.652S54.52,236.415,107.638,236.415Z" transform="translate(-49.576 -101.962)" fill="#99cef1"/>
        <path id="Trazado_125914" data-name="Trazado 125914" d="M185.392,261.847a144.751,144.751,0,0,1-14.337,2.055V240.574c5.579-.439,10.307-1.047,14.337-1.747Z" transform="translate(-91.722 -106.88)" fill="#c0e5fb"/>
        <path id="Trazado_125915" data-name="Trazado 125915" d="M107.638,266.879c38.9,0,58.04-8.577,58.04-14.073v2.858c0,5.5-19.145,14.073-58.04,14.073-38.719,0-58.047-9.019-58.047-14.073v-2.858C49.591,257.862,68.919,266.879,107.638,266.879Z" transform="translate(-49.576 -111.731)" fill="#528baf"/>
        <path id="Trazado_125916" data-name="Trazado 125916" d="M185.392,272.562a144.751,144.751,0,0,1-14.337,2.055v-2.858c5.357-.523,10.156-1.217,14.337-2.052Z" transform="translate(-91.722 -117.595)" fill="#8dbfe1"/>
        <path id="Trazado_125917" data-name="Trazado 125917" d="M185.392,227.331c-4.242.606-9.055,1.114-14.337,1.49v-14.71c5.282.315,10.1.748,14.337,1.272Z" transform="translate(-91.722 -98.304)" fill="#73b4df"/>
        <path id="Trazado_125918" data-name="Trazado 125918" d="M49.568,44.4c0,4.39,25.99,8.4,58.057,8.4s58.045-4.008,58.045-8.4-25.986-7.627-58.045-7.627S49.568,40.012,49.568,44.4Zm5.1-.656c0-3.2,23.706-5.558,52.952-5.558s52.941,2.358,52.941,5.558-23.706,6.124-52.941,6.124S54.673,46.945,54.673,43.742Z" transform="translate(-49.568 -36.77)" fill="#73b4df"/>
      </g>
      <g id="Grupo_90807" data-name="Grupo 90807" transform="translate(-168.43 36.77)">
        <path id="Trazado_125919" data-name="Trazado 125919" d="M-164.032,50.1V174.548s8.538,11.588,53.671,11.588S-56.7,174.548-56.7,174.548V50.33a27.6,27.6,0,0,0,4.378-1.71v136.2s-9.232,12.532-58.04,12.532-58.047-12.532-58.047-12.532V48.62S-166.953,49.234-164.032,50.1Z" transform="translate(168.422 -40.882)" fill="#99cef1"/>
        <path id="Trazado_125920" data-name="Trazado 125920" d="M-108.036,146.41c45.126,0,53.661-3.287,53.661-3.287v64.216s-8.535,11.588-53.661,11.588-53.671-11.588-53.671-11.588V143.123S-153.169,146.41-108.036,146.41Z" transform="translate(166.097 -73.673)" fill="#00a0e4"/>
        <path id="Trazado_125921" data-name="Trazado 125921" d="M-108.036,146.41c-46.573,1.188-42.12,4.018-32.254,18.215,18.94,27.255,85.915,42.715,85.915,42.715s-8.535,11.588-53.661,11.588-53.671-11.588-53.671-11.588V143.123S-153.169,146.41-108.036,146.41Z" transform="translate(166.097 -73.673)" fill="#0089d6"/>
        <path id="Trazado_125922" data-name="Trazado 125922" d="M-108.07,233.162c38.145,0,50.561-5.868,53.661-8.615l.009,12.669s-8.544,9.964-53.67,9.964-53.735-9.5-53.735-9.5l.064-13.13C-158.638,227.294-146.221,233.162-108.07,233.162Z" transform="translate(166.131 -101.925)" fill="#73b4df"/>
        <path id="Trazado_125923" data-name="Trazado 125923" d="M-161.746,220.823c0,4.392,24.045,8.4,53.707,8.4s53.7-4.009,53.7-8.4-24.043-7.628-53.7-7.628S-161.746,216.439-161.746,220.823Z" transform="translate(166.111 -97.986)" fill="#0074ba"/>
        <path id="Trazado_125924" data-name="Trazado 125924" d="M-122.895,221.006a3.234,3.234,0,0,0,3.234,3.234,3.234,3.234,0,0,0,3.233-3.234,3.233,3.233,0,0,0-3.233-3.233A3.234,3.234,0,0,0-122.895,221.006Z" transform="translate(152.63 -99.575)" fill="#6fc8f2"/>
        <path id="Trazado_125925" data-name="Trazado 125925" d="M-70.193,201.552a3.233,3.233,0,0,0,3.233,3.234,3.234,3.234,0,0,0,3.233-3.234,3.234,3.234,0,0,0-3.233-3.234A3.234,3.234,0,0,0-70.193,201.552Z" transform="translate(134.343 -92.824)" fill="#6fc8f2"/>
        <path id="Trazado_125926" data-name="Trazado 125926" d="M-56.045,222.681a2.079,2.079,0,0,0,2.079,2.079,2.079,2.079,0,0,0,2.077-2.079,2.079,2.079,0,0,0-2.077-2.079A2.079,2.079,0,0,0-56.045,222.681Z" transform="translate(129.434 -100.557)" fill="#6fc8f2"/>
        <path id="Trazado_125927" data-name="Trazado 125927" d="M-138.813,225.511a2.079,2.079,0,0,0,2.079,2.079,2.079,2.079,0,0,0,2.079-2.079,2.079,2.079,0,0,0-2.079-2.079A2.079,2.079,0,0,0-138.813,225.511Z" transform="translate(158.153 -101.538)" fill="#6fc8f2"/>
        <path id="Trazado_125928" data-name="Trazado 125928" d="M-94.953,228.564A2.656,2.656,0,0,0-92.3,231.22a2.656,2.656,0,0,0,2.657-2.656,2.656,2.656,0,0,0-2.657-2.656A2.656,2.656,0,0,0-94.953,228.564Z" transform="translate(142.935 -102.398)" fill="#6fc8f2"/>
        <path id="Trazado_125929" data-name="Trazado 125929" d="M-21.029,224.58a1.5,1.5,0,0,0,1.5,1.5,1.5,1.5,0,0,0,1.5-1.5,1.5,1.5,0,0,0-1.5-1.5A1.5,1.5,0,0,0-21.029,224.58Z" transform="translate(117.284 -101.416)" fill="#b0dff8"/>
        <path id="Trazado_125930" data-name="Trazado 125930" d="M-6.627,170.625a1.219,1.219,0,0,0,1.219,1.22,1.221,1.221,0,0,0,1.22-1.22,1.22,1.22,0,0,0-1.22-1.219A1.219,1.219,0,0,0-6.627,170.625Z" transform="translate(112.287 -82.792)" fill="#6fc8f2"/>
        <path id="Trazado_125931" data-name="Trazado 125931" d="M-83.734,136.492a1.219,1.219,0,0,0,1.219,1.22,1.221,1.221,0,0,0,1.22-1.22,1.22,1.22,0,0,0-1.22-1.219A1.219,1.219,0,0,0-83.734,136.492Z" transform="translate(139.042 -70.949)" fill="#6fc8f2"/>
        <path id="Trazado_125932" data-name="Trazado 125932" d="M-138.912,152.409a1.219,1.219,0,0,0,1.219,1.219,1.219,1.219,0,0,0,1.219-1.219,1.219,1.219,0,0,0-1.219-1.219A1.219,1.219,0,0,0-138.912,152.409Z" transform="translate(158.188 -76.472)" fill="#6fc8f2"/>
        <path id="Trazado_125933" data-name="Trazado 125933" d="M-65.342,161.959a1.22,1.22,0,0,0,1.22,1.22,1.219,1.219,0,0,0,1.219-1.22,1.219,1.219,0,0,0-1.219-1.219A1.219,1.219,0,0,0-65.342,161.959Z" transform="translate(132.66 -79.785)" fill="#b0dff8"/>
        <path id="Trazado_125934" data-name="Trazado 125934" d="M-9.842,217.084a2.627,2.627,0,0,0,2.626,2.626,2.627,2.627,0,0,0,2.627-2.626,2.627,2.627,0,0,0-2.627-2.627A2.626,2.626,0,0,0-9.842,217.084Z" transform="translate(113.403 -98.424)" fill="#6fc8f2"/>
        <path id="Trazado_125935" data-name="Trazado 125935" d="M-93.074,206.816a1.313,1.313,0,0,0,1.313,1.314,1.314,1.314,0,0,0,1.314-1.314,1.314,1.314,0,0,0-1.314-1.313A1.313,1.313,0,0,0-93.074,206.816Z" transform="translate(142.283 -95.317)" fill="#b0dff8"/>
        <path id="Trazado_125936" data-name="Trazado 125936" d="M-157.8,214.244a1.312,1.312,0,0,0,1.313,1.313,1.313,1.313,0,0,0,1.314-1.313,1.314,1.314,0,0,0-1.314-1.313A1.313,1.313,0,0,0-157.8,214.244Z" transform="translate(164.742 -97.895)" fill="#b0dff8"/>
        <path id="Trazado_125937" data-name="Trazado 125937" d="M-133.387,196.656a2.463,2.463,0,0,0,2.462,2.463,2.462,2.462,0,0,0,2.463-2.463,2.461,2.461,0,0,0-2.463-2.463A2.462,2.462,0,0,0-133.387,196.656Z" transform="translate(156.271 -91.393)" fill="#6fc8f2"/>
        <path id="Trazado_125938" data-name="Trazado 125938" d="M-107.213,166.251a2.462,2.462,0,0,0,2.462,2.463,2.462,2.462,0,0,0,2.463-2.463,2.462,2.462,0,0,0-2.463-2.463A2.462,2.462,0,0,0-107.213,166.251Z" transform="translate(147.189 -80.843)" fill="#6fc8f2"/>
        <path id="Trazado_125939" data-name="Trazado 125939" d="M-22.029,195a1.576,1.576,0,0,0,1.576,1.577A1.577,1.577,0,0,0-18.875,195a1.577,1.577,0,0,0-1.578-1.578A1.576,1.576,0,0,0-22.029,195Z" transform="translate(117.631 -91.127)" fill="#6fc8f2"/>
        <path id="Trazado_125940" data-name="Trazado 125940" d="M-161.746,139.282c0,4.392,24.045,8.4,53.707,8.4s53.7-4.007,53.7-8.4-24.043-7.627-53.7-7.627S-161.746,134.894-161.746,139.282Z" transform="translate(166.111 -69.693)" fill="#6fc8f2"/>
        <g id="Grupo_90806" data-name="Grupo 90806" transform="translate(20.31 61.962)">
          <path id="Trazado_125941" data-name="Trazado 125941" d="M-114.162,132.336c6.878-.439,14.546-.681,22.634-.681h.36l18.653,14.965-.4.513c-4.832.293-9.993.477-15.366.53Z" transform="translate(129.29 -131.655)" fill="#bbe4fb"/>
          <path id="Trazado_125942" data-name="Trazado 125942" d="M-137.328,134.333c3.148-.435,6.68-.813,10.519-1.125L-102.86,148.2c-5.009-.05-9.831-.214-14.376-.474Z" transform="translate(137.328 -132.194)" fill="#bbe4fb"/>
        </g>
        <path id="Trazado_125943" data-name="Trazado 125943" d="M-107.133,151.932c23.367,0,43.418-2.367,52-5.5-5.98,3.526-26.992,6.373-52,6.373s-46.019-2.848-52-6.373C-150.554,149.566-130.5,151.932-107.133,151.932Z" transform="translate(165.204 -74.822)" fill="#dcf1fe"/>
        <path id="Trazado_125944" data-name="Trazado 125944" d="M-32.606,147.083v61.9l-14.337,1.753V147.57C-41.258,147.444-36.535,147.275-32.606,147.083Z" transform="translate(126.276 -75.047)" fill="#aaddf7"/>
        <path id="Trazado_125945" data-name="Trazado 125945" d="M-32.606,234.01v5.133L-46.943,240.9v-5.183C-41.289,235.281-36.561,234.688-32.606,234.01Z" transform="translate(126.276 -105.209)" fill="#99cef1"/>
        <path id="Trazado_125946" data-name="Trazado 125946" d="M-32.606,145.79c-4.243.6-9.055,1.113-14.337,1.487V132.572c5.282.311,10.094.742,14.337,1.268Z" transform="translate(126.276 -70.012)" fill="#cbeafc"/>
        <path id="Trazado_125947" data-name="Trazado 125947" d="M-110.361,236.415c52.857,0,58.04-11.763,58.04-11.763V245.9c0,5.5-19.144,14.073-58.04,14.073-38.719,0-58.047-9.019-58.047-14.073V224.652S-163.48,236.415-110.361,236.415Z" transform="translate(168.422 -101.962)" fill="#99cef1"/>
        <path id="Trazado_125948" data-name="Trazado 125948" d="M-32.606,261.847A144.808,144.808,0,0,1-46.943,263.9V240.574c5.579-.439,10.307-1.047,14.337-1.747Z" transform="translate(126.276 -106.88)" fill="#c0e5fb"/>
        <path id="Trazado_125949" data-name="Trazado 125949" d="M-110.361,266.879c38.9,0,58.04-8.577,58.04-14.073v2.858c0,5.5-19.144,14.073-58.04,14.073-38.719,0-58.047-9.019-58.047-14.073v-2.858C-168.408,257.862-149.081,266.879-110.361,266.879Z" transform="translate(168.422 -111.731)" fill="#528baf"/>
        <path id="Trazado_125950" data-name="Trazado 125950" d="M-32.606,272.562a144.808,144.808,0,0,1-14.337,2.055v-2.858c5.357-.523,10.156-1.217,14.337-2.052Z" transform="translate(126.276 -117.595)" fill="#8dbfe1"/>
        <path id="Trazado_125951" data-name="Trazado 125951" d="M-32.606,227.331c-4.243.606-9.055,1.114-14.337,1.49v-14.71c5.282.315,10.094.748,14.337,1.272Z" transform="translate(126.276 -98.304)" fill="#87d0f3"/>
        <path id="Trazado_125952" data-name="Trazado 125952" d="M-168.43,44.4c0,4.39,25.989,8.4,58.055,8.4s58.045-4.008,58.045-8.4-25.986-7.627-58.045-7.627S-168.43,40.012-168.43,44.4Zm5.1-.656c0-3.2,23.707-5.558,52.952-5.558s52.943,2.358,52.943,5.558-23.708,6.124-52.943,6.124S-163.327,46.945-163.327,43.742Z" transform="translate(168.43 -36.77)" fill="#73b4df"/>
        <path id="Trazado_125953" data-name="Trazado 125953" d="M-147.08,152.559c-.728-10.576-4.739-9.483-5.105-.366S-153,172.938-153,180.15c0,7.183,4.2,9.027,5.333,1.089C-146.4,172.4-147.08,152.559-147.08,152.559Z" transform="translate(163.076 -74.32)" fill="#aaddf7"/>
        <path id="Trazado_125954" data-name="Trazado 125954" d="M-146.815,148.934c-1.507-.308-2.884-.631-4.113-.966C-149.92,143.882-147.825,143.827-146.815,148.934Z" transform="translate(162.357 -74.322)" fill="#cbeafc"/>
      </g>
    </g>
    <circle id="Elipse_4848" data-name="Elipse 4848" cx="17" cy="17" r="17" transform="translate(390 6571)" fill="#ffd947"/>
    <circle id="Elipse_4849" data-name="Elipse 4849" cx="17" cy="17" r="17" transform="translate(537 6571)" fill="#ffd947"/>
    <path id="Trazado_129315" data-name="Trazado 129315" d="M8.164,0h-3.3V-10.508l-3.242.947v-2.5l6.24-2.158h.3Z" transform="translate(401 6595)" fill="#12263f"/>
    <path id="Trazado_129314" data-name="Trazado 129314" d="M10.791,0H.869V-2.148l4.57-4.8Q7.129-8.877,7.129-10.01a2.126,2.126,0,0,0-.4-1.4,1.43,1.43,0,0,0-1.162-.479,1.447,1.447,0,0,0-1.221.64,2.629,2.629,0,0,0-.469,1.6H.576a4.67,4.67,0,0,1,.654-2.417A4.588,4.588,0,0,1,3.047-13.8a5.4,5.4,0,0,1,2.6-.625,5.308,5.308,0,0,1,3.55,1.064A3.8,3.8,0,0,1,10.439-10.3a4.439,4.439,0,0,1-.312,1.636A7.173,7.173,0,0,1,9.155-7,24.477,24.477,0,0,1,7.031-4.658L5.2-2.539h5.6Z" transform="translate(548 6595)" fill="#12263f"/>
  </g>
</svg>
