<svg xmlns="http://www.w3.org/2000/svg" xmlns:xlink="http://www.w3.org/1999/xlink" width="54" height="54" viewBox="0 0 54 54">
  <defs>
    <clipPath id="clip-path">
      <rect id="Rectángulo_35813" data-name="Rectángulo 35813" width="54" height="54" transform="translate(600 11379)" fill="#fff" stroke="#707070" stroke-width="1"/>
    </clipPath>
  </defs>
  <g id="Enmascarar_grupo_192" data-name="Enmascarar grupo 192" transform="translate(-600 -11379)" clip-path="url(#clip-path)">
    <g id="coche-deportivo_1_" data-name="coche-deportivo (1)" transform="translate(600 11379)">
      <g id="Grupo_93479" data-name="Grupo 93479">
        <path id="Trazado_127361" data-name="Trazado 127361" d="M7.795,17.824,5.942,16.4l-1.85,1.426v3.231l1.946,1.2,1.758-1.2Z" fill="#ececec" fill-rule="evenodd"/>
        <path id="Trazado_127362" data-name="Trazado 127362" d="M8.91,14.429,2.044,13.67a.521.521,0,0,0-.538.538v3.079a.54.54,0,0,0,.538.538H8.91a.54.54,0,0,0,.538-.538V14.967A.565.565,0,0,0,8.91,14.429Z" fill="#fe636e" fill-rule="evenodd"/>
        <path id="Trazado_127363" data-name="Trazado 127363" d="M6.5,14.211a.584.584,0,0,1,.538.574v2.469a.558.558,0,0,1-.535.571H8.91a.54.54,0,0,0,.538-.538V14.967a.564.564,0,0,0-.538-.538L2.044,13.67a.4.4,0,0,0-.12,0Z" fill="#fb2a39" fill-rule="evenodd"/>
        <path id="Trazado_127364" data-name="Trazado 127364" d="M7.795,21.055h-4.7c-1.175,0-2.328.825-2.292,2.818V34.119a1.345,1.345,0,0,0,.891,1.515l3.8,1.049,41.567.681h4.113c1.432.042,1.982-.514,1.979-1.447V27.254c0-2.056-1.264-2.334-5.951-3.24l-4.767-.921c-1.551-.3-1.216-.164-3.294-1.964l-5.048-4.361c-1.453-1.255-1.617-1.052-4.451-1.049H18.361a4.405,4.405,0,0,0-2.648.962l-5.162,3.9a2.314,2.314,0,0,1-1.871.469H7.795Z" fill="#fe636e" fill-rule="evenodd"/>
        <path id="Trazado_127365" data-name="Trazado 127365" d="M38.6,34.068H14.254a3.976,3.976,0,0,1,.111,1.073,5.909,5.909,0,0,1-.5,2.224H39.053a6.024,6.024,0,0,1-.544-2.313A3.59,3.59,0,0,1,38.6,34.068Z" fill="#acacac" fill-rule="evenodd"/>
        <path id="Trazado_127366" data-name="Trazado 127366" d="M.8,24.576v4.313l2.29-.508c1.151-.254,1.668-.182,2.49-1.36l.888-1.27a.729.729,0,0,0-.526-1.175H.8Z" fill="#a6e7f0" fill-rule="evenodd"/>
        <path id="Trazado_127367" data-name="Trazado 127367" d="M4.6,26.019c-.822,1.178-1.287.937-2.435,1.191l-1.367.3v1.375l2.29-.508c1.151-.254,1.668-.182,2.49-1.36l.888-1.27a.729.729,0,0,0-.526-1.175H5.586a.943.943,0,0,1-.1.173Z" fill="#6bd9e7" fill-rule="evenodd"/>
        <path id="Trazado_127368" data-name="Trazado 127368" d="M19.237,18.888a1.889,1.889,0,0,0-1.354.562l-2.5,1.8a1.161,1.161,0,0,0-.5,1.082v.783c0,.1.134.188.3.191l4.98.009c1.109.018,1.109-.774,1.109-1.249V19.414c-.009-.114.012-.529-.652-.529Z" fill="#a6e7f0" fill-rule="evenodd"/>
        <path id="Trazado_127369" data-name="Trazado 127369" d="M19.237,23.311l.933,0c1.109.018,1.109-.774,1.109-1.249V19.414c-.009-.114.012-.529-.652-.529l-1.39,0Z" fill="#6bd9e7" fill-rule="evenodd"/>
        <path id="Trazado_127370" data-name="Trazado 127370" d="M42.434,29.878a5.172,5.172,0,0,0-5.078,4.19,5.08,5.08,0,0,0-.1.983,5.174,5.174,0,1,0,5.174-5.174Z" fill="#838383" fill-rule="evenodd"/>
        <path id="Trazado_127371" data-name="Trazado 127371" d="M10.437,29.968a5.174,5.174,0,0,0-5.174,5.174A5.252,5.252,0,0,0,5.5,36.683a5.176,5.176,0,0,0,9.612.681,5.12,5.12,0,0,0,.5-2.224,5.284,5.284,0,0,0-.111-1.073,5.175,5.175,0,0,0-5.063-4.1Z" fill="#838383" fill-rule="evenodd"/>
        <path id="Trazado_127372" data-name="Trazado 127372" d="M10.437,33.4a1.737,1.737,0,1,0,1.737,1.737A1.736,1.736,0,0,0,10.437,33.4Z" fill="#ececec" fill-rule="evenodd"/>
        <path id="Trazado_127373" data-name="Trazado 127373" d="M42.434,33.315a1.737,1.737,0,1,0,1.737,1.737A1.738,1.738,0,0,0,42.434,33.315Z" fill="#ececec" fill-rule="evenodd"/>
        <path id="Trazado_127374" data-name="Trazado 127374" d="M50,28.5A1.109,1.109,0,0,0,48.9,29.606v.831A1.111,1.111,0,0,0,50,31.543h3.15V28.5H50Z" fill="#a6e7f0" fill-rule="evenodd"/>
        <path id="Trazado_127375" data-name="Trazado 127375" d="M50.94,28.5h2.215v3.043H50.94Z" fill="#6bd9e7" fill-rule="evenodd"/>
        <path id="Trazado_127376" data-name="Trazado 127376" d="M15.5,34.068a5.175,5.175,0,0,0-5.063-4.1,5.234,5.234,0,0,0-1,.1A5.179,5.179,0,0,1,13.5,34.068a5.089,5.089,0,0,1,.111,1.073,5.141,5.141,0,0,1-.275,1.671,5.63,5.63,0,0,1-.224.553,5.178,5.178,0,0,1-3.676,2.854,5.236,5.236,0,0,0,1,.1,5.169,5.169,0,0,0,4.672-2.95,5,5,0,0,0,.215-.52,5.172,5.172,0,0,0,.287-1.7,5.3,5.3,0,0,0-.111-1.073Z" fill="#595959" fill-rule="evenodd"/>
        <path id="Trazado_127377" data-name="Trazado 127377" d="M47.5,33.979a5.181,5.181,0,0,0-6.059-4A5.176,5.176,0,0,1,45.5,33.979a5.089,5.089,0,0,1,.114,1.073,5.167,5.167,0,0,1-.278,1.671,5.236,5.236,0,0,1-.224.553,5.175,5.175,0,0,1-3.673,2.851,4.978,4.978,0,0,0,1,.1,5.182,5.182,0,0,0,4.675-2.95,4.871,4.871,0,0,0,.212-.52,5.223,5.223,0,0,0,.176-2.777Z" fill="#595959" fill-rule="evenodd"/>
        <path id="Trazado_127378" data-name="Trazado 127378" d="M24.847,18.918c-.667,0-.646.412-.655.526v3.04c0,.472-.072.873.723.858H35.1c.167,0,.3-.09.3-.191V22.5a.658.658,0,0,0-.275-.541l-3.351-2.469a1.894,1.894,0,0,0-1.354-.568Z" fill="#a6e7f0" fill-rule="evenodd"/>
        <path id="Trazado_127379" data-name="Trazado 127379" d="M31.778,19.486a1.894,1.894,0,0,0-1.354-.568H27.668a1.894,1.894,0,0,1,1.354.568l3.351,2.469a.658.658,0,0,1,.275.541v.655c0,.1-.134.188-.3.191H35.1c.167,0,.3-.09.3-.191V22.5a.658.658,0,0,0-.275-.541Z" fill="#6bd9e7" fill-rule="evenodd"/>
        <path id="Trazado_127380" data-name="Trazado 127380" d="M1.692,32.962a1.281,1.281,0,0,1-.891-1.4v2.552a1.345,1.345,0,0,0,.891,1.515l3.8,1.049a5.248,5.248,0,0,1-.233-1.542,5.082,5.082,0,0,1,.132-1.157Z" fill="#fb2a39" fill-rule="evenodd"/>
        <path id="Trazado_127381" data-name="Trazado 127381" d="M6.5,17.824H5.942v3.231H7.795V17.824Z" fill="#cecece" fill-rule="evenodd"/>
        <path id="Trazado_127382" data-name="Trazado 127382" d="M53.155,27.254c0-1.737-.9-2.2-3.993-2.851a4.726,4.726,0,0,1,1.778,3.715V28.5h2.215Z" fill="#fb2a39" fill-rule="evenodd"/>
        <path id="Trazado_127383" data-name="Trazado 127383" d="M50.94,31.543v5.822h.236c1.432.042,1.982-.514,1.979-1.447V31.543H50.94Z" fill="#fb2a39" fill-rule="evenodd"/>
      </g>
      <path id="Trazado_127384" data-name="Trazado 127384" d="M24.587,26.424a.8.8,0,1,0,0,1.594h3.052a.8.8,0,1,0,0-1.594Z"/>
      <path id="Trazado_127385" data-name="Trazado 127385" d="M20.64,18.088l-1.388,0a2.413,2.413,0,0,0-1.663.6l-.16.116-2.5,1.8a1.938,1.938,0,0,0-.831,1.718v.8a1.044,1.044,0,0,0,1.088.988H15.2l4.977.009h.043a1.863,1.863,0,0,0,1.36-.489,2.068,2.068,0,0,0,.512-1.557V19.414c0-.021,0-.046,0-.067A1.308,1.308,0,0,0,20.64,18.088ZM20.5,22.071a1.494,1.494,0,0,1-.038.42.659.659,0,0,1-.264.033h-.011l-4.492-.008v-.193c0-.233,0-.3.168-.423l2.5-1.8.173-.126c.35-.257.395-.29.721-.29l1.246,0Z"/>
      <path id="Trazado_127386" data-name="Trazado 127386" d="M10.443,32.623a2.535,2.535,0,1,0,2.537,2.536A2.538,2.538,0,0,0,10.443,32.623Zm0,3.476a.941.941,0,1,1,.942-.94A.941.941,0,0,1,10.443,36.1Z"/>
      <path id="Trazado_127387" data-name="Trazado 127387" d="M42.472,32.533a2.535,2.535,0,1,0,2.537,2.533A2.538,2.538,0,0,0,42.472,32.533Zm0,3.476a.941.941,0,1,1,.942-.943A.944.944,0,0,1,42.472,36.009Z"/>
      <path id="Trazado_127388" data-name="Trazado 127388" d="M47.4,23.237l-4.982-.961a3.118,3.118,0,0,1-.917-.244,8.388,8.388,0,0,1-1.1-.888c-.2-.175-.431-.377-.7-.612l-5.051-4.367c-1.4-1.208-1.9-1.252-3.816-1.244-.332,0-.708,0-1.152,0l-3.049-.036h-.01a.8.8,0,0,0-.009,1.594l3.049.036c.457.005.84,0,1.178,0,1.7-.007,1.768-.007,2.767.856l5.052,4.367c.269.233.5.433.7.605,1.316,1.151,1.447,1.244,2.764,1.5l4.98.961c4.865.942,5.311,1.149,5.311,2.46v.452H50.05a1.905,1.905,0,0,0-1.9,1.9v.831a1.905,1.905,0,0,0,1.9,1.9h2.356v3.587c0,.317-.092.408-.123.438-.072.07-.318.232-1.04.212H48.252a5.977,5.977,0,0,0-11.486-3.3h-8.9a.8.8,0,1,0,0,1.594H36.5c0,.061,0,.122,0,.183a5.963,5.963,0,0,0,.2,1.522H16.246a5.962,5.962,0,0,0,.174-1.43c0-.093,0-.185-.007-.276H24.56a.8.8,0,1,0,0-1.594H16.119a5.975,5.975,0,0,0-11.65,1.87c0,.147.007.292.018.437L1.9,34.884c-.2-.054-.314-.13-.309-.734,0,0,0-.011,0-.013v-4.6l1.669-.37c.163-.036.312-.066.452-.093a3.29,3.29,0,0,0,2.521-1.591l.89-1.273a1.5,1.5,0,0,0,.138-1.585,1.571,1.571,0,0,0-1.32-.84H1.6a2.158,2.158,0,0,1,.491-1.538,1.379,1.379,0,0,1,1-.395h5.6c.1,0,.2,0,.283,0a2.786,2.786,0,0,0,2.068-.633l5.168-3.907a3.631,3.631,0,0,1,2.167-.8H22.85a.8.8,0,1,0,0-1.594H18.375a5.176,5.176,0,0,0-3.131,1.127l-5.169,3.907A1.268,1.268,0,0,1,9,20.264c-.1,0-.2,0-.31,0H8.595v-1.64h.318a1.338,1.338,0,0,0,1.338-1.335V14.964A1.352,1.352,0,0,0,9,13.634L2.13,12.875a1.25,1.25,0,0,0-.97.316A1.362,1.362,0,0,0,.706,14.2v3.081a1.337,1.337,0,0,0,1.335,1.335H3.295v1.64h-.2a2.967,2.967,0,0,0-2.14.872A3.676,3.676,0,0,0,0,23.887V34.138A2.055,2.055,0,0,0,1.48,36.421l3.412.94a5.972,5.972,0,0,0,10.7.822h21.78a5.973,5.973,0,0,0,10.2,0h3.64l.15,0a2.784,2.784,0,0,0,2.036-.667,2.109,2.109,0,0,0,.6-1.581V27.263c0-2.747-1.933-3.121-6.6-4.025ZM2.3,14.5l6.356.7v1.828H2.3Zm2.588,4.124H7v1.64H4.889Zm.041,7.952a1.8,1.8,0,0,1-1.522.94c-.151.03-.314.062-.49.1l-1.323.293V25.382H5.763Zm5.513,12.966a4.381,4.381,0,1,1,4.383-4.38A4.385,4.385,0,0,1,10.443,39.539Zm32.029-.09a4.381,4.381,0,1,1,4.383-4.383A4.388,4.388,0,0,1,42.472,39.449Zm7.577-8.691a.309.309,0,0,1-.309-.309v-.831a.309.309,0,0,1,.309-.309h2.356v1.449H50.049Z"/>
      <path id="Trazado_127389" data-name="Trazado 127389" d="M23.416,19.447v3.04c0,.034,0,.067,0,.1a1.5,1.5,0,0,0,.368,1.173,1.538,1.538,0,0,0,1.091.385H35.16a1.037,1.037,0,0,0,1.07-.988V22.5a1.448,1.448,0,0,0-.6-1.182l-3.36-2.476-.165-.121a2.419,2.419,0,0,0-1.659-.6h-5.58a1.308,1.308,0,0,0-1.45,1.269c0,.019,0,.038,0,.057Zm1.594,3.04V19.715h5.438c.322,0,.366.033.71.288l.174.128,3.284,2.42H25.01c0-.021,0-.042,0-.064Z"/>
    </g>
  </g>
</svg>
