<svg xmlns="http://www.w3.org/2000/svg" xmlns:xlink="http://www.w3.org/1999/xlink" width="54" height="54" viewBox="0 0 54 54">
  <defs>
    <clipPath id="clip-path">
      <rect id="Rectángulo_35814" data-name="Rectángulo 35814" width="54" height="54" transform="translate(895 11379)" fill="#fff" stroke="#707070" stroke-width="1"/>
    </clipPath>
  </defs>
  <g id="_94" data-name="94" transform="translate(-895 -11379)" clip-path="url(#clip-path)">
    <g id="_03-super_car" data-name="03-super car" transform="translate(895 11379.001)">
      <circle id="Elipse_4873" data-name="Elipse 4873" cx="2.531" cy="2.531" r="2.531" transform="translate(41.343 29.531)" fill="#dce1eb"/>
      <path id="Trazado_127390" data-name="Trazado 127390" d="M43.875,32.062a2.516,2.516,0,0,1,1.266-2.181,2.531,2.531,0,1,0,0,4.362,2.516,2.516,0,0,1-1.266-2.181Z" fill="#bec3d2"/>
      <path id="Trazado_127391" data-name="Trazado 127391" d="M43.875,37.125a5.062,5.062,0,1,1,5.062-5.062A5.062,5.062,0,0,1,43.875,37.125Zm0-7.594a2.531,2.531,0,1,0,2.531,2.531A2.531,2.531,0,0,0,43.875,29.531Z" fill="#707789"/>
      <circle id="Elipse_4874" data-name="Elipse 4874" cx="2.531" cy="2.531" r="2.531" transform="translate(7.594 29.531)" fill="#dce1eb"/>
      <path id="Trazado_127392" data-name="Trazado 127392" d="M10.125,32.062a2.516,2.516,0,0,1,1.266-2.181,2.531,2.531,0,1,0,0,4.362,2.516,2.516,0,0,1-1.266-2.181Z" fill="#bec3d2"/>
      <path id="Trazado_127393" data-name="Trazado 127393" d="M10.125,37.125a5.062,5.062,0,1,1,3.763-8.437,5,5,0,0,1,1.3,3.375A5.062,5.062,0,0,1,10.125,37.125Zm0-7.594a2.531,2.531,0,1,0,2.531,2.531A2.531,2.531,0,0,0,10.125,29.531Z" fill="#707789"/>
      <path id="Trazado_127394" data-name="Trazado 127394" d="M5.062,19.406H8.437v2.531l.017.169L5.9,22.359l-.835.084Z" fill="#9196aa"/>
      <path id="Trazado_127395" data-name="Trazado 127395" d="M5.9,22.359a4.567,4.567,0,0,1-.835,2.953H1.687V22.781l3.375-.337Z" fill="#ff636e"/>
      <path id="Trazado_127396" data-name="Trazado 127396" d="M10.125,19.406H3.375l-.844-2.531H6.75Z" fill="#19cffc"/>
      <path id="Trazado_127397" data-name="Trazado 127397" d="M35.952,23.448c-2.109.9-4.32,1.865-10.64,1.865-5.442,0-7.113-1.164-9.1-2.118.489-.911,2.168-2.945,7.408-2.945a28.567,28.567,0,0,1,12.327,3.2Z" fill="#7e8596"/>
      <path id="Trazado_127398" data-name="Trazado 127398" d="M18.748,23.195c.449-.835,1.906-2.609,6.18-2.9-.43-.026-.864-.045-1.3-.045-5.24,0-6.919,2.033-7.408,2.945,1.983.953,3.653,2.118,9.1,2.118.5,0,.963-.008,1.412-.019A15.66,15.66,0,0,1,18.748,23.195Z" fill="#707789"/>
      <path id="Trazado_127399" data-name="Trazado 127399" d="M43.875,21.937a17.148,17.148,0,0,0-7.923,1.51,28.567,28.567,0,0,0-12.327-3.2c-5.24,0-6.919,2.033-7.408,2.945a12.392,12.392,0,0,0-6.092-1.257c4.3,0,3.341-4.219,13.5-4.219C33.75,17.719,34.594,21.937,43.875,21.937Z" fill="#1ea1e3"/>
      <path id="Trazado_127400" data-name="Trazado 127400" d="M35.952,23.448a17.148,17.148,0,0,1,7.923-1.51c5.062,0,9.281,6.75,9.281,6.75H47.638a5.047,5.047,0,0,0-8.142.844H14.5a5.047,5.047,0,0,0-8.142-.844H1.687V25.312H5.062A4.567,4.567,0,0,0,5.9,22.359l2.557-.253,1.671-.169a12.392,12.392,0,0,1,6.092,1.257c1.983.953,3.653,2.118,9.1,2.118,6.32,0,8.53-.962,10.64-1.865Z" fill="#19cffc"/>
      <path id="Trazado_127401" data-name="Trazado 127401" d="M5.9,24.89l2.557-.253,1.671-.169a12.392,12.392,0,0,1,6.092,1.257c1.983.953,3.653,2.118,9.1,2.118,6.32,0,8.53-.962,10.64-1.865a17.148,17.148,0,0,1,7.923-1.51c2.959,0,5.622,2.3,7.33,4.219h1.951s-4.219-6.75-9.281-6.75a17.148,17.148,0,0,0-7.923,1.51c-2.109.9-4.32,1.865-10.64,1.865-5.442,0-7.113-1.164-9.1-2.118a12.392,12.392,0,0,0-6.092-1.257l-1.671.169L5.9,22.359a4.567,4.567,0,0,1-.835,2.953H1.687v2.531H5.062A4.567,4.567,0,0,0,5.9,24.89Z" fill="#96e8ff"/>
      <g id="Grupo_93480" data-name="Grupo 93480">
        <path id="Trazado_127402" data-name="Trazado 127402" d="M53.156,28.687v3.375H48.937a5,5,0,0,0-1.3-3.375Z" fill="#afb4c8"/>
        <path id="Trazado_127403" data-name="Trazado 127403" d="M14.5,29.531H39.5a4.942,4.942,0,0,0-.683,2.531H15.187a4.965,4.965,0,0,0-.683-2.531Z" fill="#afb4c8"/>
        <path id="Trazado_127404" data-name="Trazado 127404" d="M1.687,28.687H6.362a5,5,0,0,0-1.3,3.375H1.687a.826.826,0,0,1-.844-.844V29.531Z" fill="#afb4c8"/>
      </g>
      <path id="Trazado_127405" data-name="Trazado 127405" d="M10.125,28.687A3.375,3.375,0,1,0,13.5,32.062,3.375,3.375,0,0,0,10.125,28.687Zm0,5.062a1.687,1.687,0,1,1,1.687-1.687A1.687,1.687,0,0,1,10.125,33.75Z"/>
      <path id="Trazado_127406" data-name="Trazado 127406" d="M43.875,28.687a3.375,3.375,0,1,0,3.375,3.375A3.375,3.375,0,0,0,43.875,28.687Zm0,5.062a1.687,1.687,0,1,1,1.687-1.687A1.687,1.687,0,0,1,43.875,33.75Z"/>
      <path id="Trazado_127407" data-name="Trazado 127407" d="M53.859,28.249l.013-.008c-.182-.292-4.529-7.147-10-7.147a21.915,21.915,0,0,1-9.323-1.98,25.65,25.65,0,0,0-10.926-2.238c-6.435,0-8.707,1.7-10.367,2.936a4.6,4.6,0,0,1-3.133,1.282V21.1h-.084l-.759.076V20.25h.844a.844.844,0,0,0,.506-1.519L7.256,16.2a.844.844,0,0,0-.506-.169H2.531a.844.844,0,0,0-.8,1.11l.844,2.531a.844.844,0,0,0,.8.577h.844v1.434L1.6,21.946a.844.844,0,0,0-.759.835v5.557l-.6.6a.844.844,0,0,0-.247.6v1.687a1.653,1.653,0,0,0,1.687,1.687h2.6a5.9,5.9,0,0,0,11.677,0H38.036a5.9,5.9,0,0,0,11.677,0h3.442A.844.844,0,0,0,54,32.062V28.687a.814.814,0,0,0-.141-.439ZM14.268,21.161c1.552-1.157,3.483-2.6,9.357-2.6a24.205,24.205,0,0,1,10.3,2.118,35.272,35.272,0,0,0,3.563,1.266c-.532.178-1.012.373-1.5.574a29.136,29.136,0,0,0-12.368-3.113c-4.647,0-6.763,1.548-7.7,2.723a11.348,11.348,0,0,0-2.058-.667c.134-.1.268-.2.4-.3Zm19.566,2.223a25,25,0,0,1-8.522,1.084c-4.415,0-6.214-.783-7.82-1.585.791-.794,2.5-1.79,6.132-1.79a26.869,26.869,0,0,1,10.209,2.291Zm-23.709-.6a11.706,11.706,0,0,1,6.328,1.471c1.772.892,3.786,1.9,8.859,1.9,6.434,0,8.817-1.012,10.92-1.907a16.158,16.158,0,0,1,7.643-1.468c3.238,0,6.195,3.206,7.638,5.062H48a5.89,5.89,0,0,0-8.966.844H14.965A5.89,5.89,0,0,0,6,27.844H2.531V26.156H5.062a.844.844,0,0,0,.6-.247,4.725,4.725,0,0,0,1.02-2.784Zm5.653,7.594H38.222a5.835,5.835,0,0,0-.181.844H15.964A5.834,5.834,0,0,0,15.778,30.375ZM3.7,17.719H6.469l1.125.844H3.983Zm2.2,2.531H7.594v1.1l-1.687.169ZM4.957,23.3a4.311,4.311,0,0,1-.347,1.169H2.531V23.54Zm-3.27,6.58.349-.349H4.8a5.853,5.853,0,0,0-.506,1.687h-2.6Zm8.437,6.4a4.219,4.219,0,1,1,4.219-4.219,4.219,4.219,0,0,1-4.219,4.219Zm33.75,0a4.219,4.219,0,1,1,4.219-4.219A4.219,4.219,0,0,1,43.875,36.281Zm8.437-5.062h-2.6a5.853,5.853,0,0,0-.51-1.687h3.109Z"/>
    </g>
  </g>
</svg>
