<svg xmlns="http://www.w3.org/2000/svg" xmlns:xlink="http://www.w3.org/1999/xlink" width="54" height="54" viewBox="0 0 54 54">
  <defs>
    <clipPath id="clip-path">
      <rect id="Rectángulo_35816" data-name="Rectángulo 35816" width="54" height="54" transform="translate(895 11507)" fill="#fff" stroke="#707070" stroke-width="1"/>
    </clipPath>
  </defs>
  <g id="_96" data-name="96" transform="translate(-895 -11507)" clip-path="url(#clip-path)">
    <g id="abuelo" transform="translate(895 11507)">
      <g id="Grupo_93483" data-name="Grupo 93483">
        <path id="Trazado_127418" data-name="Trazado 127418" d="M26.764,37.283A15.933,15.933,0,0,0,10.838,53.209H26.764V37.283h0Z" fill="#d4d4ff"/>
        <path id="Trazado_127419" data-name="Trazado 127419" d="M41.37,46.866a15.921,15.921,0,0,0-14.606-9.583V53.209H42.69A15.827,15.827,0,0,0,41.37,46.866Z" fill="#efedff"/>
      </g>
      <g id="Grupo_93487" data-name="Grupo 93487">
        <g id="Grupo_93484" data-name="Grupo 93484">
          <path id="Trazado_127420" data-name="Trazado 127420" d="M36.173,40.721l-.086-.431H20.65L16.171,53.209H37.4v0a64.018,64.018,0,0,0-1.229-12.486Z" fill="#9ea2e3"/>
          <path id="Trazado_127421" data-name="Trazado 127421" d="M21.192,47.682a17.016,17.016,0,0,1,9.119-10A15.868,15.868,0,0,0,17.463,40.29a64.174,64.174,0,0,0-1.315,12.919h4.111a17.043,17.043,0,0,1,.934-5.527Z" fill="#8288cb"/>
        </g>
        <g id="Grupo_93485" data-name="Grupo 93485">
          <path id="Trazado_127422" data-name="Trazado 127422" d="M16.15,52.723c0,.162,0,.323,0,.486H26.764l-5.572-5.527Z" fill="#70dcba"/>
          <path id="Trazado_127423" data-name="Trazado 127423" d="M22.515,37.86q-.561.156-1.106.35a15.91,15.91,0,0,0-3.946,2.08c-.207,1.041-.392,2.074-.554,3.109l4.283,4.283,5.572-5.572Z" fill="#70dcba"/>
          <path id="Trazado_127424" data-name="Trazado 127424" d="M36.621,43.4q-.208-1.342-.472-2.676l-.086-.431a15.887,15.887,0,0,0-3.946-2.08q-.543-.195-1.1-.349l-4.249,4.249,5.572,5.572Z" fill="#70dcba"/>
          <path id="Trazado_127425" data-name="Trazado 127425" d="M37.376,52.721l-5.04-5.04-5.572,5.527H37.379v0c0-.162,0-.324,0-.486Z" fill="#70dcba"/>
        </g>
        <g id="Grupo_93486" data-name="Grupo 93486">
          <path id="Trazado_127426" data-name="Trazado 127426" d="M25.545,40.89l-3.03-3.03h0q-.56.155-1.1.349a15.854,15.854,0,0,0-3.947,2.08c-.206,1.036-.391,2.07-.554,3.109l4.283,4.283a16.984,16.984,0,0,1,4.353-6.791Z" fill="#06ccab"/>
          <path id="Trazado_127427" data-name="Trazado 127427" d="M16.15,52.723c0,.162,0,.323,0,.486h4.111a17.041,17.041,0,0,1,.934-5.527Z" fill="#06ccab"/>
        </g>
      </g>
      <g id="Grupo_93488" data-name="Grupo 93488">
        <path id="Trazado_127428" data-name="Trazado 127428" d="M32.953,40.5l-.836-2.288H21.41L20.574,40.5a1.793,1.793,0,0,0,2.248,2.317l1.953-.647h3.979l1.952.647A1.793,1.793,0,0,0,32.953,40.5Z" fill="#ea5b70"/>
        <circle id="Elipse_4880" data-name="Elipse 4880" cx="2.126" cy="2.126" r="2.126" transform="translate(24.637 38.971)" fill="#ff8e9e"/>
      </g>
      <g id="Grupo_93491" data-name="Grupo 93491">
        <g id="Grupo_93489" data-name="Grupo 93489">
          <circle id="Elipse_4881" data-name="Elipse 4881" cx="4.746" cy="4.746" r="4.746" transform="translate(2.928 15.135)" fill="#ffbd86"/>
          <circle id="Elipse_4882" data-name="Elipse 4882" cx="4.746" cy="4.746" r="4.746" transform="translate(41.108 15.135)" fill="#ffbd86"/>
        </g>
        <g id="Grupo_93490" data-name="Grupo 93490">
          <path id="Trazado_127429" data-name="Trazado 127429" d="M45.846,19.352a19.09,19.09,0,0,0-10.3-16.427l-.026-.014A18.958,18.958,0,0,0,29.93,1.052L17.986,2.925,7.682,19.352,25.545,38.709H29.93A19.073,19.073,0,0,0,45.854,19.881c0-.177,0-.353-.008-.529Z" fill="#fed2a4"/>
          <path id="Trazado_127430" data-name="Trazado 127430" d="M16.776,19.881c0-9.465,5.691-17.321,13.154-18.829A19.214,19.214,0,0,0,26.764.791a19.006,19.006,0,0,0-8.778,2.134L7.682,19.352c0,.176-.008.352-.008.529A19.1,19.1,0,0,0,29.93,38.709C22.467,37.2,16.776,29.346,16.776,19.881Z" fill="#ffbd86"/>
          <path id="Trazado_127431" data-name="Trazado 127431" d="M35.28,9.989a2.049,2.049,0,0,0,1.138,2.473l3.924,1.705a2.95,2.95,0,0,1,1.771,2.474l0,.045a2.894,2.894,0,0,0,2.892,2.666h.839a19.09,19.09,0,0,0-10.3-16.427,13.879,13.879,0,0,1-.262,7.065Z" fill="#efedff"/>
          <path id="Trazado_127432" data-name="Trazado 127432" d="M11.412,16.686l0-.045a2.95,2.95,0,0,1,1.771-2.474l3.924-1.705a2.049,2.049,0,0,0,1.138-2.473,13.882,13.882,0,0,1-.262-7.064,19.089,19.089,0,0,0-10.3,16.426h.839a2.894,2.894,0,0,0,2.891-2.666Z" fill="#d4d4ff"/>
        </g>
      </g>
      <g id="Grupo_93494" data-name="Grupo 93494">
        <g id="Grupo_93492" data-name="Grupo 93492">
          <path id="Trazado_127433" data-name="Trazado 127433" d="M45.076,18.378a1.8,1.8,0,0,0-2.459-.659l-.7.4a2.658,2.658,0,0,0-.584-.973c-2.162-2.205-10.286-2.227-12.412.01a2.322,2.322,0,0,0-.4.582,4.22,4.22,0,0,0-.331,2.235,3.142,3.142,0,0,0-3.186.191l-1.155,2.305,2.913.562,2.1-.4a5.277,5.277,0,0,0,1.58,2.255c1.982,1.428,7.833,1.5,9.816-.014a5.183,5.183,0,0,0,1.526-2.521l2.633-1.52a1.8,1.8,0,0,0,.659-2.459Z" fill="#ce857a"/>
          <path id="Trazado_127434" data-name="Trazado 127434" d="M25.006,17.743a2.322,2.322,0,0,0-.4-.582c-2.126-2.237-10.25-2.215-12.412-.01a2.658,2.658,0,0,0-.584.973l-.7-.4a1.8,1.8,0,1,0-1.8,3.117l2.633,1.52a5.183,5.183,0,0,0,1.526,2.521c1.983,1.511,7.834,1.442,9.816.014a6.39,6.39,0,0,0,1.964-3.38l.007-.027c.018-.065.035-.131.052-.2a5.306,5.306,0,0,0-.1-3.545Z" fill="#bd7669"/>
        </g>
        <g id="Grupo_93493" data-name="Grupo 93493">
          <path id="Trazado_127435" data-name="Trazado 127435" d="M22.586,20.166A4.968,4.968,0,0,1,21.507,22.7c-1.07.771-5.63.792-6.6.03a4.778,4.778,0,0,1-.852-2.64,1.439,1.439,0,0,1,1.021-1.483,13.824,13.824,0,0,1,6.462-.065,1.435,1.435,0,0,1,1.049,1.623Z" fill="#ffbd86"/>
          <path id="Trazado_127436" data-name="Trazado 127436" d="M39.473,20.091a4.778,4.778,0,0,1-.852,2.64c-.97.763-5.53.742-6.6-.03a4.968,4.968,0,0,1-1.079-2.536,1.435,1.435,0,0,1,1.049-1.623,13.824,13.824,0,0,1,6.462.065,1.439,1.439,0,0,1,1.02,1.483Z" fill="#ffbd86"/>
        </g>
      </g>
      <path id="Trazado_127437" data-name="Trazado 127437" d="M31.813,23.7a2.719,2.719,0,0,1-1.92-.826,2.105,2.105,0,0,0-3.129.164,2.105,2.105,0,0,0-3.129-.164,2.72,2.72,0,0,1-1.92.826.518.518,0,0,0-.507.62,3.159,3.159,0,0,0,5.555,1.365,3.159,3.159,0,0,0,5.555-1.365.518.518,0,0,0-.507-.62Z" fill="#efedff"/>
      <g id="Grupo_93496" data-name="Grupo 93496">
        <path id="Trazado_127438" data-name="Trazado 127438" d="M42.69,53.209a1.582,1.582,0,0,1-1.582-1.582V41.357a4.982,4.982,0,1,1,9.964,0,1.582,1.582,0,1,1-3.164,0,1.818,1.818,0,1,0-3.636,0V51.627A1.582,1.582,0,0,1,42.69,53.209Z" fill="#bd7669"/>
        <g id="Grupo_93495" data-name="Grupo 93495">
          <circle id="Elipse_4883" data-name="Elipse 4883" cx="2.109" cy="2.109" r="2.109" transform="translate(39.562 45.419)" fill="#ffbf9d"/>
          <circle id="Elipse_4884" data-name="Elipse 4884" cx="3.164" cy="3.164" r="3.164" transform="translate(41.764 44.079)" fill="#ffd4bd"/>
        </g>
      </g>
      <g id="Grupo_93497" data-name="Grupo 93497">
        <path id="Trazado_127439" data-name="Trazado 127439" d="M18.55,19.812a.791.791,0,0,0-.791.791v.946a.791.791,0,0,0,1.582,0V20.6A.791.791,0,0,0,18.55,19.812Z"/>
        <path id="Trazado_127440" data-name="Trazado 127440" d="M35.769,21.548V20.6a.791.791,0,1,0-1.582,0v.946a.791.791,0,1,0,1.582,0Z"/>
        <path id="Trazado_127441" data-name="Trazado 127441" d="M46.09,35.585a5.779,5.779,0,0,0-5.773,5.773v2.084a16.753,16.753,0,0,0-6.028-5.154,19.8,19.8,0,0,0,3.955-2.174.791.791,0,0,0-.914-1.291A18.3,18.3,0,0,1,8.53,21.4c.145.1-.04-.011,2.559,1.49a5.634,5.634,0,0,0,1.7,2.615c1.793,1.367,5.881,1.581,8.651.906a3.948,3.948,0,0,0,5.323.379,3.948,3.948,0,0,0,5.323-.379,14.445,14.445,0,0,0,3.338.371,9.436,9.436,0,0,0,5.313-1.277,5.632,5.632,0,0,0,1.7-2.615c2.6-1.5,2.414-1.389,2.56-1.491a18.151,18.151,0,0,1-5.351,11.472A.791.791,0,1,0,40.762,34a19.764,19.764,0,0,0,5.1-8.581,5.535,5.535,0,0,0,0-11.069,19.886,19.886,0,0,0-38.2,0A5.535,5.535,0,0,0,7.66,25.416,19.962,19.962,0,0,0,19.243,38.286a16.753,16.753,0,0,0-6.732,6.2.791.791,0,0,0,1.348.828A15.145,15.145,0,0,1,16.288,42.3a63.064,63.064,0,0,0-.927,10.121H11.65a15,15,0,0,1,.9-4.4.791.791,0,0,0-1.485-.545,16.607,16.607,0,0,0-1.018,5.741.791.791,0,0,0,.791.791H42.69a2.376,2.376,0,0,0,2.373-2.373v-.432a3.954,3.954,0,0,0,0-7.9V41.357a1.027,1.027,0,1,1,2.054,0,2.373,2.373,0,0,0,4.746,0A5.779,5.779,0,0,0,46.09,35.585ZM21.748,20.04a4.924,4.924,0,0,1-.753,2c-.8.553-4.809.561-5.539.054a4.833,4.833,0,0,1-.552-2.045.624.624,0,0,1,.441-.65,12.955,12.955,0,0,1,5.945-.059.628.628,0,0,1,.459.7Zm5.631,5.145a.791.791,0,0,0-1.23,0,2.37,2.37,0,0,1-4.082-.715,3.526,3.526,0,0,0,2.128-1.04,1.315,1.315,0,0,1,1.954.1.791.791,0,0,0,1.23,0,1.314,1.314,0,0,1,1.954-.1,3.526,3.526,0,0,0,2.128,1.04A2.37,2.37,0,0,1,27.379,25.185Zm5.11-3.121a4.985,4.985,0,0,1-.768-2.032.647.647,0,0,1,.473-.725,13.145,13.145,0,0,1,6.033.06.644.644,0,0,1,.455.671,4.891,4.891,0,0,1-.563,2.081c-.733.513-4.809.513-5.631-.054Zm11.533-1.913-2.633,1.52a.791.791,0,0,0-.359.447,4.483,4.483,0,0,1-1.251,2.13c-1.177.9-4.368,1.2-6.823.735a1.748,1.748,0,0,0,.124-1.091c1.643.305,4.935.322,6.03-.539.809-.636,1.106-2.532,1.152-3.208a2.217,2.217,0,0,0-1.586-2.3,14.533,14.533,0,0,0-6.89-.071A2.214,2.214,0,0,0,30.162,20.3a7.527,7.527,0,0,0,.855,2.418,2.089,2.089,0,0,1-.564-.4,2.9,2.9,0,0,0-3.689-.345,2.9,2.9,0,0,0-3.689.345,2.068,2.068,0,0,1-.652.446,7.3,7.3,0,0,0,.884-2.452,2.194,2.194,0,0,0-1.61-2.5,14.348,14.348,0,0,0-6.8.07,2.2,2.2,0,0,0-1.572,2.275c.045.669.339,2.542,1.14,3.172,1.084.853,4.356.84,6,.526a1.7,1.7,0,0,0,.111,1.131c-2.455.468-5.645.163-6.823-.735a4.485,4.485,0,0,1-1.251-2.13.791.791,0,0,0-.359-.447l-2.633-1.52A1.009,1.009,0,0,1,10.515,18.4l.7.4a.791.791,0,0,0,1.14-.417,1.877,1.877,0,0,1,.4-.687c.854-.871,3.186-1.445,5.8-1.423,2.485.019,4.686.592,5.478,1.424a2.962,2.962,0,0,1,.515,2.2.792.792,0,0,0,1.146.775,2.339,2.339,0,0,1,2.14,0,.792.792,0,0,0,1.146-.775,2.961,2.961,0,0,1,.515-2.2c.791-.833,2.993-1.4,5.478-1.424,2.61-.021,4.942.552,5.8,1.423a1.879,1.879,0,0,1,.4.687.791.791,0,0,0,1.14.417l.7-.4a1.009,1.009,0,1,1,1.009,1.747Zm5.787-.271a3.951,3.951,0,0,1-3.55,3.932,20.148,20.148,0,0,0,0-7.867A3.958,3.958,0,0,1,49.809,19.881Zm-4.966-2.828a2.6,2.6,0,0,0-1.942-.291,3.724,3.724,0,0,0-2.244-3.32l-3.924-1.705a1.252,1.252,0,0,1-.7-1.508,14.278,14.278,0,0,0,.546-5.792,18.22,18.22,0,0,1,8.263,12.617ZM34.823,3.448a12.671,12.671,0,0,1-.3,6.327A2.835,2.835,0,0,0,36.1,13.188l3.924,1.7a2.163,2.163,0,0,1,1.118,1.114A12.639,12.639,0,0,0,34.96,14.7c-3.022.023-5.494.74-6.612,1.916A3.836,3.836,0,0,0,27.4,18.9a3.874,3.874,0,0,0-1.278,0,3.835,3.835,0,0,0-.944-2.28c-1.118-1.177-3.59-1.893-6.612-1.916a12.654,12.654,0,0,0-6.184,1.307A2.163,2.163,0,0,1,13.5,14.893l3.924-1.705a2.835,2.835,0,0,0,1.584-3.413A12.671,12.671,0,0,1,18.7,3.456a18.3,18.3,0,0,1,16.119-.009Zm-17.876,1a14.281,14.281,0,0,0,.547,5.784,1.252,1.252,0,0,1-.7,1.508l-3.924,1.705a3.727,3.727,0,0,0-2.244,3.319,2.585,2.585,0,0,0-1.943.293A18.335,18.335,0,0,1,16.947,4.445ZM3.719,19.881a3.951,3.951,0,0,1,3.555-3.932,20.08,20.08,0,0,0-.005,7.864,3.951,3.951,0,0,1-3.55-3.932ZM41.206,48.775a1.383,1.383,0,0,1-.853-1.247,1.319,1.319,0,0,1,.722-1.174,3.941,3.941,0,0,0,.213,2.436A.784.784,0,0,0,41.206,48.775ZM39.714,45.39a2.9,2.9,0,0,0,.6,4.7v1.535a2.363,2.363,0,0,0,.136.791H38.165A63.064,63.064,0,0,0,37.239,42.3a15.369,15.369,0,0,1,2.475,3.091Zm-8.092-6.23.588,1.61a1,1,0,0,1-1.256,1.3l-1.322-.438a2.9,2.9,0,0,0-.363-2.023A19.269,19.269,0,0,0,31.622,39.161Zm-10.306,1.61.588-1.609a19.847,19.847,0,0,0,2.354.442,2.9,2.9,0,0,0-.363,2.023l-1.323.438a1,1,0,0,1-1.256-1.3Zm4.112.326a1.335,1.335,0,1,1,1.335,1.335A1.337,1.337,0,0,1,25.428,41.1ZM16.943,52.418a62.879,62.879,0,0,1,1.235-11.664,15.174,15.174,0,0,1,1.862-1.1l-.209.573a2.585,2.585,0,0,0,3.24,3.34l1.536-.509a2.913,2.913,0,0,0,4.315,0l1.535.509a2.584,2.584,0,0,0,3.24-3.34l-.209-.573a15.131,15.131,0,0,1,1.862,1.1,62.9,62.9,0,0,1,1.235,11.666Zm25.747,0a.792.792,0,0,1-.791-.791V49.782a3.972,3.972,0,0,0,1.582,1.14v.7a.792.792,0,0,1-.791.791ZM47.3,47.243a2.373,2.373,0,1,1-2.373-2.373A2.376,2.376,0,0,1,47.3,47.243Zm2.189-5.094a.792.792,0,0,1-.791-.791,2.609,2.609,0,1,0-5.218,0v2.206a3.971,3.971,0,0,0-1.53,1.08l-.052-.006v-3.28a4.191,4.191,0,0,1,8.382,0A.792.792,0,0,1,49.49,42.148Z"/>
      </g>
    </g>
  </g>
</svg>
