<svg xmlns="http://www.w3.org/2000/svg" xmlns:xlink="http://www.w3.org/1999/xlink" width="54" height="54" viewBox="0 0 54 54">
  <defs>
    <clipPath id="clip-path">
      <rect id="Rectángulo_35819" data-name="Rectángulo 35819" width="54" height="54" transform="translate(600 11763)" fill="#fff" stroke="#707070" stroke-width="1"/>
    </clipPath>
  </defs>
  <g id="_99" data-name="99" transform="translate(-600 -11763)" clip-path="url(#clip-path)">
    <g id="cuarto" transform="translate(600 11763)">
      <path id="Trazado_127479" data-name="Trazado 127479" d="M10.016,21.257a.379.379,0,0,0,.384-.508L8.658,14.575a.739.739,0,0,0-.67-.508h-3.7a.739.739,0,0,0-.67.508L1.879,20.75a.379.379,0,0,0,.384.508Z" fill="#fcc96c"/>
      <path id="Trazado_127480" data-name="Trazado 127480" d="M4.132,20.75l1.742-6.175a.739.739,0,0,1,.67-.508H4.292a.739.739,0,0,0-.67.508L1.879,20.75a.379.379,0,0,0,.384.508H4.516A.379.379,0,0,1,4.132,20.75Z" opacity="0.1"/>
      <path id="Trazado_127481" data-name="Trazado 127481" d="M8.03,29.692V27.384a.529.529,0,0,0-.527-.527H4.777a.529.529,0,0,0-.527.527v2.308Z" fill="#abccd3"/>
      <path id="Trazado_127482" data-name="Trazado 127482" d="M51.737,21.257a.379.379,0,0,0,.384-.508l-1.742-6.175a.739.739,0,0,0-.67-.508h-3.7a.739.739,0,0,0-.67.508L43.6,20.75a.379.379,0,0,0,.384.508Z" fill="#fcc96c"/>
      <path id="Trazado_127483" data-name="Trazado 127483" d="M46,20.75l1.742-6.175a.739.739,0,0,1,.67-.508h-2.4a.739.739,0,0,0-.67.508L43.6,20.75a.379.379,0,0,0,.384.508h2.4A.379.379,0,0,1,46,20.75Z" opacity="0.1"/>
      <path id="Trazado_127484" data-name="Trazado 127484" d="M49.75,29.692V27.384a.529.529,0,0,0-.527-.527H46.5a.529.529,0,0,0-.527.527v2.308Z" fill="#abccd3"/>
      <path id="Trazado_127485" data-name="Trazado 127485" d="M7.469,38.662A.529.529,0,0,1,8,38.134H8.4V35.306a1.587,1.587,0,0,1,1.582-1.582h1.459V29.692H1.318a.529.529,0,0,0-.527.527v9.53a.529.529,0,0,0,.527.527H7.469Z" fill="#ff9f3d"/>
      <path id="Trazado_127486" data-name="Trazado 127486" d="M3.068,39.749v-9.53a.529.529,0,0,1,.527-.527H1.318a.529.529,0,0,0-.527.527v9.53a.529.529,0,0,0,.527.527H3.6A.529.529,0,0,1,3.068,39.749Z" opacity="0.1"/>
      <path id="Trazado_127487" data-name="Trazado 127487" d="M9.987,33.724h1.459V29.692H1.318a.529.529,0,0,0-.527.527V33.85H9.37A1.568,1.568,0,0,1,9.987,33.724Z" fill="#fff"/>
      <path id="Trazado_127488" data-name="Trazado 127488" d="M52.682,29.692H42.554v4.032h1.459A1.587,1.587,0,0,1,45.6,35.306v2.828H46a.529.529,0,0,1,.527.527v1.615h6.151a.529.529,0,0,0,.527-.527v-9.53A.529.529,0,0,0,52.682,29.692Z" fill="#ff9f3d"/>
      <path id="Trazado_127489" data-name="Trazado 127489" d="M52.682,29.692H42.554v4.032h1.459a1.568,1.568,0,0,1,.617.126h8.579V30.219A.529.529,0,0,0,52.682,29.692Z" fill="#fff"/>
      <path id="Trazado_127490" data-name="Trazado 127490" d="M42.554,33.724V26.817a.529.529,0,0,0-.527-.527H11.973a.529.529,0,0,0-.527.527v6.907Z" fill="#ff9f3d"/>
      <path id="Trazado_127491" data-name="Trazado 127491" d="M13.922,26.29H11.973a.529.529,0,0,0-.527.527v6.907h1.949V26.817A.529.529,0,0,1,13.922,26.29Z" opacity="0.1"/>
      <g id="Grupo_93515" data-name="Grupo 93515">
        <path id="Trazado_127492" data-name="Trazado 127492" d="M25.831,33.724V31.778A1.587,1.587,0,0,0,24.249,30.2h-8.2a1.587,1.587,0,0,0-1.582,1.582v1.946Z" fill="#fff"/>
        <path id="Trazado_127493" data-name="Trazado 127493" d="M39.865,33.724V31.778A1.587,1.587,0,0,0,38.283,30.2h-8.2A1.587,1.587,0,0,0,28.5,31.778v1.946Z" fill="#fff"/>
      </g>
      <path id="Trazado_127494" data-name="Trazado 127494" d="M45.6,38.134V35.306a1.587,1.587,0,0,0-1.582-1.582H9.987A1.587,1.587,0,0,0,8.4,35.306v2.828Z" fill="#ffcfab"/>
      <path id="Trazado_127495" data-name="Trazado 127495" d="M11.285,38.134V35.306a1.587,1.587,0,0,1,1.582-1.582H9.987A1.587,1.587,0,0,0,8.4,35.306v2.828Z" opacity="0.1"/>
      <path id="Trazado_127496" data-name="Trazado 127496" d="M11.62,46.7a.529.529,0,0,0,.527-.527V43.366a.529.529,0,0,1,.527-.527H41.325a.529.529,0,0,1,.527.527v2.809a.529.529,0,0,0,.527.527H46a.529.529,0,0,0,.527-.527V38.662A.529.529,0,0,0,46,38.134H8a.529.529,0,0,0-.527.527v7.514A.529.529,0,0,0,8,46.7Z" fill="#ff9f3d"/>
      <g id="Grupo_93516" data-name="Grupo 93516" opacity="0.1">
        <path id="Trazado_127497" data-name="Trazado 127497" d="M9.771,46.175V38.662a.529.529,0,0,1,.527-.527H8a.529.529,0,0,0-.527.527v7.514A.529.529,0,0,0,8,46.7h2.3A.529.529,0,0,1,9.771,46.175Z"/>
      </g>
      <path id="Trazado_127498" data-name="Trazado 127498" d="M38.718,19.554a.529.529,0,0,1-.527.527H15.809a.529.529,0,0,1-.527-.527V7.825a.529.529,0,0,1,.527-.527H38.191a.529.529,0,0,1,.527.527Z" fill="#b1e8ff"/>
      <path id="Trazado_127499" data-name="Trazado 127499" d="M17.59,19.554V7.825a.529.529,0,0,1,.527-.527H15.809a.529.529,0,0,0-.527.527V19.554a.529.529,0,0,0,.527.527h2.309A.529.529,0,0,1,17.59,19.554Z" opacity="0.1"/>
      <g id="Grupo_93517" data-name="Grupo 93517">
        <path id="Trazado_127500" data-name="Trazado 127500" d="M27.485,20.081H38.191a.529.529,0,0,0,.527-.527v-.863L33.5,9.657Z" fill="#86d5b5"/>
        <path id="Trazado_127501" data-name="Trazado 127501" d="M26.419,11.421l-5,8.66h6.065l1.967-3.407Z" fill="#86d5b5"/>
      </g>
      <circle id="Elipse_4892" data-name="Elipse 4892" cx="1.89" cy="1.89" r="1.89" transform="translate(18.432 9.783)" fill="#fff"/>
      <path id="Trazado_127502" data-name="Trazado 127502" d="M6.588,30.917a.791.791,0,1,0,.559.231A.8.8,0,0,0,6.588,30.917Z"/>
      <path id="Trazado_127503" data-name="Trazado 127503" d="M52.682,28.9h-2.14V27.384a1.32,1.32,0,0,0-1.318-1.318h-.572V22.048h3.085a1.168,1.168,0,0,0,1.145-1.513L51.14,14.36a1.532,1.532,0,0,0-1.432-1.084h-3.7A1.532,1.532,0,0,0,44.58,14.36l-1.742,6.175a1.168,1.168,0,0,0,1.145,1.513h3.085v4.017H46.5a1.32,1.32,0,0,0-1.318,1.318V28.9H43.345V26.817A1.32,1.32,0,0,0,42.027,25.5H20.672a.791.791,0,0,0,0,1.582H41.763v5.852H40.655V31.778A2.376,2.376,0,0,0,38.282,29.4h-8.2a2.376,2.376,0,0,0-2.373,2.373v1.155H26.621V31.778A2.376,2.376,0,0,0,24.248,29.4h-8.2a2.376,2.376,0,0,0-2.373,2.373v1.155H12.237V27.081h4.849a.791.791,0,0,0,0-1.582H11.973a1.32,1.32,0,0,0-1.318,1.318V28.9H8.821V27.384A1.32,1.32,0,0,0,7.5,26.066H6.931V22.048h3.085a1.168,1.168,0,0,0,1.145-1.513L9.42,14.36a1.532,1.532,0,0,0-1.432-1.084h-3.7A1.532,1.532,0,0,0,2.86,14.36L1.118,20.535a1.168,1.168,0,0,0,1.145,1.513H5.349v4.018H4.777a1.32,1.32,0,0,0-1.318,1.318V28.9H1.318A1.32,1.32,0,0,0,0,30.219v9.53a1.32,1.32,0,0,0,1.318,1.318h5.36v5.108A1.32,1.32,0,0,0,8,47.494H11.62a1.32,1.32,0,0,0,1.318-1.318V43.629H32.59a.791.791,0,0,0,0-1.582H12.675a1.32,1.32,0,0,0-1.318,1.318v2.546H8.26V38.925H45.74v6.986h-3.1V43.366a1.32,1.32,0,0,0-1.318-1.318H36.387a.791.791,0,0,0,0,1.582h4.675v2.546a1.32,1.32,0,0,0,1.318,1.318H46a1.32,1.32,0,0,0,1.318-1.318V41.067h5.36A1.32,1.32,0,0,0,54,39.749v-9.53A1.32,1.32,0,0,0,52.682,28.9ZM44.5,20.466l1.582-5.608h3.553l1.582,5.608Zm2.26,7.182h2.2v1.19h-2.2Zm-17.472,4.13a.792.792,0,0,1,.791-.791h8.2a.792.792,0,0,1,.791.791v1.155H29.289Zm-14.034,0a.792.792,0,0,1,.791-.791h8.2a.792.792,0,0,1,.791.791v1.155H15.255V31.778ZM2.781,20.466l1.582-5.608H7.916L9.5,20.466Zm2.26,7.182h2.2v1.19h-2.2Zm2.573,7.658V37.4a1.32,1.32,0,0,0-.936,1.261v.824h-5.1V34.641H7.709A2.363,2.363,0,0,0,7.614,35.306ZM1.582,33.059V30.483h9.073v2.45H9.987a2.361,2.361,0,0,0-.761.126ZM44.8,37.343H9.2V35.306a.792.792,0,0,1,.791-.791H44.013a.792.792,0,0,1,.791.791Zm7.614,2.142h-5.1v-.824a1.32,1.32,0,0,0-.936-1.261V35.306a2.363,2.363,0,0,0-.1-.665h6.127Zm0-6.426H44.775a2.361,2.361,0,0,0-.761-.126h-.668v-2.45h9.072Z"/>
      <path id="Trazado_127504" data-name="Trazado 127504" d="M47.412,32.5a.792.792,0,1,0-.559-.232A.8.8,0,0,0,47.412,32.5Z"/>
      <path id="Trazado_127505" data-name="Trazado 127505" d="M15.809,20.872H38.191a1.32,1.32,0,0,0,1.318-1.318V13.5a.791.791,0,0,0-1.582,0v2.239l-3.74-6.477a.791.791,0,0,0-1.37,0l-3.366,5.83L27.1,11.026l0-.006a.79.79,0,0,0-1.366.006L20.963,19.29h-4.89V8.089H37.927V9.914a.791.791,0,0,0,1.582,0V7.825a1.32,1.32,0,0,0-1.318-1.318H15.809a1.32,1.32,0,0,0-1.318,1.318V19.554A1.32,1.32,0,0,0,15.809,20.872ZM33.5,11.239,37.927,18.9v.387H28.855ZM26.419,13l2.119,3.671L27.028,19.29H22.789Z"/>
      <path id="Trazado_127506" data-name="Trazado 127506" d="M17.641,11.673a2.681,2.681,0,1,0,2.681-2.681A2.684,2.684,0,0,0,17.641,11.673Zm3.78,0a1.1,1.1,0,1,1-1.1-1.1A1.1,1.1,0,0,1,21.421,11.673Z"/>
    </g>
  </g>
</svg>
